  0
SECTION
  2
HEADER
  9
$ACADVER
  1
AC1018
  9
$ACADMAINTVER
 70
     0
  9
$DWGCODEPAGE
  3
ANSI_936
  9
$INSBASE
 10
0.0
 20
0.0
 30
0.0
  9
$EXTMIN
 10
1.000000000000000E+20
 20
1.000000000000000E+20
 30
1.000000000000000E+20
  9
$EXTMAX
 10
-1.000000000000000E+20
 20
-1.000000000000000E+20
 30
-1.000000000000000E+20
  9
$LIMMIN
 10
0.0
 20
0.0
  9
$LIMMAX
 10
12.0
 20
9.0
  9
$ORTHOMODE
 70
     0
  9
$REGENMODE
 70
     1
  9
$FILLMODE
 70
     1
  9
$QTEXTMODE
 70
     0
  9
$MIRRTEXT
 70
     1
  9
$LTSCALE
 40
1.0
  9
$ATTMODE
 70
     1
  9
$TEXTSIZE
 40
0.2
  9
$TRACEWID
 40
0.05
  9
$TEXTSTYLE
  7
Standard
  9
$CLAYER
  8
0
  9
$CELTYPE
  6
ByLayer
  9
$CECOLOR
 62
   256
  9
$CELTSCALE
 40
1.0
  9
$DISPSILH
 70
     0
  9
$DIMSCALE
 40
1.0
  9
$DIMASZ
 40
0.18
  9
$DIMEXO
 40
0.0625
  9
$DIMDLI
 40
0.38
  9
$DIMRND
 40
0.0
  9
$DIMDLE
 40
0.0
  9
$DIMEXE
 40
0.18
  9
$DIMTP
 40
0.0
  9
$DIMTM
 40
0.0
  9
$DIMTXT
 40
0.18
  9
$DIMCEN
 40
0.09
  9
$DIMTSZ
 40
0.0
  9
$DIMTOL
 70
     0
  9
$DIMLIM
 70
     0
  9
$DIMTIH
 70
     1
  9
$DIMTOH
 70
     1
  9
$DIMSE1
 70
     0
  9
$DIMSE2
 70
     0
  9
$DIMTAD
 70
     0
  9
$DIMZIN
 70
     0
  9
$DIMBLK
  1

  9
$DIMASO
 70
     1
  9
$DIMSHO
 70
     1
  9
$DIMPOST
  1

  9
$DIMAPOST
  1

  9
$DIMALT
 70
     0
  9
$DIMALTD
 70
     2
  9
$DIMALTF
 40
25.4
  9
$DIMLFAC
 40
1.0
  9
$DIMTOFL
 70
     0
  9
$DIMTVP
 40
0.0
  9
$DIMTIX
 70
     0
  9
$DIMSOXD
 70
     0
  9
$DIMSAH
 70
     0
  9
$DIMBLK1
  1

  9
$DIMBLK2
  1

  9
$DIMSTYLE
  2
Standard
  9
$DIMCLRD
 70
     0
  9
$DIMCLRE
 70
     0
  9
$DIMCLRT
 70
     0
  9
$DIMTFAC
 40
1.0
  9
$DIMGAP
 40
0.09
  9
$DIMJUST
 70
     0
  9
$DIMSD1
 70
     0
  9
$DIMSD2
 70
     0
  9
$DIMTOLJ
 70
     1
  9
$DIMTZIN
 70
     0
  9
$DIMALTZ
 70
     0
  9
$DIMALTTZ
 70
     0
  9
$DIMUPT
 70
     0
  9
$DIMDEC
 70
     4
  9
$DIMTDEC
 70
     4
  9
$DIMALTU
 70
     2
  9
$DIMALTTD
 70
     2
  9
$DIMTXSTY
  7
Standard
  9
$DIMAUNIT
 70
     0
  9
$DIMADEC
 70
     0
  9
$DIMALTRND
 40
0.0
  9
$DIMAZIN
 70
     0
  9
$DIMDSEP
 70
    46
  9
$DIMATFIT
 70
     3
  9
$DIMFRAC
 70
     0
  9
$DIMLDRBLK
  1

  9
$DIMLUNIT
 70
     2
  9
$DIMLWD
 70
    -2
  9
$DIMLWE
 70
    -2
  9
$DIMTMOVE
 70
     0
  9
$LUNITS
 70
     2
  9
$LUPREC
 70
     4
  9
$SKETCHINC
 40
0.1
  9
$FILLETRAD
 40
0.5
  9
$AUNITS
 70
     0
  9
$AUPREC
 70
     0
  9
$MENU
  1
.
  9
$ELEVATION
 40
0.0
  9
$PELEVATION
 40
0.0
  9
$THICKNESS
 40
0.0
  9
$LIMCHECK
 70
     0
  9
$CHAMFERA
 40
0.5
  9
$CHAMFERB
 40
0.5
  9
$CHAMFERC
 40
1.0
  9
$CHAMFERD
 40
0.0
  9
$SKPOLY
 70
     0
  9
$TDCREATE
 40
2459207.905279329
  9
$TDUCREATE
 40
2459207.571945996
  9
$TDUPDATE
 40
2459207.905279398
  9
$TDUUPDATE
 40
2459207.571946065
  9
$TDINDWG
 40
0.0000000116
  9
$TDUSRTIMER
 40
0.0000000116
  9
$USRTIMER
 70
     1
  9
$ANGBASE
 50
0.0
  9
$ANGDIR
 70
     0
  9
$PDMODE
 70
     0
  9
$PDSIZE
 40
0.0
  9
$PLINEWID
 40
0.0
  9
$SPLFRAME
 70
     0
  9
$SPLINETYPE
 70
     6
  9
$SPLINESEGS
 70
     8
  9
$HANDSEED
  5
73
  9
$SURFTAB1
 70
     6
  9
$SURFTAB2
 70
     6
  9
$SURFTYPE
 70
     6
  9
$SURFU
 70
     6
  9
$SURFV
 70
     6
  9
$UCSBASE
  2

  9
$UCSNAME
  2

  9
$UCSORG
 10
0.0
 20
0.0
 30
0.0
  9
$UCSXDIR
 10
1.0
 20
0.0
 30
0.0
  9
$UCSYDIR
 10
0.0
 20
1.0
 30
0.0
  9
$UCSORTHOREF
  2

  9
$UCSORTHOVIEW
 70
     0
  9
$UCSORGTOP
 10
0.0
 20
0.0
 30
0.0
  9
$UCSORGBOTTOM
 10
0.0
 20
0.0
 30
0.0
  9
$UCSORGLEFT
 10
0.0
 20
0.0
 30
0.0
  9
$UCSORGRIGHT
 10
0.0
 20
0.0
 30
0.0
  9
$UCSORGFRONT
 10
0.0
 20
0.0
 30
0.0
  9
$UCSORGBACK
 10
0.0
 20
0.0
 30
0.0
  9
$PUCSBASE
  2

  9
$PUCSNAME
  2

  9
$PUCSORG
 10
0.0
 20
0.0
 30
0.0
  9
$PUCSXDIR
 10
1.0
 20
0.0
 30
0.0
  9
$PUCSYDIR
 10
0.0
 20
1.0
 30
0.0
  9
$PUCSORTHOREF
  2

  9
$PUCSORTHOVIEW
 70
     0
  9
$PUCSORGTOP
 10
0.0
 20
0.0
 30
0.0
  9
$PUCSORGBOTTOM
 10
0.0
 20
0.0
 30
0.0
  9
$PUCSORGLEFT
 10
0.0
 20
0.0
 30
0.0
  9
$PUCSORGRIGHT
 10
0.0
 20
0.0
 30
0.0
  9
$PUCSORGFRONT
 10
0.0
 20
0.0
 30
0.0
  9
$PUCSORGBACK
 10
0.0
 20
0.0
 30
0.0
  9
$USERI1
 70
     0
  9
$USERI2
 70
     0
  9
$USERI3
 70
     0
  9
$USERI4
 70
     0
  9
$USERI5
 70
     0
  9
$USERR1
 40
0.0
  9
$USERR2
 40
0.0
  9
$USERR3
 40
0.0
  9
$USERR4
 40
0.0
  9
$USERR5
 40
0.0
  9
$WORLDVIEW
 70
     1
  9
$SHADEDGE
 70
     3
  9
$SHADEDIF
 70
    70
  9
$TILEMODE
 70
     1
  9
$MAXACTVP
 70
    64
  9
$PINSBASE
 10
0.0
 20
0.0
 30
0.0
  9
$PLIMCHECK
 70
     0
  9
$PEXTMIN
 10
1.000000000000000E+20
 20
1.000000000000000E+20
 30
1.000000000000000E+20
  9
$PEXTMAX
 10
-1.000000000000000E+20
 20
-1.000000000000000E+20
 30
-1.000000000000000E+20
  9
$PLIMMIN
 10
0.0
 20
0.0
  9
$PLIMMAX
 10
12.0
 20
9.0
  9
$UNITMODE
 70
     0
  9
$VISRETAIN
 70
     1
  9
$PLINEGEN
 70
     0
  9
$PSLTSCALE
 70
     1
  9
$TREEDEPTH
 70
  3020
  9
$CMLSTYLE
  2
Standard
  9
$CMLJUST
 70
     0
  9
$CMLSCALE
 40
1.0
  9
$PROXYGRAPHICS
 70
     1
  9
$MEASUREMENT
 70
     0
  9
$CELWEIGHT
370
    -1
  9
$ENDCAPS
280
     0
  9
$JOINSTYLE
280
     0
  9
$LWDISPLAY
290
     1
  9
$INSUNITS
 70
     4
  9
$HYPERLINKBASE
  1

  9
$STYLESHEET
  1

  9
$XEDIT
290
     1
  9
$CEPSNTYPE
380
     0
  9
$PSTYLEMODE
290
     1
  9
$FINGERPRINTGUID
  2
{EAC9E6BE-ACBD-4F52-9670-51CEFAD59AB0}
  9
$VERSIONGUID
  2
{FAEB1C32-E019-11D5-929B-00C0DF256EC4}
  9
$EXTNAMES
290
     1
  9
$PSVPSCALE
 40
0.0
  9
$OLESTARTUP
290
     0
  9
$SORTENTS
280
   127
  9
$INDEXCTL
280
     0
  9
$HIDETEXT
280
     1
  9
$XCLIPFRAME
290
     0
  9
$HALOGAP
280
     0
  9
$OBSCOLOR
 70
   257
  9
$OBSLTYPE
280
     0
  9
$INTERSECTIONDISPLAY
280
     0
  9
$INTERSECTIONCOLOR
 70
   257
  9
$DIMASSOC
280
     2
  9
$PROJECTNAME
  1

  0
ENDSEC
  0
SECTION
  2
CLASSES
  0
CLASS
  1
ACDBDICTIONARYWDFLT
  2
AcDbDictionaryWithDefault
  3
ObjectDBX Classes
 90
        0
 91
        4
280
     0
281
     0
  0
CLASS
  1
VISUALSTYLE
  2
AcDbVisualStyle
  3
ObjectDBX Classes
 90
     4095
 91
        4
280
     0
281
     0
  0
CLASS
  1
MATERIAL
  2
AcDbMaterial
  3
ObjectDBX Classes
 90
     1153
 91
        4
280
     0
281
     0
  0
CLASS
  1
SUN
  2
AcDbSun
  3
SCENEOE
 90
     1024
 91
        4
280
     0
281
     0
  0
ENDSEC
  0
SECTION
  2
TABLES
  0
TABLE
  2
VPORT
  5
8
330
0
100
AcDbSymbolTable
 70
     1
  0
VPORT
  5
29
330
8
100
AcDbSymbolTableRecord
100
AcDbViewportTableRecord
  2
*Active
 70
     0
 10
0.0
 20
0.0
 11
1.0
 21
1.0
 12
0.0
 22
0.0
 13
0.0
 23
0.0
 14
0.5
 24
0.5
 15
0.5
 25
0.5
 16
0.0
 26
0.0
 36
1.0
 17
-378.4833332387128
 27
402.7173440727618
 37
0.0
 40
249.9999999374993
 41
1.000000000000003
 42
50.0
 43
0.0
 44
0.0
 50
0.0
 51
0.0
 71
     0
 72
   100
 73
     1
 74
     3
 75
     0
 76
     0
 77
     0
 78
     0
281
     0
 65
     1
110
0.0
120
0.0
130
0.0
111
1.0
121
0.0
131
0.0
112
0.0
122
1.0
132
0.0
 79
     0
146
0.0
  0
ENDTAB
  0
TABLE
  2
LTYPE
  5
5
330
0
100
AcDbSymbolTable
 70
     1
  0
LTYPE
  5
14
330
5
100
AcDbSymbolTableRecord
100
AcDbLinetypeTableRecord
  2
ByBlock
 70
     0
  3

 72
    65
 73
     0
 40
0.0
  0
LTYPE
  5
15
330
5
100
AcDbSymbolTableRecord
100
AcDbLinetypeTableRecord
  2
ByLayer
 70
     0
  3

 72
    65
 73
     0
 40
0.0
  0
LTYPE
  5
16
330
5
100
AcDbSymbolTableRecord
100
AcDbLinetypeTableRecord
  2
Continuous
 70
     0
  3
Solid line
 72
    65
 73
     0
 40
0.0
  0
ENDTAB
  0
TABLE
  2
LAYER
  5
2
330
0
100
AcDbSymbolTable
 70
     2
  0
LAYER
  5
10
330
2
100
AcDbSymbolTableRecord
100
AcDbLayerTableRecord
  2
0
 70
     0
 62
     7
  6
Continuous
370
    -3
390
F
  0
LAYER
  5
40
330
2
100
AcDbSymbolTableRecord
100
AcDbLayerTableRecord
  2
_U+56FE_U+5C42 1
 70
     0
 62
     7
  6
Continuous
370
    -3
390
F
  0
ENDTAB
  0
TABLE
  2
STYLE
  5
3
330
0
100
AcDbSymbolTable
 70
     1
  0
STYLE
  5
11
330
3
100
AcDbSymbolTableRecord
100
AcDbTextStyleTableRecord
  2
Standard
 70
     0
 40
0.0
 41
1.0
 50
0.0
 71
     0
 42
0.2
  3
txt
  4

  0
ENDTAB
  0
TABLE
  2
VIEW
  5
6
330
0
100
AcDbSymbolTable
 70
     0
  0
ENDTAB
  0
TABLE
  2
UCS
  5
7
330
0
100
AcDbSymbolTable
 70
     0
  0
ENDTAB
  0
TABLE
  2
APPID
  5
9
330
0
100
AcDbSymbolTable
 70
     1
  0
APPID
  5
12
330
9
100
AcDbSymbolTableRecord
100
AcDbRegAppTableRecord
  2
ACAD
 70
     0
  0
ENDTAB
  0
TABLE
  2
DIMSTYLE
  5
A
330
0
100
AcDbSymbolTable
 70
     1
100
AcDbDimStyleTable
  0
DIMSTYLE
105
27
330
A
100
AcDbSymbolTableRecord
100
AcDbDimStyleTableRecord
  2
Standard
 70
     0
178
     0
340
11
  0
ENDTAB
  0
TABLE
  2
BLOCK_RECORD
  5
1
330
0
100
AcDbSymbolTable
 70
     3
  0
BLOCK_RECORD
  5
1F
330
1
100
AcDbSymbolTableRecord
100
AcDbBlockTableRecord
  2
*Model_Space
340
22
  0
BLOCK_RECORD
  5
1B
330
1
100
AcDbSymbolTableRecord
100
AcDbBlockTableRecord
  2
*Paper_Space
340
1E
  0
BLOCK_RECORD
  5
23
330
1
100
AcDbSymbolTableRecord
100
AcDbBlockTableRecord
  2
*Paper_Space0
340
26
  0
BLOCK_RECORD
  5
41
330
1
100
AcDbSymbolTableRecord
100
AcDbBlockTableRecord
  2
block 2
340
0
102
{BLKREFS
331
42
102
}
  0
BLOCK_RECORD
  5
46
330
1
100
AcDbSymbolTableRecord
100
AcDbBlockTableRecord
  2
block 3
340
0
102
{BLKREFS
331
47
102
}
  0
ENDTAB
  0
ENDSEC
  0
SECTION
  2
BLOCKS
  0
BLOCK
  5
20
330
1F
100
AcDbEntity
  8
0
100
AcDbBlockBegin
  2
*Model_Space
 70
     0
 10
0.0
 20
0.0
 30
0.0
  3
*Model_Space
  1

  0
ENDBLK
  5
21
330
1F
100
AcDbEntity
  8
0
100
AcDbBlockEnd
  0
BLOCK
  5
1C
330
1B
100
AcDbEntity
 67
     1
  8
0
100
AcDbBlockBegin
  2
*Paper_Space
 70
     0
 10
0.0
 20
0.0
 30
0.0
  3
*Paper_Space
  1

  0
ENDBLK
  5
1D
330
1B
100
AcDbEntity
 67
     1
  8
0
100
AcDbBlockEnd
  0
BLOCK
  5
24
330
23
100
AcDbEntity
  8
0
100
AcDbBlockBegin
  2
*Paper_Space0
 70
     0
 10
0.0
 20
0.0
 30
0.0
  3
*Paper_Space0
  1

  0
ENDBLK
  5
25
330
23
100
AcDbEntity
  8
0
100
AcDbBlockEnd
  0
BLOCK
  5
43
330
41
100
AcDbEntity
  8
0
100
AcDbBlockBegin
  2
block 2
 70
     0
 10
0.0
 20
0.0
 30
0.0
  3
block 2
  1

  0
SPLINE
  5
45
330
41
100
AcDbEntity
  8
_U+56FE_U+5C42 1
 62
     7
370
    35
100
AcDbSpline
210
0.0
220
0.0
230
1.0
 70
    11
 71
     3
 72
   341
 73
   337
 74
     0
 42
0.0000000001
 43
0.0000000001
 12
1.0
 22
0.0
 32
0.0
 13
1.0
 23
0.0
 33
0.0
 40
0.0
 40
0.0
 40
0.0
 40
0.0
 40
1.0
 40
1.0
 40
1.0
 40
2.0
 40
2.0
 40
2.0
 40
3.0
 40
3.0
 40
3.0
 40
4.0
 40
4.0
 40
4.0
 40
5.0
 40
5.0
 40
5.0
 40
6.0
 40
6.0
 40
6.0
 40
7.0
 40
7.0
 40
7.0
 40
8.0
 40
8.0
 40
8.0
 40
9.0
 40
9.0
 40
9.0
 40
10.0
 40
10.0
 40
10.0
 40
11.0
 40
11.0
 40
11.0
 40
12.0
 40
12.0
 40
12.0
 40
13.0
 40
13.0
 40
13.0
 40
14.0
 40
14.0
 40
14.0
 40
15.0
 40
15.0
 40
15.0
 40
16.0
 40
16.0
 40
16.0
 40
17.0
 40
17.0
 40
17.0
 40
18.0
 40
18.0
 40
18.0
 40
19.0
 40
19.0
 40
19.0
 40
20.0
 40
20.0
 40
20.0
 40
21.0
 40
21.0
 40
21.0
 40
22.0
 40
22.0
 40
22.0
 40
23.0
 40
23.0
 40
23.0
 40
24.0
 40
24.0
 40
24.0
 40
25.0
 40
25.0
 40
25.0
 40
26.0
 40
26.0
 40
26.0
 40
27.0
 40
27.0
 40
27.0
 40
28.0
 40
28.0
 40
28.0
 40
29.0
 40
29.0
 40
29.0
 40
30.0
 40
30.0
 40
30.0
 40
31.0
 40
31.0
 40
31.0
 40
32.0
 40
32.0
 40
32.0
 40
33.0
 40
33.0
 40
33.0
 40
34.0
 40
34.0
 40
34.0
 40
35.0
 40
35.0
 40
35.0
 40
36.0
 40
36.0
 40
36.0
 40
37.0
 40
37.0
 40
37.0
 40
38.0
 40
38.0
 40
38.0
 40
39.0
 40
39.0
 40
39.0
 40
40.0
 40
40.0
 40
40.0
 40
41.0
 40
41.0
 40
41.0
 40
42.0
 40
42.0
 40
42.0
 40
43.0
 40
43.0
 40
43.0
 40
44.0
 40
44.0
 40
44.0
 40
45.0
 40
45.0
 40
45.0
 40
46.0
 40
46.0
 40
46.0
 40
47.0
 40
47.0
 40
47.0
 40
48.0
 40
48.0
 40
48.0
 40
49.0
 40
49.0
 40
49.0
 40
50.0
 40
50.0
 40
50.0
 40
51.0
 40
51.0
 40
51.0
 40
52.0
 40
52.0
 40
52.0
 40
53.0
 40
53.0
 40
53.0
 40
54.0
 40
54.0
 40
54.0
 40
55.0
 40
55.0
 40
55.0
 40
56.0
 40
56.0
 40
56.0
 40
57.0
 40
57.0
 40
57.0
 40
58.0
 40
58.0
 40
58.0
 40
59.0
 40
59.0
 40
59.0
 40
60.0
 40
60.0
 40
60.0
 40
61.0
 40
61.0
 40
61.0
 40
62.0
 40
62.0
 40
62.0
 40
63.0
 40
63.0
 40
63.0
 40
64.0
 40
64.0
 40
64.0
 40
65.0
 40
65.0
 40
65.0
 40
66.0
 40
66.0
 40
66.0
 40
67.0
 40
67.0
 40
67.0
 40
68.0
 40
68.0
 40
68.0
 40
69.0
 40
69.0
 40
69.0
 40
70.0
 40
70.0
 40
70.0
 40
71.0
 40
71.0
 40
71.0
 40
72.0
 40
72.0
 40
72.0
 40
73.0
 40
73.0
 40
73.0
 40
74.0
 40
74.0
 40
74.0
 40
75.0
 40
75.0
 40
75.0
 40
76.0
 40
76.0
 40
76.0
 40
77.0
 40
77.0
 40
77.0
 40
78.0
 40
78.0
 40
78.0
 40
79.0
 40
79.0
 40
79.0
 40
80.0
 40
80.0
 40
80.0
 40
81.0
 40
81.0
 40
81.0
 40
82.0
 40
82.0
 40
82.0
 40
83.0
 40
83.0
 40
83.0
 40
84.0
 40
84.0
 40
84.0
 40
85.0
 40
85.0
 40
85.0
 40
86.0
 40
86.0
 40
86.0
 40
87.0
 40
87.0
 40
87.0
 40
88.0
 40
88.0
 40
88.0
 40
89.0
 40
89.0
 40
89.0
 40
90.0
 40
90.0
 40
90.0
 40
91.0
 40
91.0
 40
91.0
 40
92.0
 40
92.0
 40
92.0
 40
93.0
 40
93.0
 40
93.0
 40
94.0
 40
94.0
 40
94.0
 40
95.0
 40
95.0
 40
95.0
 40
96.0
 40
96.0
 40
96.0
 40
97.0
 40
97.0
 40
97.0
 40
98.0
 40
98.0
 40
98.0
 40
99.0
 40
99.0
 40
99.0
 40
100.0
 40
100.0
 40
100.0
 40
101.0
 40
101.0
 40
101.0
 40
102.0
 40
102.0
 40
102.0
 40
103.0
 40
103.0
 40
103.0
 40
104.0
 40
104.0
 40
104.0
 40
105.0
 40
105.0
 40
105.0
 40
106.0
 40
106.0
 40
106.0
 40
107.0
 40
107.0
 40
107.0
 40
108.0
 40
108.0
 40
108.0
 40
109.0
 40
109.0
 40
109.0
 40
110.0
 40
110.0
 40
110.0
 40
111.0
 40
111.0
 40
111.0
 40
112.0
 40
112.0
 40
112.0
 40
112.0
 10
-401.6556398428986
 20
399.4175194778343
 30
0.0
 10
-401.036772744406
 20
400.0363865763275
 30
0.0
 10
-400.4968667448976
 20
400.5901520564554
 30
0.0
 10
-399.9421332213337
 20
401.1286436524429
 30
0.0
 10
-397.4849516420714
 20
403.5138664065364
 30
0.0
 10
-395.0244921059442
 20
405.8957219317454
 30
0.0
 10
-392.5633769784375
 20
408.2768995475735
 30
0.0
 10
-388.8641928838853
 20
411.8559290868229
 30
0.0
 10
-385.1623111005659
 20
415.4321716652818
 30
0.0
 10
-381.4638495513958
 20
419.0119683859196
 30
0.0
 10
-379.4056832006491
 20
421.0040957621383
 30
0.0
 10
-377.3516205729259
 20
423.0004607694039
 30
0.0
 10
-375.2966652250265
 20
424.995910738505
 30
0.0
 10
-373.1958993836894
 20
427.0358488592859
 30
0.0
 10
-371.0966762743959
 20
429.0774189841471
 30
0.0
 10
-368.9960778180881
 20
431.1175244899676
 30
0.0
 10
-366.863918914035
 20
433.1882921438573
 30
0.0
 10
-364.7312439061349
 20
435.2584990578958
 30
0.0
 10
-362.5981504356611
 20
437.3283098273608
 30
0.0
 10
-360.573396926998
 20
439.2929888481132
 30
0.0
 10
-358.5470839477952
 20
441.2560860803144
 30
0.0
 10
-356.52281027623
 20
443.2212672561578
 30
0.0
 10
-354.3748167481696
 20
445.3065527718136
 30
0.0
 10
-352.2280200230916
 20
447.3930350904411
 30
0.0
 10
-350.0814520575585
 20
449.4797908046258
 30
0.0
 10
-347.9053238954101
 20
451.5952809492544
 30
0.0
 10
-345.7302837359723
 20
453.7119260506131
 30
0.0
 10
-343.554428969373
 20
455.8277119087956
 30
0.0
 10
-341.3155704768158
 20
458.0047606886225
 30
0.0
 10
-339.0768012562784
 20
460.181943376478
 30
0.0
 10
-336.8370360948018
 20
462.3580631693646
 30
0.0
 10
-334.7362563047039
 20
464.3991478776262
 30
0.0
 10
-332.6337106025263
 20
466.438422037792
 30
0.0
 10
-330.5328694379259
 20
468.4794453715392
 30
0.0
 10
-328.3546238551232
 20
470.595674800072
 30
0.0
 10
-326.1758621684789
 20
472.7113658067399
 30
0.0
 10
-324.000305905189
 20
474.830373826794
 30
0.0
 10
-321.5164710493706
 20
477.24964827585
 30
0.0
 10
-319.0307586914481
 20
479.6670898588147
 30
0.0
 10
-316.5555051082628
 20
482.0951241245328
 30
0.0
 10
-314.4337157069268
 20
484.176439825183
 30
0.0
 10
-312.3126488509869
 20
486.2588128412778
 30
0.0
 10
-310.2189689759896
 20
488.3682380682652
 30
0.0
 10
-309.5707258044196
 20
489.0213577237681
 30
0.0
 10
-308.9366043500315
 20
489.6963211259092
 30
0.0
 10
-308.495957674373
 20
490.532710652706
 30
0.0
 10
-307.8692402178839
 20
491.7222770170424
 30
0.0
 10
-307.6951207283293
 20
492.9779381509395
 30
0.0
 10
-307.8363434796403
 20
494.2901419485592
 30
0.0
 10
-307.9099956833714
 20
494.9746825642788
 30
0.0
 10
-308.0259405051384
 20
495.654871169166
 30
0.0
 10
-308.1300874719084
 20
496.3358939094597
 30
0.0
 10
-308.3108158804721
 20
497.5177633520944
 30
0.0
 10
-308.0940159975621
 20
497.9560861655626
 30
0.0
 10
-307.0268192504493
 20
498.5318069823611
 30
0.0
 10
-305.2491037306927
 20
499.4908144141862
 30
0.0
 10
-303.4725599061582
 20
500.4519308974133
 30
0.0
 10
-301.6920462666158
 20
501.4057745009963
 30
0.0
 10
-299.4956924131308
 20
502.5823852638826
 30
0.0
 10
-297.2972992520053
 20
503.7551266427834
 30
0.0
 10
-295.0970341682724
 20
504.9243892027754
 30
0.0
 10
-293.4480237892029
 20
505.8007056391486
 30
0.0
 10
-291.7929122257201
 20
506.6654752980759
 30
0.0
 10
-290.1437205128674
 20
507.5415211286448
 30
0.0
 10
-287.9250570243942
 20
508.7200596091468
 30
0.0
 10
-285.7100230013625
 20
509.9054413476993
 30
0.0
 10
-283.4924809926024
 20
511.0860833000966
 30
0.0
 10
-281.2173836406651
 20
512.297370662063
 30
0.0
 10
-278.9394742201936
 20
513.5033909750312
 30
0.0
 10
-276.6666756226928
 20
514.718941075813
 30
0.0
 10
-276.1560508447462
 20
514.9920353346583
 30
0.0
 10
-275.6840417936377
 20
515.3474886086485
 30
0.0
 10
-275.1554844992866
 20
515.5749760258371
 30
0.0
 10
-273.3175773220966
 20
516.3659958397614
 30
0.0
 10
-271.6183179564849
 20
517.4137703436853
 30
0.0
 10
-269.8679419919231
 20
518.3668188683774
 30
0.0
 10
-269.4917469227482
 20
518.5716507215188
 30
0.0
 10
-269.1370078249004
 20
518.8201672781994
 30
0.0
 10
-268.7497179178698
 20
518.9996207707699
 30
0.0
 10
-267.9950736610994
 20
519.3492713636535
 30
0.0
 10
-267.2238833939383
 20
519.663182462498
 30
0.0
 10
-266.4606104387724
 20
519.9943844351252
 30
0.0
 10
-266.2208899655109
 20
520.0984058631203
 30
0.0
 10
-265.9988146643474
 20
520.0639357055787
 30
0.0
 10
-265.7871088659081
 20
519.9247634209173
 30
0.0
 10
-264.5053021900475
 20
519.0821304324357
 30
0.0
 10
-263.0755773616153
 20
518.8881534986023
 30
0.0
 10
-261.5829966639871
 20
518.9564940173376
 30
0.0
 10
-260.6352319268027
 20
518.9999164843235
 30
0.0
 10
-259.6890015524058
 20
519.0105035875904
 30
0.0
 10
-258.7506745412598
 20
518.8196958103558
 30
0.0
 10
-258.1183385272034
 20
518.6911217879452
 30
0.0
 10
-257.5703143536655
 20
518.3992636670371
 30
0.0
 10
-257.1185895786495
 20
517.9553501935054
 30
0.0
 10
-256.3775258274594
 20
517.22705234074
 30
0.0
 10
-256.1724177890111
 20
516.3435662455056
 30
0.0
 10
-256.4562023718939
 20
515.3439316767176
 30
0.0
 10
-256.784505793724
 20
514.1875075486649
 30
0.0
 10
-257.4842812370812
 20
513.2513286454313
 30
0.0
 10
-258.3220321621314
 20
512.4418323137469
 30
0.0
 10
-259.295364962924
 20
511.5013069791788
 30
0.0
 10
-260.340293921301
 20
510.6324224382114
 30
0.0
 10
-261.381311649443
 20
509.7650276240453
 30
0.0
 10
-263.8288713791299
 20
507.7256865098587
 30
0.0
 10
-266.310655768307
 20
505.7270422764085
 30
0.0
 10
-268.7446628899129
 20
503.6718274817238
 30
0.0
 10
-271.0981857087365
 20
501.6845431124243
 30
0.0
 10
-273.3693718304301
 20
499.6043879480017
 30
0.0
 10
-275.5307701097848
 20
497.4063658236909
 30
0.0
 10
-277.3899100782527
 20
495.5157239922455
 30
0.0
 10
-279.1204816038042
 20
493.5131183130487
 30
0.0
 10
-280.7958104893726
 20
491.459733594702
 30
0.0
 10
-282.9212433048966
 20
488.8546868681116
 30
0.0
 10
-284.8524146320415
 20
486.1081830511787
 30
0.0
 10
-286.7551974577896
 20
483.340298586184
 30
0.0
 10
-286.8040348305612
 20
483.2692882762058
 30
0.0
 10
-286.8556228973612
 20
483.2000020320478
 30
0.0
 10
-286.9008726509477
 20
483.1267878191549
 30
0.0
 10
-287.3589775854237
 20
482.385835657981
 30
0.0
 10
-287.9470067815635
 20
482.1289498497044
 30
0.0
 10
-288.8578212729863
 20
482.3166610038473
 30
0.0
 10
-290.67945025583
 20
482.692083312123
 30
0.0
 10
-292.5317413867442
 20
482.7609873604527
 30
0.0
 10
-294.3831370077424
 20
482.4710151108997
 30
0.0
 10
-296.6750370271159
 20
482.1120272229927
 30
0.0
 10
-298.6150881301956
 20
481.0748565608362
 30
0.0
 10
-300.2410244826317
 20
479.4329014608536
 30
0.0
 10
-303.6359053791678
 20
476.0045658759699
 30
0.0
 10
-307.033827103776
 20
472.5792488011541
 30
0.0
 10
-310.4230448067345
 20
469.1453169767095
 30
0.0
 10
-312.6169241515027
 20
466.922485600936
 30
0.0
 10
-314.7997895611784
 20
464.688729562102
 30
0.0
 10
-316.9836453322972
 20
462.4560308387213
 30
0.0
 10
-319.4984854754991
 20
459.8849549043364
 30
0.0
 10
-322.011021284764
 20
457.3116639080422
 30
0.0
 10
-324.5207254972448
 20
454.7355859509561
 30
0.0
 10
-326.6548400164168
 20
452.5450291990697
 30
0.0
 10
-328.781458475914
 20
450.3471772495512
 30
0.0
 10
-330.9150987374937
 20
448.1561685580754
 30
0.0
 10
-333.3494685266654
 20
445.6563400624711
 30
0.0
 10
-335.7892113753632
 20
443.1617730363674
 30
0.0
 10
-338.2242507046688
 20
440.6625694448809
 30
0.0
 10
-340.358292690328
 20
438.4722972475548
 30
0.0
 10
-342.4894863406932
 20
436.2792436689337
 30
0.0
 10
-344.6210789253811
 20
434.0865890246587
 30
0.0
 10
-346.6928257817174
 20
431.9554985950585
 30
0.0
 10
-348.7638696209094
 20
429.8237274663256
 30
0.0
 10
-350.8345033667829
 20
427.6915685622876
 30
0.0
 10
-352.905167799907
 20
425.5593733914772
 30
0.0
 10
-354.9741779109636
 20
423.4256131706257
 30
0.0
 10
-357.0452970734251
 20
421.2938727291495
 30
0.0
 10
-359.1914465763854
 20
419.0849092032661
 30
0.0
 10
-361.339099754873
 20
416.8773823989109
 30
0.0
 10
-363.486379106791
 20
414.6695264039919
 30
0.0
 10
-365.603517993992
 20
412.4926589579528
 30
0.0
 10
-367.7218369456608
 20
410.3169715763831
 30
0.0
 10
-369.8381137999442
 20
408.1392644154402
 30
0.0
 10
-371.86452442042
 20
406.0540291153033
 30
0.0
 10
-373.887584550509
 20
403.9655549147951
 30
0.0
 10
-375.9145503313366
 20
401.8808524569958
 30
0.0
 10
-379.9680773791706
 20
397.7118687937509
 30
0.0
 10
-384.0257472065334
 20
393.5468940020172
 30
0.0
 10
-388.0769699204229
 20
389.3756729588382
 30
0.0
 10
-391.1816972336235
 20
386.178978729688
 30
0.0
 10
-394.2791209799309
 20
382.9751929546797
 30
0.0
 10
-397.3800291246536
 20
379.7747911470769
 30
0.0
 10
-397.4691644438269
 20
379.682793543857
 30
0.0
 10
-397.561022559519
 20
379.5934294651356
 30
0.0
 10
-397.6691030745334
 20
379.485348950118
 30
0.0
 10
-397.4847675185392
 20
378.7558403456151
 30
0.0
 10
-397.8520465450185
 20
378.1984732975502
 30
0.0
 10
-398.229296139891
 20
377.6377529693463
 30
0.0
 10
-399.1896454417166
 20
376.2103659518476
 30
0.0
 10
-400.1731692011895
 20
374.7971815542981
 30
0.0
 10
-401.0885505142353
 20
373.341297235148
 30
0.0
 10
-402.1681253844422
 20
371.6242922664096
 30
0.0
 10
-402.3805593077759
 20
369.7121637763858
 30
0.0
 10
-402.1467391568843
 20
367.7388560572465
 30
0.0
 10
-402.0039206682663
 20
366.5335443409152
 30
0.0
 10
-401.6333971619224
 20
365.386164584076
 30
0.0
 10
-401.1252329439503
 20
364.2840178423262
 30
0.0
 10
-400.5318306882885
 20
362.9970054919855
 30
0.0
 10
-399.6430663850491
 20
361.9634196592548
 30
0.0
 10
-398.4302335012915
 20
361.2308702266773
 30
0.0
 10
-395.8162372550136
 20
359.6520164939275
 30
0.0
 10
-392.9872907304235
 20
358.7635534837441
 30
0.0
 10
-389.9234583702398
 20
358.7382169694319
 30
0.0
 10
-388.1602523429875
 20
358.7236377331716
 30
0.0
 10
-386.4713764288467
 20
359.1762078025927
 30
0.0
 10
-384.8187058970781
 20
359.7601249064495
 30
0.0
 10
-382.0798236785918
 20
360.7278056726652
 30
0.0
 10
-379.5855523660446
 20
362.1628198681044
 30
0.0
 10
-377.1911094864458
 20
363.7822812095723
 30
0.0
 10
-376.3363355036612
 20
364.3604012118283
 30
0.0
 10
-375.5165952080331
 20
364.9902487684089
 30
0.0
 10
-374.6630933514913
 20
365.5703550730399
 30
0.0
 10
-374.2557395586588
 20
365.8472043361039
 30
0.0
 10
-373.8185856506607
 20
366.0874018567085
 30
0.0
 10
-373.3739998472505
 20
366.3005945921857
 30
0.0
 10
-372.7269227914042
 20
366.6108929640912
 30
0.0
 10
-372.0817204479092
 20
366.5526541320421
 30
0.0
 10
-371.4571232018243
 20
366.199421499477
 30
0.0
 10
-370.2854168203691
 20
365.5368111126757
 30
0.0
 10
-369.6754601850682
 20
364.5609731159077
 30
0.0
 10
-369.7152699251296
 20
363.1903965781992
 30
0.0
 10
-369.7725211854995
 20
361.2184502573184
 30
0.0
 10
-370.415647954594
 20
359.4358108278689
 30
0.0
 10
-371.4519007888301
 20
357.7859467851414
 30
0.0
 10
-373.3535677143744
 20
354.758236114814
 30
0.0
 10
-375.8357426686223
 20
352.2815290716034
 30
0.0
 10
-378.6711837324515
 20
350.1213750209948
 30
0.0
 10
-382.3208246473442
 20
347.340931099105
 30
0.0
 10
-386.2889490622085
 20
345.1130195876282
 30
0.0
 10
-390.4396514902438
 20
343.1955012995799
 30
0.0
 10
-392.9583219609195
 20
342.0319354101696
 30
0.0
 10
-395.5066028437274
 20
340.9326063164584
 30
0.0
 10
-398.0351880877882
 20
339.7902704285793
 30
0.0
 10
-400.3596305470973
 20
338.7401636932166
 30
0.0
 10
-402.5399154375284
 20
337.4443524696972
 30
0.0
 10
-404.5100763180774
 20
335.820064859827
 30
0.0
 10
-406.0699932242287
 20
334.5339898656573
 30
0.0
 10
-407.3179434876567
 20
332.9752837112267
 30
0.0
 10
-408.3464854514322
 20
331.2362369235649
 30
0.0
 10
-409.5463013592264
 20
329.2076530874201
 30
0.0
 10
-410.4184164313014
 20
327.0329365390519
 30
0.0
 10
-411.2232594591047
 20
324.8283752395012
 30
0.0
 10
-412.7803754557254
 20
320.5632484037498
 30
0.0
 10
-414.3153296741465
 20
316.2899866554525
 30
0.0
 10
-415.8881463867528
 20
312.0306848188048
 30
0.0
 10
-416.9095828559225
 20
309.2645941633948
 30
0.0
 10
-418.0652704898388
 20
306.5528841150693
 30
0.0
 10
-419.4098911886183
 20
303.9263842069117
 30
0.0
 10
-420.5205494592368
 20
301.7569040202832
 30
0.0
 10
-421.8459543563651
 20
299.7252124020616
 30
0.0
 10
-423.355566480973
 20
297.8091894202822
 30
0.0
 10
-424.450116732029
 20
296.41997455929
 30
0.0
 10
-425.6057262529237
 20
295.0871266077402
 30
0.0
 10
-426.8607290056909
 20
293.8435395141472
 30
0.0
 10
-429.8690425405836
 20
290.8625990114476
 30
0.0
 10
-433.3483608164006
 20
288.613895489272
 30
0.0
 10
-437.3329391798911
 20
287.1569203776587
 30
0.0
 10
-439.1360023729603
 20
286.4976214247372
 30
0.0
 10
-440.9681905615578
 20
285.949533086926
 30
0.0
 10
-442.8690958852046
 20
285.6546648251986
 30
0.0
 10
-445.7725036411774
 20
285.2042847099356
 30
0.0
 10
-448.6625122253594
 20
285.3220958748071
 30
0.0
 10
-451.5353010743943
 20
285.9000610459181
 30
0.0
 10
-456.2708537778364
 20
286.8527873544149
 30
0.0
 10
-460.5940701939937
 20
288.7811452181517
 30
0.0
 10
-464.5138119654193
 20
291.5773484407644
 30
0.0
 10
-466.3511660745669
 20
292.8880492603061
 30
0.0
 10
-468.0867591510764
 20
294.3439642667136
 30
0.0
 10
-469.8417612194535
 20
295.767001365692
 30
0.0
 10
-473.0571704900432
 20
298.3742031745588
 30
0.0
 10
-476.0722931085377
 20
301.2030722835748
 30
0.0
 10
-478.9867189842308
 20
304.1401035078081
 30
0.0
 10
-480.1546822179096
 20
305.3171264563289
 30
0.0
 10
-481.3472663948923
 20
306.4729710137081
 30
0.0
 10
-482.4596131620095
 20
307.7009850224213
 30
0.0
 10
-483.5135062862848
 20
308.8644693116248
 30
0.0
 10
-484.4962468233006
 20
310.0944919407097
 30
0.0
 10
-485.475501567027
 20
311.3229676531261
 30
0.0
 10
-486.7096495397131
 20
312.8712052686913
 30
0.0
 10
-487.9388749975886
 20
314.4250963137048
 30
0.0
 10
-489.1166504813184
 20
316.0161984461579
 30
0.0
 10
-492.116973473257
 20
320.0694472163731
 30
0.0
 10
-494.9286653908161
 20
324.2407017365533
 30
0.0
 10
-497.0331053336026
 20
328.850290229205
 30
0.0
 10
-498.835533858429
 20
332.7983382043845
 30
0.0
 10
-500.052552762857
 20
336.8996746019128
 30
0.0
 10
-500.4717964724546
 20
341.2332144899075
 30
0.0
 10
-500.9604247649084
 20
346.2839748287538
 30
0.0
 10
-500.3694182075139
 20
351.1674296437032
 30
0.0
 10
-498.258886147009
 20
355.8126355788081
 30
0.0
 10
-496.8529055827702
 20
358.9071475230108
 30
0.0
 10
-495.0511462493532
 20
361.7461605136562
 30
0.0
 10
-492.701396568117
 20
364.2306077197205
 30
0.0
 10
-489.2398503980489
 20
367.8905860552117
 30
0.0
 10
-485.1318475429085
 20
370.5726630246967
 30
0.0
 10
-480.4756179085909
 20
372.4420225467878
 30
0.0
 10
-477.8800207644971
 20
373.4840871288148
 30
0.0
 10
-475.2895728024368
 20
374.5416676058522
 30
0.0
 10
-472.6701958248236
 20
375.5210911294872
 30
0.0
 10
-469.5258707926096
 20
376.6968063824531
 30
0.0
 10
-466.3454882347973
 20
377.7757368202866
 30
0.0
 10
-463.1947509609932
 20
378.9347177547063
 30
0.0
 10
-459.0621930704103
 20
380.4548528183129
 30
0.0
 10
-455.0998322801375
 20
382.3323995607714
 30
0.0
 10
-451.4246302760084
 20
384.7737032748842
 30
0.0
 10
-448.1773160234916
 20
386.9307718614134
 30
0.0
 10
-445.4761958681708
 20
389.654868402097
 30
0.0
 10
-443.2223257280169
 20
392.8293394785271
 30
0.0
 10
-440.9001290178869
 20
396.1000457892434
 30
0.0
 10
-438.9015740564481
 20
399.5549063221608
 30
0.0
 10
-437.1599411700433
 20
403.1710897589617
 30
0.0
 10
-435.1988051324622
 20
407.2430347397898
 30
0.0
 10
-433.0077824922412
 20
411.1945182927469
 30
0.0
 10
-430.5967050276748
 20
415.0205418823174
 30
0.0
 10
-428.6031604581866
 20
418.1839962339167
 30
0.0
 10
-426.3357642125923
 20
421.1255998592663
 30
0.0
 10
-423.5976324369951
 20
423.6895117142868
 30
0.0
 10
-421.1309419930541
 20
425.9992535831775
 30
0.0
 10
-418.4165921432874
 20
427.964051865763
 30
0.0
 10
-415.4047956048572
 20
429.4937236915511
 30
0.0
 10
-413.0425283129997
 20
430.6934991479634
 30
0.0
 10
-410.5464464523537
 20
431.3658820308678
 30
0.0
 10
-407.8613478343259
 20
431.0676270119908
 30
0.0
 10
-407.1092631736655
 20
430.9840781682531
 30
0.0
 10
-406.3988057755315
 20
430.7916886024757
 30
0.0
 10
-405.7156084246992
 20
430.4281297083332
 30
0.0
 10
-404.0951399832962
 20
429.5657592348545
 30
0.0
 10
-403.5256486794241
 20
427.0409875797596
 30
0.0
 10
-404.578607934712
 20
425.7163652076532
 30
0.0
 10
-405.4751737753053
 20
424.5884872018997
 30
0.0
 10
-406.3541321054271
 20
423.4446308999828
 30
0.0
 10
-407.2938693354662
 20
422.3534520624364
 30
0.0
 10
-410.5994349739167
 20
418.5151807706031
 30
0.0
 10
-412.5418950265763
 20
414.0937065510367
 30
0.0
 10
-412.9957581453648
 20
409.0463155333989
 30
0.0
 10
-413.2918762153357
 20
405.7532298439351
 30
0.0
 10
-412.4498988182366
 20
402.7256614508986
 30
0.0
 10
-410.643607883799
 20
399.9690587370416
 30
0.0
 10
-410.0778492661375
 20
399.1056560558679
 30
0.0
 10
-409.3175446055463
 20
398.4458047323461
 30
0.0
 10
-408.3270464697459
 20
398.0878211546292
 30
0.0
 10
-407.6546412688342
 20
397.8448031962427
 30
0.0
 10
-406.9913892394101
 20
397.8082072487996
 30
0.0
 10
-406.317697963509
 20
398.1107835912333
 30
0.0
 10
-405.2776315402999
 20
398.5779189481777
 30
0.0
 10
-404.2274187944142
 20
399.0224991720876
 30
0.0
 10
-403.1802803536058
 20
399.4737915357617
 30
0.0
 10
-402.9829389806378
 20
399.5588398704138
 30
0.0
 10
-402.7833211712384
 20
399.641522496607
 30
0.0
 10
-402.5786399646295
 20
399.7059071490736
 30
0.0
 10
-402.2549312619249
 20
399.807713515161
 30
0.0
 10
-401.9394774310318
 20
399.827431471905
 30
0.0
 10
-401.6556398428986
 20
399.4175194778343
 30
0.0
  0
ENDBLK
  5
44
330
41
100
AcDbEntity
  8
0
100
AcDbBlockEnd
  0
BLOCK
  5
48
330
46
100
AcDbEntity
  8
0
100
AcDbBlockBegin
  2
block 3
 70
     0
 10
0.0
 20
0.0
 30
0.0
  3
block 3
  1

  0
SPLINE
  5
4A
330
46
100
AcDbEntity
  8
_U+56FE_U+5C42 1
 62
     7
370
    35
100
AcDbSpline
210
0.0
220
0.0
230
1.0
 70
    11
 71
     3
 72
   182
 73
   178
 74
     0
 42
0.0000000001
 43
0.0000000001
 12
1.0
 22
0.0
 32
0.0
 13
1.0
 23
0.0
 33
0.0
 40
0.0
 40
0.0
 40
0.0
 40
0.0
 40
1.0
 40
1.0
 40
1.0
 40
2.0
 40
2.0
 40
2.0
 40
3.0
 40
3.0
 40
3.0
 40
4.0
 40
4.0
 40
4.0
 40
5.0
 40
5.0
 40
5.0
 40
6.0
 40
6.0
 40
6.0
 40
7.0
 40
7.0
 40
7.0
 40
8.0
 40
8.0
 40
8.0
 40
9.0
 40
9.0
 40
9.0
 40
10.0
 40
10.0
 40
10.0
 40
11.0
 40
11.0
 40
11.0
 40
12.0
 40
12.0
 40
12.0
 40
13.0
 40
13.0
 40
13.0
 40
14.0
 40
14.0
 40
14.0
 40
15.0
 40
15.0
 40
15.0
 40
16.0
 40
16.0
 40
16.0
 40
17.0
 40
17.0
 40
17.0
 40
18.0
 40
18.0
 40
18.0
 40
19.0
 40
19.0
 40
19.0
 40
20.0
 40
20.0
 40
20.0
 40
21.0
 40
21.0
 40
21.0
 40
22.0
 40
22.0
 40
22.0
 40
23.0
 40
23.0
 40
23.0
 40
24.0
 40
24.0
 40
24.0
 40
25.0
 40
25.0
 40
25.0
 40
26.0
 40
26.0
 40
26.0
 40
27.0
 40
27.0
 40
27.0
 40
28.0
 40
28.0
 40
28.0
 40
29.0
 40
29.0
 40
29.0
 40
30.0
 40
30.0
 40
30.0
 40
31.0
 40
31.0
 40
31.0
 40
32.0
 40
32.0
 40
32.0
 40
33.0
 40
33.0
 40
33.0
 40
34.0
 40
34.0
 40
34.0
 40
35.0
 40
35.0
 40
35.0
 40
36.0
 40
36.0
 40
36.0
 40
37.0
 40
37.0
 40
37.0
 40
38.0
 40
38.0
 40
38.0
 40
39.0
 40
39.0
 40
39.0
 40
40.0
 40
40.0
 40
40.0
 40
41.0
 40
41.0
 40
41.0
 40
42.0
 40
42.0
 40
42.0
 40
43.0
 40
43.0
 40
43.0
 40
44.0
 40
44.0
 40
44.0
 40
45.0
 40
45.0
 40
45.0
 40
46.0
 40
46.0
 40
46.0
 40
47.0
 40
47.0
 40
47.0
 40
48.0
 40
48.0
 40
48.0
 40
49.0
 40
49.0
 40
49.0
 40
50.0
 40
50.0
 40
50.0
 40
51.0
 40
51.0
 40
51.0
 40
52.0
 40
52.0
 40
52.0
 40
53.0
 40
53.0
 40
53.0
 40
54.0
 40
54.0
 40
54.0
 40
55.0
 40
55.0
 40
55.0
 40
56.0
 40
56.0
 40
56.0
 40
57.0
 40
57.0
 40
57.0
 40
58.0
 40
58.0
 40
58.0
 40
59.0
 40
59.0
 40
59.0
 40
59.0
 10
-419.0006654731765
 20
382.6321233833033
 30
0.0
 10
-418.7492698939496
 20
382.380727804071
 30
0.0
 10
-418.5515937509146
 20
382.1869349937775
 30
0.0
 10
-418.3581412901878
 20
381.989007773201
 30
0.0
 10
-415.3324029734907
 20
378.8934029442304
 30
0.0
 10
-412.3167412357078
 20
375.7878666033874
 30
0.0
 10
-409.2759103686371
 20
372.7071646217544
 30
0.0
 10
-408.4012370953285
 20
371.8210198942621
 30
0.0
 10
-407.4543818168154
 20
371.0061198157978
 30
0.0
 10
-406.518267077841
 20
370.137829491701
 30
0.0
 10
-406.4036613363305
 20
370.218606718286
 30
0.0
 10
-406.3191151567796
 20
370.2752888695441
 30
0.0
 10
-406.2376683900642
 20
370.3360970618446
 30
0.0
 10
-405.8097708743294
 20
370.6555848719966
 30
0.0
 10
-405.4239567453264
 20
370.5479869838251
 30
0.0
 10
-405.2466848376752
 20
370.0422721668044
 30
0.0
 10
-405.1910878993664
 20
369.8836441619433
 30
0.0
 10
-405.1645769000801
 20
369.704143243616
 30
0.0
 10
-405.1711328138265
 20
369.5360049791935
 30
0.0
 10
-405.2751542418299
 20
366.8685654820181
 30
0.0
 10
-404.2540162759587
 20
364.5607610948643
 30
0.0
 10
-402.7993566572903
 20
362.4319080451994
 30
0.0
 10
-400.8976339367364
 20
359.6487915423132
 30
0.0
 10
-398.3641945267491
 20
357.6128204467751
 30
0.0
 10
-395.2687431340692
 20
356.2411447473535
 30
0.0
 10
-393.1917627057428
 20
355.3207837296218
 30
0.0
 10
-391.0401118147426
 20
354.7548605166778
 30
0.0
 10
-388.7871818205097
 20
354.6480074918873
 30
0.0
 10
-387.65589334473
 20
354.5943550097022
 30
0.0
 10
-386.5136132518697
 20
354.7622645145801
 30
0.0
 10
-385.3768512855426
 20
354.8382294215021
 30
0.0
 10
-384.7765360280777
 20
354.8783516136213
 30
0.0
 10
-384.1766727101855
 20
354.9850874688821
 30
0.0
 10
-383.5778639179981
 20
354.9762439597085
 30
0.0
 10
-382.1476871499747
 20
354.9551478662065
 30
0.0
 10
-381.485299943219
 20
353.7150814377739
 30
0.0
 10
-382.2276525591542
 20
352.4897114151211
 30
0.0
 10
-382.6127943582788
 20
351.8539830644298
 30
0.0
 10
-383.1660744218178
 20
351.3704356051221
 30
0.0
 10
-383.7260164096275
 20
350.8970316787523
 30
0.0
 10
-384.6348111216697
 20
350.1286841673747
 30
0.0
 10
-385.6692561975644
 20
349.5518809273727
 30
0.0
 10
-386.6821922968679
 20
348.9379237898105
 30
0.0
 10
-389.2302388406267
 20
347.3935067375933
 30
0.0
 10
-391.9670789617281
 20
346.2282781568649
 30
0.0
 10
-394.6388063054732
 20
344.9328574984204
 30
0.0
 10
-397.1428305858672
 20
343.7187580679227
 30
0.0
 10
-399.5281398222302
 20
342.2983231087554
 30
0.0
 10
-401.8458980392707
 20
340.7688368013686
 30
0.0
 10
-404.30704385403
 20
339.1447165765208
 30
0.0
 10
-406.3990777762082
 20
337.0987581740829
 30
0.0
 10
-408.3150895989758
 20
334.8676161314934
 30
0.0
 10
-409.9776191091096
 20
332.9316687514516
 30
0.0
 10
-411.0732992091304
 20
330.666737250445
 30
0.0
 10
-412.0963453643589
 20
328.3601715125312
 30
0.0
 10
-412.6461270807376
 20
327.1206295571953
 30
0.0
 10
-413.2388151602658
 20
325.8961299367138
 30
0.0
 10
-413.7108297908794
 20
324.6271505337926
 30
0.0
 10
-414.2656218992103
 20
323.135571356617
 30
0.0
 10
-414.7061346668407
 20
321.6016660843972
 30
0.0
 10
-415.2045459169664
 20
320.0888569056796
 30
0.0
 10
-415.608747291709
 20
318.8619915767588
 30
0.0
 10
-416.0236892059821
 20
317.6386580720013
 30
0.0
 10
-416.4370465419634
 20
316.414822412144
 30
0.0
 10
-416.6231340612891
 20
315.8638913185534
 30
0.0
 10
-416.8345413564284
 20
315.3209277524695
 30
0.0
 10
-417.0040521781098
 20
314.7650699594398
 30
0.0
 10
-417.5961460407711
 20
312.8234956525702
 30
0.0
 10
-418.3719589245609
 20
310.9557074574587
 30
0.0
 10
-419.2623803396178
 20
309.1354175548748
 30
0.0
 10
-420.1515463669259
 20
307.317688643272
 30
0.0
 10
-421.0177639063801
 20
305.4863624875832
 30
0.0
 10
-421.9779430334231
 20
303.7062533618779
 30
0.0
 10
-423.6669277478327
 20
300.5749676236287
 30
0.0
 10
-425.7664605194404
 20
297.7521976067137
 30
0.0
 10
-428.5071337577738
 20
295.4452189857262
 30
0.0
 10
-429.2034945464814
 20
294.8590645019443
 30
0.0
 10
-429.9822813043369
 20
294.4077498202632
 30
0.0
 10
-430.8149688321741
 20
294.0390982365232
 30
0.0
 10
-432.4807511914302
 20
293.3016332635178
 30
0.0
 10
-434.7269997331371
 20
294.0513759286017
 30
0.0
 10
-435.7732594025249
 20
295.4851375260621
 30
0.0
 10
-436.7630907879527
 20
296.8415756080773
 30
0.0
 10
-437.0091635231671
 20
298.3393870879534
 30
0.0
 10
-436.9248014671525
 20
299.9462610750224
 30
0.0
 10
-436.7924584917788
 20
302.4671549768811
 30
0.0
 10
-436.245606013453
 20
304.9318828313203
 30
0.0
 10
-435.8991078386702
 20
307.4236322093851
 30
0.0
 10
-435.5181395063423
 20
310.1632453425104
 30
0.0
 10
-435.3941071977941
 20
312.9137273436999
 30
0.0
 10
-435.5281993467516
 20
315.669571245409
 30
0.0
 10
-435.6266496429435
 20
317.6927931810245
 30
0.0
 10
-436.0143050072894
 20
319.6809786397404
 30
0.0
 10
-436.5084925751155
 20
321.6483218722576
 30
0.0
 10
-436.9617433436632
 20
323.4527380943333
 30
0.0
 10
-437.5935995206264
 20
325.1852401272507
 30
0.0
 10
-438.436575648422
 20
326.8426839221804
 30
0.0
 10
-438.7993882843033
 20
327.5560231326105
 30
0.0
 10
-439.2531356284452
 20
328.2037697285812
 30
0.0
 10
-439.7667482292049
 20
328.8172721368098
 30
0.0
 10
-440.4537884613958
 20
329.6379246808712
 30
0.0
 10
-440.9894484605944
 20
330.5322684851574
 30
0.0
 10
-441.0026132933404
 20
331.6541080759015
 30
0.0
 10
-441.0138392494744
 20
332.6113719136333
 30
0.0
 10
-441.422147136991
 20
333.3790945208938
 30
0.0
 10
-442.096887359097
 20
334.0513183880175
 30
0.0
 10
-446.5227791486237
 20
338.4607227519138
 30
0.0
 10
-450.9397158389465
 20
342.8791324305171
 30
0.0
 10
-455.3514161675242
 20
347.3027449938608
 30
0.0
 10
-456.0221335693681
 20
347.9752701540443
 30
0.0
 10
-456.7880791055341
 20
348.3765562394824
 30
0.0
 10
-457.7512376861469
 20
348.3920365651713
 30
0.0
 10
-458.3046683962177
 20
348.4009302898541
 30
0.0
 10
-458.7178890344138
 20
348.6791325819256
 30
0.0
 10
-459.0484995799313
 20
349.1223597768271
 30
0.0
 10
-459.8644960303534
 20
350.2162934930076
 30
0.0
 10
-460.2938191086126
 20
351.4750763577478
 30
0.0
 10
-460.6317890160264
 20
352.7721457587527
 30
0.0
 10
-460.7509364714003
 20
353.2294332963152
 30
0.0
 10
-460.8397370205088
 20
353.6972326138834
 30
0.0
 10
-460.9052794194519
 20
354.1654308657702
 30
0.0
 10
-461.213711448258
 20
356.3687005108249
 30
0.0
 10
-460.6482736519062
 20
358.397395936975
 30
0.0
 10
-459.5950200779417
 20
360.3047260560926
 30
0.0
 10
-458.7038565892508
 20
361.9185242039792
 30
0.0
 10
-457.4846016997716
 20
363.2677591501322
 30
0.0
 10
-456.1722137786061
 20
364.5623819399315
 30
0.0
 10
-454.3194930261129
 20
366.390011676161
 30
0.0
 10
-452.0886243790732
 20
367.6433405786104
 30
0.0
 10
-449.8793037651231
 20
368.9297001273302
 30
0.0
 10
-448.2812035434683
 20
369.8601739907326
 30
0.0
 10
-446.6042510230881
 20
370.6541146734687
 30
0.0
 10
-444.977837623306
 20
371.5372827371424
 30
0.0
 10
-442.308406244256
 20
372.9868175840919
 30
0.0
 10
-439.7540241770408
 20
374.6239352566601
 30
0.0
 10
-437.2880967298751
 20
376.3948242568703
 30
0.0
 10
-435.7160611474159
 20
377.52376934221
 30
0.0
 10
-434.127566036832
 20
378.6409974753116
 30
0.0
 10
-432.6483566135016
 20
379.8846961589372
 30
0.0
 10
-431.3010438054545
 20
381.0174938897527
 30
0.0
 10
-429.9247929151666
 20
382.1362173291508
 30
0.0
 10
-428.7697050776231
 20
383.4834910806792
 30
0.0
 10
-427.1009655828064
 20
385.4298665482083
 30
0.0
 10
-425.530422516879
 20
387.4533032946197
 30
0.0
 10
-424.174397317933
 20
389.6296713753118
 30
0.0
 10
-423.1849899745852
 20
391.2176475922977
 30
0.0
 10
-422.2802404008172
 20
392.8582775607747
 30
0.0
 10
-421.3311142653728
 20
394.471526127815
 30
0.0
 10
-421.168226311446
 20
394.7483809703757
 30
0.0
 10
-420.9983835094525
 20
395.0292391049426
 30
0.0
 10
-420.7854502207751
 20
395.2667389367826
 30
0.0
 10
-420.4108090426443
 20
395.6845989301161
 30
0.0
 10
-420.0414711802773
 20
395.7603043902467
 30
0.0
 10
-419.5790532914862
 20
395.4507536714666
 30
0.0
 10
-419.2111382018867
 20
395.2044493869604
 30
0.0
 10
-418.8807313081556
 20
394.8803138524216
 30
0.0
 10
-418.5922794726407
 20
394.540921172233
 30
0.0
 10
-417.3954681261716
 20
393.1327248486369
 30
0.0
 10
-415.9962296915185
 20
392.0231406319752
 30
0.0
 10
-414.1922514602815
 20
391.5110958710071
 30
0.0
 10
-413.7205939177333
 20
391.3772213225898
 30
0.0
 10
-413.2232371933031
 20
391.3287019813814
 30
0.0
 10
-412.7349834248598
 20
391.2602833496416
 30
0.0
 10
-412.3945501677241
 20
391.21257303608
 30
0.0
 10
-412.0452734014132
 20
391.2219019618537
 30
0.0
 10
-411.7075210945409
 20
391.1625779168372
 30
0.0
 10
-411.2163548265407
 20
391.0763048817118
 30
0.0
 10
-411.0752073984957
 20
390.7182152934784
 30
0.0
 10
-411.3785341838354
 20
390.3120080881073
 30
0.0
 10
-411.583432990985
 20
390.0376165952612
 30
0.0
 10
-411.8352191352843
 20
389.7963868669628
 30
0.0
 10
-412.0785076994696
 20
389.5527858507194
 30
0.0
 10
-414.1945948507231
 20
387.433998220959
 30
0.0
 10
-416.3135024397542
 20
385.3180310289798
 30
0.0
 10
-418.4315619446287
 20
383.2012157528372
 30
0.0
 10
-418.5979789329755
 20
383.0348936160163
 30
0.0
 10
-418.7643010697986
 20
382.8684877866664
 30
0.0
 10
-419.0006654731765
 20
382.6321233833033
 30
0.0
  0
ENDBLK
  5
49
330
46
100
AcDbEntity
  8
0
100
AcDbBlockEnd
  0
ENDSEC
  0
SECTION
  2
ENTITIES
  0
INSERT
  5
42
330
1F
100
AcDbEntity
  8
_U+56FE_U+5C42 1
100
AcDbBlockReference
  2
block 2
 10
0.0
 20
0.0
 30
0.0
  0
INSERT
  5
47
330
1F
100
AcDbEntity
  8
_U+56FE_U+5C42 1
100
AcDbBlockReference
  2
block 3
 10
0.0
 20
0.0
 30
0.0
  0
ENDSEC
  0
SECTION
  2
OBJECTS
  0
DICTIONARY
  5
C
330
0
100
AcDbDictionary
281
     1
  3
ACAD_GROUP
350
D
  3
ACAD_LAYOUT
350
1A
  3
ACAD_MATERIAL
350
3B
  3
ACAD_MLEADERSTYLE
350
72
  3
ACAD_MLINESTYLE
350
17
  3
ACAD_PLOTSETTINGS
350
19
  3
ACAD_PLOTSTYLENAME
350
E
  3
ACAD_TABLESTYLE
350
71
  3
ACAD_VISUALSTYLE
350
2A
  0
DICTIONARY
  5
D
102
{ACAD_REACTORS
330
C
102
}
330
C
100
AcDbDictionary
281
     1
  0
DICTIONARY
  5
1A
102
{ACAD_REACTORS
330
C
102
}
330
C
100
AcDbDictionary
281
     1
  3
Layout1
350
1E
  3
Layout2
350
26
  3
Model
350
22
  0
DICTIONARY
  5
3B
102
{ACAD_REACTORS
330
C
102
}
330
C
100
AcDbDictionary
281
     1
  3
ByBlock
350
3D
  3
ByLayer
350
3C
  3
Global
350
3E
  0
DICTIONARY
  5
72
102
{ACAD_REACTORS
330
C
102
}
330
C
100
AcDbDictionary
281
     1
  0
DICTIONARY
  5
17
102
{ACAD_REACTORS
330
C
102
}
330
C
100
AcDbDictionary
281
     1
  3
Standard
350
18
  0
DICTIONARY
  5
19
102
{ACAD_REACTORS
330
C
102
}
330
C
100
AcDbDictionary
281
     1
  0
ACDBDICTIONARYWDFLT
  5
E
102
{ACAD_REACTORS
330
C
102
}
330
C
100
AcDbDictionary
281
     1
  3
Normal
350
F
100
AcDbDictionaryWithDefault
340
F
  0
DICTIONARY
  5
71
102
{ACAD_REACTORS
330
C
102
}
330
C
100
AcDbDictionary
281
     1
  0
DICTIONARY
  5
2A
102
{ACAD_REACTORS
330
C
102
}
330
C
100
AcDbDictionary
281
     1
  3
2dWireframe
350
2F
  3
3D Hidden
350
31
  3
3dWireframe
350
30
  3
Basic
350
32
  3
Brighten
350
36
  3
ColorChange
350
3A
  3
Conceptual
350
34
  3
Dim
350
35
  3
Facepattern
350
39
  3
Flat
350
2B
  3
FlatWithEdges
350
2C
  3
Gouraud
350
2D
  3
GouraudWithEdges
350
2E
  3
Linepattern
350
38
  3
Realistic
350
33
  3
Thicken
350
37
  0
LAYOUT
  5
1E
102
{ACAD_REACTORS
330
1A
102
}
330
1A
100
AcDbPlotSettings
  1

  2
none_device
  4

  6

 40
0.0
 41
0.0
 42
0.0
 43
0.0
 44
0.0
 45
0.0
 46
0.0
 47
0.0
 48
0.0
 49
0.0
140
0.0
141
0.0
142
1.0
143
1.0
 70
   688
 72
     0
 73
     0
 74
     5
  7

 75
    16
 76
     0
 77
     2
 78
   300
147
1.0
148
0.0
149
0.0
100
AcDbLayout
  1
Layout1
 70
     1
 71
     1
 10
0.0
 20
0.0
 11
12.0
 21
9.0
 12
0.0
 22
0.0
 32
0.0
 14
1.000000000000000E+20
 24
1.000000000000000E+20
 34
1.000000000000000E+20
 15
-1.000000000000000E+20
 25
-1.000000000000000E+20
 35
-1.000000000000000E+20
146
0.0
 13
0.0
 23
0.0
 33
0.0
 16
1.0
 26
0.0
 36
0.0
 17
0.0
 27
1.0
 37
0.0
 76
     0
330
1B
  0
LAYOUT
  5
26
102
{ACAD_REACTORS
330
1A
102
}
330
1A
100
AcDbPlotSettings
  1

  2
none_device
  4

  6

 40
0.0
 41
0.0
 42
0.0
 43
0.0
 44
0.0
 45
0.0
 46
0.0
 47
0.0
 48
0.0
 49
0.0
140
0.0
141
0.0
142
1.0
143
1.0
 70
   688
 72
     0
 73
     0
 74
     5
  7

 75
    16
 76
     0
 77
     2
 78
   300
147
1.0
148
0.0
149
0.0
100
AcDbLayout
  1
Layout2
 70
     1
 71
     2
 10
0.0
 20
0.0
 11
0.0
 21
0.0
 12
0.0
 22
0.0
 32
0.0
 14
0.0
 24
0.0
 34
0.0
 15
0.0
 25
0.0
 35
0.0
146
0.0
 13
0.0
 23
0.0
 33
0.0
 16
1.0
 26
0.0
 36
0.0
 17
0.0
 27
1.0
 37
0.0
 76
     0
330
23
  0
LAYOUT
  5
22
102
{ACAD_REACTORS
330
1A
102
}
330
1A
100
AcDbPlotSettings
  1

  2
none_device
  4

  6

 40
0.0
 41
0.0
 42
0.0
 43
0.0
 44
0.0
 45
0.0
 46
0.0
 47
0.0
 48
0.0
 49
0.0
140
0.0
141
0.0
142
1.0
143
1.0
 70
  1712
 72
     0
 73
     0
 74
     0
  7

 75
     0
 76
     0
 77
     2
 78
   300
147
1.0
148
0.0
149
0.0
100
AcDbLayout
  1
Model
 70
     1
 71
     0
 10
0.0
 20
0.0
 11
12.0
 21
9.0
 12
0.0
 22
0.0
 32
0.0
 14
1.000000000000000E+20
 24
1.000000000000000E+20
 34
1.000000000000000E+20
 15
-1.000000000000000E+20
 25
-1.000000000000000E+20
 35
-1.000000000000000E+20
146
0.0
 13
0.0
 23
0.0
 33
0.0
 16
1.0
 26
0.0
 36
0.0
 17
0.0
 27
1.0
 37
0.0
 76
     0
330
1F
331
29
  0
MATERIAL
  5
3D
102
{ACAD_REACTORS
330
3B
102
}
102
{ACAD_XDICTIONARY
360
6D
102
}
330
3B
100
AcDbMaterial
  1
ByBlock
  0
MATERIAL
  5
3C
102
{ACAD_REACTORS
330
3B
102
}
102
{ACAD_XDICTIONARY
360
6B
102
}
330
3B
100
AcDbMaterial
  1
ByLayer
  0
MATERIAL
  5
3E
102
{ACAD_REACTORS
330
3B
102
}
102
{ACAD_XDICTIONARY
360
6F
102
}
330
3B
100
AcDbMaterial
  1
Global
  0
MLINESTYLE
  5
18
102
{ACAD_REACTORS
330
17
102
}
330
17
100
AcDbMlineStyle
  2
Standard
 70
     0
  3

 62
   256
 51
90.0
 52
90.0
 71
     2
 49
0.5
 62
   256
  6
BYLAYER
 49
-0.5
 62
   256
  6
BYLAYER
  0
ACDBPLACEHOLDER
  5
F
102
{ACAD_REACTORS
330
E
102
}
330
E
  0
VISUALSTYLE
  5
2F
102
{ACAD_REACTORS
330
2A
102
}
102
{ACAD_XDICTIONARY
360
53
102
}
330
2A
100
AcDbVisualStyle
  2
2dWireframe
 70
     4
 71
     0
 72
     2
 73
     0
 90
        0
 40
-0.6
 41
-30.0
 62
     5
 63
     7
421
 16777215
 74
     1
 91
        4
 64
     7
 65
   257
 75
     1
175
     1
 42
1.0
 92
        0
 66
   257
 43
1.0
 76
     1
 77
     6
 78
     2
 67
     7
 79
     5
170
     0
171
     0
290
     0
174
     0
 93
        1
 44
0.0
173
     0
291
     0
 45
0.0
1001
ACAD
1000
AcDbSavedByObjectVersion
1070
     0
  0
VISUALSTYLE
  5
31
102
{ACAD_REACTORS
330
2A
102
}
102
{ACAD_XDICTIONARY
360
57
102
}
330
2A
100
AcDbVisualStyle
  2
3D Hidden
 70
     6
 71
     1
 72
     2
 73
     2
 90
        0
 40
-0.6
 41
-30.0
 62
     5
 63
     7
421
 16777215
 74
     2
 91
        2
 64
     7
 65
   257
 75
     2
175
     1
 42
40.0
 92
        0
 66
   257
 43
1.0
 76
     1
 77
     6
 78
     2
 67
     7
 79
     3
170
     0
171
     0
290
     0
174
     0
 93
        1
 44
0.0
173
     0
291
     0
 45
0.0
1001
ACAD
1000
AcDbSavedByObjectVersion
1070
     0
  0
VISUALSTYLE
  5
30
102
{ACAD_REACTORS
330
2A
102
}
102
{ACAD_XDICTIONARY
360
55
102
}
330
2A
100
AcDbVisualStyle
  2
3dWireframe
 70
     5
 71
     0
 72
     2
 73
     0
 90
        0
 40
-0.6
 41
-30.0
 62
     5
 63
     7
421
 16777215
 74
     1
 91
        4
 64
     7
 65
   257
 75
     1
175
     1
 42
1.0
 92
        0
 66
   257
 43
1.0
 76
     1
 77
     6
 78
     2
 67
     7
 79
     5
170
     0
171
     0
290
     0
174
     0
 93
        1
 44
0.0
173
     0
291
     0
 45
0.0
1001
ACAD
1000
AcDbSavedByObjectVersion
1070
     0
  0
VISUALSTYLE
  5
32
102
{ACAD_REACTORS
330
2A
102
}
102
{ACAD_XDICTIONARY
360
59
102
}
330
2A
100
AcDbVisualStyle
  2
Basic
 70
     7
 71
     1
 72
     0
 73
     1
 90
        0
 40
-0.6
 41
-30.0
 62
     5
 63
     7
421
 16777215
 74
     0
 91
        4
 64
     7
 65
   257
 75
     1
175
     1
 42
1.0
 92
        8
 66
     7
 43
1.0
 76
     1
 77
     6
 78
     2
 67
     7
 79
     5
170
     0
171
     0
290
     0
174
     0
 93
        1
 44
0.0
173
     0
291
     1
 45
0.0
1001
ACAD
1000
AcDbSavedByObjectVersion
1070
     0
  0
VISUALSTYLE
  5
36
102
{ACAD_REACTORS
330
2A
102
}
102
{ACAD_XDICTIONARY
360
61
102
}
330
2A
100
AcDbVisualStyle
  2
Brighten
 70
    12
 71
     2
 72
     2
 73
     0
 90
        0
 40
-0.6
 41
-30.0
 62
     5
 63
     7
421
 16777215
 74
     1
 91
        4
 64
     7
 65
   257
 75
     1
175
     1
 42
1.0
 92
        8
 66
     7
 43
1.0
 76
     1
 77
     6
 78
     2
 67
     7
 79
     5
170
     0
171
     0
290
     0
174
     0
 93
        1
 44
50.0
173
     0
291
     1
 45
0.0
1001
ACAD
1000
AcDbSavedByObjectVersion
1070
     0
  0
VISUALSTYLE
  5
3A
102
{ACAD_REACTORS
330
2A
102
}
102
{ACAD_XDICTIONARY
360
69
102
}
330
2A
100
AcDbVisualStyle
  2
ColorChange
 70
    16
 71
     2
 72
     2
 73
     3
 90
        0
 40
-0.6
 41
-30.0
 62
     5
 63
     8
421
  8421504
 74
     1
 91
        4
 64
     7
 65
   257
 75
     1
175
     1
 42
1.0
 92
        8
 66
     8
424
  8421504
 43
1.0
 76
     1
 77
     6
 78
     2
 67
     7
 79
     5
170
     0
171
     0
290
     0
174
     0
 93
        1
 44
0.0
173
     0
291
     1
 45
0.0
1001
ACAD
1000
AcDbSavedByObjectVersion
1070
     0
  0
VISUALSTYLE
  5
34
102
{ACAD_REACTORS
330
2A
102
}
102
{ACAD_XDICTIONARY
360
5D
102
}
330
2A
100
AcDbVisualStyle
  2
Conceptual
 70
     9
 71
     3
 72
     2
 73
     0
 90
        0
 40
-0.6
 41
-30.0
 62
     5
 63
     7
421
 16777215
 74
     2
 91
        2
 64
     7
 65
   257
 75
     1
175
     1
 42
40.0
 92
        8
 66
     7
 43
1.0
 76
     1
 77
     6
 78
     2
 67
     7
 79
     3
170
     0
171
     0
290
     0
174
     0
 93
        1
 44
0.0
173
     0
291
     0
 45
0.0
1001
ACAD
1000
AcDbSavedByObjectVersion
1070
     0
  0
VISUALSTYLE
  5
35
102
{ACAD_REACTORS
330
2A
102
}
102
{ACAD_XDICTIONARY
360
5F
102
}
330
2A
100
AcDbVisualStyle
  2
Dim
 70
    11
 71
     2
 72
     2
 73
     0
 90
        0
 40
-0.6
 41
-30.0
 62
     5
 63
     7
421
 16777215
 74
     1
 91
        4
 64
     7
 65
   257
 75
     1
175
     1
 42
1.0
 92
        8
 66
     7
 43
1.0
 76
     1
 77
     6
 78
     2
 67
     7
 79
     5
170
     0
171
     0
290
     0
174
     0
 93
        1
 44
-50.0
173
     0
291
     1
 45
0.0
1001
ACAD
1000
AcDbSavedByObjectVersion
1070
     0
  0
VISUALSTYLE
  5
39
102
{ACAD_REACTORS
330
2A
102
}
102
{ACAD_XDICTIONARY
360
67
102
}
330
2A
100
AcDbVisualStyle
  2
Facepattern
 70
    15
 71
     2
 72
     2
 73
     0
 90
        0
 40
-0.6
 41
-30.0
 62
     5
 63
     7
421
 16777215
 74
     1
 91
        4
 64
     7
 65
   257
 75
     1
175
     1
 42
1.0
 92
        8
 66
     7
 43
1.0
 76
     1
 77
     6
 78
     2
 67
     7
 79
     5
170
     0
171
     0
290
     0
174
     0
 93
        1
 44
0.0
173
     0
291
     1
 45
0.0
1001
ACAD
1000
AcDbSavedByObjectVersion
1070
     0
  0
VISUALSTYLE
  5
2B
102
{ACAD_REACTORS
330
2A
102
}
102
{ACAD_XDICTIONARY
360
4B
102
}
330
2A
100
AcDbVisualStyle
  2
Flat
 70
     0
 71
     2
 72
     1
 73
     1
 90
        2
 40
-0.6
 41
30.0
 62
     5
 63
     7
421
 16777215
 74
     0
 91
        4
 64
     7
 65
   257
 75
     1
175
     1
 42
1.0
 92
        8
 66
     7
 43
1.0
 76
     1
 77
     6
 78
     2
 67
     7
 79
     5
170
     0
171
     0
290
     0
174
     0
 93
       13
 44
0.0
173
     0
291
     1
 45
0.0
1001
ACAD
1000
AcDbSavedByObjectVersion
1070
     0
  0
VISUALSTYLE
  5
2C
102
{ACAD_REACTORS
330
2A
102
}
102
{ACAD_XDICTIONARY
360
4D
102
}
330
2A
100
AcDbVisualStyle
  2
FlatWithEdges
 70
     1
 71
     2
 72
     1
 73
     1
 90
        2
 40
-0.6
 41
30.0
 62
     5
 63
     7
421
 16777215
 74
     1
 91
        4
 64
     7
 65
   257
 75
     1
175
     1
 42
1.0
 92
        0
 66
   257
 43
1.0
 76
     1
 77
     6
 78
     2
 67
     7
 79
     5
170
     0
171
     0
290
     0
174
     0
 93
       13
 44
0.0
173
     0
291
     1
 45
0.0
1001
ACAD
1000
AcDbSavedByObjectVersion
1070
     0
  0
VISUALSTYLE
  5
2D
102
{ACAD_REACTORS
330
2A
102
}
102
{ACAD_XDICTIONARY
360
4F
102
}
330
2A
100
AcDbVisualStyle
  2
Gouraud
 70
     2
 71
     2
 72
     2
 73
     1
 90
        2
 40
-0.6
 41
30.0
 62
     5
 63
     7
421
 16777215
 74
     0
 91
        4
 64
     7
 65
   257
 75
     1
175
     1
 42
1.0
 92
        0
 66
     7
 43
1.0
 76
     1
 77
     6
 78
     2
 67
     7
 79
     5
170
     0
171
     0
290
     0
174
     0
 93
       13
 44
0.0
173
     0
291
     1
 45
0.0
1001
ACAD
1000
AcDbSavedByObjectVersion
1070
     0
  0
VISUALSTYLE
  5
2E
102
{ACAD_REACTORS
330
2A
102
}
102
{ACAD_XDICTIONARY
360
51
102
}
330
2A
100
AcDbVisualStyle
  2
GouraudWithEdges
 70
     3
 71
     2
 72
     2
 73
     1
 90
        2
 40
-0.6
 41
30.0
 62
     5
 63
     7
421
 16777215
 74
     1
 91
        4
 64
     7
 65
   257
 75
     1
175
     1
 42
1.0
 92
        0
 66
   257
 43
1.0
 76
     1
 77
     6
 78
     2
 67
     7
 79
     5
170
     0
171
     0
290
     0
174
     0
 93
       13
 44
0.0
173
     0
291
     1
 45
0.0
1001
ACAD
1000
AcDbSavedByObjectVersion
1070
     0
  0
VISUALSTYLE
  5
38
102
{ACAD_REACTORS
330
2A
102
}
102
{ACAD_XDICTIONARY
360
65
102
}
330
2A
100
AcDbVisualStyle
  2
Linepattern
 70
    14
 71
     2
 72
     2
 73
     0
 90
        0
 40
-0.6
 41
-30.0
 62
     5
 63
     7
421
 16777215
 74
     1
 91
        4
 64
     7
 65
   257
 75
     7
175
     7
 42
1.0
 92
        8
 66
     7
 43
1.0
 76
     1
 77
     6
 78
     2
 67
     7
 79
     5
170
     0
171
     0
290
     0
174
     0
 93
        1
 44
0.0
173
     0
291
     1
 45
0.0
1001
ACAD
1000
AcDbSavedByObjectVersion
1070
     0
  0
VISUALSTYLE
  5
33
102
{ACAD_REACTORS
330
2A
102
}
102
{ACAD_XDICTIONARY
360
5B
102
}
330
2A
100
AcDbVisualStyle
  2
Realistic
 70
     8
 71
     2
 72
     2
 73
     0
 90
        0
 40
-0.6
 41
-30.0
 62
     5
 63
     7
421
 16777215
 74
     1
 91
        0
 64
     7
 65
   257
 75
     1
175
     1
 42
1.0
 92
        8
 66
     8
424
  7895160
 43
1.0
 76
     1
 77
     6
 78
     2
 67
     7
 79
     5
170
     0
171
     0
290
     0
174
     0
 93
       13
 44
0.0
173
     0
291
     0
 45
0.0
1001
ACAD
1000
AcDbSavedByObjectVersion
1070
     0
  0
VISUALSTYLE
  5
37
102
{ACAD_REACTORS
330
2A
102
}
102
{ACAD_XDICTIONARY
360
63
102
}
330
2A
100
AcDbVisualStyle
  2
Thicken
 70
    13
 71
     2
 72
     2
 73
     0
 90
        0
 40
-0.6
 41
-30.0
 62
     5
 63
     7
421
 16777215
 74
     1
 91
        4
 64
     7
 65
   257
 75
     1
175
     1
 42
1.0
 92
       12
 66
     7
 43
1.0
 76
     1
 77
     6
 78
     2
 67
     7
 79
     5
170
     0
171
     0
290
     0
174
     0
 93
        1
 44
0.0
173
     0
291
     1
 45
0.0
1001
ACAD
1000
AcDbSavedByObjectVersion
1070
     0
  0
DICTIONARY
  5
6D
330
3D
100
AcDbDictionary
280
     1
281
     1
  3
ACAD_XREC_ROUNDTRIP
360
6E
  0
DICTIONARY
  5
6B
330
3C
100
AcDbDictionary
280
     1
281
     1
  3
ACAD_XREC_ROUNDTRIP
360
6C
  0
DICTIONARY
  5
6F
330
3E
100
AcDbDictionary
280
     1
281
     1
  3
ACAD_XREC_ROUNDTRIP
360
70
  0
DICTIONARY
  5
53
330
2F
100
AcDbDictionary
280
     1
281
     1
  3
ACAD_XREC_ROUNDTRIP
360
54
  0
DICTIONARY
  5
57
330
31
100
AcDbDictionary
280
     1
281
     1
  3
ACAD_XREC_ROUNDTRIP
360
58
  0
DICTIONARY
  5
55
330
30
100
AcDbDictionary
280
     1
281
     1
  3
ACAD_XREC_ROUNDTRIP
360
56
  0
DICTIONARY
  5
59
330
32
100
AcDbDictionary
280
     1
281
     1
  3
ACAD_XREC_ROUNDTRIP
360
5A
  0
DICTIONARY
  5
61
330
36
100
AcDbDictionary
280
     1
281
     1
  3
ACAD_XREC_ROUNDTRIP
360
62
  0
DICTIONARY
  5
69
330
3A
100
AcDbDictionary
280
     1
281
     1
  3
ACAD_XREC_ROUNDTRIP
360
6A
  0
DICTIONARY
  5
5D
330
34
100
AcDbDictionary
280
     1
281
     1
  3
ACAD_XREC_ROUNDTRIP
360
5E
  0
DICTIONARY
  5
5F
330
35
100
AcDbDictionary
280
     1
281
     1
  3
ACAD_XREC_ROUNDTRIP
360
60
  0
DICTIONARY
  5
67
330
39
100
AcDbDictionary
280
     1
281
     1
  3
ACAD_XREC_ROUNDTRIP
360
68
  0
DICTIONARY
  5
4B
330
2B
100
AcDbDictionary
280
     1
281
     1
  3
ACAD_XREC_ROUNDTRIP
360
4C
  0
DICTIONARY
  5
4D
330
2C
100
AcDbDictionary
280
     1
281
     1
  3
ACAD_XREC_ROUNDTRIP
360
4E
  0
DICTIONARY
  5
4F
330
2D
100
AcDbDictionary
280
     1
281
     1
  3
ACAD_XREC_ROUNDTRIP
360
50
  0
DICTIONARY
  5
51
330
2E
100
AcDbDictionary
280
     1
281
     1
  3
ACAD_XREC_ROUNDTRIP
360
52
  0
DICTIONARY
  5
65
330
38
100
AcDbDictionary
280
     1
281
     1
  3
ACAD_XREC_ROUNDTRIP
360
66
  0
DICTIONARY
  5
5B
330
33
100
AcDbDictionary
280
     1
281
     1
  3
ACAD_XREC_ROUNDTRIP
360
5C
  0
DICTIONARY
  5
63
330
37
100
AcDbDictionary
280
     1
281
     1
  3
ACAD_XREC_ROUNDTRIP
360
64
  0
XRECORD
  5
6E
102
{ACAD_REACTORS
330
6D
102
}
330
6D
100
AcDbXrecord
280
     1
102
MATERIAL
148
0.0
149
0.0
149
0.0
 93
        0
 94
      127
282
     0
 72
     1
 77
     1
171
     1
175
     1
179
     1
273
     0
  0
XRECORD
  5
6C
102
{ACAD_REACTORS
330
6B
102
}
330
6B
100
AcDbXrecord
280
     1
102
MATERIAL
148
0.0
149
0.0
149
0.0
 93
        0
 94
      127
282
     0
 72
     1
 77
     1
171
     1
175
     1
179
     1
273
     0
  0
XRECORD
  5
70
102
{ACAD_REACTORS
330
6F
102
}
330
6F
100
AcDbXrecord
280
     1
102
MATERIAL
148
0.0
149
0.0
149
0.0
 93
        0
 94
      127
282
     0
 72
     1
 77
     1
171
     1
175
     1
179
     1
273
     0
  0
XRECORD
  5
54
102
{ACAD_REACTORS
330
53
102
}
330
53
100
AcDbXrecord
280
     1
102
RTVSPropertyOp0
 70
     1
102
RTVSPropertyOp1
 70
     1
102
RTVSPropertyOp2
 70
     1
102
RTVSPropertyOp3
 70
     1
102
RTVSPropertyOp4
 70
     1
102
RTVSPropertyOp5
 70
     1
102
RTVSPropertyOp6
 70
     1
102
RTVSPropertyOp7
 70
     1
102
RTVSPropertyOp8
 70
     1
102
RTVSPropertyOp9
 70
     1
102
RTVSPropertyOp10
 70
     1
102
RTVSPropertyOp11
 70
     1
102
RTVSPropertyOp12
 70
     1
102
RTVSPropertyOp13
 70
     1
102
RTVSPropertyOp14
 70
     1
102
RTVSPropertyOp15
 70
     1
102
RTVSPropertyOp16
 70
     1
102
RTVSPropertyOp17
 70
     1
102
RTVSPropertyOp18
 70
     1
102
RTVSPropertyOp19
 70
     1
102
RTVSPropertyOp20
 70
     1
102
RTVSPropertyOp21
 70
     1
102
RTVSPropertyOp22
 70
     1
102
RTVSPropertyOp23
 70
     1
102
RTVSPropertyOp24
 70
     1
102
RTVSPropertyOp25
 70
     1
102
RTVSPropertyOp26
 70
     1
102
RTVSPropertyOp27
 70
     1
102
RTVSPropertyOp28
 70
     1
102
RTVSPropertyOp29
 70
     1
102
RTVSPropertyOp30
 70
     1
102
RTVSPropertyOp31
 70
     1
102
RTVSPropertyOp32
 70
     1
  0
XRECORD
  5
58
102
{ACAD_REACTORS
330
57
102
}
330
57
100
AcDbXrecord
280
     1
102
RTVSPropertyOp0
 70
     1
102
RTVSPropertyOp1
 70
     1
102
RTVSPropertyOp2
 70
     1
102
RTVSPropertyOp3
 70
     1
102
RTVSPropertyOp4
 70
     1
102
RTVSPropertyOp5
 70
     1
102
RTVSPropertyOp6
 70
     1
102
RTVSPropertyOp7
 70
     1
102
RTVSPropertyOp8
 70
     1
102
RTVSPropertyOp9
 70
     1
102
RTVSPropertyOp10
 70
     1
102
RTVSPropertyOp11
 70
     1
102
RTVSPropertyOp12
 70
     1
102
RTVSPropertyOp13
 70
     1
102
RTVSPropertyOp14
 70
     1
102
RTVSPropertyOp15
 70
     1
102
RTVSPropertyOp16
 70
     1
102
RTVSPropertyOp17
 70
     1
102
RTVSPropertyOp18
 70
     1
102
RTVSPropertyOp19
 70
     1
102
RTVSPropertyOp20
 70
     1
102
RTVSPropertyOp21
 70
     1
102
RTVSPropertyOp22
 70
     1
102
RTVSPropertyOp23
 70
     1
102
RTVSPropertyOp24
 70
     1
102
RTVSPropertyOp25
 70
     1
102
RTVSPropertyOp26
 70
     1
102
RTVSPropertyOp27
 70
     1
102
RTVSPropertyOp28
 70
     1
102
RTVSPropertyOp29
 70
     1
102
RTVSPropertyOp30
 70
     1
102
RTVSPropertyOp31
 70
     1
102
RTVSPropertyOp32
 70
     1
  0
XRECORD
  5
56
102
{ACAD_REACTORS
330
55
102
}
330
55
100
AcDbXrecord
280
     1
102
RTVSPropertyOp0
 70
     1
102
RTVSPropertyOp1
 70
     1
102
RTVSPropertyOp2
 70
     1
102
RTVSPropertyOp3
 70
     1
102
RTVSPropertyOp4
 70
     1
102
RTVSPropertyOp5
 70
     1
102
RTVSPropertyOp6
 70
     1
102
RTVSPropertyOp7
 70
     1
102
RTVSPropertyOp8
 70
     1
102
RTVSPropertyOp9
 70
     1
102
RTVSPropertyOp10
 70
     1
102
RTVSPropertyOp11
 70
     1
102
RTVSPropertyOp12
 70
     1
102
RTVSPropertyOp13
 70
     1
102
RTVSPropertyOp14
 70
     1
102
RTVSPropertyOp15
 70
     1
102
RTVSPropertyOp16
 70
     1
102
RTVSPropertyOp17
 70
     1
102
RTVSPropertyOp18
 70
     1
102
RTVSPropertyOp19
 70
     1
102
RTVSPropertyOp20
 70
     1
102
RTVSPropertyOp21
 70
     1
102
RTVSPropertyOp22
 70
     1
102
RTVSPropertyOp23
 70
     1
102
RTVSPropertyOp24
 70
     1
102
RTVSPropertyOp25
 70
     1
102
RTVSPropertyOp26
 70
     1
102
RTVSPropertyOp27
 70
     1
102
RTVSPropertyOp28
 70
     1
102
RTVSPropertyOp29
 70
     1
102
RTVSPropertyOp30
 70
     1
102
RTVSPropertyOp31
 70
     1
102
RTVSPropertyOp32
 70
     1
  0
XRECORD
  5
5A
102
{ACAD_REACTORS
330
59
102
}
330
59
100
AcDbXrecord
280
     1
102
RTVSPropertyOp0
 70
     1
102
RTVSPropertyOp1
 70
     1
102
RTVSPropertyOp2
 70
     1
102
RTVSPropertyOp3
 70
     1
102
RTVSPropertyOp4
 70
     1
102
RTVSPropertyOp5
 70
     1
102
RTVSPropertyOp6
 70
     1
102
RTVSPropertyOp7
 70
     1
102
RTVSPropertyOp8
 70
     1
102
RTVSPropertyOp9
 70
     1
102
RTVSPropertyOp10
 70
     1
102
RTVSPropertyOp11
 70
     1
102
RTVSPropertyOp12
 70
     1
102
RTVSPropertyOp13
 70
     1
102
RTVSPropertyOp14
 70
     1
102
RTVSPropertyOp15
 70
     1
102
RTVSPropertyOp16
 70
     1
102
RTVSPropertyOp17
 70
     1
102
RTVSPropertyOp18
 70
     1
102
RTVSPropertyOp19
 70
     1
102
RTVSPropertyOp20
 70
     1
102
RTVSPropertyOp21
 70
     1
102
RTVSPropertyOp22
 70
     1
102
RTVSPropertyOp23
 70
     1
102
RTVSPropertyOp24
 70
     1
102
RTVSPropertyOp25
 70
     1
102
RTVSPropertyOp26
 70
     1
102
RTVSPropertyOp27
 70
     1
102
RTVSPropertyOp28
 70
     1
102
RTVSPropertyOp29
 70
     1
102
RTVSPropertyOp30
 70
     1
102
RTVSPropertyOp31
 70
     1
102
RTVSPropertyOp32
 70
     1
  0
XRECORD
  5
62
102
{ACAD_REACTORS
330
61
102
}
330
61
100
AcDbXrecord
280
     1
102
RTVSPropertyOp0
 70
     1
102
RTVSPropertyOp1
 70
     1
102
RTVSPropertyOp2
 70
     1
102
RTVSPropertyOp3
 70
     1
102
RTVSPropertyOp4
 70
     1
102
RTVSPropertyOp5
 70
     1
102
RTVSPropertyOp6
 70
     1
102
RTVSPropertyOp7
 70
     1
102
RTVSPropertyOp8
 70
     1
102
RTVSPropertyOp9
 70
     1
102
RTVSPropertyOp10
 70
     1
102
RTVSPropertyOp11
 70
     1
102
RTVSPropertyOp12
 70
     1
102
RTVSPropertyOp13
 70
     1
102
RTVSPropertyOp14
 70
     1
102
RTVSPropertyOp15
 70
     1
102
RTVSPropertyOp16
 70
     1
102
RTVSPropertyOp17
 70
     1
102
RTVSPropertyOp18
 70
     1
102
RTVSPropertyOp19
 70
     1
102
RTVSPropertyOp20
 70
     1
102
RTVSPropertyOp21
 70
     1
102
RTVSPropertyOp22
 70
     1
102
RTVSPropertyOp23
 70
     1
102
RTVSPropertyOp24
 70
     1
102
RTVSPropertyOp25
 70
     1
102
RTVSPropertyOp26
 70
     1
102
RTVSPropertyOp27
 70
     1
102
RTVSPropertyOp28
 70
     1
102
RTVSPropertyOp29
 70
     1
102
RTVSPropertyOp30
 70
     1
102
RTVSPropertyOp31
 70
     1
102
RTVSPropertyOp32
 70
     1
  0
XRECORD
  5
6A
102
{ACAD_REACTORS
330
69
102
}
330
69
100
AcDbXrecord
280
     1
102
RTVSPropertyOp0
 70
     1
102
RTVSPropertyOp1
 70
     1
102
RTVSPropertyOp2
 70
     1
102
RTVSPropertyOp3
 70
     1
102
RTVSPropertyOp4
 70
     1
102
RTVSPropertyOp5
 70
     1
102
RTVSPropertyOp6
 70
     1
102
RTVSPropertyOp7
 70
     1
102
RTVSPropertyOp8
 70
     1
102
RTVSPropertyOp9
 70
     1
102
RTVSPropertyOp10
 70
     1
102
RTVSPropertyOp11
 70
     1
102
RTVSPropertyOp12
 70
     1
102
RTVSPropertyOp13
 70
     1
102
RTVSPropertyOp14
 70
     1
102
RTVSPropertyOp15
 70
     1
102
RTVSPropertyOp16
 70
     1
102
RTVSPropertyOp17
 70
     1
102
RTVSPropertyOp18
 70
     1
102
RTVSPropertyOp19
 70
     1
102
RTVSPropertyOp20
 70
     1
102
RTVSPropertyOp21
 70
     1
102
RTVSPropertyOp22
 70
     1
102
RTVSPropertyOp23
 70
     1
102
RTVSPropertyOp24
 70
     1
102
RTVSPropertyOp25
 70
     1
102
RTVSPropertyOp26
 70
     1
102
RTVSPropertyOp27
 70
     1
102
RTVSPropertyOp28
 70
     1
102
RTVSPropertyOp29
 70
     1
102
RTVSPropertyOp30
 70
     1
102
RTVSPropertyOp31
 70
     1
102
RTVSPropertyOp32
 70
     1
  0
XRECORD
  5
5E
102
{ACAD_REACTORS
330
5D
102
}
330
5D
100
AcDbXrecord
280
     1
102
RTVSPropertyOp0
 70
     1
102
RTVSPropertyOp1
 70
     1
102
RTVSPropertyOp2
 70
     1
102
RTVSPropertyOp3
 70
     1
102
RTVSPropertyOp4
 70
     1
102
RTVSPropertyOp5
 70
     1
102
RTVSPropertyOp6
 70
     1
102
RTVSPropertyOp7
 70
     1
102
RTVSPropertyOp8
 70
     1
102
RTVSPropertyOp9
 70
     1
102
RTVSPropertyOp10
 70
     1
102
RTVSPropertyOp11
 70
     1
102
RTVSPropertyOp12
 70
     1
102
RTVSPropertyOp13
 70
     1
102
RTVSPropertyOp14
 70
     1
102
RTVSPropertyOp15
 70
     1
102
RTVSPropertyOp16
 70
     1
102
RTVSPropertyOp17
 70
     1
102
RTVSPropertyOp18
 70
     1
102
RTVSPropertyOp19
 70
     1
102
RTVSPropertyOp20
 70
     1
102
RTVSPropertyOp21
 70
     1
102
RTVSPropertyOp22
 70
     1
102
RTVSPropertyOp23
 70
     1
102
RTVSPropertyOp24
 70
     1
102
RTVSPropertyOp25
 70
     1
102
RTVSPropertyOp26
 70
     1
102
RTVSPropertyOp27
 70
     1
102
RTVSPropertyOp28
 70
     1
102
RTVSPropertyOp29
 70
     1
102
RTVSPropertyOp30
 70
     1
102
RTVSPropertyOp31
 70
     1
102
RTVSPropertyOp32
 70
     1
  0
XRECORD
  5
60
102
{ACAD_REACTORS
330
5F
102
}
330
5F
100
AcDbXrecord
280
     1
102
RTVSPropertyOp0
 70
     1
102
RTVSPropertyOp1
 70
     1
102
RTVSPropertyOp2
 70
     1
102
RTVSPropertyOp3
 70
     1
102
RTVSPropertyOp4
 70
     1
102
RTVSPropertyOp5
 70
     1
102
RTVSPropertyOp6
 70
     1
102
RTVSPropertyOp7
 70
     1
102
RTVSPropertyOp8
 70
     1
102
RTVSPropertyOp9
 70
     1
102
RTVSPropertyOp10
 70
     1
102
RTVSPropertyOp11
 70
     1
102
RTVSPropertyOp12
 70
     1
102
RTVSPropertyOp13
 70
     1
102
RTVSPropertyOp14
 70
     1
102
RTVSPropertyOp15
 70
     1
102
RTVSPropertyOp16
 70
     1
102
RTVSPropertyOp17
 70
     1
102
RTVSPropertyOp18
 70
     1
102
RTVSPropertyOp19
 70
     1
102
RTVSPropertyOp20
 70
     1
102
RTVSPropertyOp21
 70
     1
102
RTVSPropertyOp22
 70
     1
102
RTVSPropertyOp23
 70
     1
102
RTVSPropertyOp24
 70
     1
102
RTVSPropertyOp25
 70
     1
102
RTVSPropertyOp26
 70
     1
102
RTVSPropertyOp27
 70
     1
102
RTVSPropertyOp28
 70
     1
102
RTVSPropertyOp29
 70
     1
102
RTVSPropertyOp30
 70
     1
102
RTVSPropertyOp31
 70
     1
102
RTVSPropertyOp32
 70
     1
  0
XRECORD
  5
68
102
{ACAD_REACTORS
330
67
102
}
330
67
100
AcDbXrecord
280
     1
102
RTVSPropertyOp0
 70
     1
102
RTVSPropertyOp1
 70
     1
102
RTVSPropertyOp2
 70
     1
102
RTVSPropertyOp3
 70
     1
102
RTVSPropertyOp4
 70
     1
102
RTVSPropertyOp5
 70
     1
102
RTVSPropertyOp6
 70
     1
102
RTVSPropertyOp7
 70
     1
102
RTVSPropertyOp8
 70
     1
102
RTVSPropertyOp9
 70
     1
102
RTVSPropertyOp10
 70
     1
102
RTVSPropertyOp11
 70
     1
102
RTVSPropertyOp12
 70
     1
102
RTVSPropertyOp13
 70
     1
102
RTVSPropertyOp14
 70
     1
102
RTVSPropertyOp15
 70
     1
102
RTVSPropertyOp16
 70
     1
102
RTVSPropertyOp17
 70
     1
102
RTVSPropertyOp18
 70
     1
102
RTVSPropertyOp19
 70
     1
102
RTVSPropertyOp20
 70
     1
102
RTVSPropertyOp21
 70
     1
102
RTVSPropertyOp22
 70
     1
102
RTVSPropertyOp23
 70
     1
102
RTVSPropertyOp24
 70
     1
102
RTVSPropertyOp25
 70
     1
102
RTVSPropertyOp26
 70
     1
102
RTVSPropertyOp27
 70
     1
102
RTVSPropertyOp28
 70
     1
102
RTVSPropertyOp29
 70
     1
102
RTVSPropertyOp30
 70
     1
102
RTVSPropertyOp31
 70
     1
102
RTVSPropertyOp32
 70
     1
  0
XRECORD
  5
4C
102
{ACAD_REACTORS
330
4B
102
}
330
4B
100
AcDbXrecord
280
     1
102
RTVSPropertyOp0
 70
     1
102
RTVSPropertyOp1
 70
     1
102
RTVSPropertyOp2
 70
     1
102
RTVSPropertyOp3
 70
     1
102
RTVSPropertyOp4
 70
     1
102
RTVSPropertyOp5
 70
     1
102
RTVSPropertyOp6
 70
     1
102
RTVSPropertyOp7
 70
     1
102
RTVSPropertyOp8
 70
     1
102
RTVSPropertyOp9
 70
     1
102
RTVSPropertyOp10
 70
     1
102
RTVSPropertyOp11
 70
     1
102
RTVSPropertyOp12
 70
     1
102
RTVSPropertyOp13
 70
     1
102
RTVSPropertyOp14
 70
     1
102
RTVSPropertyOp15
 70
     1
102
RTVSPropertyOp16
 70
     1
102
RTVSPropertyOp17
 70
     1
102
RTVSPropertyOp18
 70
     1
102
RTVSPropertyOp19
 70
     1
102
RTVSPropertyOp20
 70
     1
102
RTVSPropertyOp21
 70
     1
102
RTVSPropertyOp22
 70
     1
102
RTVSPropertyOp23
 70
     1
102
RTVSPropertyOp24
 70
     1
102
RTVSPropertyOp25
 70
     1
102
RTVSPropertyOp26
 70
     1
102
RTVSPropertyOp27
 70
     1
102
RTVSPropertyOp28
 70
     1
102
RTVSPropertyOp29
 70
     1
102
RTVSPropertyOp30
 70
     1
102
RTVSPropertyOp31
 70
     1
102
RTVSPropertyOp32
 70
     1
  0
XRECORD
  5
4E
102
{ACAD_REACTORS
330
4D
102
}
330
4D
100
AcDbXrecord
280
     1
102
RTVSPropertyOp0
 70
     1
102
RTVSPropertyOp1
 70
     1
102
RTVSPropertyOp2
 70
     1
102
RTVSPropertyOp3
 70
     1
102
RTVSPropertyOp4
 70
     1
102
RTVSPropertyOp5
 70
     1
102
RTVSPropertyOp6
 70
     1
102
RTVSPropertyOp7
 70
     1
102
RTVSPropertyOp8
 70
     1
102
RTVSPropertyOp9
 70
     1
102
RTVSPropertyOp10
 70
     1
102
RTVSPropertyOp11
 70
     1
102
RTVSPropertyOp12
 70
     1
102
RTVSPropertyOp13
 70
     1
102
RTVSPropertyOp14
 70
     1
102
RTVSPropertyOp15
 70
     1
102
RTVSPropertyOp16
 70
     1
102
RTVSPropertyOp17
 70
     1
102
RTVSPropertyOp18
 70
     1
102
RTVSPropertyOp19
 70
     1
102
RTVSPropertyOp20
 70
     1
102
RTVSPropertyOp21
 70
     1
102
RTVSPropertyOp22
 70
     1
102
RTVSPropertyOp23
 70
     1
102
RTVSPropertyOp24
 70
     1
102
RTVSPropertyOp25
 70
     1
102
RTVSPropertyOp26
 70
     1
102
RTVSPropertyOp27
 70
     1
102
RTVSPropertyOp28
 70
     1
102
RTVSPropertyOp29
 70
     1
102
RTVSPropertyOp30
 70
     1
102
RTVSPropertyOp31
 70
     1
102
RTVSPropertyOp32
 70
     1
  0
XRECORD
  5
50
102
{ACAD_REACTORS
330
4F
102
}
330
4F
100
AcDbXrecord
280
     1
102
RTVSPropertyOp0
 70
     1
102
RTVSPropertyOp1
 70
     1
102
RTVSPropertyOp2
 70
     1
102
RTVSPropertyOp3
 70
     1
102
RTVSPropertyOp4
 70
     1
102
RTVSPropertyOp5
 70
     1
102
RTVSPropertyOp6
 70
     1
102
RTVSPropertyOp7
 70
     1
102
RTVSPropertyOp8
 70
     1
102
RTVSPropertyOp9
 70
     1
102
RTVSPropertyOp10
 70
     1
102
RTVSPropertyOp11
 70
     1
102
RTVSPropertyOp12
 70
     1
102
RTVSPropertyOp13
 70
     1
102
RTVSPropertyOp14
 70
     1
102
RTVSPropertyOp15
 70
     1
102
RTVSPropertyOp16
 70
     1
102
RTVSPropertyOp17
 70
     1
102
RTVSPropertyOp18
 70
     1
102
RTVSPropertyOp19
 70
     1
102
RTVSPropertyOp20
 70
     1
102
RTVSPropertyOp21
 70
     1
102
RTVSPropertyOp22
 70
     1
102
RTVSPropertyOp23
 70
     1
102
RTVSPropertyOp24
 70
     1
102
RTVSPropertyOp25
 70
     1
102
RTVSPropertyOp26
 70
     1
102
RTVSPropertyOp27
 70
     1
102
RTVSPropertyOp28
 70
     1
102
RTVSPropertyOp29
 70
     1
102
RTVSPropertyOp30
 70
     1
102
RTVSPropertyOp31
 70
     1
102
RTVSPropertyOp32
 70
     1
  0
XRECORD
  5
52
102
{ACAD_REACTORS
330
51
102
}
330
51
100
AcDbXrecord
280
     1
102
RTVSPropertyOp0
 70
     1
102
RTVSPropertyOp1
 70
     1
102
RTVSPropertyOp2
 70
     1
102
RTVSPropertyOp3
 70
     1
102
RTVSPropertyOp4
 70
     1
102
RTVSPropertyOp5
 70
     1
102
RTVSPropertyOp6
 70
     1
102
RTVSPropertyOp7
 70
     1
102
RTVSPropertyOp8
 70
     1
102
RTVSPropertyOp9
 70
     1
102
RTVSPropertyOp10
 70
     1
102
RTVSPropertyOp11
 70
     1
102
RTVSPropertyOp12
 70
     1
102
RTVSPropertyOp13
 70
     1
102
RTVSPropertyOp14
 70
     1
102
RTVSPropertyOp15
 70
     1
102
RTVSPropertyOp16
 70
     1
102
RTVSPropertyOp17
 70
     1
102
RTVSPropertyOp18
 70
     1
102
RTVSPropertyOp19
 70
     1
102
RTVSPropertyOp20
 70
     1
102
RTVSPropertyOp21
 70
     1
102
RTVSPropertyOp22
 70
     1
102
RTVSPropertyOp23
 70
     1
102
RTVSPropertyOp24
 70
     1
102
RTVSPropertyOp25
 70
     1
102
RTVSPropertyOp26
 70
     1
102
RTVSPropertyOp27
 70
     1
102
RTVSPropertyOp28
 70
     1
102
RTVSPropertyOp29
 70
     1
102
RTVSPropertyOp30
 70
     1
102
RTVSPropertyOp31
 70
     1
102
RTVSPropertyOp32
 70
     1
  0
XRECORD
  5
66
102
{ACAD_REACTORS
330
65
102
}
330
65
100
AcDbXrecord
280
     1
102
RTVSPropertyOp0
 70
     1
102
RTVSPropertyOp1
 70
     1
102
RTVSPropertyOp2
 70
     1
102
RTVSPropertyOp3
 70
     1
102
RTVSPropertyOp4
 70
     1
102
RTVSPropertyOp5
 70
     1
102
RTVSPropertyOp6
 70
     1
102
RTVSPropertyOp7
 70
     1
102
RTVSPropertyOp8
 70
     1
102
RTVSPropertyOp9
 70
     1
102
RTVSPropertyOp10
 70
     1
102
RTVSPropertyOp11
 70
     1
102
RTVSPropertyOp12
 70
     1
102
RTVSPropertyOp13
 70
     1
102
RTVSPropertyOp14
 70
     1
102
RTVSPropertyOp15
 70
     1
102
RTVSPropertyOp16
 70
     1
102
RTVSPropertyOp17
 70
     1
102
RTVSPropertyOp18
 70
     1
102
RTVSPropertyOp19
 70
     1
102
RTVSPropertyOp20
 70
     1
102
RTVSPropertyOp21
 70
     1
102
RTVSPropertyOp22
 70
     1
102
RTVSPropertyOp23
 70
     1
102
RTVSPropertyOp24
 70
     1
102
RTVSPropertyOp25
 70
     1
102
RTVSPropertyOp26
 70
     1
102
RTVSPropertyOp27
 70
     1
102
RTVSPropertyOp28
 70
     1
102
RTVSPropertyOp29
 70
     1
102
RTVSPropertyOp30
 70
     1
102
RTVSPropertyOp31
 70
     1
102
RTVSPropertyOp32
 70
     1
  0
XRECORD
  5
5C
102
{ACAD_REACTORS
330
5B
102
}
330
5B
100
AcDbXrecord
280
     1
102
RTVSPropertyOp0
 70
     1
102
RTVSPropertyOp1
 70
     1
102
RTVSPropertyOp2
 70
     1
102
RTVSPropertyOp3
 70
     1
102
RTVSPropertyOp4
 70
     1
102
RTVSPropertyOp5
 70
     1
102
RTVSPropertyOp6
 70
     1
102
RTVSPropertyOp7
 70
     1
102
RTVSPropertyOp8
 70
     1
102
RTVSPropertyOp9
 70
     1
102
RTVSPropertyOp10
 70
     1
102
RTVSPropertyOp11
 70
     1
102
RTVSPropertyOp12
 70
     1
102
RTVSPropertyOp13
 70
     1
102
RTVSPropertyOp14
 70
     1
102
RTVSPropertyOp15
 70
     1
102
RTVSPropertyOp16
 70
     1
102
RTVSPropertyOp17
 70
     1
102
RTVSPropertyOp18
 70
     1
102
RTVSPropertyOp19
 70
     1
102
RTVSPropertyOp20
 70
     1
102
RTVSPropertyOp21
 70
     1
102
RTVSPropertyOp22
 70
     1
102
RTVSPropertyOp23
 70
     1
102
RTVSPropertyOp24
 70
     1
102
RTVSPropertyOp25
 70
     1
102
RTVSPropertyOp26
 70
     1
102
RTVSPropertyOp27
 70
     1
102
RTVSPropertyOp28
 70
     1
102
RTVSPropertyOp29
 70
     1
102
RTVSPropertyOp30
 70
     1
102
RTVSPropertyOp31
 70
     1
102
RTVSPropertyOp32
 70
     1
  0
XRECORD
  5
64
102
{ACAD_REACTORS
330
63
102
}
330
63
100
AcDbXrecord
280
     1
102
RTVSPropertyOp0
 70
     1
102
RTVSPropertyOp1
 70
     1
102
RTVSPropertyOp2
 70
     1
102
RTVSPropertyOp3
 70
     1
102
RTVSPropertyOp4
 70
     1
102
RTVSPropertyOp5
 70
     1
102
RTVSPropertyOp6
 70
     1
102
RTVSPropertyOp7
 70
     1
102
RTVSPropertyOp8
 70
     1
102
RTVSPropertyOp9
 70
     1
102
RTVSPropertyOp10
 70
     1
102
RTVSPropertyOp11
 70
     1
102
RTVSPropertyOp12
 70
     1
102
RTVSPropertyOp13
 70
     1
102
RTVSPropertyOp14
 70
     1
102
RTVSPropertyOp15
 70
     1
102
RTVSPropertyOp16
 70
     1
102
RTVSPropertyOp17
 70
     1
102
RTVSPropertyOp18
 70
     1
102
RTVSPropertyOp19
 70
     1
102
RTVSPropertyOp20
 70
     1
102
RTVSPropertyOp21
 70
     1
102
RTVSPropertyOp22
 70
     1
102
RTVSPropertyOp23
 70
     1
102
RTVSPropertyOp24
 70
     1
102
RTVSPropertyOp25
 70
     1
102
RTVSPropertyOp26
 70
     1
102
RTVSPropertyOp27
 70
     1
102
RTVSPropertyOp28
 70
     1
102
RTVSPropertyOp29
 70
     1
102
RTVSPropertyOp30
 70
     1
102
RTVSPropertyOp31
 70
     1
102
RTVSPropertyOp32
 70
     1
  0
ENDSEC
  0
EOF
