  0
SECTION
  2
HEADER
  9
$ACADVER
  1
AC1018
  9
$ACADMAINTVER
 70
     0
  9
$DWGCODEPAGE
  3
ANSI_936
  9
$INSBASE
 10
0.0
 20
0.0
 30
0.0
  9
$EXTMIN
 10
1.000000000000000E+20
 20
1.000000000000000E+20
 30
1.000000000000000E+20
  9
$EXTMAX
 10
-1.000000000000000E+20
 20
-1.000000000000000E+20
 30
-1.000000000000000E+20
  9
$LIMMIN
 10
0.0
 20
0.0
  9
$LIMMAX
 10
12.0
 20
9.0
  9
$ORTHOMODE
 70
     0
  9
$REGENMODE
 70
     1
  9
$FILLMODE
 70
     1
  9
$QTEXTMODE
 70
     0
  9
$MIRRTEXT
 70
     1
  9
$LTSCALE
 40
1.0
  9
$ATTMODE
 70
     1
  9
$TEXTSIZE
 40
0.2
  9
$TRACEWID
 40
0.05
  9
$TEXTSTYLE
  7
Standard
  9
$CLAYER
  8
0
  9
$CELTYPE
  6
ByLayer
  9
$CECOLOR
 62
   256
  9
$CELTSCALE
 40
1.0
  9
$DISPSILH
 70
     0
  9
$DIMSCALE
 40
1.0
  9
$DIMASZ
 40
0.18
  9
$DIMEXO
 40
0.0625
  9
$DIMDLI
 40
0.38
  9
$DIMRND
 40
0.0
  9
$DIMDLE
 40
0.0
  9
$DIMEXE
 40
0.18
  9
$DIMTP
 40
0.0
  9
$DIMTM
 40
0.0
  9
$DIMTXT
 40
0.18
  9
$DIMCEN
 40
0.09
  9
$DIMTSZ
 40
0.0
  9
$DIMTOL
 70
     0
  9
$DIMLIM
 70
     0
  9
$DIMTIH
 70
     1
  9
$DIMTOH
 70
     1
  9
$DIMSE1
 70
     0
  9
$DIMSE2
 70
     0
  9
$DIMTAD
 70
     0
  9
$DIMZIN
 70
     0
  9
$DIMBLK
  1

  9
$DIMASO
 70
     1
  9
$DIMSHO
 70
     1
  9
$DIMPOST
  1

  9
$DIMAPOST
  1

  9
$DIMALT
 70
     0
  9
$DIMALTD
 70
     2
  9
$DIMALTF
 40
25.4
  9
$DIMLFAC
 40
1.0
  9
$DIMTOFL
 70
     0
  9
$DIMTVP
 40
0.0
  9
$DIMTIX
 70
     0
  9
$DIMSOXD
 70
     0
  9
$DIMSAH
 70
     0
  9
$DIMBLK1
  1

  9
$DIMBLK2
  1

  9
$DIMSTYLE
  2
Standard
  9
$DIMCLRD
 70
     0
  9
$DIMCLRE
 70
     0
  9
$DIMCLRT
 70
     0
  9
$DIMTFAC
 40
1.0
  9
$DIMGAP
 40
0.09
  9
$DIMJUST
 70
     0
  9
$DIMSD1
 70
     0
  9
$DIMSD2
 70
     0
  9
$DIMTOLJ
 70
     1
  9
$DIMTZIN
 70
     0
  9
$DIMALTZ
 70
     0
  9
$DIMALTTZ
 70
     0
  9
$DIMUPT
 70
     0
  9
$DIMDEC
 70
     4
  9
$DIMTDEC
 70
     4
  9
$DIMALTU
 70
     2
  9
$DIMALTTD
 70
     2
  9
$DIMTXSTY
  7
Standard
  9
$DIMAUNIT
 70
     0
  9
$DIMADEC
 70
     0
  9
$DIMALTRND
 40
0.0
  9
$DIMAZIN
 70
     0
  9
$DIMDSEP
 70
    46
  9
$DIMATFIT
 70
     3
  9
$DIMFRAC
 70
     0
  9
$DIMLDRBLK
  1

  9
$DIMLUNIT
 70
     2
  9
$DIMLWD
 70
    -2
  9
$DIMLWE
 70
    -2
  9
$DIMTMOVE
 70
     0
  9
$LUNITS
 70
     2
  9
$LUPREC
 70
     4
  9
$SKETCHINC
 40
0.1
  9
$FILLETRAD
 40
0.5
  9
$AUNITS
 70
     0
  9
$AUPREC
 70
     0
  9
$MENU
  1
.
  9
$ELEVATION
 40
0.0
  9
$PELEVATION
 40
0.0
  9
$THICKNESS
 40
0.0
  9
$LIMCHECK
 70
     0
  9
$CHAMFERA
 40
0.5
  9
$CHAMFERB
 40
0.5
  9
$CHAMFERC
 40
1.0
  9
$CHAMFERD
 40
0.0
  9
$SKPOLY
 70
     0
  9
$TDCREATE
 40
2459202.97289331
  9
$TDUCREATE
 40
2459202.639559977
  9
$TDUPDATE
 40
2459202.972893391
  9
$TDUUPDATE
 40
2459202.639560058
  9
$TDINDWG
 40
0.0000000116
  9
$TDUSRTIMER
 40
0.0000000116
  9
$USRTIMER
 70
     1
  9
$ANGBASE
 50
0.0
  9
$ANGDIR
 70
     0
  9
$PDMODE
 70
     0
  9
$PDSIZE
 40
0.0
  9
$PLINEWID
 40
0.0
  9
$SPLFRAME
 70
     0
  9
$SPLINETYPE
 70
     6
  9
$SPLINESEGS
 70
     8
  9
$HANDSEED
  5
74
  9
$SURFTAB1
 70
     6
  9
$SURFTAB2
 70
     6
  9
$SURFTYPE
 70
     6
  9
$SURFU
 70
     6
  9
$SURFV
 70
     6
  9
$UCSBASE
  2

  9
$UCSNAME
  2

  9
$UCSORG
 10
0.0
 20
0.0
 30
0.0
  9
$UCSXDIR
 10
1.0
 20
0.0
 30
0.0
  9
$UCSYDIR
 10
0.0
 20
1.0
 30
0.0
  9
$UCSORTHOREF
  2

  9
$UCSORTHOVIEW
 70
     0
  9
$UCSORGTOP
 10
0.0
 20
0.0
 30
0.0
  9
$UCSORGBOTTOM
 10
0.0
 20
0.0
 30
0.0
  9
$UCSORGLEFT
 10
0.0
 20
0.0
 30
0.0
  9
$UCSORGRIGHT
 10
0.0
 20
0.0
 30
0.0
  9
$UCSORGFRONT
 10
0.0
 20
0.0
 30
0.0
  9
$UCSORGBACK
 10
0.0
 20
0.0
 30
0.0
  9
$PUCSBASE
  2

  9
$PUCSNAME
  2

  9
$PUCSORG
 10
0.0
 20
0.0
 30
0.0
  9
$PUCSXDIR
 10
1.0
 20
0.0
 30
0.0
  9
$PUCSYDIR
 10
0.0
 20
1.0
 30
0.0
  9
$PUCSORTHOREF
  2

  9
$PUCSORTHOVIEW
 70
     0
  9
$PUCSORGTOP
 10
0.0
 20
0.0
 30
0.0
  9
$PUCSORGBOTTOM
 10
0.0
 20
0.0
 30
0.0
  9
$PUCSORGLEFT
 10
0.0
 20
0.0
 30
0.0
  9
$PUCSORGRIGHT
 10
0.0
 20
0.0
 30
0.0
  9
$PUCSORGFRONT
 10
0.0
 20
0.0
 30
0.0
  9
$PUCSORGBACK
 10
0.0
 20
0.0
 30
0.0
  9
$USERI1
 70
     0
  9
$USERI2
 70
     0
  9
$USERI3
 70
     0
  9
$USERI4
 70
     0
  9
$USERI5
 70
     0
  9
$USERR1
 40
0.0
  9
$USERR2
 40
0.0
  9
$USERR3
 40
0.0
  9
$USERR4
 40
0.0
  9
$USERR5
 40
0.0
  9
$WORLDVIEW
 70
     1
  9
$SHADEDGE
 70
     3
  9
$SHADEDIF
 70
    70
  9
$TILEMODE
 70
     1
  9
$MAXACTVP
 70
    64
  9
$PINSBASE
 10
0.0
 20
0.0
 30
0.0
  9
$PLIMCHECK
 70
     0
  9
$PEXTMIN
 10
1.000000000000000E+20
 20
1.000000000000000E+20
 30
1.000000000000000E+20
  9
$PEXTMAX
 10
-1.000000000000000E+20
 20
-1.000000000000000E+20
 30
-1.000000000000000E+20
  9
$PLIMMIN
 10
0.0
 20
0.0
  9
$PLIMMAX
 10
12.0
 20
9.0
  9
$UNITMODE
 70
     0
  9
$VISRETAIN
 70
     1
  9
$PLINEGEN
 70
     0
  9
$PSLTSCALE
 70
     1
  9
$TREEDEPTH
 70
  3020
  9
$CMLSTYLE
  2
Standard
  9
$CMLJUST
 70
     0
  9
$CMLSCALE
 40
1.0
  9
$PROXYGRAPHICS
 70
     1
  9
$MEASUREMENT
 70
     0
  9
$CELWEIGHT
370
    -1
  9
$ENDCAPS
280
     0
  9
$JOINSTYLE
280
     0
  9
$LWDISPLAY
290
     1
  9
$INSUNITS
 70
     4
  9
$HYPERLINKBASE
  1

  9
$STYLESHEET
  1

  9
$XEDIT
290
     1
  9
$CEPSNTYPE
380
     0
  9
$PSTYLEMODE
290
     1
  9
$FINGERPRINTGUID
  2
{A94E16CD-56A1-4BC7-9C32-D51C1F83E650}
  9
$VERSIONGUID
  2
{FAEB1C32-E019-11D5-929B-00C0DF256EC4}
  9
$EXTNAMES
290
     1
  9
$PSVPSCALE
 40
0.0
  9
$OLESTARTUP
290
     0
  9
$SORTENTS
280
   127
  9
$INDEXCTL
280
     0
  9
$HIDETEXT
280
     1
  9
$XCLIPFRAME
290
     0
  9
$HALOGAP
280
     0
  9
$OBSCOLOR
 70
   257
  9
$OBSLTYPE
280
     0
  9
$INTERSECTIONDISPLAY
280
     0
  9
$INTERSECTIONCOLOR
 70
   257
  9
$DIMASSOC
280
     2
  9
$PROJECTNAME
  1

  0
ENDSEC
  0
SECTION
  2
CLASSES
  0
CLASS
  1
ACDBDICTIONARYWDFLT
  2
AcDbDictionaryWithDefault
  3
ObjectDBX Classes
 90
        0
 91
        4
280
     0
281
     0
  0
CLASS
  1
VISUALSTYLE
  2
AcDbVisualStyle
  3
ObjectDBX Classes
 90
     4095
 91
        4
280
     0
281
     0
  0
CLASS
  1
MATERIAL
  2
AcDbMaterial
  3
ObjectDBX Classes
 90
     1153
 91
        4
280
     0
281
     0
  0
CLASS
  1
SUN
  2
AcDbSun
  3
SCENEOE
 90
     1024
 91
        4
280
     0
281
     0
  0
ENDSEC
  0
SECTION
  2
TABLES
  0
TABLE
  2
VPORT
  5
8
330
0
100
AcDbSymbolTable
 70
     1
  0
VPORT
  5
29
330
8
100
AcDbSymbolTableRecord
100
AcDbViewportTableRecord
  2
*Active
 70
     0
 10
0.0
 20
0.0
 11
1.0
 21
1.0
 12
0.0
 22
0.0
 13
0.0
 23
0.0
 14
0.5
 24
0.5
 15
0.5
 25
0.5
 16
0.0
 26
0.0
 36
1.0
 17
-303.4833332574627
 27
402.7173440727618
 37
0.0
 40
99.99999997499941
 41
1.000000000000003
 42
50.0
 43
0.0
 44
0.0
 50
0.0
 51
0.0
 71
     0
 72
   100
 73
     1
 74
     3
 75
     0
 76
     0
 77
     0
 78
     0
281
     0
 65
     1
110
0.0
120
0.0
130
0.0
111
1.0
121
0.0
131
0.0
112
0.0
122
1.0
132
0.0
 79
     0
146
0.0
  0
ENDTAB
  0
TABLE
  2
LTYPE
  5
5
330
0
100
AcDbSymbolTable
 70
     1
  0
LTYPE
  5
14
330
5
100
AcDbSymbolTableRecord
100
AcDbLinetypeTableRecord
  2
ByBlock
 70
     0
  3

 72
    65
 73
     0
 40
0.0
  0
LTYPE
  5
15
330
5
100
AcDbSymbolTableRecord
100
AcDbLinetypeTableRecord
  2
ByLayer
 70
     0
  3

 72
    65
 73
     0
 40
0.0
  0
LTYPE
  5
16
330
5
100
AcDbSymbolTableRecord
100
AcDbLinetypeTableRecord
  2
Continuous
 70
     0
  3
Solid line
 72
    65
 73
     0
 40
0.0
  0
ENDTAB
  0
TABLE
  2
LAYER
  5
2
330
0
100
AcDbSymbolTable
 70
     2
  0
LAYER
  5
10
330
2
100
AcDbSymbolTableRecord
100
AcDbLayerTableRecord
  2
0
 70
     0
 62
     7
  6
Continuous
370
    -3
390
F
  0
LAYER
  5
40
330
2
100
AcDbSymbolTableRecord
100
AcDbLayerTableRecord
  2
_U+56FE_U+5C42 1
 70
     0
 62
     7
  6
Continuous
370
    -3
390
F
  0
ENDTAB
  0
TABLE
  2
STYLE
  5
3
330
0
100
AcDbSymbolTable
 70
     1
  0
STYLE
  5
11
330
3
100
AcDbSymbolTableRecord
100
AcDbTextStyleTableRecord
  2
Standard
 70
     0
 40
0.0
 41
1.0
 50
0.0
 71
     0
 42
0.2
  3
txt
  4

  0
ENDTAB
  0
TABLE
  2
VIEW
  5
6
330
0
100
AcDbSymbolTable
 70
     0
  0
ENDTAB
  0
TABLE
  2
UCS
  5
7
330
0
100
AcDbSymbolTable
 70
     0
  0
ENDTAB
  0
TABLE
  2
APPID
  5
9
330
0
100
AcDbSymbolTable
 70
     1
  0
APPID
  5
12
330
9
100
AcDbSymbolTableRecord
100
AcDbRegAppTableRecord
  2
ACAD
 70
     0
  0
ENDTAB
  0
TABLE
  2
DIMSTYLE
  5
A
330
0
100
AcDbSymbolTable
 70
     1
100
AcDbDimStyleTable
  0
DIMSTYLE
105
27
330
A
100
AcDbSymbolTableRecord
100
AcDbDimStyleTableRecord
  2
Standard
 70
     0
178
     0
340
11
  0
ENDTAB
  0
TABLE
  2
BLOCK_RECORD
  5
1
330
0
100
AcDbSymbolTable
 70
     3
  0
BLOCK_RECORD
  5
1F
330
1
100
AcDbSymbolTableRecord
100
AcDbBlockTableRecord
  2
*Model_Space
340
22
  0
BLOCK_RECORD
  5
1B
330
1
100
AcDbSymbolTableRecord
100
AcDbBlockTableRecord
  2
*Paper_Space
340
1E
  0
BLOCK_RECORD
  5
23
330
1
100
AcDbSymbolTableRecord
100
AcDbBlockTableRecord
  2
*Paper_Space0
340
26
  0
BLOCK_RECORD
  5
41
330
1
100
AcDbSymbolTableRecord
100
AcDbBlockTableRecord
  2
block 2
340
0
102
{BLKREFS
331
42
102
}
  0
BLOCK_RECORD
  5
46
330
1
100
AcDbSymbolTableRecord
100
AcDbBlockTableRecord
  2
block 3
340
0
102
{BLKREFS
331
47
102
}
  0
ENDTAB
  0
ENDSEC
  0
SECTION
  2
BLOCKS
  0
BLOCK
  5
20
330
1F
100
AcDbEntity
  8
0
100
AcDbBlockBegin
  2
*Model_Space
 70
     0
 10
0.0
 20
0.0
 30
0.0
  3
*Model_Space
  1

  0
ENDBLK
  5
21
330
1F
100
AcDbEntity
  8
0
100
AcDbBlockEnd
  0
BLOCK
  5
1C
330
1B
100
AcDbEntity
 67
     1
  8
0
100
AcDbBlockBegin
  2
*Paper_Space
 70
     0
 10
0.0
 20
0.0
 30
0.0
  3
*Paper_Space
  1

  0
ENDBLK
  5
1D
330
1B
100
AcDbEntity
 67
     1
  8
0
100
AcDbBlockEnd
  0
BLOCK
  5
24
330
23
100
AcDbEntity
  8
0
100
AcDbBlockBegin
  2
*Paper_Space0
 70
     0
 10
0.0
 20
0.0
 30
0.0
  3
*Paper_Space0
  1

  0
ENDBLK
  5
25
330
23
100
AcDbEntity
  8
0
100
AcDbBlockEnd
  0
BLOCK
  5
43
330
41
100
AcDbEntity
  8
0
100
AcDbBlockBegin
  2
block 2
 70
     0
 10
0.0
 20
0.0
 30
0.0
  3
block 2
  1

  0
SPLINE
  5
45
330
41
100
AcDbEntity
  8
_U+56FE_U+5C42 1
 62
     7
370
    18
100
AcDbSpline
210
0.0
220
0.0
230
1.0
 70
    11
 71
     3
 72
   341
 73
   337
 74
     0
 42
0.0000000001
 43
0.0000000001
 12
1.0
 22
0.0
 32
0.0
 13
1.0
 23
0.0
 33
0.0
 40
0.0
 40
0.0
 40
0.0
 40
0.0
 40
1.0
 40
1.0
 40
1.0
 40
2.0
 40
2.0
 40
2.0
 40
3.0
 40
3.0
 40
3.0
 40
4.0
 40
4.0
 40
4.0
 40
5.0
 40
5.0
 40
5.0
 40
6.0
 40
6.0
 40
6.0
 40
7.0
 40
7.0
 40
7.0
 40
8.0
 40
8.0
 40
8.0
 40
9.0
 40
9.0
 40
9.0
 40
10.0
 40
10.0
 40
10.0
 40
11.0
 40
11.0
 40
11.0
 40
12.0
 40
12.0
 40
12.0
 40
13.0
 40
13.0
 40
13.0
 40
14.0
 40
14.0
 40
14.0
 40
15.0
 40
15.0
 40
15.0
 40
16.0
 40
16.0
 40
16.0
 40
17.0
 40
17.0
 40
17.0
 40
18.0
 40
18.0
 40
18.0
 40
19.0
 40
19.0
 40
19.0
 40
20.0
 40
20.0
 40
20.0
 40
21.0
 40
21.0
 40
21.0
 40
22.0
 40
22.0
 40
22.0
 40
23.0
 40
23.0
 40
23.0
 40
24.0
 40
24.0
 40
24.0
 40
25.0
 40
25.0
 40
25.0
 40
26.0
 40
26.0
 40
26.0
 40
27.0
 40
27.0
 40
27.0
 40
28.0
 40
28.0
 40
28.0
 40
29.0
 40
29.0
 40
29.0
 40
30.0
 40
30.0
 40
30.0
 40
31.0
 40
31.0
 40
31.0
 40
32.0
 40
32.0
 40
32.0
 40
33.0
 40
33.0
 40
33.0
 40
34.0
 40
34.0
 40
34.0
 40
35.0
 40
35.0
 40
35.0
 40
36.0
 40
36.0
 40
36.0
 40
37.0
 40
37.0
 40
37.0
 40
38.0
 40
38.0
 40
38.0
 40
39.0
 40
39.0
 40
39.0
 40
40.0
 40
40.0
 40
40.0
 40
41.0
 40
41.0
 40
41.0
 40
42.0
 40
42.0
 40
42.0
 40
43.0
 40
43.0
 40
43.0
 40
44.0
 40
44.0
 40
44.0
 40
45.0
 40
45.0
 40
45.0
 40
46.0
 40
46.0
 40
46.0
 40
47.0
 40
47.0
 40
47.0
 40
48.0
 40
48.0
 40
48.0
 40
49.0
 40
49.0
 40
49.0
 40
50.0
 40
50.0
 40
50.0
 40
51.0
 40
51.0
 40
51.0
 40
52.0
 40
52.0
 40
52.0
 40
53.0
 40
53.0
 40
53.0
 40
54.0
 40
54.0
 40
54.0
 40
55.0
 40
55.0
 40
55.0
 40
56.0
 40
56.0
 40
56.0
 40
57.0
 40
57.0
 40
57.0
 40
58.0
 40
58.0
 40
58.0
 40
59.0
 40
59.0
 40
59.0
 40
60.0
 40
60.0
 40
60.0
 40
61.0
 40
61.0
 40
61.0
 40
62.0
 40
62.0
 40
62.0
 40
63.0
 40
63.0
 40
63.0
 40
64.0
 40
64.0
 40
64.0
 40
65.0
 40
65.0
 40
65.0
 40
66.0
 40
66.0
 40
66.0
 40
67.0
 40
67.0
 40
67.0
 40
68.0
 40
68.0
 40
68.0
 40
69.0
 40
69.0
 40
69.0
 40
70.0
 40
70.0
 40
70.0
 40
71.0
 40
71.0
 40
71.0
 40
72.0
 40
72.0
 40
72.0
 40
73.0
 40
73.0
 40
73.0
 40
74.0
 40
74.0
 40
74.0
 40
75.0
 40
75.0
 40
75.0
 40
76.0
 40
76.0
 40
76.0
 40
77.0
 40
77.0
 40
77.0
 40
78.0
 40
78.0
 40
78.0
 40
79.0
 40
79.0
 40
79.0
 40
80.0
 40
80.0
 40
80.0
 40
81.0
 40
81.0
 40
81.0
 40
82.0
 40
82.0
 40
82.0
 40
83.0
 40
83.0
 40
83.0
 40
84.0
 40
84.0
 40
84.0
 40
85.0
 40
85.0
 40
85.0
 40
86.0
 40
86.0
 40
86.0
 40
87.0
 40
87.0
 40
87.0
 40
88.0
 40
88.0
 40
88.0
 40
89.0
 40
89.0
 40
89.0
 40
90.0
 40
90.0
 40
90.0
 40
91.0
 40
91.0
 40
91.0
 40
92.0
 40
92.0
 40
92.0
 40
93.0
 40
93.0
 40
93.0
 40
94.0
 40
94.0
 40
94.0
 40
95.0
 40
95.0
 40
95.0
 40
96.0
 40
96.0
 40
96.0
 40
97.0
 40
97.0
 40
97.0
 40
98.0
 40
98.0
 40
98.0
 40
99.0
 40
99.0
 40
99.0
 40
100.0
 40
100.0
 40
100.0
 40
101.0
 40
101.0
 40
101.0
 40
102.0
 40
102.0
 40
102.0
 40
103.0
 40
103.0
 40
103.0
 40
104.0
 40
104.0
 40
104.0
 40
105.0
 40
105.0
 40
105.0
 40
106.0
 40
106.0
 40
106.0
 40
107.0
 40
107.0
 40
107.0
 40
108.0
 40
108.0
 40
108.0
 40
109.0
 40
109.0
 40
109.0
 40
110.0
 40
110.0
 40
110.0
 40
111.0
 40
111.0
 40
111.0
 40
112.0
 40
112.0
 40
112.0
 40
112.0
 10
-312.9145739738473
 20
400.0435224306678
 30
0.0
 10
-312.6840495613516
 20
400.2740468431634
 30
0.0
 10
-312.4829377012404
 20
400.4803212795941
 30
0.0
 10
-312.2763026742326
 20
400.6809062825797
 30
0.0
 10
-311.361016756894
 20
401.5693879540047
 30
0.0
 10
-310.4445098195941
 20
402.4566153521581
 30
0.0
 10
-309.5277586782998
 20
403.3435902329904
 30
0.0
 10
-308.1498340121042
 20
404.67675802273
 30
0.0
 10
-306.7709044724556
 20
406.008887685705
 30
0.0
 10
-305.3932489502331
 20
407.3423412460718
 30
0.0
 10
-304.6265938962162
 20
408.0843971642776
 30
0.0
 10
-303.8614674552751
 20
408.8280315755231
 30
0.0
 10
-303.096008481235
 20
409.5713251403481
 30
0.0
 10
-302.3134853635176
 20
410.3311902841987
 30
0.0
 10
-301.5315369045578
 20
411.091663340124
 30
0.0
 10
-300.7490761367951
 20
411.8515908339331
 30
0.0
 10
-299.9548592849034
 20
412.6229398004408
 30
0.0
 10
-299.1604501873154
 20
413.3940798945994
 30
0.0
 10
-298.3658852148409
 20
414.1650724271968
 30
0.0
 10
-297.6116762511231
 20
414.8969039918488
 30
0.0
 10
-296.8568863936549
 20
415.6281463494201
 30
0.0
 10
-296.1028561664792
 20
416.3601649639372
 30
0.0
 10
-295.3027410087876
 20
417.1369217499308
 30
0.0
 10
-294.5030716532804
 20
417.9141243381046
 30
0.0
 10
-293.7034875093797
 20
418.6914287645413
 30
0.0
 10
-292.8928923633195
 20
419.4794366000179
 30
0.0
 10
-292.0827024919721
 20
420.2678746501921
 30
0.0
 10
-291.2722091841716
 20
421.0559926372563
 30
0.0
 10
-290.4382473530858
 20
421.8669307080734
 30
0.0
 10
-289.6043187753109
 20
422.6779186588566
 30
0.0
 10
-288.7700192153
 20
423.4885106874153
 30
0.0
 10
-287.9874909017499
 20
424.2488029284664
 30
0.0
 10
-287.2043047961703
 20
425.0084207508306
 30
0.0
 10
-286.4217536209732
 20
425.7686901302308
 30
0.0
 10
-285.6103697479739
 20
426.5569733446827
 30
0.0
 10
-284.7987936292806
 20
427.3450560001067
 30
0.0
 10
-283.988411512235
 20
428.1343742238195
 30
0.0
 10
-283.0631974036351
 20
429.035539954544
 30
0.0
 10
-282.1372839363673
 20
429.936022953257
 30
0.0
 10
-281.2152663021589
 20
430.8404516649906
 30
0.0
 10
-280.4249120300158
 20
431.6157297178697
 30
0.0
 10
-279.634826901851
 20
432.3914016146328
 30
0.0
 10
-278.8549432655851
 20
433.1771503033888
 30
0.0
 10
-278.6134764358821
 20
433.4204335951342
 30
0.0
 10
-278.3772698640999
 20
433.6718535560814
 30
0.0
 10
-278.2131315276594
 20
433.9834038142095
 30
0.0
 10
-277.9796829022441
 20
434.4265104003105
 30
0.0
 10
-277.9148244001015
 20
434.8942369055493
 30
0.0
 10
-277.9674290576382
 20
435.3830252257842
 30
0.0
 10
-277.9948640772658
 20
435.6380126433615
 30
0.0
 10
-278.0380528523435
 20
435.8913789620908
 30
0.0
 10
-278.0768469947149
 20
436.1450559914318
 30
0.0
 10
-278.1441672809393
 20
436.5852955187447
 30
0.0
 10
-278.0634105792846
 20
436.7485682299687
 30
0.0
 10
-277.6658859673853
 20
436.9630209022422
 30
0.0
 10
-277.0036972248033
 20
437.3202456203423
 30
0.0
 10
-276.3419449319101
 20
437.6782559478837
 30
0.0
 10
-275.6787139059019
 20
438.033557169849
 30
0.0
 10
-274.860584806875
 20
438.4718378693905
 30
0.0
 10
-274.0416960775544
 20
438.9086772457912
 30
0.0
 10
-273.2221100678964
 20
439.3442207822822
 30
0.0
 10
-272.6078632453393
 20
439.6706435831503
 30
0.0
 10
-271.9913437668987
 20
439.9927652762471
 30
0.0
 10
-271.3770293985569
 20
440.3190872780194
 30
0.0
 10
-270.5505900896139
 20
440.7580860412158
 30
0.0
 10
-269.7255027355423
 20
441.199633878431
 30
0.0
 10
-268.8994811713018
 20
441.6394161727345
 30
0.0
 10
-268.0520205748292
 20
442.0906137047422
 30
0.0
 10
-267.2035124991027
 20
442.5398492914812
 30
0.0
 10
-266.3569081753538
 20
442.9926346690272
 30
0.0
 10
-266.1667034008091
 20
443.0943606999141
 30
0.0
 10
-265.9908827610232
 20
443.2267649872902
 30
0.0
 10
-265.7939982279022
 20
443.3115027336096
 30
0.0
 10
-265.1093884412854
 20
443.6061530362699
 30
0.0
 10
-264.4764241620573
 20
443.9964429749874
 30
0.0
 10
-263.8244192455575
 20
444.3514480346674
 30
0.0
 10
-263.6842887595184
 20
444.4277467144985
 30
0.0
 10
-263.5521504986225
 20
444.5203176935726
 30
0.0
 10
-263.4078872496936
 20
444.5871630809682
 30
0.0
 10
-263.1267866315499
 20
444.7174059032149
 30
0.0
 10
-262.8395227202951
 20
444.8343359707742
 30
0.0
 10
-262.5552079619378
 20
444.9577067887467
 30
0.0
 10
-262.4659134730297
 20
444.996454168651
 30
0.0
 10
-262.3831917086071
 20
444.9836142344628
 30
0.0
 10
-262.3043325239355
 20
444.9317733638858
 30
0.0
 10
-261.8268669556326
 20
444.6178974524141
 30
0.0
 10
-261.2943027315729
 20
444.5456421672026
 30
0.0
 10
-260.738325060016
 20
444.5710986149107
 30
0.0
 10
-260.3852881806025
 20
444.5872732325554
 30
0.0
 10
-260.0328228424473
 20
444.5912168672496
 30
0.0
 10
-259.6833014613622
 20
444.5201420745295
 30
0.0
 10
-259.4477599557704
 20
444.4722489953038
 30
0.0
 10
-259.2436241228169
 20
444.3635335343941
 30
0.0
 10
-259.0753592584803
 20
444.1981783346524
 30
0.0
 10
-258.7993173000677
 20
443.9268915995204
 30
0.0
 10
-258.7229157428085
 20
443.5977981422208
 30
0.0
 10
-258.8286238575292
 20
443.2254400507315
 30
0.0
 10
-258.9509149821051
 20
442.7946787558356
 30
0.0
 10
-259.211577284806
 20
442.4459575325159
 30
0.0
 10
-259.5236346559042
 20
442.1444248339229
 30
0.0
 10
-259.8861954910368
 20
441.7940845900858
 30
0.0
 10
-260.2754254805067
 20
441.4704301272441
 30
0.0
 10
-260.6631985593503
 20
441.147330579014
 30
0.0
 10
-261.5749003934087
 20
440.3876878166646
 30
0.0
 10
-262.4993507150518
 20
439.6432044068564
 30
0.0
 10
-263.4060042810356
 20
438.8776487903902
 30
0.0
 10
-264.2826779100361
 20
438.137396864233
 30
0.0
 10
-265.128681595879
 20
437.362551104382
 30
0.0
 10
-265.9337899458477
 20
436.5438005841275
 30
0.0
 10
-266.6263088243309
 20
435.8395474440021
 30
0.0
 10
-267.2709367019174
 20
435.0935884185799
 30
0.0
 10
-267.8949870158271
 20
434.3287144949585
 30
0.0
 10
-268.686698438669
 20
433.3583496660096
 30
0.0
 10
-269.406048581378
 20
432.3352928895907
 30
0.0
 10
-270.114824171615
 20
431.3042719455093
 30
0.0
 10
-270.1330158103262
 20
431.2778210160144
 30
0.0
 10
-270.1522320666433
 20
431.2520122910599
 30
0.0
 10
-270.1690873379713
 20
431.2247404204846
 30
0.0
 10
-270.3397287747817
 20
430.9487400287071
 30
0.0
 10
-270.5587662471253
 20
430.8530515518506
 30
0.0
 10
-270.8980393738421
 20
430.9229728703905
 30
0.0
 10
-271.5765856272749
 20
431.062815507467
 30
0.0
 10
-272.2665533534071
 20
431.0884818666877
 30
0.0
 10
-272.9561875072782
 20
430.9804688819434
 30
0.0
 10
-273.8099070001253
 20
430.8467479713401
 30
0.0
 10
-274.5325648079782
 20
430.4604079023113
 30
0.0
 10
-275.1382166891553
 20
429.8487891303818
 30
0.0
 10
-276.4027901752444
 20
428.5717539665018
 30
0.0
 10
-277.6684963521917
 20
427.295843180153
 30
0.0
 10
-278.9309603314488
 20
426.0167234494251
 30
0.0
 10
-279.7481676903
 20
425.1887316265844
 30
0.0
 10
-280.5612724220723
 20
424.3566704299802
 30
0.0
 10
-281.3747460577507
 20
423.5250030772629
 30
0.0
 10
-282.3115094564579
 20
422.5672921718044
 30
0.0
 10
-283.2474145041101
 20
421.6087561686044
 30
0.0
 10
-284.1822647983479
 20
420.6491820386391
 30
0.0
 10
-284.9772101055534
 20
419.8332123264069
 30
0.0
 10
-285.7693631739134
 20
419.0145251952776
 30
0.0
 10
-286.5641318229105
 20
418.1983871381639
 30
0.0
 10
-287.4709204804636
 20
417.2672154913069
 30
0.0
 10
-288.3797105715938
 20
416.3380037113879
 30
0.0
 10
-289.2867486289721
 20
415.407064837698
 30
0.0
 10
-290.0816669178636
 20
414.5912011203927
 30
0.0
 10
-290.875524218343
 20
413.7743013546522
 30
0.0
 10
-291.6695301195488
 20
412.9575501896468
 30
0.0
 10
-292.4412438333008
 20
412.1637313383051
 30
0.0
 10
-293.2126956772353
 20
411.3696589304759
 30
0.0
 10
-293.9839947637821
 20
410.5754420785896
 30
0.0
 10
-294.7553052811518
 20
409.7812117175407
 30
0.0
 10
-295.5259995731261
 20
408.9863983844091
 30
0.0
 10
-296.2974794745425
 20
408.1923374074052
 30
0.0
 10
-297.0969077435567
 20
407.3695112783884
 30
0.0
 10
-297.8968961230022
 20
406.5472203198257
 30
0.0
 10
-298.696745254214
 20
405.7248067396831
 30
0.0
 10
-299.4853672367567
 20
404.9139362146523
 30
0.0
 10
-300.2744287864841
 20
404.1035052568068
 30
0.0
 10
-301.062729666754
 20
403.2923219428339
 30
0.0
 10
-301.8175558950313
 20
402.5155838618305
 30
0.0
 10
-302.5711340850306
 20
401.7376393091841
 30
0.0
 10
-303.326167107326
 20
400.9610997088677
 30
0.0
 10
-304.8360824728595
 20
399.4081774222985
 30
0.0
 10
-306.3475409997912
 20
397.8567484171664
 30
0.0
 10
-307.8565980142668
 20
396.3029927195205
 30
0.0
 10
-309.013090969827
 20
395.1122426200274
 30
0.0
 10
-310.166863388989
 20
393.9188509607446
 30
0.0
 10
-311.3219337263948
 20
392.7267198097355
 30
0.0
 10
-311.3551361169162
 20
392.6924512349722
 30
0.0
 10
-311.3893527333827
 20
392.6591636328429
 30
0.0
 10
-311.4296120997097
 20
392.6189042665147
 30
0.0
 10
-311.3609481719437
 20
392.347166533368
 30
0.0
 10
-311.4977574836801
 20
392.1395505337252
 30
0.0
 10
-311.6382807744384
 20
391.9306854566376
 30
0.0
 10
-311.9960053313478
 20
391.3989920536206
 30
0.0
 10
-312.3623622396084
 20
390.8725890443372
 30
0.0
 10
-312.7033364809493
 20
390.3302805613831
 30
0.0
 10
-313.1054718720627
 20
389.6907061476929
 30
0.0
 10
-313.1846022790433
 20
388.9784493516012
 30
0.0
 10
-313.0975056260701
 20
388.2434036467387
 30
0.0
 10
-313.0443065656218
 20
387.7944320081459
 30
0.0
 10
-312.9062887039133
 20
387.3670396891827
 30
0.0
 10
-312.7170004737186
 20
386.9564964065543
 30
0.0
 10
-312.4959615677996
 20
386.4770917546355
 30
0.0
 10
-312.1649020085656
 20
386.0920870138205
 30
0.0
 10
-311.7131287786354
 20
385.8192165898146
 30
0.0
 10
-310.7394303053981
 20
385.23110271198
 30
0.0
 10
-309.6856640975142
 20
384.9001553826656
 30
0.0
 10
-308.5444042752731
 20
384.8907176777195
 30
0.0
 10
-307.8876202346751
 20
384.8852869965897
 30
0.0
 10
-307.2585237310256
 20
385.0538667282004
 30
0.0
 10
-306.6429135227713
 20
385.2713724699672
 30
0.0
 10
-305.6226957476638
 20
385.6318279549308
 30
0.0
 10
-304.6935941193334
 20
386.1663624375882
 30
0.0
 10
-303.801678004519
 20
386.7696024146538
 30
0.0
 10
-303.4832796429355
 20
386.9849487696252
 30
0.0
 10
-303.1779311270603
 20
387.2195633392092
 30
0.0
 10
-302.8600066251399
 20
387.4356495803196
 30
0.0
 10
-302.7082696948695
 20
387.5387743285459
 30
0.0
 10
-302.5454323941681
 20
387.6282465148282
 30
0.0
 10
-302.3798267554377
 20
387.7076595749407
 30
0.0
 10
-302.1387942970931
 20
387.8232439226239
 30
0.0
 10
-301.8984601582492
 20
387.8015502947429
 30
0.0
 10
-301.6658012989387
 20
387.6699731834457
 30
0.0
 10
-301.2293474530965
 20
387.4231546492193
 30
0.0
 10
-301.0021421365703
 20
387.059660643085
 30
0.0
 10
-301.0169710343444
 20
386.5491288149991
 30
0.0
 10
-301.0382967974905
 20
385.8145902231089
 30
0.0
 10
-301.2778577968826
 20
385.1505673526633
 30
0.0
 10
-301.6638559803231
 20
384.5360025453342
 30
0.0
 10
-302.3722159041926
 20
383.4081978435103
 30
0.0
 10
-303.2968117090643
 20
382.4856388038544
 30
0.0
 10
-304.3529970952276
 20
381.6809939218928
 30
0.0
 10
-305.7124672137312
 20
380.6452946528059
 30
0.0
 10
-307.1905705927512
 20
379.8154105088167
 30
0.0
 10
-308.7366832250073
 20
379.1011460441544
 30
0.0
 10
-309.6748733985304
 20
378.6677244844858
 30
0.0
 10
-310.6240932792029
 20
378.2582307594446
 30
0.0
 10
-311.5659766484305
 20
377.8327172524778
 30
0.0
 10
-312.4318180118141
 20
377.441558571047
 30
0.0
 10
-313.2439615151027
 20
376.9588763897925
 30
0.0
 10
-313.9778350408025
 20
376.3538386556792
 30
0.0
 10
-314.5588950603261
 20
375.8747831635091
 30
0.0
 10
-315.0237493109418
 20
375.2941741419941
 30
0.0
 10
-315.4068752397624
 20
374.6463892783221
 30
0.0
 10
-315.8537997214821
 20
373.8907535397855
 30
0.0
 10
-316.1786575384646
 20
373.0806842116887
 30
0.0
 10
-316.478456908293
 20
372.2594978865029
 30
0.0
 10
-317.0584736052265
 20
370.6707628246037
 30
0.0
 10
-317.6302351680422
 20
369.078997554862
 30
0.0
 10
-318.2161002908125
 20
367.4924322714168
 30
0.0
 10
-318.5965794640153
 20
366.4620795110242
 30
0.0
 10
-319.0270664191081
 20
365.4519832120427
 30
0.0
 10
-319.5279298474121
 20
364.47362719712
 30
0.0
 10
-319.9416436252835
 20
363.665508383466
 30
0.0
 10
-320.4353492786842
 20
362.9087150140921
 30
0.0
 10
-320.9976710582216
 20
362.1950075423607
 30
0.0
 10
-321.4053846920312
 20
361.6775330467211
 30
0.0
 10
-321.8358425504751
 20
361.1810548986252
 30
0.0
 10
-322.3033238125535
 20
360.7178259035211
 30
0.0
 10
-323.423903193689
 20
359.6074428184564
 30
0.0
 10
-324.7199291148789
 20
358.7698137708159
 30
0.0
 10
-326.204161494535
 20
358.2270989739822
 30
0.0
 10
-326.8757920987263
 20
357.9815139297111
 30
0.0
 10
-327.5582715951913
 20
357.7773541959373
 30
0.0
 10
-328.2663478267617
 20
357.6675174749937
 30
0.0
 10
-329.3478504123913
 20
357.4997534886328
 30
0.0
 10
-330.4243618840766
 20
357.5436374657153
 30
0.0
 10
-331.494459104079
 20
357.7589261469813
 30
0.0
 10
-333.2584250791035
 20
358.1138111829935
 30
0.0
 10
-334.8687981735106
 20
358.8321133268659
 30
0.0
 10
-336.3288792978641
 20
359.8736828442653
 30
0.0
 10
-337.0132830698362
 20
360.3619113138645
 30
0.0
 10
-337.6597814460923
 20
360.9042312276442
 30
0.0
 10
-338.3135095594896
 20
361.4343043111874
 30
0.0
 10
-339.5112309036057
 20
362.4054718958121
 30
0.0
 10
-340.6343466289751
 20
363.4592092668427
 30
0.0
 10
-341.7199534004333
 20
364.5532363998038
 30
0.0
 10
-342.1550129453923
 20
364.9916706361083
 30
0.0
 10
-342.5992436492383
 20
365.4222160442827
 30
0.0
 10
-343.0135863822835
 20
365.8796441553982
 30
0.0
 10
-343.4061554716704
 20
366.313035319462
 30
0.0
 10
-343.7722206340989
 20
366.7712116300412
 30
0.0
 10
-344.1369873587008
 20
367.2288117231139
 30
0.0
 10
-344.596700335896
 20
367.8055212744879
 30
0.0
 10
-345.054579704813
 20
368.3843366956124
 30
0.0
 10
-345.4932942561279
 20
368.9770130314488
 30
0.0
 10
-346.610897206258
 20
370.4868247401799
 30
0.0
 10
-347.658236172884
 20
372.0405929078146
 30
0.0
 10
-348.4421278721274
 20
373.7576379433377
 30
0.0
 10
-349.1135220660714
 20
375.2282629647676
 30
0.0
 10
-349.5668545644748
 20
376.7559870363656
 30
0.0
 10
-349.7230204199275
 20
378.3702055642848
 30
0.0
 10
-349.9050316309305
 20
380.2515845592335
 30
0.0
 10
-349.6848851087513
 20
382.0706432148114
 30
0.0
 10
-348.8987241309158
 20
383.8009555415121
 30
0.0
 10
-348.3750045078482
 20
384.9536433312422
 30
0.0
 10
-347.7038595838311
 20
386.011159239472
 30
0.0
 10
-346.8285914267449
 20
386.9366014449947
 30
0.0
 10
-345.5391855120904
 20
388.2999221928434
 30
0.0
 10
-344.0089782236141
 20
389.2989803414584
 30
0.0
 10
-342.2745596327561
 20
389.9953059445203
 30
0.0
 10
-341.3077147185975
 20
390.3834689703776
 30
0.0
 10
-340.3427878449456
 20
390.7774115773278
 30
0.0
 10
-339.367085080427
 20
391.1422411714688
 30
0.0
 10
-338.1958422037059
 20
391.5801882987476
 30
0.0
 10
-337.0111681073824
 20
391.9820836425316
 30
0.0
 10
-335.8375367077799
 20
392.4137973330016
 30
0.0
 10
-334.2981828107133
 20
392.9800388464145
 30
0.0
 10
-332.8222263484967
 20
393.67941414168
 30
0.0
 10
-331.4532348721874
 20
394.5887856461438
 30
0.0
 10
-330.2436291069536
 20
395.3922812105931
 30
0.0
 10
-329.2374774818273
 20
396.4069914062911
 30
0.0
 10
-328.3979238988917
 20
397.5894635100126
 30
0.0
 10
-327.53291906408
 20
398.8077826815442
 30
0.0
 10
-326.7884689075793
 20
400.0946982350531
 30
0.0
 10
-326.1397207370925
 20
401.4417056366027
 30
0.0
 10
-325.4092089131668
 20
402.9584815755828
 30
0.0
 10
-324.5930656602263
 20
404.4303863298513
 30
0.0
 10
-323.6949532587843
 20
405.8555579738579
 30
0.0
 10
-322.9523694442876
 20
407.0339264113389
 30
0.0
 10
-322.1077774653576
 20
408.1296567372529
 30
0.0
 10
-321.0878392258831
 20
409.0846990646102
 30
0.0
 10
-320.1690113114843
 20
409.9450645431426
 30
0.0
 10
-319.1579317017437
 20
410.6769405321372
 30
0.0
 10
-318.0360549219487
 20
411.2467344342688
 30
0.0
 10
-317.1561240273518
 20
411.6936438480827
 30
0.0
 10
-316.2263479803332
 20
411.9441025805494
 30
0.0
 10
-315.2261642851238
 20
411.8330043121686
 30
0.0
 10
-314.9460171017171
 20
411.8018828514149
 30
0.0
 10
-314.681375832684
 20
411.7302188516174
 30
0.0
 10
-314.4268887735032
 20
411.5947952676461
 30
0.0
 10
-313.8232736575402
 20
411.2735672572438
 30
0.0
 10
-313.6111414427783
 20
410.3331044278349
 30
0.0
 10
-314.0033626713723
 20
409.8396902604761
 30
0.0
 10
-314.3373282581191
 20
409.4195622309261
 30
0.0
 10
-314.664735149119
 20
408.9934823785296
 30
0.0
 10
-315.0147818285799
 20
408.5870245767402
 30
0.0
 10
-316.2460858979443
 20
407.1572907345243
 30
0.0
 10
-316.9696410255738
 20
405.5103171770144
 30
0.0
 10
-317.1387024105901
 20
403.6301932347158
 30
0.0
 10
-317.2490046778712
 20
402.4035378741215
 30
0.0
 10
-316.9353729703952
 20
401.2757861697651
 30
0.0
 10
-316.2625400512247
 20
400.2489676126895
 30
0.0
 10
-316.0517982404733
 20
399.9273551108946
 30
0.0
 10
-315.7685891546657
 20
399.6815643117716
 30
0.0
 10
-315.3996343315873
 20
399.548217500902
 30
0.0
 10
-315.1491672857922
 20
399.4576947178693
 30
0.0
 10
-314.9021097434025
 20
399.4440629392456
 30
0.0
 10
-314.651163642117
 20
399.5567708756417
 30
0.0
 10
-314.2637449188553
 20
399.7307760925582
 30
0.0
 10
-313.8725467491182
 20
399.8963796529569
 30
0.0
 10
-313.4824937402298
 20
400.0644834465712
 30
0.0
 10
-313.4089852209124
 20
400.096163459012
 30
0.0
 10
-313.3346287421991
 20
400.1269622587433
 30
0.0
 10
-313.2583861773297
 20
400.1509451691611
 30
0.0
 10
-313.1378065590361
 20
400.1888674513243
 30
0.0
 10
-313.0203018327172
 20
400.1962122760938
 30
0.0
 10
-312.9145739738473
 20
400.0435224306678
 30
0.0
  0
ENDBLK
  5
44
330
41
100
AcDbEntity
  8
0
100
AcDbBlockEnd
  0
BLOCK
  5
48
330
46
100
AcDbEntity
  8
0
100
AcDbBlockBegin
  2
block 3
 70
     0
 10
0.0
 20
0.0
 30
0.0
  3
block 3
  1

  0
SPLINE
  5
4A
330
46
100
AcDbEntity
  8
_U+56FE_U+5C42 1
370
     0
100
AcDbSpline
210
0.0
220
0.0
230
1.0
 70
    11
 71
     3
 72
   182
 73
   178
 74
     0
 42
0.0000000001
 43
0.0000000001
 12
1.0
 22
0.0
 32
0.0
 13
1.0
 23
0.0
 33
0.0
 40
0.0
 40
0.0
 40
0.0
 40
0.0
 40
1.0
 40
1.0
 40
1.0
 40
2.0
 40
2.0
 40
2.0
 40
3.0
 40
3.0
 40
3.0
 40
4.0
 40
4.0
 40
4.0
 40
5.0
 40
5.0
 40
5.0
 40
6.0
 40
6.0
 40
6.0
 40
7.0
 40
7.0
 40
7.0
 40
8.0
 40
8.0
 40
8.0
 40
9.0
 40
9.0
 40
9.0
 40
10.0
 40
10.0
 40
10.0
 40
11.0
 40
11.0
 40
11.0
 40
12.0
 40
12.0
 40
12.0
 40
13.0
 40
13.0
 40
13.0
 40
14.0
 40
14.0
 40
14.0
 40
15.0
 40
15.0
 40
15.0
 40
16.0
 40
16.0
 40
16.0
 40
17.0
 40
17.0
 40
17.0
 40
18.0
 40
18.0
 40
18.0
 40
19.0
 40
19.0
 40
19.0
 40
20.0
 40
20.0
 40
20.0
 40
21.0
 40
21.0
 40
21.0
 40
22.0
 40
22.0
 40
22.0
 40
23.0
 40
23.0
 40
23.0
 40
24.0
 40
24.0
 40
24.0
 40
25.0
 40
25.0
 40
25.0
 40
26.0
 40
26.0
 40
26.0
 40
27.0
 40
27.0
 40
27.0
 40
28.0
 40
28.0
 40
28.0
 40
29.0
 40
29.0
 40
29.0
 40
30.0
 40
30.0
 40
30.0
 40
31.0
 40
31.0
 40
31.0
 40
32.0
 40
32.0
 40
32.0
 40
33.0
 40
33.0
 40
33.0
 40
34.0
 40
34.0
 40
34.0
 40
35.0
 40
35.0
 40
35.0
 40
36.0
 40
36.0
 40
36.0
 40
37.0
 40
37.0
 40
37.0
 40
38.0
 40
38.0
 40
38.0
 40
39.0
 40
39.0
 40
39.0
 40
40.0
 40
40.0
 40
40.0
 40
41.0
 40
41.0
 40
41.0
 40
42.0
 40
42.0
 40
42.0
 40
43.0
 40
43.0
 40
43.0
 40
44.0
 40
44.0
 40
44.0
 40
45.0
 40
45.0
 40
45.0
 40
46.0
 40
46.0
 40
46.0
 40
47.0
 40
47.0
 40
47.0
 40
48.0
 40
48.0
 40
48.0
 40
49.0
 40
49.0
 40
49.0
 40
50.0
 40
50.0
 40
50.0
 40
51.0
 40
51.0
 40
51.0
 40
52.0
 40
52.0
 40
52.0
 40
53.0
 40
53.0
 40
53.0
 40
54.0
 40
54.0
 40
54.0
 40
55.0
 40
55.0
 40
55.0
 40
56.0
 40
56.0
 40
56.0
 40
57.0
 40
57.0
 40
57.0
 40
58.0
 40
58.0
 40
58.0
 40
59.0
 40
59.0
 40
59.0
 40
59.0
 10
-319.3754956368035
 20
393.7910595309218
 30
0.0
 10
-319.2818522384932
 20
393.6974161326096
 30
0.0
 10
-319.2082190192633
 20
393.6252294323509
 30
0.0
 10
-319.1361590972484
 20
393.5515026881898
 30
0.0
 10
-318.0090890857371
 20
392.398407805209
 30
0.0
 10
-316.8857725415527
 20
391.2416134915339
 30
0.0
 10
-315.753080642375
 20
390.094069832936
 30
0.0
 10
-315.4272699102386
 20
389.763986050507
 30
0.0
 10
-315.0745717989168
 20
389.4604404875124
 30
0.0
 10
-314.7258744764119
 20
389.1370073670161
 30
0.0
 10
-314.6831845009799
 20
389.1670964164209
 30
0.0
 10
-314.6516915384082
 20
389.1882101897166
 30
0.0
 10
-314.6213530891799
 20
389.210860889421
 30
0.0
 10
-314.461963741025
 20
389.3298682496673
 30
0.0
 10
-314.3182502108705
 20
389.2897886590462
 30
0.0
 10
-314.2522174512314
 20
389.1014128165301
 30
0.0
 10
-314.2315079134787
 20
389.0423248027787
 30
0.0
 10
-314.2216327196771
 20
388.9754617495633
 30
0.0
 10
-314.2240747596051
 20
388.912831219166
 30
0.0
 10
-314.2628221395126
 20
387.9192254442722
 30
0.0
 10
-313.8824541570605
 20
387.0595816664733
 30
0.0
 10
-313.3406018679481
 20
386.2665962262085
 30
0.0
 10
-312.6322211607606
 20
385.2299014361681
 30
0.0
 10
-311.6885296428188
 20
384.4715139862614
 30
0.0
 10
-310.5354919139681
 20
383.9605727267988
 30
0.0
 10
-309.7618287249391
 20
383.6177435742824
 30
0.0
 10
-308.9603512207193
 20
383.4069404527409
 30
0.0
 10
-308.1211478366981
 20
383.3671383194184
 30
0.0
 10
-307.6997494268015
 20
383.347153080318
 30
0.0
 10
-307.2742567031563
 20
383.4096983991091
 30
0.0
 10
-306.8508194497084
 20
383.4379948872905
 30
0.0
 10
-306.6272054906267
 20
383.4529401716477
 30
0.0
 10
-306.4037598764202
 20
383.4926986599987
 30
0.0
 10
-306.180707066936
 20
383.4894045040134
 30
0.0
 10
-305.6479744979942
 20
383.4815463312773
 30
0.0
 10
-305.4012390970431
 20
383.0196287635698
 30
0.0
 10
-305.677761150114
 20
382.5631855219598
 30
0.0
 10
-305.8212242412798
 20
382.3263803906045
 30
0.0
 10
-306.0273178628401
 20
382.1462617605431
 30
0.0
 10
-306.2358930126353
 20
381.9699215377951
 30
0.0
 10
-306.5744137832226
 20
381.6837165366176
 30
0.0
 10
-306.9597385871432
 20
381.468860667965
 30
0.0
 10
-307.3370514217669
 20
381.2401651874997
 30
0.0
 10
-308.2861840124996
 20
380.6648787738612
 30
0.0
 10
-309.3056411181497
 20
380.2308378712992
 30
0.0
 10
-310.300844091075
 20
379.748301173275
 30
0.0
 10
-311.2335786434832
 20
379.2960561620139
 30
0.0
 10
-312.1220925290531
 20
378.7669523604904
 30
0.0
 10
-312.9854440508768
 20
378.1972275628896
 30
0.0
 10
-313.902206622995
 20
377.5922521787284
 30
0.0
 10
-314.6814771513618
 20
376.830144514803
 30
0.0
 10
-315.3951804664258
 20
375.9990570166711
 30
0.0
 10
-316.0144630870624
 20
375.2779278218995
 30
0.0
 10
-316.4225975830725
 20
374.434253946064
 30
0.0
 10
-316.8036763550162
 20
373.5750715579383
 30
0.0
 10
-317.0084668625061
 20
373.1133493534239
 30
0.0
 10
-317.2292397419484
 20
372.6572303315851
 30
0.0
 10
-317.4050624600677
 20
372.1845428482143
 30
0.0
 10
-317.6117193095621
 20
371.6289382372295
 30
0.0
 10
-317.7758077660371
 20
371.0575674008032
 30
0.0
 10
-317.9614630721542
 20
370.4940547371131
 30
0.0
 10
-318.1120257449306
 20
370.037054502572
 30
0.0
 10
-318.2665892065214
 20
369.5813698520916
 30
0.0
 10
-318.4205624218692
 20
369.1254981517426
 30
0.0
 10
-318.4898789458367
 20
368.9202795078935
 30
0.0
 10
-318.5686269397566
 20
368.7180287219284
 30
0.0
 10
-318.631768739789
 20
368.5109749110514
 30
0.0
 10
-318.8523202768877
 20
367.7877497186024
 30
0.0
 10
-319.141306086083
 20
367.0920094257461
 30
0.0
 10
-319.4729829098783
 20
366.4139619719598
 30
0.0
 10
-319.8041921090029
 20
365.7368684724925
 30
0.0
 10
-320.1268531292162
 20
365.054710078297
 30
0.0
 10
-320.4845142970037
 20
364.3916297313521
 30
0.0
 10
-321.1136513281237
 20
363.225243916168
 30
0.0
 10
-321.8957151345033
 20
362.1737784216465
 30
0.0
 10
-322.9166000541382
 20
361.3144422369656
 30
0.0
 10
-323.1759904177442
 20
361.0961030841254
 30
0.0
 10
-323.4660839778177
 20
360.9279909771826
 30
0.0
 10
-323.7762552627586
 20
360.7906703958101
 30
0.0
 10
-324.3967495508674
 20
360.5159689614435
 30
0.0
 10
-325.2334641324915
 20
360.7952437650522
 30
0.0
 10
-325.6231898041116
 20
361.3293116622121
 30
0.0
 10
-325.9918962665349
 20
361.8345769973784
 30
0.0
 10
-326.0835569362565
 20
362.3925031050494
 30
0.0
 10
-326.0521325586366
 20
362.9910543654507
 30
0.0
 10
-326.0028355662448
 20
363.9300727542217
 30
0.0
 10
-325.7991361829765
 20
364.8481696153898
 30
0.0
 10
-325.6700676182279
 20
365.7763318377213
 30
0.0
 10
-325.5281591192898
 20
366.7968218743015
 30
0.0
 10
-325.4819578021924
 20
367.8213605013322
 30
0.0
 10
-325.5319063516208
 20
368.8478964052745
 30
0.0
 10
-325.5685785171714
 20
369.6015348668959
 30
0.0
 10
-325.712977896835
 20
370.3421224436456
 30
0.0
 10
-325.8970599057401
 20
371.0749464117609
 30
0.0
 10
-326.0658931938356
 20
371.7470810114267
 30
0.0
 10
-326.3012559628874
 20
372.3924279918343
 30
0.0
 10
-326.6152596917674
 20
373.0098162129909
 30
0.0
 10
-326.7504052988554
 20
373.2755309404261
 30
0.0
 10
-326.9194235584857
 20
373.5168127985922
 30
0.0
 10
-327.1107412797365
 20
373.7453388950126
 30
0.0
 10
-327.3666597899826
 20
374.0510272181495
 30
0.0
 10
-327.5661900395523
 20
374.3841651092321
 30
0.0
 10
-327.5710938635586
 20
374.8020438641386
 30
0.0
 10
-327.5752754672484
 20
375.1586191035298
 30
0.0
 10
-327.7273677922669
 20
375.4445913315404
 30
0.0
 10
-327.9787046199427
 20
375.6949908315489
 30
0.0
 10
-329.6273236966963
 20
377.3374684376759
 30
0.0
 10
-331.2726070508237
 20
378.9833004714132
 30
0.0
 10
-332.9159398905067
 20
380.6310705496044
 30
0.0
 10
-333.1657782409172
 20
380.881582279534
 30
0.0
 10
-333.4510885202297
 20
381.0310590239167
 30
0.0
 10
-333.8098595172284
 20
381.0368253556433
 30
0.0
 10
-334.01600925375
 20
381.0401382166153
 30
0.0
 10
-334.169931549964
 20
381.1437669603164
 30
0.0
 10
-334.2930820647611
 20
381.3088665252403
 30
0.0
 10
-334.5970360199644
 20
381.716350503377
 30
0.0
 10
-334.7569563819092
 20
382.1852398352877
 30
0.0
 10
-334.8828482164201
 20
382.668390680374
 30
0.0
 10
-334.927229953981
 20
382.8387276415646
 30
0.0
 10
-334.9603076445908
 20
383.0129801799707
 30
0.0
 10
-334.9847218088706
 20
383.1873813191016
 30
0.0
 10
-335.0996109545508
 20
384.0080865104632
 30
0.0
 10
-334.8889886478805
 20
384.7637638156306
 30
0.0
 10
-334.496657787283
 20
385.4742332463304
 30
0.0
 10
-334.1647045453535
 20
386.0753637165628
 30
0.0
 10
-333.7105391554594
 20
386.5779459253085
 30
0.0
 10
-333.2216822502692
 20
387.0601854218803
 30
0.0
 10
-332.5315544925853
 20
387.7409669212203
 30
0.0
 10
-331.7005688327138
 20
388.2078246837426
 30
0.0
 10
-330.8776096904585
 20
388.6869861708358
 30
0.0
 10
-330.282326606896
 20
389.0335822998363
 30
0.0
 10
-329.6576714984158
 20
389.3293206092246
 30
0.0
 10
-329.0518419198631
 20
389.6582956016086
 30
0.0
 10
-328.057494180499
 20
390.1982389429152
 30
0.0
 10
-327.1060016439458
 20
390.8080558011297
 30
0.0
 10
-326.1874579414297
 20
391.4677017046895
 30
0.0
 10
-325.6018837851183
 20
391.8882272152095
 30
0.0
 10
-325.0101785498398
 20
392.304388228833
 30
0.0
 10
-324.4591816005728
 20
392.7676587905783
 30
0.0
 10
-323.9573153771471
 20
393.189619389241
 30
0.0
 10
-323.4446698855657
 20
393.606337395806
 30
0.0
 10
-323.0144063511506
 20
394.1081890709044
 30
0.0
 10
-322.3928105471601
 20
394.8332026679124
 30
0.0
 10
-321.807792344619
 20
395.5869211453121
 30
0.0
 10
-321.3026808060064
 20
396.3976056596415
 30
0.0
 10
-320.9341322968035
 20
396.9891176100575
 30
0.0
 10
-320.5971183168124
 20
397.6002427781705
 30
0.0
 10
-320.243574324426
 20
398.2011685327183
 30
0.0
 10
-320.1828995043023
 20
398.304295359275
 30
0.0
 10
-320.1196340435247
 20
398.408913388935
 30
0.0
 10
-320.0403176258437
 20
398.4973807017652
 30
0.0
 10
-319.9007659552255
 20
398.6530311309175
 30
0.0
 10
-319.7631897390365
 20
398.681230976671
 30
0.0
 10
-319.5909417517048
 20
398.5659251254497
 30
0.0
 10
-319.4538955101374
 20
398.4741782049573
 30
0.0
 10
-319.3308208544522
 20
398.3534395942755
 30
0.0
 10
-319.2233742151375
 20
398.2270177851402
 30
0.0
 10
-318.7775689151226
 20
397.7024728045357
 30
0.0
 10
-318.2563606963056
 20
397.2891591055471
 30
0.0
 10
-317.5843892456925
 20
397.0984253955451
 30
0.0
 10
-317.4086995408109
 20
397.0485579010585
 30
0.0
 10
-317.2234370394123
 20
397.030484727264
 30
0.0
 10
-317.0415653364355
 20
397.0049991829136
 30
0.0
 10
-316.9147559184097
 20
396.9872273672355
 30
0.0
 10
-316.784652344398
 20
396.990702338095
 30
0.0
 10
-316.6588415648291
 20
396.9686044746643
 30
0.0
 10
-316.4758849726236
 20
396.9364682683851
 30
0.0
 10
-316.4233083725673
 20
396.8030819692115
 30
0.0
 10
-316.5362958446028
 20
396.6517721361345
 30
0.0
 10
-316.6126194644145
 20
396.5495628930898
 30
0.0
 10
-316.7064083459538
 20
396.4597062154156
 30
0.0
 10
-316.7970319280803
 20
396.3689662467056
 30
0.0
 10
-317.5852621450697
 20
395.5797301171016
 30
0.0
 10
-318.3745429588076
 20
394.791544584248
 30
0.0
 10
-319.1635078661056
 20
394.0030431449516
 30
0.0
 10
-319.2254972311267
 20
393.9410891115751
 30
0.0
 10
-319.2874512645041
 20
393.8791039032157
 30
0.0
 10
-319.3754956368035
 20
393.7910595309218
 30
0.0
  0
HATCH
  5
4B
330
46
100
AcDbEntity
  8
_U+56FE_U+5C42 1
 62
     7
100
AcDbHatch
 10
0.0
 20
0.0
 30
0.0
210
0.0
220
0.0
230
1.0
  2
SOLID
 70
     1
 71
     0
 91
        1
 92
        1
 93
        1
 72
     4
 94
        3
 73
     0
 74
     1
 95
      182
 96
      178
 40
0.0
 40
0.0
 40
0.0
 40
0.0
 40
1.0
 40
1.0
 40
1.0
 40
2.0
 40
2.0
 40
2.0
 40
3.0
 40
3.0
 40
3.0
 40
4.0
 40
4.0
 40
4.0
 40
5.0
 40
5.0
 40
5.0
 40
6.0
 40
6.0
 40
6.0
 40
7.0
 40
7.0
 40
7.0
 40
8.0
 40
8.0
 40
8.0
 40
9.0
 40
9.0
 40
9.0
 40
10.0
 40
10.0
 40
10.0
 40
11.0
 40
11.0
 40
11.0
 40
12.0
 40
12.0
 40
12.0
 40
13.0
 40
13.0
 40
13.0
 40
14.0
 40
14.0
 40
14.0
 40
15.0
 40
15.0
 40
15.0
 40
16.0
 40
16.0
 40
16.0
 40
17.0
 40
17.0
 40
17.0
 40
18.0
 40
18.0
 40
18.0
 40
19.0
 40
19.0
 40
19.0
 40
20.0
 40
20.0
 40
20.0
 40
21.0
 40
21.0
 40
21.0
 40
22.0
 40
22.0
 40
22.0
 40
23.0
 40
23.0
 40
23.0
 40
24.0
 40
24.0
 40
24.0
 40
25.0
 40
25.0
 40
25.0
 40
26.0
 40
26.0
 40
26.0
 40
27.0
 40
27.0
 40
27.0
 40
28.0
 40
28.0
 40
28.0
 40
29.0
 40
29.0
 40
29.0
 40
30.0
 40
30.0
 40
30.0
 40
31.0
 40
31.0
 40
31.0
 40
32.0
 40
32.0
 40
32.0
 40
33.0
 40
33.0
 40
33.0
 40
34.0
 40
34.0
 40
34.0
 40
35.0
 40
35.0
 40
35.0
 40
36.0
 40
36.0
 40
36.0
 40
37.0
 40
37.0
 40
37.0
 40
38.0
 40
38.0
 40
38.0
 40
39.0
 40
39.0
 40
39.0
 40
40.0
 40
40.0
 40
40.0
 40
41.0
 40
41.0
 40
41.0
 40
42.0
 40
42.0
 40
42.0
 40
43.0
 40
43.0
 40
43.0
 40
44.0
 40
44.0
 40
44.0
 40
45.0
 40
45.0
 40
45.0
 40
46.0
 40
46.0
 40
46.0
 40
47.0
 40
47.0
 40
47.0
 40
48.0
 40
48.0
 40
48.0
 40
49.0
 40
49.0
 40
49.0
 40
50.0
 40
50.0
 40
50.0
 40
51.0
 40
51.0
 40
51.0
 40
52.0
 40
52.0
 40
52.0
 40
53.0
 40
53.0
 40
53.0
 40
54.0
 40
54.0
 40
54.0
 40
55.0
 40
55.0
 40
55.0
 40
56.0
 40
56.0
 40
56.0
 40
57.0
 40
57.0
 40
57.0
 40
58.0
 40
58.0
 40
58.0
 40
59.0
 40
59.0
 40
59.0
 40
59.0
 10
-319.3754956368035
 20
393.7910595309218
 10
-319.2818522384932
 20
393.6974161326096
 10
-319.2082190192633
 20
393.6252294323509
 10
-319.1361590972484
 20
393.5515026881898
 10
-318.0090890857371
 20
392.398407805209
 10
-316.8857725415527
 20
391.2416134915339
 10
-315.753080642375
 20
390.094069832936
 10
-315.4272699102386
 20
389.763986050507
 10
-315.0745717989168
 20
389.4604404875124
 10
-314.7258744764119
 20
389.1370073670161
 10
-314.6831845009799
 20
389.1670964164209
 10
-314.6516915384082
 20
389.1882101897166
 10
-314.6213530891799
 20
389.210860889421
 10
-314.461963741025
 20
389.3298682496673
 10
-314.3182502108705
 20
389.2897886590462
 10
-314.2522174512314
 20
389.1014128165301
 10
-314.2315079134787
 20
389.0423248027787
 10
-314.2216327196771
 20
388.9754617495633
 10
-314.2240747596051
 20
388.912831219166
 10
-314.2628221395126
 20
387.9192254442722
 10
-313.8824541570605
 20
387.0595816664733
 10
-313.3406018679481
 20
386.2665962262085
 10
-312.6322211607606
 20
385.2299014361681
 10
-311.6885296428188
 20
384.4715139862614
 10
-310.5354919139681
 20
383.9605727267988
 10
-309.7618287249391
 20
383.6177435742824
 10
-308.9603512207193
 20
383.4069404527409
 10
-308.1211478366981
 20
383.3671383194184
 10
-307.6997494268015
 20
383.347153080318
 10
-307.2742567031563
 20
383.4096983991091
 10
-306.8508194497084
 20
383.4379948872905
 10
-306.6272054906267
 20
383.4529401716477
 10
-306.4037598764202
 20
383.4926986599987
 10
-306.180707066936
 20
383.4894045040134
 10
-305.6479744979942
 20
383.4815463312773
 10
-305.4012390970431
 20
383.0196287635698
 10
-305.677761150114
 20
382.5631855219598
 10
-305.8212242412798
 20
382.3263803906045
 10
-306.0273178628401
 20
382.1462617605431
 10
-306.2358930126353
 20
381.9699215377951
 10
-306.5744137832226
 20
381.6837165366176
 10
-306.9597385871432
 20
381.468860667965
 10
-307.3370514217669
 20
381.2401651874997
 10
-308.2861840124996
 20
380.6648787738612
 10
-309.3056411181497
 20
380.2308378712992
 10
-310.300844091075
 20
379.748301173275
 10
-311.2335786434832
 20
379.2960561620139
 10
-312.1220925290531
 20
378.7669523604904
 10
-312.9854440508768
 20
378.1972275628896
 10
-313.902206622995
 20
377.5922521787284
 10
-314.6814771513618
 20
376.830144514803
 10
-315.3951804664258
 20
375.9990570166711
 10
-316.0144630870624
 20
375.2779278218995
 10
-316.4225975830725
 20
374.434253946064
 10
-316.8036763550162
 20
373.5750715579383
 10
-317.0084668625061
 20
373.1133493534239
 10
-317.2292397419484
 20
372.6572303315851
 10
-317.4050624600677
 20
372.1845428482143
 10
-317.6117193095621
 20
371.6289382372295
 10
-317.7758077660371
 20
371.0575674008032
 10
-317.9614630721542
 20
370.4940547371131
 10
-318.1120257449306
 20
370.037054502572
 10
-318.2665892065214
 20
369.5813698520916
 10
-318.4205624218692
 20
369.1254981517426
 10
-318.4898789458367
 20
368.9202795078935
 10
-318.5686269397566
 20
368.7180287219284
 10
-318.631768739789
 20
368.5109749110514
 10
-318.8523202768877
 20
367.7877497186024
 10
-319.141306086083
 20
367.0920094257461
 10
-319.4729829098783
 20
366.4139619719598
 10
-319.8041921090029
 20
365.7368684724925
 10
-320.1268531292162
 20
365.054710078297
 10
-320.4845142970037
 20
364.3916297313521
 10
-321.1136513281237
 20
363.225243916168
 10
-321.8957151345033
 20
362.1737784216465
 10
-322.9166000541382
 20
361.3144422369656
 10
-323.1759904177442
 20
361.0961030841254
 10
-323.4660839778177
 20
360.9279909771826
 10
-323.7762552627586
 20
360.7906703958101
 10
-324.3967495508674
 20
360.5159689614435
 10
-325.2334641324915
 20
360.7952437650522
 10
-325.6231898041116
 20
361.3293116622121
 10
-325.9918962665349
 20
361.8345769973784
 10
-326.0835569362565
 20
362.3925031050494
 10
-326.0521325586366
 20
362.9910543654507
 10
-326.0028355662448
 20
363.9300727542217
 10
-325.7991361829765
 20
364.8481696153898
 10
-325.6700676182279
 20
365.7763318377213
 10
-325.5281591192898
 20
366.7968218743015
 10
-325.4819578021924
 20
367.8213605013322
 10
-325.5319063516208
 20
368.8478964052745
 10
-325.5685785171714
 20
369.6015348668959
 10
-325.712977896835
 20
370.3421224436456
 10
-325.8970599057401
 20
371.0749464117609
 10
-326.0658931938356
 20
371.7470810114267
 10
-326.3012559628874
 20
372.3924279918343
 10
-326.6152596917674
 20
373.0098162129909
 10
-326.7504052988554
 20
373.2755309404261
 10
-326.9194235584857
 20
373.5168127985922
 10
-327.1107412797365
 20
373.7453388950126
 10
-327.3666597899826
 20
374.0510272181495
 10
-327.5661900395523
 20
374.3841651092321
 10
-327.5710938635586
 20
374.8020438641386
 10
-327.5752754672484
 20
375.1586191035298
 10
-327.7273677922669
 20
375.4445913315404
 10
-327.9787046199427
 20
375.6949908315489
 10
-329.6273236966963
 20
377.3374684376759
 10
-331.2726070508237
 20
378.9833004714132
 10
-332.9159398905067
 20
380.6310705496044
 10
-333.1657782409172
 20
380.881582279534
 10
-333.4510885202297
 20
381.0310590239167
 10
-333.8098595172284
 20
381.0368253556433
 10
-334.01600925375
 20
381.0401382166153
 10
-334.169931549964
 20
381.1437669603164
 10
-334.2930820647611
 20
381.3088665252403
 10
-334.5970360199644
 20
381.716350503377
 10
-334.7569563819092
 20
382.1852398352877
 10
-334.8828482164201
 20
382.668390680374
 10
-334.927229953981
 20
382.8387276415646
 10
-334.9603076445908
 20
383.0129801799707
 10
-334.9847218088706
 20
383.1873813191016
 10
-335.0996109545508
 20
384.0080865104632
 10
-334.8889886478805
 20
384.7637638156306
 10
-334.496657787283
 20
385.4742332463304
 10
-334.1647045453535
 20
386.0753637165628
 10
-333.7105391554594
 20
386.5779459253085
 10
-333.2216822502692
 20
387.0601854218803
 10
-332.5315544925853
 20
387.7409669212203
 10
-331.7005688327138
 20
388.2078246837426
 10
-330.8776096904585
 20
388.6869861708358
 10
-330.282326606896
 20
389.0335822998363
 10
-329.6576714984158
 20
389.3293206092246
 10
-329.0518419198631
 20
389.6582956016086
 10
-328.057494180499
 20
390.1982389429152
 10
-327.1060016439458
 20
390.8080558011297
 10
-326.1874579414297
 20
391.4677017046895
 10
-325.6018837851183
 20
391.8882272152095
 10
-325.0101785498398
 20
392.304388228833
 10
-324.4591816005728
 20
392.7676587905783
 10
-323.9573153771471
 20
393.189619389241
 10
-323.4446698855657
 20
393.606337395806
 10
-323.0144063511506
 20
394.1081890709044
 10
-322.3928105471601
 20
394.8332026679124
 10
-321.807792344619
 20
395.5869211453121
 10
-321.3026808060064
 20
396.3976056596415
 10
-320.9341322968035
 20
396.9891176100575
 10
-320.5971183168124
 20
397.6002427781705
 10
-320.243574324426
 20
398.2011685327183
 10
-320.1828995043023
 20
398.304295359275
 10
-320.1196340435247
 20
398.408913388935
 10
-320.0403176258437
 20
398.4973807017652
 10
-319.9007659552255
 20
398.6530311309175
 10
-319.7631897390365
 20
398.681230976671
 10
-319.5909417517048
 20
398.5659251254497
 10
-319.4538955101374
 20
398.4741782049573
 10
-319.3308208544522
 20
398.3534395942755
 10
-319.2233742151375
 20
398.2270177851402
 10
-318.7775689151226
 20
397.7024728045357
 10
-318.2563606963056
 20
397.2891591055471
 10
-317.5843892456925
 20
397.0984253955451
 10
-317.4086995408109
 20
397.0485579010585
 10
-317.2234370394123
 20
397.030484727264
 10
-317.0415653364355
 20
397.0049991829136
 10
-316.9147559184097
 20
396.9872273672355
 10
-316.784652344398
 20
396.990702338095
 10
-316.6588415648291
 20
396.9686044746643
 10
-316.4758849726236
 20
396.9364682683851
 10
-316.4233083725673
 20
396.8030819692115
 10
-316.5362958446028
 20
396.6517721361345
 10
-316.6126194644145
 20
396.5495628930898
 10
-316.7064083459538
 20
396.4597062154156
 10
-316.7970319280803
 20
396.3689662467056
 10
-317.5852621450697
 20
395.5797301171016
 10
-318.3745429588076
 20
394.791544584248
 10
-319.1635078661056
 20
394.0030431449516
 10
-319.2254972311267
 20
393.9410891115751
 10
-319.2874512645041
 20
393.8791039032157
 10
-319.3754956368035
 20
393.7910595309218
 97
        0
 75
     2
 76
     1
 98
        0
  0
ENDBLK
  5
49
330
46
100
AcDbEntity
  8
0
100
AcDbBlockEnd
  0
ENDSEC
  0
SECTION
  2
ENTITIES
  0
INSERT
  5
42
330
1F
100
AcDbEntity
  8
_U+56FE_U+5C42 1
100
AcDbBlockReference
  2
block 2
 10
0.0
 20
0.0
 30
0.0
  0
INSERT
  5
47
330
1F
100
AcDbEntity
  8
_U+56FE_U+5C42 1
100
AcDbBlockReference
  2
block 3
 10
0.0
 20
0.0
 30
0.0
  0
ENDSEC
  0
SECTION
  2
OBJECTS
  0
DICTIONARY
  5
C
330
0
100
AcDbDictionary
281
     1
  3
ACAD_GROUP
350
D
  3
ACAD_LAYOUT
350
1A
  3
ACAD_MATERIAL
350
3B
  3
ACAD_MLEADERSTYLE
350
73
  3
ACAD_MLINESTYLE
350
17
  3
ACAD_PLOTSETTINGS
350
19
  3
ACAD_PLOTSTYLENAME
350
E
  3
ACAD_TABLESTYLE
350
72
  3
ACAD_VISUALSTYLE
350
2A
  0
DICTIONARY
  5
D
102
{ACAD_REACTORS
330
C
102
}
330
C
100
AcDbDictionary
281
     1
  0
DICTIONARY
  5
1A
102
{ACAD_REACTORS
330
C
102
}
330
C
100
AcDbDictionary
281
     1
  3
Layout1
350
1E
  3
Layout2
350
26
  3
Model
350
22
  0
DICTIONARY
  5
3B
102
{ACAD_REACTORS
330
C
102
}
330
C
100
AcDbDictionary
281
     1
  3
ByBlock
350
3D
  3
ByLayer
350
3C
  3
Global
350
3E
  0
DICTIONARY
  5
73
102
{ACAD_REACTORS
330
C
102
}
330
C
100
AcDbDictionary
281
     1
  0
DICTIONARY
  5
17
102
{ACAD_REACTORS
330
C
102
}
330
C
100
AcDbDictionary
281
     1
  3
Standard
350
18
  0
DICTIONARY
  5
19
102
{ACAD_REACTORS
330
C
102
}
330
C
100
AcDbDictionary
281
     1
  0
ACDBDICTIONARYWDFLT
  5
E
102
{ACAD_REACTORS
330
C
102
}
330
C
100
AcDbDictionary
281
     1
  3
Normal
350
F
100
AcDbDictionaryWithDefault
340
F
  0
DICTIONARY
  5
72
102
{ACAD_REACTORS
330
C
102
}
330
C
100
AcDbDictionary
281
     1
  0
DICTIONARY
  5
2A
102
{ACAD_REACTORS
330
C
102
}
330
C
100
AcDbDictionary
281
     1
  3
2dWireframe
350
2F
  3
3D Hidden
350
31
  3
3dWireframe
350
30
  3
Basic
350
32
  3
Brighten
350
36
  3
ColorChange
350
3A
  3
Conceptual
350
34
  3
Dim
350
35
  3
Facepattern
350
39
  3
Flat
350
2B
  3
FlatWithEdges
350
2C
  3
Gouraud
350
2D
  3
GouraudWithEdges
350
2E
  3
Linepattern
350
38
  3
Realistic
350
33
  3
Thicken
350
37
  0
LAYOUT
  5
1E
102
{ACAD_REACTORS
330
1A
102
}
330
1A
100
AcDbPlotSettings
  1

  2
none_device
  4

  6

 40
0.0
 41
0.0
 42
0.0
 43
0.0
 44
0.0
 45
0.0
 46
0.0
 47
0.0
 48
0.0
 49
0.0
140
0.0
141
0.0
142
1.0
143
1.0
 70
   688
 72
     0
 73
     0
 74
     5
  7

 75
    16
 76
     0
 77
     2
 78
   300
147
1.0
148
0.0
149
0.0
100
AcDbLayout
  1
Layout1
 70
     1
 71
     1
 10
0.0
 20
0.0
 11
12.0
 21
9.0
 12
0.0
 22
0.0
 32
0.0
 14
1.000000000000000E+20
 24
1.000000000000000E+20
 34
1.000000000000000E+20
 15
-1.000000000000000E+20
 25
-1.000000000000000E+20
 35
-1.000000000000000E+20
146
0.0
 13
0.0
 23
0.0
 33
0.0
 16
1.0
 26
0.0
 36
0.0
 17
0.0
 27
1.0
 37
0.0
 76
     0
330
1B
  0
LAYOUT
  5
26
102
{ACAD_REACTORS
330
1A
102
}
330
1A
100
AcDbPlotSettings
  1

  2
none_device
  4

  6

 40
0.0
 41
0.0
 42
0.0
 43
0.0
 44
0.0
 45
0.0
 46
0.0
 47
0.0
 48
0.0
 49
0.0
140
0.0
141
0.0
142
1.0
143
1.0
 70
   688
 72
     0
 73
     0
 74
     5
  7

 75
    16
 76
     0
 77
     2
 78
   300
147
1.0
148
0.0
149
0.0
100
AcDbLayout
  1
Layout2
 70
     1
 71
     2
 10
0.0
 20
0.0
 11
0.0
 21
0.0
 12
0.0
 22
0.0
 32
0.0
 14
0.0
 24
0.0
 34
0.0
 15
0.0
 25
0.0
 35
0.0
146
0.0
 13
0.0
 23
0.0
 33
0.0
 16
1.0
 26
0.0
 36
0.0
 17
0.0
 27
1.0
 37
0.0
 76
     0
330
23
  0
LAYOUT
  5
22
102
{ACAD_REACTORS
330
1A
102
}
330
1A
100
AcDbPlotSettings
  1

  2
none_device
  4

  6

 40
0.0
 41
0.0
 42
0.0
 43
0.0
 44
0.0
 45
0.0
 46
0.0
 47
0.0
 48
0.0
 49
0.0
140
0.0
141
0.0
142
1.0
143
1.0
 70
  1712
 72
     0
 73
     0
 74
     0
  7

 75
     0
 76
     0
 77
     2
 78
   300
147
1.0
148
0.0
149
0.0
100
AcDbLayout
  1
Model
 70
     1
 71
     0
 10
0.0
 20
0.0
 11
12.0
 21
9.0
 12
0.0
 22
0.0
 32
0.0
 14
1.000000000000000E+20
 24
1.000000000000000E+20
 34
1.000000000000000E+20
 15
-1.000000000000000E+20
 25
-1.000000000000000E+20
 35
-1.000000000000000E+20
146
0.0
 13
0.0
 23
0.0
 33
0.0
 16
1.0
 26
0.0
 36
0.0
 17
0.0
 27
1.0
 37
0.0
 76
     0
330
1F
331
29
  0
MATERIAL
  5
3D
102
{ACAD_REACTORS
330
3B
102
}
102
{ACAD_XDICTIONARY
360
6E
102
}
330
3B
100
AcDbMaterial
  1
ByBlock
  0
MATERIAL
  5
3C
102
{ACAD_REACTORS
330
3B
102
}
102
{ACAD_XDICTIONARY
360
6C
102
}
330
3B
100
AcDbMaterial
  1
ByLayer
  0
MATERIAL
  5
3E
102
{ACAD_REACTORS
330
3B
102
}
102
{ACAD_XDICTIONARY
360
70
102
}
330
3B
100
AcDbMaterial
  1
Global
  0
MLINESTYLE
  5
18
102
{ACAD_REACTORS
330
17
102
}
330
17
100
AcDbMlineStyle
  2
Standard
 70
     0
  3

 62
   256
 51
90.0
 52
90.0
 71
     2
 49
0.5
 62
   256
  6
BYLAYER
 49
-0.5
 62
   256
  6
BYLAYER
  0
ACDBPLACEHOLDER
  5
F
102
{ACAD_REACTORS
330
E
102
}
330
E
  0
VISUALSTYLE
  5
2F
102
{ACAD_REACTORS
330
2A
102
}
102
{ACAD_XDICTIONARY
360
54
102
}
330
2A
100
AcDbVisualStyle
  2
2dWireframe
 70
     4
 71
     0
 72
     2
 73
     0
 90
        0
 40
-0.6
 41
-30.0
 62
     5
 63
     7
421
 16777215
 74
     1
 91
        4
 64
     7
 65
   257
 75
     1
175
     1
 42
1.0
 92
        0
 66
   257
 43
1.0
 76
     1
 77
     6
 78
     2
 67
     7
 79
     5
170
     0
171
     0
290
     0
174
     0
 93
        1
 44
0.0
173
     0
291
     0
 45
0.0
1001
ACAD
1000
AcDbSavedByObjectVersion
1070
     0
  0
VISUALSTYLE
  5
31
102
{ACAD_REACTORS
330
2A
102
}
102
{ACAD_XDICTIONARY
360
58
102
}
330
2A
100
AcDbVisualStyle
  2
3D Hidden
 70
     6
 71
     1
 72
     2
 73
     2
 90
        0
 40
-0.6
 41
-30.0
 62
     5
 63
     7
421
 16777215
 74
     2
 91
        2
 64
     7
 65
   257
 75
     2
175
     1
 42
40.0
 92
        0
 66
   257
 43
1.0
 76
     1
 77
     6
 78
     2
 67
     7
 79
     3
170
     0
171
     0
290
     0
174
     0
 93
        1
 44
0.0
173
     0
291
     0
 45
0.0
1001
ACAD
1000
AcDbSavedByObjectVersion
1070
     0
  0
VISUALSTYLE
  5
30
102
{ACAD_REACTORS
330
2A
102
}
102
{ACAD_XDICTIONARY
360
56
102
}
330
2A
100
AcDbVisualStyle
  2
3dWireframe
 70
     5
 71
     0
 72
     2
 73
     0
 90
        0
 40
-0.6
 41
-30.0
 62
     5
 63
     7
421
 16777215
 74
     1
 91
        4
 64
     7
 65
   257
 75
     1
175
     1
 42
1.0
 92
        0
 66
   257
 43
1.0
 76
     1
 77
     6
 78
     2
 67
     7
 79
     5
170
     0
171
     0
290
     0
174
     0
 93
        1
 44
0.0
173
     0
291
     0
 45
0.0
1001
ACAD
1000
AcDbSavedByObjectVersion
1070
     0
  0
VISUALSTYLE
  5
32
102
{ACAD_REACTORS
330
2A
102
}
102
{ACAD_XDICTIONARY
360
5A
102
}
330
2A
100
AcDbVisualStyle
  2
Basic
 70
     7
 71
     1
 72
     0
 73
     1
 90
        0
 40
-0.6
 41
-30.0
 62
     5
 63
     7
421
 16777215
 74
     0
 91
        4
 64
     7
 65
   257
 75
     1
175
     1
 42
1.0
 92
        8
 66
     7
 43
1.0
 76
     1
 77
     6
 78
     2
 67
     7
 79
     5
170
     0
171
     0
290
     0
174
     0
 93
        1
 44
0.0
173
     0
291
     1
 45
0.0
1001
ACAD
1000
AcDbSavedByObjectVersion
1070
     0
  0
VISUALSTYLE
  5
36
102
{ACAD_REACTORS
330
2A
102
}
102
{ACAD_XDICTIONARY
360
62
102
}
330
2A
100
AcDbVisualStyle
  2
Brighten
 70
    12
 71
     2
 72
     2
 73
     0
 90
        0
 40
-0.6
 41
-30.0
 62
     5
 63
     7
421
 16777215
 74
     1
 91
        4
 64
     7
 65
   257
 75
     1
175
     1
 42
1.0
 92
        8
 66
     7
 43
1.0
 76
     1
 77
     6
 78
     2
 67
     7
 79
     5
170
     0
171
     0
290
     0
174
     0
 93
        1
 44
50.0
173
     0
291
     1
 45
0.0
1001
ACAD
1000
AcDbSavedByObjectVersion
1070
     0
  0
VISUALSTYLE
  5
3A
102
{ACAD_REACTORS
330
2A
102
}
102
{ACAD_XDICTIONARY
360
6A
102
}
330
2A
100
AcDbVisualStyle
  2
ColorChange
 70
    16
 71
     2
 72
     2
 73
     3
 90
        0
 40
-0.6
 41
-30.0
 62
     5
 63
     8
421
  8421504
 74
     1
 91
        4
 64
     7
 65
   257
 75
     1
175
     1
 42
1.0
 92
        8
 66
     8
424
  8421504
 43
1.0
 76
     1
 77
     6
 78
     2
 67
     7
 79
     5
170
     0
171
     0
290
     0
174
     0
 93
        1
 44
0.0
173
     0
291
     1
 45
0.0
1001
ACAD
1000
AcDbSavedByObjectVersion
1070
     0
  0
VISUALSTYLE
  5
34
102
{ACAD_REACTORS
330
2A
102
}
102
{ACAD_XDICTIONARY
360
5E
102
}
330
2A
100
AcDbVisualStyle
  2
Conceptual
 70
     9
 71
     3
 72
     2
 73
     0
 90
        0
 40
-0.6
 41
-30.0
 62
     5
 63
     7
421
 16777215
 74
     2
 91
        2
 64
     7
 65
   257
 75
     1
175
     1
 42
40.0
 92
        8
 66
     7
 43
1.0
 76
     1
 77
     6
 78
     2
 67
     7
 79
     3
170
     0
171
     0
290
     0
174
     0
 93
        1
 44
0.0
173
     0
291
     0
 45
0.0
1001
ACAD
1000
AcDbSavedByObjectVersion
1070
     0
  0
VISUALSTYLE
  5
35
102
{ACAD_REACTORS
330
2A
102
}
102
{ACAD_XDICTIONARY
360
60
102
}
330
2A
100
AcDbVisualStyle
  2
Dim
 70
    11
 71
     2
 72
     2
 73
     0
 90
        0
 40
-0.6
 41
-30.0
 62
     5
 63
     7
421
 16777215
 74
     1
 91
        4
 64
     7
 65
   257
 75
     1
175
     1
 42
1.0
 92
        8
 66
     7
 43
1.0
 76
     1
 77
     6
 78
     2
 67
     7
 79
     5
170
     0
171
     0
290
     0
174
     0
 93
        1
 44
-50.0
173
     0
291
     1
 45
0.0
1001
ACAD
1000
AcDbSavedByObjectVersion
1070
     0
  0
VISUALSTYLE
  5
39
102
{ACAD_REACTORS
330
2A
102
}
102
{ACAD_XDICTIONARY
360
68
102
}
330
2A
100
AcDbVisualStyle
  2
Facepattern
 70
    15
 71
     2
 72
     2
 73
     0
 90
        0
 40
-0.6
 41
-30.0
 62
     5
 63
     7
421
 16777215
 74
     1
 91
        4
 64
     7
 65
   257
 75
     1
175
     1
 42
1.0
 92
        8
 66
     7
 43
1.0
 76
     1
 77
     6
 78
     2
 67
     7
 79
     5
170
     0
171
     0
290
     0
174
     0
 93
        1
 44
0.0
173
     0
291
     1
 45
0.0
1001
ACAD
1000
AcDbSavedByObjectVersion
1070
     0
  0
VISUALSTYLE
  5
2B
102
{ACAD_REACTORS
330
2A
102
}
102
{ACAD_XDICTIONARY
360
4C
102
}
330
2A
100
AcDbVisualStyle
  2
Flat
 70
     0
 71
     2
 72
     1
 73
     1
 90
        2
 40
-0.6
 41
30.0
 62
     5
 63
     7
421
 16777215
 74
     0
 91
        4
 64
     7
 65
   257
 75
     1
175
     1
 42
1.0
 92
        8
 66
     7
 43
1.0
 76
     1
 77
     6
 78
     2
 67
     7
 79
     5
170
     0
171
     0
290
     0
174
     0
 93
       13
 44
0.0
173
     0
291
     1
 45
0.0
1001
ACAD
1000
AcDbSavedByObjectVersion
1070
     0
  0
VISUALSTYLE
  5
2C
102
{ACAD_REACTORS
330
2A
102
}
102
{ACAD_XDICTIONARY
360
4E
102
}
330
2A
100
AcDbVisualStyle
  2
FlatWithEdges
 70
     1
 71
     2
 72
     1
 73
     1
 90
        2
 40
-0.6
 41
30.0
 62
     5
 63
     7
421
 16777215
 74
     1
 91
        4
 64
     7
 65
   257
 75
     1
175
     1
 42
1.0
 92
        0
 66
   257
 43
1.0
 76
     1
 77
     6
 78
     2
 67
     7
 79
     5
170
     0
171
     0
290
     0
174
     0
 93
       13
 44
0.0
173
     0
291
     1
 45
0.0
1001
ACAD
1000
AcDbSavedByObjectVersion
1070
     0
  0
VISUALSTYLE
  5
2D
102
{ACAD_REACTORS
330
2A
102
}
102
{ACAD_XDICTIONARY
360
50
102
}
330
2A
100
AcDbVisualStyle
  2
Gouraud
 70
     2
 71
     2
 72
     2
 73
     1
 90
        2
 40
-0.6
 41
30.0
 62
     5
 63
     7
421
 16777215
 74
     0
 91
        4
 64
     7
 65
   257
 75
     1
175
     1
 42
1.0
 92
        0
 66
     7
 43
1.0
 76
     1
 77
     6
 78
     2
 67
     7
 79
     5
170
     0
171
     0
290
     0
174
     0
 93
       13
 44
0.0
173
     0
291
     1
 45
0.0
1001
ACAD
1000
AcDbSavedByObjectVersion
1070
     0
  0
VISUALSTYLE
  5
2E
102
{ACAD_REACTORS
330
2A
102
}
102
{ACAD_XDICTIONARY
360
52
102
}
330
2A
100
AcDbVisualStyle
  2
GouraudWithEdges
 70
     3
 71
     2
 72
     2
 73
     1
 90
        2
 40
-0.6
 41
30.0
 62
     5
 63
     7
421
 16777215
 74
     1
 91
        4
 64
     7
 65
   257
 75
     1
175
     1
 42
1.0
 92
        0
 66
   257
 43
1.0
 76
     1
 77
     6
 78
     2
 67
     7
 79
     5
170
     0
171
     0
290
     0
174
     0
 93
       13
 44
0.0
173
     0
291
     1
 45
0.0
1001
ACAD
1000
AcDbSavedByObjectVersion
1070
     0
  0
VISUALSTYLE
  5
38
102
{ACAD_REACTORS
330
2A
102
}
102
{ACAD_XDICTIONARY
360
66
102
}
330
2A
100
AcDbVisualStyle
  2
Linepattern
 70
    14
 71
     2
 72
     2
 73
     0
 90
        0
 40
-0.6
 41
-30.0
 62
     5
 63
     7
421
 16777215
 74
     1
 91
        4
 64
     7
 65
   257
 75
     7
175
     7
 42
1.0
 92
        8
 66
     7
 43
1.0
 76
     1
 77
     6
 78
     2
 67
     7
 79
     5
170
     0
171
     0
290
     0
174
     0
 93
        1
 44
0.0
173
     0
291
     1
 45
0.0
1001
ACAD
1000
AcDbSavedByObjectVersion
1070
     0
  0
VISUALSTYLE
  5
33
102
{ACAD_REACTORS
330
2A
102
}
102
{ACAD_XDICTIONARY
360
5C
102
}
330
2A
100
AcDbVisualStyle
  2
Realistic
 70
     8
 71
     2
 72
     2
 73
     0
 90
        0
 40
-0.6
 41
-30.0
 62
     5
 63
     7
421
 16777215
 74
     1
 91
        0
 64
     7
 65
   257
 75
     1
175
     1
 42
1.0
 92
        8
 66
     8
424
  7895160
 43
1.0
 76
     1
 77
     6
 78
     2
 67
     7
 79
     5
170
     0
171
     0
290
     0
174
     0
 93
       13
 44
0.0
173
     0
291
     0
 45
0.0
1001
ACAD
1000
AcDbSavedByObjectVersion
1070
     0
  0
VISUALSTYLE
  5
37
102
{ACAD_REACTORS
330
2A
102
}
102
{ACAD_XDICTIONARY
360
64
102
}
330
2A
100
AcDbVisualStyle
  2
Thicken
 70
    13
 71
     2
 72
     2
 73
     0
 90
        0
 40
-0.6
 41
-30.0
 62
     5
 63
     7
421
 16777215
 74
     1
 91
        4
 64
     7
 65
   257
 75
     1
175
     1
 42
1.0
 92
       12
 66
     7
 43
1.0
 76
     1
 77
     6
 78
     2
 67
     7
 79
     5
170
     0
171
     0
290
     0
174
     0
 93
        1
 44
0.0
173
     0
291
     1
 45
0.0
1001
ACAD
1000
AcDbSavedByObjectVersion
1070
     0
  0
DICTIONARY
  5
6E
330
3D
100
AcDbDictionary
280
     1
281
     1
  3
ACAD_XREC_ROUNDTRIP
360
6F
  0
DICTIONARY
  5
6C
330
3C
100
AcDbDictionary
280
     1
281
     1
  3
ACAD_XREC_ROUNDTRIP
360
6D
  0
DICTIONARY
  5
70
330
3E
100
AcDbDictionary
280
     1
281
     1
  3
ACAD_XREC_ROUNDTRIP
360
71
  0
DICTIONARY
  5
54
330
2F
100
AcDbDictionary
280
     1
281
     1
  3
ACAD_XREC_ROUNDTRIP
360
55
  0
DICTIONARY
  5
58
330
31
100
AcDbDictionary
280
     1
281
     1
  3
ACAD_XREC_ROUNDTRIP
360
59
  0
DICTIONARY
  5
56
330
30
100
AcDbDictionary
280
     1
281
     1
  3
ACAD_XREC_ROUNDTRIP
360
57
  0
DICTIONARY
  5
5A
330
32
100
AcDbDictionary
280
     1
281
     1
  3
ACAD_XREC_ROUNDTRIP
360
5B
  0
DICTIONARY
  5
62
330
36
100
AcDbDictionary
280
     1
281
     1
  3
ACAD_XREC_ROUNDTRIP
360
63
  0
DICTIONARY
  5
6A
330
3A
100
AcDbDictionary
280
     1
281
     1
  3
ACAD_XREC_ROUNDTRIP
360
6B
  0
DICTIONARY
  5
5E
330
34
100
AcDbDictionary
280
     1
281
     1
  3
ACAD_XREC_ROUNDTRIP
360
5F
  0
DICTIONARY
  5
60
330
35
100
AcDbDictionary
280
     1
281
     1
  3
ACAD_XREC_ROUNDTRIP
360
61
  0
DICTIONARY
  5
68
330
39
100
AcDbDictionary
280
     1
281
     1
  3
ACAD_XREC_ROUNDTRIP
360
69
  0
DICTIONARY
  5
4C
330
2B
100
AcDbDictionary
280
     1
281
     1
  3
ACAD_XREC_ROUNDTRIP
360
4D
  0
DICTIONARY
  5
4E
330
2C
100
AcDbDictionary
280
     1
281
     1
  3
ACAD_XREC_ROUNDTRIP
360
4F
  0
DICTIONARY
  5
50
330
2D
100
AcDbDictionary
280
     1
281
     1
  3
ACAD_XREC_ROUNDTRIP
360
51
  0
DICTIONARY
  5
52
330
2E
100
AcDbDictionary
280
     1
281
     1
  3
ACAD_XREC_ROUNDTRIP
360
53
  0
DICTIONARY
  5
66
330
38
100
AcDbDictionary
280
     1
281
     1
  3
ACAD_XREC_ROUNDTRIP
360
67
  0
DICTIONARY
  5
5C
330
33
100
AcDbDictionary
280
     1
281
     1
  3
ACAD_XREC_ROUNDTRIP
360
5D
  0
DICTIONARY
  5
64
330
37
100
AcDbDictionary
280
     1
281
     1
  3
ACAD_XREC_ROUNDTRIP
360
65
  0
XRECORD
  5
6F
102
{ACAD_REACTORS
330
6E
102
}
330
6E
100
AcDbXrecord
280
     1
102
MATERIAL
148
0.0
149
0.0
149
0.0
 93
        0
 94
      127
282
     0
 72
     1
 77
     1
171
     1
175
     1
179
     1
273
     0
  0
XRECORD
  5
6D
102
{ACAD_REACTORS
330
6C
102
}
330
6C
100
AcDbXrecord
280
     1
102
MATERIAL
148
0.0
149
0.0
149
0.0
 93
        0
 94
      127
282
     0
 72
     1
 77
     1
171
     1
175
     1
179
     1
273
     0
  0
XRECORD
  5
71
102
{ACAD_REACTORS
330
70
102
}
330
70
100
AcDbXrecord
280
     1
102
MATERIAL
148
0.0
149
0.0
149
0.0
 93
        0
 94
      127
282
     0
 72
     1
 77
     1
171
     1
175
     1
179
     1
273
     0
  0
XRECORD
  5
55
102
{ACAD_REACTORS
330
54
102
}
330
54
100
AcDbXrecord
280
     1
102
RTVSPropertyOp0
 70
     1
102
RTVSPropertyOp1
 70
     1
102
RTVSPropertyOp2
 70
     1
102
RTVSPropertyOp3
 70
     1
102
RTVSPropertyOp4
 70
     1
102
RTVSPropertyOp5
 70
     1
102
RTVSPropertyOp6
 70
     1
102
RTVSPropertyOp7
 70
     1
102
RTVSPropertyOp8
 70
     1
102
RTVSPropertyOp9
 70
     1
102
RTVSPropertyOp10
 70
     1
102
RTVSPropertyOp11
 70
     1
102
RTVSPropertyOp12
 70
     1
102
RTVSPropertyOp13
 70
     1
102
RTVSPropertyOp14
 70
     1
102
RTVSPropertyOp15
 70
     1
102
RTVSPropertyOp16
 70
     1
102
RTVSPropertyOp17
 70
     1
102
RTVSPropertyOp18
 70
     1
102
RTVSPropertyOp19
 70
     1
102
RTVSPropertyOp20
 70
     1
102
RTVSPropertyOp21
 70
     1
102
RTVSPropertyOp22
 70
     1
102
RTVSPropertyOp23
 70
     1
102
RTVSPropertyOp24
 70
     1
102
RTVSPropertyOp25
 70
     1
102
RTVSPropertyOp26
 70
     1
102
RTVSPropertyOp27
 70
     1
102
RTVSPropertyOp28
 70
     1
102
RTVSPropertyOp29
 70
     1
102
RTVSPropertyOp30
 70
     1
102
RTVSPropertyOp31
 70
     1
102
RTVSPropertyOp32
 70
     1
  0
XRECORD
  5
59
102
{ACAD_REACTORS
330
58
102
}
330
58
100
AcDbXrecord
280
     1
102
RTVSPropertyOp0
 70
     1
102
RTVSPropertyOp1
 70
     1
102
RTVSPropertyOp2
 70
     1
102
RTVSPropertyOp3
 70
     1
102
RTVSPropertyOp4
 70
     1
102
RTVSPropertyOp5
 70
     1
102
RTVSPropertyOp6
 70
     1
102
RTVSPropertyOp7
 70
     1
102
RTVSPropertyOp8
 70
     1
102
RTVSPropertyOp9
 70
     1
102
RTVSPropertyOp10
 70
     1
102
RTVSPropertyOp11
 70
     1
102
RTVSPropertyOp12
 70
     1
102
RTVSPropertyOp13
 70
     1
102
RTVSPropertyOp14
 70
     1
102
RTVSPropertyOp15
 70
     1
102
RTVSPropertyOp16
 70
     1
102
RTVSPropertyOp17
 70
     1
102
RTVSPropertyOp18
 70
     1
102
RTVSPropertyOp19
 70
     1
102
RTVSPropertyOp20
 70
     1
102
RTVSPropertyOp21
 70
     1
102
RTVSPropertyOp22
 70
     1
102
RTVSPropertyOp23
 70
     1
102
RTVSPropertyOp24
 70
     1
102
RTVSPropertyOp25
 70
     1
102
RTVSPropertyOp26
 70
     1
102
RTVSPropertyOp27
 70
     1
102
RTVSPropertyOp28
 70
     1
102
RTVSPropertyOp29
 70
     1
102
RTVSPropertyOp30
 70
     1
102
RTVSPropertyOp31
 70
     1
102
RTVSPropertyOp32
 70
     1
  0
XRECORD
  5
57
102
{ACAD_REACTORS
330
56
102
}
330
56
100
AcDbXrecord
280
     1
102
RTVSPropertyOp0
 70
     1
102
RTVSPropertyOp1
 70
     1
102
RTVSPropertyOp2
 70
     1
102
RTVSPropertyOp3
 70
     1
102
RTVSPropertyOp4
 70
     1
102
RTVSPropertyOp5
 70
     1
102
RTVSPropertyOp6
 70
     1
102
RTVSPropertyOp7
 70
     1
102
RTVSPropertyOp8
 70
     1
102
RTVSPropertyOp9
 70
     1
102
RTVSPropertyOp10
 70
     1
102
RTVSPropertyOp11
 70
     1
102
RTVSPropertyOp12
 70
     1
102
RTVSPropertyOp13
 70
     1
102
RTVSPropertyOp14
 70
     1
102
RTVSPropertyOp15
 70
     1
102
RTVSPropertyOp16
 70
     1
102
RTVSPropertyOp17
 70
     1
102
RTVSPropertyOp18
 70
     1
102
RTVSPropertyOp19
 70
     1
102
RTVSPropertyOp20
 70
     1
102
RTVSPropertyOp21
 70
     1
102
RTVSPropertyOp22
 70
     1
102
RTVSPropertyOp23
 70
     1
102
RTVSPropertyOp24
 70
     1
102
RTVSPropertyOp25
 70
     1
102
RTVSPropertyOp26
 70
     1
102
RTVSPropertyOp27
 70
     1
102
RTVSPropertyOp28
 70
     1
102
RTVSPropertyOp29
 70
     1
102
RTVSPropertyOp30
 70
     1
102
RTVSPropertyOp31
 70
     1
102
RTVSPropertyOp32
 70
     1
  0
XRECORD
  5
5B
102
{ACAD_REACTORS
330
5A
102
}
330
5A
100
AcDbXrecord
280
     1
102
RTVSPropertyOp0
 70
     1
102
RTVSPropertyOp1
 70
     1
102
RTVSPropertyOp2
 70
     1
102
RTVSPropertyOp3
 70
     1
102
RTVSPropertyOp4
 70
     1
102
RTVSPropertyOp5
 70
     1
102
RTVSPropertyOp6
 70
     1
102
RTVSPropertyOp7
 70
     1
102
RTVSPropertyOp8
 70
     1
102
RTVSPropertyOp9
 70
     1
102
RTVSPropertyOp10
 70
     1
102
RTVSPropertyOp11
 70
     1
102
RTVSPropertyOp12
 70
     1
102
RTVSPropertyOp13
 70
     1
102
RTVSPropertyOp14
 70
     1
102
RTVSPropertyOp15
 70
     1
102
RTVSPropertyOp16
 70
     1
102
RTVSPropertyOp17
 70
     1
102
RTVSPropertyOp18
 70
     1
102
RTVSPropertyOp19
 70
     1
102
RTVSPropertyOp20
 70
     1
102
RTVSPropertyOp21
 70
     1
102
RTVSPropertyOp22
 70
     1
102
RTVSPropertyOp23
 70
     1
102
RTVSPropertyOp24
 70
     1
102
RTVSPropertyOp25
 70
     1
102
RTVSPropertyOp26
 70
     1
102
RTVSPropertyOp27
 70
     1
102
RTVSPropertyOp28
 70
     1
102
RTVSPropertyOp29
 70
     1
102
RTVSPropertyOp30
 70
     1
102
RTVSPropertyOp31
 70
     1
102
RTVSPropertyOp32
 70
     1
  0
XRECORD
  5
63
102
{ACAD_REACTORS
330
62
102
}
330
62
100
AcDbXrecord
280
     1
102
RTVSPropertyOp0
 70
     1
102
RTVSPropertyOp1
 70
     1
102
RTVSPropertyOp2
 70
     1
102
RTVSPropertyOp3
 70
     1
102
RTVSPropertyOp4
 70
     1
102
RTVSPropertyOp5
 70
     1
102
RTVSPropertyOp6
 70
     1
102
RTVSPropertyOp7
 70
     1
102
RTVSPropertyOp8
 70
     1
102
RTVSPropertyOp9
 70
     1
102
RTVSPropertyOp10
 70
     1
102
RTVSPropertyOp11
 70
     1
102
RTVSPropertyOp12
 70
     1
102
RTVSPropertyOp13
 70
     1
102
RTVSPropertyOp14
 70
     1
102
RTVSPropertyOp15
 70
     1
102
RTVSPropertyOp16
 70
     1
102
RTVSPropertyOp17
 70
     1
102
RTVSPropertyOp18
 70
     1
102
RTVSPropertyOp19
 70
     1
102
RTVSPropertyOp20
 70
     1
102
RTVSPropertyOp21
 70
     1
102
RTVSPropertyOp22
 70
     1
102
RTVSPropertyOp23
 70
     1
102
RTVSPropertyOp24
 70
     1
102
RTVSPropertyOp25
 70
     1
102
RTVSPropertyOp26
 70
     1
102
RTVSPropertyOp27
 70
     1
102
RTVSPropertyOp28
 70
     1
102
RTVSPropertyOp29
 70
     1
102
RTVSPropertyOp30
 70
     1
102
RTVSPropertyOp31
 70
     1
102
RTVSPropertyOp32
 70
     1
  0
XRECORD
  5
6B
102
{ACAD_REACTORS
330
6A
102
}
330
6A
100
AcDbXrecord
280
     1
102
RTVSPropertyOp0
 70
     1
102
RTVSPropertyOp1
 70
     1
102
RTVSPropertyOp2
 70
     1
102
RTVSPropertyOp3
 70
     1
102
RTVSPropertyOp4
 70
     1
102
RTVSPropertyOp5
 70
     1
102
RTVSPropertyOp6
 70
     1
102
RTVSPropertyOp7
 70
     1
102
RTVSPropertyOp8
 70
     1
102
RTVSPropertyOp9
 70
     1
102
RTVSPropertyOp10
 70
     1
102
RTVSPropertyOp11
 70
     1
102
RTVSPropertyOp12
 70
     1
102
RTVSPropertyOp13
 70
     1
102
RTVSPropertyOp14
 70
     1
102
RTVSPropertyOp15
 70
     1
102
RTVSPropertyOp16
 70
     1
102
RTVSPropertyOp17
 70
     1
102
RTVSPropertyOp18
 70
     1
102
RTVSPropertyOp19
 70
     1
102
RTVSPropertyOp20
 70
     1
102
RTVSPropertyOp21
 70
     1
102
RTVSPropertyOp22
 70
     1
102
RTVSPropertyOp23
 70
     1
102
RTVSPropertyOp24
 70
     1
102
RTVSPropertyOp25
 70
     1
102
RTVSPropertyOp26
 70
     1
102
RTVSPropertyOp27
 70
     1
102
RTVSPropertyOp28
 70
     1
102
RTVSPropertyOp29
 70
     1
102
RTVSPropertyOp30
 70
     1
102
RTVSPropertyOp31
 70
     1
102
RTVSPropertyOp32
 70
     1
  0
XRECORD
  5
5F
102
{ACAD_REACTORS
330
5E
102
}
330
5E
100
AcDbXrecord
280
     1
102
RTVSPropertyOp0
 70
     1
102
RTVSPropertyOp1
 70
     1
102
RTVSPropertyOp2
 70
     1
102
RTVSPropertyOp3
 70
     1
102
RTVSPropertyOp4
 70
     1
102
RTVSPropertyOp5
 70
     1
102
RTVSPropertyOp6
 70
     1
102
RTVSPropertyOp7
 70
     1
102
RTVSPropertyOp8
 70
     1
102
RTVSPropertyOp9
 70
     1
102
RTVSPropertyOp10
 70
     1
102
RTVSPropertyOp11
 70
     1
102
RTVSPropertyOp12
 70
     1
102
RTVSPropertyOp13
 70
     1
102
RTVSPropertyOp14
 70
     1
102
RTVSPropertyOp15
 70
     1
102
RTVSPropertyOp16
 70
     1
102
RTVSPropertyOp17
 70
     1
102
RTVSPropertyOp18
 70
     1
102
RTVSPropertyOp19
 70
     1
102
RTVSPropertyOp20
 70
     1
102
RTVSPropertyOp21
 70
     1
102
RTVSPropertyOp22
 70
     1
102
RTVSPropertyOp23
 70
     1
102
RTVSPropertyOp24
 70
     1
102
RTVSPropertyOp25
 70
     1
102
RTVSPropertyOp26
 70
     1
102
RTVSPropertyOp27
 70
     1
102
RTVSPropertyOp28
 70
     1
102
RTVSPropertyOp29
 70
     1
102
RTVSPropertyOp30
 70
     1
102
RTVSPropertyOp31
 70
     1
102
RTVSPropertyOp32
 70
     1
  0
XRECORD
  5
61
102
{ACAD_REACTORS
330
60
102
}
330
60
100
AcDbXrecord
280
     1
102
RTVSPropertyOp0
 70
     1
102
RTVSPropertyOp1
 70
     1
102
RTVSPropertyOp2
 70
     1
102
RTVSPropertyOp3
 70
     1
102
RTVSPropertyOp4
 70
     1
102
RTVSPropertyOp5
 70
     1
102
RTVSPropertyOp6
 70
     1
102
RTVSPropertyOp7
 70
     1
102
RTVSPropertyOp8
 70
     1
102
RTVSPropertyOp9
 70
     1
102
RTVSPropertyOp10
 70
     1
102
RTVSPropertyOp11
 70
     1
102
RTVSPropertyOp12
 70
     1
102
RTVSPropertyOp13
 70
     1
102
RTVSPropertyOp14
 70
     1
102
RTVSPropertyOp15
 70
     1
102
RTVSPropertyOp16
 70
     1
102
RTVSPropertyOp17
 70
     1
102
RTVSPropertyOp18
 70
     1
102
RTVSPropertyOp19
 70
     1
102
RTVSPropertyOp20
 70
     1
102
RTVSPropertyOp21
 70
     1
102
RTVSPropertyOp22
 70
     1
102
RTVSPropertyOp23
 70
     1
102
RTVSPropertyOp24
 70
     1
102
RTVSPropertyOp25
 70
     1
102
RTVSPropertyOp26
 70
     1
102
RTVSPropertyOp27
 70
     1
102
RTVSPropertyOp28
 70
     1
102
RTVSPropertyOp29
 70
     1
102
RTVSPropertyOp30
 70
     1
102
RTVSPropertyOp31
 70
     1
102
RTVSPropertyOp32
 70
     1
  0
XRECORD
  5
69
102
{ACAD_REACTORS
330
68
102
}
330
68
100
AcDbXrecord
280
     1
102
RTVSPropertyOp0
 70
     1
102
RTVSPropertyOp1
 70
     1
102
RTVSPropertyOp2
 70
     1
102
RTVSPropertyOp3
 70
     1
102
RTVSPropertyOp4
 70
     1
102
RTVSPropertyOp5
 70
     1
102
RTVSPropertyOp6
 70
     1
102
RTVSPropertyOp7
 70
     1
102
RTVSPropertyOp8
 70
     1
102
RTVSPropertyOp9
 70
     1
102
RTVSPropertyOp10
 70
     1
102
RTVSPropertyOp11
 70
     1
102
RTVSPropertyOp12
 70
     1
102
RTVSPropertyOp13
 70
     1
102
RTVSPropertyOp14
 70
     1
102
RTVSPropertyOp15
 70
     1
102
RTVSPropertyOp16
 70
     1
102
RTVSPropertyOp17
 70
     1
102
RTVSPropertyOp18
 70
     1
102
RTVSPropertyOp19
 70
     1
102
RTVSPropertyOp20
 70
     1
102
RTVSPropertyOp21
 70
     1
102
RTVSPropertyOp22
 70
     1
102
RTVSPropertyOp23
 70
     1
102
RTVSPropertyOp24
 70
     1
102
RTVSPropertyOp25
 70
     1
102
RTVSPropertyOp26
 70
     1
102
RTVSPropertyOp27
 70
     1
102
RTVSPropertyOp28
 70
     1
102
RTVSPropertyOp29
 70
     1
102
RTVSPropertyOp30
 70
     1
102
RTVSPropertyOp31
 70
     1
102
RTVSPropertyOp32
 70
     1
  0
XRECORD
  5
4D
102
{ACAD_REACTORS
330
4C
102
}
330
4C
100
AcDbXrecord
280
     1
102
RTVSPropertyOp0
 70
     1
102
RTVSPropertyOp1
 70
     1
102
RTVSPropertyOp2
 70
     1
102
RTVSPropertyOp3
 70
     1
102
RTVSPropertyOp4
 70
     1
102
RTVSPropertyOp5
 70
     1
102
RTVSPropertyOp6
 70
     1
102
RTVSPropertyOp7
 70
     1
102
RTVSPropertyOp8
 70
     1
102
RTVSPropertyOp9
 70
     1
102
RTVSPropertyOp10
 70
     1
102
RTVSPropertyOp11
 70
     1
102
RTVSPropertyOp12
 70
     1
102
RTVSPropertyOp13
 70
     1
102
RTVSPropertyOp14
 70
     1
102
RTVSPropertyOp15
 70
     1
102
RTVSPropertyOp16
 70
     1
102
RTVSPropertyOp17
 70
     1
102
RTVSPropertyOp18
 70
     1
102
RTVSPropertyOp19
 70
     1
102
RTVSPropertyOp20
 70
     1
102
RTVSPropertyOp21
 70
     1
102
RTVSPropertyOp22
 70
     1
102
RTVSPropertyOp23
 70
     1
102
RTVSPropertyOp24
 70
     1
102
RTVSPropertyOp25
 70
     1
102
RTVSPropertyOp26
 70
     1
102
RTVSPropertyOp27
 70
     1
102
RTVSPropertyOp28
 70
     1
102
RTVSPropertyOp29
 70
     1
102
RTVSPropertyOp30
 70
     1
102
RTVSPropertyOp31
 70
     1
102
RTVSPropertyOp32
 70
     1
  0
XRECORD
  5
4F
102
{ACAD_REACTORS
330
4E
102
}
330
4E
100
AcDbXrecord
280
     1
102
RTVSPropertyOp0
 70
     1
102
RTVSPropertyOp1
 70
     1
102
RTVSPropertyOp2
 70
     1
102
RTVSPropertyOp3
 70
     1
102
RTVSPropertyOp4
 70
     1
102
RTVSPropertyOp5
 70
     1
102
RTVSPropertyOp6
 70
     1
102
RTVSPropertyOp7
 70
     1
102
RTVSPropertyOp8
 70
     1
102
RTVSPropertyOp9
 70
     1
102
RTVSPropertyOp10
 70
     1
102
RTVSPropertyOp11
 70
     1
102
RTVSPropertyOp12
 70
     1
102
RTVSPropertyOp13
 70
     1
102
RTVSPropertyOp14
 70
     1
102
RTVSPropertyOp15
 70
     1
102
RTVSPropertyOp16
 70
     1
102
RTVSPropertyOp17
 70
     1
102
RTVSPropertyOp18
 70
     1
102
RTVSPropertyOp19
 70
     1
102
RTVSPropertyOp20
 70
     1
102
RTVSPropertyOp21
 70
     1
102
RTVSPropertyOp22
 70
     1
102
RTVSPropertyOp23
 70
     1
102
RTVSPropertyOp24
 70
     1
102
RTVSPropertyOp25
 70
     1
102
RTVSPropertyOp26
 70
     1
102
RTVSPropertyOp27
 70
     1
102
RTVSPropertyOp28
 70
     1
102
RTVSPropertyOp29
 70
     1
102
RTVSPropertyOp30
 70
     1
102
RTVSPropertyOp31
 70
     1
102
RTVSPropertyOp32
 70
     1
  0
XRECORD
  5
51
102
{ACAD_REACTORS
330
50
102
}
330
50
100
AcDbXrecord
280
     1
102
RTVSPropertyOp0
 70
     1
102
RTVSPropertyOp1
 70
     1
102
RTVSPropertyOp2
 70
     1
102
RTVSPropertyOp3
 70
     1
102
RTVSPropertyOp4
 70
     1
102
RTVSPropertyOp5
 70
     1
102
RTVSPropertyOp6
 70
     1
102
RTVSPropertyOp7
 70
     1
102
RTVSPropertyOp8
 70
     1
102
RTVSPropertyOp9
 70
     1
102
RTVSPropertyOp10
 70
     1
102
RTVSPropertyOp11
 70
     1
102
RTVSPropertyOp12
 70
     1
102
RTVSPropertyOp13
 70
     1
102
RTVSPropertyOp14
 70
     1
102
RTVSPropertyOp15
 70
     1
102
RTVSPropertyOp16
 70
     1
102
RTVSPropertyOp17
 70
     1
102
RTVSPropertyOp18
 70
     1
102
RTVSPropertyOp19
 70
     1
102
RTVSPropertyOp20
 70
     1
102
RTVSPropertyOp21
 70
     1
102
RTVSPropertyOp22
 70
     1
102
RTVSPropertyOp23
 70
     1
102
RTVSPropertyOp24
 70
     1
102
RTVSPropertyOp25
 70
     1
102
RTVSPropertyOp26
 70
     1
102
RTVSPropertyOp27
 70
     1
102
RTVSPropertyOp28
 70
     1
102
RTVSPropertyOp29
 70
     1
102
RTVSPropertyOp30
 70
     1
102
RTVSPropertyOp31
 70
     1
102
RTVSPropertyOp32
 70
     1
  0
XRECORD
  5
53
102
{ACAD_REACTORS
330
52
102
}
330
52
100
AcDbXrecord
280
     1
102
RTVSPropertyOp0
 70
     1
102
RTVSPropertyOp1
 70
     1
102
RTVSPropertyOp2
 70
     1
102
RTVSPropertyOp3
 70
     1
102
RTVSPropertyOp4
 70
     1
102
RTVSPropertyOp5
 70
     1
102
RTVSPropertyOp6
 70
     1
102
RTVSPropertyOp7
 70
     1
102
RTVSPropertyOp8
 70
     1
102
RTVSPropertyOp9
 70
     1
102
RTVSPropertyOp10
 70
     1
102
RTVSPropertyOp11
 70
     1
102
RTVSPropertyOp12
 70
     1
102
RTVSPropertyOp13
 70
     1
102
RTVSPropertyOp14
 70
     1
102
RTVSPropertyOp15
 70
     1
102
RTVSPropertyOp16
 70
     1
102
RTVSPropertyOp17
 70
     1
102
RTVSPropertyOp18
 70
     1
102
RTVSPropertyOp19
 70
     1
102
RTVSPropertyOp20
 70
     1
102
RTVSPropertyOp21
 70
     1
102
RTVSPropertyOp22
 70
     1
102
RTVSPropertyOp23
 70
     1
102
RTVSPropertyOp24
 70
     1
102
RTVSPropertyOp25
 70
     1
102
RTVSPropertyOp26
 70
     1
102
RTVSPropertyOp27
 70
     1
102
RTVSPropertyOp28
 70
     1
102
RTVSPropertyOp29
 70
     1
102
RTVSPropertyOp30
 70
     1
102
RTVSPropertyOp31
 70
     1
102
RTVSPropertyOp32
 70
     1
  0
XRECORD
  5
67
102
{ACAD_REACTORS
330
66
102
}
330
66
100
AcDbXrecord
280
     1
102
RTVSPropertyOp0
 70
     1
102
RTVSPropertyOp1
 70
     1
102
RTVSPropertyOp2
 70
     1
102
RTVSPropertyOp3
 70
     1
102
RTVSPropertyOp4
 70
     1
102
RTVSPropertyOp5
 70
     1
102
RTVSPropertyOp6
 70
     1
102
RTVSPropertyOp7
 70
     1
102
RTVSPropertyOp8
 70
     1
102
RTVSPropertyOp9
 70
     1
102
RTVSPropertyOp10
 70
     1
102
RTVSPropertyOp11
 70
     1
102
RTVSPropertyOp12
 70
     1
102
RTVSPropertyOp13
 70
     1
102
RTVSPropertyOp14
 70
     1
102
RTVSPropertyOp15
 70
     1
102
RTVSPropertyOp16
 70
     1
102
RTVSPropertyOp17
 70
     1
102
RTVSPropertyOp18
 70
     1
102
RTVSPropertyOp19
 70
     1
102
RTVSPropertyOp20
 70
     1
102
RTVSPropertyOp21
 70
     1
102
RTVSPropertyOp22
 70
     1
102
RTVSPropertyOp23
 70
     1
102
RTVSPropertyOp24
 70
     1
102
RTVSPropertyOp25
 70
     1
102
RTVSPropertyOp26
 70
     1
102
RTVSPropertyOp27
 70
     1
102
RTVSPropertyOp28
 70
     1
102
RTVSPropertyOp29
 70
     1
102
RTVSPropertyOp30
 70
     1
102
RTVSPropertyOp31
 70
     1
102
RTVSPropertyOp32
 70
     1
  0
XRECORD
  5
5D
102
{ACAD_REACTORS
330
5C
102
}
330
5C
100
AcDbXrecord
280
     1
102
RTVSPropertyOp0
 70
     1
102
RTVSPropertyOp1
 70
     1
102
RTVSPropertyOp2
 70
     1
102
RTVSPropertyOp3
 70
     1
102
RTVSPropertyOp4
 70
     1
102
RTVSPropertyOp5
 70
     1
102
RTVSPropertyOp6
 70
     1
102
RTVSPropertyOp7
 70
     1
102
RTVSPropertyOp8
 70
     1
102
RTVSPropertyOp9
 70
     1
102
RTVSPropertyOp10
 70
     1
102
RTVSPropertyOp11
 70
     1
102
RTVSPropertyOp12
 70
     1
102
RTVSPropertyOp13
 70
     1
102
RTVSPropertyOp14
 70
     1
102
RTVSPropertyOp15
 70
     1
102
RTVSPropertyOp16
 70
     1
102
RTVSPropertyOp17
 70
     1
102
RTVSPropertyOp18
 70
     1
102
RTVSPropertyOp19
 70
     1
102
RTVSPropertyOp20
 70
     1
102
RTVSPropertyOp21
 70
     1
102
RTVSPropertyOp22
 70
     1
102
RTVSPropertyOp23
 70
     1
102
RTVSPropertyOp24
 70
     1
102
RTVSPropertyOp25
 70
     1
102
RTVSPropertyOp26
 70
     1
102
RTVSPropertyOp27
 70
     1
102
RTVSPropertyOp28
 70
     1
102
RTVSPropertyOp29
 70
     1
102
RTVSPropertyOp30
 70
     1
102
RTVSPropertyOp31
 70
     1
102
RTVSPropertyOp32
 70
     1
  0
XRECORD
  5
65
102
{ACAD_REACTORS
330
64
102
}
330
64
100
AcDbXrecord
280
     1
102
RTVSPropertyOp0
 70
     1
102
RTVSPropertyOp1
 70
     1
102
RTVSPropertyOp2
 70
     1
102
RTVSPropertyOp3
 70
     1
102
RTVSPropertyOp4
 70
     1
102
RTVSPropertyOp5
 70
     1
102
RTVSPropertyOp6
 70
     1
102
RTVSPropertyOp7
 70
     1
102
RTVSPropertyOp8
 70
     1
102
RTVSPropertyOp9
 70
     1
102
RTVSPropertyOp10
 70
     1
102
RTVSPropertyOp11
 70
     1
102
RTVSPropertyOp12
 70
     1
102
RTVSPropertyOp13
 70
     1
102
RTVSPropertyOp14
 70
     1
102
RTVSPropertyOp15
 70
     1
102
RTVSPropertyOp16
 70
     1
102
RTVSPropertyOp17
 70
     1
102
RTVSPropertyOp18
 70
     1
102
RTVSPropertyOp19
 70
     1
102
RTVSPropertyOp20
 70
     1
102
RTVSPropertyOp21
 70
     1
102
RTVSPropertyOp22
 70
     1
102
RTVSPropertyOp23
 70
     1
102
RTVSPropertyOp24
 70
     1
102
RTVSPropertyOp25
 70
     1
102
RTVSPropertyOp26
 70
     1
102
RTVSPropertyOp27
 70
     1
102
RTVSPropertyOp28
 70
     1
102
RTVSPropertyOp29
 70
     1
102
RTVSPropertyOp30
 70
     1
102
RTVSPropertyOp31
 70
     1
102
RTVSPropertyOp32
 70
     1
  0
ENDSEC
  0
EOF
