  0
SECTION
  2
HEADER
  9
$ACADVER
  1
AC1018
  9
$ACADMAINTVER
 70
     0
  9
$DWGCODEPAGE
  3
ANSI_936
  9
$INSBASE
 10
0.0
 20
0.0
 30
0.0
  9
$EXTMIN
 10
1.000000000000000E+20
 20
1.000000000000000E+20
 30
1.000000000000000E+20
  9
$EXTMAX
 10
-1.000000000000000E+20
 20
-1.000000000000000E+20
 30
-1.000000000000000E+20
  9
$LIMMIN
 10
0.0
 20
0.0
  9
$LIMMAX
 10
12.0
 20
9.0
  9
$ORTHOMODE
 70
     0
  9
$REGENMODE
 70
     1
  9
$FILLMODE
 70
     1
  9
$QTEXTMODE
 70
     0
  9
$MIRRTEXT
 70
     1
  9
$LTSCALE
 40
1.0
  9
$ATTMODE
 70
     1
  9
$TEXTSIZE
 40
0.2
  9
$TRACEWID
 40
0.05
  9
$TEXTSTYLE
  7
Standard
  9
$CLAYER
  8
0
  9
$CELTYPE
  6
ByLayer
  9
$CECOLOR
 62
   256
  9
$CELTSCALE
 40
1.0
  9
$DISPSILH
 70
     0
  9
$DIMSCALE
 40
1.0
  9
$DIMASZ
 40
0.18
  9
$DIMEXO
 40
0.0625
  9
$DIMDLI
 40
0.38
  9
$DIMRND
 40
0.0
  9
$DIMDLE
 40
0.0
  9
$DIMEXE
 40
0.18
  9
$DIMTP
 40
0.0
  9
$DIMTM
 40
0.0
  9
$DIMTXT
 40
0.18
  9
$DIMCEN
 40
0.09
  9
$DIMTSZ
 40
0.0
  9
$DIMTOL
 70
     0
  9
$DIMLIM
 70
     0
  9
$DIMTIH
 70
     1
  9
$DIMTOH
 70
     1
  9
$DIMSE1
 70
     0
  9
$DIMSE2
 70
     0
  9
$DIMTAD
 70
     0
  9
$DIMZIN
 70
     0
  9
$DIMBLK
  1

  9
$DIMASO
 70
     1
  9
$DIMSHO
 70
     1
  9
$DIMPOST
  1

  9
$DIMAPOST
  1

  9
$DIMALT
 70
     0
  9
$DIMALTD
 70
     2
  9
$DIMALTF
 40
25.4
  9
$DIMLFAC
 40
1.0
  9
$DIMTOFL
 70
     0
  9
$DIMTVP
 40
0.0
  9
$DIMTIX
 70
     0
  9
$DIMSOXD
 70
     0
  9
$DIMSAH
 70
     0
  9
$DIMBLK1
  1

  9
$DIMBLK2
  1

  9
$DIMSTYLE
  2
Standard
  9
$DIMCLRD
 70
     0
  9
$DIMCLRE
 70
     0
  9
$DIMCLRT
 70
     0
  9
$DIMTFAC
 40
1.0
  9
$DIMGAP
 40
0.09
  9
$DIMJUST
 70
     0
  9
$DIMSD1
 70
     0
  9
$DIMSD2
 70
     0
  9
$DIMTOLJ
 70
     1
  9
$DIMTZIN
 70
     0
  9
$DIMALTZ
 70
     0
  9
$DIMALTTZ
 70
     0
  9
$DIMUPT
 70
     0
  9
$DIMDEC
 70
     4
  9
$DIMTDEC
 70
     4
  9
$DIMALTU
 70
     2
  9
$DIMALTTD
 70
     2
  9
$DIMTXSTY
  7
Standard
  9
$DIMAUNIT
 70
     0
  9
$DIMADEC
 70
     0
  9
$DIMALTRND
 40
0.0
  9
$DIMAZIN
 70
     0
  9
$DIMDSEP
 70
    46
  9
$DIMATFIT
 70
     3
  9
$DIMFRAC
 70
     0
  9
$DIMLDRBLK
  1

  9
$DIMLUNIT
 70
     2
  9
$DIMLWD
 70
    -2
  9
$DIMLWE
 70
    -2
  9
$DIMTMOVE
 70
     0
  9
$LUNITS
 70
     2
  9
$LUPREC
 70
     4
  9
$SKETCHINC
 40
0.1
  9
$FILLETRAD
 40
0.5
  9
$AUNITS
 70
     0
  9
$AUPREC
 70
     0
  9
$MENU
  1
.
  9
$ELEVATION
 40
0.0
  9
$PELEVATION
 40
0.0
  9
$THICKNESS
 40
0.0
  9
$LIMCHECK
 70
     0
  9
$CHAMFERA
 40
0.5
  9
$CHAMFERB
 40
0.5
  9
$CHAMFERC
 40
1.0
  9
$CHAMFERD
 40
0.0
  9
$SKPOLY
 70
     0
  9
$TDCREATE
 40
2459207.925978611
  9
$TDUCREATE
 40
2459207.592645278
  9
$TDUPDATE
 40
2459207.925978681
  9
$TDUUPDATE
 40
2459207.592645347
  9
$TDINDWG
 40
0.0000000116
  9
$TDUSRTIMER
 40
0.0000000116
  9
$USRTIMER
 70
     1
  9
$ANGBASE
 50
0.0
  9
$ANGDIR
 70
     0
  9
$PDMODE
 70
     0
  9
$PDSIZE
 40
0.0
  9
$PLINEWID
 40
0.0
  9
$SPLFRAME
 70
     0
  9
$SPLINETYPE
 70
     6
  9
$SPLINESEGS
 70
     8
  9
$HANDSEED
  5
7D
  9
$SURFTAB1
 70
     6
  9
$SURFTAB2
 70
     6
  9
$SURFTYPE
 70
     6
  9
$SURFU
 70
     6
  9
$SURFV
 70
     6
  9
$UCSBASE
  2

  9
$UCSNAME
  2

  9
$UCSORG
 10
0.0
 20
0.0
 30
0.0
  9
$UCSXDIR
 10
1.0
 20
0.0
 30
0.0
  9
$UCSYDIR
 10
0.0
 20
1.0
 30
0.0
  9
$UCSORTHOREF
  2

  9
$UCSORTHOVIEW
 70
     0
  9
$UCSORGTOP
 10
0.0
 20
0.0
 30
0.0
  9
$UCSORGBOTTOM
 10
0.0
 20
0.0
 30
0.0
  9
$UCSORGLEFT
 10
0.0
 20
0.0
 30
0.0
  9
$UCSORGRIGHT
 10
0.0
 20
0.0
 30
0.0
  9
$UCSORGFRONT
 10
0.0
 20
0.0
 30
0.0
  9
$UCSORGBACK
 10
0.0
 20
0.0
 30
0.0
  9
$PUCSBASE
  2

  9
$PUCSNAME
  2

  9
$PUCSORG
 10
0.0
 20
0.0
 30
0.0
  9
$PUCSXDIR
 10
1.0
 20
0.0
 30
0.0
  9
$PUCSYDIR
 10
0.0
 20
1.0
 30
0.0
  9
$PUCSORTHOREF
  2

  9
$PUCSORTHOVIEW
 70
     0
  9
$PUCSORGTOP
 10
0.0
 20
0.0
 30
0.0
  9
$PUCSORGBOTTOM
 10
0.0
 20
0.0
 30
0.0
  9
$PUCSORGLEFT
 10
0.0
 20
0.0
 30
0.0
  9
$PUCSORGRIGHT
 10
0.0
 20
0.0
 30
0.0
  9
$PUCSORGFRONT
 10
0.0
 20
0.0
 30
0.0
  9
$PUCSORGBACK
 10
0.0
 20
0.0
 30
0.0
  9
$USERI1
 70
     0
  9
$USERI2
 70
     0
  9
$USERI3
 70
     0
  9
$USERI4
 70
     0
  9
$USERI5
 70
     0
  9
$USERR1
 40
0.0
  9
$USERR2
 40
0.0
  9
$USERR3
 40
0.0
  9
$USERR4
 40
0.0
  9
$USERR5
 40
0.0
  9
$WORLDVIEW
 70
     1
  9
$SHADEDGE
 70
     3
  9
$SHADEDIF
 70
    70
  9
$TILEMODE
 70
     1
  9
$MAXACTVP
 70
    64
  9
$PINSBASE
 10
0.0
 20
0.0
 30
0.0
  9
$PLIMCHECK
 70
     0
  9
$PEXTMIN
 10
1.000000000000000E+20
 20
1.000000000000000E+20
 30
1.000000000000000E+20
  9
$PEXTMAX
 10
-1.000000000000000E+20
 20
-1.000000000000000E+20
 30
-1.000000000000000E+20
  9
$PLIMMIN
 10
0.0
 20
0.0
  9
$PLIMMAX
 10
12.0
 20
9.0
  9
$UNITMODE
 70
     0
  9
$VISRETAIN
 70
     1
  9
$PLINEGEN
 70
     0
  9
$PSLTSCALE
 70
     1
  9
$TREEDEPTH
 70
  3020
  9
$CMLSTYLE
  2
Standard
  9
$CMLJUST
 70
     0
  9
$CMLSCALE
 40
1.0
  9
$PROXYGRAPHICS
 70
     1
  9
$MEASUREMENT
 70
     0
  9
$CELWEIGHT
370
    -1
  9
$ENDCAPS
280
     0
  9
$JOINSTYLE
280
     0
  9
$LWDISPLAY
290
     1
  9
$INSUNITS
 70
     4
  9
$HYPERLINKBASE
  1

  9
$STYLESHEET
  1

  9
$XEDIT
290
     1
  9
$CEPSNTYPE
380
     0
  9
$PSTYLEMODE
290
     1
  9
$FINGERPRINTGUID
  2
{E5B84AEB-B185-4FC8-B15E-DA780CB711EE}
  9
$VERSIONGUID
  2
{FAEB1C32-E019-11D5-929B-00C0DF256EC4}
  9
$EXTNAMES
290
     1
  9
$PSVPSCALE
 40
0.0
  9
$OLESTARTUP
290
     0
  9
$SORTENTS
280
   127
  9
$INDEXCTL
280
     0
  9
$HIDETEXT
280
     1
  9
$XCLIPFRAME
290
     0
  9
$HALOGAP
280
     0
  9
$OBSCOLOR
 70
   257
  9
$OBSLTYPE
280
     0
  9
$INTERSECTIONDISPLAY
280
     0
  9
$INTERSECTIONCOLOR
 70
   257
  9
$DIMASSOC
280
     2
  9
$PROJECTNAME
  1

  0
ENDSEC
  0
SECTION
  2
CLASSES
  0
CLASS
  1
ACDBDICTIONARYWDFLT
  2
AcDbDictionaryWithDefault
  3
ObjectDBX Classes
 90
        0
 91
        4
280
     0
281
     0
  0
CLASS
  1
VISUALSTYLE
  2
AcDbVisualStyle
  3
ObjectDBX Classes
 90
     4095
 91
        4
280
     0
281
     0
  0
CLASS
  1
MATERIAL
  2
AcDbMaterial
  3
ObjectDBX Classes
 90
     1153
 91
        4
280
     0
281
     0
  0
CLASS
  1
SUN
  2
AcDbSun
  3
SCENEOE
 90
     1024
 91
        4
280
     0
281
     0
  0
ENDSEC
  0
SECTION
  2
TABLES
  0
TABLE
  2
VPORT
  5
8
330
0
100
AcDbSymbolTable
 70
     1
  0
VPORT
  5
29
330
8
100
AcDbSymbolTableRecord
100
AcDbViewportTableRecord
  2
*Active
 70
     0
 10
0.0
 20
0.0
 11
1.0
 21
1.0
 12
0.0
 22
0.0
 13
0.0
 23
0.0
 14
0.5
 24
0.5
 15
0.5
 25
0.5
 16
0.0
 26
0.0
 36
1.0
 17
-403.4833377744635
 27
396.6262532408228
 37
0.0
 40
93.81531149320199
 41
3.197772422206186
 42
50.0
 43
0.0
 44
0.0
 50
0.0
 51
0.0
 71
     0
 72
   100
 73
     1
 74
     3
 75
     0
 76
     0
 77
     0
 78
     0
281
     0
 65
     1
110
0.0
120
0.0
130
0.0
111
1.0
121
0.0
131
0.0
112
0.0
122
1.0
132
0.0
 79
     0
146
0.0
  0
ENDTAB
  0
TABLE
  2
LTYPE
  5
5
330
0
100
AcDbSymbolTable
 70
     1
  0
LTYPE
  5
14
330
5
100
AcDbSymbolTableRecord
100
AcDbLinetypeTableRecord
  2
ByBlock
 70
     0
  3

 72
    65
 73
     0
 40
0.0
  0
LTYPE
  5
15
330
5
100
AcDbSymbolTableRecord
100
AcDbLinetypeTableRecord
  2
ByLayer
 70
     0
  3

 72
    65
 73
     0
 40
0.0
  0
LTYPE
  5
16
330
5
100
AcDbSymbolTableRecord
100
AcDbLinetypeTableRecord
  2
Continuous
 70
     0
  3
Solid line
 72
    65
 73
     0
 40
0.0
  0
ENDTAB
  0
TABLE
  2
LAYER
  5
2
330
0
100
AcDbSymbolTable
 70
     2
  0
LAYER
  5
10
330
2
100
AcDbSymbolTableRecord
100
AcDbLayerTableRecord
  2
0
 70
     0
 62
     7
  6
Continuous
370
    -3
390
F
  0
LAYER
  5
40
330
2
100
AcDbSymbolTableRecord
100
AcDbLayerTableRecord
  2
_U+56FE_U+5C42 1
 70
     0
 62
     7
  6
Continuous
370
    -3
390
F
  0
ENDTAB
  0
TABLE
  2
STYLE
  5
3
330
0
100
AcDbSymbolTable
 70
     1
  0
STYLE
  5
11
330
3
100
AcDbSymbolTableRecord
100
AcDbTextStyleTableRecord
  2
Standard
 70
     0
 40
0.0
 41
1.0
 50
0.0
 71
     0
 42
0.2
  3
txt
  4

  0
ENDTAB
  0
TABLE
  2
VIEW
  5
6
330
0
100
AcDbSymbolTable
 70
     0
  0
ENDTAB
  0
TABLE
  2
UCS
  5
7
330
0
100
AcDbSymbolTable
 70
     0
  0
ENDTAB
  0
TABLE
  2
APPID
  5
9
330
0
100
AcDbSymbolTable
 70
     1
  0
APPID
  5
12
330
9
100
AcDbSymbolTableRecord
100
AcDbRegAppTableRecord
  2
ACAD
 70
     0
  0
ENDTAB
  0
TABLE
  2
DIMSTYLE
  5
A
330
0
100
AcDbSymbolTable
 70
     1
100
AcDbDimStyleTable
  0
DIMSTYLE
105
27
330
A
100
AcDbSymbolTableRecord
100
AcDbDimStyleTableRecord
  2
Standard
 70
     0
178
     0
340
11
  0
ENDTAB
  0
TABLE
  2
BLOCK_RECORD
  5
1
330
0
100
AcDbSymbolTable
 70
     5
  0
BLOCK_RECORD
  5
1F
330
1
100
AcDbSymbolTableRecord
100
AcDbBlockTableRecord
  2
*Model_Space
340
22
  0
BLOCK_RECORD
  5
1B
330
1
100
AcDbSymbolTableRecord
100
AcDbBlockTableRecord
  2
*Paper_Space
340
1E
  0
BLOCK_RECORD
  5
23
330
1
100
AcDbSymbolTableRecord
100
AcDbBlockTableRecord
  2
*Paper_Space0
340
26
  0
BLOCK_RECORD
  5
41
330
1
100
AcDbSymbolTableRecord
100
AcDbBlockTableRecord
  2
block 2
340
0
102
{BLKREFS
331
42
102
}
  0
BLOCK_RECORD
  5
45
330
1
100
AcDbSymbolTableRecord
100
AcDbBlockTableRecord
  2
block 3
340
0
102
{BLKREFS
331
46
102
}
  0
BLOCK_RECORD
  5
49
330
1
100
AcDbSymbolTableRecord
100
AcDbBlockTableRecord
  2
block 4
340
0
102
{BLKREFS
331
4A
102
}
  0
BLOCK_RECORD
  5
50
330
1
100
AcDbSymbolTableRecord
100
AcDbBlockTableRecord
  2
block 5
340
0
102
{BLKREFS
331
51
102
}
  0
ENDTAB
  0
ENDSEC
  0
SECTION
  2
BLOCKS
  0
BLOCK
  5
20
330
1F
100
AcDbEntity
  8
0
100
AcDbBlockBegin
  2
*Model_Space
 70
     0
 10
0.0
 20
0.0
 30
0.0
  3
*Model_Space
  1

  0
ENDBLK
  5
21
330
1F
100
AcDbEntity
  8
0
100
AcDbBlockEnd
  0
BLOCK
  5
1C
330
1B
100
AcDbEntity
 67
     1
  8
0
100
AcDbBlockBegin
  2
*Paper_Space
 70
     0
 10
0.0
 20
0.0
 30
0.0
  3
*Paper_Space
  1

  0
ENDBLK
  5
1D
330
1B
100
AcDbEntity
 67
     1
  8
0
100
AcDbBlockEnd
  0
BLOCK
  5
24
330
23
100
AcDbEntity
  8
0
100
AcDbBlockBegin
  2
*Paper_Space0
 70
     0
 10
0.0
 20
0.0
 30
0.0
  3
*Paper_Space0
  1

  0
ENDBLK
  5
25
330
23
100
AcDbEntity
  8
0
100
AcDbBlockEnd
  0
BLOCK
  5
43
330
41
100
AcDbEntity
  8
0
100
AcDbBlockBegin
  2
block 2
 70
     0
 10
0.0
 20
0.0
 30
0.0
  3
block 2
  1

  0
INSERT
  5
46
330
41
100
AcDbEntity
  8
_U+56FE_U+5C42 1
100
AcDbBlockReference
  2
block 3
 10
0.0
 20
0.0
 30
0.0
  0
INSERT
  5
51
330
41
100
AcDbEntity
  8
_U+56FE_U+5C42 1
100
AcDbBlockReference
  2
block 5
 10
0.0
 20
0.0
 30
0.0
  0
ENDBLK
  5
44
330
41
100
AcDbEntity
  8
0
100
AcDbBlockEnd
  0
BLOCK
  5
47
330
45
100
AcDbEntity
  8
0
100
AcDbBlockBegin
  2
block 3
 70
     0
 10
0.0
 20
0.0
 30
0.0
  3
block 3
  1

  0
INSERT
  5
4A
330
45
100
AcDbEntity
  8
_U+56FE_U+5C42 1
100
AcDbBlockReference
  2
block 4
 10
0.0
 20
0.0
 30
0.0
  0
ENDBLK
  5
48
330
45
100
AcDbEntity
  8
0
100
AcDbBlockEnd
  0
BLOCK
  5
4B
330
49
100
AcDbEntity
  8
0
100
AcDbBlockBegin
  2
block 4
 70
     0
 10
0.0
 20
0.0
 30
0.0
  3
block 4
  1

  0
SPLINE
  5
4D
330
49
100
AcDbEntity
  8
_U+56FE_U+5C42 1
370
     0
100
AcDbSpline
210
0.0
220
0.0
230
1.0
 70
    11
 71
     3
 72
   530
 73
   526
 74
     0
 42
0.0000000001
 43
0.0000000001
 12
1.0
 22
0.0
 32
0.0
 13
1.0
 23
0.0
 33
0.0
 40
0.0
 40
0.0
 40
0.0
 40
0.0
 40
1.0
 40
1.0
 40
1.0
 40
2.0
 40
2.0
 40
2.0
 40
3.0
 40
3.0
 40
3.0
 40
4.0
 40
4.0
 40
4.0
 40
5.0
 40
5.0
 40
5.0
 40
6.0
 40
6.0
 40
6.0
 40
7.0
 40
7.0
 40
7.0
 40
8.0
 40
8.0
 40
8.0
 40
9.0
 40
9.0
 40
9.0
 40
10.0
 40
10.0
 40
10.0
 40
11.0
 40
11.0
 40
11.0
 40
12.0
 40
12.0
 40
12.0
 40
13.0
 40
13.0
 40
13.0
 40
14.0
 40
14.0
 40
14.0
 40
15.0
 40
15.0
 40
15.0
 40
16.0
 40
16.0
 40
16.0
 40
17.0
 40
17.0
 40
17.0
 40
18.0
 40
18.0
 40
18.0
 40
19.0
 40
19.0
 40
19.0
 40
20.0
 40
20.0
 40
20.0
 40
21.0
 40
21.0
 40
21.0
 40
22.0
 40
22.0
 40
22.0
 40
23.0
 40
23.0
 40
23.0
 40
24.0
 40
24.0
 40
24.0
 40
25.0
 40
25.0
 40
25.0
 40
26.0
 40
26.0
 40
26.0
 40
27.0
 40
27.0
 40
27.0
 40
28.0
 40
28.0
 40
28.0
 40
29.0
 40
29.0
 40
29.0
 40
30.0
 40
30.0
 40
30.0
 40
31.0
 40
31.0
 40
31.0
 40
32.0
 40
32.0
 40
32.0
 40
33.0
 40
33.0
 40
33.0
 40
34.0
 40
34.0
 40
34.0
 40
35.0
 40
35.0
 40
35.0
 40
36.0
 40
36.0
 40
36.0
 40
37.0
 40
37.0
 40
37.0
 40
38.0
 40
38.0
 40
38.0
 40
39.0
 40
39.0
 40
39.0
 40
40.0
 40
40.0
 40
40.0
 40
41.0
 40
41.0
 40
41.0
 40
42.0
 40
42.0
 40
42.0
 40
43.0
 40
43.0
 40
43.0
 40
44.0
 40
44.0
 40
44.0
 40
45.0
 40
45.0
 40
45.0
 40
46.0
 40
46.0
 40
46.0
 40
47.0
 40
47.0
 40
47.0
 40
48.0
 40
48.0
 40
48.0
 40
49.0
 40
49.0
 40
49.0
 40
50.0
 40
50.0
 40
50.0
 40
51.0
 40
51.0
 40
51.0
 40
52.0
 40
52.0
 40
52.0
 40
53.0
 40
53.0
 40
53.0
 40
54.0
 40
54.0
 40
54.0
 40
55.0
 40
55.0
 40
55.0
 40
56.0
 40
56.0
 40
56.0
 40
57.0
 40
57.0
 40
57.0
 40
58.0
 40
58.0
 40
58.0
 40
59.0
 40
59.0
 40
59.0
 40
60.0
 40
60.0
 40
60.0
 40
61.0
 40
61.0
 40
61.0
 40
62.0
 40
62.0
 40
62.0
 40
63.0
 40
63.0
 40
63.0
 40
64.0
 40
64.0
 40
64.0
 40
65.0
 40
65.0
 40
65.0
 40
66.0
 40
66.0
 40
66.0
 40
67.0
 40
67.0
 40
67.0
 40
68.0
 40
68.0
 40
68.0
 40
69.0
 40
69.0
 40
69.0
 40
70.0
 40
70.0
 40
70.0
 40
71.0
 40
71.0
 40
71.0
 40
72.0
 40
72.0
 40
72.0
 40
73.0
 40
73.0
 40
73.0
 40
74.0
 40
74.0
 40
74.0
 40
75.0
 40
75.0
 40
75.0
 40
76.0
 40
76.0
 40
76.0
 40
77.0
 40
77.0
 40
77.0
 40
78.0
 40
78.0
 40
78.0
 40
79.0
 40
79.0
 40
79.0
 40
80.0
 40
80.0
 40
80.0
 40
81.0
 40
81.0
 40
81.0
 40
82.0
 40
82.0
 40
82.0
 40
83.0
 40
83.0
 40
83.0
 40
84.0
 40
84.0
 40
84.0
 40
85.0
 40
85.0
 40
85.0
 40
86.0
 40
86.0
 40
86.0
 40
87.0
 40
87.0
 40
87.0
 40
88.0
 40
88.0
 40
88.0
 40
89.0
 40
89.0
 40
89.0
 40
90.0
 40
90.0
 40
90.0
 40
91.0
 40
91.0
 40
91.0
 40
92.0
 40
92.0
 40
92.0
 40
93.0
 40
93.0
 40
93.0
 40
94.0
 40
94.0
 40
94.0
 40
95.0
 40
95.0
 40
95.0
 40
96.0
 40
96.0
 40
96.0
 40
97.0
 40
97.0
 40
97.0
 40
98.0
 40
98.0
 40
98.0
 40
99.0
 40
99.0
 40
99.0
 40
100.0
 40
100.0
 40
100.0
 40
101.0
 40
101.0
 40
101.0
 40
102.0
 40
102.0
 40
102.0
 40
103.0
 40
103.0
 40
103.0
 40
104.0
 40
104.0
 40
104.0
 40
105.0
 40
105.0
 40
105.0
 40
106.0
 40
106.0
 40
106.0
 40
107.0
 40
107.0
 40
107.0
 40
108.0
 40
108.0
 40
108.0
 40
109.0
 40
109.0
 40
109.0
 40
110.0
 40
110.0
 40
110.0
 40
111.0
 40
111.0
 40
111.0
 40
112.0
 40
112.0
 40
112.0
 40
113.0
 40
113.0
 40
113.0
 40
114.0
 40
114.0
 40
114.0
 40
115.0
 40
115.0
 40
115.0
 40
116.0
 40
116.0
 40
116.0
 40
117.0
 40
117.0
 40
117.0
 40
118.0
 40
118.0
 40
118.0
 40
119.0
 40
119.0
 40
119.0
 40
120.0
 40
120.0
 40
120.0
 40
121.0
 40
121.0
 40
121.0
 40
122.0
 40
122.0
 40
122.0
 40
123.0
 40
123.0
 40
123.0
 40
124.0
 40
124.0
 40
124.0
 40
125.0
 40
125.0
 40
125.0
 40
126.0
 40
126.0
 40
126.0
 40
127.0
 40
127.0
 40
127.0
 40
128.0
 40
128.0
 40
128.0
 40
129.0
 40
129.0
 40
129.0
 40
130.0
 40
130.0
 40
130.0
 40
131.0
 40
131.0
 40
131.0
 40
132.0
 40
132.0
 40
132.0
 40
133.0
 40
133.0
 40
133.0
 40
134.0
 40
134.0
 40
134.0
 40
135.0
 40
135.0
 40
135.0
 40
136.0
 40
136.0
 40
136.0
 40
137.0
 40
137.0
 40
137.0
 40
138.0
 40
138.0
 40
138.0
 40
139.0
 40
139.0
 40
139.0
 40
140.0
 40
140.0
 40
140.0
 40
141.0
 40
141.0
 40
141.0
 40
142.0
 40
142.0
 40
142.0
 40
143.0
 40
143.0
 40
143.0
 40
144.0
 40
144.0
 40
144.0
 40
145.0
 40
145.0
 40
145.0
 40
146.0
 40
146.0
 40
146.0
 40
147.0
 40
147.0
 40
147.0
 40
148.0
 40
148.0
 40
148.0
 40
149.0
 40
149.0
 40
149.0
 40
150.0
 40
150.0
 40
150.0
 40
151.0
 40
151.0
 40
151.0
 40
152.0
 40
152.0
 40
152.0
 40
153.0
 40
153.0
 40
153.0
 40
154.0
 40
154.0
 40
154.0
 40
155.0
 40
155.0
 40
155.0
 40
156.0
 40
156.0
 40
156.0
 40
157.0
 40
157.0
 40
157.0
 40
158.0
 40
158.0
 40
158.0
 40
159.0
 40
159.0
 40
159.0
 40
160.0
 40
160.0
 40
160.0
 40
161.0
 40
161.0
 40
161.0
 40
162.0
 40
162.0
 40
162.0
 40
163.0
 40
163.0
 40
163.0
 40
164.0
 40
164.0
 40
164.0
 40
165.0
 40
165.0
 40
165.0
 40
166.0
 40
166.0
 40
166.0
 40
167.0
 40
167.0
 40
167.0
 40
168.0
 40
168.0
 40
168.0
 40
169.0
 40
169.0
 40
169.0
 40
170.0
 40
170.0
 40
170.0
 40
171.0
 40
171.0
 40
171.0
 40
172.0
 40
172.0
 40
172.0
 40
173.0
 40
173.0
 40
173.0
 40
174.0
 40
174.0
 40
174.0
 40
175.0
 40
175.0
 40
175.0
 40
175.0
 10
-520.6485818197077
 20
443.1811312097342
 30
0.0
 10
-516.2704683496651
 20
443.1811312097342
 30
0.0
 10
-511.8854216249584
 20
442.2564245177996
 30
0.0
 10
-507.6151827072976
 20
440.4327201589891
 30
0.0
 10
-507.6151827072976
 20
440.4327201589891
 30
0.0
 10
-506.3864032750961
 20
439.9088933904568
 30
0.0
 10
-506.3864032750961
 20
439.9088933904568
 30
0.0
 10
-504.3268821303202
 20
439.0316428888315
 30
0.0
 10
-502.1972532924195
 20
438.1245923112588
 30
0.0
 10
-500.128172007672
 20
437.1817127406395
 30
0.0
 10
-498.5025175755697
 20
436.4409310839237
 30
0.0
 10
-496.8610587679289
 20
435.659281982014
 30
0.0
 10
-495.2736018320193
 20
434.9033419051631
 30
0.0
 10
-493.9590395222351
 20
434.2773680554932
 30
0.0
 10
-492.5998201622234
 20
433.6300776775083
 30
0.0
 10
-491.2548979484754
 20
433.0085393882757
 30
0.0
 10
-486.9972336293358
 20
431.0408300381816
 30
0.0
 10
-483.0054445542704
 20
429.6965537798372
 30
0.0
 10
-479.0515515295427
 20
428.8989711113082
 30
0.0
 10
-477.1530024713151
 20
428.5159626207356
 30
0.0
 10
-475.1903746370618
 20
428.3217453627547
 30
0.0
 10
-473.2181435991434
 20
428.3217453627547
 30
0.0
 10
-471.4305696792344
 20
428.3217453627547
 30
0.0
 10
-469.5834386711241
 20
428.4812963474153
 30
0.0
 10
-467.7280394338493
 20
428.7959627562993
 30
0.0
 10
-464.0084990295057
 20
429.4267597396486
 30
0.0
 10
-460.1888355376221
 20
430.4231244176764
 30
0.0
 10
-456.3751148354505
 20
431.7574098991136
 30
0.0
 10
-452.2679581253228
 20
433.1944022897049
 30
0.0
 10
-448.0152461309432
 20
434.4153441296774
 30
0.0
 10
-443.735145627456
 20
435.3863012285015
 30
0.0
 10
-440.2948732758855
 20
436.1667445469913
 30
0.0
 10
-437.1668127026658
 20
436.5461356873045
 30
0.0
 10
-434.172292643193
 20
436.5461356873045
 30
0.0
 10
-433.7933321398156
 20
436.5461356873045
 30
0.0
 10
-433.4110987957271
 20
436.5398914517374
 30
0.0
 10
-433.0362724069319
 20
436.5276182990713
 30
0.0
 10
-429.6767014171034
 20
436.417202988769
 30
0.0
 10
-426.4669920808832
 20
435.8696481250821
 30
0.0
 10
-423.4961139891781
 20
434.9000690644521
 30
0.0
 10
-420.8411942171638
 20
434.0335844862182
 30
0.0
 10
-418.8419191796862
 20
432.7266444501951
 30
0.0
 10
-417.3842131524899
 20
430.9046195754336
 30
0.0
 10
-416.9211923192723
 20
430.3258435339116
 30
0.0
 10
-416.6022195410317
 20
429.7369044607082
 30
0.0
 10
-416.4090358116964
 20
429.1041696111484
 30
0.0
 10
-416.1855352420908
 20
428.3723021390007
 30
0.0
 10
-416.3469379655747
 20
427.4857929432588
 30
0.0
 10
-416.8407493396917
 20
426.7327381338768
 30
0.0
 10
-417.2865016317895
 20
426.0528916035562
 30
0.0
 10
-417.9340934556294
 20
425.6033927701183
 30
0.0
 10
-418.5731156044496
 20
425.5304428732181
 30
0.0
 10
-418.8911409814318
 20
425.4940540521551
 30
0.0
 10
-419.2092094221074
 20
425.4565455750595
 30
0.0
 10
-419.5272347990896
 20
425.4189509705767
 30
0.0
 10
-420.5818215908181
 20
425.2944538324785
 30
0.0
 10
-421.6723235029804
 20
425.1656933887173
 30
0.0
 10
-422.7445664090708
 20
425.0857241097659
 30
0.0
 10
-427.786851224976
 20
424.7097350012444
 30
0.0
 10
-432.2578530820397
 20
422.9205677246735
 30
0.0
 10
-436.0334624154057
 20
419.7679608461214
 30
0.0
 10
-438.4990311268119
 20
417.7092579115233
 30
0.0
 10
-440.0971678587258
 20
414.9945226691464
 30
0.0
 10
-440.783473943081
 20
411.6992027101177
 30
0.0
 10
-441.0148551686091
 20
410.5881163524311
 30
0.0
 10
-440.9052580684847
 20
409.5410657070765
 30
0.0
 10
-440.4577401649507
 20
408.5869465124366
 30
0.0
 10
-440.0958328842252
 20
407.8155465695956
 30
0.0
 10
-439.5746330010004
 20
407.3092467243446
 30
0.0
 10
-438.8642973756355
 20
407.0392373656881
 30
0.0
 10
-438.0659395606224
 20
406.7357244534376
 30
0.0
 10
-437.2579354782507
 20
406.4130481975504
 30
0.0
 10
-436.4765447585024
 20
406.1009656102804
 30
0.0
 10
-436.4765447585024
 20
406.1009656102804
 30
0.0
 10
-435.7703863114133
 20
405.8193721180547
 30
0.0
 10
-435.7703863114133
 20
405.8193721180547
 30
0.0
 10
-435.5627331810399
 20
405.7368190174894
 30
0.0
 10
-435.3912535532616
 20
405.6644720122992
 30
0.0
 10
-435.2290756832934
 20
405.5798949181363
 30
0.0
 10
-434.9986418590238
 20
405.4597902767817
 30
0.0
 10
-434.9297830130124
 20
405.3767204118937
 30
0.0
 10
-434.976119547289
 20
405.1216972185981
 30
0.0
 10
-434.976119547289
 20
405.1216972185981
 30
0.0
 10
-435.0516532658031
 20
404.7058311298348
 30
0.0
 10
-435.0516532658031
 20
404.7058311298348
 30
0.0
 10
-435.0516532658031
 20
404.7058311298348
 30
0.0
 10
-434.6290261771501
 20
404.7058311298348
 30
0.0
 10
-434.6290261771501
 20
404.7058311298348
 30
0.0
 10
-434.3527725829266
 20
404.7058311298348
 30
0.0
 10
-434.0868973388525
 20
404.7068646584804
 30
0.0
 10
-433.828084540523
 20
404.7078120597388
 30
0.0
 10
-433.5834827610703
 20
404.7087163973038
 30
0.0
 10
-433.3452544082652
 20
404.7096207348686
 30
0.0
 10
-433.1104711509455
 20
404.7096207348686
 30
0.0
 10
-432.8289207224134
 20
404.7096207348686
 30
0.0
 10
-432.5525810008028
 20
404.7083288240617
 30
0.0
 10
-432.2761551518051
 20
404.7042377731729
 30
0.0
 10
-428.9419917411803
 20
404.6546714618789
 30
0.0
 10
-425.6079575216363
 20
404.6005834627605
 30
0.0
 10
-422.2738802383986
 20
404.54550499869
 30
0.0
 10
-420.077115102229
 20
404.5092453687078
 30
0.0
 10
-417.880393029753
 20
404.4722536559349
 30
0.0
 10
-415.683670957277
 20
404.4352619431621
 30
0.0
 10
-412.8688556910536
 20
404.3878488165463
 30
0.0
 10
-410.0539973611367
 20
404.3404787536241
 30
0.0
 10
-407.2391390312197
 20
404.2945728562831
 30
0.0
 10
-404.9613710874532
 20
404.2574519524296
 30
0.0
 10
-402.6835600799932
 20
404.2241206536098
 30
0.0
 10
-400.4057490725331
 20
404.1908754821771
 30
0.0
 10
-400.4057490725331
 20
404.1908754821771
 30
0.0
 10
-398.8716480529514
 20
404.1683962341359
 30
0.0
 10
-398.8716480529514
 20
404.1683962341359
 30
0.0
 10
-397.3669164723814
 20
404.1463045593367
 30
0.0
 10
-395.8620987644243
 20
404.1247727125539
 30
0.0
 10
-394.3573241201607
 20
404.1032839294646
 30
0.0
 10
-394.3573241201607
 20
404.1032839294646
 30
0.0
 10
-390.3180357910924
 20
404.0451479431511
 30
0.0
 10
-390.3180357910924
 20
404.0451479431511
 30
0.0
 10
-387.4241125197889
 20
404.0029024597632
 30
0.0
 10
-384.5301892484855
 20
403.9598818298911
 30
0.0
 10
-381.6362229134886
 20
403.9163013720027
 30
0.0
 10
-381.6362229134886
 20
403.9163013720027
 30
0.0
 10
-378.0591802711537
 20
403.8616535448679
 30
0.0
 10
-378.0591802711537
 20
403.8616535448679
 30
0.0
 10
-376.5045378697411
 20
403.8376670675519
 30
0.0
 10
-374.9498093409414
 20
403.8137236539294
 30
0.0
 10
-373.3951238758353
 20
403.7907276415654
 30
0.0
 10
-370.4801424583782
 20
403.747534756919
 30
0.0
 10
-367.5651610409212
 20
403.7060213563218
 30
0.0
 10
-364.6501365597707
 20
403.6647663378859
 30
0.0
 10
-364.6501365597707
 20
403.6647663378859
 30
0.0
 10
-359.6219551035081
 20
403.5947878358418
 30
0.0
 10
-359.6219551035081
 20
403.5947878358418
 30
0.0
 10
-359.6219551035081
 20
403.5947878358418
 30
0.0
 10
-355.7847862201901
 20
403.5415180469011
 30
0.0
 10
-355.7847862201901
 20
403.5415180469011
 30
0.0
 10
-355.7847862201901
 20
403.5415180469011
 30
0.0
 10
-354.724105915822
 20
403.526661072621
 30
0.0
 10
-354.724105915822
 20
403.526661072621
 30
0.0
 10
-352.037039096561
 20
403.4890664681382
 30
0.0
 10
-349.3499507454533
 20
403.4514718636554
 30
0.0
 10
-346.6629269898859
 20
403.4127145394463
 30
0.0
 10
-345.2029385869306
 20
403.3916563932927
 30
0.0
 10
-343.7429932476689
 20
403.3699953554292
 30
0.0
 10
-342.2830263765603
 20
403.3482912538722
 30
0.0
 10
-342.2830263765603
 20
403.3482912538722
 30
0.0
 10
-338.1070969478083
 20
403.286839363154
 30
0.0
 10
-338.1070969478083
 20
403.286839363154
 30
0.0
 10
-338.1070969478083
 20
403.286839363154
 30
0.0
 10
-336.839237213696
 20
403.268494229695
 30
0.0
 10
-336.839237213696
 20
403.268494229695
 30
0.0
 10
-334.3046589333509
 20
403.2318470264707
 30
0.0
 10
-331.7700591211591
 20
403.1951567595528
 30
0.0
 10
-329.2354377771204
 20
403.1617823970394
 30
0.0
 10
-329.2354377771204
 20
403.1617823970394
 30
0.0
 10
-327.6825394552973
 20
403.141197951515
 30
0.0
 10
-327.6825394552973
 20
403.141197951515
 30
0.0
 10
-324.871578389648
 20
403.1039047928872
 30
0.0
 10
-321.9648867332024
 20
403.0653197234524
 30
0.0
 10
-319.105651267066
 20
403.0377589595705
 30
0.0
 10
-316.3858129770016
 20
403.0116192975761
 30
0.0
 10
-314.1190262750944
 20
402.9915946800681
 30
0.0
 10
-311.7754785394064
 20
402.9915946800681
 30
0.0
 10
-311.3230298429592
 20
402.9915946800681
 30
0.0
 10
-310.8707534012862
 20
402.9924128902458
 30
0.0
 10
-310.4182616411454
 20
402.9940923742949
 30
0.0
 10
-309.5229459200694
 20
402.997451342393
 30
0.0
 10
-308.5708076553335
 20
403.0249259788879
 30
0.0
 10
-307.6383710304038
 20
403.3138833627132
 30
0.0
 10
-306.3828705763448
 20
403.7029638340786
 30
0.0
 10
-305.3323102399647
 20
404.4384917201795
 30
0.0
 10
-304.4266592324328
 20
405.5625833133229
 30
0.0
 10
-304.0922911837426
 20
405.9775881282148
 30
0.0
 10
-303.7752347398657
 20
406.4124453058405
 30
0.0
 10
-303.4686212416784
 20
406.8330484008959
 30
0.0
 10
-303.4686212416784
 20
406.8330484008959
 30
0.0
 10
-303.2106697172204
 20
407.1859553696662
 30
0.0
 10
-303.2106697172204
 20
407.1859553696662
 30
0.0
 10
-302.7306171931976
 20
407.8393177284439
 30
0.0
 10
-302.4661415191643
 20
407.958862541782
 30
0.0
 10
-302.1183160662347
 20
407.958862541782
 30
0.0
 10
-301.9180052956143
 20
407.958862541782
 30
0.0
 10
-301.6657381787068
 20
407.9113202240856
 30
0.0
 10
-301.3243507479654
 20
407.8092162066415
 30
0.0
 10
-301.3243507479654
 20
407.8092162066415
 30
0.0
 10
-300.0704651824151
 20
407.4343467541527
 30
0.0
 10
-300.0704651824151
 20
407.4343467541527
 30
0.0
 10
-298.604211012046
 20
406.9961306084289
 30
0.0
 10
-297.1379568416769
 20
406.5579575263987
 30
0.0
 10
-295.6730161139615
 20
406.1150474380763
 30
0.0
 10
-293.4067031126835
 20
405.4299040734472
 30
0.0
 10
-291.0640597145604
 20
404.7173291360169
 30
0.0
 10
-288.710241287957
 20
403.9970888611318
 30
0.0
 10
-287.8287705443623
 20
403.7273809483303
 30
0.0
 10
-286.9482256701792
 20
403.4545724495921
 30
0.0
 10
-286.0677023278429
 20
403.1817208871603
 30
0.0
 10
-285.2112731220566
 20
402.9163624074089
 30
0.0
 10
-284.3548439162702
 20
402.650960863964
 30
0.0
 10
-283.4975103729191
 20
402.3884876516815
 30
0.0
 10
-282.114519854059
 20
401.9650423528508
 30
0.0
 10
-280.7307326568681
 20
401.5441378119403
 30
0.0
 10
-279.3469023959836
 20
401.12323327103
 30
0.0
 10
-278.3900917204958
 20
400.8321657662199
 30
0.0
 10
-277.4332379813144
 20
400.5410982614099
 30
0.0
 10
-276.4766641561413
 20
400.2492125464221
 30
0.0
 10
-275.6220005617911
 20
399.9884618818822
 30
0.0
 10
-274.7675738177556
 20
399.7269791345518
 30
0.0
 10
-273.9131255418733
 20
399.4654963872213
 30
0.0
 10
-272.3673327294885
 20
398.9923986497094
 30
0.0
 10
-270.8215829807972
 20
398.5193870395846
 30
0.0
 10
-269.274541321299
 20
398.0504664803485
 30
0.0
 10
-269.051083815387
 20
397.9827703540633
 30
0.0
 10
-268.8244395961511
 20
397.929069928187
 30
0.0
 10
-268.6052023322085
 20
397.8771351137469
 30
0.0
 10
-268.275312907649
 20
397.7989745099253
 30
0.0
 10
-267.963725552855
 20
397.7251202754603
 30
0.0
 10
-267.6727011117385
 20
397.6092358760752
 30
0.0
 10
-266.3326450953635
 20
397.0755905854099
 30
0.0
 10
-264.9346684111426
 20
396.6853043306247
 30
0.0
 10
-263.5826622198031
 20
396.3078941202156
 30
0.0
 10
-263.0806256802151
 20
396.1677217976595
 30
0.0
 10
-262.5785891406271
 20
396.027592538797
 30
0.0
 10
-262.0787703812576
 20
395.8801424520282
 30
0.0
 10
-261.9177982947094
 20
395.8326431980254
 30
0.0
 10
-261.7544577050149
 20
395.7921202623801
 30
0.0
 10
-261.5912032427077
 20
395.7517265178155
 30
0.0
 10
-261.3461708263193
 20
395.6910497735816
 30
0.0
 10
-261.1147896007912
 20
395.6337750611393
 30
0.0
 10
-260.8947341266709
 20
395.5530736993973
 30
0.0
 10
-260.3876376030889
 20
395.3670816068874
 30
0.0
 10
-259.8754380318193
 20
395.1604620051596
 30
0.0
 10
-259.3800548328872
 20
394.9606464670151
 30
0.0
 10
-259.1341396107807
 20
394.8614707807334
 30
0.0
 10
-258.8882028568274
 20
394.7622520307582
 30
0.0
 10
-258.6416201474707
 20
394.6649280832999
 30
0.0
 10
-258.5454373878919
 20
394.626945905575
 30
0.0
 10
-258.47464067567
 20
394.5690252377293
 30
0.0
 10
-258.4417615456326
 20
394.4099048900043
 30
0.0
 10
-258.1602326489474
 20
393.0482308994593
 30
0.0
 10
-257.4180298903439
 20
391.8564001163371
 30
0.0
 10
-256.1059222110929
 20
390.6591433078257
 30
0.0
 10
-255.363461070328
 20
389.9817083443449
 30
0.0
 10
-254.7732516181643
 20
389.3860082712516
 30
0.0
 10
-254.3062473932919
 20
388.6805819069531
 30
0.0
 10
-253.9991386626287
 20
388.2167428635578
 30
0.0
 10
-253.8410303117025
 20
387.7028638082392
 30
0.0
 10
-253.8362287098699
 20
387.1532849509547
 30
0.0
 10
-253.8287140953427
 20
386.2858099077689
 30
0.0
 10
-254.208492808898
 20
385.6502328544338
 30
0.0
 10
-254.9973550794798
 20
385.2102080335803
 30
0.0
 10
-255.8061989038762
 20
384.7590727797868
 30
0.0
 10
-256.7663254837685
 20
384.5397924521507
 30
0.0
 10
-257.9327271558402
 20
384.5397924521507
 30
0.0
 10
-257.9892913173387
 20
384.5397924521507
 30
0.0
 10
-258.0458554788371
 20
384.5403092164735
 30
0.0
 10
-258.1025272995694
 20
384.5412996814255
 30
0.0
 10
-259.3906054378108
 20
384.5633913562246
 30
0.0
 10
-260.7051031520546
 20
384.6830222969499
 30
0.0
 10
-261.9763218542651
 20
384.7987344415607
 30
0.0
 10
-261.9763218542651
 20
384.7987344415607
 30
0.0
 10
-262.0262972706479
 20
384.8032991930787
 30
0.0
 10
-262.0262972706479
 20
384.8032991930787
 30
0.0
 10
-263.3173468037454
 20
384.9207338854322
 30
0.0
 10
-264.6298635880852
 20
385.0493651381126
 30
0.0
 10
-265.8991659559319
 20
385.1737761488238
 30
0.0
 10
-267.6664138124779
 20
385.3469783243447
 30
0.0
 10
-269.4938001170884
 20
385.5261232895777
 30
0.0
 10
-271.2943577406074
 20
385.6780520004772
 30
0.0
 10
-274.1478872673463
 20
385.9188211112026
 30
0.0
 10
-276.9356585340104
 20
386.0408636187676
 30
0.0
 10
-279.5802430195689
 20
386.0408636187676
 30
0.0
 10
-279.8248232671749
 20
386.0408636187676
 30
0.0
 10
-280.0692312600066
 20
386.0398731538156
 30
0.0
 10
-280.3139406986932
 20
386.0378060965244
 30
0.0
 10
-282.6244801132632
 20
386.0183843707263
 30
0.0
 10
-285.0879171718378
 20
385.8686949718922
 30
0.0
 10
-288.0665897920784
 20
385.5666462252229
 30
0.0
 10
-291.4728418257321
 20
385.2212754028266
 30
0.0
 10
-294.8713423945439
 20
384.6157137439068
 30
0.0
 10
-297.7895320571715
 20
384.0751782622712
 30
0.0
 10
-297.7895320571715
 20
384.0751782622712
 30
0.0
 10
-297.8611469795712
 20
384.0625175363629
 30
0.0
 10
-297.8611469795712
 20
384.0625175363629
 30
0.0
 10
-297.9255917969921
 20
384.0513640397294
 30
0.0
 10
-297.9899935507195
 20
384.0399521609345
 30
0.0
 10
-298.0535555624224
 20
384.0249659955736
 30
0.0
 10
-298.2128696967684
 20
383.9873713910908
 30
0.0
 10
-298.3605996975453
 20
383.9683372385348
 30
0.0
 10
-298.4926114501707
 20
383.9683372385348
 30
0.0
 10
-298.9355000066464
 20
383.9683372385348
 30
0.0
 10
-299.2616644217124
 20
384.1767655153924
 30
0.0
 10
-299.5831994897201
 20
384.6652369915073
 30
0.0
 10
-300.6263744026538
 20
386.2499809147222
 30
0.0
 10
-301.8998539487764
 20
387.596410357745
 30
0.0
 10
-303.3683258993641
 20
388.6671890982543
 30
0.0
 10
-305.1968749237008
 20
390.0005271784331
 30
0.0
 10
-307.3079002459812
 20
390.6766271674133
 30
0.0
 10
-309.6428137111093
 20
390.6766702311069
 30
0.0
 10
-309.6428137111093
 20
390.6766702311069
 30
0.0
 10
-309.7034258598029
 20
390.6765410400262
 30
0.0
 10
-309.7034258598029
 20
390.6765410400262
 30
0.0
 10
-309.7034258598029
 20
390.6765410400262
 30
0.0
 10
-313.3307238325289
 20
390.6593155625999
 30
0.0
 10
-313.3307238325289
 20
390.6593155625999
 30
0.0
 10
-316.8200887947642
 20
390.6429944227386
 30
0.0
 10
-320.3094537569995
 20
390.6267163465708
 30
0.0
 10
-323.7987756555412
 20
390.6038495252874
 30
0.0
 10
-326.580733323574
 20
390.5855905192156
 30
0.0
 10
-329.4088122074156
 20
390.5541970866063
 30
0.0
 10
-332.1437658539215
 20
390.5238371826425
 30
0.0
 10
-332.1437658539215
 20
390.5238371826425
 30
0.0
 10
-332.9238861947096
 20
390.5151813802358
 30
0.0
 10
-332.9238861947096
 20
390.5151813802358
 30
0.0
 10
-336.4260626057807
 20
390.4764671197203
 30
0.0
 10
-339.9282390168517
 20
390.4346522732681
 30
0.0
 10
-343.430393896076
 20
390.3889186307014
 30
0.0
 10
-344.9697056225792
 20
390.3688509494998
 30
0.0
 10
-346.5089527535421
 20
390.3460702556036
 30
0.0
 10
-348.0481998845049
 20
390.3232464980138
 30
0.0
 10
-349.4867640999113
 20
390.3019299696988
 30
0.0
 10
-350.9253067834709
 20
390.2806134413839
 30
0.0
 10
-352.3638494670306
 20
390.2614931614407
 30
0.0
 10
-354.1698761796325
 20
390.2375497478182
 30
0.0
 10
-355.9759028922343
 20
390.2156733914869
 30
0.0
 10
-357.7819296048362
 20
390.193753971462
 30
0.0
 10
-359.3734775916345
 20
390.1745045004382
 30
0.0
 10
-360.9649825147392
 20
390.1552119657208
 30
0.0
 10
-362.5564659059972
 20
390.1344983291157
 30
0.0
 10
-365.185547461872
 20
390.1003057564246
 30
0.0
 10
-367.8145428903597
 20
390.0631417888775
 30
0.0
 10
-370.443581382541
 20
390.0259347576368
 30
0.0
 10
-370.443581382541
 20
390.0259347576368
 30
0.0
 10
-371.48959849925
 20
390.0111639107437
 30
0.0
 10
-371.48959849925
 20
390.0111639107437
 30
0.0
 10
-374.3836078979406
 20
389.97029646555
 30
0.0
 10
-377.2775742329376
 20
389.9284816190977
 30
0.0
 10
-380.1716266953217
 20
389.8861069446292
 30
0.0
 10
-380.1716266953217
 20
389.8861069446292
 30
0.0
 10
-384.0001613080798
 20
389.8291767417354
 30
0.0
 10
-384.0001613080798
 20
389.8291767417354
 30
0.0
 10
-385.6178489568725
 20
389.8049749459515
 30
0.0
 10
-387.2355796693587
 20
389.7807300864741
 30
0.0
 10
-388.8533103818448
 20
389.7573895645615
 30
0.0
 10
-391.2163444388713
 20
389.7233261829512
 30
0.0
 10
-393.5793354322041
 20
389.6905116484541
 30
0.0
 10
-395.942326425537
 20
389.6576971139571
 30
0.0
 10
-395.942326425537
 20
389.6576971139571
 30
0.0
 10
-397.8496174135585
 20
389.6312129424143
 30
0.0
 10
-397.8496174135585
 20
389.6312129424143
 30
0.0
 10
-397.8496174135585
 20
389.6312129424143
 30
0.0
 10
-401.0893852078874
 20
389.5865989558803
 30
0.0
 10
-401.0893852078874
 20
389.5865989558803
 30
0.0
 10
-402.9662301645579
 20
389.5608899308216
 30
0.0
 10
-404.8430751212285
 20
389.5351809057629
 30
0.0
 10
-406.719920077899
 20
389.5082660972844
 30
0.0
 10
-408.0283673431969
 20
389.4895764542769
 30
0.0
 10
-409.3367715448013
 20
389.4698532826239
 30
0.0
 10
-410.6451757464056
 20
389.4501731746644
 30
0.0
 10
-412.1678648871924
 20
389.427306353381
 30
0.0
 10
-413.6905540279793
 20
389.4043534047105
 30
0.0
 10
-415.2132001050726
 20
389.382993812702
 30
0.0
 10
-417.4218938843598
 20
389.3519879533347
 30
0.0
 10
-419.6305445999535
 20
389.3218003041453
 30
0.0
 10
-421.8391953155472
 20
389.2916987823429
 30
0.0
 10
-425.2923867751874
 20
389.2445440378885
 30
0.0
 10
-428.7456212985211
 20
389.1973892934342
 30
0.0
 10
-432.1987696944677
 20
389.1469617082688
 30
0.0
 10
-435.1379529077086
 20
389.1040702694775
 30
0.0
 10
-438.0770499935624
 20
389.0566571428617
 30
0.0
 10
-441.0161470794161
 20
389.0092009525524
 30
0.0
 10
-441.0161470794161
 20
389.0092009525524
 30
0.0
 10
-445.2158476670164
 20
388.9418923995094
 30
0.0
 10
-445.2158476670164
 20
388.9418923995094
 30
0.0
 10
-445.2592128064369
 20
388.9412033804123
 30
0.0
 10
-445.3026210095511
 20
388.9409880619444
 30
0.0
 10
-445.3471058050044
 20
388.9409880619444
 30
0.0
 10
-445.3471058050044
 20
388.9409880619444
 30
0.0
 10
-445.4665214272619
 20
388.9412895077994
 30
0.0
 10
-445.4665214272619
 20
388.9412895077994
 30
0.0
 10
-445.4665214272619
 20
388.9412895077994
 30
0.0
 10
-445.6087177434155
 20
388.9416770810415
 30
0.0
 10
-445.6087177434155
 20
388.9416770810415
 30
0.0
 10
-445.6087177434155
 20
388.9416770810415
 30
0.0
 10
-445.8090500458828
 20
388.9416770810415
 30
0.0
 10
-445.8090500458828
 20
388.9416770810415
 30
0.0
 10
-445.8090500458828
 20
388.9416770810415
 30
0.0
 10
-445.9116708276497
 20
388.7696376252468
 30
0.0
 10
-445.9116708276497
 20
388.7696376252468
 30
0.0
 10
-446.1905082434871
 20
388.3022242952856
 30
0.0
 10
-446.6351839432457
 20
388.1854355583356
 30
0.0
 10
-447.3343660719772
 20
388.0486652675712
 30
0.0
 10
-447.7490694410141
 20
387.9674902052
 30
0.0
 10
-448.1641603832932
 20
387.8880376905714
 30
0.0
 10
-448.5792943892658
 20
387.8085421122493
 30
0.0
 10
-449.7918818726866
 20
387.576385740237
 30
0.0
 10
-451.0457674382369
 20
387.3363056486086
 30
0.0
 10
-452.2722644946793
 20
387.0567792136742
 30
0.0
 10
-454.0931697134081
 20
386.6417313350887
 30
0.0
 10
-455.6583196560507
 20
385.5771107027594
 30
0.0
 10
-457.0571576141429
 20
383.8021544450651
 30
0.0
 10
-457.7617657682636
 20
382.9081952303363
 30
0.0
 10
-458.3274504469416
 20
381.8685084765815
 30
0.0
 10
-458.7866386114318
 20
380.6235801592929
 30
0.0
 10
-459.29797690883
 20
379.2374459908027
 30
0.0
 10
-459.3847933150583
 20
377.8362395295644
 30
0.0
 10
-459.0448054543577
 20
376.4589764819486
 30
0.0
 10
-458.2936885111861
 20
373.4166987863117
 30
0.0
 10
-456.8697874834388
 20
370.8137138287375
 30
0.0
 10
-454.812634841809
 20
368.7222824870295
 30
0.0
 10
-453.4655594433827
 20
367.3526847768684
 30
0.0
 10
-451.7973580820376
 20
366.4624721034799
 30
0.0
 10
-450.4945521605969
 20
365.8400294766824
 30
0.0
 10
-448.2296171975129
 20
364.757666602604
 30
0.0
 10
-445.6535901121109
 20
363.9598686156073
 30
0.0
 10
-442.3876826557877
 20
363.3293300144194
 30
0.0
 10
-441.8795741354069
 20
363.2312309204769
 30
0.0
 10
-441.3625944941516
 20
363.1478596097339
 30
0.0
 10
-440.8626250118547
 20
363.0672443753791
 30
0.0
 10
-440.3865128157931
 20
362.9904618097515
 30
0.0
 10
-439.8941225435638
 20
362.9110523588165
 30
0.0
 10
-439.4150389526463
 20
362.8196712010703
 30
0.0
 10
-438.9964598511884
 20
362.7398311131996
 30
0.0
 10
-438.5583298328518
 20
362.6184776247317
 30
0.0
 10
-438.0755427642875
 20
362.4485913536153
 30
0.0
 10
-437.547581881173
 20
362.2628576432668
 30
0.0
 10
-437.2115558802805
 20
361.8863517704226
 30
0.0
 10
-437.048129163199
 20
361.2974557609126
 30
0.0
 10
-436.7241179328112
 20
360.1299774965018
 30
0.0
 10
-436.9775477694449
 20
359.1746955821356
 30
0.0
 10
-437.8228450104445
 20
358.3770913817599
 30
0.0
 10
-439.0952910279215
 20
357.1764325414568
 30
0.0
 10
-440.650234875189
 20
356.3788929366214
 30
0.0
 10
-442.5764308246858
 20
355.9388465839211
 30
0.0
 10
-444.3926851645095
 20
355.5239494282631
 30
0.0
 10
-446.2455867075575
 20
355.3222821512953
 30
0.0
 10
-448.2410290763078
 20
355.3222821512953
 30
0.0
 10
-449.6697101740409
 20
355.3222821512953
 30
0.0
 10
-451.1279760292536
 20
355.4255273566189
 30
0.0
 10
-452.6991548889954
 20
355.6379390251313
 30
0.0
 10
-456.7272466577366
 20
356.1824363665751
 30
0.0
 10
-460.9134683092508
 20
357.2671031482592
 30
0.0
 10
-465.4969955976015
 20
358.9538434296843
 30
0.0
 10
-467.013569693902
 20
359.5120134938351
 30
0.0
 10
-468.5481874778066
 20
360.1035148568058
 30
0.0
 10
-470.0323346128522
 20
360.6755514302847
 30
0.0
 10
-471.0436854562408
 20
361.0654285799811
 30
0.0
 10
-472.0550362996295
 20
361.4552411341371
 30
0.0
 10
-473.0690140283256
 20
361.8381634973226
 30
0.0
 10
-475.5676987200838
 20
362.781732087039
 30
0.0
 10
-477.9499822481341
 20
363.3527997274127
 30
0.0
 10
-480.3519889478374
 20
363.5839225707794
 30
0.0
 10
-480.8320630037069
 20
363.6301299139753
 30
0.0
 10
-481.3236350657585
 20
363.6535134995814
 30
0.0
 10
-481.8130108794383
 20
363.6535134995814
 30
0.0
 10
-483.2567642699194
 20
363.653556563275
 30
0.0
 10
-484.7151593162127
 20
363.4593823689876
 30
0.0
 10
-486.2714381379808
 20
363.0598374200857
 30
0.0
 10
-488.5855518391166
 20
362.4657307036544
 30
0.0
 10
-490.7410188931568
 20
361.5296551966185
 30
0.0
 10
-492.7256522748221
 20
360.6065633931926
 30
0.0
 10
-494.2052346583498
 20
359.9184271018607
 30
0.0
 10
-495.6834820673769
 20
359.2274055430599
 30
0.0
 10
-497.161729476404
 20
358.5363839842591
 30
0.0
 10
-499.6463754040598
 20
357.3749346369475
 30
0.0
 10
-502.215641489572
 20
356.1739097552491
 30
0.0
 10
-504.7486479451019
 20
355.0070774462417
 30
0.0
 10
-507.5247058871162
 20
353.7283871931977
 30
0.0
 10
-510.130403857385
 20
352.7012535061172
 30
0.0
 10
-512.7147422356451
 20
351.867023634364
 30
0.0
 10
-514.8810613404638
 20
351.1677338463986
 30
0.0
 10
-517.1898351435975
 20
350.6695730392315
 30
0.0
 10
-519.5768987416336
 20
350.3863646584972
 30
0.0
 10
-521.3633099418163
 20
350.174426690614
 30
0.0
 10
-522.9811267816897
 20
350.0713752719114
 30
0.0
 10
-524.5229362024196
 20
350.0713752719114
 30
0.0
 10
-524.5229362024196
 20
350.0713752719114
 30
0.0
 10
-524.6780085629495
 20
350.0717197814599
 30
0.0
 10
-524.6780085629495
 20
350.0717197814599
 30
0.0
 10
-528.7840456170445
 20
350.0905386155482
 30
0.0
 10
-532.7097319224866
 20
350.9564848976125
 30
0.0
 10
-536.3460732708614
 20
352.6455506184901
 30
0.0
 10
-538.2854467105892
 20
353.5464215560361
 30
0.0
 10
-539.8064563673271
 20
354.4178369271833
 30
0.0
 10
-541.1328181291483
 20
355.3879758158297
 30
0.0
 10
-543.3182144502165
 20
356.9864355254452
 30
0.0
 10
-545.2402762851309
 20
359.0209151324128
 30
0.0
 10
-546.8456907812573
 20
361.4348720070805
 30
0.0
 10
-549.3698691796063
 20
365.2305920853417
 30
0.0
 10
-551.0431089930986
 20
369.506429283166
 30
0.0
 10
-551.8188583689897
 20
374.1435278063122
 30
0.0
 10
-552.1158686635118
 20
375.9189147009421
 30
0.0
 10
-552.3016454375539
 20
377.7495523144168
 30
0.0
 10
-552.4813071671098
 20
379.519857693206
 30
0.0
 10
-552.5204090008673
 20
379.9051916232312
 30
0.0
 10
-552.5595108346249
 20
380.2905255532564
 30
0.0
 10
-552.5997323244152
 20
380.6755149737331
 30
0.0
 10
-552.9734821208713
 20
384.2534188899393
 30
0.0
 10
-553.1467273600857
 20
388.1866413417554
 30
0.0
 10
-553.1293296278852
 20
392.699888682207
 30
0.0
 10
-553.1279085259976
 20
393.0738537971309
 30
0.0
 10
-553.1281238444653
 20
393.4479050394419
 30
0.0
 10
-553.1283391629332
 20
393.8219993454464
 30
0.0
 10
-553.129157373111
 20
395.0388070708367
 30
0.0
 10
-553.1299325195952
 20
396.2970851331306
 30
0.0
 10
-553.069169647974
 20
397.5271134124455
 30
0.0
 10
-552.9928607829758
 20
399.0708176356924
 30
0.0
 10
-552.8126392254036
 20
400.6671456924765
 30
0.0
 10
-552.6536480687594
 20
402.0755437905402
 30
0.0
 10
-552.4463394479344
 20
403.9115213020169
 30
0.0
 10
-552.2197813560857
 20
405.8659670344927
 30
0.0
 10
-551.9308239722603
 20
407.8018523150417
 30
0.0
 10
-551.2920602056015
 20
412.0807470351092
 30
0.0
 10
-550.3924596470156
 20
417.1160124689632
 30
0.0
 10
-548.5630708806544
 20
422.0188570451029
 30
0.0
 10
-547.0087299250968
 20
426.1846234421735
 30
0.0
 10
-545.0132444926529
 20
429.7152003591511
 30
0.0
 10
-542.4625388590675
 20
432.8121689456164
 30
0.0
 10
-539.1528786900816
 20
436.8307867017732
 30
0.0
 10
-535.4192133942486
 20
439.5814801282774
 30
0.0
 10
-531.0482484973378
 20
441.2213886429499
 30
0.0
 10
-527.7890159135172
 20
442.4442252854393
 30
0.0
 10
-524.6786114546594
 20
443.0811803769685
 30
0.0
 10
-521.5392681937254
 20
443.1686858022938
 30
0.0
 10
-521.2440665743331
 20
443.1769540314584
 30
0.0
 10
-520.94438633081
 20
443.1811312097342
 30
0.0
 10
-520.6485818197077
 20
443.1811312097342
 30
0.0
  0
SPLINE
  5
4E
330
49
100
AcDbEntity
  8
_U+56FE_U+5C42 1
370
     0
100
AcDbSpline
210
0.0
220
0.0
230
1.0
 70
    11
 71
     3
 72
   386
 73
   382
 74
     0
 42
0.0000000001
 43
0.0000000001
 12
1.0
 22
0.0
 32
0.0
 13
1.0
 23
0.0
 33
0.0
 40
0.0
 40
0.0
 40
0.0
 40
0.0
 40
1.0
 40
1.0
 40
1.0
 40
2.0
 40
2.0
 40
2.0
 40
3.0
 40
3.0
 40
3.0
 40
4.0
 40
4.0
 40
4.0
 40
5.0
 40
5.0
 40
5.0
 40
6.0
 40
6.0
 40
6.0
 40
7.0
 40
7.0
 40
7.0
 40
8.0
 40
8.0
 40
8.0
 40
9.0
 40
9.0
 40
9.0
 40
10.0
 40
10.0
 40
10.0
 40
11.0
 40
11.0
 40
11.0
 40
12.0
 40
12.0
 40
12.0
 40
13.0
 40
13.0
 40
13.0
 40
14.0
 40
14.0
 40
14.0
 40
15.0
 40
15.0
 40
15.0
 40
16.0
 40
16.0
 40
16.0
 40
17.0
 40
17.0
 40
17.0
 40
18.0
 40
18.0
 40
18.0
 40
19.0
 40
19.0
 40
19.0
 40
20.0
 40
20.0
 40
20.0
 40
21.0
 40
21.0
 40
21.0
 40
22.0
 40
22.0
 40
22.0
 40
23.0
 40
23.0
 40
23.0
 40
24.0
 40
24.0
 40
24.0
 40
25.0
 40
25.0
 40
25.0
 40
26.0
 40
26.0
 40
26.0
 40
27.0
 40
27.0
 40
27.0
 40
28.0
 40
28.0
 40
28.0
 40
29.0
 40
29.0
 40
29.0
 40
30.0
 40
30.0
 40
30.0
 40
31.0
 40
31.0
 40
31.0
 40
32.0
 40
32.0
 40
32.0
 40
33.0
 40
33.0
 40
33.0
 40
34.0
 40
34.0
 40
34.0
 40
35.0
 40
35.0
 40
35.0
 40
36.0
 40
36.0
 40
36.0
 40
37.0
 40
37.0
 40
37.0
 40
38.0
 40
38.0
 40
38.0
 40
39.0
 40
39.0
 40
39.0
 40
40.0
 40
40.0
 40
40.0
 40
41.0
 40
41.0
 40
41.0
 40
42.0
 40
42.0
 40
42.0
 40
43.0
 40
43.0
 40
43.0
 40
44.0
 40
44.0
 40
44.0
 40
45.0
 40
45.0
 40
45.0
 40
46.0
 40
46.0
 40
46.0
 40
47.0
 40
47.0
 40
47.0
 40
48.0
 40
48.0
 40
48.0
 40
49.0
 40
49.0
 40
49.0
 40
50.0
 40
50.0
 40
50.0
 40
51.0
 40
51.0
 40
51.0
 40
52.0
 40
52.0
 40
52.0
 40
53.0
 40
53.0
 40
53.0
 40
54.0
 40
54.0
 40
54.0
 40
55.0
 40
55.0
 40
55.0
 40
56.0
 40
56.0
 40
56.0
 40
57.0
 40
57.0
 40
57.0
 40
58.0
 40
58.0
 40
58.0
 40
59.0
 40
59.0
 40
59.0
 40
60.0
 40
60.0
 40
60.0
 40
61.0
 40
61.0
 40
61.0
 40
62.0
 40
62.0
 40
62.0
 40
63.0
 40
63.0
 40
63.0
 40
64.0
 40
64.0
 40
64.0
 40
65.0
 40
65.0
 40
65.0
 40
66.0
 40
66.0
 40
66.0
 40
67.0
 40
67.0
 40
67.0
 40
68.0
 40
68.0
 40
68.0
 40
69.0
 40
69.0
 40
69.0
 40
70.0
 40
70.0
 40
70.0
 40
71.0
 40
71.0
 40
71.0
 40
72.0
 40
72.0
 40
72.0
 40
73.0
 40
73.0
 40
73.0
 40
74.0
 40
74.0
 40
74.0
 40
75.0
 40
75.0
 40
75.0
 40
76.0
 40
76.0
 40
76.0
 40
77.0
 40
77.0
 40
77.0
 40
78.0
 40
78.0
 40
78.0
 40
79.0
 40
79.0
 40
79.0
 40
80.0
 40
80.0
 40
80.0
 40
81.0
 40
81.0
 40
81.0
 40
82.0
 40
82.0
 40
82.0
 40
83.0
 40
83.0
 40
83.0
 40
84.0
 40
84.0
 40
84.0
 40
85.0
 40
85.0
 40
85.0
 40
86.0
 40
86.0
 40
86.0
 40
87.0
 40
87.0
 40
87.0
 40
88.0
 40
88.0
 40
88.0
 40
89.0
 40
89.0
 40
89.0
 40
90.0
 40
90.0
 40
90.0
 40
91.0
 40
91.0
 40
91.0
 40
92.0
 40
92.0
 40
92.0
 40
93.0
 40
93.0
 40
93.0
 40
94.0
 40
94.0
 40
94.0
 40
95.0
 40
95.0
 40
95.0
 40
96.0
 40
96.0
 40
96.0
 40
97.0
 40
97.0
 40
97.0
 40
98.0
 40
98.0
 40
98.0
 40
99.0
 40
99.0
 40
99.0
 40
100.0
 40
100.0
 40
100.0
 40
101.0
 40
101.0
 40
101.0
 40
102.0
 40
102.0
 40
102.0
 40
103.0
 40
103.0
 40
103.0
 40
104.0
 40
104.0
 40
104.0
 40
105.0
 40
105.0
 40
105.0
 40
106.0
 40
106.0
 40
106.0
 40
107.0
 40
107.0
 40
107.0
 40
108.0
 40
108.0
 40
108.0
 40
109.0
 40
109.0
 40
109.0
 40
110.0
 40
110.0
 40
110.0
 40
111.0
 40
111.0
 40
111.0
 40
112.0
 40
112.0
 40
112.0
 40
113.0
 40
113.0
 40
113.0
 40
114.0
 40
114.0
 40
114.0
 40
115.0
 40
115.0
 40
115.0
 40
116.0
 40
116.0
 40
116.0
 40
117.0
 40
117.0
 40
117.0
 40
118.0
 40
118.0
 40
118.0
 40
119.0
 40
119.0
 40
119.0
 40
120.0
 40
120.0
 40
120.0
 40
121.0
 40
121.0
 40
121.0
 40
122.0
 40
122.0
 40
122.0
 40
123.0
 40
123.0
 40
123.0
 40
124.0
 40
124.0
 40
124.0
 40
125.0
 40
125.0
 40
125.0
 40
126.0
 40
126.0
 40
126.0
 40
127.0
 40
127.0
 40
127.0
 40
127.0
 10
-520.6485818197077
 20
443.5339089874238
 30
0.0
 10
-520.947659171521
 20
443.5339089874238
 30
0.0
 10
-521.248329879996
 20
443.529731809148
 30
0.0
 10
-521.5490867158584
 20
443.5213343889027
 30
0.0
 10
-524.8777810374004
 20
443.4285751929623
 30
0.0
 10
-528.0732793547438
 20
442.7143638351765
 30
0.0
 10
-531.1721858074196
 20
441.5516871725982
 30
0.0
 10
-535.8239690500718
 20
439.8064017997706
 30
0.0
 10
-539.5935064026451
 20
436.8507251918941
 30
0.0
 10
-542.7348736571765
 20
433.0364877253998
 30
0.0
 10
-545.4301441100617
 20
429.7638623328803
 30
0.0
 10
-547.4161985936147
 20
426.1018119594468
 30
0.0
 10
-548.8935847287705
 20
422.1421914634749
 30
0.0
 10
-550.6185871019287
 20
417.5190886407374
 30
0.0
 10
-551.5547056726582
 20
412.7108549993613
 30
0.0
 10
-552.279726017529
 20
407.8539593842561
 30
0.0
 10
-552.5643339683043
 20
405.9474004790253
 30
0.0
 10
-552.7878776016034
 20
404.0310230516615
 30
0.0
 10
-553.0041865343835
 20
402.1151623886205
 30
0.0
 10
-553.1757953532425
 20
400.595014005754
 30
0.0
 10
-553.3460261339075
 20
399.0713344000152
 30
0.0
 10
-553.421516788728
 20
397.544511144646
 30
0.0
 10
-553.5011415581308
 20
395.9330246677268
 30
0.0
 10
-553.4758631700078
 20
394.3159829743377
 30
0.0
 10
-553.4821074055748
 20
392.7012667204011
 30
0.0
 10
-553.497653398952
 20
388.6721414230143
 30
0.0
 10
-553.3694097195136
 20
384.6481407051618
 30
0.0
 10
-552.9506152995879
 20
380.6388677705087
 30
0.0
 10
-552.7220332141416
 20
378.450543118278
 30
0.0
 10
-552.5294523765161
 20
376.2530028356243
 30
0.0
 10
-552.166813013
 20
374.0853056926115
 30
0.0
 10
-551.3931737580936
 20
369.4609109590671
 30
0.0
 10
-549.7441357403852
 20
365.1562641502474
 30
0.0
 10
-547.1394282350685
 20
361.2394920293733
 30
0.0
 10
-545.5592490633715
 20
358.8634096731965
 30
0.0
 10
-543.6504077823816
 20
356.792347458545
 30
0.0
 10
-541.3410741512316
 20
355.1032386739737
 30
0.0
 10
-539.8291509338361
 20
353.9973630232085
 30
0.0
 10
-538.1901467567285
 20
353.1131792669192
 30
0.0
 10
-536.4946430136628
 20
352.3256304389911
 30
0.0
 10
-532.7477571639051
 20
350.5851681998429
 30
0.0
 10
-528.8035965339233
 20
349.7378469652457
 30
0.0
 10
-524.6796019196114
 20
349.7189420037704
 30
0.0
 10
-524.6273225956227
 20
349.7187051534557
 30
0.0
 10
-524.5752155264083
 20
349.7185974942219
 30
0.0
 10
-524.5229362024196
 20
349.7185974942219
 30
0.0
 10
-522.8551654780102
 20
349.7185974942219
 30
0.0
 10
-521.1936820528613
 20
349.8393050272863
 30
0.0
 10
-519.5353853410363
 20
350.0360630431876
 30
0.0
 10
-517.1766145896729
 20
350.315890923977
 30
0.0
 10
-514.8649985827639
 20
350.8022092154136
 30
0.0
 10
-512.606393982634
 20
351.5312775474796
 30
0.0
 10
-509.8720216959912
 20
352.4139325426474
 30
0.0
 10
-507.2090490132802
 20
353.4853572385601
 30
0.0
 10
-504.6010686672525
 20
354.6866835661135
 30
0.0
 10
-500.5852500511775
 20
356.5365275869184
 30
0.0
 10
-496.5858817660445
 20
358.4220498778424
 30
0.0
 10
-492.5768672135529
 20
360.2867293410807
 30
0.0
 10
-490.5046853428686
 20
361.2505163349261
 30
0.0
 10
-488.4067083197386
 20
362.1474469445109
 30
0.0
 10
-486.1837173941876
 20
362.7181270116425
 30
0.0
 10
-484.7421602520783
 20
363.0882163941455
 30
0.0
 10
-483.285444689834
 20
363.3007787855854
 30
0.0
 10
-481.8130108794383
 20
363.3007357218918
 30
0.0
 10
-481.3389657406679
 20
363.3007357218918
 30
0.0
 10
-480.8630257993806
 20
363.2786871107862
 30
0.0
 10
-480.3857939472864
 20
363.2327812134453
 30
0.0
 10
-477.9107512232958
 20
362.9945959243339
 30
0.0
 10
-475.5172280712249
 20
362.3855891699288
 30
0.0
 10
-473.1936403575045
 20
361.5081233498357
 30
0.0
 10
-470.6659307362832
 20
360.5535735182601
 30
0.0
 10
-468.1542838727618
 20
359.5558738657317
 30
0.0
 10
-465.6188227866986
 20
358.6227912853986
 30
0.0
 10
-461.4404387274133
 20
357.0851159792509
 30
0.0
 10
-457.1740324784799
 20
355.8868471739406
 30
0.0
 10
-452.7464388245304
 20
355.2883264289188
 30
0.0
 10
-451.2398555051371
 20
355.0846566902002
 30
0.0
 10
-449.7383106378909
 20
354.9695043736057
 30
0.0
 10
-448.2409860126143
 20
354.9695043736057
 30
0.0
 10
-446.319699324184
 20
354.9695043736057
 30
0.0
 10
-444.4054320178049
 20
355.1591999437623
 30
0.0
 10
-442.4978826476221
 20
355.5949399271061
 30
0.0
 10
-440.6482970089785
 20
356.0174378246784
 30
0.0
 10
-438.9779855266488
 20
356.8021013851376
 30
0.0
 10
-437.5807409252185
 20
358.1205178954959
 30
0.0
 10
-436.6095685079266
 20
359.0368271671853
 30
0.0
 10
-436.3576459005677
 20
360.1287501812352
 30
0.0
 10
-436.7081843661919
 20
361.3918083135149
 30
0.0
 10
-436.8950377325731
 20
362.0651091624134
 30
0.0
 10
-437.2992335603801
 20
362.5494895876395
 30
0.0
 10
-437.9584525814826
 20
362.7813875774904
 30
0.0
 10
-438.4113534467123
 20
362.9407232436832
 30
0.0
 10
-438.8777763117216
 20
363.0763308147214
 30
0.0
 10
-439.3488931193295
 20
363.1662047431928
 30
0.0
 10
-440.3360421669342
 20
363.3544361477682
 30
0.0
 10
-441.3341724563982
 20
363.485220585127
 30
0.0
 10
-442.3208047396802
 20
363.6756913017677
 30
0.0
 10
-445.0846756564155
 20
364.2093365924329
 30
0.0
 10
-447.7902813957564
 20
364.9387063703539
 30
0.0
 10
-450.3424942586167
 20
366.1583132358259
 30
0.0
 10
-451.8825380679104
 20
366.8941856314752
 30
0.0
 10
-453.357081999291
 20
367.7454687258805
 30
0.0
 10
-454.5611428713858
 20
368.9696403428704
 30
0.0
 10
-456.653349359578
 20
371.0967284228508
 30
0.0
 10
-457.9895296435321
 20
373.6564343683914
 30
0.0
 10
-458.7022768357368
 20
376.543510512418
 30
0.0
 10
-459.0330060023207
 20
377.8830497644702
 30
0.0
 10
-458.9332704880228
 20
379.2066985135968
 30
0.0
 10
-458.4556510626865
 20
380.5014945880343
 30
0.0
 10
-458.0466751648937
 20
381.610298569962
 30
0.0
 10
-457.5117379634216
 20
382.6554974764933
 30
0.0
 10
-456.7801288734352
 20
383.5837784549938
 30
0.0
 10
-455.5823983642945
 20
385.1035392646182
 30
0.0
 10
-454.1194816301767
 20
386.2738812646512
 30
0.0
 10
-452.1938455086964
 20
386.7128294931655
 30
0.0
 10
-450.5610425034622
 20
387.0849859329597
 30
0.0
 10
-448.9107556386404
 20
387.3808335077555
 30
0.0
 10
-447.2666268819985
 20
387.7024331713036
 30
0.0
 10
-446.6207576059012
 20
387.8287820482251
 30
0.0
 10
-445.9841039602271
 20
387.9596526129711
 30
0.0
 10
-445.6087177434155
 20
388.5888993033519
 30
0.0
 10
-445.5137622991033
 20
388.5888993033519
 30
0.0
 10
-445.4286684406177
 20
388.5882102842549
 30
0.0
 10
-445.3471058050044
 20
388.5882102842549
 30
0.0
 10
-445.3007692707278
 20
388.5882102842549
 30
0.0
 10
-445.2555523924839
 20
388.5884256027227
 30
0.0
 10
-445.2103355142399
 20
388.5891576855133
 30
0.0
 10
-440.8714530690356
 20
388.6576720219762
 30
0.0
 10
-436.5326136875249
 20
388.7309233647313
 30
0.0
 10
-432.1936451149334
 20
388.7942269942728
 30
0.0
 10
-426.5319321307802
 20
388.8768662222253
 30
0.0
 10
-420.8700468918528
 20
388.9507635203839
 30
0.0
 10
-415.2082908440061
 20
389.030259098706
 30
0.0
 10
-412.3771113742278
 20
389.0700068878671
 30
0.0
 10
-409.5460180318366
 20
389.1150515113367
 30
0.0
 10
-406.7148816257518
 20
389.1555313832884
 30
0.0
 10
-403.7581714892298
 20
389.1978629940634
 30
0.0
 10
-400.8014182890141
 20
389.237352401063
 30
0.0
 10
-397.844708152492
 20
389.2784782284182
 30
0.0
 10
-394.8458817236627
 20
389.3202069474833
 30
0.0
 10
-391.8470552948334
 20
389.3614189022256
 30
0.0
 10
-388.8482288660041
 20
389.4046548505655
 30
0.0
 10
-385.9542625310071
 20
389.4464266333242
 30
0.0
 10
-383.0603823233972
 20
389.4909975561646
 30
0.0
 10
-380.1664159884003
 20
389.5333722306332
 30
0.0
 10
-377.2724927170968
 20
389.5757469051018
 30
0.0
 10
-374.3785694457934
 20
389.617561751554
 30
0.0
 10
-371.4846031107964
 20
389.6584291967478
 30
0.0
 10
-368.5070501465885
 20
389.7004593616678
 30
0.0
 10
-365.5294971823807
 20
389.7430493546042
 30
0.0
 10
-362.5519011544793
 20
389.7817636151197
 30
0.0
 10
-359.1543695187726
 20
389.825946964718
 30
0.0
 10
-355.7567086919853
 20
389.863713823975
 30
0.0
 10
-352.3591985881255
 20
389.9087584474447
 30
0.0
 10
-349.3813657099095
 20
389.948290918138
 30
0.0
 10
-346.4036835546209
 20
389.9973404651092
 30
0.0
 10
-343.4258076127113
 20
390.0361839167054
 30
0.0
 10
-339.9238895838016
 20
390.0819175592721
 30
0.0
 10
-336.4219500230452
 20
390.1237324057243
 30
0.0
 10
-332.9199673985951
 20
390.1624466662398
 30
0.0
 10
-329.8788308908376
 20
390.1960794109145
 30
0.0
 10
-326.8376728512333
 20
390.231133257477
 30
0.0
 10
-323.7964717479355
 20
390.2510717475978
 30
0.0
 10
-319.0982443117728
 20
390.2818622884973
 30
0.0
 10
-314.3999522800697
 20
390.300724186279
 30
0.0
 10
-309.7017033120603
 20
390.3237632623366
 30
0.0
 10
-309.6819155448669
 20
390.3238493897238
 30
0.0
 10
-309.6625584146091
 20
390.3238924534173
 30
0.0
 10
-309.6428137111093
 20
390.3238924534173
 30
0.0
 10
-307.4159039894438
 20
390.3238063260302
 30
0.0
 10
-305.3854508378246
 20
389.7014067629262
 30
0.0
 10
-303.5761728163586
 20
388.3821505105434
 30
0.0
 10
-302.1016934805184
 20
387.3069792732904
 30
0.0
 10
-300.8737107266479
 20
385.9841056706481
 30
0.0
 10
-299.8778843447897
 20
384.4712781156878
 30
0.0
 10
-299.4915384179657
 20
383.8843199723883
 30
0.0
 10
-299.054700310436
 20
383.6155594608452
 30
0.0
 10
-298.4926114501707
 20
383.6155594608452
 30
0.0
 10
-298.3303259209687
 20
383.6155594608452
 30
0.0
 10
-298.1575759142302
 20
383.637995645193
 30
0.0
 10
-297.9725742866722
 20
383.6816191667749
 30
0.0
 10
-297.8909685873654
 20
383.7008686377987
 30
0.0
 10
-297.8077479995498
 20
383.7130556630779
 30
0.0
 10
-297.7252379626781
 20
383.7283432742936
 30
0.0
 10
-294.5091551998102
 20
384.3240002836934
 30
0.0
 10
-291.2882708351098
 20
384.8854216567083
 30
0.0
 10
-288.0309976493464
 20
385.2156771226631
 30
0.0
 10
-285.4635187071172
 20
385.4759971502673
 30
0.0
 10
-282.8929391789513
 20
385.6633242172778
 30
0.0
 10
-280.3109477719904
 20
385.6850283188348
 30
0.0
 10
-280.0672933937961
 20
385.687095376126
 30
0.0
 10
-279.8238543340697
 20
385.688085841078
 30
0.0
 10
-279.5802430195689
 20
385.688085841078
 30
0.0
 10
-276.8230039116428
 20
385.688085841078
 30
0.0
 10
-274.0703510870814
 20
385.5582057412841
 30
0.0
 10
-271.3240286254741
 20
385.326523069901
 30
0.0
 10
-268.2328951694869
 20
385.0656862779741
 30
0.0
 10
-265.1477906305989
 20
384.7330192451796
 30
0.0
 10
-262.0582289994269
 20
384.4519425172768
 30
0.0
 10
-260.7441834539654
 20
384.3323546402451
 30
0.0
 10
-259.4263483034703
 20
384.2111734065514
 30
0.0
 10
-258.1085777485154
 20
384.1885649674294
 30
0.0
 10
-258.0499465297258
 20
384.1875314387839
 30
0.0
 10
-257.991336842783
 20
384.1870146744611
 30
0.0
 10
-257.932748687687
 20
384.1870146744611
 30
0.0
 10
-256.8581372784504
 20
384.1870146744611
 30
0.0
 10
-255.7950023435491
 20
384.3613795697083
 30
0.0
 10
-254.8255094103062
 20
384.9020873061182
 30
0.0
 10
-253.9417562909525
 20
385.3950374063639
 30
0.0
 10
-253.4746874705397
 20
386.1446040565672
 30
0.0
 10
-253.4834509321804
 20
387.1563424731979
 30
0.0
 10
-253.4888338938761
 20
387.7730576287512
 30
0.0
 10
-253.6652227827209
 20
388.351359969644
 30
0.0
 10
-254.0121223662387
 20
388.8753159292569
 30
0.0
 10
-254.5268196317351
 20
389.6528309165842
 30
0.0
 10
-255.1856510795955
 20
390.2970637723259
 30
0.0
 10
-255.8681675589171
 20
390.9197647812848
 30
0.0
 10
-256.9429512229279
 20
391.9004542748548
 30
0.0
 10
-257.7938467440911
 20
393.0184738872055
 30
0.0
 10
-258.0962615321556
 20
394.4813044939361
 30
0.0
 10
-258.146193884845
 20
394.7229348785328
 30
0.0
 10
-258.2754064973886
 20
394.899582149539
 30
0.0
 10
-258.5120630253785
 20
394.9930303645764
 30
0.0
 10
-259.2656776627769
 20
395.2905143597278
 30
0.0
 10
-260.012875809834
 20
395.6053960870796
 30
0.0
 10
-260.7732514471222
 20
395.8842765666105
 30
0.0
 10
-261.1635161700607
 20
396.0273772203291
 30
0.0
 10
-261.5788870263479
 20
396.1004993720035
 30
0.0
 10
-261.9789272077257
 20
396.2184938923734
 30
0.0
 10
-263.8404630213337
 20
396.7675129216415
 30
0.0
 10
-265.7319926975102
 20
397.2161074175146
 30
0.0
 10
-267.5421750565411
 20
397.9369505841095
 30
0.0
 10
-268.0627935799027
 20
398.1442592049344
 30
0.0
 10
-268.6325693094695
 20
398.2245299297408
 30
0.0
 10
-269.1722004535403
 20
398.388085837903
 30
0.0
 10
-271.5741856213969
 20
399.1160775776299
 30
0.0
 10
-273.9731132670102
 20
399.8541462216511
 30
0.0
 10
-276.3736773329791
 20
400.5866596492023
 30
0.0
 10
-278.7136077184076
 20
401.3006126248268
 30
0.0
 10
-281.0550453331108
 20
402.0096132756912
 30
0.0
 10
-283.3942436357487
 20
402.7258055633811
 30
0.0
 10
-285.1330263908478
 20
403.2582020069329
 30
0.0
 10
-286.8681487319939
 20
403.8023979025216
 30
0.0
 10
-288.607039146327
 20
404.3344498365249
 30
0.0
 10
-290.9271817645621
 20
405.0443548249542
 30
0.0
 10
-293.2484440388298
 20
405.7505993994304
 30
0.0
 10
-295.570955160211
 20
406.4527529230179
 30
0.0
 10
-297.4537644384404
 20
407.0219688245683
 30
0.0
 10
-299.3388560924287
 20
407.5834763249705
 30
0.0
 10
-301.2232802591669
 20
408.1471800737445
 30
0.0
 10
-301.5795461960353
 20
408.2537627153194
 30
0.0
 10
-301.8682451976992
 20
408.3116403194716
 30
0.0
 10
-302.118294534388
 20
408.3116403194716
 30
0.0
 10
-302.662167452275
 20
408.3116403194716
 30
0.0
 10
-303.0226966948064
 20
408.03758297362
 30
0.0
 10
-303.4949546902938
 20
407.3948142834595
 30
0.0
 10
-303.8921957315899
 20
406.8541926744367
 30
0.0
 10
-304.2807163749389
 20
406.3059918553462
 30
0.0
 10
-304.7013410018412
 20
405.7839306982502
 30
0.0
 10
-305.5076871320107
 20
404.7831304597851
 30
0.0
 10
-306.4921662306144
 20
404.0384300069548
 30
0.0
 10
-307.7428004873004
 20
403.6508567648642
 30
0.0
 10
-308.6221611099105
 20
403.3783497119809
 30
0.0
 10
-309.5235488117793
 20
403.3502291200826
 30
0.0
 10
-310.419596615646
 20
403.3468701519845
 30
0.0
 10
-310.8716362070043
 20
403.3451476042418
 30
0.0
 10
-311.3234389480481
 20
403.3443724577577
 30
0.0
 10
-311.7754785394064
 20
403.3443724577577
 30
0.0
 10
-314.2176421333597
 20
403.3443724577577
 30
0.0
 10
-316.6601287050146
 20
403.3670239605732
 30
0.0
 10
-319.1022492352744
 20
403.39053673726
 30
0.0
 10
-322.4785289382064
 20
403.4230498259021
 30
0.0
 10
-325.8546363863641
 20
403.4700753792757
 30
0.0
 10
-329.2308084300621
 20
403.5145171110354
 30
0.0
 10
-332.1879061398263
 20
403.5534466900188
 30
0.0
 10
-335.1449392540501
 20
403.5968979568265
 30
0.0
 10
-338.1019939001208
 20
403.63957407715
 30
0.0
 10
-340.9539731338913
 20
403.6807860318923
 30
0.0
 10
-343.8059093039682
 20
403.7243664897807
 30
0.0
 10
-346.6578239421984
 20
403.7654492534423
 30
0.0
 10
-349.6985082811735
 20
403.8092880934921
 30
0.0
 10
-352.7391710883018
 20
403.8516627679607
 30
0.0
 10
-355.77983389543
 20
403.8942527608971
 30
0.0
 10
-358.7349506752902
 20
403.9355939067201
 30
0.0
 10
-361.6900674551504
 20
403.9758153965104
 30
0.0
 10
-364.6451411713171
 20
404.0175441155755
 30
0.0
 10
-367.560122588774
 20
404.0587560703178
 30
0.0
 10
-370.4750178788439
 20
404.1002694709151
 30
0.0
 10
-373.3899131689138
 20
404.1434623555614
 30
0.0
 10
-376.1369461814649
 20
404.1841575459809
 30
0.0
 10
-378.8839361303224
 20
404.2276949401758
 30
0.0
 10
-381.63092607918
 20
404.2690360859987
 30
0.0
 10
-384.5249354778705
 20
404.3126165438871
 30
0.0
 10
-387.4189018128675
 20
404.3556371737592
 30
0.0
 10
-390.3129112115581
 20
404.3978826571471
 30
0.0
 10
-393.1640722351509
 20
404.4395683125186
 30
0.0
 10
-396.0153193861307
 20
404.4792299742925
 30
0.0
 10
-398.8664804097235
 20
404.5211309481319
 30
0.0
 10
-401.6554574598075
 20
404.5621275844064
 30
0.0
 10
-404.4444775735851
 20
404.6018323098739
 30
0.0
 10
-407.233368496282
 20
404.6473075702792
 30
0.0
 10
-412.2449919623684
 20
404.7289993969732
 30
0.0
 10
-417.2564862373742
 20
404.8155143573465
 30
0.0
 10
-422.2680235760736
 20
404.8982397126861
 30
0.0
 10
-425.6023161777791
 20
404.9533181767565
 30
0.0
 10
-428.9365657157911
 20
405.0074061758749
 30
0.0
 10
-432.2709013811901
 20
405.0569724871689
 30
0.0
 10
-432.549092841624
 20
405.0611066017512
 30
0.0
 10
-432.8271981746708
 20
405.0623985125582
 30
0.0
 10
-433.1104711509455
 20
405.0623985125582
 30
0.0
 10
-433.5936888564453
 20
405.0623985125582
 30
0.0
 10
-434.0917204725318
 20
405.0586089075244
 30
0.0
 10
-434.6290261771501
 20
405.0586089075244
 30
0.0
 10
-434.5422097709218
 20
405.5363144602479
 30
0.0
 10
-434.7729881047399
 20
405.7399626671197
 30
0.0
 10
-435.0659934757604
 20
405.8927526518905
 30
0.0
 10
-435.2512534854798
 20
405.9893445165582
 30
0.0
 10
-435.445642998235
 20
406.069873623526
 30
0.0
 10
-435.6400755746837
 20
406.1471729534762
 30
0.0
 10
-436.6718386088225
 20
406.5574838257695
 30
0.0
 10
-437.701147012428
 20
406.9744695705654
 30
0.0
 10
-438.738938963666
 20
407.3689760673201
 30
0.0
 10
-439.4111632202254
 20
407.6245160249385
 30
0.0
 10
-439.8426614297529
 20
408.1064418196314
 30
0.0
 10
-440.1383367497745
 20
408.7367651023514
 30
0.0
 10
-440.5738829464972
 20
409.6652613993198
 30
0.0
 10
-440.6430432383636
 20
410.643151752808
 30
0.0
 10
-440.4381031206848
 20
411.6272432781696
 30
0.0
 10
-439.7837502969551
 20
414.7691272970239
 30
0.0
 10
-438.2788033979173
 20
417.4335641453161
 30
0.0
 10
-435.8073780241862
 20
419.4971763409808
 30
0.0
 10
-432.0193663470733
 20
422.6601615696822
 30
0.0
 10
-427.6373771446098
 20
424.3671202552364
 30
0.0
 10
-422.7183406196893
 20
424.7339367970283
 30
0.0
 10
-421.3198902348393
 20
424.8381939991507
 30
0.0
 10
-419.9270381301528
 20
425.0206118050947
 30
0.0
 10
-418.5330663694336
 20
425.1799044075939
 30
0.0
 10
-416.8959569948429
 20
425.3669300287494
 30
0.0
 10
-415.5496136792073
 20
427.4975493316022
 30
0.0
 10
-416.0715887089161
 20
429.2071779661574
 30
0.0
 10
-416.29168724673
 20
429.9279350053653
 30
0.0
 10
-416.6484268842277
 20
430.5496024856786
 30
0.0
 10
-417.1087347047506
 20
431.1250195591024
 30
0.0
 10
-418.7522605696826
 20
433.1792438695698
 30
0.0
 10
-420.9339964767977
 20
434.4349811739434
 30
0.0
 10
-423.3866891438278
 20
435.2354491099412
 30
0.0
 10
-426.5138023157891
 20
436.2560155837529
 30
0.0
 10
-429.7357417409819
 20
436.7721339511368
 30
0.0
 10
-433.0246452096692
 20
436.880180758293
 30
0.0
 10
-433.4079120824032
 20
436.8927984205077
 30
0.0
 10
-433.7904038086531
 20
436.8989565286876
 30
0.0
 10
-434.172292643193
 20
436.8989565286876
 30
0.0
 10
-437.4280801315284
 20
436.8989134649941
 30
0.0
 10
-440.6350333913604
 20
436.4513524977665
 30
0.0
 10
-443.8131770401969
 20
435.7303370763973
 30
0.0
 10
-448.1078761358029
 20
434.7560640731687
 30
0.0
 10
-452.3374198630441
 20
433.5438641629899
 30
0.0
 10
-456.4916451902391
 20
432.0904214414566
 30
0.0
 10
-460.1808687543124
 20
430.7996733542142
 30
0.0
 10
-463.9359367058476
 20
429.7968921858451
 30
0.0
 10
-467.7870366940342
 20
429.1437882092288
 30
0.0
 10
-469.598424836485
 20
428.8365718193317
 30
0.0
 10
-471.4091670235323
 20
428.6745662041378
 30
0.0
 10
-473.2181435991434
 20
428.6745662041378
 30
0.0
 10
-475.1420141091876
 20
428.6745662041378
 30
0.0
 10
-477.0638606256342
 20
428.8578452839531
 30
0.0
 10
-478.9817452822728
 20
429.2447725706402
 30
0.0
 10
-483.1934175766843
 20
430.0943761809964
 30
0.0
 10
-487.2145760907615
 20
431.5299044060064
 30
0.0
 10
-491.1068880336903
 20
433.3287610136296
 30
0.0
 10
-494.0744071572974
 20
434.7002104626141
 30
0.0
 10
-497.0072600075841
 20
436.1472366938061
 30
0.0
 10
-499.9818846406296
 20
437.5027525761712
 30
0.0
 10
-502.4599418231697
 20
438.631968748849
 30
0.0
 10
-504.9718470688525
 20
439.6874598781424
 30
0.0
 10
-507.476646805097
 20
440.7571620263125
 30
0.0
 10
-511.6943480166077
 20
442.5584302007753
 30
0.0
 10
-516.0718155312468
 20
443.5339089874238
 30
0.0
 10
-520.6485818197077
 20
443.5339089874238
 30
0.0
 10
-520.6485818197077
 20
443.5339089874238
 30
0.0
 10
-520.6485818197077
 20
443.5339089874238
 30
0.0
 10
-520.6485818197077
 20
443.5339089874238
 30
0.0
  0
HATCH
  5
4F
330
49
100
AcDbEntity
  8
_U+56FE_U+5C42 1
 62
     7
100
AcDbHatch
 10
0.0
 20
0.0
 30
0.0
210
0.0
220
0.0
230
1.0
  2
SOLID
 70
     1
 71
     0
 91
        2
 92
        1
 93
        1
 72
     4
 94
        3
 73
     0
 74
     1
 95
      386
 96
      382
 40
0.0
 40
0.0
 40
0.0
 40
0.0
 40
1.0
 40
1.0
 40
1.0
 40
2.0
 40
2.0
 40
2.0
 40
3.0
 40
3.0
 40
3.0
 40
4.0
 40
4.0
 40
4.0
 40
5.0
 40
5.0
 40
5.0
 40
6.0
 40
6.0
 40
6.0
 40
7.0
 40
7.0
 40
7.0
 40
8.0
 40
8.0
 40
8.0
 40
9.0
 40
9.0
 40
9.0
 40
10.0
 40
10.0
 40
10.0
 40
11.0
 40
11.0
 40
11.0
 40
12.0
 40
12.0
 40
12.0
 40
13.0
 40
13.0
 40
13.0
 40
14.0
 40
14.0
 40
14.0
 40
15.0
 40
15.0
 40
15.0
 40
16.0
 40
16.0
 40
16.0
 40
17.0
 40
17.0
 40
17.0
 40
18.0
 40
18.0
 40
18.0
 40
19.0
 40
19.0
 40
19.0
 40
20.0
 40
20.0
 40
20.0
 40
21.0
 40
21.0
 40
21.0
 40
22.0
 40
22.0
 40
22.0
 40
23.0
 40
23.0
 40
23.0
 40
24.0
 40
24.0
 40
24.0
 40
25.0
 40
25.0
 40
25.0
 40
26.0
 40
26.0
 40
26.0
 40
27.0
 40
27.0
 40
27.0
 40
28.0
 40
28.0
 40
28.0
 40
29.0
 40
29.0
 40
29.0
 40
30.0
 40
30.0
 40
30.0
 40
31.0
 40
31.0
 40
31.0
 40
32.0
 40
32.0
 40
32.0
 40
33.0
 40
33.0
 40
33.0
 40
34.0
 40
34.0
 40
34.0
 40
35.0
 40
35.0
 40
35.0
 40
36.0
 40
36.0
 40
36.0
 40
37.0
 40
37.0
 40
37.0
 40
38.0
 40
38.0
 40
38.0
 40
39.0
 40
39.0
 40
39.0
 40
40.0
 40
40.0
 40
40.0
 40
41.0
 40
41.0
 40
41.0
 40
42.0
 40
42.0
 40
42.0
 40
43.0
 40
43.0
 40
43.0
 40
44.0
 40
44.0
 40
44.0
 40
45.0
 40
45.0
 40
45.0
 40
46.0
 40
46.0
 40
46.0
 40
47.0
 40
47.0
 40
47.0
 40
48.0
 40
48.0
 40
48.0
 40
49.0
 40
49.0
 40
49.0
 40
50.0
 40
50.0
 40
50.0
 40
51.0
 40
51.0
 40
51.0
 40
52.0
 40
52.0
 40
52.0
 40
53.0
 40
53.0
 40
53.0
 40
54.0
 40
54.0
 40
54.0
 40
55.0
 40
55.0
 40
55.0
 40
56.0
 40
56.0
 40
56.0
 40
57.0
 40
57.0
 40
57.0
 40
58.0
 40
58.0
 40
58.0
 40
59.0
 40
59.0
 40
59.0
 40
60.0
 40
60.0
 40
60.0
 40
61.0
 40
61.0
 40
61.0
 40
62.0
 40
62.0
 40
62.0
 40
63.0
 40
63.0
 40
63.0
 40
64.0
 40
64.0
 40
64.0
 40
65.0
 40
65.0
 40
65.0
 40
66.0
 40
66.0
 40
66.0
 40
67.0
 40
67.0
 40
67.0
 40
68.0
 40
68.0
 40
68.0
 40
69.0
 40
69.0
 40
69.0
 40
70.0
 40
70.0
 40
70.0
 40
71.0
 40
71.0
 40
71.0
 40
72.0
 40
72.0
 40
72.0
 40
73.0
 40
73.0
 40
73.0
 40
74.0
 40
74.0
 40
74.0
 40
75.0
 40
75.0
 40
75.0
 40
76.0
 40
76.0
 40
76.0
 40
77.0
 40
77.0
 40
77.0
 40
78.0
 40
78.0
 40
78.0
 40
79.0
 40
79.0
 40
79.0
 40
80.0
 40
80.0
 40
80.0
 40
81.0
 40
81.0
 40
81.0
 40
82.0
 40
82.0
 40
82.0
 40
83.0
 40
83.0
 40
83.0
 40
84.0
 40
84.0
 40
84.0
 40
85.0
 40
85.0
 40
85.0
 40
86.0
 40
86.0
 40
86.0
 40
87.0
 40
87.0
 40
87.0
 40
88.0
 40
88.0
 40
88.0
 40
89.0
 40
89.0
 40
89.0
 40
90.0
 40
90.0
 40
90.0
 40
91.0
 40
91.0
 40
91.0
 40
92.0
 40
92.0
 40
92.0
 40
93.0
 40
93.0
 40
93.0
 40
94.0
 40
94.0
 40
94.0
 40
95.0
 40
95.0
 40
95.0
 40
96.0
 40
96.0
 40
96.0
 40
97.0
 40
97.0
 40
97.0
 40
98.0
 40
98.0
 40
98.0
 40
99.0
 40
99.0
 40
99.0
 40
100.0
 40
100.0
 40
100.0
 40
101.0
 40
101.0
 40
101.0
 40
102.0
 40
102.0
 40
102.0
 40
103.0
 40
103.0
 40
103.0
 40
104.0
 40
104.0
 40
104.0
 40
105.0
 40
105.0
 40
105.0
 40
106.0
 40
106.0
 40
106.0
 40
107.0
 40
107.0
 40
107.0
 40
108.0
 40
108.0
 40
108.0
 40
109.0
 40
109.0
 40
109.0
 40
110.0
 40
110.0
 40
110.0
 40
111.0
 40
111.0
 40
111.0
 40
112.0
 40
112.0
 40
112.0
 40
113.0
 40
113.0
 40
113.0
 40
114.0
 40
114.0
 40
114.0
 40
115.0
 40
115.0
 40
115.0
 40
116.0
 40
116.0
 40
116.0
 40
117.0
 40
117.0
 40
117.0
 40
118.0
 40
118.0
 40
118.0
 40
119.0
 40
119.0
 40
119.0
 40
120.0
 40
120.0
 40
120.0
 40
121.0
 40
121.0
 40
121.0
 40
122.0
 40
122.0
 40
122.0
 40
123.0
 40
123.0
 40
123.0
 40
124.0
 40
124.0
 40
124.0
 40
125.0
 40
125.0
 40
125.0
 40
126.0
 40
126.0
 40
126.0
 40
127.0
 40
127.0
 40
127.0
 40
127.0
 10
-520.6485818197077
 20
443.5339089874238
 10
-520.947659171521
 20
443.5339089874238
 10
-521.248329879996
 20
443.529731809148
 10
-521.5490867158584
 20
443.5213343889027
 10
-524.8777810374004
 20
443.4285751929623
 10
-528.0732793547438
 20
442.7143638351765
 10
-531.1721858074196
 20
441.5516871725982
 10
-535.8239690500718
 20
439.8064017997706
 10
-539.5935064026451
 20
436.8507251918941
 10
-542.7348736571765
 20
433.0364877253998
 10
-545.4301441100617
 20
429.7638623328803
 10
-547.4161985936147
 20
426.1018119594468
 10
-548.8935847287705
 20
422.1421914634749
 10
-550.6185871019287
 20
417.5190886407374
 10
-551.5547056726582
 20
412.7108549993613
 10
-552.279726017529
 20
407.8539593842561
 10
-552.5643339683043
 20
405.9474004790253
 10
-552.7878776016034
 20
404.0310230516615
 10
-553.0041865343835
 20
402.1151623886205
 10
-553.1757953532425
 20
400.595014005754
 10
-553.3460261339075
 20
399.0713344000152
 10
-553.421516788728
 20
397.544511144646
 10
-553.5011415581308
 20
395.9330246677268
 10
-553.4758631700078
 20
394.3159829743377
 10
-553.4821074055748
 20
392.7012667204011
 10
-553.497653398952
 20
388.6721414230143
 10
-553.3694097195136
 20
384.6481407051618
 10
-552.9506152995879
 20
380.6388677705087
 10
-552.7220332141416
 20
378.450543118278
 10
-552.5294523765161
 20
376.2530028356243
 10
-552.166813013
 20
374.0853056926115
 10
-551.3931737580936
 20
369.4609109590671
 10
-549.7441357403852
 20
365.1562641502474
 10
-547.1394282350685
 20
361.2394920293733
 10
-545.5592490633715
 20
358.8634096731965
 10
-543.6504077823816
 20
356.792347458545
 10
-541.3410741512316
 20
355.1032386739737
 10
-539.8291509338361
 20
353.9973630232085
 10
-538.1901467567285
 20
353.1131792669192
 10
-536.4946430136628
 20
352.3256304389911
 10
-532.7477571639051
 20
350.5851681998429
 10
-528.8035965339233
 20
349.7378469652457
 10
-524.6796019196114
 20
349.7189420037704
 10
-524.6273225956227
 20
349.7187051534557
 10
-524.5752155264083
 20
349.7185974942219
 10
-524.5229362024196
 20
349.7185974942219
 10
-522.8551654780102
 20
349.7185974942219
 10
-521.1936820528613
 20
349.8393050272863
 10
-519.5353853410363
 20
350.0360630431876
 10
-517.1766145896729
 20
350.315890923977
 10
-514.8649985827639
 20
350.8022092154136
 10
-512.606393982634
 20
351.5312775474796
 10
-509.8720216959912
 20
352.4139325426474
 10
-507.2090490132802
 20
353.4853572385601
 10
-504.6010686672525
 20
354.6866835661135
 10
-500.5852500511775
 20
356.5365275869184
 10
-496.5858817660445
 20
358.4220498778424
 10
-492.5768672135529
 20
360.2867293410807
 10
-490.5046853428686
 20
361.2505163349261
 10
-488.4067083197386
 20
362.1474469445109
 10
-486.1837173941876
 20
362.7181270116425
 10
-484.7421602520783
 20
363.0882163941455
 10
-483.285444689834
 20
363.3007787855854
 10
-481.8130108794383
 20
363.3007357218918
 10
-481.3389657406679
 20
363.3007357218918
 10
-480.8630257993806
 20
363.2786871107862
 10
-480.3857939472864
 20
363.2327812134453
 10
-477.9107512232958
 20
362.9945959243339
 10
-475.5172280712249
 20
362.3855891699288
 10
-473.1936403575045
 20
361.5081233498357
 10
-470.6659307362832
 20
360.5535735182601
 10
-468.1542838727618
 20
359.5558738657317
 10
-465.6188227866986
 20
358.6227912853986
 10
-461.4404387274133
 20
357.0851159792509
 10
-457.1740324784799
 20
355.8868471739406
 10
-452.7464388245304
 20
355.2883264289188
 10
-451.2398555051371
 20
355.0846566902002
 10
-449.7383106378909
 20
354.9695043736057
 10
-448.2409860126143
 20
354.9695043736057
 10
-446.319699324184
 20
354.9695043736057
 10
-444.4054320178049
 20
355.1591999437623
 10
-442.4978826476221
 20
355.5949399271061
 10
-440.6482970089785
 20
356.0174378246784
 10
-438.9779855266488
 20
356.8021013851376
 10
-437.5807409252185
 20
358.1205178954959
 10
-436.6095685079266
 20
359.0368271671853
 10
-436.3576459005677
 20
360.1287501812352
 10
-436.7081843661919
 20
361.3918083135149
 10
-436.8950377325731
 20
362.0651091624134
 10
-437.2992335603801
 20
362.5494895876395
 10
-437.9584525814826
 20
362.7813875774904
 10
-438.4113534467123
 20
362.9407232436832
 10
-438.8777763117216
 20
363.0763308147214
 10
-439.3488931193295
 20
363.1662047431928
 10
-440.3360421669342
 20
363.3544361477682
 10
-441.3341724563982
 20
363.485220585127
 10
-442.3208047396802
 20
363.6756913017677
 10
-445.0846756564155
 20
364.2093365924329
 10
-447.7902813957564
 20
364.9387063703539
 10
-450.3424942586167
 20
366.1583132358259
 10
-451.8825380679104
 20
366.8941856314752
 10
-453.357081999291
 20
367.7454687258805
 10
-454.5611428713858
 20
368.9696403428704
 10
-456.653349359578
 20
371.0967284228508
 10
-457.9895296435321
 20
373.6564343683914
 10
-458.7022768357368
 20
376.543510512418
 10
-459.0330060023207
 20
377.8830497644702
 10
-458.9332704880228
 20
379.2066985135968
 10
-458.4556510626865
 20
380.5014945880343
 10
-458.0466751648937
 20
381.610298569962
 10
-457.5117379634216
 20
382.6554974764933
 10
-456.7801288734352
 20
383.5837784549938
 10
-455.5823983642945
 20
385.1035392646182
 10
-454.1194816301767
 20
386.2738812646512
 10
-452.1938455086964
 20
386.7128294931655
 10
-450.5610425034622
 20
387.0849859329597
 10
-448.9107556386404
 20
387.3808335077555
 10
-447.2666268819985
 20
387.7024331713036
 10
-446.6207576059012
 20
387.8287820482251
 10
-445.9841039602271
 20
387.9596526129711
 10
-445.6087177434155
 20
388.5888993033519
 10
-445.5137622991033
 20
388.5888993033519
 10
-445.4286684406177
 20
388.5882102842549
 10
-445.3471058050044
 20
388.5882102842549
 10
-445.3007692707278
 20
388.5882102842549
 10
-445.2555523924839
 20
388.5884256027227
 10
-445.2103355142399
 20
388.5891576855133
 10
-440.8714530690356
 20
388.6576720219762
 10
-436.5326136875249
 20
388.7309233647313
 10
-432.1936451149334
 20
388.7942269942728
 10
-426.5319321307802
 20
388.8768662222253
 10
-420.8700468918528
 20
388.9507635203839
 10
-415.2082908440061
 20
389.030259098706
 10
-412.3771113742278
 20
389.0700068878671
 10
-409.5460180318366
 20
389.1150515113367
 10
-406.7148816257518
 20
389.1555313832884
 10
-403.7581714892298
 20
389.1978629940634
 10
-400.8014182890141
 20
389.237352401063
 10
-397.844708152492
 20
389.2784782284182
 10
-394.8458817236627
 20
389.3202069474833
 10
-391.8470552948334
 20
389.3614189022256
 10
-388.8482288660041
 20
389.4046548505655
 10
-385.9542625310071
 20
389.4464266333242
 10
-383.0603823233972
 20
389.4909975561646
 10
-380.1664159884003
 20
389.5333722306332
 10
-377.2724927170968
 20
389.5757469051018
 10
-374.3785694457934
 20
389.617561751554
 10
-371.4846031107964
 20
389.6584291967478
 10
-368.5070501465885
 20
389.7004593616678
 10
-365.5294971823807
 20
389.7430493546042
 10
-362.5519011544793
 20
389.7817636151197
 10
-359.1543695187726
 20
389.825946964718
 10
-355.7567086919853
 20
389.863713823975
 10
-352.3591985881255
 20
389.9087584474447
 10
-349.3813657099095
 20
389.948290918138
 10
-346.4036835546209
 20
389.9973404651092
 10
-343.4258076127113
 20
390.0361839167054
 10
-339.9238895838016
 20
390.0819175592721
 10
-336.4219500230452
 20
390.1237324057243
 10
-332.9199673985951
 20
390.1624466662398
 10
-329.8788308908376
 20
390.1960794109145
 10
-326.8376728512333
 20
390.231133257477
 10
-323.7964717479355
 20
390.2510717475978
 10
-319.0982443117728
 20
390.2818622884973
 10
-314.3999522800697
 20
390.300724186279
 10
-309.7017033120603
 20
390.3237632623366
 10
-309.6819155448669
 20
390.3238493897238
 10
-309.6625584146091
 20
390.3238924534173
 10
-309.6428137111093
 20
390.3238924534173
 10
-307.4159039894438
 20
390.3238063260302
 10
-305.3854508378246
 20
389.7014067629262
 10
-303.5761728163586
 20
388.3821505105434
 10
-302.1016934805184
 20
387.3069792732904
 10
-300.8737107266479
 20
385.9841056706481
 10
-299.8778843447897
 20
384.4712781156878
 10
-299.4915384179657
 20
383.8843199723883
 10
-299.054700310436
 20
383.6155594608452
 10
-298.4926114501707
 20
383.6155594608452
 10
-298.3303259209687
 20
383.6155594608452
 10
-298.1575759142302
 20
383.637995645193
 10
-297.9725742866722
 20
383.6816191667749
 10
-297.8909685873654
 20
383.7008686377987
 10
-297.8077479995498
 20
383.7130556630779
 10
-297.7252379626781
 20
383.7283432742936
 10
-294.5091551998102
 20
384.3240002836934
 10
-291.2882708351098
 20
384.8854216567083
 10
-288.0309976493464
 20
385.2156771226631
 10
-285.4635187071172
 20
385.4759971502673
 10
-282.8929391789513
 20
385.6633242172778
 10
-280.3109477719904
 20
385.6850283188348
 10
-280.0672933937961
 20
385.687095376126
 10
-279.8238543340697
 20
385.688085841078
 10
-279.5802430195689
 20
385.688085841078
 10
-276.8230039116428
 20
385.688085841078
 10
-274.0703510870814
 20
385.5582057412841
 10
-271.3240286254741
 20
385.326523069901
 10
-268.2328951694869
 20
385.0656862779741
 10
-265.1477906305989
 20
384.7330192451796
 10
-262.0582289994269
 20
384.4519425172768
 10
-260.7441834539654
 20
384.3323546402451
 10
-259.4263483034703
 20
384.2111734065514
 10
-258.1085777485154
 20
384.1885649674294
 10
-258.0499465297258
 20
384.1875314387839
 10
-257.991336842783
 20
384.1870146744611
 10
-257.932748687687
 20
384.1870146744611
 10
-256.8581372784504
 20
384.1870146744611
 10
-255.7950023435491
 20
384.3613795697083
 10
-254.8255094103062
 20
384.9020873061182
 10
-253.9417562909525
 20
385.3950374063639
 10
-253.4746874705397
 20
386.1446040565672
 10
-253.4834509321804
 20
387.1563424731979
 10
-253.4888338938761
 20
387.7730576287512
 10
-253.6652227827209
 20
388.351359969644
 10
-254.0121223662387
 20
388.8753159292569
 10
-254.5268196317351
 20
389.6528309165842
 10
-255.1856510795955
 20
390.2970637723259
 10
-255.8681675589171
 20
390.9197647812848
 10
-256.9429512229279
 20
391.9004542748548
 10
-257.7938467440911
 20
393.0184738872055
 10
-258.0962615321556
 20
394.4813044939361
 10
-258.146193884845
 20
394.7229348785328
 10
-258.2754064973886
 20
394.899582149539
 10
-258.5120630253785
 20
394.9930303645764
 10
-259.2656776627769
 20
395.2905143597278
 10
-260.012875809834
 20
395.6053960870796
 10
-260.7732514471222
 20
395.8842765666105
 10
-261.1635161700607
 20
396.0273772203291
 10
-261.5788870263479
 20
396.1004993720035
 10
-261.9789272077257
 20
396.2184938923734
 10
-263.8404630213337
 20
396.7675129216415
 10
-265.7319926975102
 20
397.2161074175146
 10
-267.5421750565411
 20
397.9369505841095
 10
-268.0627935799027
 20
398.1442592049344
 10
-268.6325693094695
 20
398.2245299297408
 10
-269.1722004535403
 20
398.388085837903
 10
-271.5741856213969
 20
399.1160775776299
 10
-273.9731132670102
 20
399.8541462216511
 10
-276.3736773329791
 20
400.5866596492023
 10
-278.7136077184076
 20
401.3006126248268
 10
-281.0550453331108
 20
402.0096132756912
 10
-283.3942436357487
 20
402.7258055633811
 10
-285.1330263908478
 20
403.2582020069329
 10
-286.8681487319939
 20
403.8023979025216
 10
-288.607039146327
 20
404.3344498365249
 10
-290.9271817645621
 20
405.0443548249542
 10
-293.2484440388298
 20
405.7505993994304
 10
-295.570955160211
 20
406.4527529230179
 10
-297.4537644384404
 20
407.0219688245683
 10
-299.3388560924287
 20
407.5834763249705
 10
-301.2232802591669
 20
408.1471800737445
 10
-301.5795461960353
 20
408.2537627153194
 10
-301.8682451976992
 20
408.3116403194716
 10
-302.118294534388
 20
408.3116403194716
 10
-302.662167452275
 20
408.3116403194716
 10
-303.0226966948064
 20
408.03758297362
 10
-303.4949546902938
 20
407.3948142834595
 10
-303.8921957315899
 20
406.8541926744367
 10
-304.2807163749389
 20
406.3059918553462
 10
-304.7013410018412
 20
405.7839306982502
 10
-305.5076871320107
 20
404.7831304597851
 10
-306.4921662306144
 20
404.0384300069548
 10
-307.7428004873004
 20
403.6508567648642
 10
-308.6221611099105
 20
403.3783497119809
 10
-309.5235488117793
 20
403.3502291200826
 10
-310.419596615646
 20
403.3468701519845
 10
-310.8716362070043
 20
403.3451476042418
 10
-311.3234389480481
 20
403.3443724577577
 10
-311.7754785394064
 20
403.3443724577577
 10
-314.2176421333597
 20
403.3443724577577
 10
-316.6601287050146
 20
403.3670239605732
 10
-319.1022492352744
 20
403.39053673726
 10
-322.4785289382064
 20
403.4230498259021
 10
-325.8546363863641
 20
403.4700753792757
 10
-329.2308084300621
 20
403.5145171110354
 10
-332.1879061398263
 20
403.5534466900188
 10
-335.1449392540501
 20
403.5968979568265
 10
-338.1019939001208
 20
403.63957407715
 10
-340.9539731338913
 20
403.6807860318923
 10
-343.8059093039682
 20
403.7243664897807
 10
-346.6578239421984
 20
403.7654492534423
 10
-349.6985082811735
 20
403.8092880934921
 10
-352.7391710883018
 20
403.8516627679607
 10
-355.77983389543
 20
403.8942527608971
 10
-358.7349506752902
 20
403.9355939067201
 10
-361.6900674551504
 20
403.9758153965104
 10
-364.6451411713171
 20
404.0175441155755
 10
-367.560122588774
 20
404.0587560703178
 10
-370.4750178788439
 20
404.1002694709151
 10
-373.3899131689138
 20
404.1434623555614
 10
-376.1369461814649
 20
404.1841575459809
 10
-378.8839361303224
 20
404.2276949401758
 10
-381.63092607918
 20
404.2690360859987
 10
-384.5249354778705
 20
404.3126165438871
 10
-387.4189018128675
 20
404.3556371737592
 10
-390.3129112115581
 20
404.3978826571471
 10
-393.1640722351509
 20
404.4395683125186
 10
-396.0153193861307
 20
404.4792299742925
 10
-398.8664804097235
 20
404.5211309481319
 10
-401.6554574598075
 20
404.5621275844064
 10
-404.4444775735851
 20
404.6018323098739
 10
-407.233368496282
 20
404.6473075702792
 10
-412.2449919623684
 20
404.7289993969732
 10
-417.2564862373742
 20
404.8155143573465
 10
-422.2680235760736
 20
404.8982397126861
 10
-425.6023161777791
 20
404.9533181767565
 10
-428.9365657157911
 20
405.0074061758749
 10
-432.2709013811901
 20
405.0569724871689
 10
-432.549092841624
 20
405.0611066017512
 10
-432.8271981746708
 20
405.0623985125582
 10
-433.1104711509455
 20
405.0623985125582
 10
-433.5936888564453
 20
405.0623985125582
 10
-434.0917204725318
 20
405.0586089075244
 10
-434.6290261771501
 20
405.0586089075244
 10
-434.5422097709218
 20
405.5363144602479
 10
-434.7729881047399
 20
405.7399626671197
 10
-435.0659934757604
 20
405.8927526518905
 10
-435.2512534854798
 20
405.9893445165582
 10
-435.445642998235
 20
406.069873623526
 10
-435.6400755746837
 20
406.1471729534762
 10
-436.6718386088225
 20
406.5574838257695
 10
-437.701147012428
 20
406.9744695705654
 10
-438.738938963666
 20
407.3689760673201
 10
-439.4111632202254
 20
407.6245160249385
 10
-439.8426614297529
 20
408.1064418196314
 10
-440.1383367497745
 20
408.7367651023514
 10
-440.5738829464972
 20
409.6652613993198
 10
-440.6430432383636
 20
410.643151752808
 10
-440.4381031206848
 20
411.6272432781696
 10
-439.7837502969551
 20
414.7691272970239
 10
-438.2788033979173
 20
417.4335641453161
 10
-435.8073780241862
 20
419.4971763409808
 10
-432.0193663470733
 20
422.6601615696822
 10
-427.6373771446098
 20
424.3671202552364
 10
-422.7183406196893
 20
424.7339367970283
 10
-421.3198902348393
 20
424.8381939991507
 10
-419.9270381301528
 20
425.0206118050947
 10
-418.5330663694336
 20
425.1799044075939
 10
-416.8959569948429
 20
425.3669300287494
 10
-415.5496136792073
 20
427.4975493316022
 10
-416.0715887089161
 20
429.2071779661574
 10
-416.29168724673
 20
429.9279350053653
 10
-416.6484268842277
 20
430.5496024856786
 10
-417.1087347047506
 20
431.1250195591024
 10
-418.7522605696826
 20
433.1792438695698
 10
-420.9339964767977
 20
434.4349811739434
 10
-423.3866891438278
 20
435.2354491099412
 10
-426.5138023157891
 20
436.2560155837529
 10
-429.7357417409819
 20
436.7721339511368
 10
-433.0246452096692
 20
436.880180758293
 10
-433.4079120824032
 20
436.8927984205077
 10
-433.7904038086531
 20
436.8989565286876
 10
-434.172292643193
 20
436.8989565286876
 10
-437.4280801315284
 20
436.8989134649941
 10
-440.6350333913604
 20
436.4513524977665
 10
-443.8131770401969
 20
435.7303370763973
 10
-448.1078761358029
 20
434.7560640731687
 10
-452.3374198630441
 20
433.5438641629899
 10
-456.4916451902391
 20
432.0904214414566
 10
-460.1808687543124
 20
430.7996733542142
 10
-463.9359367058476
 20
429.7968921858451
 10
-467.7870366940342
 20
429.1437882092288
 10
-469.598424836485
 20
428.8365718193317
 10
-471.4091670235323
 20
428.6745662041378
 10
-473.2181435991434
 20
428.6745662041378
 10
-475.1420141091876
 20
428.6745662041378
 10
-477.0638606256342
 20
428.8578452839531
 10
-478.9817452822728
 20
429.2447725706402
 10
-483.1934175766843
 20
430.0943761809964
 10
-487.2145760907615
 20
431.5299044060064
 10
-491.1068880336903
 20
433.3287610136296
 10
-494.0744071572974
 20
434.7002104626141
 10
-497.0072600075841
 20
436.1472366938061
 10
-499.9818846406296
 20
437.5027525761712
 10
-502.4599418231697
 20
438.631968748849
 10
-504.9718470688525
 20
439.6874598781424
 10
-507.476646805097
 20
440.7571620263125
 10
-511.6943480166077
 20
442.5584302007753
 10
-516.0718155312468
 20
443.5339089874238
 10
-520.6485818197077
 20
443.5339089874238
 10
-520.6485818197077
 20
443.5339089874238
 10
-520.6485818197077
 20
443.5339089874238
 10
-520.6485818197077
 20
443.5339089874238
 97
        0
 92
        1
 93
        2
 72
     4
 94
        3
 73
     0
 74
     0
 95
      530
 96
      526
 40
0.0
 40
0.0
 40
0.0
 40
0.0
 40
0.3527777776895833
 40
0.3527777776895833
 40
0.3527777776895833
 40
0.7055555553791667
 40
0.7055555553791667
 40
0.7055555553791667
 40
1.05833333306875
 40
1.05833333306875
 40
1.05833333306875
 40
1.411111110758333
 40
1.411111110758333
 40
1.411111110758333
 40
1.763888888447917
 40
1.763888888447917
 40
1.763888888447917
 40
2.1166666661375
 40
2.1166666661375
 40
2.1166666661375
 40
2.469444443827083
 40
2.469444443827083
 40
2.469444443827083
 40
2.822222221516667
 40
2.822222221516667
 40
2.822222221516667
 40
3.17499999920625
 40
3.17499999920625
 40
3.17499999920625
 40
3.527777776895833
 40
3.527777776895833
 40
3.527777776895833
 40
3.880555554585417
 40
3.880555554585417
 40
3.880555554585417
 40
4.233333332275
 40
4.233333332275
 40
4.233333332275
 40
4.586111109964584
 40
4.586111109964584
 40
4.586111109964584
 40
4.938888887654167
 40
4.938888887654167
 40
4.938888887654167
 40
5.29166666534375
 40
5.29166666534375
 40
5.29166666534375
 40
5.644444443033334
 40
5.644444443033334
 40
5.644444443033334
 40
5.997222220722917
 40
5.997222220722917
 40
5.997222220722917
 40
6.349999998412501
 40
6.349999998412501
 40
6.349999998412501
 40
6.702777776102083
 40
6.702777776102083
 40
6.702777776102083
 40
7.055555553791667
 40
7.055555553791667
 40
7.055555553791667
 40
7.40833333148125
 40
7.40833333148125
 40
7.40833333148125
 40
7.761111109170834
 40
7.761111109170834
 40
7.761111109170834
 40
8.113888886860417
 40
8.113888886860417
 40
8.113888886860417
 40
8.46666666455
 40
8.46666666455
 40
8.46666666455
 40
8.819444442239584
 40
8.819444442239584
 40
8.819444442239584
 40
9.172222219929168
 40
9.172222219929168
 40
9.172222219929168
 40
9.52499999761875
 40
9.52499999761875
 40
9.52499999761875
 40
9.877777775308333
 40
9.877777775308333
 40
9.877777775308333
 40
10.23055555299792
 40
10.23055555299792
 40
10.23055555299792
 40
10.5833333306875
 40
10.5833333306875
 40
10.5833333306875
 40
10.93611110837708
 40
10.93611110837708
 40
10.93611110837708
 40
11.28888888606667
 40
11.28888888606667
 40
11.28888888606667
 40
11.64166666375625
 40
11.64166666375625
 40
11.64166666375625
 40
11.99444444144583
 40
11.99444444144583
 40
11.99444444144583
 40
12.34722221913542
 40
12.34722221913542
 40
12.34722221913542
 40
12.699999996825
 40
12.699999996825
 40
12.699999996825
 40
13.05277777451458
 40
13.05277777451458
 40
13.05277777451458
 40
13.40555555220417
 40
13.40555555220417
 40
13.40555555220417
 40
13.75833332989375
 40
13.75833332989375
 40
13.75833332989375
 40
14.11111110758333
 40
14.11111110758333
 40
14.11111110758333
 40
14.46388888527292
 40
14.46388888527292
 40
14.46388888527292
 40
14.8166666629625
 40
14.8166666629625
 40
14.8166666629625
 40
15.16944444065208
 40
15.16944444065208
 40
15.16944444065208
 40
15.52222221834167
 40
15.52222221834167
 40
15.52222221834167
 40
15.87499999603125
 40
15.87499999603125
 40
15.87499999603125
 40
16.22777777372083
 40
16.22777777372083
 40
16.22777777372083
 40
16.58055555141042
 40
16.58055555141042
 40
16.58055555141042
 40
16.9333333291
 40
16.9333333291
 40
16.9333333291
 40
17.28611110678958
 40
17.28611110678958
 40
17.28611110678958
 40
17.63888888447917
 40
17.63888888447917
 40
17.63888888447917
 40
17.99166666216875
 40
17.99166666216875
 40
17.99166666216875
 40
18.34444443985834
 40
18.34444443985834
 40
18.34444443985834
 40
18.69722221754792
 40
18.69722221754792
 40
18.69722221754792
 40
19.0499999952375
 40
19.0499999952375
 40
19.0499999952375
 40
19.40277777292708
 40
19.40277777292708
 40
19.40277777292708
 40
19.75555555061667
 40
19.75555555061667
 40
19.75555555061667
 40
20.10833332830625
 40
20.10833332830625
 40
20.10833332830625
 40
20.46111110599583
 40
20.46111110599583
 40
20.46111110599583
 40
20.81388888368542
 40
20.81388888368542
 40
20.81388888368542
 40
21.166666661375
 40
21.166666661375
 40
21.166666661375
 40
21.51944443906459
 40
21.51944443906459
 40
21.51944443906459
 40
21.87222221675417
 40
21.87222221675417
 40
21.87222221675417
 40
22.22499999444375
 40
22.22499999444375
 40
22.22499999444375
 40
22.57777777213333
 40
22.57777777213333
 40
22.57777777213333
 40
22.93055554982292
 40
22.93055554982292
 40
22.93055554982292
 40
23.2833333275125
 40
23.2833333275125
 40
23.2833333275125
 40
23.63611110520208
 40
23.63611110520208
 40
23.63611110520208
 40
23.98888888289167
 40
23.98888888289167
 40
23.98888888289167
 40
24.34166666058125
 40
24.34166666058125
 40
24.34166666058125
 40
24.69444443827084
 40
24.69444443827084
 40
24.69444443827084
 40
25.04722221596042
 40
25.04722221596042
 40
25.04722221596042
 40
25.39999999365
 40
25.39999999365
 40
25.39999999365
 40
25.75277777133958
 40
25.75277777133958
 40
25.75277777133958
 40
26.10555554902917
 40
26.10555554902917
 40
26.10555554902917
 40
26.45833332671875
 40
26.45833332671875
 40
26.45833332671875
 40
26.81111110440833
 40
26.81111110440833
 40
26.81111110440833
 40
27.16388888209792
 40
27.16388888209792
 40
27.16388888209792
 40
27.5166666597875
 40
27.5166666597875
 40
27.5166666597875
 40
27.86944443747709
 40
27.86944443747709
 40
27.86944443747709
 40
28.22222221516667
 40
28.22222221516667
 40
28.22222221516667
 40
28.57499999285625
 40
28.57499999285625
 40
28.57499999285625
 40
28.92777777054583
 40
28.92777777054583
 40
28.92777777054583
 40
29.28055554823542
 40
29.28055554823542
 40
29.28055554823542
 40
29.633333325925
 40
29.633333325925
 40
29.633333325925
 40
29.98611110361459
 40
29.98611110361459
 40
29.98611110361459
 40
30.33888888130417
 40
30.33888888130417
 40
30.33888888130417
 40
30.69166665899375
 40
30.69166665899375
 40
30.69166665899375
 40
31.04444443668334
 40
31.04444443668334
 40
31.04444443668334
 40
31.39722221437292
 40
31.39722221437292
 40
31.39722221437292
 40
31.7499999920625
 40
31.7499999920625
 40
31.7499999920625
 40
32.10277776975209
 40
32.10277776975209
 40
32.10277776975209
 40
32.45555554744167
 40
32.45555554744167
 40
32.45555554744167
 40
32.80833332513125
 40
32.80833332513125
 40
32.80833332513125
 40
33.16111110282083
 40
33.16111110282083
 40
33.16111110282083
 40
33.51388888051042
 40
33.51388888051042
 40
33.51388888051042
 40
33.8666666582
 40
33.8666666582
 40
33.8666666582
 40
34.21944443588959
 40
34.21944443588959
 40
34.21944443588959
 40
34.57222221357917
 40
34.57222221357917
 40
34.57222221357917
 40
34.92499999126875
 40
34.92499999126875
 40
34.92499999126875
 40
35.27777776895834
 40
35.27777776895834
 40
35.27777776895834
 40
35.63055554664792
 40
35.63055554664792
 40
35.63055554664792
 40
35.9833333243375
 40
35.9833333243375
 40
35.9833333243375
 40
36.33611110202708
 40
36.33611110202708
 40
36.33611110202708
 40
36.68888887971667
 40
36.68888887971667
 40
36.68888887971667
 40
37.04166665740625
 40
37.04166665740625
 40
37.04166665740625
 40
37.39444443509583
 40
37.39444443509583
 40
37.39444443509583
 40
37.74722221278542
 40
37.74722221278542
 40
37.74722221278542
 40
38.099999990475
 40
38.099999990475
 40
38.099999990475
 40
38.45277776816459
 40
38.45277776816459
 40
38.45277776816459
 40
38.80555554585417
 40
38.80555554585417
 40
38.80555554585417
 40
39.15833332354375
 40
39.15833332354375
 40
39.15833332354375
 40
39.51111110123333
 40
39.51111110123333
 40
39.51111110123333
 40
39.86388887892292
 40
39.86388887892292
 40
39.86388887892292
 40
40.2166666566125
 40
40.2166666566125
 40
40.2166666566125
 40
40.56944443430208
 40
40.56944443430208
 40
40.56944443430208
 40
40.92222221199167
 40
40.92222221199167
 40
40.92222221199167
 40
41.27499998968126
 40
41.27499998968126
 40
41.27499998968126
 40
41.62777776737084
 40
41.62777776737084
 40
41.62777776737084
 40
41.98055554506042
 40
41.98055554506042
 40
41.98055554506042
 40
42.33333332275
 40
42.33333332275
 40
42.33333332275
 40
42.68611110043958
 40
42.68611110043958
 40
42.68611110043958
 40
43.03888887812917
 40
43.03888887812917
 40
43.03888887812917
 40
43.39166665581875
 40
43.39166665581875
 40
43.39166665581875
 40
43.74444443350833
 40
43.74444443350833
 40
43.74444443350833
 40
44.09722221119792
 40
44.09722221119792
 40
44.09722221119792
 40
44.44999998888751
 40
44.44999998888751
 40
44.44999998888751
 40
44.80277776657709
 40
44.80277776657709
 40
44.80277776657709
 40
45.15555554426667
 40
45.15555554426667
 40
45.15555554426667
 40
45.50833332195625
 40
45.50833332195625
 40
45.50833332195625
 40
45.86111109964583
 40
45.86111109964583
 40
45.86111109964583
 40
46.21388887733542
 40
46.21388887733542
 40
46.21388887733542
 40
46.566666655025
 40
46.566666655025
 40
46.566666655025
 40
46.91944443271458
 40
46.91944443271458
 40
46.91944443271458
 40
47.27222221040417
 40
47.27222221040417
 40
47.27222221040417
 40
47.62499998809376
 40
47.62499998809376
 40
47.62499998809376
 40
47.97777776578334
 40
47.97777776578334
 40
47.97777776578334
 40
48.33055554347292
 40
48.33055554347292
 40
48.33055554347292
 40
48.6833333211625
 40
48.6833333211625
 40
48.6833333211625
 40
49.03611109885208
 40
49.03611109885208
 40
49.03611109885208
 40
49.38888887654167
 40
49.38888887654167
 40
49.38888887654167
 40
49.74166665423125
 40
49.74166665423125
 40
49.74166665423125
 40
50.09444443192083
 40
50.09444443192083
 40
50.09444443192083
 40
50.44722220961042
 40
50.44722220961042
 40
50.44722220961042
 40
50.7999999873
 40
50.7999999873
 40
50.7999999873
 40
51.15277776498959
 40
51.15277776498959
 40
51.15277776498959
 40
51.50555554267917
 40
51.50555554267917
 40
51.50555554267917
 40
51.85833332036875
 40
51.85833332036875
 40
51.85833332036875
 40
52.21111109805834
 40
52.21111109805834
 40
52.21111109805834
 40
52.56388887574792
 40
52.56388887574792
 40
52.56388887574792
 40
52.9166666534375
 40
52.9166666534375
 40
52.9166666534375
 40
53.26944443112708
 40
53.26944443112708
 40
53.26944443112708
 40
53.62222220881667
 40
53.62222220881667
 40
53.62222220881667
 40
53.97499998650625
 40
53.97499998650625
 40
53.97499998650625
 40
54.32777776419584
 40
54.32777776419584
 40
54.32777776419584
 40
54.68055554188542
 40
54.68055554188542
 40
54.68055554188542
 40
55.033333319575
 40
55.033333319575
 40
55.033333319575
 40
55.38611109726459
 40
55.38611109726459
 40
55.38611109726459
 40
55.73888887495417
 40
55.73888887495417
 40
55.73888887495417
 40
56.09166665264375
 40
56.09166665264375
 40
56.09166665264375
 40
56.44444443033333
 40
56.44444443033333
 40
56.44444443033333
 40
56.79722220802292
 40
56.79722220802292
 40
56.79722220802292
 40
57.1499999857125
 40
57.1499999857125
 40
57.1499999857125
 40
57.50277776340209
 40
57.50277776340209
 40
57.50277776340209
 40
57.85555554109167
 40
57.85555554109167
 40
57.85555554109167
 40
58.20833331878125
 40
58.20833331878125
 40
58.20833331878125
 40
58.56111109647084
 40
58.56111109647084
 40
58.56111109647084
 40
58.91388887416042
 40
58.91388887416042
 40
58.91388887416042
 40
59.26666665185
 40
59.26666665185
 40
59.26666665185
 40
59.61944442953958
 40
59.61944442953958
 40
59.61944442953958
 40
59.97222220722917
 40
59.97222220722917
 40
59.97222220722917
 40
60.32499998491875
 40
60.32499998491875
 40
60.32499998491875
 40
60.67777776260834
 40
60.67777776260834
 40
60.67777776260834
 40
61.03055554029792
 40
61.03055554029792
 40
61.03055554029792
 40
61.3833333179875
 40
61.3833333179875
 40
61.3833333179875
 40
61.73611109567709
 40
61.73611109567709
 40
61.73611109567709
 40
61.73611109567709
 10
-520.6485818197077
 20
443.1811312097342
 10
-516.2704683496651
 20
443.1811312097342
 10
-511.8854216249584
 20
442.2564245177996
 10
-507.6151827072976
 20
440.4327201589891
 10
-507.6151827072976
 20
440.4327201589891
 10
-506.3864032750961
 20
439.9088933904568
 10
-506.3864032750961
 20
439.9088933904568
 10
-504.3268821303202
 20
439.0316428888315
 10
-502.1972532924195
 20
438.1245923112588
 10
-500.128172007672
 20
437.1817127406395
 10
-498.5025175755697
 20
436.4409310839237
 10
-496.8610587679289
 20
435.659281982014
 10
-495.2736018320193
 20
434.9033419051631
 10
-493.9590395222351
 20
434.2773680554932
 10
-492.5998201622234
 20
433.6300776775083
 10
-491.2548979484754
 20
433.0085393882757
 10
-486.9972336293358
 20
431.0408300381816
 10
-483.0054445542704
 20
429.6965537798372
 10
-479.0515515295427
 20
428.8989711113082
 10
-477.1530024713151
 20
428.5159626207356
 10
-475.1903746370618
 20
428.3217453627547
 10
-473.2181435991434
 20
428.3217453627547
 10
-471.4305696792344
 20
428.3217453627547
 10
-469.5834386711241
 20
428.4812963474153
 10
-467.7280394338493
 20
428.7959627562993
 10
-464.0084990295057
 20
429.4267597396486
 10
-460.1888355376221
 20
430.4231244176764
 10
-456.3751148354505
 20
431.7574098991136
 10
-452.2679581253228
 20
433.1944022897049
 10
-448.0152461309432
 20
434.4153441296774
 10
-443.735145627456
 20
435.3863012285015
 10
-440.2948732758855
 20
436.1667445469913
 10
-437.1668127026658
 20
436.5461356873045
 10
-434.172292643193
 20
436.5461356873045
 10
-433.7933321398156
 20
436.5461356873045
 10
-433.4110987957271
 20
436.5398914517374
 10
-433.0362724069319
 20
436.5276182990713
 10
-429.6767014171034
 20
436.417202988769
 10
-426.4669920808832
 20
435.8696481250821
 10
-423.4961139891781
 20
434.9000690644521
 10
-420.8411942171638
 20
434.0335844862182
 10
-418.8419191796862
 20
432.7266444501951
 10
-417.3842131524899
 20
430.9046195754336
 10
-416.9211923192723
 20
430.3258435339116
 10
-416.6022195410317
 20
429.7369044607082
 10
-416.4090358116964
 20
429.1041696111484
 10
-416.1855352420908
 20
428.3723021390007
 10
-416.3469379655747
 20
427.4857929432588
 10
-416.8407493396917
 20
426.7327381338768
 10
-417.2865016317895
 20
426.0528916035562
 10
-417.9340934556294
 20
425.6033927701183
 10
-418.5731156044496
 20
425.5304428732181
 10
-418.8911409814318
 20
425.4940540521551
 10
-419.2092094221074
 20
425.4565455750595
 10
-419.5272347990896
 20
425.4189509705767
 10
-420.5818215908181
 20
425.2944538324785
 10
-421.6723235029804
 20
425.1656933887173
 10
-422.7445664090708
 20
425.0857241097659
 10
-427.786851224976
 20
424.7097350012444
 10
-432.2578530820397
 20
422.9205677246735
 10
-436.0334624154057
 20
419.7679608461214
 10
-438.4990311268119
 20
417.7092579115233
 10
-440.0971678587258
 20
414.9945226691464
 10
-440.783473943081
 20
411.6992027101177
 10
-441.0148551686091
 20
410.5881163524311
 10
-440.9052580684847
 20
409.5410657070765
 10
-440.4577401649507
 20
408.5869465124366
 10
-440.0958328842252
 20
407.8155465695956
 10
-439.5746330010004
 20
407.3092467243446
 10
-438.8642973756355
 20
407.0392373656881
 10
-438.0659395606224
 20
406.7357244534376
 10
-437.2579354782507
 20
406.4130481975504
 10
-436.4765447585024
 20
406.1009656102804
 10
-436.4765447585024
 20
406.1009656102804
 10
-435.7703863114133
 20
405.8193721180547
 10
-435.7703863114133
 20
405.8193721180547
 10
-435.5627331810399
 20
405.7368190174894
 10
-435.3912535532616
 20
405.6644720122992
 10
-435.2290756832934
 20
405.5798949181363
 10
-434.9986418590238
 20
405.4597902767817
 10
-434.9297830130124
 20
405.3767204118937
 10
-434.976119547289
 20
405.1216972185981
 10
-434.976119547289
 20
405.1216972185981
 10
-435.0516532658031
 20
404.7058311298348
 10
-435.0516532658031
 20
404.7058311298348
 10
-435.0516532658031
 20
404.7058311298348
 10
-434.6290261771501
 20
404.7058311298348
 10
-434.6290261771501
 20
404.7058311298348
 10
-434.3527725829266
 20
404.7058311298348
 10
-434.0868973388525
 20
404.7068646584804
 10
-433.828084540523
 20
404.7078120597388
 10
-433.5834827610703
 20
404.7087163973038
 10
-433.3452544082652
 20
404.7096207348686
 10
-433.1104711509455
 20
404.7096207348686
 10
-432.8289207224134
 20
404.7096207348686
 10
-432.5525810008028
 20
404.7083288240617
 10
-432.2761551518051
 20
404.7042377731729
 10
-428.9419917411803
 20
404.6546714618789
 10
-425.6079575216363
 20
404.6005834627605
 10
-422.2738802383986
 20
404.54550499869
 10
-420.077115102229
 20
404.5092453687078
 10
-417.880393029753
 20
404.4722536559349
 10
-415.683670957277
 20
404.4352619431621
 10
-412.8688556910536
 20
404.3878488165463
 10
-410.0539973611367
 20
404.3404787536241
 10
-407.2391390312197
 20
404.2945728562831
 10
-404.9613710874532
 20
404.2574519524296
 10
-402.6835600799932
 20
404.2241206536098
 10
-400.4057490725331
 20
404.1908754821771
 10
-400.4057490725331
 20
404.1908754821771
 10
-398.8716480529514
 20
404.1683962341359
 10
-398.8716480529514
 20
404.1683962341359
 10
-397.3669164723814
 20
404.1463045593367
 10
-395.8620987644243
 20
404.1247727125539
 10
-394.3573241201607
 20
404.1032839294646
 10
-394.3573241201607
 20
404.1032839294646
 10
-390.3180357910924
 20
404.0451479431511
 10
-390.3180357910924
 20
404.0451479431511
 10
-387.4241125197889
 20
404.0029024597632
 10
-384.5301892484855
 20
403.9598818298911
 10
-381.6362229134886
 20
403.9163013720027
 10
-381.6362229134886
 20
403.9163013720027
 10
-378.0591802711537
 20
403.8616535448679
 10
-378.0591802711537
 20
403.8616535448679
 10
-376.5045378697411
 20
403.8376670675519
 10
-374.9498093409414
 20
403.8137236539294
 10
-373.3951238758353
 20
403.7907276415654
 10
-370.4801424583782
 20
403.747534756919
 10
-367.5651610409212
 20
403.7060213563218
 10
-364.6501365597707
 20
403.6647663378859
 10
-364.6501365597707
 20
403.6647663378859
 10
-359.6219551035081
 20
403.5947878358418
 10
-359.6219551035081
 20
403.5947878358418
 10
-359.6219551035081
 20
403.5947878358418
 10
-355.7847862201901
 20
403.5415180469011
 10
-355.7847862201901
 20
403.5415180469011
 10
-355.7847862201901
 20
403.5415180469011
 10
-354.724105915822
 20
403.526661072621
 10
-354.724105915822
 20
403.526661072621
 10
-352.037039096561
 20
403.4890664681382
 10
-349.3499507454533
 20
403.4514718636554
 10
-346.6629269898859
 20
403.4127145394463
 10
-345.2029385869306
 20
403.3916563932927
 10
-343.7429932476689
 20
403.3699953554292
 10
-342.2830263765603
 20
403.3482912538722
 10
-342.2830263765603
 20
403.3482912538722
 10
-338.1070969478083
 20
403.286839363154
 10
-338.1070969478083
 20
403.286839363154
 10
-338.1070969478083
 20
403.286839363154
 10
-336.839237213696
 20
403.268494229695
 10
-336.839237213696
 20
403.268494229695
 10
-334.3046589333509
 20
403.2318470264707
 10
-331.7700591211591
 20
403.1951567595528
 10
-329.2354377771204
 20
403.1617823970394
 10
-329.2354377771204
 20
403.1617823970394
 10
-327.6825394552973
 20
403.141197951515
 10
-327.6825394552973
 20
403.141197951515
 10
-324.871578389648
 20
403.1039047928872
 10
-321.9648867332024
 20
403.0653197234524
 10
-319.105651267066
 20
403.0377589595705
 10
-316.3858129770016
 20
403.0116192975761
 10
-314.1190262750944
 20
402.9915946800681
 10
-311.7754785394064
 20
402.9915946800681
 10
-311.3230298429592
 20
402.9915946800681
 10
-310.8707534012862
 20
402.9924128902458
 10
-310.4182616411454
 20
402.9940923742949
 10
-309.5229459200694
 20
402.997451342393
 10
-308.5708076553335
 20
403.0249259788879
 10
-307.6383710304038
 20
403.3138833627132
 10
-306.3828705763448
 20
403.7029638340786
 10
-305.3323102399647
 20
404.4384917201795
 10
-304.4266592324328
 20
405.5625833133229
 10
-304.0922911837426
 20
405.9775881282148
 10
-303.7752347398657
 20
406.4124453058405
 10
-303.4686212416784
 20
406.8330484008959
 10
-303.4686212416784
 20
406.8330484008959
 10
-303.2106697172204
 20
407.1859553696662
 10
-303.2106697172204
 20
407.1859553696662
 10
-302.7306171931976
 20
407.8393177284439
 10
-302.4661415191643
 20
407.958862541782
 10
-302.1183160662347
 20
407.958862541782
 10
-301.9180052956143
 20
407.958862541782
 10
-301.6657381787068
 20
407.9113202240856
 10
-301.3243507479654
 20
407.8092162066415
 10
-301.3243507479654
 20
407.8092162066415
 10
-300.0704651824151
 20
407.4343467541527
 10
-300.0704651824151
 20
407.4343467541527
 10
-298.604211012046
 20
406.9961306084289
 10
-297.1379568416769
 20
406.5579575263987
 10
-295.6730161139615
 20
406.1150474380763
 10
-293.4067031126835
 20
405.4299040734472
 10
-291.0640597145604
 20
404.7173291360169
 10
-288.710241287957
 20
403.9970888611318
 10
-287.8287705443623
 20
403.7273809483303
 10
-286.9482256701792
 20
403.4545724495921
 10
-286.0677023278429
 20
403.1817208871603
 10
-285.2112731220566
 20
402.9163624074089
 10
-284.3548439162702
 20
402.650960863964
 10
-283.4975103729191
 20
402.3884876516815
 10
-282.114519854059
 20
401.9650423528508
 10
-280.7307326568681
 20
401.5441378119403
 10
-279.3469023959836
 20
401.12323327103
 10
-278.3900917204958
 20
400.8321657662199
 10
-277.4332379813144
 20
400.5410982614099
 10
-276.4766641561413
 20
400.2492125464221
 10
-275.6220005617911
 20
399.9884618818822
 10
-274.7675738177556
 20
399.7269791345518
 10
-273.9131255418733
 20
399.4654963872213
 10
-272.3673327294885
 20
398.9923986497094
 10
-270.8215829807972
 20
398.5193870395846
 10
-269.274541321299
 20
398.0504664803485
 10
-269.051083815387
 20
397.9827703540633
 10
-268.8244395961511
 20
397.929069928187
 10
-268.6052023322085
 20
397.8771351137469
 10
-268.275312907649
 20
397.7989745099253
 10
-267.963725552855
 20
397.7251202754603
 10
-267.6727011117385
 20
397.6092358760752
 10
-266.3326450953635
 20
397.0755905854099
 10
-264.9346684111426
 20
396.6853043306247
 10
-263.5826622198031
 20
396.3078941202156
 10
-263.0806256802151
 20
396.1677217976595
 10
-262.5785891406271
 20
396.027592538797
 10
-262.0787703812576
 20
395.8801424520282
 10
-261.9177982947094
 20
395.8326431980254
 10
-261.7544577050149
 20
395.7921202623801
 10
-261.5912032427077
 20
395.7517265178155
 10
-261.3461708263193
 20
395.6910497735816
 10
-261.1147896007912
 20
395.6337750611393
 10
-260.8947341266709
 20
395.5530736993973
 10
-260.3876376030889
 20
395.3670816068874
 10
-259.8754380318193
 20
395.1604620051596
 10
-259.3800548328872
 20
394.9606464670151
 10
-259.1341396107807
 20
394.8614707807334
 10
-258.8882028568274
 20
394.7622520307582
 10
-258.6416201474707
 20
394.6649280832999
 10
-258.5454373878919
 20
394.626945905575
 10
-258.47464067567
 20
394.5690252377293
 10
-258.4417615456326
 20
394.4099048900043
 10
-258.1602326489474
 20
393.0482308994593
 10
-257.4180298903439
 20
391.8564001163371
 10
-256.1059222110929
 20
390.6591433078257
 10
-255.363461070328
 20
389.9817083443449
 10
-254.7732516181643
 20
389.3860082712516
 10
-254.3062473932919
 20
388.6805819069531
 10
-253.9991386626287
 20
388.2167428635578
 10
-253.8410303117025
 20
387.7028638082392
 10
-253.8362287098699
 20
387.1532849509547
 10
-253.8287140953427
 20
386.2858099077689
 10
-254.208492808898
 20
385.6502328544338
 10
-254.9973550794798
 20
385.2102080335803
 10
-255.8061989038762
 20
384.7590727797868
 10
-256.7663254837685
 20
384.5397924521507
 10
-257.9327271558402
 20
384.5397924521507
 10
-257.9892913173387
 20
384.5397924521507
 10
-258.0458554788371
 20
384.5403092164735
 10
-258.1025272995694
 20
384.5412996814255
 10
-259.3906054378108
 20
384.5633913562246
 10
-260.7051031520546
 20
384.6830222969499
 10
-261.9763218542651
 20
384.7987344415607
 10
-261.9763218542651
 20
384.7987344415607
 10
-262.0262972706479
 20
384.8032991930787
 10
-262.0262972706479
 20
384.8032991930787
 10
-263.3173468037454
 20
384.9207338854322
 10
-264.6298635880852
 20
385.0493651381126
 10
-265.8991659559319
 20
385.1737761488238
 10
-267.6664138124779
 20
385.3469783243447
 10
-269.4938001170884
 20
385.5261232895777
 10
-271.2943577406074
 20
385.6780520004772
 10
-274.1478872673463
 20
385.9188211112026
 10
-276.9356585340104
 20
386.0408636187676
 10
-279.5802430195689
 20
386.0408636187676
 10
-279.8248232671749
 20
386.0408636187676
 10
-280.0692312600066
 20
386.0398731538156
 10
-280.3139406986932
 20
386.0378060965244
 10
-282.6244801132632
 20
386.0183843707263
 10
-285.0879171718378
 20
385.8686949718922
 10
-288.0665897920784
 20
385.5666462252229
 10
-291.4728418257321
 20
385.2212754028266
 10
-294.8713423945439
 20
384.6157137439068
 10
-297.7895320571715
 20
384.0751782622712
 10
-297.7895320571715
 20
384.0751782622712
 10
-297.8611469795712
 20
384.0625175363629
 10
-297.8611469795712
 20
384.0625175363629
 10
-297.9255917969921
 20
384.0513640397294
 10
-297.9899935507195
 20
384.0399521609345
 10
-298.0535555624224
 20
384.0249659955736
 10
-298.2128696967684
 20
383.9873713910908
 10
-298.3605996975453
 20
383.9683372385348
 10
-298.4926114501707
 20
383.9683372385348
 10
-298.9355000066464
 20
383.9683372385348
 10
-299.2616644217124
 20
384.1767655153924
 10
-299.5831994897201
 20
384.6652369915073
 10
-300.6263744026538
 20
386.2499809147222
 10
-301.8998539487764
 20
387.596410357745
 10
-303.3683258993641
 20
388.6671890982543
 10
-305.1968749237008
 20
390.0005271784331
 10
-307.3079002459812
 20
390.6766271674133
 10
-309.6428137111093
 20
390.6766702311069
 10
-309.6428137111093
 20
390.6766702311069
 10
-309.7034258598029
 20
390.6765410400262
 10
-309.7034258598029
 20
390.6765410400262
 10
-309.7034258598029
 20
390.6765410400262
 10
-313.3307238325289
 20
390.6593155625999
 10
-313.3307238325289
 20
390.6593155625999
 10
-316.8200887947642
 20
390.6429944227386
 10
-320.3094537569995
 20
390.6267163465708
 10
-323.7987756555412
 20
390.6038495252874
 10
-326.580733323574
 20
390.5855905192156
 10
-329.4088122074156
 20
390.5541970866063
 10
-332.1437658539215
 20
390.5238371826425
 10
-332.1437658539215
 20
390.5238371826425
 10
-332.9238861947096
 20
390.5151813802358
 10
-332.9238861947096
 20
390.5151813802358
 10
-336.4260626057807
 20
390.4764671197203
 10
-339.9282390168517
 20
390.4346522732681
 10
-343.430393896076
 20
390.3889186307014
 10
-344.9697056225792
 20
390.3688509494998
 10
-346.5089527535421
 20
390.3460702556036
 10
-348.0481998845049
 20
390.3232464980138
 10
-349.4867640999113
 20
390.3019299696988
 10
-350.9253067834709
 20
390.2806134413839
 10
-352.3638494670306
 20
390.2614931614407
 10
-354.1698761796325
 20
390.2375497478182
 10
-355.9759028922343
 20
390.2156733914869
 10
-357.7819296048362
 20
390.193753971462
 10
-359.3734775916345
 20
390.1745045004382
 10
-360.9649825147392
 20
390.1552119657208
 10
-362.5564659059972
 20
390.1344983291157
 10
-365.185547461872
 20
390.1003057564246
 10
-367.8145428903597
 20
390.0631417888775
 10
-370.443581382541
 20
390.0259347576368
 10
-370.443581382541
 20
390.0259347576368
 10
-371.48959849925
 20
390.0111639107437
 10
-371.48959849925
 20
390.0111639107437
 10
-374.3836078979406
 20
389.97029646555
 10
-377.2775742329376
 20
389.9284816190977
 10
-380.1716266953217
 20
389.8861069446292
 10
-380.1716266953217
 20
389.8861069446292
 10
-384.0001613080798
 20
389.8291767417354
 10
-384.0001613080798
 20
389.8291767417354
 10
-385.6178489568725
 20
389.8049749459515
 10
-387.2355796693587
 20
389.7807300864741
 10
-388.8533103818448
 20
389.7573895645615
 10
-391.2163444388713
 20
389.7233261829512
 10
-393.5793354322041
 20
389.6905116484541
 10
-395.942326425537
 20
389.6576971139571
 10
-395.942326425537
 20
389.6576971139571
 10
-397.8496174135585
 20
389.6312129424143
 10
-397.8496174135585
 20
389.6312129424143
 10
-397.8496174135585
 20
389.6312129424143
 10
-401.0893852078874
 20
389.5865989558803
 10
-401.0893852078874
 20
389.5865989558803
 10
-402.9662301645579
 20
389.5608899308216
 10
-404.8430751212285
 20
389.5351809057629
 10
-406.719920077899
 20
389.5082660972844
 10
-408.0283673431969
 20
389.4895764542769
 10
-409.3367715448013
 20
389.4698532826239
 10
-410.6451757464056
 20
389.4501731746644
 10
-412.1678648871924
 20
389.427306353381
 10
-413.6905540279793
 20
389.4043534047105
 10
-415.2132001050726
 20
389.382993812702
 10
-417.4218938843598
 20
389.3519879533347
 10
-419.6305445999535
 20
389.3218003041453
 10
-421.8391953155472
 20
389.2916987823429
 10
-425.2923867751874
 20
389.2445440378885
 10
-428.7456212985211
 20
389.1973892934342
 10
-432.1987696944677
 20
389.1469617082688
 10
-435.1379529077086
 20
389.1040702694775
 10
-438.0770499935624
 20
389.0566571428617
 10
-441.0161470794161
 20
389.0092009525524
 10
-441.0161470794161
 20
389.0092009525524
 10
-445.2158476670164
 20
388.9418923995094
 10
-445.2158476670164
 20
388.9418923995094
 10
-445.2592128064369
 20
388.9412033804123
 10
-445.3026210095511
 20
388.9409880619444
 10
-445.3471058050044
 20
388.9409880619444
 10
-445.3471058050044
 20
388.9409880619444
 10
-445.4665214272619
 20
388.9412895077994
 10
-445.4665214272619
 20
388.9412895077994
 10
-445.4665214272619
 20
388.9412895077994
 10
-445.6087177434155
 20
388.9416770810415
 10
-445.6087177434155
 20
388.9416770810415
 10
-445.6087177434155
 20
388.9416770810415
 10
-445.8090500458828
 20
388.9416770810415
 10
-445.8090500458828
 20
388.9416770810415
 10
-445.8090500458828
 20
388.9416770810415
 10
-445.9116708276497
 20
388.7696376252468
 10
-445.9116708276497
 20
388.7696376252468
 10
-446.1905082434871
 20
388.3022242952856
 10
-446.6351839432457
 20
388.1854355583356
 10
-447.3343660719772
 20
388.0486652675712
 10
-447.7490694410141
 20
387.9674902052
 10
-448.1641603832932
 20
387.8880376905714
 10
-448.5792943892658
 20
387.8085421122493
 10
-449.7918818726866
 20
387.576385740237
 10
-451.0457674382369
 20
387.3363056486086
 10
-452.2722644946793
 20
387.0567792136742
 10
-454.0931697134081
 20
386.6417313350887
 10
-455.6583196560507
 20
385.5771107027594
 10
-457.0571576141429
 20
383.8021544450651
 10
-457.7617657682636
 20
382.9081952303363
 10
-458.3274504469416
 20
381.8685084765815
 10
-458.7866386114318
 20
380.6235801592929
 10
-459.29797690883
 20
379.2374459908027
 10
-459.3847933150583
 20
377.8362395295644
 10
-459.0448054543577
 20
376.4589764819486
 10
-458.2936885111861
 20
373.4166987863117
 10
-456.8697874834388
 20
370.8137138287375
 10
-454.812634841809
 20
368.7222824870295
 10
-453.4655594433827
 20
367.3526847768684
 10
-451.7973580820376
 20
366.4624721034799
 10
-450.4945521605969
 20
365.8400294766824
 10
-448.2296171975129
 20
364.757666602604
 10
-445.6535901121109
 20
363.9598686156073
 10
-442.3876826557877
 20
363.3293300144194
 10
-441.8795741354069
 20
363.2312309204769
 10
-441.3625944941516
 20
363.1478596097339
 10
-440.8626250118547
 20
363.0672443753791
 10
-440.3865128157931
 20
362.9904618097515
 10
-439.8941225435638
 20
362.9110523588165
 10
-439.4150389526463
 20
362.8196712010703
 10
-438.9964598511884
 20
362.7398311131996
 10
-438.5583298328518
 20
362.6184776247317
 10
-438.0755427642875
 20
362.4485913536153
 10
-437.547581881173
 20
362.2628576432668
 10
-437.2115558802805
 20
361.8863517704226
 10
-437.048129163199
 20
361.2974557609126
 10
-436.7241179328112
 20
360.1299774965018
 10
-436.9775477694449
 20
359.1746955821356
 10
-437.8228450104445
 20
358.3770913817599
 10
-439.0952910279215
 20
357.1764325414568
 10
-440.650234875189
 20
356.3788929366214
 10
-442.5764308246858
 20
355.9388465839211
 10
-444.3926851645095
 20
355.5239494282631
 10
-446.2455867075575
 20
355.3222821512953
 10
-448.2410290763078
 20
355.3222821512953
 10
-449.6697101740409
 20
355.3222821512953
 10
-451.1279760292536
 20
355.4255273566189
 10
-452.6991548889954
 20
355.6379390251313
 10
-456.7272466577366
 20
356.1824363665751
 10
-460.9134683092508
 20
357.2671031482592
 10
-465.4969955976015
 20
358.9538434296843
 10
-467.013569693902
 20
359.5120134938351
 10
-468.5481874778066
 20
360.1035148568058
 10
-470.0323346128522
 20
360.6755514302847
 10
-471.0436854562408
 20
361.0654285799811
 10
-472.0550362996295
 20
361.4552411341371
 10
-473.0690140283256
 20
361.8381634973226
 10
-475.5676987200838
 20
362.781732087039
 10
-477.9499822481341
 20
363.3527997274127
 10
-480.3519889478374
 20
363.5839225707794
 10
-480.8320630037069
 20
363.6301299139753
 10
-481.3236350657585
 20
363.6535134995814
 10
-481.8130108794383
 20
363.6535134995814
 10
-483.2567642699194
 20
363.653556563275
 10
-484.7151593162127
 20
363.4593823689876
 10
-486.2714381379808
 20
363.0598374200857
 10
-488.5855518391166
 20
362.4657307036544
 10
-490.7410188931568
 20
361.5296551966185
 10
-492.7256522748221
 20
360.6065633931926
 10
-494.2052346583498
 20
359.9184271018607
 10
-495.6834820673769
 20
359.2274055430599
 10
-497.161729476404
 20
358.5363839842591
 10
-499.6463754040598
 20
357.3749346369475
 10
-502.215641489572
 20
356.1739097552491
 10
-504.7486479451019
 20
355.0070774462417
 10
-507.5247058871162
 20
353.7283871931977
 10
-510.130403857385
 20
352.7012535061172
 10
-512.7147422356451
 20
351.867023634364
 10
-514.8810613404638
 20
351.1677338463986
 10
-517.1898351435975
 20
350.6695730392315
 10
-519.5768987416336
 20
350.3863646584972
 10
-521.3633099418163
 20
350.174426690614
 10
-522.9811267816897
 20
350.0713752719114
 10
-524.5229362024196
 20
350.0713752719114
 10
-524.5229362024196
 20
350.0713752719114
 10
-524.6780085629495
 20
350.0717197814599
 10
-524.6780085629495
 20
350.0717197814599
 10
-528.7840456170445
 20
350.0905386155482
 10
-532.7097319224866
 20
350.9564848976125
 10
-536.3460732708614
 20
352.6455506184901
 10
-538.2854467105892
 20
353.5464215560361
 10
-539.8064563673271
 20
354.4178369271833
 10
-541.1328181291483
 20
355.3879758158297
 10
-543.3182144502165
 20
356.9864355254452
 10
-545.2402762851309
 20
359.0209151324128
 10
-546.8456907812573
 20
361.4348720070805
 10
-549.3698691796063
 20
365.2305920853417
 10
-551.0431089930986
 20
369.506429283166
 10
-551.8188583689897
 20
374.1435278063122
 10
-552.1158686635118
 20
375.9189147009421
 10
-552.3016454375539
 20
377.7495523144168
 10
-552.4813071671098
 20
379.519857693206
 10
-552.5204090008673
 20
379.9051916232312
 10
-552.5595108346249
 20
380.2905255532564
 10
-552.5997323244152
 20
380.6755149737331
 10
-552.9734821208713
 20
384.2534188899393
 10
-553.1467273600857
 20
388.1866413417554
 10
-553.1293296278852
 20
392.699888682207
 10
-553.1279085259976
 20
393.0738537971309
 10
-553.1281238444653
 20
393.4479050394419
 10
-553.1283391629332
 20
393.8219993454464
 10
-553.129157373111
 20
395.0388070708367
 10
-553.1299325195952
 20
396.2970851331306
 10
-553.069169647974
 20
397.5271134124455
 10
-552.9928607829758
 20
399.0708176356924
 10
-552.8126392254036
 20
400.6671456924765
 10
-552.6536480687594
 20
402.0755437905402
 10
-552.4463394479344
 20
403.9115213020169
 10
-552.2197813560857
 20
405.8659670344927
 10
-551.9308239722603
 20
407.8018523150417
 10
-551.2920602056015
 20
412.0807470351092
 10
-550.3924596470156
 20
417.1160124689632
 10
-548.5630708806544
 20
422.0188570451029
 10
-547.0087299250968
 20
426.1846234421735
 10
-545.0132444926529
 20
429.7152003591511
 10
-542.4625388590675
 20
432.8121689456164
 10
-539.1528786900816
 20
436.8307867017732
 10
-535.4192133942486
 20
439.5814801282774
 10
-531.0482484973378
 20
441.2213886429499
 10
-527.7890159135172
 20
442.4442252854393
 10
-524.6786114546594
 20
443.0811803769685
 10
-521.5392681937254
 20
443.1686858022938
 10
-521.2440665743331
 20
443.1769540314584
 10
-520.94438633081
 20
443.1811312097342
 10
-520.6485818197077
 20
443.1811312097342
 72
     1
 10
-520.6485818197077
 20
443.1811312097342
 11
-520.6485818197077
 21
443.1811312097342
 97
        0
 75
     2
 76
     1
 98
        0
  0
ENDBLK
  5
4C
330
49
100
AcDbEntity
  8
0
100
AcDbBlockEnd
  0
BLOCK
  5
52
330
50
100
AcDbEntity
  8
0
100
AcDbBlockBegin
  2
block 5
 70
     0
 10
0.0
 20
0.0
 30
0.0
  3
block 5
  1

  0
SPLINE
  5
54
330
50
100
AcDbEntity
  8
_U+56FE_U+5C42 1
 62
     7
370
    35
100
AcDbSpline
210
0.0
220
0.0
230
1.0
 70
    11
 71
     3
 72
   182
 73
   178
 74
     0
 42
0.0000000001
 43
0.0000000001
 12
1.0
 22
0.0
 32
0.0
 13
1.0
 23
0.0
 33
0.0
 40
0.0
 40
0.0
 40
0.0
 40
0.0
 40
1.0
 40
1.0
 40
1.0
 40
2.0
 40
2.0
 40
2.0
 40
3.0
 40
3.0
 40
3.0
 40
4.0
 40
4.0
 40
4.0
 40
5.0
 40
5.0
 40
5.0
 40
6.0
 40
6.0
 40
6.0
 40
7.0
 40
7.0
 40
7.0
 40
8.0
 40
8.0
 40
8.0
 40
9.0
 40
9.0
 40
9.0
 40
10.0
 40
10.0
 40
10.0
 40
11.0
 40
11.0
 40
11.0
 40
12.0
 40
12.0
 40
12.0
 40
13.0
 40
13.0
 40
13.0
 40
14.0
 40
14.0
 40
14.0
 40
15.0
 40
15.0
 40
15.0
 40
16.0
 40
16.0
 40
16.0
 40
17.0
 40
17.0
 40
17.0
 40
18.0
 40
18.0
 40
18.0
 40
19.0
 40
19.0
 40
19.0
 40
20.0
 40
20.0
 40
20.0
 40
21.0
 40
21.0
 40
21.0
 40
22.0
 40
22.0
 40
22.0
 40
23.0
 40
23.0
 40
23.0
 40
24.0
 40
24.0
 40
24.0
 40
25.0
 40
25.0
 40
25.0
 40
26.0
 40
26.0
 40
26.0
 40
27.0
 40
27.0
 40
27.0
 40
28.0
 40
28.0
 40
28.0
 40
29.0
 40
29.0
 40
29.0
 40
30.0
 40
30.0
 40
30.0
 40
31.0
 40
31.0
 40
31.0
 40
32.0
 40
32.0
 40
32.0
 40
33.0
 40
33.0
 40
33.0
 40
34.0
 40
34.0
 40
34.0
 40
35.0
 40
35.0
 40
35.0
 40
36.0
 40
36.0
 40
36.0
 40
37.0
 40
37.0
 40
37.0
 40
38.0
 40
38.0
 40
38.0
 40
39.0
 40
39.0
 40
39.0
 40
40.0
 40
40.0
 40
40.0
 40
41.0
 40
41.0
 40
41.0
 40
42.0
 40
42.0
 40
42.0
 40
43.0
 40
43.0
 40
43.0
 40
44.0
 40
44.0
 40
44.0
 40
45.0
 40
45.0
 40
45.0
 40
46.0
 40
46.0
 40
46.0
 40
47.0
 40
47.0
 40
47.0
 40
48.0
 40
48.0
 40
48.0
 40
49.0
 40
49.0
 40
49.0
 40
50.0
 40
50.0
 40
50.0
 40
51.0
 40
51.0
 40
51.0
 40
52.0
 40
52.0
 40
52.0
 40
53.0
 40
53.0
 40
53.0
 40
54.0
 40
54.0
 40
54.0
 40
55.0
 40
55.0
 40
55.0
 40
56.0
 40
56.0
 40
56.0
 40
57.0
 40
57.0
 40
57.0
 40
58.0
 40
58.0
 40
58.0
 40
59.0
 40
59.0
 40
59.0
 40
59.0
 10
-458.1302046748178
 20
405.4439546969583
 30
0.0
 10
-458.1302046182524
 20
405.0977476345058
 30
0.0
 10
-458.127530626591
 20
404.828193737477
 30
0.0
 10
-458.1306117693196
 20
404.5587013095747
 30
0.0
 10
-458.1787190864249
 20
400.3437261712277
 30
0.0
 10
-458.2406033807667
 20
396.1288509194879
 30
0.0
 10
-458.2680567576334
 20
391.9137451606395
 30
0.0
 10
-458.2759554622536
 20
390.7012981675561
 30
0.0
 10
-458.1850948313991
 20
389.4882057549808
 30
0.0
 10
-458.1383927501942
 20
388.2457460139619
 30
0.0
 10
-458.0038578360194
 20
388.2224527250287
 30
0.0
 10
-457.9066121977483
 20
388.2032663983962
 30
0.0
 10
-457.8086596545916
 20
388.1890553048758
 30
0.0
 10
-457.2940322989281
 20
388.1144076846844
 30
0.0
 10
-457.1024608009878
 20
387.7746588517302
 30
0.0
 10
-457.3286167591577
 20
387.3043744359332
 30
0.0
 10
-457.3995608682057
 20
387.1568654894045
 30
0.0
 10
-457.5049051605844
 20
387.0150117827888
 30
0.0
 10
-457.6251943663376
 20
386.9037509542851
 30
0.0
 10
-459.5335397786578
 20
385.1386570750119
 30
0.0
 10
-460.4194996971245
 20
382.8464460714672
 30
0.0
 10
-460.883728871856
 20
380.3789455766095
 30
0.0
 10
-461.4906299322544
 20
377.153104294026
 30
0.0
 10
-461.1480875080298
 20
374.0067439543375
 30
0.0
 10
-459.9611462467236
 20
370.9308130740276
 30
0.0
 10
-459.1647321265869
 20
368.8669328837669
 30
0.0
 10
-458.0728468263651
 20
366.9956922264998
 30
0.0
 10
-456.5951216826729
 20
365.3708159495467
 30
0.0
 10
-455.8530934021595
 20
364.5549009113141
 30
0.0
 10
-454.9509356386858
 20
363.8839784035995
 30
0.0
 10
-454.1158878036338
 20
363.1535451829386
 30
0.0
 10
-453.674901529183
 20
362.7678129438801
 30
0.0
 10
-453.1883582639527
 20
362.4282600949321
 30
0.0
 10
-452.7821256194038
 20
362.0098488294704
 30
0.0
 10
-451.8118743431497
 20
361.0105455878685
 30
0.0
 10
-452.2096468882551
 20
359.7005724387971
 30
0.0
 10
-453.5645622157122
 20
359.3679807732654
 30
0.0
 10
-454.2675030602212
 20
359.1954341996056
 30
0.0
 10
-454.9814317140201
 20
359.2434498836715
 30
0.0
 10
-455.6929630373597
 20
359.3030373069621
 30
0.0
 10
-456.8477933892134
 20
359.3997448903771
 30
0.0
 10
-457.9572511886071
 20
359.714863288638
 30
0.0
 10
-459.0774816094392
 20
359.9895881718605
 30
0.0
 10
-461.8954306379758
 20
360.6806571787529
 30
0.0
 10
-464.5822794596584
 20
361.7628217809332
 30
0.0
 10
-467.3139399332106
 20
362.7105052517296
 30
0.0
 10
-469.8741296642764
 20
363.5987087836006
 30
0.0
 10
-472.494652222798
 20
364.2630921329035
 30
0.0
 10
-475.1437506556683
 20
364.80587233106
 30
0.0
 10
-477.9567436418599
 20
365.3822228390302
 30
0.0
 10
-480.8060422933294
 20
365.4139486082452
 30
0.0
 10
-483.6616492690812
 20
365.1969588293663
 30
0.0
 10
-486.1394535761544
 20
365.0086909978132
 30
0.0
 10
-488.4534708072082
 20
364.2035788233005
 30
0.0
 10
-490.7461425470242
 20
363.3197849752959
 30
0.0
 10
-491.9782176197884
 20
362.844836354323
 30
0.0
 10
-493.2294790415983
 20
362.4097894830022
 30
0.0
 10
-494.4282757484912
 20
361.8610230090013
 30
0.0
 10
-495.837346147864
 20
361.2159790189579
 30
0.0
 10
-497.1968716611502
 20
360.4631011840032
 30
0.0
 10
-498.5817382156193
 20
359.7646166643735
 30
0.0
 10
-499.7048422243197
 20
359.1981545091845
 30
0.0
 10
-500.8329099419794
 20
358.6415198790382
 30
0.0
 10
-501.9602323349341
 20
358.0834483863592
 30
0.0
 10
-502.4677214266181
 20
357.8322278514135
 30
0.0
 10
-502.987158764993
 20
357.60392796319
 30
0.0
 10
-503.4866260114129
 20
357.3379008288194
 30
0.0
 10
-505.2312345295
 20
356.4086883796821
 30
0.0
 10
-507.0515396137399
 20
355.656786306643
 30
0.0
 10
-508.9180548339249
 20
355.0165061715161
 30
0.0
 10
-510.7819422091821
 20
354.3771250364382
 30
0.0
 10
-512.6393905915344
 20
353.7125795965433
 30
0.0
 10
-514.5262716233833
 20
353.1479998371445
 30
0.0
 10
-517.8453665676384
 20
352.154873635707
 30
0.0
 10
-521.2347180296495
 20
351.6568733896922
 30
0.0
 10
-524.7103812700169
 20
351.9555020576878
 30
0.0
 10
-525.5934832176245
 20
352.0313867026334
 30
0.0
 10
-526.4404945806167
 20
352.2568741123349
 30
0.0
 10
-527.2677010739746
 20
352.5763953497649
 30
0.0
 10
-528.9225059323493
 20
353.2156068672341
 30
0.0
 10
-529.952955780672
 20
355.2785572845862
 30
0.0
 10
-529.6861337380357
 20
356.9862263338402
 30
0.0
 10
-529.4336995163122
 20
358.6017978631328
 30
0.0
 10
-528.5717895805326
 20
359.8025848937299
 30
0.0
 10
-527.4072548300426
 20
360.8509415921419
 30
0.0
 10
-525.5803149670642
 20
362.4956271359488
 30
0.0
 10
-523.5066303878592
 20
363.8162195117463
 30
0.0
 10
-521.5522976397577
 20
365.2933761112134
 30
0.0
 10
-519.403558166721
 20
366.9174692374481
 30
0.0
 10
-517.4242532608253
 20
368.7259648326528
 30
0.0
 10
-515.6189931760953
 20
370.7158892819171
 30
0.0
 10
-514.2936528156966
 20
372.176809998976
 30
0.0
 10
-513.1915755841899
 20
373.8127436245239
 30
0.0
 10
-512.1772046125008
 20
375.5076808097215
 30
0.0
 10
-511.2468324550554
 20
377.0622434151051
 30
0.0
 10
-510.4889606658827
 20
378.6902703979225
 30
0.0
 10
-509.9281426954169
 20
380.4119854039593
 30
0.0
 10
-509.6867806253658
 20
381.15299165084
 30
0.0
 10
-509.5531986248612
 20
381.9114476934258
 30
0.0
 10
-509.4844175962555
 20
382.6875456326891
 30
0.0
 10
-509.3924162952523
 20
383.7256981258776
 30
0.0
 10
-509.1454374382741
 20
384.7103563245409
 30
0.0
 10
-508.3820370472396
 20
385.491886793872
 30
0.0
 10
-507.7306235614187
 20
386.1587602152245
 30
0.0
 10
-507.4831413897381
 20
386.968539934766
 30
0.0
 10
-507.4848742286078
 20
387.8960194112336
 30
0.0
 10
-507.4962279744044
 20
393.9797419962284
 30
0.0
 10
-507.4952147124825
 20
400.0634991601465
 30
0.0
 10
-507.4870132953971
 20
406.1472332739698
 30
0.0
 10
-507.48576867781
 20
407.0721502177951
 30
0.0
 10
-507.7368624791587
 20
407.8758712130661
 30
0.0
 10
-508.3894056964162
 20
408.5497327988242
 30
0.0
 10
-508.7643577590116
 20
408.9369326463601
 30
0.0
 10
-508.8573274608775
 20
409.4130259306914
 30
0.0
 10
-508.779783067077
 20
409.9458676340298
 30
0.0
 10
-508.5884039334895
 20
411.2609888669096
 30
0.0
 10
-508.0172627434049
 20
412.4233685880441
 30
0.0
 10
-507.3568554943959
 20
413.5492082148883
 30
0.0
 10
-507.1240223389713
 20
413.946124273117
 30
0.0
 10
-506.8630551031553
 20
414.3293824569618
 30
0.0
 10
-506.5857982988365
 20
414.6969004661887
 30
0.0
 10
-505.2810696618546
 20
416.4263838726235
 30
0.0
 10
-503.4948267164677
 20
417.4339399202001
 30
0.0
 10
-501.4562567894287
 20
418.0220320023956
 30
0.0
 10
-499.7314146670296
 20
418.5196170535274
 30
0.0
 10
-497.9628288464098
 20
418.6091177500678
 30
0.0
 10
-496.1677186782058
 20
418.596885501423
 30
0.0
 10
-493.6335386086399
 20
418.5796089867232
 30
0.0
 10
-491.2344235215471
 20
417.9065045364685
 30
0.0
 10
-488.8274018541093
 20
417.2709813455204
 30
0.0
 10
-487.086300744388
 20
416.8112739433933
 30
0.0
 10
-485.3849169530317
 20
416.2032584890587
 30
0.0
 10
-483.6568935900945
 20
415.6914821019814
 30
0.0
 10
-480.8206956131268
 20
414.8514980355089
 30
0.0
 10
-477.9345532463392
 20
414.2198974810615
 30
0.0
 10
-475.0172071652837
 20
413.7413151207904
 30
0.0
 10
-473.1573920271779
 20
413.4362164649472
 30
0.0
 10
-471.2943112889662
 20
413.1117163218963
 30
0.0
 10
-469.4193975906963
 20
412.9495509258561
 30
0.0
 10
-467.7116670908483
 20
412.8018424922602
 30
0.0
 10
-465.9937018211452
 20
412.6245170169916
 30
0.0
 10
-464.2706499545745
 20
412.7568508123716
 30
0.0
 10
-461.7813891655091
 20
412.9480231061403
 30
0.0
 10
-459.3066814328963
 20
413.2598726512157
 30
0.0
 10
-456.8743803993692
 20
413.8247367987664
 30
0.0
 10
-455.0996706767206
 20
414.236893841971
 30
0.0
 10
-453.3469979860894
 20
414.7435995178241
 30
0.0
 10
-451.5826229246751
 20
415.2008947928826
 30
0.0
 10
-451.2798291050182
 20
415.2793690578789
 30
0.0
 10
-450.9694898351515
 20
415.355810970244
 30
0.0
 10
-450.6593349657339
 20
415.3727268130971
 30
0.0
 10
-450.1136421954784
 20
415.4024860951245
 30
0.0
 10
-449.8071985451367
 20
415.2002995917749
 30
0.0
 10
-449.7019386640629
 20
414.6687449476836
 30
0.0
 10
-449.6182010055306
 20
414.2458117382319
 30
0.0
 10
-449.6138826601631
 20
413.7951132580066
 30
0.0
 10
-449.6489589425913
 20
413.3627981612033
 30
0.0
 10
-449.7945120681434
 20
411.5690672057012
 30
0.0
 10
-449.595064492002
 20
409.8415664544842
 30
0.0
 10
-448.7054772048785
 20
408.2468219365409
 30
0.0
 10
-448.4728897967033
 20
407.829870556629
 30
0.0
 10
-448.1638336404246
 20
407.4539965569016
 30
0.0
 10
-447.8747475687251
 20
407.0706885185155
 30
0.0
 10
-447.6731871978637
 20
406.803424413724
 30
0.0
 10
-447.4262619280432
 20
406.5693464650703
 30
0.0
 10
-447.2345444495588
 20
406.295931510781
 30
0.0
 10
-446.9557469268332
 20
405.8983239979757
 30
0.0
 10
-447.1051268005577
 20
405.5545641878861
 30
0.0
 10
-447.593690826957
 20
405.4837237056285
 30
0.0
 10
-447.9237158882606
 20
405.4358730517611
 30
0.0
 10
-448.2631919803125
 20
405.4431418309012
 30
0.0
 10
-448.5984496882617
 20
405.4429266309119
 30
0.0
 10
-451.5144587170104
 20
405.4410666851275
 30
0.0
 10
-454.4304677463915
 20
405.4430908787609
 30
0.0
 10
-457.3464767755846
 20
405.4439471412521
 30
0.0
 10
-457.5755910572396
 20
405.4440124157601
 30
0.0
 10
-457.8046976551245
 20
405.443954750136
 30
0.0
 10
-458.1302046748178
 20
405.4439546969583
 30
0.0
  0
ENDBLK
  5
53
330
50
100
AcDbEntity
  8
0
100
AcDbBlockEnd
  0
ENDSEC
  0
SECTION
  2
ENTITIES
  0
INSERT
  5
42
330
1F
100
AcDbEntity
  8
_U+56FE_U+5C42 1
100
AcDbBlockReference
  2
block 2
 10
0.0
 20
0.0
 30
0.0
  0
ENDSEC
  0
SECTION
  2
OBJECTS
  0
DICTIONARY
  5
C
330
0
100
AcDbDictionary
281
     1
  3
ACAD_GROUP
350
D
  3
ACAD_LAYOUT
350
1A
  3
ACAD_MATERIAL
350
3B
  3
ACAD_MLEADERSTYLE
350
7C
  3
ACAD_MLINESTYLE
350
17
  3
ACAD_PLOTSETTINGS
350
19
  3
ACAD_PLOTSTYLENAME
350
E
  3
ACAD_TABLESTYLE
350
7B
  3
ACAD_VISUALSTYLE
350
2A
  0
DICTIONARY
  5
D
102
{ACAD_REACTORS
330
C
102
}
330
C
100
AcDbDictionary
281
     1
  0
DICTIONARY
  5
1A
102
{ACAD_REACTORS
330
C
102
}
330
C
100
AcDbDictionary
281
     1
  3
Layout1
350
1E
  3
Layout2
350
26
  3
Model
350
22
  0
DICTIONARY
  5
3B
102
{ACAD_REACTORS
330
C
102
}
330
C
100
AcDbDictionary
281
     1
  3
ByBlock
350
3D
  3
ByLayer
350
3C
  3
Global
350
3E
  0
DICTIONARY
  5
7C
102
{ACAD_REACTORS
330
C
102
}
330
C
100
AcDbDictionary
281
     1
  0
DICTIONARY
  5
17
102
{ACAD_REACTORS
330
C
102
}
330
C
100
AcDbDictionary
281
     1
  3
Standard
350
18
  0
DICTIONARY
  5
19
102
{ACAD_REACTORS
330
C
102
}
330
C
100
AcDbDictionary
281
     1
  0
ACDBDICTIONARYWDFLT
  5
E
102
{ACAD_REACTORS
330
C
102
}
330
C
100
AcDbDictionary
281
     1
  3
Normal
350
F
100
AcDbDictionaryWithDefault
340
F
  0
DICTIONARY
  5
7B
102
{ACAD_REACTORS
330
C
102
}
330
C
100
AcDbDictionary
281
     1
  0
DICTIONARY
  5
2A
102
{ACAD_REACTORS
330
C
102
}
330
C
100
AcDbDictionary
281
     1
  3
2dWireframe
350
2F
  3
3D Hidden
350
31
  3
3dWireframe
350
30
  3
Basic
350
32
  3
Brighten
350
36
  3
ColorChange
350
3A
  3
Conceptual
350
34
  3
Dim
350
35
  3
Facepattern
350
39
  3
Flat
350
2B
  3
FlatWithEdges
350
2C
  3
Gouraud
350
2D
  3
GouraudWithEdges
350
2E
  3
Linepattern
350
38
  3
Realistic
350
33
  3
Thicken
350
37
  0
LAYOUT
  5
1E
102
{ACAD_REACTORS
330
1A
102
}
330
1A
100
AcDbPlotSettings
  1

  2
none_device
  4

  6

 40
0.0
 41
0.0
 42
0.0
 43
0.0
 44
0.0
 45
0.0
 46
0.0
 47
0.0
 48
0.0
 49
0.0
140
0.0
141
0.0
142
1.0
143
1.0
 70
   688
 72
     0
 73
     0
 74
     5
  7

 75
    16
 76
     0
 77
     2
 78
   300
147
1.0
148
0.0
149
0.0
100
AcDbLayout
  1
Layout1
 70
     1
 71
     1
 10
0.0
 20
0.0
 11
12.0
 21
9.0
 12
0.0
 22
0.0
 32
0.0
 14
1.000000000000000E+20
 24
1.000000000000000E+20
 34
1.000000000000000E+20
 15
-1.000000000000000E+20
 25
-1.000000000000000E+20
 35
-1.000000000000000E+20
146
0.0
 13
0.0
 23
0.0
 33
0.0
 16
1.0
 26
0.0
 36
0.0
 17
0.0
 27
1.0
 37
0.0
 76
     0
330
1B
  0
LAYOUT
  5
26
102
{ACAD_REACTORS
330
1A
102
}
330
1A
100
AcDbPlotSettings
  1

  2
none_device
  4

  6

 40
0.0
 41
0.0
 42
0.0
 43
0.0
 44
0.0
 45
0.0
 46
0.0
 47
0.0
 48
0.0
 49
0.0
140
0.0
141
0.0
142
1.0
143
1.0
 70
   688
 72
     0
 73
     0
 74
     5
  7

 75
    16
 76
     0
 77
     2
 78
   300
147
1.0
148
0.0
149
0.0
100
AcDbLayout
  1
Layout2
 70
     1
 71
     2
 10
0.0
 20
0.0
 11
0.0
 21
0.0
 12
0.0
 22
0.0
 32
0.0
 14
0.0
 24
0.0
 34
0.0
 15
0.0
 25
0.0
 35
0.0
146
0.0
 13
0.0
 23
0.0
 33
0.0
 16
1.0
 26
0.0
 36
0.0
 17
0.0
 27
1.0
 37
0.0
 76
     0
330
23
  0
LAYOUT
  5
22
102
{ACAD_REACTORS
330
1A
102
}
330
1A
100
AcDbPlotSettings
  1

  2
none_device
  4

  6

 40
0.0
 41
0.0
 42
0.0
 43
0.0
 44
0.0
 45
0.0
 46
0.0
 47
0.0
 48
0.0
 49
0.0
140
0.0
141
0.0
142
1.0
143
1.0
 70
  1712
 72
     0
 73
     0
 74
     0
  7

 75
     0
 76
     0
 77
     2
 78
   300
147
1.0
148
0.0
149
0.0
100
AcDbLayout
  1
Model
 70
     1
 71
     0
 10
0.0
 20
0.0
 11
12.0
 21
9.0
 12
0.0
 22
0.0
 32
0.0
 14
1.000000000000000E+20
 24
1.000000000000000E+20
 34
1.000000000000000E+20
 15
-1.000000000000000E+20
 25
-1.000000000000000E+20
 35
-1.000000000000000E+20
146
0.0
 13
0.0
 23
0.0
 33
0.0
 16
1.0
 26
0.0
 36
0.0
 17
0.0
 27
1.0
 37
0.0
 76
     0
330
1F
331
29
  0
MATERIAL
  5
3D
102
{ACAD_REACTORS
330
3B
102
}
102
{ACAD_XDICTIONARY
360
77
102
}
330
3B
100
AcDbMaterial
  1
ByBlock
  0
MATERIAL
  5
3C
102
{ACAD_REACTORS
330
3B
102
}
102
{ACAD_XDICTIONARY
360
75
102
}
330
3B
100
AcDbMaterial
  1
ByLayer
  0
MATERIAL
  5
3E
102
{ACAD_REACTORS
330
3B
102
}
102
{ACAD_XDICTIONARY
360
79
102
}
330
3B
100
AcDbMaterial
  1
Global
  0
MLINESTYLE
  5
18
102
{ACAD_REACTORS
330
17
102
}
330
17
100
AcDbMlineStyle
  2
Standard
 70
     0
  3

 62
   256
 51
90.0
 52
90.0
 71
     2
 49
0.5
 62
   256
  6
BYLAYER
 49
-0.5
 62
   256
  6
BYLAYER
  0
ACDBPLACEHOLDER
  5
F
102
{ACAD_REACTORS
330
E
102
}
330
E
  0
VISUALSTYLE
  5
2F
102
{ACAD_REACTORS
330
2A
102
}
102
{ACAD_XDICTIONARY
360
5D
102
}
330
2A
100
AcDbVisualStyle
  2
2dWireframe
 70
     4
 71
     0
 72
     2
 73
     0
 90
        0
 40
-0.6
 41
-30.0
 62
     5
 63
     7
421
 16777215
 74
     1
 91
        4
 64
     7
 65
   257
 75
     1
175
     1
 42
1.0
 92
        0
 66
   257
 43
1.0
 76
     1
 77
     6
 78
     2
 67
     7
 79
     5
170
     0
171
     0
290
     0
174
     0
 93
        1
 44
0.0
173
     0
291
     0
 45
0.0
1001
ACAD
1000
AcDbSavedByObjectVersion
1070
     0
  0
VISUALSTYLE
  5
31
102
{ACAD_REACTORS
330
2A
102
}
102
{ACAD_XDICTIONARY
360
61
102
}
330
2A
100
AcDbVisualStyle
  2
3D Hidden
 70
     6
 71
     1
 72
     2
 73
     2
 90
        0
 40
-0.6
 41
-30.0
 62
     5
 63
     7
421
 16777215
 74
     2
 91
        2
 64
     7
 65
   257
 75
     2
175
     1
 42
40.0
 92
        0
 66
   257
 43
1.0
 76
     1
 77
     6
 78
     2
 67
     7
 79
     3
170
     0
171
     0
290
     0
174
     0
 93
        1
 44
0.0
173
     0
291
     0
 45
0.0
1001
ACAD
1000
AcDbSavedByObjectVersion
1070
     0
  0
VISUALSTYLE
  5
30
102
{ACAD_REACTORS
330
2A
102
}
102
{ACAD_XDICTIONARY
360
5F
102
}
330
2A
100
AcDbVisualStyle
  2
3dWireframe
 70
     5
 71
     0
 72
     2
 73
     0
 90
        0
 40
-0.6
 41
-30.0
 62
     5
 63
     7
421
 16777215
 74
     1
 91
        4
 64
     7
 65
   257
 75
     1
175
     1
 42
1.0
 92
        0
 66
   257
 43
1.0
 76
     1
 77
     6
 78
     2
 67
     7
 79
     5
170
     0
171
     0
290
     0
174
     0
 93
        1
 44
0.0
173
     0
291
     0
 45
0.0
1001
ACAD
1000
AcDbSavedByObjectVersion
1070
     0
  0
VISUALSTYLE
  5
32
102
{ACAD_REACTORS
330
2A
102
}
102
{ACAD_XDICTIONARY
360
63
102
}
330
2A
100
AcDbVisualStyle
  2
Basic
 70
     7
 71
     1
 72
     0
 73
     1
 90
        0
 40
-0.6
 41
-30.0
 62
     5
 63
     7
421
 16777215
 74
     0
 91
        4
 64
     7
 65
   257
 75
     1
175
     1
 42
1.0
 92
        8
 66
     7
 43
1.0
 76
     1
 77
     6
 78
     2
 67
     7
 79
     5
170
     0
171
     0
290
     0
174
     0
 93
        1
 44
0.0
173
     0
291
     1
 45
0.0
1001
ACAD
1000
AcDbSavedByObjectVersion
1070
     0
  0
VISUALSTYLE
  5
36
102
{ACAD_REACTORS
330
2A
102
}
102
{ACAD_XDICTIONARY
360
6B
102
}
330
2A
100
AcDbVisualStyle
  2
Brighten
 70
    12
 71
     2
 72
     2
 73
     0
 90
        0
 40
-0.6
 41
-30.0
 62
     5
 63
     7
421
 16777215
 74
     1
 91
        4
 64
     7
 65
   257
 75
     1
175
     1
 42
1.0
 92
        8
 66
     7
 43
1.0
 76
     1
 77
     6
 78
     2
 67
     7
 79
     5
170
     0
171
     0
290
     0
174
     0
 93
        1
 44
50.0
173
     0
291
     1
 45
0.0
1001
ACAD
1000
AcDbSavedByObjectVersion
1070
     0
  0
VISUALSTYLE
  5
3A
102
{ACAD_REACTORS
330
2A
102
}
102
{ACAD_XDICTIONARY
360
73
102
}
330
2A
100
AcDbVisualStyle
  2
ColorChange
 70
    16
 71
     2
 72
     2
 73
     3
 90
        0
 40
-0.6
 41
-30.0
 62
     5
 63
     8
421
  8421504
 74
     1
 91
        4
 64
     7
 65
   257
 75
     1
175
     1
 42
1.0
 92
        8
 66
     8
424
  8421504
 43
1.0
 76
     1
 77
     6
 78
     2
 67
     7
 79
     5
170
     0
171
     0
290
     0
174
     0
 93
        1
 44
0.0
173
     0
291
     1
 45
0.0
1001
ACAD
1000
AcDbSavedByObjectVersion
1070
     0
  0
VISUALSTYLE
  5
34
102
{ACAD_REACTORS
330
2A
102
}
102
{ACAD_XDICTIONARY
360
67
102
}
330
2A
100
AcDbVisualStyle
  2
Conceptual
 70
     9
 71
     3
 72
     2
 73
     0
 90
        0
 40
-0.6
 41
-30.0
 62
     5
 63
     7
421
 16777215
 74
     2
 91
        2
 64
     7
 65
   257
 75
     1
175
     1
 42
40.0
 92
        8
 66
     7
 43
1.0
 76
     1
 77
     6
 78
     2
 67
     7
 79
     3
170
     0
171
     0
290
     0
174
     0
 93
        1
 44
0.0
173
     0
291
     0
 45
0.0
1001
ACAD
1000
AcDbSavedByObjectVersion
1070
     0
  0
VISUALSTYLE
  5
35
102
{ACAD_REACTORS
330
2A
102
}
102
{ACAD_XDICTIONARY
360
69
102
}
330
2A
100
AcDbVisualStyle
  2
Dim
 70
    11
 71
     2
 72
     2
 73
     0
 90
        0
 40
-0.6
 41
-30.0
 62
     5
 63
     7
421
 16777215
 74
     1
 91
        4
 64
     7
 65
   257
 75
     1
175
     1
 42
1.0
 92
        8
 66
     7
 43
1.0
 76
     1
 77
     6
 78
     2
 67
     7
 79
     5
170
     0
171
     0
290
     0
174
     0
 93
        1
 44
-50.0
173
     0
291
     1
 45
0.0
1001
ACAD
1000
AcDbSavedByObjectVersion
1070
     0
  0
VISUALSTYLE
  5
39
102
{ACAD_REACTORS
330
2A
102
}
102
{ACAD_XDICTIONARY
360
71
102
}
330
2A
100
AcDbVisualStyle
  2
Facepattern
 70
    15
 71
     2
 72
     2
 73
     0
 90
        0
 40
-0.6
 41
-30.0
 62
     5
 63
     7
421
 16777215
 74
     1
 91
        4
 64
     7
 65
   257
 75
     1
175
     1
 42
1.0
 92
        8
 66
     7
 43
1.0
 76
     1
 77
     6
 78
     2
 67
     7
 79
     5
170
     0
171
     0
290
     0
174
     0
 93
        1
 44
0.0
173
     0
291
     1
 45
0.0
1001
ACAD
1000
AcDbSavedByObjectVersion
1070
     0
  0
VISUALSTYLE
  5
2B
102
{ACAD_REACTORS
330
2A
102
}
102
{ACAD_XDICTIONARY
360
55
102
}
330
2A
100
AcDbVisualStyle
  2
Flat
 70
     0
 71
     2
 72
     1
 73
     1
 90
        2
 40
-0.6
 41
30.0
 62
     5
 63
     7
421
 16777215
 74
     0
 91
        4
 64
     7
 65
   257
 75
     1
175
     1
 42
1.0
 92
        8
 66
     7
 43
1.0
 76
     1
 77
     6
 78
     2
 67
     7
 79
     5
170
     0
171
     0
290
     0
174
     0
 93
       13
 44
0.0
173
     0
291
     1
 45
0.0
1001
ACAD
1000
AcDbSavedByObjectVersion
1070
     0
  0
VISUALSTYLE
  5
2C
102
{ACAD_REACTORS
330
2A
102
}
102
{ACAD_XDICTIONARY
360
57
102
}
330
2A
100
AcDbVisualStyle
  2
FlatWithEdges
 70
     1
 71
     2
 72
     1
 73
     1
 90
        2
 40
-0.6
 41
30.0
 62
     5
 63
     7
421
 16777215
 74
     1
 91
        4
 64
     7
 65
   257
 75
     1
175
     1
 42
1.0
 92
        0
 66
   257
 43
1.0
 76
     1
 77
     6
 78
     2
 67
     7
 79
     5
170
     0
171
     0
290
     0
174
     0
 93
       13
 44
0.0
173
     0
291
     1
 45
0.0
1001
ACAD
1000
AcDbSavedByObjectVersion
1070
     0
  0
VISUALSTYLE
  5
2D
102
{ACAD_REACTORS
330
2A
102
}
102
{ACAD_XDICTIONARY
360
59
102
}
330
2A
100
AcDbVisualStyle
  2
Gouraud
 70
     2
 71
     2
 72
     2
 73
     1
 90
        2
 40
-0.6
 41
30.0
 62
     5
 63
     7
421
 16777215
 74
     0
 91
        4
 64
     7
 65
   257
 75
     1
175
     1
 42
1.0
 92
        0
 66
     7
 43
1.0
 76
     1
 77
     6
 78
     2
 67
     7
 79
     5
170
     0
171
     0
290
     0
174
     0
 93
       13
 44
0.0
173
     0
291
     1
 45
0.0
1001
ACAD
1000
AcDbSavedByObjectVersion
1070
     0
  0
VISUALSTYLE
  5
2E
102
{ACAD_REACTORS
330
2A
102
}
102
{ACAD_XDICTIONARY
360
5B
102
}
330
2A
100
AcDbVisualStyle
  2
GouraudWithEdges
 70
     3
 71
     2
 72
     2
 73
     1
 90
        2
 40
-0.6
 41
30.0
 62
     5
 63
     7
421
 16777215
 74
     1
 91
        4
 64
     7
 65
   257
 75
     1
175
     1
 42
1.0
 92
        0
 66
   257
 43
1.0
 76
     1
 77
     6
 78
     2
 67
     7
 79
     5
170
     0
171
     0
290
     0
174
     0
 93
       13
 44
0.0
173
     0
291
     1
 45
0.0
1001
ACAD
1000
AcDbSavedByObjectVersion
1070
     0
  0
VISUALSTYLE
  5
38
102
{ACAD_REACTORS
330
2A
102
}
102
{ACAD_XDICTIONARY
360
6F
102
}
330
2A
100
AcDbVisualStyle
  2
Linepattern
 70
    14
 71
     2
 72
     2
 73
     0
 90
        0
 40
-0.6
 41
-30.0
 62
     5
 63
     7
421
 16777215
 74
     1
 91
        4
 64
     7
 65
   257
 75
     7
175
     7
 42
1.0
 92
        8
 66
     7
 43
1.0
 76
     1
 77
     6
 78
     2
 67
     7
 79
     5
170
     0
171
     0
290
     0
174
     0
 93
        1
 44
0.0
173
     0
291
     1
 45
0.0
1001
ACAD
1000
AcDbSavedByObjectVersion
1070
     0
  0
VISUALSTYLE
  5
33
102
{ACAD_REACTORS
330
2A
102
}
102
{ACAD_XDICTIONARY
360
65
102
}
330
2A
100
AcDbVisualStyle
  2
Realistic
 70
     8
 71
     2
 72
     2
 73
     0
 90
        0
 40
-0.6
 41
-30.0
 62
     5
 63
     7
421
 16777215
 74
     1
 91
        0
 64
     7
 65
   257
 75
     1
175
     1
 42
1.0
 92
        8
 66
     8
424
  7895160
 43
1.0
 76
     1
 77
     6
 78
     2
 67
     7
 79
     5
170
     0
171
     0
290
     0
174
     0
 93
       13
 44
0.0
173
     0
291
     0
 45
0.0
1001
ACAD
1000
AcDbSavedByObjectVersion
1070
     0
  0
VISUALSTYLE
  5
37
102
{ACAD_REACTORS
330
2A
102
}
102
{ACAD_XDICTIONARY
360
6D
102
}
330
2A
100
AcDbVisualStyle
  2
Thicken
 70
    13
 71
     2
 72
     2
 73
     0
 90
        0
 40
-0.6
 41
-30.0
 62
     5
 63
     7
421
 16777215
 74
     1
 91
        4
 64
     7
 65
   257
 75
     1
175
     1
 42
1.0
 92
       12
 66
     7
 43
1.0
 76
     1
 77
     6
 78
     2
 67
     7
 79
     5
170
     0
171
     0
290
     0
174
     0
 93
        1
 44
0.0
173
     0
291
     1
 45
0.0
1001
ACAD
1000
AcDbSavedByObjectVersion
1070
     0
  0
DICTIONARY
  5
77
330
3D
100
AcDbDictionary
280
     1
281
     1
  3
ACAD_XREC_ROUNDTRIP
360
78
  0
DICTIONARY
  5
75
330
3C
100
AcDbDictionary
280
     1
281
     1
  3
ACAD_XREC_ROUNDTRIP
360
76
  0
DICTIONARY
  5
79
330
3E
100
AcDbDictionary
280
     1
281
     1
  3
ACAD_XREC_ROUNDTRIP
360
7A
  0
DICTIONARY
  5
5D
330
2F
100
AcDbDictionary
280
     1
281
     1
  3
ACAD_XREC_ROUNDTRIP
360
5E
  0
DICTIONARY
  5
61
330
31
100
AcDbDictionary
280
     1
281
     1
  3
ACAD_XREC_ROUNDTRIP
360
62
  0
DICTIONARY
  5
5F
330
30
100
AcDbDictionary
280
     1
281
     1
  3
ACAD_XREC_ROUNDTRIP
360
60
  0
DICTIONARY
  5
63
330
32
100
AcDbDictionary
280
     1
281
     1
  3
ACAD_XREC_ROUNDTRIP
360
64
  0
DICTIONARY
  5
6B
330
36
100
AcDbDictionary
280
     1
281
     1
  3
ACAD_XREC_ROUNDTRIP
360
6C
  0
DICTIONARY
  5
73
330
3A
100
AcDbDictionary
280
     1
281
     1
  3
ACAD_XREC_ROUNDTRIP
360
74
  0
DICTIONARY
  5
67
330
34
100
AcDbDictionary
280
     1
281
     1
  3
ACAD_XREC_ROUNDTRIP
360
68
  0
DICTIONARY
  5
69
330
35
100
AcDbDictionary
280
     1
281
     1
  3
ACAD_XREC_ROUNDTRIP
360
6A
  0
DICTIONARY
  5
71
330
39
100
AcDbDictionary
280
     1
281
     1
  3
ACAD_XREC_ROUNDTRIP
360
72
  0
DICTIONARY
  5
55
330
2B
100
AcDbDictionary
280
     1
281
     1
  3
ACAD_XREC_ROUNDTRIP
360
56
  0
DICTIONARY
  5
57
330
2C
100
AcDbDictionary
280
     1
281
     1
  3
ACAD_XREC_ROUNDTRIP
360
58
  0
DICTIONARY
  5
59
330
2D
100
AcDbDictionary
280
     1
281
     1
  3
ACAD_XREC_ROUNDTRIP
360
5A
  0
DICTIONARY
  5
5B
330
2E
100
AcDbDictionary
280
     1
281
     1
  3
ACAD_XREC_ROUNDTRIP
360
5C
  0
DICTIONARY
  5
6F
330
38
100
AcDbDictionary
280
     1
281
     1
  3
ACAD_XREC_ROUNDTRIP
360
70
  0
DICTIONARY
  5
65
330
33
100
AcDbDictionary
280
     1
281
     1
  3
ACAD_XREC_ROUNDTRIP
360
66
  0
DICTIONARY
  5
6D
330
37
100
AcDbDictionary
280
     1
281
     1
  3
ACAD_XREC_ROUNDTRIP
360
6E
  0
XRECORD
  5
78
102
{ACAD_REACTORS
330
77
102
}
330
77
100
AcDbXrecord
280
     1
102
MATERIAL
148
0.0
149
0.0
149
0.0
 93
        0
 94
      127
282
     0
 72
     1
 77
     1
171
     1
175
     1
179
     1
273
     0
  0
XRECORD
  5
76
102
{ACAD_REACTORS
330
75
102
}
330
75
100
AcDbXrecord
280
     1
102
MATERIAL
148
0.0
149
0.0
149
0.0
 93
        0
 94
      127
282
     0
 72
     1
 77
     1
171
     1
175
     1
179
     1
273
     0
  0
XRECORD
  5
7A
102
{ACAD_REACTORS
330
79
102
}
330
79
100
AcDbXrecord
280
     1
102
MATERIAL
148
0.0
149
0.0
149
0.0
 93
        0
 94
      127
282
     0
 72
     1
 77
     1
171
     1
175
     1
179
     1
273
     0
  0
XRECORD
  5
5E
102
{ACAD_REACTORS
330
5D
102
}
330
5D
100
AcDbXrecord
280
     1
102
RTVSPropertyOp0
 70
     1
102
RTVSPropertyOp1
 70
     1
102
RTVSPropertyOp2
 70
     1
102
RTVSPropertyOp3
 70
     1
102
RTVSPropertyOp4
 70
     1
102
RTVSPropertyOp5
 70
     1
102
RTVSPropertyOp6
 70
     1
102
RTVSPropertyOp7
 70
     1
102
RTVSPropertyOp8
 70
     1
102
RTVSPropertyOp9
 70
     1
102
RTVSPropertyOp10
 70
     1
102
RTVSPropertyOp11
 70
     1
102
RTVSPropertyOp12
 70
     1
102
RTVSPropertyOp13
 70
     1
102
RTVSPropertyOp14
 70
     1
102
RTVSPropertyOp15
 70
     1
102
RTVSPropertyOp16
 70
     1
102
RTVSPropertyOp17
 70
     1
102
RTVSPropertyOp18
 70
     1
102
RTVSPropertyOp19
 70
     1
102
RTVSPropertyOp20
 70
     1
102
RTVSPropertyOp21
 70
     1
102
RTVSPropertyOp22
 70
     1
102
RTVSPropertyOp23
 70
     1
102
RTVSPropertyOp24
 70
     1
102
RTVSPropertyOp25
 70
     1
102
RTVSPropertyOp26
 70
     1
102
RTVSPropertyOp27
 70
     1
102
RTVSPropertyOp28
 70
     1
102
RTVSPropertyOp29
 70
     1
102
RTVSPropertyOp30
 70
     1
102
RTVSPropertyOp31
 70
     1
102
RTVSPropertyOp32
 70
     1
  0
XRECORD
  5
62
102
{ACAD_REACTORS
330
61
102
}
330
61
100
AcDbXrecord
280
     1
102
RTVSPropertyOp0
 70
     1
102
RTVSPropertyOp1
 70
     1
102
RTVSPropertyOp2
 70
     1
102
RTVSPropertyOp3
 70
     1
102
RTVSPropertyOp4
 70
     1
102
RTVSPropertyOp5
 70
     1
102
RTVSPropertyOp6
 70
     1
102
RTVSPropertyOp7
 70
     1
102
RTVSPropertyOp8
 70
     1
102
RTVSPropertyOp9
 70
     1
102
RTVSPropertyOp10
 70
     1
102
RTVSPropertyOp11
 70
     1
102
RTVSPropertyOp12
 70
     1
102
RTVSPropertyOp13
 70
     1
102
RTVSPropertyOp14
 70
     1
102
RTVSPropertyOp15
 70
     1
102
RTVSPropertyOp16
 70
     1
102
RTVSPropertyOp17
 70
     1
102
RTVSPropertyOp18
 70
     1
102
RTVSPropertyOp19
 70
     1
102
RTVSPropertyOp20
 70
     1
102
RTVSPropertyOp21
 70
     1
102
RTVSPropertyOp22
 70
     1
102
RTVSPropertyOp23
 70
     1
102
RTVSPropertyOp24
 70
     1
102
RTVSPropertyOp25
 70
     1
102
RTVSPropertyOp26
 70
     1
102
RTVSPropertyOp27
 70
     1
102
RTVSPropertyOp28
 70
     1
102
RTVSPropertyOp29
 70
     1
102
RTVSPropertyOp30
 70
     1
102
RTVSPropertyOp31
 70
     1
102
RTVSPropertyOp32
 70
     1
  0
XRECORD
  5
60
102
{ACAD_REACTORS
330
5F
102
}
330
5F
100
AcDbXrecord
280
     1
102
RTVSPropertyOp0
 70
     1
102
RTVSPropertyOp1
 70
     1
102
RTVSPropertyOp2
 70
     1
102
RTVSPropertyOp3
 70
     1
102
RTVSPropertyOp4
 70
     1
102
RTVSPropertyOp5
 70
     1
102
RTVSPropertyOp6
 70
     1
102
RTVSPropertyOp7
 70
     1
102
RTVSPropertyOp8
 70
     1
102
RTVSPropertyOp9
 70
     1
102
RTVSPropertyOp10
 70
     1
102
RTVSPropertyOp11
 70
     1
102
RTVSPropertyOp12
 70
     1
102
RTVSPropertyOp13
 70
     1
102
RTVSPropertyOp14
 70
     1
102
RTVSPropertyOp15
 70
     1
102
RTVSPropertyOp16
 70
     1
102
RTVSPropertyOp17
 70
     1
102
RTVSPropertyOp18
 70
     1
102
RTVSPropertyOp19
 70
     1
102
RTVSPropertyOp20
 70
     1
102
RTVSPropertyOp21
 70
     1
102
RTVSPropertyOp22
 70
     1
102
RTVSPropertyOp23
 70
     1
102
RTVSPropertyOp24
 70
     1
102
RTVSPropertyOp25
 70
     1
102
RTVSPropertyOp26
 70
     1
102
RTVSPropertyOp27
 70
     1
102
RTVSPropertyOp28
 70
     1
102
RTVSPropertyOp29
 70
     1
102
RTVSPropertyOp30
 70
     1
102
RTVSPropertyOp31
 70
     1
102
RTVSPropertyOp32
 70
     1
  0
XRECORD
  5
64
102
{ACAD_REACTORS
330
63
102
}
330
63
100
AcDbXrecord
280
     1
102
RTVSPropertyOp0
 70
     1
102
RTVSPropertyOp1
 70
     1
102
RTVSPropertyOp2
 70
     1
102
RTVSPropertyOp3
 70
     1
102
RTVSPropertyOp4
 70
     1
102
RTVSPropertyOp5
 70
     1
102
RTVSPropertyOp6
 70
     1
102
RTVSPropertyOp7
 70
     1
102
RTVSPropertyOp8
 70
     1
102
RTVSPropertyOp9
 70
     1
102
RTVSPropertyOp10
 70
     1
102
RTVSPropertyOp11
 70
     1
102
RTVSPropertyOp12
 70
     1
102
RTVSPropertyOp13
 70
     1
102
RTVSPropertyOp14
 70
     1
102
RTVSPropertyOp15
 70
     1
102
RTVSPropertyOp16
 70
     1
102
RTVSPropertyOp17
 70
     1
102
RTVSPropertyOp18
 70
     1
102
RTVSPropertyOp19
 70
     1
102
RTVSPropertyOp20
 70
     1
102
RTVSPropertyOp21
 70
     1
102
RTVSPropertyOp22
 70
     1
102
RTVSPropertyOp23
 70
     1
102
RTVSPropertyOp24
 70
     1
102
RTVSPropertyOp25
 70
     1
102
RTVSPropertyOp26
 70
     1
102
RTVSPropertyOp27
 70
     1
102
RTVSPropertyOp28
 70
     1
102
RTVSPropertyOp29
 70
     1
102
RTVSPropertyOp30
 70
     1
102
RTVSPropertyOp31
 70
     1
102
RTVSPropertyOp32
 70
     1
  0
XRECORD
  5
6C
102
{ACAD_REACTORS
330
6B
102
}
330
6B
100
AcDbXrecord
280
     1
102
RTVSPropertyOp0
 70
     1
102
RTVSPropertyOp1
 70
     1
102
RTVSPropertyOp2
 70
     1
102
RTVSPropertyOp3
 70
     1
102
RTVSPropertyOp4
 70
     1
102
RTVSPropertyOp5
 70
     1
102
RTVSPropertyOp6
 70
     1
102
RTVSPropertyOp7
 70
     1
102
RTVSPropertyOp8
 70
     1
102
RTVSPropertyOp9
 70
     1
102
RTVSPropertyOp10
 70
     1
102
RTVSPropertyOp11
 70
     1
102
RTVSPropertyOp12
 70
     1
102
RTVSPropertyOp13
 70
     1
102
RTVSPropertyOp14
 70
     1
102
RTVSPropertyOp15
 70
     1
102
RTVSPropertyOp16
 70
     1
102
RTVSPropertyOp17
 70
     1
102
RTVSPropertyOp18
 70
     1
102
RTVSPropertyOp19
 70
     1
102
RTVSPropertyOp20
 70
     1
102
RTVSPropertyOp21
 70
     1
102
RTVSPropertyOp22
 70
     1
102
RTVSPropertyOp23
 70
     1
102
RTVSPropertyOp24
 70
     1
102
RTVSPropertyOp25
 70
     1
102
RTVSPropertyOp26
 70
     1
102
RTVSPropertyOp27
 70
     1
102
RTVSPropertyOp28
 70
     1
102
RTVSPropertyOp29
 70
     1
102
RTVSPropertyOp30
 70
     1
102
RTVSPropertyOp31
 70
     1
102
RTVSPropertyOp32
 70
     1
  0
XRECORD
  5
74
102
{ACAD_REACTORS
330
73
102
}
330
73
100
AcDbXrecord
280
     1
102
RTVSPropertyOp0
 70
     1
102
RTVSPropertyOp1
 70
     1
102
RTVSPropertyOp2
 70
     1
102
RTVSPropertyOp3
 70
     1
102
RTVSPropertyOp4
 70
     1
102
RTVSPropertyOp5
 70
     1
102
RTVSPropertyOp6
 70
     1
102
RTVSPropertyOp7
 70
     1
102
RTVSPropertyOp8
 70
     1
102
RTVSPropertyOp9
 70
     1
102
RTVSPropertyOp10
 70
     1
102
RTVSPropertyOp11
 70
     1
102
RTVSPropertyOp12
 70
     1
102
RTVSPropertyOp13
 70
     1
102
RTVSPropertyOp14
 70
     1
102
RTVSPropertyOp15
 70
     1
102
RTVSPropertyOp16
 70
     1
102
RTVSPropertyOp17
 70
     1
102
RTVSPropertyOp18
 70
     1
102
RTVSPropertyOp19
 70
     1
102
RTVSPropertyOp20
 70
     1
102
RTVSPropertyOp21
 70
     1
102
RTVSPropertyOp22
 70
     1
102
RTVSPropertyOp23
 70
     1
102
RTVSPropertyOp24
 70
     1
102
RTVSPropertyOp25
 70
     1
102
RTVSPropertyOp26
 70
     1
102
RTVSPropertyOp27
 70
     1
102
RTVSPropertyOp28
 70
     1
102
RTVSPropertyOp29
 70
     1
102
RTVSPropertyOp30
 70
     1
102
RTVSPropertyOp31
 70
     1
102
RTVSPropertyOp32
 70
     1
  0
XRECORD
  5
68
102
{ACAD_REACTORS
330
67
102
}
330
67
100
AcDbXrecord
280
     1
102
RTVSPropertyOp0
 70
     1
102
RTVSPropertyOp1
 70
     1
102
RTVSPropertyOp2
 70
     1
102
RTVSPropertyOp3
 70
     1
102
RTVSPropertyOp4
 70
     1
102
RTVSPropertyOp5
 70
     1
102
RTVSPropertyOp6
 70
     1
102
RTVSPropertyOp7
 70
     1
102
RTVSPropertyOp8
 70
     1
102
RTVSPropertyOp9
 70
     1
102
RTVSPropertyOp10
 70
     1
102
RTVSPropertyOp11
 70
     1
102
RTVSPropertyOp12
 70
     1
102
RTVSPropertyOp13
 70
     1
102
RTVSPropertyOp14
 70
     1
102
RTVSPropertyOp15
 70
     1
102
RTVSPropertyOp16
 70
     1
102
RTVSPropertyOp17
 70
     1
102
RTVSPropertyOp18
 70
     1
102
RTVSPropertyOp19
 70
     1
102
RTVSPropertyOp20
 70
     1
102
RTVSPropertyOp21
 70
     1
102
RTVSPropertyOp22
 70
     1
102
RTVSPropertyOp23
 70
     1
102
RTVSPropertyOp24
 70
     1
102
RTVSPropertyOp25
 70
     1
102
RTVSPropertyOp26
 70
     1
102
RTVSPropertyOp27
 70
     1
102
RTVSPropertyOp28
 70
     1
102
RTVSPropertyOp29
 70
     1
102
RTVSPropertyOp30
 70
     1
102
RTVSPropertyOp31
 70
     1
102
RTVSPropertyOp32
 70
     1
  0
XRECORD
  5
6A
102
{ACAD_REACTORS
330
69
102
}
330
69
100
AcDbXrecord
280
     1
102
RTVSPropertyOp0
 70
     1
102
RTVSPropertyOp1
 70
     1
102
RTVSPropertyOp2
 70
     1
102
RTVSPropertyOp3
 70
     1
102
RTVSPropertyOp4
 70
     1
102
RTVSPropertyOp5
 70
     1
102
RTVSPropertyOp6
 70
     1
102
RTVSPropertyOp7
 70
     1
102
RTVSPropertyOp8
 70
     1
102
RTVSPropertyOp9
 70
     1
102
RTVSPropertyOp10
 70
     1
102
RTVSPropertyOp11
 70
     1
102
RTVSPropertyOp12
 70
     1
102
RTVSPropertyOp13
 70
     1
102
RTVSPropertyOp14
 70
     1
102
RTVSPropertyOp15
 70
     1
102
RTVSPropertyOp16
 70
     1
102
RTVSPropertyOp17
 70
     1
102
RTVSPropertyOp18
 70
     1
102
RTVSPropertyOp19
 70
     1
102
RTVSPropertyOp20
 70
     1
102
RTVSPropertyOp21
 70
     1
102
RTVSPropertyOp22
 70
     1
102
RTVSPropertyOp23
 70
     1
102
RTVSPropertyOp24
 70
     1
102
RTVSPropertyOp25
 70
     1
102
RTVSPropertyOp26
 70
     1
102
RTVSPropertyOp27
 70
     1
102
RTVSPropertyOp28
 70
     1
102
RTVSPropertyOp29
 70
     1
102
RTVSPropertyOp30
 70
     1
102
RTVSPropertyOp31
 70
     1
102
RTVSPropertyOp32
 70
     1
  0
XRECORD
  5
72
102
{ACAD_REACTORS
330
71
102
}
330
71
100
AcDbXrecord
280
     1
102
RTVSPropertyOp0
 70
     1
102
RTVSPropertyOp1
 70
     1
102
RTVSPropertyOp2
 70
     1
102
RTVSPropertyOp3
 70
     1
102
RTVSPropertyOp4
 70
     1
102
RTVSPropertyOp5
 70
     1
102
RTVSPropertyOp6
 70
     1
102
RTVSPropertyOp7
 70
     1
102
RTVSPropertyOp8
 70
     1
102
RTVSPropertyOp9
 70
     1
102
RTVSPropertyOp10
 70
     1
102
RTVSPropertyOp11
 70
     1
102
RTVSPropertyOp12
 70
     1
102
RTVSPropertyOp13
 70
     1
102
RTVSPropertyOp14
 70
     1
102
RTVSPropertyOp15
 70
     1
102
RTVSPropertyOp16
 70
     1
102
RTVSPropertyOp17
 70
     1
102
RTVSPropertyOp18
 70
     1
102
RTVSPropertyOp19
 70
     1
102
RTVSPropertyOp20
 70
     1
102
RTVSPropertyOp21
 70
     1
102
RTVSPropertyOp22
 70
     1
102
RTVSPropertyOp23
 70
     1
102
RTVSPropertyOp24
 70
     1
102
RTVSPropertyOp25
 70
     1
102
RTVSPropertyOp26
 70
     1
102
RTVSPropertyOp27
 70
     1
102
RTVSPropertyOp28
 70
     1
102
RTVSPropertyOp29
 70
     1
102
RTVSPropertyOp30
 70
     1
102
RTVSPropertyOp31
 70
     1
102
RTVSPropertyOp32
 70
     1
  0
XRECORD
  5
56
102
{ACAD_REACTORS
330
55
102
}
330
55
100
AcDbXrecord
280
     1
102
RTVSPropertyOp0
 70
     1
102
RTVSPropertyOp1
 70
     1
102
RTVSPropertyOp2
 70
     1
102
RTVSPropertyOp3
 70
     1
102
RTVSPropertyOp4
 70
     1
102
RTVSPropertyOp5
 70
     1
102
RTVSPropertyOp6
 70
     1
102
RTVSPropertyOp7
 70
     1
102
RTVSPropertyOp8
 70
     1
102
RTVSPropertyOp9
 70
     1
102
RTVSPropertyOp10
 70
     1
102
RTVSPropertyOp11
 70
     1
102
RTVSPropertyOp12
 70
     1
102
RTVSPropertyOp13
 70
     1
102
RTVSPropertyOp14
 70
     1
102
RTVSPropertyOp15
 70
     1
102
RTVSPropertyOp16
 70
     1
102
RTVSPropertyOp17
 70
     1
102
RTVSPropertyOp18
 70
     1
102
RTVSPropertyOp19
 70
     1
102
RTVSPropertyOp20
 70
     1
102
RTVSPropertyOp21
 70
     1
102
RTVSPropertyOp22
 70
     1
102
RTVSPropertyOp23
 70
     1
102
RTVSPropertyOp24
 70
     1
102
RTVSPropertyOp25
 70
     1
102
RTVSPropertyOp26
 70
     1
102
RTVSPropertyOp27
 70
     1
102
RTVSPropertyOp28
 70
     1
102
RTVSPropertyOp29
 70
     1
102
RTVSPropertyOp30
 70
     1
102
RTVSPropertyOp31
 70
     1
102
RTVSPropertyOp32
 70
     1
  0
XRECORD
  5
58
102
{ACAD_REACTORS
330
57
102
}
330
57
100
AcDbXrecord
280
     1
102
RTVSPropertyOp0
 70
     1
102
RTVSPropertyOp1
 70
     1
102
RTVSPropertyOp2
 70
     1
102
RTVSPropertyOp3
 70
     1
102
RTVSPropertyOp4
 70
     1
102
RTVSPropertyOp5
 70
     1
102
RTVSPropertyOp6
 70
     1
102
RTVSPropertyOp7
 70
     1
102
RTVSPropertyOp8
 70
     1
102
RTVSPropertyOp9
 70
     1
102
RTVSPropertyOp10
 70
     1
102
RTVSPropertyOp11
 70
     1
102
RTVSPropertyOp12
 70
     1
102
RTVSPropertyOp13
 70
     1
102
RTVSPropertyOp14
 70
     1
102
RTVSPropertyOp15
 70
     1
102
RTVSPropertyOp16
 70
     1
102
RTVSPropertyOp17
 70
     1
102
RTVSPropertyOp18
 70
     1
102
RTVSPropertyOp19
 70
     1
102
RTVSPropertyOp20
 70
     1
102
RTVSPropertyOp21
 70
     1
102
RTVSPropertyOp22
 70
     1
102
RTVSPropertyOp23
 70
     1
102
RTVSPropertyOp24
 70
     1
102
RTVSPropertyOp25
 70
     1
102
RTVSPropertyOp26
 70
     1
102
RTVSPropertyOp27
 70
     1
102
RTVSPropertyOp28
 70
     1
102
RTVSPropertyOp29
 70
     1
102
RTVSPropertyOp30
 70
     1
102
RTVSPropertyOp31
 70
     1
102
RTVSPropertyOp32
 70
     1
  0
XRECORD
  5
5A
102
{ACAD_REACTORS
330
59
102
}
330
59
100
AcDbXrecord
280
     1
102
RTVSPropertyOp0
 70
     1
102
RTVSPropertyOp1
 70
     1
102
RTVSPropertyOp2
 70
     1
102
RTVSPropertyOp3
 70
     1
102
RTVSPropertyOp4
 70
     1
102
RTVSPropertyOp5
 70
     1
102
RTVSPropertyOp6
 70
     1
102
RTVSPropertyOp7
 70
     1
102
RTVSPropertyOp8
 70
     1
102
RTVSPropertyOp9
 70
     1
102
RTVSPropertyOp10
 70
     1
102
RTVSPropertyOp11
 70
     1
102
RTVSPropertyOp12
 70
     1
102
RTVSPropertyOp13
 70
     1
102
RTVSPropertyOp14
 70
     1
102
RTVSPropertyOp15
 70
     1
102
RTVSPropertyOp16
 70
     1
102
RTVSPropertyOp17
 70
     1
102
RTVSPropertyOp18
 70
     1
102
RTVSPropertyOp19
 70
     1
102
RTVSPropertyOp20
 70
     1
102
RTVSPropertyOp21
 70
     1
102
RTVSPropertyOp22
 70
     1
102
RTVSPropertyOp23
 70
     1
102
RTVSPropertyOp24
 70
     1
102
RTVSPropertyOp25
 70
     1
102
RTVSPropertyOp26
 70
     1
102
RTVSPropertyOp27
 70
     1
102
RTVSPropertyOp28
 70
     1
102
RTVSPropertyOp29
 70
     1
102
RTVSPropertyOp30
 70
     1
102
RTVSPropertyOp31
 70
     1
102
RTVSPropertyOp32
 70
     1
  0
XRECORD
  5
5C
102
{ACAD_REACTORS
330
5B
102
}
330
5B
100
AcDbXrecord
280
     1
102
RTVSPropertyOp0
 70
     1
102
RTVSPropertyOp1
 70
     1
102
RTVSPropertyOp2
 70
     1
102
RTVSPropertyOp3
 70
     1
102
RTVSPropertyOp4
 70
     1
102
RTVSPropertyOp5
 70
     1
102
RTVSPropertyOp6
 70
     1
102
RTVSPropertyOp7
 70
     1
102
RTVSPropertyOp8
 70
     1
102
RTVSPropertyOp9
 70
     1
102
RTVSPropertyOp10
 70
     1
102
RTVSPropertyOp11
 70
     1
102
RTVSPropertyOp12
 70
     1
102
RTVSPropertyOp13
 70
     1
102
RTVSPropertyOp14
 70
     1
102
RTVSPropertyOp15
 70
     1
102
RTVSPropertyOp16
 70
     1
102
RTVSPropertyOp17
 70
     1
102
RTVSPropertyOp18
 70
     1
102
RTVSPropertyOp19
 70
     1
102
RTVSPropertyOp20
 70
     1
102
RTVSPropertyOp21
 70
     1
102
RTVSPropertyOp22
 70
     1
102
RTVSPropertyOp23
 70
     1
102
RTVSPropertyOp24
 70
     1
102
RTVSPropertyOp25
 70
     1
102
RTVSPropertyOp26
 70
     1
102
RTVSPropertyOp27
 70
     1
102
RTVSPropertyOp28
 70
     1
102
RTVSPropertyOp29
 70
     1
102
RTVSPropertyOp30
 70
     1
102
RTVSPropertyOp31
 70
     1
102
RTVSPropertyOp32
 70
     1
  0
XRECORD
  5
70
102
{ACAD_REACTORS
330
6F
102
}
330
6F
100
AcDbXrecord
280
     1
102
RTVSPropertyOp0
 70
     1
102
RTVSPropertyOp1
 70
     1
102
RTVSPropertyOp2
 70
     1
102
RTVSPropertyOp3
 70
     1
102
RTVSPropertyOp4
 70
     1
102
RTVSPropertyOp5
 70
     1
102
RTVSPropertyOp6
 70
     1
102
RTVSPropertyOp7
 70
     1
102
RTVSPropertyOp8
 70
     1
102
RTVSPropertyOp9
 70
     1
102
RTVSPropertyOp10
 70
     1
102
RTVSPropertyOp11
 70
     1
102
RTVSPropertyOp12
 70
     1
102
RTVSPropertyOp13
 70
     1
102
RTVSPropertyOp14
 70
     1
102
RTVSPropertyOp15
 70
     1
102
RTVSPropertyOp16
 70
     1
102
RTVSPropertyOp17
 70
     1
102
RTVSPropertyOp18
 70
     1
102
RTVSPropertyOp19
 70
     1
102
RTVSPropertyOp20
 70
     1
102
RTVSPropertyOp21
 70
     1
102
RTVSPropertyOp22
 70
     1
102
RTVSPropertyOp23
 70
     1
102
RTVSPropertyOp24
 70
     1
102
RTVSPropertyOp25
 70
     1
102
RTVSPropertyOp26
 70
     1
102
RTVSPropertyOp27
 70
     1
102
RTVSPropertyOp28
 70
     1
102
RTVSPropertyOp29
 70
     1
102
RTVSPropertyOp30
 70
     1
102
RTVSPropertyOp31
 70
     1
102
RTVSPropertyOp32
 70
     1
  0
XRECORD
  5
66
102
{ACAD_REACTORS
330
65
102
}
330
65
100
AcDbXrecord
280
     1
102
RTVSPropertyOp0
 70
     1
102
RTVSPropertyOp1
 70
     1
102
RTVSPropertyOp2
 70
     1
102
RTVSPropertyOp3
 70
     1
102
RTVSPropertyOp4
 70
     1
102
RTVSPropertyOp5
 70
     1
102
RTVSPropertyOp6
 70
     1
102
RTVSPropertyOp7
 70
     1
102
RTVSPropertyOp8
 70
     1
102
RTVSPropertyOp9
 70
     1
102
RTVSPropertyOp10
 70
     1
102
RTVSPropertyOp11
 70
     1
102
RTVSPropertyOp12
 70
     1
102
RTVSPropertyOp13
 70
     1
102
RTVSPropertyOp14
 70
     1
102
RTVSPropertyOp15
 70
     1
102
RTVSPropertyOp16
 70
     1
102
RTVSPropertyOp17
 70
     1
102
RTVSPropertyOp18
 70
     1
102
RTVSPropertyOp19
 70
     1
102
RTVSPropertyOp20
 70
     1
102
RTVSPropertyOp21
 70
     1
102
RTVSPropertyOp22
 70
     1
102
RTVSPropertyOp23
 70
     1
102
RTVSPropertyOp24
 70
     1
102
RTVSPropertyOp25
 70
     1
102
RTVSPropertyOp26
 70
     1
102
RTVSPropertyOp27
 70
     1
102
RTVSPropertyOp28
 70
     1
102
RTVSPropertyOp29
 70
     1
102
RTVSPropertyOp30
 70
     1
102
RTVSPropertyOp31
 70
     1
102
RTVSPropertyOp32
 70
     1
  0
XRECORD
  5
6E
102
{ACAD_REACTORS
330
6D
102
}
330
6D
100
AcDbXrecord
280
     1
102
RTVSPropertyOp0
 70
     1
102
RTVSPropertyOp1
 70
     1
102
RTVSPropertyOp2
 70
     1
102
RTVSPropertyOp3
 70
     1
102
RTVSPropertyOp4
 70
     1
102
RTVSPropertyOp5
 70
     1
102
RTVSPropertyOp6
 70
     1
102
RTVSPropertyOp7
 70
     1
102
RTVSPropertyOp8
 70
     1
102
RTVSPropertyOp9
 70
     1
102
RTVSPropertyOp10
 70
     1
102
RTVSPropertyOp11
 70
     1
102
RTVSPropertyOp12
 70
     1
102
RTVSPropertyOp13
 70
     1
102
RTVSPropertyOp14
 70
     1
102
RTVSPropertyOp15
 70
     1
102
RTVSPropertyOp16
 70
     1
102
RTVSPropertyOp17
 70
     1
102
RTVSPropertyOp18
 70
     1
102
RTVSPropertyOp19
 70
     1
102
RTVSPropertyOp20
 70
     1
102
RTVSPropertyOp21
 70
     1
102
RTVSPropertyOp22
 70
     1
102
RTVSPropertyOp23
 70
     1
102
RTVSPropertyOp24
 70
     1
102
RTVSPropertyOp25
 70
     1
102
RTVSPropertyOp26
 70
     1
102
RTVSPropertyOp27
 70
     1
102
RTVSPropertyOp28
 70
     1
102
RTVSPropertyOp29
 70
     1
102
RTVSPropertyOp30
 70
     1
102
RTVSPropertyOp31
 70
     1
102
RTVSPropertyOp32
 70
     1
  0
ENDSEC
  0
EOF
