  0
SECTION
  2
HEADER
  9
$ACADVER
  1
AC1018
  9
$ACADMAINTVER
 70
     0
  9
$DWGCODEPAGE
  3
ANSI_936
  9
$INSBASE
 10
0.0
 20
0.0
 30
0.0
  9
$EXTMIN
 10
1.000000000000000E+20
 20
1.000000000000000E+20
 30
1.000000000000000E+20
  9
$EXTMAX
 10
-1.000000000000000E+20
 20
-1.000000000000000E+20
 30
-1.000000000000000E+20
  9
$LIMMIN
 10
0.0
 20
0.0
  9
$LIMMAX
 10
12.0
 20
9.0
  9
$ORTHOMODE
 70
     0
  9
$REGENMODE
 70
     1
  9
$FILLMODE
 70
     1
  9
$QTEXTMODE
 70
     0
  9
$MIRRTEXT
 70
     1
  9
$LTSCALE
 40
1.0
  9
$ATTMODE
 70
     1
  9
$TEXTSIZE
 40
0.2
  9
$TRACEWID
 40
0.05
  9
$TEXTSTYLE
  7
Standard
  9
$CLAYER
  8
0
  9
$CELTYPE
  6
ByLayer
  9
$CECOLOR
 62
   256
  9
$CELTSCALE
 40
1.0
  9
$DISPSILH
 70
     0
  9
$DIMSCALE
 40
1.0
  9
$DIMASZ
 40
0.18
  9
$DIMEXO
 40
0.0625
  9
$DIMDLI
 40
0.38
  9
$DIMRND
 40
0.0
  9
$DIMDLE
 40
0.0
  9
$DIMEXE
 40
0.18
  9
$DIMTP
 40
0.0
  9
$DIMTM
 40
0.0
  9
$DIMTXT
 40
0.18
  9
$DIMCEN
 40
0.09
  9
$DIMTSZ
 40
0.0
  9
$DIMTOL
 70
     0
  9
$DIMLIM
 70
     0
  9
$DIMTIH
 70
     1
  9
$DIMTOH
 70
     1
  9
$DIMSE1
 70
     0
  9
$DIMSE2
 70
     0
  9
$DIMTAD
 70
     0
  9
$DIMZIN
 70
     0
  9
$DIMBLK
  1

  9
$DIMASO
 70
     1
  9
$DIMSHO
 70
     1
  9
$DIMPOST
  1

  9
$DIMAPOST
  1

  9
$DIMALT
 70
     0
  9
$DIMALTD
 70
     2
  9
$DIMALTF
 40
25.4
  9
$DIMLFAC
 40
1.0
  9
$DIMTOFL
 70
     0
  9
$DIMTVP
 40
0.0
  9
$DIMTIX
 70
     0
  9
$DIMSOXD
 70
     0
  9
$DIMSAH
 70
     0
  9
$DIMBLK1
  1

  9
$DIMBLK2
  1

  9
$DIMSTYLE
  2
Standard
  9
$DIMCLRD
 70
     0
  9
$DIMCLRE
 70
     0
  9
$DIMCLRT
 70
     0
  9
$DIMTFAC
 40
1.0
  9
$DIMGAP
 40
0.09
  9
$DIMJUST
 70
     0
  9
$DIMSD1
 70
     0
  9
$DIMSD2
 70
     0
  9
$DIMTOLJ
 70
     1
  9
$DIMTZIN
 70
     0
  9
$DIMALTZ
 70
     0
  9
$DIMALTTZ
 70
     0
  9
$DIMUPT
 70
     0
  9
$DIMDEC
 70
     4
  9
$DIMTDEC
 70
     4
  9
$DIMALTU
 70
     2
  9
$DIMALTTD
 70
     2
  9
$DIMTXSTY
  7
Standard
  9
$DIMAUNIT
 70
     0
  9
$DIMADEC
 70
     0
  9
$DIMALTRND
 40
0.0
  9
$DIMAZIN
 70
     0
  9
$DIMDSEP
 70
    46
  9
$DIMATFIT
 70
     3
  9
$DIMFRAC
 70
     0
  9
$DIMLDRBLK
  1

  9
$DIMLUNIT
 70
     2
  9
$DIMLWD
 70
    -2
  9
$DIMLWE
 70
    -2
  9
$DIMTMOVE
 70
     0
  9
$LUNITS
 70
     2
  9
$LUPREC
 70
     4
  9
$SKETCHINC
 40
0.1
  9
$FILLETRAD
 40
0.5
  9
$AUNITS
 70
     0
  9
$AUPREC
 70
     0
  9
$MENU
  1
.
  9
$ELEVATION
 40
0.0
  9
$PELEVATION
 40
0.0
  9
$THICKNESS
 40
0.0
  9
$LIMCHECK
 70
     0
  9
$CHAMFERA
 40
0.5
  9
$CHAMFERB
 40
0.5
  9
$CHAMFERC
 40
1.0
  9
$CHAMFERD
 40
0.0
  9
$SKPOLY
 70
     0
  9
$TDCREATE
 40
2459208.885458079
  9
$TDUCREATE
 40
2459208.552124745
  9
$TDUPDATE
 40
2459208.885458114
  9
$TDUUPDATE
 40
2459208.55212478
  9
$TDINDWG
 40
0.0000000116
  9
$TDUSRTIMER
 40
0.0000000116
  9
$USRTIMER
 70
     1
  9
$ANGBASE
 50
0.0
  9
$ANGDIR
 70
     0
  9
$PDMODE
 70
     0
  9
$PDSIZE
 40
0.0
  9
$PLINEWID
 40
0.0
  9
$SPLFRAME
 70
     0
  9
$SPLINETYPE
 70
     6
  9
$SPLINESEGS
 70
     8
  9
$HANDSEED
  5
78
  9
$SURFTAB1
 70
     6
  9
$SURFTAB2
 70
     6
  9
$SURFTYPE
 70
     6
  9
$SURFU
 70
     6
  9
$SURFV
 70
     6
  9
$UCSBASE
  2

  9
$UCSNAME
  2

  9
$UCSORG
 10
0.0
 20
0.0
 30
0.0
  9
$UCSXDIR
 10
1.0
 20
0.0
 30
0.0
  9
$UCSYDIR
 10
0.0
 20
1.0
 30
0.0
  9
$UCSORTHOREF
  2

  9
$UCSORTHOVIEW
 70
     0
  9
$UCSORGTOP
 10
0.0
 20
0.0
 30
0.0
  9
$UCSORGBOTTOM
 10
0.0
 20
0.0
 30
0.0
  9
$UCSORGLEFT
 10
0.0
 20
0.0
 30
0.0
  9
$UCSORGRIGHT
 10
0.0
 20
0.0
 30
0.0
  9
$UCSORGFRONT
 10
0.0
 20
0.0
 30
0.0
  9
$UCSORGBACK
 10
0.0
 20
0.0
 30
0.0
  9
$PUCSBASE
  2

  9
$PUCSNAME
  2

  9
$PUCSORG
 10
0.0
 20
0.0
 30
0.0
  9
$PUCSXDIR
 10
1.0
 20
0.0
 30
0.0
  9
$PUCSYDIR
 10
0.0
 20
1.0
 30
0.0
  9
$PUCSORTHOREF
  2

  9
$PUCSORTHOVIEW
 70
     0
  9
$PUCSORGTOP
 10
0.0
 20
0.0
 30
0.0
  9
$PUCSORGBOTTOM
 10
0.0
 20
0.0
 30
0.0
  9
$PUCSORGLEFT
 10
0.0
 20
0.0
 30
0.0
  9
$PUCSORGRIGHT
 10
0.0
 20
0.0
 30
0.0
  9
$PUCSORGFRONT
 10
0.0
 20
0.0
 30
0.0
  9
$PUCSORGBACK
 10
0.0
 20
0.0
 30
0.0
  9
$USERI1
 70
     0
  9
$USERI2
 70
     0
  9
$USERI3
 70
     0
  9
$USERI4
 70
     0
  9
$USERI5
 70
     0
  9
$USERR1
 40
0.0
  9
$USERR2
 40
0.0
  9
$USERR3
 40
0.0
  9
$USERR4
 40
0.0
  9
$USERR5
 40
0.0
  9
$WORLDVIEW
 70
     1
  9
$SHADEDGE
 70
     3
  9
$SHADEDIF
 70
    70
  9
$TILEMODE
 70
     1
  9
$MAXACTVP
 70
    64
  9
$PINSBASE
 10
0.0
 20
0.0
 30
0.0
  9
$PLIMCHECK
 70
     0
  9
$PEXTMIN
 10
1.000000000000000E+20
 20
1.000000000000000E+20
 30
1.000000000000000E+20
  9
$PEXTMAX
 10
-1.000000000000000E+20
 20
-1.000000000000000E+20
 30
-1.000000000000000E+20
  9
$PLIMMIN
 10
0.0
 20
0.0
  9
$PLIMMAX
 10
12.0
 20
9.0
  9
$UNITMODE
 70
     0
  9
$VISRETAIN
 70
     1
  9
$PLINEGEN
 70
     0
  9
$PSLTSCALE
 70
     1
  9
$TREEDEPTH
 70
  3020
  9
$CMLSTYLE
  2
Standard
  9
$CMLJUST
 70
     0
  9
$CMLSCALE
 40
1.0
  9
$PROXYGRAPHICS
 70
     1
  9
$MEASUREMENT
 70
     0
  9
$CELWEIGHT
370
    -1
  9
$ENDCAPS
280
     0
  9
$JOINSTYLE
280
     0
  9
$LWDISPLAY
290
     1
  9
$INSUNITS
 70
     4
  9
$HYPERLINKBASE
  1

  9
$STYLESHEET
  1

  9
$XEDIT
290
     1
  9
$CEPSNTYPE
380
     0
  9
$PSTYLEMODE
290
     1
  9
$FINGERPRINTGUID
  2
{86E47DD1-6CFC-491A-93C4-B499408D34E1}
  9
$VERSIONGUID
  2
{FAEB1C32-E019-11D5-929B-00C0DF256EC4}
  9
$EXTNAMES
290
     1
  9
$PSVPSCALE
 40
0.0
  9
$OLESTARTUP
290
     0
  9
$SORTENTS
280
   127
  9
$INDEXCTL
280
     0
  9
$HIDETEXT
280
     1
  9
$XCLIPFRAME
290
     0
  9
$HALOGAP
280
     0
  9
$OBSCOLOR
 70
   257
  9
$OBSLTYPE
280
     0
  9
$INTERSECTIONDISPLAY
280
     0
  9
$INTERSECTIONCOLOR
 70
   257
  9
$DIMASSOC
280
     2
  9
$PROJECTNAME
  1

  0
ENDSEC
  0
SECTION
  2
CLASSES
  0
CLASS
  1
ACDBDICTIONARYWDFLT
  2
AcDbDictionaryWithDefault
  3
ObjectDBX Classes
 90
        0
 91
        4
280
     0
281
     0
  0
CLASS
  1
VISUALSTYLE
  2
AcDbVisualStyle
  3
ObjectDBX Classes
 90
     4095
 91
        4
280
     0
281
     0
  0
CLASS
  1
MATERIAL
  2
AcDbMaterial
  3
ObjectDBX Classes
 90
     1153
 91
        4
280
     0
281
     0
  0
CLASS
  1
SUN
  2
AcDbSun
  3
SCENEOE
 90
     1024
 91
        4
280
     0
281
     0
  0
ENDSEC
  0
SECTION
  2
TABLES
  0
TABLE
  2
VPORT
  5
8
330
0
100
AcDbSymbolTable
 70
     1
  0
VPORT
  5
29
330
8
100
AcDbSymbolTableRecord
100
AcDbViewportTableRecord
  2
*Active
 70
     0
 10
0.0
 20
0.0
 11
1.0
 21
1.0
 12
0.0
 22
0.0
 13
0.0
 23
0.0
 14
0.5
 24
0.5
 15
0.5
 25
0.5
 16
0.0
 26
0.0
 36
1.0
 17
-428.4833255671772
 27
396.626242474899
 37
0.0
 40
109.4511572670156
 41
3.19777369871484
 42
50.0
 43
0.0
 44
0.0
 50
0.0
 51
0.0
 71
     0
 72
   100
 73
     1
 74
     3
 75
     0
 76
     0
 77
     0
 78
     0
281
     0
 65
     1
110
0.0
120
0.0
130
0.0
111
1.0
121
0.0
131
0.0
112
0.0
122
1.0
132
0.0
 79
     0
146
0.0
  0
ENDTAB
  0
TABLE
  2
LTYPE
  5
5
330
0
100
AcDbSymbolTable
 70
     1
  0
LTYPE
  5
14
330
5
100
AcDbSymbolTableRecord
100
AcDbLinetypeTableRecord
  2
ByBlock
 70
     0
  3

 72
    65
 73
     0
 40
0.0
  0
LTYPE
  5
15
330
5
100
AcDbSymbolTableRecord
100
AcDbLinetypeTableRecord
  2
ByLayer
 70
     0
  3

 72
    65
 73
     0
 40
0.0
  0
LTYPE
  5
16
330
5
100
AcDbSymbolTableRecord
100
AcDbLinetypeTableRecord
  2
Continuous
 70
     0
  3
Solid line
 72
    65
 73
     0
 40
0.0
  0
ENDTAB
  0
TABLE
  2
LAYER
  5
2
330
0
100
AcDbSymbolTable
 70
     2
  0
LAYER
  5
10
330
2
100
AcDbSymbolTableRecord
100
AcDbLayerTableRecord
  2
0
 70
     0
 62
     7
  6
Continuous
370
    -3
390
F
  0
LAYER
  5
40
330
2
100
AcDbSymbolTableRecord
100
AcDbLayerTableRecord
  2
_U+56FE_U+5C42 1
 70
     0
 62
     7
  6
Continuous
370
    -3
390
F
  0
ENDTAB
  0
TABLE
  2
STYLE
  5
3
330
0
100
AcDbSymbolTable
 70
     1
  0
STYLE
  5
11
330
3
100
AcDbSymbolTableRecord
100
AcDbTextStyleTableRecord
  2
Standard
 70
     0
 40
0.0
 41
1.0
 50
0.0
 71
     0
 42
0.2
  3
txt
  4

  0
ENDTAB
  0
TABLE
  2
VIEW
  5
6
330
0
100
AcDbSymbolTable
 70
     0
  0
ENDTAB
  0
TABLE
  2
UCS
  5
7
330
0
100
AcDbSymbolTable
 70
     0
  0
ENDTAB
  0
TABLE
  2
APPID
  5
9
330
0
100
AcDbSymbolTable
 70
     1
  0
APPID
  5
12
330
9
100
AcDbSymbolTableRecord
100
AcDbRegAppTableRecord
  2
ACAD
 70
     0
  0
ENDTAB
  0
TABLE
  2
DIMSTYLE
  5
A
330
0
100
AcDbSymbolTable
 70
     1
100
AcDbDimStyleTable
  0
DIMSTYLE
105
27
330
A
100
AcDbSymbolTableRecord
100
AcDbDimStyleTableRecord
  2
Standard
 70
     0
178
     0
340
11
  0
ENDTAB
  0
TABLE
  2
BLOCK_RECORD
  5
1
330
0
100
AcDbSymbolTable
 70
     4
  0
BLOCK_RECORD
  5
1F
330
1
100
AcDbSymbolTableRecord
100
AcDbBlockTableRecord
  2
*Model_Space
340
22
  0
BLOCK_RECORD
  5
1B
330
1
100
AcDbSymbolTableRecord
100
AcDbBlockTableRecord
  2
*Paper_Space
340
1E
  0
BLOCK_RECORD
  5
23
330
1
100
AcDbSymbolTableRecord
100
AcDbBlockTableRecord
  2
*Paper_Space0
340
26
  0
BLOCK_RECORD
  5
41
330
1
100
AcDbSymbolTableRecord
100
AcDbBlockTableRecord
  2
block 2
340
0
102
{BLKREFS
331
42
102
}
  0
BLOCK_RECORD
  5
45
330
1
100
AcDbSymbolTableRecord
100
AcDbBlockTableRecord
  2
block 3
340
0
102
{BLKREFS
331
46
102
}
  0
BLOCK_RECORD
  5
4A
330
1
100
AcDbSymbolTableRecord
100
AcDbBlockTableRecord
  2
block 4
340
0
102
{BLKREFS
331
4B
102
}
  0
ENDTAB
  0
ENDSEC
  0
SECTION
  2
BLOCKS
  0
BLOCK
  5
20
330
1F
100
AcDbEntity
  8
0
100
AcDbBlockBegin
  2
*Model_Space
 70
     0
 10
0.0
 20
0.0
 30
0.0
  3
*Model_Space
  1

  0
ENDBLK
  5
21
330
1F
100
AcDbEntity
  8
0
100
AcDbBlockEnd
  0
BLOCK
  5
1C
330
1B
100
AcDbEntity
 67
     1
  8
0
100
AcDbBlockBegin
  2
*Paper_Space
 70
     0
 10
0.0
 20
0.0
 30
0.0
  3
*Paper_Space
  1

  0
ENDBLK
  5
1D
330
1B
100
AcDbEntity
 67
     1
  8
0
100
AcDbBlockEnd
  0
BLOCK
  5
24
330
23
100
AcDbEntity
  8
0
100
AcDbBlockBegin
  2
*Paper_Space0
 70
     0
 10
0.0
 20
0.0
 30
0.0
  3
*Paper_Space0
  1

  0
ENDBLK
  5
25
330
23
100
AcDbEntity
  8
0
100
AcDbBlockEnd
  0
BLOCK
  5
43
330
41
100
AcDbEntity
  8
0
100
AcDbBlockBegin
  2
block 2
 70
     0
 10
0.0
 20
0.0
 30
0.0
  3
block 2
  1

  0
INSERT
  5
46
330
41
100
AcDbEntity
  8
_U+56FE_U+5C42 1
100
AcDbBlockReference
  2
block 3
 10
0.0
 20
0.0
 30
0.0
  0
INSERT
  5
4B
330
41
100
AcDbEntity
  8
_U+56FE_U+5C42 1
100
AcDbBlockReference
  2
block 4
 10
0.0
 20
0.0
 30
0.0
  0
ENDBLK
  5
44
330
41
100
AcDbEntity
  8
0
100
AcDbBlockEnd
  0
BLOCK
  5
47
330
45
100
AcDbEntity
  8
0
100
AcDbBlockBegin
  2
block 3
 70
     0
 10
0.0
 20
0.0
 30
0.0
  3
block 3
  1

  0
SPLINE
  5
49
330
45
100
AcDbEntity
  8
_U+56FE_U+5C42 1
 62
     7
370
    35
100
AcDbSpline
210
0.0
220
0.0
230
1.0
 70
    11
 71
     3
 72
   341
 73
   337
 74
     0
 42
0.0000000001
 43
0.0000000001
 12
1.0
 22
0.0
 32
0.0
 13
1.0
 23
0.0
 33
0.0
 40
0.0
 40
0.0
 40
0.0
 40
0.0
 40
1.0
 40
1.0
 40
1.0
 40
2.0
 40
2.0
 40
2.0
 40
3.0
 40
3.0
 40
3.0
 40
4.0
 40
4.0
 40
4.0
 40
5.0
 40
5.0
 40
5.0
 40
6.0
 40
6.0
 40
6.0
 40
7.0
 40
7.0
 40
7.0
 40
8.0
 40
8.0
 40
8.0
 40
9.0
 40
9.0
 40
9.0
 40
10.0
 40
10.0
 40
10.0
 40
11.0
 40
11.0
 40
11.0
 40
12.0
 40
12.0
 40
12.0
 40
13.0
 40
13.0
 40
13.0
 40
14.0
 40
14.0
 40
14.0
 40
15.0
 40
15.0
 40
15.0
 40
16.0
 40
16.0
 40
16.0
 40
17.0
 40
17.0
 40
17.0
 40
18.0
 40
18.0
 40
18.0
 40
19.0
 40
19.0
 40
19.0
 40
20.0
 40
20.0
 40
20.0
 40
21.0
 40
21.0
 40
21.0
 40
22.0
 40
22.0
 40
22.0
 40
23.0
 40
23.0
 40
23.0
 40
24.0
 40
24.0
 40
24.0
 40
25.0
 40
25.0
 40
25.0
 40
26.0
 40
26.0
 40
26.0
 40
27.0
 40
27.0
 40
27.0
 40
28.0
 40
28.0
 40
28.0
 40
29.0
 40
29.0
 40
29.0
 40
30.0
 40
30.0
 40
30.0
 40
31.0
 40
31.0
 40
31.0
 40
32.0
 40
32.0
 40
32.0
 40
33.0
 40
33.0
 40
33.0
 40
34.0
 40
34.0
 40
34.0
 40
35.0
 40
35.0
 40
35.0
 40
36.0
 40
36.0
 40
36.0
 40
37.0
 40
37.0
 40
37.0
 40
38.0
 40
38.0
 40
38.0
 40
39.0
 40
39.0
 40
39.0
 40
40.0
 40
40.0
 40
40.0
 40
41.0
 40
41.0
 40
41.0
 40
42.0
 40
42.0
 40
42.0
 40
43.0
 40
43.0
 40
43.0
 40
44.0
 40
44.0
 40
44.0
 40
45.0
 40
45.0
 40
45.0
 40
46.0
 40
46.0
 40
46.0
 40
47.0
 40
47.0
 40
47.0
 40
48.0
 40
48.0
 40
48.0
 40
49.0
 40
49.0
 40
49.0
 40
50.0
 40
50.0
 40
50.0
 40
51.0
 40
51.0
 40
51.0
 40
52.0
 40
52.0
 40
52.0
 40
53.0
 40
53.0
 40
53.0
 40
54.0
 40
54.0
 40
54.0
 40
55.0
 40
55.0
 40
55.0
 40
56.0
 40
56.0
 40
56.0
 40
57.0
 40
57.0
 40
57.0
 40
58.0
 40
58.0
 40
58.0
 40
59.0
 40
59.0
 40
59.0
 40
60.0
 40
60.0
 40
60.0
 40
61.0
 40
61.0
 40
61.0
 40
62.0
 40
62.0
 40
62.0
 40
63.0
 40
63.0
 40
63.0
 40
64.0
 40
64.0
 40
64.0
 40
65.0
 40
65.0
 40
65.0
 40
66.0
 40
66.0
 40
66.0
 40
67.0
 40
67.0
 40
67.0
 40
68.0
 40
68.0
 40
68.0
 40
69.0
 40
69.0
 40
69.0
 40
70.0
 40
70.0
 40
70.0
 40
71.0
 40
71.0
 40
71.0
 40
72.0
 40
72.0
 40
72.0
 40
73.0
 40
73.0
 40
73.0
 40
74.0
 40
74.0
 40
74.0
 40
75.0
 40
75.0
 40
75.0
 40
76.0
 40
76.0
 40
76.0
 40
77.0
 40
77.0
 40
77.0
 40
78.0
 40
78.0
 40
78.0
 40
79.0
 40
79.0
 40
79.0
 40
80.0
 40
80.0
 40
80.0
 40
81.0
 40
81.0
 40
81.0
 40
82.0
 40
82.0
 40
82.0
 40
83.0
 40
83.0
 40
83.0
 40
84.0
 40
84.0
 40
84.0
 40
85.0
 40
85.0
 40
85.0
 40
86.0
 40
86.0
 40
86.0
 40
87.0
 40
87.0
 40
87.0
 40
88.0
 40
88.0
 40
88.0
 40
89.0
 40
89.0
 40
89.0
 40
90.0
 40
90.0
 40
90.0
 40
91.0
 40
91.0
 40
91.0
 40
92.0
 40
92.0
 40
92.0
 40
93.0
 40
93.0
 40
93.0
 40
94.0
 40
94.0
 40
94.0
 40
95.0
 40
95.0
 40
95.0
 40
96.0
 40
96.0
 40
96.0
 40
97.0
 40
97.0
 40
97.0
 40
98.0
 40
98.0
 40
98.0
 40
99.0
 40
99.0
 40
99.0
 40
100.0
 40
100.0
 40
100.0
 40
101.0
 40
101.0
 40
101.0
 40
102.0
 40
102.0
 40
102.0
 40
103.0
 40
103.0
 40
103.0
 40
104.0
 40
104.0
 40
104.0
 40
105.0
 40
105.0
 40
105.0
 40
106.0
 40
106.0
 40
106.0
 40
107.0
 40
107.0
 40
107.0
 40
108.0
 40
108.0
 40
108.0
 40
109.0
 40
109.0
 40
109.0
 40
110.0
 40
110.0
 40
110.0
 40
111.0
 40
111.0
 40
111.0
 40
112.0
 40
112.0
 40
112.0
 40
112.0
 10
-464.819955700322
 20
406.4640072978574
 30
0.0
 10
-463.8256441813165
 20
406.4640074603257
 30
0.0
 10
-462.9470628586005
 20
406.4751413685188
 30
0.0
 10
-462.0688401072858
 20
406.4620938514478
 30
0.0
 10
-458.1787816183494
 20
406.4042876583266
 30
0.0
 10
-454.2887948436179
 20
406.341143174667
 30
0.0
 10
-450.3988259974764
 20
406.2769274471368
 30
0.0
 10
-444.5520038841186
 20
406.1804044002579
 30
0.0
 10
-438.7052534851209
 20
406.079475358728
 30
0.0
 10
-432.8583955144313
 20
405.9841490570778
 30
0.0
 10
-429.6046648438144
 20
405.9310983655851
 30
0.0
 10
-426.3508266016859
 20
405.8847485509679
 30
0.0
 10
-423.0970062880769
 20
405.8369465061782
 30
0.0
 10
-419.7706461808471
 20
405.7880821937615
 30
0.0
 10
-416.4442143589465
 20
405.7417682485549
 30
0.0
 10
-413.1178542517555
 20
405.693172867655
 30
0.0
 10
-409.7415087405404
 20
405.6438558620202
 30
0.0
 10
-406.365199086717
 20
405.5936737933564
 30
0.0
 10
-402.9888715040212
 20
405.5428373246841
 30
0.0
 10
-399.7840325832648
 20
405.4945780883153
 30
0.0
 10
-396.579211590869
 20
405.4437953779175
 30
0.0
 10
-393.3743547414801
 20
405.3963250073264
 30
0.0
 10
-389.9736261062322
 20
405.3459502084049
 30
0.0
 10
-386.5728974713019
 20
405.2974982697961
 30
0.0
 10
-383.1721329789025
 20
405.2494497284699
 30
0.0
 10
-379.7245385455848
 20
405.2007378303864
 30
0.0
 10
-376.2768903262574
 20
405.1538277734585
 30
0.0
 10
-372.8292779642474
 20
405.1055730589459
 30
0.0
 10
-369.2818382243343
 20
405.0559199168904
 30
0.0
 10
-365.7343626269206
 20
405.0064460625197
 30
0.0
 10
-362.1869408155518
 20
404.9553182793213
 30
0.0
 10
-358.8596484125403
 20
404.9073638520119
 30
0.0
 10
-355.5323918666032
 20
404.8565363397041
 30
0.0
 10
-352.2050994635862
 20
404.8084833041761
 30
0.0
 10
-348.7552101478308
 20
404.7586643050807
 30
0.0
 10
-345.3053387607192
 20
404.7079981717116
 30
0.0
 10
-341.8553777306187
 20
404.6625717206729
 30
0.0
 10
-337.916552994953
 20
404.6107089219586
 30
0.0
 10
-333.977692401261
 20
404.555865465658
 30
0.0
 10
-330.038724237735
 20
404.5179333193486
 30
0.0
 10
-326.6622352991191
 20
404.4854200511242
 30
0.0
 10
-323.2854774292348
 20
404.4543366021546
 30
0.0
 10
-319.9089884979978
 20
404.4669858993665
 30
0.0
 10
-318.8635620633702
 20
404.4709035058976
 30
0.0
 10
-317.8119322799024
 20
404.5037133223288
 30
0.0
 10
-316.786048253198
 20
404.8216263959827
 30
0.0
 10
-315.3269693671326
 20
405.273781187361
 30
0.0
 10
-314.178380945406
 20
406.1426184144207
 30
0.0
 10
-313.237694560897
 20
407.310202661019
 30
0.0
 10
-312.7469484353029
 20
407.9192833142741
 30
0.0
 10
-312.2936734388596
 20
408.5588428662268
 30
0.0
 10
-311.8302507585441
 20
409.1895949127746
 30
0.0
 10
-311.0260022830868
 20
410.2842135353905
 30
0.0
 10
-310.4997212697903
 20
410.4621700857975
 30
0.0
 10
-309.1799129115831
 20
410.0673519470602
 30
0.0
 10
-306.9814156132755
 20
409.4096578800447
 30
0.0
 10
-304.7821653071577
 20
408.7545993419769
 30
0.0
 10
-302.5855684571699
 20
408.0905091868148
 30
0.0
 10
-299.8759578274409
 20
407.2713173475013
 30
0.0
 10
-297.1678173558741
 20
406.4473788667387
 30
0.0
 10
-294.4609677548646
 20
405.6191419637467
 30
0.0
 10
-292.4322917487394
 20
404.9984125054544
 30
0.0
 10
-290.4079903595775
 20
404.3635058735083
 30
0.0
 10
-288.379386068466
 20
403.7424133576631
 30
0.0
 10
-285.650304794512
 20
402.9068480745743
 30
0.0
 10
-282.918641779408
 20
402.0796958660765
 30
0.0
 10
-280.1887716401089
 20
401.2467212900191
 30
0.0
 10
-277.3880470079586
 20
400.3921291140843
 30
0.0
 10
-274.5892945391747
 20
399.5310467239739
 30
0.0
 10
-271.786992176338
 20
398.6817256059556
 30
0.0
 10
-271.1574055442197
 20
398.490909835895
 30
0.0
 10
-270.4926785436022
 20
398.3972769560401
 30
0.0
 10
-269.8853235748921
 20
398.1554179811615
 30
0.0
 10
-267.7734221938527
 20
397.3144201806534
 30
0.0
 10
-265.5666418268941
 20
396.7910618879714
 30
0.0
 10
-263.3948942525662
 20
396.1505435758854
 30
0.0
 10
-262.9281366959283
 20
396.0128820927908
 30
0.0
 10
-262.4435220953774
 20
395.9275502028655
 30
0.0
 10
-261.988238945181
 20
395.760588629541
 30
0.0
 10
-261.1011234741349
 20
395.4352443943267
 30
0.0
 10
-260.2294267363144
 20
395.0678975364389
 30
0.0
 10
-259.3501999194312
 20
394.7208012227115
 30
0.0
 10
-259.0740610239699
 20
394.611789878994
 30
0.0
 10
-258.9233517703495
 20
394.405698720747
 30
0.0
 10
-258.8650832297794
 20
394.1238271292054
 30
0.0
 10
-258.5122806632675
 20
392.4171967690834
 30
0.0
 10
-257.5195645914498
 20
391.1128253064446
 30
0.0
 10
-256.2656264027307
 20
389.9686877641924
 30
0.0
 10
-255.4693738600404
 20
389.2422007869895
 30
0.0
 10
-254.7007316152394
 20
388.4905687088114
 30
0.0
 10
-254.1002253270429
 20
387.5834986707669
 30
0.0
 10
-253.6955370862473
 20
386.9722353363761
 30
0.0
 10
-253.4897505821791
 20
386.2975310255551
 30
0.0
 10
-253.4834753959748
 20
385.5780361386119
 30
0.0
 10
-253.4732199480692
 20
384.3976509073743
 30
0.0
 10
-254.0181826233229
 20
383.5231482883996
 30
0.0
 10
-255.0491942355262
 20
382.9480829010881
 30
0.0
 10
-256.2419233162008
 20
382.282826822239
 30
0.0
 10
-257.5561378033957
 20
382.0929161373352
 30
0.0
 10
-258.8794242817033
 20
382.1156137408207
 30
0.0
 10
-260.4168878176507
 20
382.1419687778826
 30
0.0
 10
-261.95431551486
 20
382.2833906450184
 30
0.0
 10
-263.4874044499965
 20
382.4228672416049
 30
0.0
 10
-267.0918756449303
 20
382.7508017397179
 30
0.0
 10
-270.691147507097
 20
383.1389231113145
 30
0.0
 10
-274.2974832899742
 20
383.4432185291291
 30
0.0
 10
-277.7845927670695
 20
383.7374290346702
 30
0.0
 10
-281.2801645994404
 20
383.8908897492646
 30
0.0
 10
-284.7822266157891
 20
383.8614680694994
 30
0.0
 10
-287.7945464186768
 20
383.8361611219154
 30
0.0
 10
-290.7935271869332
 20
383.6176268843435
 30
0.0
 10
-293.788922187775
 20
383.3139220371555
 30
0.0
 10
-297.5890678351003
 20
382.9286322017772
 30
0.0
 10
-301.3467939743479
 20
382.2736488876191
 30
0.0
 10
-305.0988904740528
 20
381.578684422759
 30
0.0
 10
-305.1951679528295
 20
381.5608721764791
 30
0.0
 10
-305.2922701555118
 20
381.5466546479545
 30
0.0
 10
-305.3874360499346
 20
381.5241898866781
 30
0.0
 10
-306.3506769776702
 20
381.2969694938697
 30
0.0
 10
-307.0294243026769
 20
381.5629874713371
 30
0.0
 10
-307.610316515169
 20
382.4454682079012
 30
0.0
 10
-308.7721009401589
 20
384.2104296810224
 30
0.0
 10
-310.2047531489355
 20
385.7537870608921
 30
0.0
 10
-311.9249827418359
 20
387.0081281788387
 30
0.0
 10
-314.0545261464341
 20
388.5608980477972
 30
0.0
 10
-316.4462238547994
 20
389.2862104300324
 30
0.0
 10
-319.0714257109894
 20
389.2733416281761
 30
0.0
 10
-324.5527340203401
 20
389.246465510005
 30
0.0
 10
-330.0340602592551
 20
389.2244570522109
 30
0.0
 10
-335.5153147808224
 20
389.1885358708238
 30
0.0
 10
-339.0633999444544
 20
389.1652771973754
 30
0.0
 10
-342.6114133901231
 20
389.1243945454603
 30
0.0
 10
-346.1593730497609
 20
389.0851568579786
 30
0.0
 10
-350.2450523044956
 20
389.0399801783762
 30
0.0
 10
-354.3306598435598
 20
388.9911729233656
 30
0.0
 10
-358.4162315243656
 20
388.937852101127
 30
0.0
 10
-361.8903784470461
 20
388.8925096803511
 30
0.0
 10
-365.3643640088709
 20
388.8352849689183
 30
0.0
 10
-368.8384930026651
 20
388.7891985042879
 30
0.0
 10
-372.8022924944442
 20
388.7366127814133
 30
0.0
 10
-376.7661816314665
 20
388.6925701162642
 30
0.0
 10
-380.7300169809583
 20
388.6410242619073
 30
0.0
 10
-384.20387704338
 20
388.5958521644753
 30
0.0
 10
-387.677683318776
 20
388.546157535425
 30
0.0
 10
-391.1514895942534
 20
388.4971038598308
 30
0.0
 10
-394.5277633745596
 20
388.4494307152682
 30
0.0
 10
-397.9040192259092
 20
388.4006459871085
 30
0.0
 10
-401.2802571483791
 20
388.3512203055383
 30
0.0
 10
-404.6565488571594
 20
388.30179014175
 30
0.0
 10
-408.0327688504398
 20
388.249773753257
 30
0.0
 10
-411.4090605593398
 20
388.2010741867431
 30
0.0
 10
-414.9076623201164
 20
388.1506130988428
 30
0.0
 10
-418.4063178675627
 20
388.1025141260529
 30
0.0
 10
-421.9049375573915
 20
388.0538503970905
 30
0.0
 10
-425.3544503530418
 20
388.0058679693183
 30
0.0
 10
-428.8039631490026
 20
387.9597815087097
 30
0.0
 10
-432.2534580156575
 20
387.9104320124181
 30
0.0
 10
-435.5564748518497
 20
387.863175723677
 30
0.0
 10
-438.8594020433461
 20
387.8106259663275
 30
0.0
 10
-442.1624368084636
 20
387.7642437049813
 30
0.0
 10
-448.7678429742791
 20
387.6714926290101
 30
0.0
 10
-455.3733567137618
 20
387.585290035354
 30
0.0
 10
-461.9787090926819
 20
387.4888904551765
 30
0.0
 10
-467.0408428092637
 20
387.4150096592071
 30
0.0
 10
-472.1028062006671
 20
387.3295648081829
 30
0.0
 10
-477.1648502724152
 20
387.2496375353713
 30
0.0
 10
-477.3103601493974
 20
387.2473381471556
 30
0.0
 10
-477.455941742158
 20
387.2493416631397
 30
0.0
 10
-477.629590820164
 20
387.2493416347625
 30
0.0
 10
-478.0675456693004
 20
386.5152212831206
 30
0.0
 10
-478.8103434479168
 20
386.3625173664192
 30
0.0
 10
-479.5638447016237
 20
386.2151293275465
 30
0.0
 10
-481.4819896931385
 20
385.8399426601949
 30
0.0
 10
-483.407342054106
 20
385.4947821951022
 30
0.0
 10
-485.3122556055267
 20
385.0605785093766
 30
0.0
 10
-487.5588376672417
 20
384.5485101303757
 30
0.0
 10
-489.2655664701191
 20
383.1830907731828
 30
0.0
 10
-490.662952251249
 20
381.4100340433556
 30
0.0
 10
-491.5164869105704
 20
380.3270377362438
 30
0.0
 10
-492.1405602162509
 20
379.1076573319478
 30
0.0
 10
-492.6177251885808
 20
377.8140428896605
 30
0.0
 10
-493.1749241437433
 20
376.3034455251404
 30
0.0
 10
-493.2912636639767
 20
374.7591600784412
 30
0.0
 10
-492.9054363311622
 20
373.1963722257041
 30
0.0
 10
-492.0738726491343
 20
369.8281216969669
 30
0.0
 10
-490.515019609869
 20
366.8418078219703
 30
0.0
 10
-488.0740981832415
 20
364.360179932972
 30
0.0
 10
-486.6693700487266
 20
362.9320283265633
 30
0.0
 10
-484.9490777478194
 20
361.9388645297668
 30
0.0
 10
-483.1523551328835
 20
361.0803009677643
 30
0.0
 10
-480.1747541517136
 20
359.6574386047764
 30
0.0
 10
-477.0182331283332
 20
358.8065039555543
 30
0.0
 10
-473.79373522012
 20
358.1839369939841
 30
0.0
 10
-472.6426455570479
 20
357.9616921796368
 30
0.0
 10
-471.4781451872396
 20
357.8091454513045
 30
0.0
 10
-470.3264818040311
 20
357.58951823711
 30
0.0
 10
-469.7768395604239
 20
357.4846798587351
 30
0.0
 10
-469.2327014397252
 20
357.3264585741047
 30
0.0
 10
-468.7042868436392
 20
357.1405731985896
 30
0.0
 10
-467.9351964582721
 20
356.8700282220739
 30
0.0
 10
-467.4636697796237
 20
356.3049314750298
 30
0.0
 10
-467.2456737667499
 20
355.5194094540253
 30
0.0
 10
-466.8367004096178
 20
354.0458441167251
 30
0.0
 10
-467.1306244165149
 20
352.7719244555176
 30
0.0
 10
-468.263632706535
 20
351.7028766838936
 30
0.0
 10
-469.8937518574907
 20
350.1647405571188
 30
0.0
 10
-471.8424473806208
 20
349.2493332256315
 30
0.0
 10
-474.0002910105128
 20
348.7563993383022
 30
0.0
 10
-477.9602177493034
 20
347.8518116894066
 30
0.0
 10
-481.9438464672907
 20
347.8562035865394
 30
0.0
 10
-485.9569680958112
 20
348.3986826146631
 30
0.0
 10
-491.1224612834274
 20
349.0969355512373
 30
0.0
 10
-496.0999356001768
 20
350.4949034937221
 30
0.0
 10
-500.9747319299416
 20
352.2888910347974
 30
0.0
 10
-503.9327904998759
 20
353.3774894589561
 30
0.0
 10
-506.8630325992949
 20
354.5414783551732
 30
0.0
 10
-509.8120012881786
 20
355.655096375922
 30
0.0
 10
-512.5228848938183
 20
356.6788106307482
 30
0.0
 10
-515.3153443405927
 20
357.38933619646
 30
0.0
 10
-518.2028799709348
 20
357.6671867996079
 30
0.0
 10
-520.4891564435951
 20
357.8871724037488
 30
0.0
 10
-522.743833386735
 20
357.6375318761093
 30
0.0
 10
-524.9671259698182
 20
357.0667602338073
 30
0.0
 10
-527.5606027651774
 20
356.4009839918159
 30
0.0
 10
-530.008220009995
 20
355.3545621100292
 30
0.0
 10
-532.4257706989179
 20
354.2301232011866
 30
0.0
 10
-537.1029644686352
 20
352.054690605544
 30
0.0
 10
-541.7688900039841
 20
349.8549197098105
 30
0.0
 10
-546.4540172561674
 20
347.6967794091652
 30
0.0
 10
-549.4966588622873
 20
346.2952423314653
 30
0.0
 10
-552.6034630699963
 20
345.0452391865472
 30
0.0
 10
-555.7935912608365
 20
344.0154640440799
 30
0.0
 10
-558.428631391337
 20
343.164878059508
 30
0.0
 10
-561.1254944407743
 20
342.5974948768878
 30
0.0
 10
-563.8774167747076
 20
342.2710115703135
 30
0.0
 10
-565.8727047933754
 20
342.034297726463
 30
0.0
 10
-567.8717623508338
 20
341.8919160923984
 30
0.0
 10
-569.8789595935142
 20
341.9010863290281
 30
0.0
 10
-574.6903191719902
 20
341.9230751762497
 30
0.0
 10
-579.2918226843462
 20
342.9116666665423
 30
0.0
 10
-583.6631971889913
 20
344.9421705912599
 30
0.0
 10
-585.6412917084025
 20
345.8609927113243
 30
0.0
 10
-587.5534442392265
 20
346.8925509324504
 30
0.0
 10
-589.3173796910463
 20
348.1827316495727
 30
0.0
 10
-592.0115852154073
 20
350.1533268715937
 30
0.0
 10
-594.2385805770639
 20
352.569604437864
 30
0.0
 10
-596.0820863824615
 20
355.3417053517804
 30
0.0
 10
-599.1209527175862
 20
359.9112815532566
 30
0.0
 10
-601.0448201089381
 20
364.9333710652555
 30
0.0
 10
-601.9473954881881
 20
370.3285046103276
 30
0.0
 10
-602.3704733550771
 20
372.8574378821991
 30
0.0
 10
-602.5951481244356
 20
375.4212784968748
 30
0.0
 10
-602.8618266327235
 20
377.9742990934736
 30
0.0
 10
-603.3504199289217
 20
382.6517889634898
 30
0.0
 10
-603.5000441049694
 20
387.346454648196
 30
0.0
 10
-603.481885272624
 20
392.0471175330567
 30
0.0
 10
-603.4746076213645
 20
393.9309200328344
 30
0.0
 10
-603.5041220426398
 20
395.8174880389971
 30
0.0
 10
-603.4112031504136
 20
397.6975748157054
 30
0.0
 10
-603.3231653490152
 20
399.4788651180802
 30
0.0
 10
-603.1245160156755
 20
401.2564486658362
 30
0.0
 10
-602.9243091199897
 20
403.0299892767691
 30
0.0
 10
-602.6719912163342
 20
405.2651687672274
 30
0.0
 10
-602.4111773180562
 20
407.5009354262116
 30
0.0
 10
-602.079139147758
 20
409.7252635431364
 30
0.0
 10
-601.2332910758792
 20
415.3916237692559
 30
0.0
 10
-600.1411118136575
 20
421.0012484507386
 30
0.0
 10
-598.1286466372073
 20
426.3948428392147
 30
0.0
 10
-596.4050025738736
 20
431.0143850529192
 30
0.0
 10
-594.0879386591976
 20
435.2867905664662
 30
0.0
 10
-590.9434598072111
 20
439.1048543526005
 30
0.0
 10
-587.2785537587033
 20
443.554823238458
 30
0.0
 10
-582.8807441815434
 20
447.0030851084466
 30
0.0
 10
-577.4536438291634
 20
449.0392706918817
 30
0.0
 10
-573.838254290029
 20
450.3957226155466
 30
0.0
 10
-570.1101733970476
 20
451.228982305711
 30
0.0
 10
-566.2267082394992
 20
451.3371897756554
 30
0.0
 10
-560.5057595626686
 20
451.4965976237413
 30
0.0
 10
-555.0510707993637
 20
450.3511065856497
 30
0.0
 10
-549.8088556815358
 20
448.1123254312556
 30
0.0
 10
-546.8866053165264
 20
446.8643234495971
 30
0.0
 10
-543.9560270417008
 20
445.6329223874849
 30
0.0
 10
-541.0649951318219
 20
444.315495730611
 30
0.0
 10
-537.5945681625915
 20
442.7340490170682
 30
0.0
 10
-534.1729253524092
 20
441.0458857889528
 30
0.0
 10
-530.7107904351234
 20
439.4458447010239
 30
0.0
 10
-526.1698008140291
 20
437.3472025229877
 30
0.0
 10
-521.4784157956823
 20
435.6724053985521
 30
0.0
 10
-516.5648307085237
 20
434.6811761893262
 30
0.0
 10
-512.2233167548876
 20
433.8053476399996
 30
0.0
 10
-507.865066442872
 20
433.8238060183127
 30
0.0
 10
-503.5043062212359
 20
434.5633549453008
 30
0.0
 10
-499.0113482357954
 20
435.3253238177067
 30
0.0
 10
-494.6304451141366
 20
436.4952214374432
 30
0.0
 10
-490.3263399231376
 20
438.0011086305331
 30
0.0
 10
-485.4797730080706
 20
439.6967898454341
 30
0.0
 10
-480.5453012997742
 20
441.1110252818618
 30
0.0
 10
-475.5348384649005
 20
442.2476976365692
 30
0.0
 10
-471.3920562317301
 20
443.1875243079429
 30
0.0
 10
-467.2074999051365
 20
443.729137371409
 30
0.0
 10
-462.9481984352952
 20
443.5891816257551
 30
0.0
 10
-459.1111373720513
 20
443.4631004360908
 30
0.0
 10
-455.3522277287412
 20
442.8609622719019
 30
0.0
 10
-451.7039205562188
 20
441.6703246211653
 30
0.0
 10
-448.8424173891547
 20
440.736458168389
 30
0.0
 10
-446.2970879508621
 20
439.2714227913218
 30
0.0
 10
-444.3796596571486
 20
436.8747995858897
 30
0.0
 10
-443.8426033157965
 20
436.2035085183081
 30
0.0
 10
-443.4264227163778
 20
435.4782227064343
 30
0.0
 10
-443.1696467702648
 20
434.637329934323
 30
0.0
 10
-442.5606420685622
 20
432.6427860203319
 30
0.0
 10
-444.1313809865978
 20
430.1570652346473
 30
0.0
 10
-446.0413684145221
 20
429.9388292407777
 30
0.0
 10
-447.6676689589567
 20
429.7530085049784
 30
0.0
 10
-449.2926606989474
 20
429.5402072153306
 30
0.0
 10
-450.9241605964601
 20
429.4185490555014
 30
0.0
 10
-456.6630335147532
 20
428.9906086064682
 30
0.0
 10
-461.7753853958897
 20
426.9991363001607
 30
0.0
 10
-466.1947184189621
 20
423.3090075086987
 30
0.0
 10
-469.0780403501508
 20
420.9014469706331
 30
0.0
 10
-470.8337950830376
 20
417.7929166279221
 30
0.0
 10
-471.5972103703459
 20
414.1273979083638
 30
0.0
 10
-471.8363171910512
 20
412.9793068288991
 30
0.0
 10
-471.7556196219401
 20
411.8384500594039
 30
0.0
 10
-471.2475002440816
 20
410.7551715966954
 30
0.0
 10
-470.9025596008303
 20
410.0197829126699
 30
0.0
 10
-470.3991466095832
 20
409.4575727024075
 30
0.0
 10
-469.6148795179928
 20
409.1594443195048
 30
0.0
 10
-468.4040959844941
 20
408.6991906436372
 30
0.0
 10
-467.2032808414606
 20
408.2126668394995
 30
0.0
 10
-465.9995433106035
 20
407.7340048003917
 30
0.0
 10
-465.7726906001765
 20
407.6437962435814
 30
0.0
 10
-465.5459096042118
 20
407.5498585031089
 30
0.0
 10
-465.3297603643421
 20
407.4371538234724
 30
0.0
 10
-464.9879304532865
 20
407.2588926258743
 30
0.0
 10
-464.7186761835492
 20
407.0213185711956
 30
0.0
 10
-464.819955700322
 20
406.4640072978574
 30
0.0
  0
ENDBLK
  5
48
330
45
100
AcDbEntity
  8
0
100
AcDbBlockEnd
  0
BLOCK
  5
4C
330
4A
100
AcDbEntity
  8
0
100
AcDbBlockBegin
  2
block 4
 70
     0
 10
0.0
 20
0.0
 30
0.0
  3
block 4
  1

  0
SPLINE
  5
4E
330
4A
100
AcDbEntity
  8
_U+56FE_U+5C42 1
370
     0
100
AcDbSpline
210
0.0
220
0.0
230
1.0
 70
    11
 71
     3
 72
   182
 73
   178
 74
     0
 42
0.0000000001
 43
0.0000000001
 12
1.0
 22
0.0
 32
0.0
 13
1.0
 23
0.0
 33
0.0
 40
0.0
 40
0.0
 40
0.0
 40
0.0
 40
1.0
 40
1.0
 40
1.0
 40
2.0
 40
2.0
 40
2.0
 40
3.0
 40
3.0
 40
3.0
 40
4.0
 40
4.0
 40
4.0
 40
5.0
 40
5.0
 40
5.0
 40
6.0
 40
6.0
 40
6.0
 40
7.0
 40
7.0
 40
7.0
 40
8.0
 40
8.0
 40
8.0
 40
9.0
 40
9.0
 40
9.0
 40
10.0
 40
10.0
 40
10.0
 40
11.0
 40
11.0
 40
11.0
 40
12.0
 40
12.0
 40
12.0
 40
13.0
 40
13.0
 40
13.0
 40
14.0
 40
14.0
 40
14.0
 40
15.0
 40
15.0
 40
15.0
 40
16.0
 40
16.0
 40
16.0
 40
17.0
 40
17.0
 40
17.0
 40
18.0
 40
18.0
 40
18.0
 40
19.0
 40
19.0
 40
19.0
 40
20.0
 40
20.0
 40
20.0
 40
21.0
 40
21.0
 40
21.0
 40
22.0
 40
22.0
 40
22.0
 40
23.0
 40
23.0
 40
23.0
 40
24.0
 40
24.0
 40
24.0
 40
25.0
 40
25.0
 40
25.0
 40
26.0
 40
26.0
 40
26.0
 40
27.0
 40
27.0
 40
27.0
 40
28.0
 40
28.0
 40
28.0
 40
29.0
 40
29.0
 40
29.0
 40
30.0
 40
30.0
 40
30.0
 40
31.0
 40
31.0
 40
31.0
 40
32.0
 40
32.0
 40
32.0
 40
33.0
 40
33.0
 40
33.0
 40
34.0
 40
34.0
 40
34.0
 40
35.0
 40
35.0
 40
35.0
 40
36.0
 40
36.0
 40
36.0
 40
37.0
 40
37.0
 40
37.0
 40
38.0
 40
38.0
 40
38.0
 40
39.0
 40
39.0
 40
39.0
 40
40.0
 40
40.0
 40
40.0
 40
41.0
 40
41.0
 40
41.0
 40
42.0
 40
42.0
 40
42.0
 40
43.0
 40
43.0
 40
43.0
 40
44.0
 40
44.0
 40
44.0
 40
45.0
 40
45.0
 40
45.0
 40
46.0
 40
46.0
 40
46.0
 40
47.0
 40
47.0
 40
47.0
 40
48.0
 40
48.0
 40
48.0
 40
49.0
 40
49.0
 40
49.0
 40
50.0
 40
50.0
 40
50.0
 40
51.0
 40
51.0
 40
51.0
 40
52.0
 40
52.0
 40
52.0
 40
53.0
 40
53.0
 40
53.0
 40
54.0
 40
54.0
 40
54.0
 40
55.0
 40
55.0
 40
55.0
 40
56.0
 40
56.0
 40
56.0
 40
57.0
 40
57.0
 40
57.0
 40
58.0
 40
58.0
 40
58.0
 40
59.0
 40
59.0
 40
59.0
 40
59.0
 10
-492.2380165756272
 20
406.9135711460754
 30
0.0
 10
-492.2380165096333
 20
406.5096629065496
 30
0.0
 10
-492.2348968526956
 20
406.1951833600142
 30
0.0
 10
-492.2384915192133
 20
405.8807755274614
 30
0.0
 10
-492.2946167225021
 20
400.9633045327249
 30
0.0
 10
-492.3668150659022
 20
396.0459500723596
 30
0.0
 10
-492.3988440055791
 20
391.1283266870389
 30
0.0
 10
-492.4080591609674
 20
389.7138051951058
 30
0.0
 10
-492.302055091637
 20
388.29853071377
 30
0.0
 10
-492.2475693302331
 20
386.848994349248
 30
0.0
 10
-492.0906119303618
 20
386.8218188454925
 30
0.0
 10
-491.9771586857132
 20
386.7994347977537
 30
0.0
 10
-491.8628807186966
 20
386.7828551886453
 30
0.0
 10
-491.2624821370886
 20
386.6957662984242
 30
0.0
 10
-491.0389820561596
 20
386.2993926599757
 30
0.0
 10
-491.3028306740222
 20
385.7507275082144
 30
0.0
 10
-491.3855988012462
 20
385.5786337372634
 30
0.0
 10
-491.5085004756875
 20
385.4131377462107
 30
0.0
 10
-491.648837882401
 20
385.2833334462893
 30
0.0
 10
-493.8752408634411
 20
383.2240572538049
 30
0.0
 10
-494.9088607683197
 20
380.5498110830021
 30
0.0
 10
-495.4504614721707
 20
377.6710605056682
 30
0.0
 10
-496.1585127093045
 20
373.9075790093229
 30
0.0
 10
-495.7588798810399
 20
370.2368252796866
 30
0.0
 10
-494.3741150761852
 20
366.6482392526576
 30
0.0
 10
-493.4449652693594
 20
364.2403790306851
 30
0.0
 10
-492.1710990857667
 20
362.0572649305406
 30
0.0
 10
-490.4470864181236
 20
360.161575940763
 30
0.0
 10
-489.5813867575274
 20
359.2096750628236
 30
0.0
 10
-488.5288693668053
 20
358.4269321371585
 30
0.0
 10
-487.5546468925799
 20
357.5747600463872
 30
0.0
 10
-487.0401629057185
 20
357.1247391008167
 30
0.0
 10
-486.472529096284
 20
356.7285941103779
 30
0.0
 10
-485.9985910109782
 20
356.2404476340072
 30
0.0
 10
-484.8666311886805
 20
355.0745938521375
 30
0.0
 10
-485.330699157969
 20
353.5462918448886
 30
0.0
 10
-486.9114337066721
 20
353.1582682351017
 30
0.0
 10
-487.7315313585983
 20
352.9569638991635
 30
0.0
 10
-488.5644481213627
 20
353.0129821972424
 30
0.0
 10
-489.3945679985923
 20
353.0825008577459
 30
0.0
 10
-490.7418700757543
 20
353.1953263717329
 30
0.0
 10
-492.0362375083798
 20
353.5629645030345
 30
0.0
 10
-493.3431729993506
 20
353.8834768667965
 30
0.0
 10
-496.6307801993116
 20
354.6897240415026
 30
0.0
 10
-499.7654371579431
 20
355.9522494107138
 30
0.0
 10
-502.9523743770839
 20
357.057880126644
 30
0.0
 10
-505.9392623966613
 20
358.0941175804912
 30
0.0
 10
-508.9965387149357
 20
358.8692314880118
 30
0.0
 10
-512.087153553287
 20
359.5024750525274
 30
0.0
 10
-515.3689787038426
 20
360.1748839784937
 30
0.0
 10
-518.6931604638896
 20
360.2118973759109
 30
0.0
 10
-522.0247019356004
 20
359.9587426338862
 30
0.0
 10
-524.9154736271852
 20
359.7390968304056
 30
0.0
 10
-527.6151603967492
 20
358.7997992934757
 30
0.0
 10
-530.289944093203
 20
357.7687064708021
 30
0.0
 10
-531.7273650114267
 20
357.2145997463346
 30
0.0
 10
-533.1871700035371
 20
356.7070450631279
 30
0.0
 10
-534.585766161578
 20
356.0668175101264
 30
0.0
 10
-536.2296816275134
 20
355.3142661884087
 30
0.0
 10
-537.8157947263477
 20
354.4359087142944
 30
0.0
 10
-539.4314723732294
 20
353.6210101080607
 30
0.0
 10
-540.741760383378
 20
352.9601375936732
 30
0.0
 10
-542.057839387316
 20
352.3107305251694
 30
0.0
 10
-543.3730488457629
 20
351.659647117044
 30
0.0
 10
-543.9651194527288
 20
351.3665564929404
 30
0.0
 10
-544.5711296808324
 20
351.1002066233463
 30
0.0
 10
-545.1538414683201
 20
350.7898416332477
 30
0.0
 10
-547.1892180727584
 20
349.7057604425871
 30
0.0
 10
-549.3129073377027
 20
348.828541357375
 30
0.0
 10
-551.4905084279193
 20
348.0815478663937
 30
0.0
 10
-553.6650436990525
 20
347.3356032088028
 30
0.0
 10
-555.8320668117968
 20
346.5603001955919
 30
0.0
 10
-558.0334280156186
 20
345.9016238096266
 30
0.0
 10
-561.9057054505828
 20
344.7429765746161
 30
0.0
 10
-565.85994882293
 20
344.1619762875989
 30
0.0
 10
-569.9148892700263
 20
344.5103764002604
 30
0.0
 10
-570.9451748755675
 20
344.5989084860303
 30
0.0
 10
-571.9333547990603
 20
344.861977130682
 30
0.0
 10
-572.8984290413094
 20
345.2347519076837
 30
0.0
 10
-574.8290347094139
 20
345.9804986780645
 30
0.0
 10
-576.0312261991251
 20
348.3872741649753
 30
0.0
 10
-575.7199338160491
 20
350.3795547224384
 30
0.0
 10
-575.4254272240383
 20
352.2643881732798
 30
0.0
 10
-574.419865632296
 20
353.6653063756432
 30
0.0
 10
-573.0612417567236
 20
354.8883891904557
 30
0.0
 10
-570.9298119165805
 20
356.8071889915647
 30
0.0
 10
-568.5105132408418
 20
358.3478800966612
 30
0.0
 10
-566.2304583680577
 20
360.0712294627074
 30
0.0
 10
-563.7235956495153
 20
361.9660047766465
 30
0.0
 10
-561.4144065926342
 20
364.0759163043859
 30
0.0
 10
-559.3082698271173
 20
366.3974948285267
 30
0.0
 10
-557.7620394066538
 20
368.1019023317647
 30
0.0
 10
-556.4762826365599
 20
370.0104915615679
 30
0.0
 10
-555.2928498362586
 20
371.9879182776343
 30
0.0
 10
-554.2074156525708
 20
373.8015746505806
 30
0.0
 10
-553.3232318985357
 20
375.7009394638694
 30
0.0
 10
-552.6689442663254
 20
377.7096069709094
 30
0.0
 10
-552.3873551846006
 20
378.5741142589366
 30
0.0
 10
-552.2315095173429
 20
379.4589796419565
 30
0.0
 10
-552.1512649839725
 20
380.3644272377613
 30
0.0
 10
-552.043930132802
 20
381.5756051464837
 30
0.0
 10
-551.7557881329943
 20
382.7243730449212
 30
0.0
 10
-550.8651543434529
 20
383.6361585924741
 30
0.0
 10
-550.1051719433281
 20
384.4141775840541
 30
0.0
 10
-549.8164427430359
 20
385.3589205901843
 30
0.0
 10
-549.8184643883833
 20
386.4409799793955
 30
0.0
 10
-549.8317104251445
 20
393.5386563285562
 30
0.0
 10
-549.8305282862356
 20
400.6363730197962
 30
0.0
 10
-549.8209599663014
 20
407.7340628192555
 30
0.0
 10
-549.8195079124511
 20
408.8131325870511
 30
0.0
 10
-550.1124506806914
 20
409.7508070815355
 30
0.0
 10
-550.8737511008247
 20
410.5369789315853
 30
0.0
 10
-551.311195173854
 20
410.9887120870455
 30
0.0
 10
-551.4196598260304
 20
411.5441542520975
 30
0.0
 10
-551.3291913665952
 20
412.1658029059942
 30
0.0
 10
-551.1059157107456
 20
413.700111011021
 30
0.0
 10
-550.4395843223116
 20
415.0562206856775
 30
0.0
 10
-549.66910919847
 20
416.369700250328
 30
0.0
 10
-549.3974705171387
 20
416.8327689849293
 30
0.0
 10
-549.0930087420203
 20
417.2799035327474
 30
0.0
 10
-548.7695424703153
 20
417.7086745435101
 30
0.0
 10
-547.247359060503
 20
419.7264051843522
 30
0.0
 10
-545.1634089575505
 20
420.9018872398573
 30
0.0
 10
-542.7850773760059
 20
421.5879946690868
 30
0.0
 10
-540.7727615665416
 20
422.168510562073
 30
0.0
 10
-538.7094114424857
 20
422.2729280413696
 30
0.0
 10
-536.6151162462468
 20
422.2586570846189
 30
0.0
 10
-533.6585728317538
 20
422.2385011508016
 30
0.0
 10
-530.8596052301452
 20
421.4532126255061
 30
0.0
 10
-528.0514132848007
 20
420.7117689027322
 30
0.0
 10
-526.0201286567925
 20
420.1754436002509
 30
0.0
 10
-524.0351809002112
 20
419.4660922368615
 30
0.0
 10
-522.0191536434501
 20
418.8690197852702
 30
0.0
 10
-518.7102560036542
 20
417.8890383743869
 30
0.0
 10
-515.343089909068
 20
417.1521710608649
 30
0.0
 10
-511.9395194811702
 20
416.5938249738811
 30
0.0
 10
-509.7697351533816
 20
416.2378765420619
 30
0.0
 10
-507.5961409587993
 20
415.8592930418355
 30
0.0
 10
-505.4087416441507
 20
415.6701000797888
 30
0.0
 10
-503.4163893943297
 20
415.4977735739298
 30
0.0
 10
-501.4120965796758
 20
415.2908938527829
 30
0.0
 10
-499.401869402009
 20
415.4452832807249
 30
0.0
 10
-496.4977318147667
 20
415.6683176234545
 30
0.0
 10
-493.6105727933855
 20
416.0321420927083
 30
0.0
 10
-490.7728882542698
 20
416.6911502648513
 30
0.0
 10
-488.7023935778469
 20
417.1720001485899
 30
0.0
 10
-486.6576087721118
 20
417.7631567704193
 30
0.0
 10
-484.5991712004589
 20
418.2966679246545
 30
0.0
 10
-484.2459117441934
 20
418.3882212338166
 30
0.0
 10
-483.883849262684
 20
418.4774034649099
 30
0.0
 10
-483.5220019150294
 20
418.4971386149051
 30
0.0
 10
-482.8853603497327
 20
418.5318577772685
 30
0.0
 10
-482.5278427576663
 20
418.295973523361
 30
0.0
 10
-482.4050395630787
 20
417.6758264385898
 30
0.0
 10
-482.3073456281257
 20
417.182404360895
 30
0.0
 10
-482.3023075585316
 20
416.6565894673001
 30
0.0
 10
-482.3432298880305
 20
416.152221854363
 30
0.0
 10
-482.5130418678395
 20
414.0595357396082
 30
0.0
 10
-482.2803530290083
 20
412.0441181965224
 30
0.0
 10
-481.242501194031
 20
410.18358292559
 30
0.0
 10
-480.9711492178281
 20
409.6971396490237
 30
0.0
 10
-480.610583702167
 20
409.2586199826766
 30
0.0
 10
-480.2733166185176
 20
408.8114272712259
 30
0.0
 10
-480.0381628525129
 20
408.4996191489711
 30
0.0
 10
-479.7500833710585
 20
408.2265282088748
 30
0.0
 10
-479.5264129794925
 20
407.9075440955376
 30
0.0
 10
-479.2011492029795
 20
407.4436686639286
 30
0.0
 10
-479.3754257223233
 20
407.0426155521582
 30
0.0
 10
-479.9454170864572
 20
406.9599683228591
 30
0.0
 10
-480.3304463246442
 20
406.9041425600118
 30
0.0
 10
-480.7265017653725
 20
406.9126228023414
 30
0.0
 10
-481.1176357579781
 20
406.9123717356886
 30
0.0
 10
-484.5196462915169
 20
406.9102017989394
 30
0.0
 10
-487.9216568257964
 20
406.912563358178
 30
0.0
 10
-491.323667359854
 20
406.9135623310868
 30
0.0
 10
-491.5909673551192
 20
406.9136384846789
 30
0.0
 10
-491.8582583859838
 20
406.9135712081152
 30
0.0
 10
-492.2380165756272
 20
406.9135711460754
 30
0.0
  0
HATCH
  5
4F
330
4A
100
AcDbEntity
  8
_U+56FE_U+5C42 1
 62
     7
100
AcDbHatch
 10
0.0
 20
0.0
 30
0.0
210
0.0
220
0.0
230
1.0
  2
SOLID
 70
     1
 71
     0
 91
        1
 92
        1
 93
        1
 72
     4
 94
        3
 73
     0
 74
     1
 95
      182
 96
      178
 40
0.0
 40
0.0
 40
0.0
 40
0.0
 40
1.0
 40
1.0
 40
1.0
 40
2.0
 40
2.0
 40
2.0
 40
3.0
 40
3.0
 40
3.0
 40
4.0
 40
4.0
 40
4.0
 40
5.0
 40
5.0
 40
5.0
 40
6.0
 40
6.0
 40
6.0
 40
7.0
 40
7.0
 40
7.0
 40
8.0
 40
8.0
 40
8.0
 40
9.0
 40
9.0
 40
9.0
 40
10.0
 40
10.0
 40
10.0
 40
11.0
 40
11.0
 40
11.0
 40
12.0
 40
12.0
 40
12.0
 40
13.0
 40
13.0
 40
13.0
 40
14.0
 40
14.0
 40
14.0
 40
15.0
 40
15.0
 40
15.0
 40
16.0
 40
16.0
 40
16.0
 40
17.0
 40
17.0
 40
17.0
 40
18.0
 40
18.0
 40
18.0
 40
19.0
 40
19.0
 40
19.0
 40
20.0
 40
20.0
 40
20.0
 40
21.0
 40
21.0
 40
21.0
 40
22.0
 40
22.0
 40
22.0
 40
23.0
 40
23.0
 40
23.0
 40
24.0
 40
24.0
 40
24.0
 40
25.0
 40
25.0
 40
25.0
 40
26.0
 40
26.0
 40
26.0
 40
27.0
 40
27.0
 40
27.0
 40
28.0
 40
28.0
 40
28.0
 40
29.0
 40
29.0
 40
29.0
 40
30.0
 40
30.0
 40
30.0
 40
31.0
 40
31.0
 40
31.0
 40
32.0
 40
32.0
 40
32.0
 40
33.0
 40
33.0
 40
33.0
 40
34.0
 40
34.0
 40
34.0
 40
35.0
 40
35.0
 40
35.0
 40
36.0
 40
36.0
 40
36.0
 40
37.0
 40
37.0
 40
37.0
 40
38.0
 40
38.0
 40
38.0
 40
39.0
 40
39.0
 40
39.0
 40
40.0
 40
40.0
 40
40.0
 40
41.0
 40
41.0
 40
41.0
 40
42.0
 40
42.0
 40
42.0
 40
43.0
 40
43.0
 40
43.0
 40
44.0
 40
44.0
 40
44.0
 40
45.0
 40
45.0
 40
45.0
 40
46.0
 40
46.0
 40
46.0
 40
47.0
 40
47.0
 40
47.0
 40
48.0
 40
48.0
 40
48.0
 40
49.0
 40
49.0
 40
49.0
 40
50.0
 40
50.0
 40
50.0
 40
51.0
 40
51.0
 40
51.0
 40
52.0
 40
52.0
 40
52.0
 40
53.0
 40
53.0
 40
53.0
 40
54.0
 40
54.0
 40
54.0
 40
55.0
 40
55.0
 40
55.0
 40
56.0
 40
56.0
 40
56.0
 40
57.0
 40
57.0
 40
57.0
 40
58.0
 40
58.0
 40
58.0
 40
59.0
 40
59.0
 40
59.0
 40
59.0
 10
-492.2380165756272
 20
406.9135711460754
 10
-492.2380165096333
 20
406.5096629065496
 10
-492.2348968526956
 20
406.1951833600142
 10
-492.2384915192133
 20
405.8807755274614
 10
-492.2946167225021
 20
400.9633045327249
 10
-492.3668150659022
 20
396.0459500723596
 10
-492.3988440055791
 20
391.1283266870389
 10
-492.4080591609674
 20
389.7138051951058
 10
-492.302055091637
 20
388.29853071377
 10
-492.2475693302331
 20
386.848994349248
 10
-492.0906119303618
 20
386.8218188454925
 10
-491.9771586857132
 20
386.7994347977537
 10
-491.8628807186966
 20
386.7828551886453
 10
-491.2624821370886
 20
386.6957662984242
 10
-491.0389820561596
 20
386.2993926599757
 10
-491.3028306740222
 20
385.7507275082144
 10
-491.3855988012462
 20
385.5786337372634
 10
-491.5085004756875
 20
385.4131377462107
 10
-491.648837882401
 20
385.2833334462893
 10
-493.8752408634411
 20
383.2240572538049
 10
-494.9088607683197
 20
380.5498110830021
 10
-495.4504614721707
 20
377.6710605056682
 10
-496.1585127093045
 20
373.9075790093229
 10
-495.7588798810399
 20
370.2368252796866
 10
-494.3741150761852
 20
366.6482392526576
 10
-493.4449652693594
 20
364.2403790306851
 10
-492.1710990857667
 20
362.0572649305406
 10
-490.4470864181236
 20
360.161575940763
 10
-489.5813867575274
 20
359.2096750628236
 10
-488.5288693668053
 20
358.4269321371585
 10
-487.5546468925799
 20
357.5747600463872
 10
-487.0401629057185
 20
357.1247391008167
 10
-486.472529096284
 20
356.7285941103779
 10
-485.9985910109782
 20
356.2404476340072
 10
-484.8666311886805
 20
355.0745938521375
 10
-485.330699157969
 20
353.5462918448886
 10
-486.9114337066721
 20
353.1582682351017
 10
-487.7315313585983
 20
352.9569638991635
 10
-488.5644481213627
 20
353.0129821972424
 10
-489.3945679985923
 20
353.0825008577459
 10
-490.7418700757543
 20
353.1953263717329
 10
-492.0362375083798
 20
353.5629645030345
 10
-493.3431729993506
 20
353.8834768667965
 10
-496.6307801993116
 20
354.6897240415026
 10
-499.7654371579431
 20
355.9522494107138
 10
-502.9523743770839
 20
357.057880126644
 10
-505.9392623966613
 20
358.0941175804912
 10
-508.9965387149357
 20
358.8692314880118
 10
-512.087153553287
 20
359.5024750525274
 10
-515.3689787038426
 20
360.1748839784937
 10
-518.6931604638896
 20
360.2118973759109
 10
-522.0247019356004
 20
359.9587426338862
 10
-524.9154736271852
 20
359.7390968304056
 10
-527.6151603967492
 20
358.7997992934757
 10
-530.289944093203
 20
357.7687064708021
 10
-531.7273650114267
 20
357.2145997463346
 10
-533.1871700035371
 20
356.7070450631279
 10
-534.585766161578
 20
356.0668175101264
 10
-536.2296816275134
 20
355.3142661884087
 10
-537.8157947263477
 20
354.4359087142944
 10
-539.4314723732294
 20
353.6210101080607
 10
-540.741760383378
 20
352.9601375936732
 10
-542.057839387316
 20
352.3107305251694
 10
-543.3730488457629
 20
351.659647117044
 10
-543.9651194527288
 20
351.3665564929404
 10
-544.5711296808324
 20
351.1002066233463
 10
-545.1538414683201
 20
350.7898416332477
 10
-547.1892180727584
 20
349.7057604425871
 10
-549.3129073377027
 20
348.828541357375
 10
-551.4905084279193
 20
348.0815478663937
 10
-553.6650436990525
 20
347.3356032088028
 10
-555.8320668117968
 20
346.5603001955919
 10
-558.0334280156186
 20
345.9016238096266
 10
-561.9057054505828
 20
344.7429765746161
 10
-565.85994882293
 20
344.1619762875989
 10
-569.9148892700263
 20
344.5103764002604
 10
-570.9451748755675
 20
344.5989084860303
 10
-571.9333547990603
 20
344.861977130682
 10
-572.8984290413094
 20
345.2347519076837
 10
-574.8290347094139
 20
345.9804986780645
 10
-576.0312261991251
 20
348.3872741649753
 10
-575.7199338160491
 20
350.3795547224384
 10
-575.4254272240383
 20
352.2643881732798
 10
-574.419865632296
 20
353.6653063756432
 10
-573.0612417567236
 20
354.8883891904557
 10
-570.9298119165805
 20
356.8071889915647
 10
-568.5105132408418
 20
358.3478800966612
 10
-566.2304583680577
 20
360.0712294627074
 10
-563.7235956495153
 20
361.9660047766465
 10
-561.4144065926342
 20
364.0759163043859
 10
-559.3082698271173
 20
366.3974948285267
 10
-557.7620394066538
 20
368.1019023317647
 10
-556.4762826365599
 20
370.0104915615679
 10
-555.2928498362586
 20
371.9879182776343
 10
-554.2074156525708
 20
373.8015746505806
 10
-553.3232318985357
 20
375.7009394638694
 10
-552.6689442663254
 20
377.7096069709094
 10
-552.3873551846006
 20
378.5741142589366
 10
-552.2315095173429
 20
379.4589796419565
 10
-552.1512649839725
 20
380.3644272377613
 10
-552.043930132802
 20
381.5756051464837
 10
-551.7557881329943
 20
382.7243730449212
 10
-550.8651543434529
 20
383.6361585924741
 10
-550.1051719433281
 20
384.4141775840541
 10
-549.8164427430359
 20
385.3589205901843
 10
-549.8184643883833
 20
386.4409799793955
 10
-549.8317104251445
 20
393.5386563285562
 10
-549.8305282862356
 20
400.6363730197962
 10
-549.8209599663014
 20
407.7340628192555
 10
-549.8195079124511
 20
408.8131325870511
 10
-550.1124506806914
 20
409.7508070815355
 10
-550.8737511008247
 20
410.5369789315853
 10
-551.311195173854
 20
410.9887120870455
 10
-551.4196598260304
 20
411.5441542520975
 10
-551.3291913665952
 20
412.1658029059942
 10
-551.1059157107456
 20
413.700111011021
 10
-550.4395843223116
 20
415.0562206856775
 10
-549.66910919847
 20
416.369700250328
 10
-549.3974705171387
 20
416.8327689849293
 10
-549.0930087420203
 20
417.2799035327474
 10
-548.7695424703153
 20
417.7086745435101
 10
-547.247359060503
 20
419.7264051843522
 10
-545.1634089575505
 20
420.9018872398573
 10
-542.7850773760059
 20
421.5879946690868
 10
-540.7727615665416
 20
422.168510562073
 10
-538.7094114424857
 20
422.2729280413696
 10
-536.6151162462468
 20
422.2586570846189
 10
-533.6585728317538
 20
422.2385011508016
 10
-530.8596052301452
 20
421.4532126255061
 10
-528.0514132848007
 20
420.7117689027322
 10
-526.0201286567925
 20
420.1754436002509
 10
-524.0351809002112
 20
419.4660922368615
 10
-522.0191536434501
 20
418.8690197852702
 10
-518.7102560036542
 20
417.8890383743869
 10
-515.343089909068
 20
417.1521710608649
 10
-511.9395194811702
 20
416.5938249738811
 10
-509.7697351533816
 20
416.2378765420619
 10
-507.5961409587993
 20
415.8592930418355
 10
-505.4087416441507
 20
415.6701000797888
 10
-503.4163893943297
 20
415.4977735739298
 10
-501.4120965796758
 20
415.2908938527829
 10
-499.401869402009
 20
415.4452832807249
 10
-496.4977318147667
 20
415.6683176234545
 10
-493.6105727933855
 20
416.0321420927083
 10
-490.7728882542698
 20
416.6911502648513
 10
-488.7023935778469
 20
417.1720001485899
 10
-486.6576087721118
 20
417.7631567704193
 10
-484.5991712004589
 20
418.2966679246545
 10
-484.2459117441934
 20
418.3882212338166
 10
-483.883849262684
 20
418.4774034649099
 10
-483.5220019150294
 20
418.4971386149051
 10
-482.8853603497327
 20
418.5318577772685
 10
-482.5278427576663
 20
418.295973523361
 10
-482.4050395630787
 20
417.6758264385898
 10
-482.3073456281257
 20
417.182404360895
 10
-482.3023075585316
 20
416.6565894673001
 10
-482.3432298880305
 20
416.152221854363
 10
-482.5130418678395
 20
414.0595357396082
 10
-482.2803530290083
 20
412.0441181965224
 10
-481.242501194031
 20
410.18358292559
 10
-480.9711492178281
 20
409.6971396490237
 10
-480.610583702167
 20
409.2586199826766
 10
-480.2733166185176
 20
408.8114272712259
 10
-480.0381628525129
 20
408.4996191489711
 10
-479.7500833710585
 20
408.2265282088748
 10
-479.5264129794925
 20
407.9075440955376
 10
-479.2011492029795
 20
407.4436686639286
 10
-479.3754257223233
 20
407.0426155521582
 10
-479.9454170864572
 20
406.9599683228591
 10
-480.3304463246442
 20
406.9041425600118
 10
-480.7265017653725
 20
406.9126228023414
 10
-481.1176357579781
 20
406.9123717356886
 10
-484.5196462915169
 20
406.9102017989394
 10
-487.9216568257964
 20
406.912563358178
 10
-491.323667359854
 20
406.9135623310868
 10
-491.5909673551192
 20
406.9136384846789
 10
-491.8582583859838
 20
406.9135712081152
 10
-492.2380165756272
 20
406.9135711460754
 97
        0
 75
     2
 76
     1
 98
        0
  0
ENDBLK
  5
4D
330
4A
100
AcDbEntity
  8
0
100
AcDbBlockEnd
  0
ENDSEC
  0
SECTION
  2
ENTITIES
  0
INSERT
  5
42
330
1F
100
AcDbEntity
  8
_U+56FE_U+5C42 1
100
AcDbBlockReference
  2
block 2
 10
0.0
 20
0.0
 30
0.0
  0
ENDSEC
  0
SECTION
  2
OBJECTS
  0
DICTIONARY
  5
C
330
0
100
AcDbDictionary
281
     1
  3
ACAD_GROUP
350
D
  3
ACAD_LAYOUT
350
1A
  3
ACAD_MATERIAL
350
3B
  3
ACAD_MLEADERSTYLE
350
77
  3
ACAD_MLINESTYLE
350
17
  3
ACAD_PLOTSETTINGS
350
19
  3
ACAD_PLOTSTYLENAME
350
E
  3
ACAD_TABLESTYLE
350
76
  3
ACAD_VISUALSTYLE
350
2A
  0
DICTIONARY
  5
D
102
{ACAD_REACTORS
330
C
102
}
330
C
100
AcDbDictionary
281
     1
  0
DICTIONARY
  5
1A
102
{ACAD_REACTORS
330
C
102
}
330
C
100
AcDbDictionary
281
     1
  3
Layout1
350
1E
  3
Layout2
350
26
  3
Model
350
22
  0
DICTIONARY
  5
3B
102
{ACAD_REACTORS
330
C
102
}
330
C
100
AcDbDictionary
281
     1
  3
ByBlock
350
3D
  3
ByLayer
350
3C
  3
Global
350
3E
  0
DICTIONARY
  5
77
102
{ACAD_REACTORS
330
C
102
}
330
C
100
AcDbDictionary
281
     1
  0
DICTIONARY
  5
17
102
{ACAD_REACTORS
330
C
102
}
330
C
100
AcDbDictionary
281
     1
  3
Standard
350
18
  0
DICTIONARY
  5
19
102
{ACAD_REACTORS
330
C
102
}
330
C
100
AcDbDictionary
281
     1
  0
ACDBDICTIONARYWDFLT
  5
E
102
{ACAD_REACTORS
330
C
102
}
330
C
100
AcDbDictionary
281
     1
  3
Normal
350
F
100
AcDbDictionaryWithDefault
340
F
  0
DICTIONARY
  5
76
102
{ACAD_REACTORS
330
C
102
}
330
C
100
AcDbDictionary
281
     1
  0
DICTIONARY
  5
2A
102
{ACAD_REACTORS
330
C
102
}
330
C
100
AcDbDictionary
281
     1
  3
2dWireframe
350
2F
  3
3D Hidden
350
31
  3
3dWireframe
350
30
  3
Basic
350
32
  3
Brighten
350
36
  3
ColorChange
350
3A
  3
Conceptual
350
34
  3
Dim
350
35
  3
Facepattern
350
39
  3
Flat
350
2B
  3
FlatWithEdges
350
2C
  3
Gouraud
350
2D
  3
GouraudWithEdges
350
2E
  3
Linepattern
350
38
  3
Realistic
350
33
  3
Thicken
350
37
  0
LAYOUT
  5
1E
102
{ACAD_REACTORS
330
1A
102
}
330
1A
100
AcDbPlotSettings
  1

  2
none_device
  4

  6

 40
0.0
 41
0.0
 42
0.0
 43
0.0
 44
0.0
 45
0.0
 46
0.0
 47
0.0
 48
0.0
 49
0.0
140
0.0
141
0.0
142
1.0
143
1.0
 70
   688
 72
     0
 73
     0
 74
     5
  7

 75
    16
 76
     0
 77
     2
 78
   300
147
1.0
148
0.0
149
0.0
100
AcDbLayout
  1
Layout1
 70
     1
 71
     1
 10
0.0
 20
0.0
 11
12.0
 21
9.0
 12
0.0
 22
0.0
 32
0.0
 14
1.000000000000000E+20
 24
1.000000000000000E+20
 34
1.000000000000000E+20
 15
-1.000000000000000E+20
 25
-1.000000000000000E+20
 35
-1.000000000000000E+20
146
0.0
 13
0.0
 23
0.0
 33
0.0
 16
1.0
 26
0.0
 36
0.0
 17
0.0
 27
1.0
 37
0.0
 76
     0
330
1B
  0
LAYOUT
  5
26
102
{ACAD_REACTORS
330
1A
102
}
330
1A
100
AcDbPlotSettings
  1

  2
none_device
  4

  6

 40
0.0
 41
0.0
 42
0.0
 43
0.0
 44
0.0
 45
0.0
 46
0.0
 47
0.0
 48
0.0
 49
0.0
140
0.0
141
0.0
142
1.0
143
1.0
 70
   688
 72
     0
 73
     0
 74
     5
  7

 75
    16
 76
     0
 77
     2
 78
   300
147
1.0
148
0.0
149
0.0
100
AcDbLayout
  1
Layout2
 70
     1
 71
     2
 10
0.0
 20
0.0
 11
0.0
 21
0.0
 12
0.0
 22
0.0
 32
0.0
 14
0.0
 24
0.0
 34
0.0
 15
0.0
 25
0.0
 35
0.0
146
0.0
 13
0.0
 23
0.0
 33
0.0
 16
1.0
 26
0.0
 36
0.0
 17
0.0
 27
1.0
 37
0.0
 76
     0
330
23
  0
LAYOUT
  5
22
102
{ACAD_REACTORS
330
1A
102
}
330
1A
100
AcDbPlotSettings
  1

  2
none_device
  4

  6

 40
0.0
 41
0.0
 42
0.0
 43
0.0
 44
0.0
 45
0.0
 46
0.0
 47
0.0
 48
0.0
 49
0.0
140
0.0
141
0.0
142
1.0
143
1.0
 70
  1712
 72
     0
 73
     0
 74
     0
  7

 75
     0
 76
     0
 77
     2
 78
   300
147
1.0
148
0.0
149
0.0
100
AcDbLayout
  1
Model
 70
     1
 71
     0
 10
0.0
 20
0.0
 11
12.0
 21
9.0
 12
0.0
 22
0.0
 32
0.0
 14
1.000000000000000E+20
 24
1.000000000000000E+20
 34
1.000000000000000E+20
 15
-1.000000000000000E+20
 25
-1.000000000000000E+20
 35
-1.000000000000000E+20
146
0.0
 13
0.0
 23
0.0
 33
0.0
 16
1.0
 26
0.0
 36
0.0
 17
0.0
 27
1.0
 37
0.0
 76
     0
330
1F
331
29
  0
MATERIAL
  5
3D
102
{ACAD_REACTORS
330
3B
102
}
102
{ACAD_XDICTIONARY
360
72
102
}
330
3B
100
AcDbMaterial
  1
ByBlock
  0
MATERIAL
  5
3C
102
{ACAD_REACTORS
330
3B
102
}
102
{ACAD_XDICTIONARY
360
70
102
}
330
3B
100
AcDbMaterial
  1
ByLayer
  0
MATERIAL
  5
3E
102
{ACAD_REACTORS
330
3B
102
}
102
{ACAD_XDICTIONARY
360
74
102
}
330
3B
100
AcDbMaterial
  1
Global
  0
MLINESTYLE
  5
18
102
{ACAD_REACTORS
330
17
102
}
330
17
100
AcDbMlineStyle
  2
Standard
 70
     0
  3

 62
   256
 51
90.0
 52
90.0
 71
     2
 49
0.5
 62
   256
  6
BYLAYER
 49
-0.5
 62
   256
  6
BYLAYER
  0
ACDBPLACEHOLDER
  5
F
102
{ACAD_REACTORS
330
E
102
}
330
E
  0
VISUALSTYLE
  5
2F
102
{ACAD_REACTORS
330
2A
102
}
102
{ACAD_XDICTIONARY
360
58
102
}
330
2A
100
AcDbVisualStyle
  2
2dWireframe
 70
     4
 71
     0
 72
     2
 73
     0
 90
        0
 40
-0.6
 41
-30.0
 62
     5
 63
     7
421
 16777215
 74
     1
 91
        4
 64
     7
 65
   257
 75
     1
175
     1
 42
1.0
 92
        0
 66
   257
 43
1.0
 76
     1
 77
     6
 78
     2
 67
     7
 79
     5
170
     0
171
     0
290
     0
174
     0
 93
        1
 44
0.0
173
     0
291
     0
 45
0.0
1001
ACAD
1000
AcDbSavedByObjectVersion
1070
     0
  0
VISUALSTYLE
  5
31
102
{ACAD_REACTORS
330
2A
102
}
102
{ACAD_XDICTIONARY
360
5C
102
}
330
2A
100
AcDbVisualStyle
  2
3D Hidden
 70
     6
 71
     1
 72
     2
 73
     2
 90
        0
 40
-0.6
 41
-30.0
 62
     5
 63
     7
421
 16777215
 74
     2
 91
        2
 64
     7
 65
   257
 75
     2
175
     1
 42
40.0
 92
        0
 66
   257
 43
1.0
 76
     1
 77
     6
 78
     2
 67
     7
 79
     3
170
     0
171
     0
290
     0
174
     0
 93
        1
 44
0.0
173
     0
291
     0
 45
0.0
1001
ACAD
1000
AcDbSavedByObjectVersion
1070
     0
  0
VISUALSTYLE
  5
30
102
{ACAD_REACTORS
330
2A
102
}
102
{ACAD_XDICTIONARY
360
5A
102
}
330
2A
100
AcDbVisualStyle
  2
3dWireframe
 70
     5
 71
     0
 72
     2
 73
     0
 90
        0
 40
-0.6
 41
-30.0
 62
     5
 63
     7
421
 16777215
 74
     1
 91
        4
 64
     7
 65
   257
 75
     1
175
     1
 42
1.0
 92
        0
 66
   257
 43
1.0
 76
     1
 77
     6
 78
     2
 67
     7
 79
     5
170
     0
171
     0
290
     0
174
     0
 93
        1
 44
0.0
173
     0
291
     0
 45
0.0
1001
ACAD
1000
AcDbSavedByObjectVersion
1070
     0
  0
VISUALSTYLE
  5
32
102
{ACAD_REACTORS
330
2A
102
}
102
{ACAD_XDICTIONARY
360
5E
102
}
330
2A
100
AcDbVisualStyle
  2
Basic
 70
     7
 71
     1
 72
     0
 73
     1
 90
        0
 40
-0.6
 41
-30.0
 62
     5
 63
     7
421
 16777215
 74
     0
 91
        4
 64
     7
 65
   257
 75
     1
175
     1
 42
1.0
 92
        8
 66
     7
 43
1.0
 76
     1
 77
     6
 78
     2
 67
     7
 79
     5
170
     0
171
     0
290
     0
174
     0
 93
        1
 44
0.0
173
     0
291
     1
 45
0.0
1001
ACAD
1000
AcDbSavedByObjectVersion
1070
     0
  0
VISUALSTYLE
  5
36
102
{ACAD_REACTORS
330
2A
102
}
102
{ACAD_XDICTIONARY
360
66
102
}
330
2A
100
AcDbVisualStyle
  2
Brighten
 70
    12
 71
     2
 72
     2
 73
     0
 90
        0
 40
-0.6
 41
-30.0
 62
     5
 63
     7
421
 16777215
 74
     1
 91
        4
 64
     7
 65
   257
 75
     1
175
     1
 42
1.0
 92
        8
 66
     7
 43
1.0
 76
     1
 77
     6
 78
     2
 67
     7
 79
     5
170
     0
171
     0
290
     0
174
     0
 93
        1
 44
50.0
173
     0
291
     1
 45
0.0
1001
ACAD
1000
AcDbSavedByObjectVersion
1070
     0
  0
VISUALSTYLE
  5
3A
102
{ACAD_REACTORS
330
2A
102
}
102
{ACAD_XDICTIONARY
360
6E
102
}
330
2A
100
AcDbVisualStyle
  2
ColorChange
 70
    16
 71
     2
 72
     2
 73
     3
 90
        0
 40
-0.6
 41
-30.0
 62
     5
 63
     8
421
  8421504
 74
     1
 91
        4
 64
     7
 65
   257
 75
     1
175
     1
 42
1.0
 92
        8
 66
     8
424
  8421504
 43
1.0
 76
     1
 77
     6
 78
     2
 67
     7
 79
     5
170
     0
171
     0
290
     0
174
     0
 93
        1
 44
0.0
173
     0
291
     1
 45
0.0
1001
ACAD
1000
AcDbSavedByObjectVersion
1070
     0
  0
VISUALSTYLE
  5
34
102
{ACAD_REACTORS
330
2A
102
}
102
{ACAD_XDICTIONARY
360
62
102
}
330
2A
100
AcDbVisualStyle
  2
Conceptual
 70
     9
 71
     3
 72
     2
 73
     0
 90
        0
 40
-0.6
 41
-30.0
 62
     5
 63
     7
421
 16777215
 74
     2
 91
        2
 64
     7
 65
   257
 75
     1
175
     1
 42
40.0
 92
        8
 66
     7
 43
1.0
 76
     1
 77
     6
 78
     2
 67
     7
 79
     3
170
     0
171
     0
290
     0
174
     0
 93
        1
 44
0.0
173
     0
291
     0
 45
0.0
1001
ACAD
1000
AcDbSavedByObjectVersion
1070
     0
  0
VISUALSTYLE
  5
35
102
{ACAD_REACTORS
330
2A
102
}
102
{ACAD_XDICTIONARY
360
64
102
}
330
2A
100
AcDbVisualStyle
  2
Dim
 70
    11
 71
     2
 72
     2
 73
     0
 90
        0
 40
-0.6
 41
-30.0
 62
     5
 63
     7
421
 16777215
 74
     1
 91
        4
 64
     7
 65
   257
 75
     1
175
     1
 42
1.0
 92
        8
 66
     7
 43
1.0
 76
     1
 77
     6
 78
     2
 67
     7
 79
     5
170
     0
171
     0
290
     0
174
     0
 93
        1
 44
-50.0
173
     0
291
     1
 45
0.0
1001
ACAD
1000
AcDbSavedByObjectVersion
1070
     0
  0
VISUALSTYLE
  5
39
102
{ACAD_REACTORS
330
2A
102
}
102
{ACAD_XDICTIONARY
360
6C
102
}
330
2A
100
AcDbVisualStyle
  2
Facepattern
 70
    15
 71
     2
 72
     2
 73
     0
 90
        0
 40
-0.6
 41
-30.0
 62
     5
 63
     7
421
 16777215
 74
     1
 91
        4
 64
     7
 65
   257
 75
     1
175
     1
 42
1.0
 92
        8
 66
     7
 43
1.0
 76
     1
 77
     6
 78
     2
 67
     7
 79
     5
170
     0
171
     0
290
     0
174
     0
 93
        1
 44
0.0
173
     0
291
     1
 45
0.0
1001
ACAD
1000
AcDbSavedByObjectVersion
1070
     0
  0
VISUALSTYLE
  5
2B
102
{ACAD_REACTORS
330
2A
102
}
102
{ACAD_XDICTIONARY
360
50
102
}
330
2A
100
AcDbVisualStyle
  2
Flat
 70
     0
 71
     2
 72
     1
 73
     1
 90
        2
 40
-0.6
 41
30.0
 62
     5
 63
     7
421
 16777215
 74
     0
 91
        4
 64
     7
 65
   257
 75
     1
175
     1
 42
1.0
 92
        8
 66
     7
 43
1.0
 76
     1
 77
     6
 78
     2
 67
     7
 79
     5
170
     0
171
     0
290
     0
174
     0
 93
       13
 44
0.0
173
     0
291
     1
 45
0.0
1001
ACAD
1000
AcDbSavedByObjectVersion
1070
     0
  0
VISUALSTYLE
  5
2C
102
{ACAD_REACTORS
330
2A
102
}
102
{ACAD_XDICTIONARY
360
52
102
}
330
2A
100
AcDbVisualStyle
  2
FlatWithEdges
 70
     1
 71
     2
 72
     1
 73
     1
 90
        2
 40
-0.6
 41
30.0
 62
     5
 63
     7
421
 16777215
 74
     1
 91
        4
 64
     7
 65
   257
 75
     1
175
     1
 42
1.0
 92
        0
 66
   257
 43
1.0
 76
     1
 77
     6
 78
     2
 67
     7
 79
     5
170
     0
171
     0
290
     0
174
     0
 93
       13
 44
0.0
173
     0
291
     1
 45
0.0
1001
ACAD
1000
AcDbSavedByObjectVersion
1070
     0
  0
VISUALSTYLE
  5
2D
102
{ACAD_REACTORS
330
2A
102
}
102
{ACAD_XDICTIONARY
360
54
102
}
330
2A
100
AcDbVisualStyle
  2
Gouraud
 70
     2
 71
     2
 72
     2
 73
     1
 90
        2
 40
-0.6
 41
30.0
 62
     5
 63
     7
421
 16777215
 74
     0
 91
        4
 64
     7
 65
   257
 75
     1
175
     1
 42
1.0
 92
        0
 66
     7
 43
1.0
 76
     1
 77
     6
 78
     2
 67
     7
 79
     5
170
     0
171
     0
290
     0
174
     0
 93
       13
 44
0.0
173
     0
291
     1
 45
0.0
1001
ACAD
1000
AcDbSavedByObjectVersion
1070
     0
  0
VISUALSTYLE
  5
2E
102
{ACAD_REACTORS
330
2A
102
}
102
{ACAD_XDICTIONARY
360
56
102
}
330
2A
100
AcDbVisualStyle
  2
GouraudWithEdges
 70
     3
 71
     2
 72
     2
 73
     1
 90
        2
 40
-0.6
 41
30.0
 62
     5
 63
     7
421
 16777215
 74
     1
 91
        4
 64
     7
 65
   257
 75
     1
175
     1
 42
1.0
 92
        0
 66
   257
 43
1.0
 76
     1
 77
     6
 78
     2
 67
     7
 79
     5
170
     0
171
     0
290
     0
174
     0
 93
       13
 44
0.0
173
     0
291
     1
 45
0.0
1001
ACAD
1000
AcDbSavedByObjectVersion
1070
     0
  0
VISUALSTYLE
  5
38
102
{ACAD_REACTORS
330
2A
102
}
102
{ACAD_XDICTIONARY
360
6A
102
}
330
2A
100
AcDbVisualStyle
  2
Linepattern
 70
    14
 71
     2
 72
     2
 73
     0
 90
        0
 40
-0.6
 41
-30.0
 62
     5
 63
     7
421
 16777215
 74
     1
 91
        4
 64
     7
 65
   257
 75
     7
175
     7
 42
1.0
 92
        8
 66
     7
 43
1.0
 76
     1
 77
     6
 78
     2
 67
     7
 79
     5
170
     0
171
     0
290
     0
174
     0
 93
        1
 44
0.0
173
     0
291
     1
 45
0.0
1001
ACAD
1000
AcDbSavedByObjectVersion
1070
     0
  0
VISUALSTYLE
  5
33
102
{ACAD_REACTORS
330
2A
102
}
102
{ACAD_XDICTIONARY
360
60
102
}
330
2A
100
AcDbVisualStyle
  2
Realistic
 70
     8
 71
     2
 72
     2
 73
     0
 90
        0
 40
-0.6
 41
-30.0
 62
     5
 63
     7
421
 16777215
 74
     1
 91
        0
 64
     7
 65
   257
 75
     1
175
     1
 42
1.0
 92
        8
 66
     8
424
  7895160
 43
1.0
 76
     1
 77
     6
 78
     2
 67
     7
 79
     5
170
     0
171
     0
290
     0
174
     0
 93
       13
 44
0.0
173
     0
291
     0
 45
0.0
1001
ACAD
1000
AcDbSavedByObjectVersion
1070
     0
  0
VISUALSTYLE
  5
37
102
{ACAD_REACTORS
330
2A
102
}
102
{ACAD_XDICTIONARY
360
68
102
}
330
2A
100
AcDbVisualStyle
  2
Thicken
 70
    13
 71
     2
 72
     2
 73
     0
 90
        0
 40
-0.6
 41
-30.0
 62
     5
 63
     7
421
 16777215
 74
     1
 91
        4
 64
     7
 65
   257
 75
     1
175
     1
 42
1.0
 92
       12
 66
     7
 43
1.0
 76
     1
 77
     6
 78
     2
 67
     7
 79
     5
170
     0
171
     0
290
     0
174
     0
 93
        1
 44
0.0
173
     0
291
     1
 45
0.0
1001
ACAD
1000
AcDbSavedByObjectVersion
1070
     0
  0
DICTIONARY
  5
72
330
3D
100
AcDbDictionary
280
     1
281
     1
  3
ACAD_XREC_ROUNDTRIP
360
73
  0
DICTIONARY
  5
70
330
3C
100
AcDbDictionary
280
     1
281
     1
  3
ACAD_XREC_ROUNDTRIP
360
71
  0
DICTIONARY
  5
74
330
3E
100
AcDbDictionary
280
     1
281
     1
  3
ACAD_XREC_ROUNDTRIP
360
75
  0
DICTIONARY
  5
58
330
2F
100
AcDbDictionary
280
     1
281
     1
  3
ACAD_XREC_ROUNDTRIP
360
59
  0
DICTIONARY
  5
5C
330
31
100
AcDbDictionary
280
     1
281
     1
  3
ACAD_XREC_ROUNDTRIP
360
5D
  0
DICTIONARY
  5
5A
330
30
100
AcDbDictionary
280
     1
281
     1
  3
ACAD_XREC_ROUNDTRIP
360
5B
  0
DICTIONARY
  5
5E
330
32
100
AcDbDictionary
280
     1
281
     1
  3
ACAD_XREC_ROUNDTRIP
360
5F
  0
DICTIONARY
  5
66
330
36
100
AcDbDictionary
280
     1
281
     1
  3
ACAD_XREC_ROUNDTRIP
360
67
  0
DICTIONARY
  5
6E
330
3A
100
AcDbDictionary
280
     1
281
     1
  3
ACAD_XREC_ROUNDTRIP
360
6F
  0
DICTIONARY
  5
62
330
34
100
AcDbDictionary
280
     1
281
     1
  3
ACAD_XREC_ROUNDTRIP
360
63
  0
DICTIONARY
  5
64
330
35
100
AcDbDictionary
280
     1
281
     1
  3
ACAD_XREC_ROUNDTRIP
360
65
  0
DICTIONARY
  5
6C
330
39
100
AcDbDictionary
280
     1
281
     1
  3
ACAD_XREC_ROUNDTRIP
360
6D
  0
DICTIONARY
  5
50
330
2B
100
AcDbDictionary
280
     1
281
     1
  3
ACAD_XREC_ROUNDTRIP
360
51
  0
DICTIONARY
  5
52
330
2C
100
AcDbDictionary
280
     1
281
     1
  3
ACAD_XREC_ROUNDTRIP
360
53
  0
DICTIONARY
  5
54
330
2D
100
AcDbDictionary
280
     1
281
     1
  3
ACAD_XREC_ROUNDTRIP
360
55
  0
DICTIONARY
  5
56
330
2E
100
AcDbDictionary
280
     1
281
     1
  3
ACAD_XREC_ROUNDTRIP
360
57
  0
DICTIONARY
  5
6A
330
38
100
AcDbDictionary
280
     1
281
     1
  3
ACAD_XREC_ROUNDTRIP
360
6B
  0
DICTIONARY
  5
60
330
33
100
AcDbDictionary
280
     1
281
     1
  3
ACAD_XREC_ROUNDTRIP
360
61
  0
DICTIONARY
  5
68
330
37
100
AcDbDictionary
280
     1
281
     1
  3
ACAD_XREC_ROUNDTRIP
360
69
  0
XRECORD
  5
73
102
{ACAD_REACTORS
330
72
102
}
330
72
100
AcDbXrecord
280
     1
102
MATERIAL
148
0.0
149
0.0
149
0.0
 93
        0
 94
      127
282
     0
 72
     1
 77
     1
171
     1
175
     1
179
     1
273
     0
  0
XRECORD
  5
71
102
{ACAD_REACTORS
330
70
102
}
330
70
100
AcDbXrecord
280
     1
102
MATERIAL
148
0.0
149
0.0
149
0.0
 93
        0
 94
      127
282
     0
 72
     1
 77
     1
171
     1
175
     1
179
     1
273
     0
  0
XRECORD
  5
75
102
{ACAD_REACTORS
330
74
102
}
330
74
100
AcDbXrecord
280
     1
102
MATERIAL
148
0.0
149
0.0
149
0.0
 93
        0
 94
      127
282
     0
 72
     1
 77
     1
171
     1
175
     1
179
     1
273
     0
  0
XRECORD
  5
59
102
{ACAD_REACTORS
330
58
102
}
330
58
100
AcDbXrecord
280
     1
102
RTVSPropertyOp0
 70
     1
102
RTVSPropertyOp1
 70
     1
102
RTVSPropertyOp2
 70
     1
102
RTVSPropertyOp3
 70
     1
102
RTVSPropertyOp4
 70
     1
102
RTVSPropertyOp5
 70
     1
102
RTVSPropertyOp6
 70
     1
102
RTVSPropertyOp7
 70
     1
102
RTVSPropertyOp8
 70
     1
102
RTVSPropertyOp9
 70
     1
102
RTVSPropertyOp10
 70
     1
102
RTVSPropertyOp11
 70
     1
102
RTVSPropertyOp12
 70
     1
102
RTVSPropertyOp13
 70
     1
102
RTVSPropertyOp14
 70
     1
102
RTVSPropertyOp15
 70
     1
102
RTVSPropertyOp16
 70
     1
102
RTVSPropertyOp17
 70
     1
102
RTVSPropertyOp18
 70
     1
102
RTVSPropertyOp19
 70
     1
102
RTVSPropertyOp20
 70
     1
102
RTVSPropertyOp21
 70
     1
102
RTVSPropertyOp22
 70
     1
102
RTVSPropertyOp23
 70
     1
102
RTVSPropertyOp24
 70
     1
102
RTVSPropertyOp25
 70
     1
102
RTVSPropertyOp26
 70
     1
102
RTVSPropertyOp27
 70
     1
102
RTVSPropertyOp28
 70
     1
102
RTVSPropertyOp29
 70
     1
102
RTVSPropertyOp30
 70
     1
102
RTVSPropertyOp31
 70
     1
102
RTVSPropertyOp32
 70
     1
  0
XRECORD
  5
5D
102
{ACAD_REACTORS
330
5C
102
}
330
5C
100
AcDbXrecord
280
     1
102
RTVSPropertyOp0
 70
     1
102
RTVSPropertyOp1
 70
     1
102
RTVSPropertyOp2
 70
     1
102
RTVSPropertyOp3
 70
     1
102
RTVSPropertyOp4
 70
     1
102
RTVSPropertyOp5
 70
     1
102
RTVSPropertyOp6
 70
     1
102
RTVSPropertyOp7
 70
     1
102
RTVSPropertyOp8
 70
     1
102
RTVSPropertyOp9
 70
     1
102
RTVSPropertyOp10
 70
     1
102
RTVSPropertyOp11
 70
     1
102
RTVSPropertyOp12
 70
     1
102
RTVSPropertyOp13
 70
     1
102
RTVSPropertyOp14
 70
     1
102
RTVSPropertyOp15
 70
     1
102
RTVSPropertyOp16
 70
     1
102
RTVSPropertyOp17
 70
     1
102
RTVSPropertyOp18
 70
     1
102
RTVSPropertyOp19
 70
     1
102
RTVSPropertyOp20
 70
     1
102
RTVSPropertyOp21
 70
     1
102
RTVSPropertyOp22
 70
     1
102
RTVSPropertyOp23
 70
     1
102
RTVSPropertyOp24
 70
     1
102
RTVSPropertyOp25
 70
     1
102
RTVSPropertyOp26
 70
     1
102
RTVSPropertyOp27
 70
     1
102
RTVSPropertyOp28
 70
     1
102
RTVSPropertyOp29
 70
     1
102
RTVSPropertyOp30
 70
     1
102
RTVSPropertyOp31
 70
     1
102
RTVSPropertyOp32
 70
     1
  0
XRECORD
  5
5B
102
{ACAD_REACTORS
330
5A
102
}
330
5A
100
AcDbXrecord
280
     1
102
RTVSPropertyOp0
 70
     1
102
RTVSPropertyOp1
 70
     1
102
RTVSPropertyOp2
 70
     1
102
RTVSPropertyOp3
 70
     1
102
RTVSPropertyOp4
 70
     1
102
RTVSPropertyOp5
 70
     1
102
RTVSPropertyOp6
 70
     1
102
RTVSPropertyOp7
 70
     1
102
RTVSPropertyOp8
 70
     1
102
RTVSPropertyOp9
 70
     1
102
RTVSPropertyOp10
 70
     1
102
RTVSPropertyOp11
 70
     1
102
RTVSPropertyOp12
 70
     1
102
RTVSPropertyOp13
 70
     1
102
RTVSPropertyOp14
 70
     1
102
RTVSPropertyOp15
 70
     1
102
RTVSPropertyOp16
 70
     1
102
RTVSPropertyOp17
 70
     1
102
RTVSPropertyOp18
 70
     1
102
RTVSPropertyOp19
 70
     1
102
RTVSPropertyOp20
 70
     1
102
RTVSPropertyOp21
 70
     1
102
RTVSPropertyOp22
 70
     1
102
RTVSPropertyOp23
 70
     1
102
RTVSPropertyOp24
 70
     1
102
RTVSPropertyOp25
 70
     1
102
RTVSPropertyOp26
 70
     1
102
RTVSPropertyOp27
 70
     1
102
RTVSPropertyOp28
 70
     1
102
RTVSPropertyOp29
 70
     1
102
RTVSPropertyOp30
 70
     1
102
RTVSPropertyOp31
 70
     1
102
RTVSPropertyOp32
 70
     1
  0
XRECORD
  5
5F
102
{ACAD_REACTORS
330
5E
102
}
330
5E
100
AcDbXrecord
280
     1
102
RTVSPropertyOp0
 70
     1
102
RTVSPropertyOp1
 70
     1
102
RTVSPropertyOp2
 70
     1
102
RTVSPropertyOp3
 70
     1
102
RTVSPropertyOp4
 70
     1
102
RTVSPropertyOp5
 70
     1
102
RTVSPropertyOp6
 70
     1
102
RTVSPropertyOp7
 70
     1
102
RTVSPropertyOp8
 70
     1
102
RTVSPropertyOp9
 70
     1
102
RTVSPropertyOp10
 70
     1
102
RTVSPropertyOp11
 70
     1
102
RTVSPropertyOp12
 70
     1
102
RTVSPropertyOp13
 70
     1
102
RTVSPropertyOp14
 70
     1
102
RTVSPropertyOp15
 70
     1
102
RTVSPropertyOp16
 70
     1
102
RTVSPropertyOp17
 70
     1
102
RTVSPropertyOp18
 70
     1
102
RTVSPropertyOp19
 70
     1
102
RTVSPropertyOp20
 70
     1
102
RTVSPropertyOp21
 70
     1
102
RTVSPropertyOp22
 70
     1
102
RTVSPropertyOp23
 70
     1
102
RTVSPropertyOp24
 70
     1
102
RTVSPropertyOp25
 70
     1
102
RTVSPropertyOp26
 70
     1
102
RTVSPropertyOp27
 70
     1
102
RTVSPropertyOp28
 70
     1
102
RTVSPropertyOp29
 70
     1
102
RTVSPropertyOp30
 70
     1
102
RTVSPropertyOp31
 70
     1
102
RTVSPropertyOp32
 70
     1
  0
XRECORD
  5
67
102
{ACAD_REACTORS
330
66
102
}
330
66
100
AcDbXrecord
280
     1
102
RTVSPropertyOp0
 70
     1
102
RTVSPropertyOp1
 70
     1
102
RTVSPropertyOp2
 70
     1
102
RTVSPropertyOp3
 70
     1
102
RTVSPropertyOp4
 70
     1
102
RTVSPropertyOp5
 70
     1
102
RTVSPropertyOp6
 70
     1
102
RTVSPropertyOp7
 70
     1
102
RTVSPropertyOp8
 70
     1
102
RTVSPropertyOp9
 70
     1
102
RTVSPropertyOp10
 70
     1
102
RTVSPropertyOp11
 70
     1
102
RTVSPropertyOp12
 70
     1
102
RTVSPropertyOp13
 70
     1
102
RTVSPropertyOp14
 70
     1
102
RTVSPropertyOp15
 70
     1
102
RTVSPropertyOp16
 70
     1
102
RTVSPropertyOp17
 70
     1
102
RTVSPropertyOp18
 70
     1
102
RTVSPropertyOp19
 70
     1
102
RTVSPropertyOp20
 70
     1
102
RTVSPropertyOp21
 70
     1
102
RTVSPropertyOp22
 70
     1
102
RTVSPropertyOp23
 70
     1
102
RTVSPropertyOp24
 70
     1
102
RTVSPropertyOp25
 70
     1
102
RTVSPropertyOp26
 70
     1
102
RTVSPropertyOp27
 70
     1
102
RTVSPropertyOp28
 70
     1
102
RTVSPropertyOp29
 70
     1
102
RTVSPropertyOp30
 70
     1
102
RTVSPropertyOp31
 70
     1
102
RTVSPropertyOp32
 70
     1
  0
XRECORD
  5
6F
102
{ACAD_REACTORS
330
6E
102
}
330
6E
100
AcDbXrecord
280
     1
102
RTVSPropertyOp0
 70
     1
102
RTVSPropertyOp1
 70
     1
102
RTVSPropertyOp2
 70
     1
102
RTVSPropertyOp3
 70
     1
102
RTVSPropertyOp4
 70
     1
102
RTVSPropertyOp5
 70
     1
102
RTVSPropertyOp6
 70
     1
102
RTVSPropertyOp7
 70
     1
102
RTVSPropertyOp8
 70
     1
102
RTVSPropertyOp9
 70
     1
102
RTVSPropertyOp10
 70
     1
102
RTVSPropertyOp11
 70
     1
102
RTVSPropertyOp12
 70
     1
102
RTVSPropertyOp13
 70
     1
102
RTVSPropertyOp14
 70
     1
102
RTVSPropertyOp15
 70
     1
102
RTVSPropertyOp16
 70
     1
102
RTVSPropertyOp17
 70
     1
102
RTVSPropertyOp18
 70
     1
102
RTVSPropertyOp19
 70
     1
102
RTVSPropertyOp20
 70
     1
102
RTVSPropertyOp21
 70
     1
102
RTVSPropertyOp22
 70
     1
102
RTVSPropertyOp23
 70
     1
102
RTVSPropertyOp24
 70
     1
102
RTVSPropertyOp25
 70
     1
102
RTVSPropertyOp26
 70
     1
102
RTVSPropertyOp27
 70
     1
102
RTVSPropertyOp28
 70
     1
102
RTVSPropertyOp29
 70
     1
102
RTVSPropertyOp30
 70
     1
102
RTVSPropertyOp31
 70
     1
102
RTVSPropertyOp32
 70
     1
  0
XRECORD
  5
63
102
{ACAD_REACTORS
330
62
102
}
330
62
100
AcDbXrecord
280
     1
102
RTVSPropertyOp0
 70
     1
102
RTVSPropertyOp1
 70
     1
102
RTVSPropertyOp2
 70
     1
102
RTVSPropertyOp3
 70
     1
102
RTVSPropertyOp4
 70
     1
102
RTVSPropertyOp5
 70
     1
102
RTVSPropertyOp6
 70
     1
102
RTVSPropertyOp7
 70
     1
102
RTVSPropertyOp8
 70
     1
102
RTVSPropertyOp9
 70
     1
102
RTVSPropertyOp10
 70
     1
102
RTVSPropertyOp11
 70
     1
102
RTVSPropertyOp12
 70
     1
102
RTVSPropertyOp13
 70
     1
102
RTVSPropertyOp14
 70
     1
102
RTVSPropertyOp15
 70
     1
102
RTVSPropertyOp16
 70
     1
102
RTVSPropertyOp17
 70
     1
102
RTVSPropertyOp18
 70
     1
102
RTVSPropertyOp19
 70
     1
102
RTVSPropertyOp20
 70
     1
102
RTVSPropertyOp21
 70
     1
102
RTVSPropertyOp22
 70
     1
102
RTVSPropertyOp23
 70
     1
102
RTVSPropertyOp24
 70
     1
102
RTVSPropertyOp25
 70
     1
102
RTVSPropertyOp26
 70
     1
102
RTVSPropertyOp27
 70
     1
102
RTVSPropertyOp28
 70
     1
102
RTVSPropertyOp29
 70
     1
102
RTVSPropertyOp30
 70
     1
102
RTVSPropertyOp31
 70
     1
102
RTVSPropertyOp32
 70
     1
  0
XRECORD
  5
65
102
{ACAD_REACTORS
330
64
102
}
330
64
100
AcDbXrecord
280
     1
102
RTVSPropertyOp0
 70
     1
102
RTVSPropertyOp1
 70
     1
102
RTVSPropertyOp2
 70
     1
102
RTVSPropertyOp3
 70
     1
102
RTVSPropertyOp4
 70
     1
102
RTVSPropertyOp5
 70
     1
102
RTVSPropertyOp6
 70
     1
102
RTVSPropertyOp7
 70
     1
102
RTVSPropertyOp8
 70
     1
102
RTVSPropertyOp9
 70
     1
102
RTVSPropertyOp10
 70
     1
102
RTVSPropertyOp11
 70
     1
102
RTVSPropertyOp12
 70
     1
102
RTVSPropertyOp13
 70
     1
102
RTVSPropertyOp14
 70
     1
102
RTVSPropertyOp15
 70
     1
102
RTVSPropertyOp16
 70
     1
102
RTVSPropertyOp17
 70
     1
102
RTVSPropertyOp18
 70
     1
102
RTVSPropertyOp19
 70
     1
102
RTVSPropertyOp20
 70
     1
102
RTVSPropertyOp21
 70
     1
102
RTVSPropertyOp22
 70
     1
102
RTVSPropertyOp23
 70
     1
102
RTVSPropertyOp24
 70
     1
102
RTVSPropertyOp25
 70
     1
102
RTVSPropertyOp26
 70
     1
102
RTVSPropertyOp27
 70
     1
102
RTVSPropertyOp28
 70
     1
102
RTVSPropertyOp29
 70
     1
102
RTVSPropertyOp30
 70
     1
102
RTVSPropertyOp31
 70
     1
102
RTVSPropertyOp32
 70
     1
  0
XRECORD
  5
6D
102
{ACAD_REACTORS
330
6C
102
}
330
6C
100
AcDbXrecord
280
     1
102
RTVSPropertyOp0
 70
     1
102
RTVSPropertyOp1
 70
     1
102
RTVSPropertyOp2
 70
     1
102
RTVSPropertyOp3
 70
     1
102
RTVSPropertyOp4
 70
     1
102
RTVSPropertyOp5
 70
     1
102
RTVSPropertyOp6
 70
     1
102
RTVSPropertyOp7
 70
     1
102
RTVSPropertyOp8
 70
     1
102
RTVSPropertyOp9
 70
     1
102
RTVSPropertyOp10
 70
     1
102
RTVSPropertyOp11
 70
     1
102
RTVSPropertyOp12
 70
     1
102
RTVSPropertyOp13
 70
     1
102
RTVSPropertyOp14
 70
     1
102
RTVSPropertyOp15
 70
     1
102
RTVSPropertyOp16
 70
     1
102
RTVSPropertyOp17
 70
     1
102
RTVSPropertyOp18
 70
     1
102
RTVSPropertyOp19
 70
     1
102
RTVSPropertyOp20
 70
     1
102
RTVSPropertyOp21
 70
     1
102
RTVSPropertyOp22
 70
     1
102
RTVSPropertyOp23
 70
     1
102
RTVSPropertyOp24
 70
     1
102
RTVSPropertyOp25
 70
     1
102
RTVSPropertyOp26
 70
     1
102
RTVSPropertyOp27
 70
     1
102
RTVSPropertyOp28
 70
     1
102
RTVSPropertyOp29
 70
     1
102
RTVSPropertyOp30
 70
     1
102
RTVSPropertyOp31
 70
     1
102
RTVSPropertyOp32
 70
     1
  0
XRECORD
  5
51
102
{ACAD_REACTORS
330
50
102
}
330
50
100
AcDbXrecord
280
     1
102
RTVSPropertyOp0
 70
     1
102
RTVSPropertyOp1
 70
     1
102
RTVSPropertyOp2
 70
     1
102
RTVSPropertyOp3
 70
     1
102
RTVSPropertyOp4
 70
     1
102
RTVSPropertyOp5
 70
     1
102
RTVSPropertyOp6
 70
     1
102
RTVSPropertyOp7
 70
     1
102
RTVSPropertyOp8
 70
     1
102
RTVSPropertyOp9
 70
     1
102
RTVSPropertyOp10
 70
     1
102
RTVSPropertyOp11
 70
     1
102
RTVSPropertyOp12
 70
     1
102
RTVSPropertyOp13
 70
     1
102
RTVSPropertyOp14
 70
     1
102
RTVSPropertyOp15
 70
     1
102
RTVSPropertyOp16
 70
     1
102
RTVSPropertyOp17
 70
     1
102
RTVSPropertyOp18
 70
     1
102
RTVSPropertyOp19
 70
     1
102
RTVSPropertyOp20
 70
     1
102
RTVSPropertyOp21
 70
     1
102
RTVSPropertyOp22
 70
     1
102
RTVSPropertyOp23
 70
     1
102
RTVSPropertyOp24
 70
     1
102
RTVSPropertyOp25
 70
     1
102
RTVSPropertyOp26
 70
     1
102
RTVSPropertyOp27
 70
     1
102
RTVSPropertyOp28
 70
     1
102
RTVSPropertyOp29
 70
     1
102
RTVSPropertyOp30
 70
     1
102
RTVSPropertyOp31
 70
     1
102
RTVSPropertyOp32
 70
     1
  0
XRECORD
  5
53
102
{ACAD_REACTORS
330
52
102
}
330
52
100
AcDbXrecord
280
     1
102
RTVSPropertyOp0
 70
     1
102
RTVSPropertyOp1
 70
     1
102
RTVSPropertyOp2
 70
     1
102
RTVSPropertyOp3
 70
     1
102
RTVSPropertyOp4
 70
     1
102
RTVSPropertyOp5
 70
     1
102
RTVSPropertyOp6
 70
     1
102
RTVSPropertyOp7
 70
     1
102
RTVSPropertyOp8
 70
     1
102
RTVSPropertyOp9
 70
     1
102
RTVSPropertyOp10
 70
     1
102
RTVSPropertyOp11
 70
     1
102
RTVSPropertyOp12
 70
     1
102
RTVSPropertyOp13
 70
     1
102
RTVSPropertyOp14
 70
     1
102
RTVSPropertyOp15
 70
     1
102
RTVSPropertyOp16
 70
     1
102
RTVSPropertyOp17
 70
     1
102
RTVSPropertyOp18
 70
     1
102
RTVSPropertyOp19
 70
     1
102
RTVSPropertyOp20
 70
     1
102
RTVSPropertyOp21
 70
     1
102
RTVSPropertyOp22
 70
     1
102
RTVSPropertyOp23
 70
     1
102
RTVSPropertyOp24
 70
     1
102
RTVSPropertyOp25
 70
     1
102
RTVSPropertyOp26
 70
     1
102
RTVSPropertyOp27
 70
     1
102
RTVSPropertyOp28
 70
     1
102
RTVSPropertyOp29
 70
     1
102
RTVSPropertyOp30
 70
     1
102
RTVSPropertyOp31
 70
     1
102
RTVSPropertyOp32
 70
     1
  0
XRECORD
  5
55
102
{ACAD_REACTORS
330
54
102
}
330
54
100
AcDbXrecord
280
     1
102
RTVSPropertyOp0
 70
     1
102
RTVSPropertyOp1
 70
     1
102
RTVSPropertyOp2
 70
     1
102
RTVSPropertyOp3
 70
     1
102
RTVSPropertyOp4
 70
     1
102
RTVSPropertyOp5
 70
     1
102
RTVSPropertyOp6
 70
     1
102
RTVSPropertyOp7
 70
     1
102
RTVSPropertyOp8
 70
     1
102
RTVSPropertyOp9
 70
     1
102
RTVSPropertyOp10
 70
     1
102
RTVSPropertyOp11
 70
     1
102
RTVSPropertyOp12
 70
     1
102
RTVSPropertyOp13
 70
     1
102
RTVSPropertyOp14
 70
     1
102
RTVSPropertyOp15
 70
     1
102
RTVSPropertyOp16
 70
     1
102
RTVSPropertyOp17
 70
     1
102
RTVSPropertyOp18
 70
     1
102
RTVSPropertyOp19
 70
     1
102
RTVSPropertyOp20
 70
     1
102
RTVSPropertyOp21
 70
     1
102
RTVSPropertyOp22
 70
     1
102
RTVSPropertyOp23
 70
     1
102
RTVSPropertyOp24
 70
     1
102
RTVSPropertyOp25
 70
     1
102
RTVSPropertyOp26
 70
     1
102
RTVSPropertyOp27
 70
     1
102
RTVSPropertyOp28
 70
     1
102
RTVSPropertyOp29
 70
     1
102
RTVSPropertyOp30
 70
     1
102
RTVSPropertyOp31
 70
     1
102
RTVSPropertyOp32
 70
     1
  0
XRECORD
  5
57
102
{ACAD_REACTORS
330
56
102
}
330
56
100
AcDbXrecord
280
     1
102
RTVSPropertyOp0
 70
     1
102
RTVSPropertyOp1
 70
     1
102
RTVSPropertyOp2
 70
     1
102
RTVSPropertyOp3
 70
     1
102
RTVSPropertyOp4
 70
     1
102
RTVSPropertyOp5
 70
     1
102
RTVSPropertyOp6
 70
     1
102
RTVSPropertyOp7
 70
     1
102
RTVSPropertyOp8
 70
     1
102
RTVSPropertyOp9
 70
     1
102
RTVSPropertyOp10
 70
     1
102
RTVSPropertyOp11
 70
     1
102
RTVSPropertyOp12
 70
     1
102
RTVSPropertyOp13
 70
     1
102
RTVSPropertyOp14
 70
     1
102
RTVSPropertyOp15
 70
     1
102
RTVSPropertyOp16
 70
     1
102
RTVSPropertyOp17
 70
     1
102
RTVSPropertyOp18
 70
     1
102
RTVSPropertyOp19
 70
     1
102
RTVSPropertyOp20
 70
     1
102
RTVSPropertyOp21
 70
     1
102
RTVSPropertyOp22
 70
     1
102
RTVSPropertyOp23
 70
     1
102
RTVSPropertyOp24
 70
     1
102
RTVSPropertyOp25
 70
     1
102
RTVSPropertyOp26
 70
     1
102
RTVSPropertyOp27
 70
     1
102
RTVSPropertyOp28
 70
     1
102
RTVSPropertyOp29
 70
     1
102
RTVSPropertyOp30
 70
     1
102
RTVSPropertyOp31
 70
     1
102
RTVSPropertyOp32
 70
     1
  0
XRECORD
  5
6B
102
{ACAD_REACTORS
330
6A
102
}
330
6A
100
AcDbXrecord
280
     1
102
RTVSPropertyOp0
 70
     1
102
RTVSPropertyOp1
 70
     1
102
RTVSPropertyOp2
 70
     1
102
RTVSPropertyOp3
 70
     1
102
RTVSPropertyOp4
 70
     1
102
RTVSPropertyOp5
 70
     1
102
RTVSPropertyOp6
 70
     1
102
RTVSPropertyOp7
 70
     1
102
RTVSPropertyOp8
 70
     1
102
RTVSPropertyOp9
 70
     1
102
RTVSPropertyOp10
 70
     1
102
RTVSPropertyOp11
 70
     1
102
RTVSPropertyOp12
 70
     1
102
RTVSPropertyOp13
 70
     1
102
RTVSPropertyOp14
 70
     1
102
RTVSPropertyOp15
 70
     1
102
RTVSPropertyOp16
 70
     1
102
RTVSPropertyOp17
 70
     1
102
RTVSPropertyOp18
 70
     1
102
RTVSPropertyOp19
 70
     1
102
RTVSPropertyOp20
 70
     1
102
RTVSPropertyOp21
 70
     1
102
RTVSPropertyOp22
 70
     1
102
RTVSPropertyOp23
 70
     1
102
RTVSPropertyOp24
 70
     1
102
RTVSPropertyOp25
 70
     1
102
RTVSPropertyOp26
 70
     1
102
RTVSPropertyOp27
 70
     1
102
RTVSPropertyOp28
 70
     1
102
RTVSPropertyOp29
 70
     1
102
RTVSPropertyOp30
 70
     1
102
RTVSPropertyOp31
 70
     1
102
RTVSPropertyOp32
 70
     1
  0
XRECORD
  5
61
102
{ACAD_REACTORS
330
60
102
}
330
60
100
AcDbXrecord
280
     1
102
RTVSPropertyOp0
 70
     1
102
RTVSPropertyOp1
 70
     1
102
RTVSPropertyOp2
 70
     1
102
RTVSPropertyOp3
 70
     1
102
RTVSPropertyOp4
 70
     1
102
RTVSPropertyOp5
 70
     1
102
RTVSPropertyOp6
 70
     1
102
RTVSPropertyOp7
 70
     1
102
RTVSPropertyOp8
 70
     1
102
RTVSPropertyOp9
 70
     1
102
RTVSPropertyOp10
 70
     1
102
RTVSPropertyOp11
 70
     1
102
RTVSPropertyOp12
 70
     1
102
RTVSPropertyOp13
 70
     1
102
RTVSPropertyOp14
 70
     1
102
RTVSPropertyOp15
 70
     1
102
RTVSPropertyOp16
 70
     1
102
RTVSPropertyOp17
 70
     1
102
RTVSPropertyOp18
 70
     1
102
RTVSPropertyOp19
 70
     1
102
RTVSPropertyOp20
 70
     1
102
RTVSPropertyOp21
 70
     1
102
RTVSPropertyOp22
 70
     1
102
RTVSPropertyOp23
 70
     1
102
RTVSPropertyOp24
 70
     1
102
RTVSPropertyOp25
 70
     1
102
RTVSPropertyOp26
 70
     1
102
RTVSPropertyOp27
 70
     1
102
RTVSPropertyOp28
 70
     1
102
RTVSPropertyOp29
 70
     1
102
RTVSPropertyOp30
 70
     1
102
RTVSPropertyOp31
 70
     1
102
RTVSPropertyOp32
 70
     1
  0
XRECORD
  5
69
102
{ACAD_REACTORS
330
68
102
}
330
68
100
AcDbXrecord
280
     1
102
RTVSPropertyOp0
 70
     1
102
RTVSPropertyOp1
 70
     1
102
RTVSPropertyOp2
 70
     1
102
RTVSPropertyOp3
 70
     1
102
RTVSPropertyOp4
 70
     1
102
RTVSPropertyOp5
 70
     1
102
RTVSPropertyOp6
 70
     1
102
RTVSPropertyOp7
 70
     1
102
RTVSPropertyOp8
 70
     1
102
RTVSPropertyOp9
 70
     1
102
RTVSPropertyOp10
 70
     1
102
RTVSPropertyOp11
 70
     1
102
RTVSPropertyOp12
 70
     1
102
RTVSPropertyOp13
 70
     1
102
RTVSPropertyOp14
 70
     1
102
RTVSPropertyOp15
 70
     1
102
RTVSPropertyOp16
 70
     1
102
RTVSPropertyOp17
 70
     1
102
RTVSPropertyOp18
 70
     1
102
RTVSPropertyOp19
 70
     1
102
RTVSPropertyOp20
 70
     1
102
RTVSPropertyOp21
 70
     1
102
RTVSPropertyOp22
 70
     1
102
RTVSPropertyOp23
 70
     1
102
RTVSPropertyOp24
 70
     1
102
RTVSPropertyOp25
 70
     1
102
RTVSPropertyOp26
 70
     1
102
RTVSPropertyOp27
 70
     1
102
RTVSPropertyOp28
 70
     1
102
RTVSPropertyOp29
 70
     1
102
RTVSPropertyOp30
 70
     1
102
RTVSPropertyOp31
 70
     1
102
RTVSPropertyOp32
 70
     1
  0
ENDSEC
  0
EOF
