  0
SECTION
  2
HEADER
  9
$ACADVER
  1
AC1018
  9
$ACADMAINTVER
 70
     0
  9
$DWGCODEPAGE
  3
ANSI_936
  9
$INSBASE
 10
0.0
 20
0.0
 30
0.0
  9
$EXTMIN
 10
1.000000000000000E+20
 20
1.000000000000000E+20
 30
1.000000000000000E+20
  9
$EXTMAX
 10
-1.000000000000000E+20
 20
-1.000000000000000E+20
 30
-1.000000000000000E+20
  9
$LIMMIN
 10
0.0
 20
0.0
  9
$LIMMAX
 10
12.0
 20
9.0
  9
$ORTHOMODE
 70
     0
  9
$REGENMODE
 70
     1
  9
$FILLMODE
 70
     1
  9
$QTEXTMODE
 70
     0
  9
$MIRRTEXT
 70
     1
  9
$LTSCALE
 40
1.0
  9
$ATTMODE
 70
     1
  9
$TEXTSIZE
 40
0.2
  9
$TRACEWID
 40
0.05
  9
$TEXTSTYLE
  7
Standard
  9
$CLAYER
  8
0
  9
$CELTYPE
  6
ByLayer
  9
$CECOLOR
 62
   256
  9
$CELTSCALE
 40
1.0
  9
$DISPSILH
 70
     0
  9
$DIMSCALE
 40
1.0
  9
$DIMASZ
 40
0.18
  9
$DIMEXO
 40
0.0625
  9
$DIMDLI
 40
0.38
  9
$DIMRND
 40
0.0
  9
$DIMDLE
 40
0.0
  9
$DIMEXE
 40
0.18
  9
$DIMTP
 40
0.0
  9
$DIMTM
 40
0.0
  9
$DIMTXT
 40
0.18
  9
$DIMCEN
 40
0.09
  9
$DIMTSZ
 40
0.0
  9
$DIMTOL
 70
     0
  9
$DIMLIM
 70
     0
  9
$DIMTIH
 70
     1
  9
$DIMTOH
 70
     1
  9
$DIMSE1
 70
     0
  9
$DIMSE2
 70
     0
  9
$DIMTAD
 70
     0
  9
$DIMZIN
 70
     0
  9
$DIMBLK
  1

  9
$DIMASO
 70
     1
  9
$DIMSHO
 70
     1
  9
$DIMPOST
  1

  9
$DIMAPOST
  1

  9
$DIMALT
 70
     0
  9
$DIMALTD
 70
     2
  9
$DIMALTF
 40
25.4
  9
$DIMLFAC
 40
1.0
  9
$DIMTOFL
 70
     0
  9
$DIMTVP
 40
0.0
  9
$DIMTIX
 70
     0
  9
$DIMSOXD
 70
     0
  9
$DIMSAH
 70
     0
  9
$DIMBLK1
  1

  9
$DIMBLK2
  1

  9
$DIMSTYLE
  2
Standard
  9
$DIMCLRD
 70
     0
  9
$DIMCLRE
 70
     0
  9
$DIMCLRT
 70
     0
  9
$DIMTFAC
 40
1.0
  9
$DIMGAP
 40
0.09
  9
$DIMJUST
 70
     0
  9
$DIMSD1
 70
     0
  9
$DIMSD2
 70
     0
  9
$DIMTOLJ
 70
     1
  9
$DIMTZIN
 70
     0
  9
$DIMALTZ
 70
     0
  9
$DIMALTTZ
 70
     0
  9
$DIMUPT
 70
     0
  9
$DIMDEC
 70
     4
  9
$DIMTDEC
 70
     4
  9
$DIMALTU
 70
     2
  9
$DIMALTTD
 70
     2
  9
$DIMTXSTY
  7
Standard
  9
$DIMAUNIT
 70
     0
  9
$DIMADEC
 70
     0
  9
$DIMALTRND
 40
0.0
  9
$DIMAZIN
 70
     0
  9
$DIMDSEP
 70
    46
  9
$DIMATFIT
 70
     3
  9
$DIMFRAC
 70
     0
  9
$DIMLDRBLK
  1

  9
$DIMLUNIT
 70
     2
  9
$DIMLWD
 70
    -2
  9
$DIMLWE
 70
    -2
  9
$DIMTMOVE
 70
     0
  9
$LUNITS
 70
     2
  9
$LUPREC
 70
     4
  9
$SKETCHINC
 40
0.1
  9
$FILLETRAD
 40
0.5
  9
$AUNITS
 70
     0
  9
$AUPREC
 70
     0
  9
$MENU
  1
.
  9
$ELEVATION
 40
0.0
  9
$PELEVATION
 40
0.0
  9
$THICKNESS
 40
0.0
  9
$LIMCHECK
 70
     0
  9
$CHAMFERA
 40
0.5
  9
$CHAMFERB
 40
0.5
  9
$CHAMFERC
 40
1.0
  9
$CHAMFERD
 40
0.0
  9
$SKPOLY
 70
     0
  9
$TDCREATE
 40
2459207.929696945
  9
$TDUCREATE
 40
2459207.596363611
  9
$TDUPDATE
 40
2459207.929696968
  9
$TDUUPDATE
 40
2459207.596363634
  9
$TDINDWG
 40
0.0000000116
  9
$TDUSRTIMER
 40
0.0000000116
  9
$USRTIMER
 70
     1
  9
$ANGBASE
 50
0.0
  9
$ANGDIR
 70
     0
  9
$PDMODE
 70
     0
  9
$PDSIZE
 40
0.0
  9
$PLINEWID
 40
0.0
  9
$SPLFRAME
 70
     0
  9
$SPLINETYPE
 70
     6
  9
$SPLINESEGS
 70
     8
  9
$HANDSEED
  5
77
  9
$SURFTAB1
 70
     6
  9
$SURFTAB2
 70
     6
  9
$SURFTYPE
 70
     6
  9
$SURFU
 70
     6
  9
$SURFV
 70
     6
  9
$UCSBASE
  2

  9
$UCSNAME
  2

  9
$UCSORG
 10
0.0
 20
0.0
 30
0.0
  9
$UCSXDIR
 10
1.0
 20
0.0
 30
0.0
  9
$UCSYDIR
 10
0.0
 20
1.0
 30
0.0
  9
$UCSORTHOREF
  2

  9
$UCSORTHOVIEW
 70
     0
  9
$UCSORGTOP
 10
0.0
 20
0.0
 30
0.0
  9
$UCSORGBOTTOM
 10
0.0
 20
0.0
 30
0.0
  9
$UCSORGLEFT
 10
0.0
 20
0.0
 30
0.0
  9
$UCSORGRIGHT
 10
0.0
 20
0.0
 30
0.0
  9
$UCSORGFRONT
 10
0.0
 20
0.0
 30
0.0
  9
$UCSORGBACK
 10
0.0
 20
0.0
 30
0.0
  9
$PUCSBASE
  2

  9
$PUCSNAME
  2

  9
$PUCSORG
 10
0.0
 20
0.0
 30
0.0
  9
$PUCSXDIR
 10
1.0
 20
0.0
 30
0.0
  9
$PUCSYDIR
 10
0.0
 20
1.0
 30
0.0
  9
$PUCSORTHOREF
  2

  9
$PUCSORTHOVIEW
 70
     0
  9
$PUCSORGTOP
 10
0.0
 20
0.0
 30
0.0
  9
$PUCSORGBOTTOM
 10
0.0
 20
0.0
 30
0.0
  9
$PUCSORGLEFT
 10
0.0
 20
0.0
 30
0.0
  9
$PUCSORGRIGHT
 10
0.0
 20
0.0
 30
0.0
  9
$PUCSORGFRONT
 10
0.0
 20
0.0
 30
0.0
  9
$PUCSORGBACK
 10
0.0
 20
0.0
 30
0.0
  9
$USERI1
 70
     0
  9
$USERI2
 70
     0
  9
$USERI3
 70
     0
  9
$USERI4
 70
     0
  9
$USERI5
 70
     0
  9
$USERR1
 40
0.0
  9
$USERR2
 40
0.0
  9
$USERR3
 40
0.0
  9
$USERR4
 40
0.0
  9
$USERR5
 40
0.0
  9
$WORLDVIEW
 70
     1
  9
$SHADEDGE
 70
     3
  9
$SHADEDIF
 70
    70
  9
$TILEMODE
 70
     1
  9
$MAXACTVP
 70
    64
  9
$PINSBASE
 10
0.0
 20
0.0
 30
0.0
  9
$PLIMCHECK
 70
     0
  9
$PEXTMIN
 10
1.000000000000000E+20
 20
1.000000000000000E+20
 30
1.000000000000000E+20
  9
$PEXTMAX
 10
-1.000000000000000E+20
 20
-1.000000000000000E+20
 30
-1.000000000000000E+20
  9
$PLIMMIN
 10
0.0
 20
0.0
  9
$PLIMMAX
 10
12.0
 20
9.0
  9
$UNITMODE
 70
     0
  9
$VISRETAIN
 70
     1
  9
$PLINEGEN
 70
     0
  9
$PSLTSCALE
 70
     1
  9
$TREEDEPTH
 70
  3020
  9
$CMLSTYLE
  2
Standard
  9
$CMLJUST
 70
     0
  9
$CMLSCALE
 40
1.0
  9
$PROXYGRAPHICS
 70
     1
  9
$MEASUREMENT
 70
     0
  9
$CELWEIGHT
370
    -1
  9
$ENDCAPS
280
     0
  9
$JOINSTYLE
280
     0
  9
$LWDISPLAY
290
     1
  9
$INSUNITS
 70
     4
  9
$HYPERLINKBASE
  1

  9
$STYLESHEET
  1

  9
$XEDIT
290
     1
  9
$CEPSNTYPE
380
     0
  9
$PSTYLEMODE
290
     1
  9
$FINGERPRINTGUID
  2
{BB419668-A323-40C7-AE0A-E24D32FFF175}
  9
$VERSIONGUID
  2
{FAEB1C32-E019-11D5-929B-00C0DF256EC4}
  9
$EXTNAMES
290
     1
  9
$PSVPSCALE
 40
0.0
  9
$OLESTARTUP
290
     0
  9
$SORTENTS
280
   127
  9
$INDEXCTL
280
     0
  9
$HIDETEXT
280
     1
  9
$XCLIPFRAME
290
     0
  9
$HALOGAP
280
     0
  9
$OBSCOLOR
 70
   257
  9
$OBSLTYPE
280
     0
  9
$INTERSECTIONDISPLAY
280
     0
  9
$INTERSECTIONCOLOR
 70
   257
  9
$DIMASSOC
280
     2
  9
$PROJECTNAME
  1

  0
ENDSEC
  0
SECTION
  2
CLASSES
  0
CLASS
  1
ACDBDICTIONARYWDFLT
  2
AcDbDictionaryWithDefault
  3
ObjectDBX Classes
 90
        0
 91
        4
280
     0
281
     0
  0
CLASS
  1
VISUALSTYLE
  2
AcDbVisualStyle
  3
ObjectDBX Classes
 90
     4095
 91
        4
280
     0
281
     0
  0
CLASS
  1
MATERIAL
  2
AcDbMaterial
  3
ObjectDBX Classes
 90
     1153
 91
        4
280
     0
281
     0
  0
CLASS
  1
SUN
  2
AcDbSun
  3
SCENEOE
 90
     1024
 91
        4
280
     0
281
     0
  0
ENDSEC
  0
SECTION
  2
TABLES
  0
TABLE
  2
VPORT
  5
8
330
0
100
AcDbSymbolTable
 70
     1
  0
VPORT
  5
29
330
8
100
AcDbSymbolTableRecord
100
AcDbViewportTableRecord
  2
*Active
 70
     0
 10
0.0
 20
0.0
 11
1.0
 21
1.0
 12
0.0
 22
0.0
 13
0.0
 23
0.0
 14
0.5
 24
0.5
 15
0.5
 25
0.5
 16
0.0
 26
0.0
 36
1.0
 17
-403.4833377744635
 27
396.6262532408228
 37
0.0
 40
93.81531149320199
 41
3.197772422206186
 42
50.0
 43
0.0
 44
0.0
 50
0.0
 51
0.0
 71
     0
 72
   100
 73
     1
 74
     3
 75
     0
 76
     0
 77
     0
 78
     0
281
     0
 65
     1
110
0.0
120
0.0
130
0.0
111
1.0
121
0.0
131
0.0
112
0.0
122
1.0
132
0.0
 79
     0
146
0.0
  0
ENDTAB
  0
TABLE
  2
LTYPE
  5
5
330
0
100
AcDbSymbolTable
 70
     1
  0
LTYPE
  5
14
330
5
100
AcDbSymbolTableRecord
100
AcDbLinetypeTableRecord
  2
ByBlock
 70
     0
  3

 72
    65
 73
     0
 40
0.0
  0
LTYPE
  5
15
330
5
100
AcDbSymbolTableRecord
100
AcDbLinetypeTableRecord
  2
ByLayer
 70
     0
  3

 72
    65
 73
     0
 40
0.0
  0
LTYPE
  5
16
330
5
100
AcDbSymbolTableRecord
100
AcDbLinetypeTableRecord
  2
Continuous
 70
     0
  3
Solid line
 72
    65
 73
     0
 40
0.0
  0
ENDTAB
  0
TABLE
  2
LAYER
  5
2
330
0
100
AcDbSymbolTable
 70
     2
  0
LAYER
  5
10
330
2
100
AcDbSymbolTableRecord
100
AcDbLayerTableRecord
  2
0
 70
     0
 62
     7
  6
Continuous
370
    -3
390
F
  0
LAYER
  5
40
330
2
100
AcDbSymbolTableRecord
100
AcDbLayerTableRecord
  2
_U+56FE_U+5C42 1
 70
     0
 62
     7
  6
Continuous
370
    -3
390
F
  0
ENDTAB
  0
TABLE
  2
STYLE
  5
3
330
0
100
AcDbSymbolTable
 70
     1
  0
STYLE
  5
11
330
3
100
AcDbSymbolTableRecord
100
AcDbTextStyleTableRecord
  2
Standard
 70
     0
 40
0.0
 41
1.0
 50
0.0
 71
     0
 42
0.2
  3
txt
  4

  0
ENDTAB
  0
TABLE
  2
VIEW
  5
6
330
0
100
AcDbSymbolTable
 70
     0
  0
ENDTAB
  0
TABLE
  2
UCS
  5
7
330
0
100
AcDbSymbolTable
 70
     0
  0
ENDTAB
  0
TABLE
  2
APPID
  5
9
330
0
100
AcDbSymbolTable
 70
     1
  0
APPID
  5
12
330
9
100
AcDbSymbolTableRecord
100
AcDbRegAppTableRecord
  2
ACAD
 70
     0
  0
ENDTAB
  0
TABLE
  2
DIMSTYLE
  5
A
330
0
100
AcDbSymbolTable
 70
     1
100
AcDbDimStyleTable
  0
DIMSTYLE
105
27
330
A
100
AcDbSymbolTableRecord
100
AcDbDimStyleTableRecord
  2
Standard
 70
     0
178
     0
340
11
  0
ENDTAB
  0
TABLE
  2
BLOCK_RECORD
  5
1
330
0
100
AcDbSymbolTable
 70
     4
  0
BLOCK_RECORD
  5
1F
330
1
100
AcDbSymbolTableRecord
100
AcDbBlockTableRecord
  2
*Model_Space
340
22
  0
BLOCK_RECORD
  5
1B
330
1
100
AcDbSymbolTableRecord
100
AcDbBlockTableRecord
  2
*Paper_Space
340
1E
  0
BLOCK_RECORD
  5
23
330
1
100
AcDbSymbolTableRecord
100
AcDbBlockTableRecord
  2
*Paper_Space0
340
26
  0
BLOCK_RECORD
  5
41
330
1
100
AcDbSymbolTableRecord
100
AcDbBlockTableRecord
  2
block 2
340
0
102
{BLKREFS
331
42
102
}
  0
BLOCK_RECORD
  5
45
330
1
100
AcDbSymbolTableRecord
100
AcDbBlockTableRecord
  2
block 3
340
0
102
{BLKREFS
331
46
102
}
  0
BLOCK_RECORD
  5
4A
330
1
100
AcDbSymbolTableRecord
100
AcDbBlockTableRecord
  2
block 4
340
0
102
{BLKREFS
331
4B
102
}
  0
ENDTAB
  0
ENDSEC
  0
SECTION
  2
BLOCKS
  0
BLOCK
  5
20
330
1F
100
AcDbEntity
  8
0
100
AcDbBlockBegin
  2
*Model_Space
 70
     0
 10
0.0
 20
0.0
 30
0.0
  3
*Model_Space
  1

  0
ENDBLK
  5
21
330
1F
100
AcDbEntity
  8
0
100
AcDbBlockEnd
  0
BLOCK
  5
1C
330
1B
100
AcDbEntity
 67
     1
  8
0
100
AcDbBlockBegin
  2
*Paper_Space
 70
     0
 10
0.0
 20
0.0
 30
0.0
  3
*Paper_Space
  1

  0
ENDBLK
  5
1D
330
1B
100
AcDbEntity
 67
     1
  8
0
100
AcDbBlockEnd
  0
BLOCK
  5
24
330
23
100
AcDbEntity
  8
0
100
AcDbBlockBegin
  2
*Paper_Space0
 70
     0
 10
0.0
 20
0.0
 30
0.0
  3
*Paper_Space0
  1

  0
ENDBLK
  5
25
330
23
100
AcDbEntity
  8
0
100
AcDbBlockEnd
  0
BLOCK
  5
43
330
41
100
AcDbEntity
  8
0
100
AcDbBlockBegin
  2
block 2
 70
     0
 10
0.0
 20
0.0
 30
0.0
  3
block 2
  1

  0
INSERT
  5
46
330
41
100
AcDbEntity
  8
_U+56FE_U+5C42 1
100
AcDbBlockReference
  2
block 3
 10
0.0
 20
0.0
 30
0.0
  0
INSERT
  5
4B
330
41
100
AcDbEntity
  8
_U+56FE_U+5C42 1
100
AcDbBlockReference
  2
block 4
 10
0.0
 20
0.0
 30
0.0
  0
ENDBLK
  5
44
330
41
100
AcDbEntity
  8
0
100
AcDbBlockEnd
  0
BLOCK
  5
47
330
45
100
AcDbEntity
  8
0
100
AcDbBlockBegin
  2
block 3
 70
     0
 10
0.0
 20
0.0
 30
0.0
  3
block 3
  1

  0
SPLINE
  5
49
330
45
100
AcDbEntity
  8
_U+56FE_U+5C42 1
 62
     7
370
    35
100
AcDbSpline
210
0.0
220
0.0
230
1.0
 70
    11
 71
     3
 72
   341
 73
   337
 74
     0
 42
0.0000000001
 43
0.0000000001
 12
1.0
 22
0.0
 32
0.0
 13
1.0
 23
0.0
 33
0.0
 40
0.0
 40
0.0
 40
0.0
 40
0.0
 40
1.0
 40
1.0
 40
1.0
 40
2.0
 40
2.0
 40
2.0
 40
3.0
 40
3.0
 40
3.0
 40
4.0
 40
4.0
 40
4.0
 40
5.0
 40
5.0
 40
5.0
 40
6.0
 40
6.0
 40
6.0
 40
7.0
 40
7.0
 40
7.0
 40
8.0
 40
8.0
 40
8.0
 40
9.0
 40
9.0
 40
9.0
 40
10.0
 40
10.0
 40
10.0
 40
11.0
 40
11.0
 40
11.0
 40
12.0
 40
12.0
 40
12.0
 40
13.0
 40
13.0
 40
13.0
 40
14.0
 40
14.0
 40
14.0
 40
15.0
 40
15.0
 40
15.0
 40
16.0
 40
16.0
 40
16.0
 40
17.0
 40
17.0
 40
17.0
 40
18.0
 40
18.0
 40
18.0
 40
19.0
 40
19.0
 40
19.0
 40
20.0
 40
20.0
 40
20.0
 40
21.0
 40
21.0
 40
21.0
 40
22.0
 40
22.0
 40
22.0
 40
23.0
 40
23.0
 40
23.0
 40
24.0
 40
24.0
 40
24.0
 40
25.0
 40
25.0
 40
25.0
 40
26.0
 40
26.0
 40
26.0
 40
27.0
 40
27.0
 40
27.0
 40
28.0
 40
28.0
 40
28.0
 40
29.0
 40
29.0
 40
29.0
 40
30.0
 40
30.0
 40
30.0
 40
31.0
 40
31.0
 40
31.0
 40
32.0
 40
32.0
 40
32.0
 40
33.0
 40
33.0
 40
33.0
 40
34.0
 40
34.0
 40
34.0
 40
35.0
 40
35.0
 40
35.0
 40
36.0
 40
36.0
 40
36.0
 40
37.0
 40
37.0
 40
37.0
 40
38.0
 40
38.0
 40
38.0
 40
39.0
 40
39.0
 40
39.0
 40
40.0
 40
40.0
 40
40.0
 40
41.0
 40
41.0
 40
41.0
 40
42.0
 40
42.0
 40
42.0
 40
43.0
 40
43.0
 40
43.0
 40
44.0
 40
44.0
 40
44.0
 40
45.0
 40
45.0
 40
45.0
 40
46.0
 40
46.0
 40
46.0
 40
47.0
 40
47.0
 40
47.0
 40
48.0
 40
48.0
 40
48.0
 40
49.0
 40
49.0
 40
49.0
 40
50.0
 40
50.0
 40
50.0
 40
51.0
 40
51.0
 40
51.0
 40
52.0
 40
52.0
 40
52.0
 40
53.0
 40
53.0
 40
53.0
 40
54.0
 40
54.0
 40
54.0
 40
55.0
 40
55.0
 40
55.0
 40
56.0
 40
56.0
 40
56.0
 40
57.0
 40
57.0
 40
57.0
 40
58.0
 40
58.0
 40
58.0
 40
59.0
 40
59.0
 40
59.0
 40
60.0
 40
60.0
 40
60.0
 40
61.0
 40
61.0
 40
61.0
 40
62.0
 40
62.0
 40
62.0
 40
63.0
 40
63.0
 40
63.0
 40
64.0
 40
64.0
 40
64.0
 40
65.0
 40
65.0
 40
65.0
 40
66.0
 40
66.0
 40
66.0
 40
67.0
 40
67.0
 40
67.0
 40
68.0
 40
68.0
 40
68.0
 40
69.0
 40
69.0
 40
69.0
 40
70.0
 40
70.0
 40
70.0
 40
71.0
 40
71.0
 40
71.0
 40
72.0
 40
72.0
 40
72.0
 40
73.0
 40
73.0
 40
73.0
 40
74.0
 40
74.0
 40
74.0
 40
75.0
 40
75.0
 40
75.0
 40
76.0
 40
76.0
 40
76.0
 40
77.0
 40
77.0
 40
77.0
 40
78.0
 40
78.0
 40
78.0
 40
79.0
 40
79.0
 40
79.0
 40
80.0
 40
80.0
 40
80.0
 40
81.0
 40
81.0
 40
81.0
 40
82.0
 40
82.0
 40
82.0
 40
83.0
 40
83.0
 40
83.0
 40
84.0
 40
84.0
 40
84.0
 40
85.0
 40
85.0
 40
85.0
 40
86.0
 40
86.0
 40
86.0
 40
87.0
 40
87.0
 40
87.0
 40
88.0
 40
88.0
 40
88.0
 40
89.0
 40
89.0
 40
89.0
 40
90.0
 40
90.0
 40
90.0
 40
91.0
 40
91.0
 40
91.0
 40
92.0
 40
92.0
 40
92.0
 40
93.0
 40
93.0
 40
93.0
 40
94.0
 40
94.0
 40
94.0
 40
95.0
 40
95.0
 40
95.0
 40
96.0
 40
96.0
 40
96.0
 40
97.0
 40
97.0
 40
97.0
 40
98.0
 40
98.0
 40
98.0
 40
99.0
 40
99.0
 40
99.0
 40
100.0
 40
100.0
 40
100.0
 40
101.0
 40
101.0
 40
101.0
 40
102.0
 40
102.0
 40
102.0
 40
103.0
 40
103.0
 40
103.0
 40
104.0
 40
104.0
 40
104.0
 40
105.0
 40
105.0
 40
105.0
 40
106.0
 40
106.0
 40
106.0
 40
107.0
 40
107.0
 40
107.0
 40
108.0
 40
108.0
 40
108.0
 40
109.0
 40
109.0
 40
109.0
 40
110.0
 40
110.0
 40
110.0
 40
111.0
 40
111.0
 40
111.0
 40
112.0
 40
112.0
 40
112.0
 40
112.0
 10
-434.6290096388409
 20
405.058614255629
 30
0.0
 10
-433.7767426225516
 20
405.058614394887
 30
0.0
 10
-433.0236729173654
 20
405.0681577447651
 30
0.0
 10
-432.2709105590955
 20
405.0569741587047
 30
0.0
 10
-428.9365747114381
 20
405.0074259931718
 30
0.0
 10
-425.6023003330953
 20
404.9533021500361
 30
0.0
 10
-422.2680413221171
 20
404.8982600978683
 30
0.0
 10
-417.2564795106691
 20
404.8155260576851
 30
0.0
 10
-412.2449791686706
 20
404.7290154506606
 30
0.0
 10
-407.2333866223631
 20
404.6473071921022
 30
0.0
 10
-404.4444746189772
 20
404.6018351708226
 30
0.0
 10
-401.655470411439
 20
404.5621067582944
 30
0.0
 10
-398.8664815712029
 20
404.5211335770471
 30
0.0
 10
-396.0153157650057
 20
404.4792498806874
 30
0.0
 10
-393.1640884890926
 20
404.4395522133677
 30
0.0
 10
-390.3129226829272
 20
404.3978990297387
 30
0.0
 10
-387.4189122447426
 20
404.3556273106261
 30
0.0
 10
-384.5249325414653
 20
404.3126141089127
 30
0.0
 10
-381.6309374705834
 20
404.2690399929076
 30
0.0
 10
-378.8839326813634
 20
404.2276749331644
 30
0.0
 10
-376.1369432593099
 20
404.1841468956791
 30
0.0
 10
-373.3899231026925
 20
404.1434580066011
 30
0.0
 10
-370.4750128439064
 20
404.1002796075242
 30
0.0
 10
-367.5601025853973
 20
404.0587493744322
 30
0.0
 10
-364.6451615919108
 20
404.0175649104393
 30
0.0
 10
-361.6900806490685
 20
403.9758118549381
 30
0.0
 10
-358.7349536039283
 20
403.9356032347156
 30
0.0
 10
-355.7798572936341
 20
403.8942420508471
 30
0.0
 10
-352.7391946594254
 20
403.851682214799
 30
0.0
 10
-349.6985012902115
 20
403.809276053911
 30
0.0
 10
-346.6578540233235
 20
403.7654522397409
 30
0.0
 10
-343.8058891064589
 20
403.7243484449044
 30
0.0
 10
-340.9539549242263
 20
403.6807820057808
 30
0.0
 10
-338.1019900073543
 20
403.6395936896163
 30
0.0
 10
-335.144942022421
 20
403.5968916903918
 30
0.0
 10
-332.1879094048969
 20
403.5534635760746
 30
0.0
 10
-329.2307999505249
 20
403.5145266180406
 30
0.0
 10
-325.8546644628114
 20
403.4700727905726
 30
0.0
 10
-322.4784982396467
 20
403.4230641137419
 30
0.0
 10
-319.1022398137676
 20
403.390550845478
 30
0.0
 10
-316.208106437811
 20
403.362682329856
 30
0.0
 10
-313.3137425493387
 20
403.3360393735978
 30
0.0
 10
-310.419609179707
 20
403.3468816283499
 30
0.0
 10
-309.5235293785977
 20
403.3502395768065
 30
0.0
 10
-308.6221324213393
 20
403.3783622766044
 30
0.0
 10
-307.7428032555929
 20
403.6508591968779
 30
0.0
 10
-306.492164210394
 20
404.0384204466312
 30
0.0
 10
-305.5076598489141
 20
404.7831380698253
 30
0.0
 10
-304.7013572336206
 20
405.7839245669096
 30
0.0
 10
-304.2807176973972
 20
406.3059936982709
 30
0.0
 10
-303.8921962718742
 20
406.8541875999442
 30
0.0
 10
-303.4949768316039
 20
407.3948322112707
 30
0.0
 10
-302.8056209954976
 20
408.3330767449431
 30
0.0
 10
-302.3545229841006
 20
408.4856109310053
 30
0.0
 10
-301.223258677066
 20
408.1471953835169
 30
0.0
 10
-299.3388324213736
 20
407.583457611787
 30
0.0
 10
-297.4537607304155
 20
407.0219788648738
 30
0.0
 10
-295.570963430426
 20
406.4527587318772
 30
0.0
 10
-293.2484400335155
 20
405.7505942981804
 30
0.0
 10
-290.9271767721724
 20
405.0443613146687
 30
0.0
 10
-288.6070199713073
 20
404.3344439692476
 30
0.0
 10
-286.8681548231998
 20
403.8023901478547
 30
0.0
 10
-285.1330393467755
 20
403.25818446333
 30
0.0
 10
-283.3942356686797
 20
402.725819449746
 30
0.0
 10
-281.0550231481479
 20
402.0096206356695
 30
0.0
 10
-278.71359770663
 20
401.300633028387
 30
0.0
 10
-276.3737090158023
 20
400.5866548203394
 30
0.0
 10
-273.9730879025306
 20
399.854147240964
 30
0.0
 10
-271.5741572150016
 20
399.1160766208707
 30
0.0
 10
-269.1721837611416
 20
398.3880870911412
 30
0.0
 10
-268.6325380764686
 20
398.2245307168026
 30
0.0
 10
-268.0627720759393
 20
398.1442739626414
 30
0.0
 10
-267.5421821027595
 20
397.9369662698881
 30
0.0
 10
-265.7319809190113
 20
397.2161110123094
 30
0.0
 10
-263.8404548901897
 20
396.7675181900102
 30
0.0
 10
-261.978956969337
 20
396.2185024939379
 30
0.0
 10
-261.5788790636476
 20
396.1005069369987
 30
0.0
 10
-261.1634951203182
 20
396.0273653170628
 30
0.0
 10
-260.7732524201497
 20
395.8842553970705
 30
0.0
 10
-260.0128677306818
 20
395.6053889097445
 30
0.0
 10
-259.2656990982642
 20
395.2905201744121
 30
0.0
 10
-258.5120761123642
 20
394.9930090483601
 30
0.0
 10
-258.2753856305403
 20
394.8995707537444
 30
0.0
 10
-258.1462062702942
 20
394.722921189532
 30
0.0
 10
-258.0962618069485
 20
394.4813169682112
 30
0.0
 10
-257.7938596070811
 20
393.018490945251
 30
0.0
 10
-256.942960116952
 20
391.9004582629883
 30
0.0
 10
-255.8681559551924
 20
390.9197689410568
 30
0.0
 10
-255.1856537757438
 20
390.297065817742
 30
0.0
 10
-254.526817565914
 20
389.652809750732
 30
0.0
 10
-254.0120978903175
 20
388.8753211466939
 30
0.0
 10
-253.6652222553495
 20
388.351381145787
 30
0.0
 10
-253.4888338232911
 20
387.7730631650832
 30
0.0
 10
-253.4834550922585
 20
387.1563532619895
 30
0.0
 10
-253.4746647083397
 20
386.1445944923561
 30
0.0
 10
-253.9417755728427
 20
385.395020818951
 30
0.0
 10
-254.8254998118744
 20
384.9021076298245
 30
0.0
 10
-255.8478390238812
 20
384.3318881336681
 30
0.0
 10
-256.9743085843338
 20
384.169107546608
 30
0.0
 10
-258.1085541371691
 20
384.1885626353106
 30
0.0
 10
-259.426380025124
 20
384.2111526670794
 30
0.0
 10
-260.7441751941604
 20
384.3323714103371
 30
0.0
 10
-262.0582514242774
 20
384.4519227788393
 30
0.0
 10
-265.147798162792
 20
384.7330094915076
 30
0.0
 10
-268.2328883303635
 20
385.0656849528768
 30
0.0
 10
-271.3240332871154
 20
385.3265095967168
 30
0.0
 10
-274.3129842674829
 20
385.5786900300399
 30
0.0
 10
-277.3091886952292
 20
385.7102277854059
 30
0.0
 10
-280.3109561378141
 20
385.6850092027507
 30
0.0
 10
-282.892944540289
 20
385.6633175333922
 30
0.0
 10
-285.4634994845085
 20
385.476002472617
 30
0.0
 10
-288.0309809138018
 20
385.21568403217
 30
0.0
 10
-291.2882486115089
 20
384.8854356018446
 30
0.0
 10
-294.5091567308643
 20
384.3240213325666
 30
0.0
 10
-297.725239444897
 20
383.7283375055438
 30
0.0
 10
-297.8077629981342
 20
383.7130698658755
 30
0.0
 10
-297.8909934575763
 20
383.700883412855
 30
0.0
 10
-297.9725642242242
 20
383.68162790319
 30
0.0
 10
-298.7981993051405
 20
383.4868675664966
 30
0.0
 10
-299.3799827265748
 20
383.7148829757527
 30
0.0
 10
-299.8778903372823
 20
384.4712950356657
 30
0.0
 10
-300.8737055587022
 20
385.9841191554827
 30
0.0
 10
-302.1016931662252
 20
387.3069969096576
 30
0.0
 10
-303.5761756744254
 20
388.3821464393268
 30
0.0
 10
-305.4014985926524
 20
389.7130920412908
 30
0.0
 10
-307.4515251998226
 20
390.334788368921
 30
0.0
 10
-309.7016982194141
 20
390.3237579673297
 30
0.0
 10
-314.3999624845719
 20
390.3007212946112
 30
0.0
 10
-319.0982421179273
 20
390.2818569022151
 30
0.0
 10
-323.7964602792711
 20
390.2510673181691
 30
0.0
 10
-326.8376761338126
 20
390.2311313123579
 30
0.0
 10
-329.8788305158146
 20
390.1960890392858
 30
0.0
 10
-332.9199387955038
 20
390.1624567357314
 30
0.0
 10
-336.4219495852768
 20
390.1237338674999
 30
0.0
 10
-339.9238989044753
 20
390.081899077492
 30
0.0
 10
-343.4258174880212
 20
390.0361955155721
 30
0.0
 10
-346.4036577074617
 20
389.9973305834798
 30
0.0
 10
-349.3813596175985
 20
389.9482808308222
 30
0.0
 10
-352.3591844694209
 20
389.9087781468538
 30
0.0
 10
-355.756726890948
 20
389.8637046701046
 30
0.0
 10
-359.1543461512511
 20
389.825953814262
 30
0.0
 10
-362.5519193079596
 20
389.7817716533835
 30
0.0
 10
-365.529513647179
 20
389.7430527127289
 30
0.0
 10
-368.5070618832303
 20
389.7004573164007
 30
0.0
 10
-371.484610119354
 20
389.6584113087475
 30
0.0
 10
-374.3785590739014
 20
389.6175486134085
 30
0.0
 10
-377.272492660773
 20
389.5757331321302
 30
0.0
 10
-380.1664108800328
 20
389.5333682622123
 30
0.0
 10
-383.060375201845
 20
389.4909995503929
 30
0.0
 10
-385.9542780532278
 20
389.4464140745415
 30
0.0
 10
-388.8482423751434
 20
389.4046715889593
 30
0.0
 10
-391.8470438843792
 20
389.3614192278998
 30
0.0
 10
-394.8458914964782
 20
389.3201915369372
 30
0.0
 10
-397.8447083734723
 20
389.2784797692566
 30
0.0
 10
-400.8014336268881
 20
389.2373519740239
 30
0.0
 10
-403.7581588805691
 20
389.1978492935011
 30
0.0
 10
-406.7148687662713
 20
389.1555497252521
 30
0.0
 10
-409.5460260544376
 20
389.1150443349026
 30
0.0
 10
-412.3771065042926
 20
389.0700016857439
 30
0.0
 10
-415.208279160105
 20
389.0302454617354
 30
0.0
 10
-420.870055873662
 20
388.9507445394717
 30
0.0
 10
-426.53192479322
 20
388.8768566020523
 30
0.0
 10
-432.1936554037234
 20
388.7942283904736
 30
0.0
 10
-436.5326271607909
 20
388.7309019939263
 30
0.0
 10
-440.8714529248506
 20
388.6576635501917
 30
0.0
 10
-445.2103478434927
 20
388.5891544592113
 30
0.0
 10
-445.3350705951932
 20
388.5871835550263
 30
0.0
 10
-445.459854817559
 20
388.5889008544402
 30
0.0
 10
-445.6086968844194
 20
388.5889008301185
 30
0.0
 10
-445.9840867551089
 20
387.9596548144236
 30
0.0
 10
-446.6207705653515
 20
387.8287657429673
 30
0.0
 10
-447.2666287828163
 20
387.7024331382173
 30
0.0
 10
-448.9107530612555
 20
387.3808445662016
 30
0.0
 10
-450.5610550849424
 20
387.0849927389811
 30
0.0
 10
-452.1938381290184
 20
386.7128181512149
 30
0.0
 10
-454.1194798962032
 20
386.2739023977856
 30
0.0
 10
-455.582390298668
 20
385.1035429487632
 30
0.0
 10
-456.780149539637
 20
383.583780037484
 30
0.0
 10
-457.5117506761979
 20
382.6554974885319
 30
0.0
 10
-458.0466706524962
 20
381.6103142848484
 30
0.0
 10
-458.4556692002081
 20
380.5015019057443
 30
0.0
 10
-458.9332683046328
 20
379.2067041647268
 30
0.0
 10
-459.0329878934038
 20
377.8830309247007
 30
0.0
 10
-458.7022787509899
 20
376.5434984794954
 30
0.0
 10
-457.9895098806812
 20
373.6564265977222
 30
0.0
 10
-456.6533501327387
 20
371.0967289905806
 30
0.0
 10
-454.5611317670586
 20
368.96961937144
 30
0.0
 10
-453.357079080331
 20
367.7454894230892
 30
0.0
 10
-451.8825428224117
 20
366.894206168693
 30
0.0
 10
-450.342494866752
 20
366.1582945441211
 30
0.0
 10
-447.7902654543211
 20
364.9386982329886
 30
0.0
 10
-445.0846760057074
 20
364.2093256765095
 30
0.0
 10
-442.3208206558131
 20
363.6756968523079
 30
0.0
 10
-441.3341723731772
 20
363.4852012971529
 30
0.0
 10
-440.3360291990559
 20
363.354446958581
 30
0.0
 10
-439.3488891563065
 20
363.1661950607007
 30
0.0
 10
-438.8777672332157
 20
363.0763335935237
 30
0.0
 10
-438.4113631297589
 20
362.9407153495536
 30
0.0
 10
-437.9584363331134
 20
362.7813850276829
 30
0.0
 10
-437.2992160027981
 20
362.5494893335274
 30
0.0
 10
-436.8950502782424
 20
362.0651206932033
 30
0.0
 10
-436.7081965529226
 20
361.3918161037714
 30
0.0
 10
-436.3576479610938
 20
360.1287601003719
 30
0.0
 10
-436.6095828241513
 20
359.0368289621939
 30
0.0
 10
-437.5807327870251
 20
358.1205023008017
 30
0.0
 10
-438.9779777735588
 20
356.8020999064233
 30
0.0
 10
-440.6482882219565
 20
356.017465050863
 30
0.0
 10
-442.4978684761499
 20
355.5949502902949
 30
0.0
 10
-445.8920913951107
 20
354.8195894483846
 30
0.0
 10
-449.3066302962431
 20
354.8233539316411
 30
0.0
 10
-452.7464488349764
 20
355.288335955747
 30
0.0
 10
-457.1740144243619
 20
355.8868384728106
 30
0.0
 10
-461.4404209815762
 20
357.0850967092264
 30
0.0
 10
-465.6188178356591
 20
358.6228003158623
 30
0.0
 10
-468.154296609888
 20
359.5558846794264
 30
0.0
 10
-470.6659326951058
 20
360.5535894476141
 30
0.0
 10
-473.1936201427181
 20
361.5081191796822
 30
0.0
 10
-475.5172346618398
 20
362.3855885409642
 30
0.0
 10
-477.910771330504
 20
362.9946104544304
 30
0.0
 10
-480.3858018707959
 20
363.2327681142721
 30
0.0
 10
-482.3454674187907
 20
363.4213272035339
 30
0.0
 10
-484.2780476557672
 20
363.2073496084142
 30
0.0
 10
-486.1837270126953
 20
362.7181167721569
 30
0.0
 10
-488.4067071230039
 20
362.1474514218787
 30
0.0
 10
-490.5046647614199
 20
361.2505183803456
 30
0.0
 10
-492.5768510662085
 20
360.28671360134
 30
0.0
 10
-496.5858742973957
 20
358.422057090788
 30
0.0
 10
-500.5852390419802
 20
356.5365391801594
 30
0.0
 10
-504.6010624009953
 20
354.6867046367487
 30
0.0
 10
-507.2090409205259
 20
353.4853871415775
 30
0.0
 10
-509.8720159557062
 20
352.4139558745049
 30
0.0
 10
-512.6064115478557
 20
351.5312914666758
 30
0.0
 10
-514.8650173739971
 20
350.802217765614
 30
0.0
 10
-517.1766142735152
 20
350.3158893233682
 30
0.0
 10
-519.5354048454594
 20
350.0360464891617
 30
0.0
 10
-521.2456517186026
 20
349.8331489087183
 30
0.0
 10
-522.9591296249963
 20
349.7111075080916
 30
0.0
 10
-524.6795844044365
 20
349.7189677109173
 30
0.0
 10
-528.8036069002712
 20
349.7378152942503
 30
0.0
 10
-532.7477527680045
 20
350.5851794287864
 30
0.0
 10
-536.494645200559
 20
352.3256113642587
 30
0.0
 10
-538.1901547886258
 20
353.1131731814568
 30
0.0
 10
-539.8291426721876
 20
353.997365942422
 30
0.0
 10
-541.3410873451774
 20
355.1032351285269
 30
0.0
 10
-543.6504063660569
 20
356.792316747402
 30
0.0
 10
-545.5592595331912
 20
358.8634118042049
 30
0.0
 10
-547.1394073663888
 20
361.2394983018467
 30
0.0
 10
-549.7441499393544
 20
365.1562779031117
 30
0.0
 10
-551.3931791319409
 20
369.4609260562559
 30
0.0
 10
-552.1668151712995
 20
374.0853262377447
 30
0.0
 10
-552.5294533429175
 20
376.2529833279222
 30
0.0
 10
-552.7220317166525
 20
378.4505609976432
 30
0.0
 10
-552.9506132951851
 20
380.6388643661557
 30
0.0
 10
-553.3694075490689
 20
384.6481413975996
 30
0.0
 10
-553.4976568428253
 20
388.6721405559185
 30
0.0
 10
-553.4820921293863
 20
392.7012801715138
 30
0.0
 10
-553.4758541425919
 20
394.3159680284654
 30
0.0
 10
-553.501152217972
 20
395.9330263194627
 30
0.0
 10
-553.421507453206
 20
397.5445292709254
 30
0.0
 10
-553.3460464805785
 20
399.0713495301032
 30
0.0
 10
-553.1757756234294
 20
400.594992571039
 30
0.0
 10
-553.0041697128441
 20
402.1151702375518
 30
0.0
 10
-552.7878972239948
 20
404.0310383722299
 30
0.0
 10
-552.5643424540416
 20
405.9474097942157
 30
0.0
 10
-552.2797383080723
 20
407.853976751582
 30
0.0
 10
-551.5547256750333
 20
412.7108569453978
 30
0.0
 10
-550.6185720217013
 20
417.5191066723822
 30
0.0
 10
-548.8936018704571
 20
422.1421875767927
 30
0.0
 10
-547.4161926733148
 20
426.1017951885381
 30
0.0
 10
-545.4301378893065
 20
429.7638570572925
 30
0.0
 10
-542.7348703018891
 20
433.0364831596934
 30
0.0
 10
-539.5935222603114
 20
436.850742204715
 30
0.0
 10
-535.823971194173
 20
439.8063952361321
 30
0.0
 10
-531.1721708921342
 20
441.5516971647914
 30
0.0
 10
-528.0732655728776
 20
442.7143702422173
 30
0.0
 10
-524.8777676646064
 20
443.4285928337883
 30
0.0
 10
-521.5490832438521
 20
443.521342093741
 30
0.0
 10
-516.6454129494244
 20
443.6579773920987
 30
0.0
 10
-511.9699654380195
 20
442.6761279308796
 30
0.0
 10
-507.4766381941681
 20
440.7571726556849
 30
0.0
 10
-504.9718521670173
 20
439.6874566714038
 30
0.0
 10
-502.4599279314521
 20
438.6319700467369
 30
0.0
 10
-499.9819005801286
 20
437.5027471979882
 30
0.0
 10
-497.0072488922168
 20
436.1472214435223
 30
0.0
 10
-494.0744121977731
 20
434.7002243908527
 30
0.0
 10
-491.1068679829581
 20
433.3287606011997
 30
0.0
 10
-487.2145911648773
 20
431.5299244485971
 30
0.0
 10
-483.1934040062936
 20
430.0943840562231
 30
0.0
 10
-478.9817596458713
 20
429.2447590197446
 30
0.0
 10
-475.2604619713253
 20
428.4940488346076
 30
0.0
 10
-471.5248188467419
 20
428.5098703017326
 30
0.0
 10
-467.7870243710553
 20
429.1437693820068
 30
0.0
 10
-463.9359175263893
 20
429.7968855583565
 30
0.0
 10
-460.1808577078257
 20
430.7996549467015
 30
0.0
 10
-456.4916246869694
 20
432.0904153979216
 30
0.0
 10
-452.3374244740563
 20
433.5438564392664
 30
0.0
 10
-448.1078772955138
 20
434.7560582419163
 30
0.0
 10
-443.813194865625
 20
435.7303488316672
 30
0.0
 10
-440.2622386657644
 20
436.5359145499877
 30
0.0
 10
-436.6754761001116
 20
437.0001543186711
 30
0.0
 10
-433.0246462688182
 20
436.8801922509691
 30
0.0
 10
-429.7357367860395
 20
436.7721226598275
 30
0.0
 10
-426.5138142346288
 20
436.2560042333793
 30
0.0
 10
-423.3866938010401
 20
435.2354576756047
 30
0.0
 10
-420.9339768006971
 20
434.4350007160839
 30
0.0
 10
-418.752265853592
 20
433.179256107168
 30
0.0
 10
-417.1087558875497
 20
431.1250076453684
 30
0.0
 10
-416.6484218806773
 20
430.5496153017281
 30
0.0
 10
-416.291695652605
 20
429.927941748693
 30
0.0
 10
-416.0716019845078
 20
429.2071765154549
 30
0.0
 10
-415.5495979544762
 20
427.4975674463207
 30
0.0
 10
-416.8959455985063
 20
425.366949630019
 30
0.0
 10
-418.5330776795845
 20
425.1798902067034
 30
0.0
 10
-419.9270495748132
 20
425.0206152903017
 30
0.0
 10
-421.3198996376647
 20
424.8382141848903
 30
0.0
 10
-422.7183281212469
 20
424.7339357621805
 30
0.0
 10
-427.6373620512131
 20
424.3671296630089
 30
0.0
 10
-432.0193779493298
 20
422.6601534004588
 30
0.0
 10
-435.8073776833904
 20
419.4971858649191
 30
0.0
 10
-438.2787964815522
 20
417.4335625465771
 30
0.0
 10
-439.7837291097424
 20
414.7691079671131
 30
0.0
 10
-440.4380850702905
 20
411.6272347789191
 30
0.0
 10
-440.6430337737529
 20
410.643156710808
 30
0.0
 10
-440.5738644288012
 20
409.6652794798114
 30
0.0
 10
-440.1383335334942
 20
408.736755083203
 30
0.0
 10
-439.8426701249911
 20
408.1064219254679
 30
0.0
 10
-439.4111732753528
 20
407.6245274595267
 30
0.0
 10
-438.7389443397018
 20
407.3689888456097
 30
0.0
 10
-437.7011298824188
 20
406.9744856948673
 30
0.0
 10
-436.671859759818
 20
406.5574652913201
 30
0.0
 10
-435.6400847333702
 20
406.1471835435144
 30
0.0
 10
-435.4456395530023
 20
406.0698619233927
 30
0.0
 10
-435.2512558421776
 20
405.989343860129
 30
0.0
 10
-435.0659850651449
 20
405.892739849011
 30
0.0
 10
-434.7729879985266
 20
405.7399445367861
 30
0.0
 10
-434.5421986244651
 20
405.5363096327746
 30
0.0
 10
-434.6290096388409
 20
405.058614255629
 30
0.0
  0
ENDBLK
  5
48
330
45
100
AcDbEntity
  8
0
100
AcDbBlockEnd
  0
BLOCK
  5
4C
330
4A
100
AcDbEntity
  8
0
100
AcDbBlockBegin
  2
block 4
 70
     0
 10
0.0
 20
0.0
 30
0.0
  3
block 4
  1

  0
SPLINE
  5
4E
330
4A
100
AcDbEntity
  8
_U+56FE_U+5C42 1
 62
     7
370
    35
100
AcDbSpline
210
0.0
220
0.0
230
1.0
 70
    11
 71
     3
 72
   182
 73
   178
 74
     0
 42
0.0000000001
 43
0.0000000001
 12
1.0
 22
0.0
 32
0.0
 13
1.0
 23
0.0
 33
0.0
 40
0.0
 40
0.0
 40
0.0
 40
0.0
 40
1.0
 40
1.0
 40
1.0
 40
2.0
 40
2.0
 40
2.0
 40
3.0
 40
3.0
 40
3.0
 40
4.0
 40
4.0
 40
4.0
 40
5.0
 40
5.0
 40
5.0
 40
6.0
 40
6.0
 40
6.0
 40
7.0
 40
7.0
 40
7.0
 40
8.0
 40
8.0
 40
8.0
 40
9.0
 40
9.0
 40
9.0
 40
10.0
 40
10.0
 40
10.0
 40
11.0
 40
11.0
 40
11.0
 40
12.0
 40
12.0
 40
12.0
 40
13.0
 40
13.0
 40
13.0
 40
14.0
 40
14.0
 40
14.0
 40
15.0
 40
15.0
 40
15.0
 40
16.0
 40
16.0
 40
16.0
 40
17.0
 40
17.0
 40
17.0
 40
18.0
 40
18.0
 40
18.0
 40
19.0
 40
19.0
 40
19.0
 40
20.0
 40
20.0
 40
20.0
 40
21.0
 40
21.0
 40
21.0
 40
22.0
 40
22.0
 40
22.0
 40
23.0
 40
23.0
 40
23.0
 40
24.0
 40
24.0
 40
24.0
 40
25.0
 40
25.0
 40
25.0
 40
26.0
 40
26.0
 40
26.0
 40
27.0
 40
27.0
 40
27.0
 40
28.0
 40
28.0
 40
28.0
 40
29.0
 40
29.0
 40
29.0
 40
30.0
 40
30.0
 40
30.0
 40
31.0
 40
31.0
 40
31.0
 40
32.0
 40
32.0
 40
32.0
 40
33.0
 40
33.0
 40
33.0
 40
34.0
 40
34.0
 40
34.0
 40
35.0
 40
35.0
 40
35.0
 40
36.0
 40
36.0
 40
36.0
 40
37.0
 40
37.0
 40
37.0
 40
38.0
 40
38.0
 40
38.0
 40
39.0
 40
39.0
 40
39.0
 40
40.0
 40
40.0
 40
40.0
 40
41.0
 40
41.0
 40
41.0
 40
42.0
 40
42.0
 40
42.0
 40
43.0
 40
43.0
 40
43.0
 40
44.0
 40
44.0
 40
44.0
 40
45.0
 40
45.0
 40
45.0
 40
46.0
 40
46.0
 40
46.0
 40
47.0
 40
47.0
 40
47.0
 40
48.0
 40
48.0
 40
48.0
 40
49.0
 40
49.0
 40
49.0
 40
50.0
 40
50.0
 40
50.0
 40
51.0
 40
51.0
 40
51.0
 40
52.0
 40
52.0
 40
52.0
 40
53.0
 40
53.0
 40
53.0
 40
54.0
 40
54.0
 40
54.0
 40
55.0
 40
55.0
 40
55.0
 40
56.0
 40
56.0
 40
56.0
 40
57.0
 40
57.0
 40
57.0
 40
58.0
 40
58.0
 40
58.0
 40
59.0
 40
59.0
 40
59.0
 40
59.0
 10
-458.1302046748178
 20
405.4439546969583
 30
0.0
 10
-458.1302046182524
 20
405.0977476345058
 30
0.0
 10
-458.127530626591
 20
404.828193737477
 30
0.0
 10
-458.1306117693196
 20
404.5587013095747
 30
0.0
 10
-458.1787190864249
 20
400.3437261712277
 30
0.0
 10
-458.2406033807667
 20
396.1288509194879
 30
0.0
 10
-458.2680567576334
 20
391.9137451606395
 30
0.0
 10
-458.2759554622536
 20
390.7012981675561
 30
0.0
 10
-458.1850948313991
 20
389.4882057549808
 30
0.0
 10
-458.1383927501942
 20
388.2457460139619
 30
0.0
 10
-458.0038578360194
 20
388.2224527250287
 30
0.0
 10
-457.9066121977483
 20
388.2032663983962
 30
0.0
 10
-457.8086596545916
 20
388.1890553048758
 30
0.0
 10
-457.2940322989281
 20
388.1144076846844
 30
0.0
 10
-457.1024608009878
 20
387.7746588517302
 30
0.0
 10
-457.3286167591577
 20
387.3043744359332
 30
0.0
 10
-457.3995608682057
 20
387.1568654894045
 30
0.0
 10
-457.5049051605844
 20
387.0150117827888
 30
0.0
 10
-457.6251943663376
 20
386.9037509542851
 30
0.0
 10
-459.5335397786578
 20
385.1386570750119
 30
0.0
 10
-460.4194996971245
 20
382.8464460714672
 30
0.0
 10
-460.883728871856
 20
380.3789455766095
 30
0.0
 10
-461.4906299322544
 20
377.153104294026
 30
0.0
 10
-461.1480875080298
 20
374.0067439543375
 30
0.0
 10
-459.9611462467236
 20
370.9308130740276
 30
0.0
 10
-459.1647321265869
 20
368.8669328837669
 30
0.0
 10
-458.0728468263651
 20
366.9956922264998
 30
0.0
 10
-456.5951216826729
 20
365.3708159495467
 30
0.0
 10
-455.8530934021595
 20
364.5549009113141
 30
0.0
 10
-454.9509356386858
 20
363.8839784035995
 30
0.0
 10
-454.1158878036338
 20
363.1535451829386
 30
0.0
 10
-453.674901529183
 20
362.7678129438801
 30
0.0
 10
-453.1883582639527
 20
362.4282600949321
 30
0.0
 10
-452.7821256194038
 20
362.0098488294704
 30
0.0
 10
-451.8118743431497
 20
361.0105455878685
 30
0.0
 10
-452.2096468882551
 20
359.7005724387971
 30
0.0
 10
-453.5645622157122
 20
359.3679807732654
 30
0.0
 10
-454.2675030602212
 20
359.1954341996056
 30
0.0
 10
-454.9814317140201
 20
359.2434498836715
 30
0.0
 10
-455.6929630373597
 20
359.3030373069621
 30
0.0
 10
-456.8477933892134
 20
359.3997448903771
 30
0.0
 10
-457.9572511886071
 20
359.714863288638
 30
0.0
 10
-459.0774816094392
 20
359.9895881718605
 30
0.0
 10
-461.8954306379758
 20
360.6806571787529
 30
0.0
 10
-464.5822794596584
 20
361.7628217809332
 30
0.0
 10
-467.3139399332106
 20
362.7105052517296
 30
0.0
 10
-469.8741296642764
 20
363.5987087836006
 30
0.0
 10
-472.494652222798
 20
364.2630921329035
 30
0.0
 10
-475.1437506556683
 20
364.80587233106
 30
0.0
 10
-477.9567436418599
 20
365.3822228390302
 30
0.0
 10
-480.8060422933294
 20
365.4139486082452
 30
0.0
 10
-483.6616492690812
 20
365.1969588293663
 30
0.0
 10
-486.1394535761544
 20
365.0086909978132
 30
0.0
 10
-488.4534708072082
 20
364.2035788233005
 30
0.0
 10
-490.7461425470242
 20
363.3197849752959
 30
0.0
 10
-491.9782176197884
 20
362.844836354323
 30
0.0
 10
-493.2294790415983
 20
362.4097894830022
 30
0.0
 10
-494.4282757484912
 20
361.8610230090013
 30
0.0
 10
-495.837346147864
 20
361.2159790189579
 30
0.0
 10
-497.1968716611502
 20
360.4631011840032
 30
0.0
 10
-498.5817382156193
 20
359.7646166643735
 30
0.0
 10
-499.7048422243197
 20
359.1981545091845
 30
0.0
 10
-500.8329099419794
 20
358.6415198790382
 30
0.0
 10
-501.9602323349341
 20
358.0834483863592
 30
0.0
 10
-502.4677214266181
 20
357.8322278514135
 30
0.0
 10
-502.987158764993
 20
357.60392796319
 30
0.0
 10
-503.4866260114129
 20
357.3379008288194
 30
0.0
 10
-505.2312345295
 20
356.4086883796821
 30
0.0
 10
-507.0515396137399
 20
355.656786306643
 30
0.0
 10
-508.9180548339249
 20
355.0165061715161
 30
0.0
 10
-510.7819422091821
 20
354.3771250364382
 30
0.0
 10
-512.6393905915344
 20
353.7125795965433
 30
0.0
 10
-514.5262716233833
 20
353.1479998371445
 30
0.0
 10
-517.8453665676384
 20
352.154873635707
 30
0.0
 10
-521.2347180296495
 20
351.6568733896922
 30
0.0
 10
-524.7103812700169
 20
351.9555020576878
 30
0.0
 10
-525.5934832176245
 20
352.0313867026334
 30
0.0
 10
-526.4404945806167
 20
352.2568741123349
 30
0.0
 10
-527.2677010739746
 20
352.5763953497649
 30
0.0
 10
-528.9225059323493
 20
353.2156068672341
 30
0.0
 10
-529.952955780672
 20
355.2785572845862
 30
0.0
 10
-529.6861337380357
 20
356.9862263338402
 30
0.0
 10
-529.4336995163122
 20
358.6017978631328
 30
0.0
 10
-528.5717895805326
 20
359.8025848937299
 30
0.0
 10
-527.4072548300426
 20
360.8509415921419
 30
0.0
 10
-525.5803149670642
 20
362.4956271359488
 30
0.0
 10
-523.5066303878592
 20
363.8162195117463
 30
0.0
 10
-521.5522976397577
 20
365.2933761112134
 30
0.0
 10
-519.403558166721
 20
366.9174692374481
 30
0.0
 10
-517.4242532608253
 20
368.7259648326528
 30
0.0
 10
-515.6189931760953
 20
370.7158892819171
 30
0.0
 10
-514.2936528156966
 20
372.176809998976
 30
0.0
 10
-513.1915755841899
 20
373.8127436245239
 30
0.0
 10
-512.1772046125008
 20
375.5076808097215
 30
0.0
 10
-511.2468324550554
 20
377.0622434151051
 30
0.0
 10
-510.4889606658827
 20
378.6902703979225
 30
0.0
 10
-509.9281426954169
 20
380.4119854039593
 30
0.0
 10
-509.6867806253658
 20
381.15299165084
 30
0.0
 10
-509.5531986248612
 20
381.9114476934258
 30
0.0
 10
-509.4844175962555
 20
382.6875456326891
 30
0.0
 10
-509.3924162952523
 20
383.7256981258776
 30
0.0
 10
-509.1454374382741
 20
384.7103563245409
 30
0.0
 10
-508.3820370472396
 20
385.491886793872
 30
0.0
 10
-507.7306235614187
 20
386.1587602152245
 30
0.0
 10
-507.4831413897381
 20
386.968539934766
 30
0.0
 10
-507.4848742286078
 20
387.8960194112336
 30
0.0
 10
-507.4962279744044
 20
393.9797419962284
 30
0.0
 10
-507.4952147124825
 20
400.0634991601465
 30
0.0
 10
-507.4870132953971
 20
406.1472332739698
 30
0.0
 10
-507.48576867781
 20
407.0721502177951
 30
0.0
 10
-507.7368624791587
 20
407.8758712130661
 30
0.0
 10
-508.3894056964162
 20
408.5497327988242
 30
0.0
 10
-508.7643577590116
 20
408.9369326463601
 30
0.0
 10
-508.8573274608775
 20
409.4130259306914
 30
0.0
 10
-508.779783067077
 20
409.9458676340298
 30
0.0
 10
-508.5884039334895
 20
411.2609888669096
 30
0.0
 10
-508.0172627434049
 20
412.4233685880441
 30
0.0
 10
-507.3568554943959
 20
413.5492082148883
 30
0.0
 10
-507.1240223389713
 20
413.946124273117
 30
0.0
 10
-506.8630551031553
 20
414.3293824569618
 30
0.0
 10
-506.5857982988365
 20
414.6969004661887
 30
0.0
 10
-505.2810696618546
 20
416.4263838726235
 30
0.0
 10
-503.4948267164677
 20
417.4339399202001
 30
0.0
 10
-501.4562567894287
 20
418.0220320023956
 30
0.0
 10
-499.7314146670296
 20
418.5196170535274
 30
0.0
 10
-497.9628288464098
 20
418.6091177500678
 30
0.0
 10
-496.1677186782058
 20
418.596885501423
 30
0.0
 10
-493.6335386086399
 20
418.5796089867232
 30
0.0
 10
-491.2344235215471
 20
417.9065045364685
 30
0.0
 10
-488.8274018541093
 20
417.2709813455204
 30
0.0
 10
-487.086300744388
 20
416.8112739433933
 30
0.0
 10
-485.3849169530317
 20
416.2032584890587
 30
0.0
 10
-483.6568935900945
 20
415.6914821019814
 30
0.0
 10
-480.8206956131268
 20
414.8514980355089
 30
0.0
 10
-477.9345532463392
 20
414.2198974810615
 30
0.0
 10
-475.0172071652837
 20
413.7413151207904
 30
0.0
 10
-473.1573920271779
 20
413.4362164649472
 30
0.0
 10
-471.2943112889662
 20
413.1117163218963
 30
0.0
 10
-469.4193975906963
 20
412.9495509258561
 30
0.0
 10
-467.7116670908483
 20
412.8018424922602
 30
0.0
 10
-465.9937018211452
 20
412.6245170169916
 30
0.0
 10
-464.2706499545745
 20
412.7568508123716
 30
0.0
 10
-461.7813891655091
 20
412.9480231061403
 30
0.0
 10
-459.3066814328963
 20
413.2598726512157
 30
0.0
 10
-456.8743803993692
 20
413.8247367987664
 30
0.0
 10
-455.0996706767206
 20
414.236893841971
 30
0.0
 10
-453.3469979860894
 20
414.7435995178241
 30
0.0
 10
-451.5826229246751
 20
415.2008947928826
 30
0.0
 10
-451.2798291050182
 20
415.2793690578789
 30
0.0
 10
-450.9694898351515
 20
415.355810970244
 30
0.0
 10
-450.6593349657339
 20
415.3727268130971
 30
0.0
 10
-450.1136421954784
 20
415.4024860951245
 30
0.0
 10
-449.8071985451367
 20
415.2002995917749
 30
0.0
 10
-449.7019386640629
 20
414.6687449476836
 30
0.0
 10
-449.6182010055306
 20
414.2458117382319
 30
0.0
 10
-449.6138826601631
 20
413.7951132580066
 30
0.0
 10
-449.6489589425913
 20
413.3627981612033
 30
0.0
 10
-449.7945120681434
 20
411.5690672057012
 30
0.0
 10
-449.595064492002
 20
409.8415664544842
 30
0.0
 10
-448.7054772048785
 20
408.2468219365409
 30
0.0
 10
-448.4728897967033
 20
407.829870556629
 30
0.0
 10
-448.1638336404246
 20
407.4539965569016
 30
0.0
 10
-447.8747475687251
 20
407.0706885185155
 30
0.0
 10
-447.6731871978637
 20
406.803424413724
 30
0.0
 10
-447.4262619280432
 20
406.5693464650703
 30
0.0
 10
-447.2345444495588
 20
406.295931510781
 30
0.0
 10
-446.9557469268332
 20
405.8983239979757
 30
0.0
 10
-447.1051268005577
 20
405.5545641878861
 30
0.0
 10
-447.593690826957
 20
405.4837237056285
 30
0.0
 10
-447.9237158882606
 20
405.4358730517611
 30
0.0
 10
-448.2631919803125
 20
405.4431418309012
 30
0.0
 10
-448.5984496882617
 20
405.4429266309119
 30
0.0
 10
-451.5144587170104
 20
405.4410666851275
 30
0.0
 10
-454.4304677463915
 20
405.4430908787609
 30
0.0
 10
-457.3464767755846
 20
405.4439471412521
 30
0.0
 10
-457.5755910572396
 20
405.4440124157601
 30
0.0
 10
-457.8046976551245
 20
405.443954750136
 30
0.0
 10
-458.1302046748178
 20
405.4439546969583
 30
0.0
  0
ENDBLK
  5
4D
330
4A
100
AcDbEntity
  8
0
100
AcDbBlockEnd
  0
ENDSEC
  0
SECTION
  2
ENTITIES
  0
INSERT
  5
42
330
1F
100
AcDbEntity
  8
_U+56FE_U+5C42 1
100
AcDbBlockReference
  2
block 2
 10
0.0
 20
0.0
 30
0.0
  0
ENDSEC
  0
SECTION
  2
OBJECTS
  0
DICTIONARY
  5
C
330
0
100
AcDbDictionary
281
     1
  3
ACAD_GROUP
350
D
  3
ACAD_LAYOUT
350
1A
  3
ACAD_MATERIAL
350
3B
  3
ACAD_MLEADERSTYLE
350
76
  3
ACAD_MLINESTYLE
350
17
  3
ACAD_PLOTSETTINGS
350
19
  3
ACAD_PLOTSTYLENAME
350
E
  3
ACAD_TABLESTYLE
350
75
  3
ACAD_VISUALSTYLE
350
2A
  0
DICTIONARY
  5
D
102
{ACAD_REACTORS
330
C
102
}
330
C
100
AcDbDictionary
281
     1
  0
DICTIONARY
  5
1A
102
{ACAD_REACTORS
330
C
102
}
330
C
100
AcDbDictionary
281
     1
  3
Layout1
350
1E
  3
Layout2
350
26
  3
Model
350
22
  0
DICTIONARY
  5
3B
102
{ACAD_REACTORS
330
C
102
}
330
C
100
AcDbDictionary
281
     1
  3
ByBlock
350
3D
  3
ByLayer
350
3C
  3
Global
350
3E
  0
DICTIONARY
  5
76
102
{ACAD_REACTORS
330
C
102
}
330
C
100
AcDbDictionary
281
     1
  0
DICTIONARY
  5
17
102
{ACAD_REACTORS
330
C
102
}
330
C
100
AcDbDictionary
281
     1
  3
Standard
350
18
  0
DICTIONARY
  5
19
102
{ACAD_REACTORS
330
C
102
}
330
C
100
AcDbDictionary
281
     1
  0
ACDBDICTIONARYWDFLT
  5
E
102
{ACAD_REACTORS
330
C
102
}
330
C
100
AcDbDictionary
281
     1
  3
Normal
350
F
100
AcDbDictionaryWithDefault
340
F
  0
DICTIONARY
  5
75
102
{ACAD_REACTORS
330
C
102
}
330
C
100
AcDbDictionary
281
     1
  0
DICTIONARY
  5
2A
102
{ACAD_REACTORS
330
C
102
}
330
C
100
AcDbDictionary
281
     1
  3
2dWireframe
350
2F
  3
3D Hidden
350
31
  3
3dWireframe
350
30
  3
Basic
350
32
  3
Brighten
350
36
  3
ColorChange
350
3A
  3
Conceptual
350
34
  3
Dim
350
35
  3
Facepattern
350
39
  3
Flat
350
2B
  3
FlatWithEdges
350
2C
  3
Gouraud
350
2D
  3
GouraudWithEdges
350
2E
  3
Linepattern
350
38
  3
Realistic
350
33
  3
Thicken
350
37
  0
LAYOUT
  5
1E
102
{ACAD_REACTORS
330
1A
102
}
330
1A
100
AcDbPlotSettings
  1

  2
none_device
  4

  6

 40
0.0
 41
0.0
 42
0.0
 43
0.0
 44
0.0
 45
0.0
 46
0.0
 47
0.0
 48
0.0
 49
0.0
140
0.0
141
0.0
142
1.0
143
1.0
 70
   688
 72
     0
 73
     0
 74
     5
  7

 75
    16
 76
     0
 77
     2
 78
   300
147
1.0
148
0.0
149
0.0
100
AcDbLayout
  1
Layout1
 70
     1
 71
     1
 10
0.0
 20
0.0
 11
12.0
 21
9.0
 12
0.0
 22
0.0
 32
0.0
 14
1.000000000000000E+20
 24
1.000000000000000E+20
 34
1.000000000000000E+20
 15
-1.000000000000000E+20
 25
-1.000000000000000E+20
 35
-1.000000000000000E+20
146
0.0
 13
0.0
 23
0.0
 33
0.0
 16
1.0
 26
0.0
 36
0.0
 17
0.0
 27
1.0
 37
0.0
 76
     0
330
1B
  0
LAYOUT
  5
26
102
{ACAD_REACTORS
330
1A
102
}
330
1A
100
AcDbPlotSettings
  1

  2
none_device
  4

  6

 40
0.0
 41
0.0
 42
0.0
 43
0.0
 44
0.0
 45
0.0
 46
0.0
 47
0.0
 48
0.0
 49
0.0
140
0.0
141
0.0
142
1.0
143
1.0
 70
   688
 72
     0
 73
     0
 74
     5
  7

 75
    16
 76
     0
 77
     2
 78
   300
147
1.0
148
0.0
149
0.0
100
AcDbLayout
  1
Layout2
 70
     1
 71
     2
 10
0.0
 20
0.0
 11
0.0
 21
0.0
 12
0.0
 22
0.0
 32
0.0
 14
0.0
 24
0.0
 34
0.0
 15
0.0
 25
0.0
 35
0.0
146
0.0
 13
0.0
 23
0.0
 33
0.0
 16
1.0
 26
0.0
 36
0.0
 17
0.0
 27
1.0
 37
0.0
 76
     0
330
23
  0
LAYOUT
  5
22
102
{ACAD_REACTORS
330
1A
102
}
330
1A
100
AcDbPlotSettings
  1

  2
none_device
  4

  6

 40
0.0
 41
0.0
 42
0.0
 43
0.0
 44
0.0
 45
0.0
 46
0.0
 47
0.0
 48
0.0
 49
0.0
140
0.0
141
0.0
142
1.0
143
1.0
 70
  1712
 72
     0
 73
     0
 74
     0
  7

 75
     0
 76
     0
 77
     2
 78
   300
147
1.0
148
0.0
149
0.0
100
AcDbLayout
  1
Model
 70
     1
 71
     0
 10
0.0
 20
0.0
 11
12.0
 21
9.0
 12
0.0
 22
0.0
 32
0.0
 14
1.000000000000000E+20
 24
1.000000000000000E+20
 34
1.000000000000000E+20
 15
-1.000000000000000E+20
 25
-1.000000000000000E+20
 35
-1.000000000000000E+20
146
0.0
 13
0.0
 23
0.0
 33
0.0
 16
1.0
 26
0.0
 36
0.0
 17
0.0
 27
1.0
 37
0.0
 76
     0
330
1F
331
29
  0
MATERIAL
  5
3D
102
{ACAD_REACTORS
330
3B
102
}
102
{ACAD_XDICTIONARY
360
71
102
}
330
3B
100
AcDbMaterial
  1
ByBlock
  0
MATERIAL
  5
3C
102
{ACAD_REACTORS
330
3B
102
}
102
{ACAD_XDICTIONARY
360
6F
102
}
330
3B
100
AcDbMaterial
  1
ByLayer
  0
MATERIAL
  5
3E
102
{ACAD_REACTORS
330
3B
102
}
102
{ACAD_XDICTIONARY
360
73
102
}
330
3B
100
AcDbMaterial
  1
Global
  0
MLINESTYLE
  5
18
102
{ACAD_REACTORS
330
17
102
}
330
17
100
AcDbMlineStyle
  2
Standard
 70
     0
  3

 62
   256
 51
90.0
 52
90.0
 71
     2
 49
0.5
 62
   256
  6
BYLAYER
 49
-0.5
 62
   256
  6
BYLAYER
  0
ACDBPLACEHOLDER
  5
F
102
{ACAD_REACTORS
330
E
102
}
330
E
  0
VISUALSTYLE
  5
2F
102
{ACAD_REACTORS
330
2A
102
}
102
{ACAD_XDICTIONARY
360
57
102
}
330
2A
100
AcDbVisualStyle
  2
2dWireframe
 70
     4
 71
     0
 72
     2
 73
     0
 90
        0
 40
-0.6
 41
-30.0
 62
     5
 63
     7
421
 16777215
 74
     1
 91
        4
 64
     7
 65
   257
 75
     1
175
     1
 42
1.0
 92
        0
 66
   257
 43
1.0
 76
     1
 77
     6
 78
     2
 67
     7
 79
     5
170
     0
171
     0
290
     0
174
     0
 93
        1
 44
0.0
173
     0
291
     0
 45
0.0
1001
ACAD
1000
AcDbSavedByObjectVersion
1070
     0
  0
VISUALSTYLE
  5
31
102
{ACAD_REACTORS
330
2A
102
}
102
{ACAD_XDICTIONARY
360
5B
102
}
330
2A
100
AcDbVisualStyle
  2
3D Hidden
 70
     6
 71
     1
 72
     2
 73
     2
 90
        0
 40
-0.6
 41
-30.0
 62
     5
 63
     7
421
 16777215
 74
     2
 91
        2
 64
     7
 65
   257
 75
     2
175
     1
 42
40.0
 92
        0
 66
   257
 43
1.0
 76
     1
 77
     6
 78
     2
 67
     7
 79
     3
170
     0
171
     0
290
     0
174
     0
 93
        1
 44
0.0
173
     0
291
     0
 45
0.0
1001
ACAD
1000
AcDbSavedByObjectVersion
1070
     0
  0
VISUALSTYLE
  5
30
102
{ACAD_REACTORS
330
2A
102
}
102
{ACAD_XDICTIONARY
360
59
102
}
330
2A
100
AcDbVisualStyle
  2
3dWireframe
 70
     5
 71
     0
 72
     2
 73
     0
 90
        0
 40
-0.6
 41
-30.0
 62
     5
 63
     7
421
 16777215
 74
     1
 91
        4
 64
     7
 65
   257
 75
     1
175
     1
 42
1.0
 92
        0
 66
   257
 43
1.0
 76
     1
 77
     6
 78
     2
 67
     7
 79
     5
170
     0
171
     0
290
     0
174
     0
 93
        1
 44
0.0
173
     0
291
     0
 45
0.0
1001
ACAD
1000
AcDbSavedByObjectVersion
1070
     0
  0
VISUALSTYLE
  5
32
102
{ACAD_REACTORS
330
2A
102
}
102
{ACAD_XDICTIONARY
360
5D
102
}
330
2A
100
AcDbVisualStyle
  2
Basic
 70
     7
 71
     1
 72
     0
 73
     1
 90
        0
 40
-0.6
 41
-30.0
 62
     5
 63
     7
421
 16777215
 74
     0
 91
        4
 64
     7
 65
   257
 75
     1
175
     1
 42
1.0
 92
        8
 66
     7
 43
1.0
 76
     1
 77
     6
 78
     2
 67
     7
 79
     5
170
     0
171
     0
290
     0
174
     0
 93
        1
 44
0.0
173
     0
291
     1
 45
0.0
1001
ACAD
1000
AcDbSavedByObjectVersion
1070
     0
  0
VISUALSTYLE
  5
36
102
{ACAD_REACTORS
330
2A
102
}
102
{ACAD_XDICTIONARY
360
65
102
}
330
2A
100
AcDbVisualStyle
  2
Brighten
 70
    12
 71
     2
 72
     2
 73
     0
 90
        0
 40
-0.6
 41
-30.0
 62
     5
 63
     7
421
 16777215
 74
     1
 91
        4
 64
     7
 65
   257
 75
     1
175
     1
 42
1.0
 92
        8
 66
     7
 43
1.0
 76
     1
 77
     6
 78
     2
 67
     7
 79
     5
170
     0
171
     0
290
     0
174
     0
 93
        1
 44
50.0
173
     0
291
     1
 45
0.0
1001
ACAD
1000
AcDbSavedByObjectVersion
1070
     0
  0
VISUALSTYLE
  5
3A
102
{ACAD_REACTORS
330
2A
102
}
102
{ACAD_XDICTIONARY
360
6D
102
}
330
2A
100
AcDbVisualStyle
  2
ColorChange
 70
    16
 71
     2
 72
     2
 73
     3
 90
        0
 40
-0.6
 41
-30.0
 62
     5
 63
     8
421
  8421504
 74
     1
 91
        4
 64
     7
 65
   257
 75
     1
175
     1
 42
1.0
 92
        8
 66
     8
424
  8421504
 43
1.0
 76
     1
 77
     6
 78
     2
 67
     7
 79
     5
170
     0
171
     0
290
     0
174
     0
 93
        1
 44
0.0
173
     0
291
     1
 45
0.0
1001
ACAD
1000
AcDbSavedByObjectVersion
1070
     0
  0
VISUALSTYLE
  5
34
102
{ACAD_REACTORS
330
2A
102
}
102
{ACAD_XDICTIONARY
360
61
102
}
330
2A
100
AcDbVisualStyle
  2
Conceptual
 70
     9
 71
     3
 72
     2
 73
     0
 90
        0
 40
-0.6
 41
-30.0
 62
     5
 63
     7
421
 16777215
 74
     2
 91
        2
 64
     7
 65
   257
 75
     1
175
     1
 42
40.0
 92
        8
 66
     7
 43
1.0
 76
     1
 77
     6
 78
     2
 67
     7
 79
     3
170
     0
171
     0
290
     0
174
     0
 93
        1
 44
0.0
173
     0
291
     0
 45
0.0
1001
ACAD
1000
AcDbSavedByObjectVersion
1070
     0
  0
VISUALSTYLE
  5
35
102
{ACAD_REACTORS
330
2A
102
}
102
{ACAD_XDICTIONARY
360
63
102
}
330
2A
100
AcDbVisualStyle
  2
Dim
 70
    11
 71
     2
 72
     2
 73
     0
 90
        0
 40
-0.6
 41
-30.0
 62
     5
 63
     7
421
 16777215
 74
     1
 91
        4
 64
     7
 65
   257
 75
     1
175
     1
 42
1.0
 92
        8
 66
     7
 43
1.0
 76
     1
 77
     6
 78
     2
 67
     7
 79
     5
170
     0
171
     0
290
     0
174
     0
 93
        1
 44
-50.0
173
     0
291
     1
 45
0.0
1001
ACAD
1000
AcDbSavedByObjectVersion
1070
     0
  0
VISUALSTYLE
  5
39
102
{ACAD_REACTORS
330
2A
102
}
102
{ACAD_XDICTIONARY
360
6B
102
}
330
2A
100
AcDbVisualStyle
  2
Facepattern
 70
    15
 71
     2
 72
     2
 73
     0
 90
        0
 40
-0.6
 41
-30.0
 62
     5
 63
     7
421
 16777215
 74
     1
 91
        4
 64
     7
 65
   257
 75
     1
175
     1
 42
1.0
 92
        8
 66
     7
 43
1.0
 76
     1
 77
     6
 78
     2
 67
     7
 79
     5
170
     0
171
     0
290
     0
174
     0
 93
        1
 44
0.0
173
     0
291
     1
 45
0.0
1001
ACAD
1000
AcDbSavedByObjectVersion
1070
     0
  0
VISUALSTYLE
  5
2B
102
{ACAD_REACTORS
330
2A
102
}
102
{ACAD_XDICTIONARY
360
4F
102
}
330
2A
100
AcDbVisualStyle
  2
Flat
 70
     0
 71
     2
 72
     1
 73
     1
 90
        2
 40
-0.6
 41
30.0
 62
     5
 63
     7
421
 16777215
 74
     0
 91
        4
 64
     7
 65
   257
 75
     1
175
     1
 42
1.0
 92
        8
 66
     7
 43
1.0
 76
     1
 77
     6
 78
     2
 67
     7
 79
     5
170
     0
171
     0
290
     0
174
     0
 93
       13
 44
0.0
173
     0
291
     1
 45
0.0
1001
ACAD
1000
AcDbSavedByObjectVersion
1070
     0
  0
VISUALSTYLE
  5
2C
102
{ACAD_REACTORS
330
2A
102
}
102
{ACAD_XDICTIONARY
360
51
102
}
330
2A
100
AcDbVisualStyle
  2
FlatWithEdges
 70
     1
 71
     2
 72
     1
 73
     1
 90
        2
 40
-0.6
 41
30.0
 62
     5
 63
     7
421
 16777215
 74
     1
 91
        4
 64
     7
 65
   257
 75
     1
175
     1
 42
1.0
 92
        0
 66
   257
 43
1.0
 76
     1
 77
     6
 78
     2
 67
     7
 79
     5
170
     0
171
     0
290
     0
174
     0
 93
       13
 44
0.0
173
     0
291
     1
 45
0.0
1001
ACAD
1000
AcDbSavedByObjectVersion
1070
     0
  0
VISUALSTYLE
  5
2D
102
{ACAD_REACTORS
330
2A
102
}
102
{ACAD_XDICTIONARY
360
53
102
}
330
2A
100
AcDbVisualStyle
  2
Gouraud
 70
     2
 71
     2
 72
     2
 73
     1
 90
        2
 40
-0.6
 41
30.0
 62
     5
 63
     7
421
 16777215
 74
     0
 91
        4
 64
     7
 65
   257
 75
     1
175
     1
 42
1.0
 92
        0
 66
     7
 43
1.0
 76
     1
 77
     6
 78
     2
 67
     7
 79
     5
170
     0
171
     0
290
     0
174
     0
 93
       13
 44
0.0
173
     0
291
     1
 45
0.0
1001
ACAD
1000
AcDbSavedByObjectVersion
1070
     0
  0
VISUALSTYLE
  5
2E
102
{ACAD_REACTORS
330
2A
102
}
102
{ACAD_XDICTIONARY
360
55
102
}
330
2A
100
AcDbVisualStyle
  2
GouraudWithEdges
 70
     3
 71
     2
 72
     2
 73
     1
 90
        2
 40
-0.6
 41
30.0
 62
     5
 63
     7
421
 16777215
 74
     1
 91
        4
 64
     7
 65
   257
 75
     1
175
     1
 42
1.0
 92
        0
 66
   257
 43
1.0
 76
     1
 77
     6
 78
     2
 67
     7
 79
     5
170
     0
171
     0
290
     0
174
     0
 93
       13
 44
0.0
173
     0
291
     1
 45
0.0
1001
ACAD
1000
AcDbSavedByObjectVersion
1070
     0
  0
VISUALSTYLE
  5
38
102
{ACAD_REACTORS
330
2A
102
}
102
{ACAD_XDICTIONARY
360
69
102
}
330
2A
100
AcDbVisualStyle
  2
Linepattern
 70
    14
 71
     2
 72
     2
 73
     0
 90
        0
 40
-0.6
 41
-30.0
 62
     5
 63
     7
421
 16777215
 74
     1
 91
        4
 64
     7
 65
   257
 75
     7
175
     7
 42
1.0
 92
        8
 66
     7
 43
1.0
 76
     1
 77
     6
 78
     2
 67
     7
 79
     5
170
     0
171
     0
290
     0
174
     0
 93
        1
 44
0.0
173
     0
291
     1
 45
0.0
1001
ACAD
1000
AcDbSavedByObjectVersion
1070
     0
  0
VISUALSTYLE
  5
33
102
{ACAD_REACTORS
330
2A
102
}
102
{ACAD_XDICTIONARY
360
5F
102
}
330
2A
100
AcDbVisualStyle
  2
Realistic
 70
     8
 71
     2
 72
     2
 73
     0
 90
        0
 40
-0.6
 41
-30.0
 62
     5
 63
     7
421
 16777215
 74
     1
 91
        0
 64
     7
 65
   257
 75
     1
175
     1
 42
1.0
 92
        8
 66
     8
424
  7895160
 43
1.0
 76
     1
 77
     6
 78
     2
 67
     7
 79
     5
170
     0
171
     0
290
     0
174
     0
 93
       13
 44
0.0
173
     0
291
     0
 45
0.0
1001
ACAD
1000
AcDbSavedByObjectVersion
1070
     0
  0
VISUALSTYLE
  5
37
102
{ACAD_REACTORS
330
2A
102
}
102
{ACAD_XDICTIONARY
360
67
102
}
330
2A
100
AcDbVisualStyle
  2
Thicken
 70
    13
 71
     2
 72
     2
 73
     0
 90
        0
 40
-0.6
 41
-30.0
 62
     5
 63
     7
421
 16777215
 74
     1
 91
        4
 64
     7
 65
   257
 75
     1
175
     1
 42
1.0
 92
       12
 66
     7
 43
1.0
 76
     1
 77
     6
 78
     2
 67
     7
 79
     5
170
     0
171
     0
290
     0
174
     0
 93
        1
 44
0.0
173
     0
291
     1
 45
0.0
1001
ACAD
1000
AcDbSavedByObjectVersion
1070
     0
  0
DICTIONARY
  5
71
330
3D
100
AcDbDictionary
280
     1
281
     1
  3
ACAD_XREC_ROUNDTRIP
360
72
  0
DICTIONARY
  5
6F
330
3C
100
AcDbDictionary
280
     1
281
     1
  3
ACAD_XREC_ROUNDTRIP
360
70
  0
DICTIONARY
  5
73
330
3E
100
AcDbDictionary
280
     1
281
     1
  3
ACAD_XREC_ROUNDTRIP
360
74
  0
DICTIONARY
  5
57
330
2F
100
AcDbDictionary
280
     1
281
     1
  3
ACAD_XREC_ROUNDTRIP
360
58
  0
DICTIONARY
  5
5B
330
31
100
AcDbDictionary
280
     1
281
     1
  3
ACAD_XREC_ROUNDTRIP
360
5C
  0
DICTIONARY
  5
59
330
30
100
AcDbDictionary
280
     1
281
     1
  3
ACAD_XREC_ROUNDTRIP
360
5A
  0
DICTIONARY
  5
5D
330
32
100
AcDbDictionary
280
     1
281
     1
  3
ACAD_XREC_ROUNDTRIP
360
5E
  0
DICTIONARY
  5
65
330
36
100
AcDbDictionary
280
     1
281
     1
  3
ACAD_XREC_ROUNDTRIP
360
66
  0
DICTIONARY
  5
6D
330
3A
100
AcDbDictionary
280
     1
281
     1
  3
ACAD_XREC_ROUNDTRIP
360
6E
  0
DICTIONARY
  5
61
330
34
100
AcDbDictionary
280
     1
281
     1
  3
ACAD_XREC_ROUNDTRIP
360
62
  0
DICTIONARY
  5
63
330
35
100
AcDbDictionary
280
     1
281
     1
  3
ACAD_XREC_ROUNDTRIP
360
64
  0
DICTIONARY
  5
6B
330
39
100
AcDbDictionary
280
     1
281
     1
  3
ACAD_XREC_ROUNDTRIP
360
6C
  0
DICTIONARY
  5
4F
330
2B
100
AcDbDictionary
280
     1
281
     1
  3
ACAD_XREC_ROUNDTRIP
360
50
  0
DICTIONARY
  5
51
330
2C
100
AcDbDictionary
280
     1
281
     1
  3
ACAD_XREC_ROUNDTRIP
360
52
  0
DICTIONARY
  5
53
330
2D
100
AcDbDictionary
280
     1
281
     1
  3
ACAD_XREC_ROUNDTRIP
360
54
  0
DICTIONARY
  5
55
330
2E
100
AcDbDictionary
280
     1
281
     1
  3
ACAD_XREC_ROUNDTRIP
360
56
  0
DICTIONARY
  5
69
330
38
100
AcDbDictionary
280
     1
281
     1
  3
ACAD_XREC_ROUNDTRIP
360
6A
  0
DICTIONARY
  5
5F
330
33
100
AcDbDictionary
280
     1
281
     1
  3
ACAD_XREC_ROUNDTRIP
360
60
  0
DICTIONARY
  5
67
330
37
100
AcDbDictionary
280
     1
281
     1
  3
ACAD_XREC_ROUNDTRIP
360
68
  0
XRECORD
  5
72
102
{ACAD_REACTORS
330
71
102
}
330
71
100
AcDbXrecord
280
     1
102
MATERIAL
148
0.0
149
0.0
149
0.0
 93
        0
 94
      127
282
     0
 72
     1
 77
     1
171
     1
175
     1
179
     1
273
     0
  0
XRECORD
  5
70
102
{ACAD_REACTORS
330
6F
102
}
330
6F
100
AcDbXrecord
280
     1
102
MATERIAL
148
0.0
149
0.0
149
0.0
 93
        0
 94
      127
282
     0
 72
     1
 77
     1
171
     1
175
     1
179
     1
273
     0
  0
XRECORD
  5
74
102
{ACAD_REACTORS
330
73
102
}
330
73
100
AcDbXrecord
280
     1
102
MATERIAL
148
0.0
149
0.0
149
0.0
 93
        0
 94
      127
282
     0
 72
     1
 77
     1
171
     1
175
     1
179
     1
273
     0
  0
XRECORD
  5
58
102
{ACAD_REACTORS
330
57
102
}
330
57
100
AcDbXrecord
280
     1
102
RTVSPropertyOp0
 70
     1
102
RTVSPropertyOp1
 70
     1
102
RTVSPropertyOp2
 70
     1
102
RTVSPropertyOp3
 70
     1
102
RTVSPropertyOp4
 70
     1
102
RTVSPropertyOp5
 70
     1
102
RTVSPropertyOp6
 70
     1
102
RTVSPropertyOp7
 70
     1
102
RTVSPropertyOp8
 70
     1
102
RTVSPropertyOp9
 70
     1
102
RTVSPropertyOp10
 70
     1
102
RTVSPropertyOp11
 70
     1
102
RTVSPropertyOp12
 70
     1
102
RTVSPropertyOp13
 70
     1
102
RTVSPropertyOp14
 70
     1
102
RTVSPropertyOp15
 70
     1
102
RTVSPropertyOp16
 70
     1
102
RTVSPropertyOp17
 70
     1
102
RTVSPropertyOp18
 70
     1
102
RTVSPropertyOp19
 70
     1
102
RTVSPropertyOp20
 70
     1
102
RTVSPropertyOp21
 70
     1
102
RTVSPropertyOp22
 70
     1
102
RTVSPropertyOp23
 70
     1
102
RTVSPropertyOp24
 70
     1
102
RTVSPropertyOp25
 70
     1
102
RTVSPropertyOp26
 70
     1
102
RTVSPropertyOp27
 70
     1
102
RTVSPropertyOp28
 70
     1
102
RTVSPropertyOp29
 70
     1
102
RTVSPropertyOp30
 70
     1
102
RTVSPropertyOp31
 70
     1
102
RTVSPropertyOp32
 70
     1
  0
XRECORD
  5
5C
102
{ACAD_REACTORS
330
5B
102
}
330
5B
100
AcDbXrecord
280
     1
102
RTVSPropertyOp0
 70
     1
102
RTVSPropertyOp1
 70
     1
102
RTVSPropertyOp2
 70
     1
102
RTVSPropertyOp3
 70
     1
102
RTVSPropertyOp4
 70
     1
102
RTVSPropertyOp5
 70
     1
102
RTVSPropertyOp6
 70
     1
102
RTVSPropertyOp7
 70
     1
102
RTVSPropertyOp8
 70
     1
102
RTVSPropertyOp9
 70
     1
102
RTVSPropertyOp10
 70
     1
102
RTVSPropertyOp11
 70
     1
102
RTVSPropertyOp12
 70
     1
102
RTVSPropertyOp13
 70
     1
102
RTVSPropertyOp14
 70
     1
102
RTVSPropertyOp15
 70
     1
102
RTVSPropertyOp16
 70
     1
102
RTVSPropertyOp17
 70
     1
102
RTVSPropertyOp18
 70
     1
102
RTVSPropertyOp19
 70
     1
102
RTVSPropertyOp20
 70
     1
102
RTVSPropertyOp21
 70
     1
102
RTVSPropertyOp22
 70
     1
102
RTVSPropertyOp23
 70
     1
102
RTVSPropertyOp24
 70
     1
102
RTVSPropertyOp25
 70
     1
102
RTVSPropertyOp26
 70
     1
102
RTVSPropertyOp27
 70
     1
102
RTVSPropertyOp28
 70
     1
102
RTVSPropertyOp29
 70
     1
102
RTVSPropertyOp30
 70
     1
102
RTVSPropertyOp31
 70
     1
102
RTVSPropertyOp32
 70
     1
  0
XRECORD
  5
5A
102
{ACAD_REACTORS
330
59
102
}
330
59
100
AcDbXrecord
280
     1
102
RTVSPropertyOp0
 70
     1
102
RTVSPropertyOp1
 70
     1
102
RTVSPropertyOp2
 70
     1
102
RTVSPropertyOp3
 70
     1
102
RTVSPropertyOp4
 70
     1
102
RTVSPropertyOp5
 70
     1
102
RTVSPropertyOp6
 70
     1
102
RTVSPropertyOp7
 70
     1
102
RTVSPropertyOp8
 70
     1
102
RTVSPropertyOp9
 70
     1
102
RTVSPropertyOp10
 70
     1
102
RTVSPropertyOp11
 70
     1
102
RTVSPropertyOp12
 70
     1
102
RTVSPropertyOp13
 70
     1
102
RTVSPropertyOp14
 70
     1
102
RTVSPropertyOp15
 70
     1
102
RTVSPropertyOp16
 70
     1
102
RTVSPropertyOp17
 70
     1
102
RTVSPropertyOp18
 70
     1
102
RTVSPropertyOp19
 70
     1
102
RTVSPropertyOp20
 70
     1
102
RTVSPropertyOp21
 70
     1
102
RTVSPropertyOp22
 70
     1
102
RTVSPropertyOp23
 70
     1
102
RTVSPropertyOp24
 70
     1
102
RTVSPropertyOp25
 70
     1
102
RTVSPropertyOp26
 70
     1
102
RTVSPropertyOp27
 70
     1
102
RTVSPropertyOp28
 70
     1
102
RTVSPropertyOp29
 70
     1
102
RTVSPropertyOp30
 70
     1
102
RTVSPropertyOp31
 70
     1
102
RTVSPropertyOp32
 70
     1
  0
XRECORD
  5
5E
102
{ACAD_REACTORS
330
5D
102
}
330
5D
100
AcDbXrecord
280
     1
102
RTVSPropertyOp0
 70
     1
102
RTVSPropertyOp1
 70
     1
102
RTVSPropertyOp2
 70
     1
102
RTVSPropertyOp3
 70
     1
102
RTVSPropertyOp4
 70
     1
102
RTVSPropertyOp5
 70
     1
102
RTVSPropertyOp6
 70
     1
102
RTVSPropertyOp7
 70
     1
102
RTVSPropertyOp8
 70
     1
102
RTVSPropertyOp9
 70
     1
102
RTVSPropertyOp10
 70
     1
102
RTVSPropertyOp11
 70
     1
102
RTVSPropertyOp12
 70
     1
102
RTVSPropertyOp13
 70
     1
102
RTVSPropertyOp14
 70
     1
102
RTVSPropertyOp15
 70
     1
102
RTVSPropertyOp16
 70
     1
102
RTVSPropertyOp17
 70
     1
102
RTVSPropertyOp18
 70
     1
102
RTVSPropertyOp19
 70
     1
102
RTVSPropertyOp20
 70
     1
102
RTVSPropertyOp21
 70
     1
102
RTVSPropertyOp22
 70
     1
102
RTVSPropertyOp23
 70
     1
102
RTVSPropertyOp24
 70
     1
102
RTVSPropertyOp25
 70
     1
102
RTVSPropertyOp26
 70
     1
102
RTVSPropertyOp27
 70
     1
102
RTVSPropertyOp28
 70
     1
102
RTVSPropertyOp29
 70
     1
102
RTVSPropertyOp30
 70
     1
102
RTVSPropertyOp31
 70
     1
102
RTVSPropertyOp32
 70
     1
  0
XRECORD
  5
66
102
{ACAD_REACTORS
330
65
102
}
330
65
100
AcDbXrecord
280
     1
102
RTVSPropertyOp0
 70
     1
102
RTVSPropertyOp1
 70
     1
102
RTVSPropertyOp2
 70
     1
102
RTVSPropertyOp3
 70
     1
102
RTVSPropertyOp4
 70
     1
102
RTVSPropertyOp5
 70
     1
102
RTVSPropertyOp6
 70
     1
102
RTVSPropertyOp7
 70
     1
102
RTVSPropertyOp8
 70
     1
102
RTVSPropertyOp9
 70
     1
102
RTVSPropertyOp10
 70
     1
102
RTVSPropertyOp11
 70
     1
102
RTVSPropertyOp12
 70
     1
102
RTVSPropertyOp13
 70
     1
102
RTVSPropertyOp14
 70
     1
102
RTVSPropertyOp15
 70
     1
102
RTVSPropertyOp16
 70
     1
102
RTVSPropertyOp17
 70
     1
102
RTVSPropertyOp18
 70
     1
102
RTVSPropertyOp19
 70
     1
102
RTVSPropertyOp20
 70
     1
102
RTVSPropertyOp21
 70
     1
102
RTVSPropertyOp22
 70
     1
102
RTVSPropertyOp23
 70
     1
102
RTVSPropertyOp24
 70
     1
102
RTVSPropertyOp25
 70
     1
102
RTVSPropertyOp26
 70
     1
102
RTVSPropertyOp27
 70
     1
102
RTVSPropertyOp28
 70
     1
102
RTVSPropertyOp29
 70
     1
102
RTVSPropertyOp30
 70
     1
102
RTVSPropertyOp31
 70
     1
102
RTVSPropertyOp32
 70
     1
  0
XRECORD
  5
6E
102
{ACAD_REACTORS
330
6D
102
}
330
6D
100
AcDbXrecord
280
     1
102
RTVSPropertyOp0
 70
     1
102
RTVSPropertyOp1
 70
     1
102
RTVSPropertyOp2
 70
     1
102
RTVSPropertyOp3
 70
     1
102
RTVSPropertyOp4
 70
     1
102
RTVSPropertyOp5
 70
     1
102
RTVSPropertyOp6
 70
     1
102
RTVSPropertyOp7
 70
     1
102
RTVSPropertyOp8
 70
     1
102
RTVSPropertyOp9
 70
     1
102
RTVSPropertyOp10
 70
     1
102
RTVSPropertyOp11
 70
     1
102
RTVSPropertyOp12
 70
     1
102
RTVSPropertyOp13
 70
     1
102
RTVSPropertyOp14
 70
     1
102
RTVSPropertyOp15
 70
     1
102
RTVSPropertyOp16
 70
     1
102
RTVSPropertyOp17
 70
     1
102
RTVSPropertyOp18
 70
     1
102
RTVSPropertyOp19
 70
     1
102
RTVSPropertyOp20
 70
     1
102
RTVSPropertyOp21
 70
     1
102
RTVSPropertyOp22
 70
     1
102
RTVSPropertyOp23
 70
     1
102
RTVSPropertyOp24
 70
     1
102
RTVSPropertyOp25
 70
     1
102
RTVSPropertyOp26
 70
     1
102
RTVSPropertyOp27
 70
     1
102
RTVSPropertyOp28
 70
     1
102
RTVSPropertyOp29
 70
     1
102
RTVSPropertyOp30
 70
     1
102
RTVSPropertyOp31
 70
     1
102
RTVSPropertyOp32
 70
     1
  0
XRECORD
  5
62
102
{ACAD_REACTORS
330
61
102
}
330
61
100
AcDbXrecord
280
     1
102
RTVSPropertyOp0
 70
     1
102
RTVSPropertyOp1
 70
     1
102
RTVSPropertyOp2
 70
     1
102
RTVSPropertyOp3
 70
     1
102
RTVSPropertyOp4
 70
     1
102
RTVSPropertyOp5
 70
     1
102
RTVSPropertyOp6
 70
     1
102
RTVSPropertyOp7
 70
     1
102
RTVSPropertyOp8
 70
     1
102
RTVSPropertyOp9
 70
     1
102
RTVSPropertyOp10
 70
     1
102
RTVSPropertyOp11
 70
     1
102
RTVSPropertyOp12
 70
     1
102
RTVSPropertyOp13
 70
     1
102
RTVSPropertyOp14
 70
     1
102
RTVSPropertyOp15
 70
     1
102
RTVSPropertyOp16
 70
     1
102
RTVSPropertyOp17
 70
     1
102
RTVSPropertyOp18
 70
     1
102
RTVSPropertyOp19
 70
     1
102
RTVSPropertyOp20
 70
     1
102
RTVSPropertyOp21
 70
     1
102
RTVSPropertyOp22
 70
     1
102
RTVSPropertyOp23
 70
     1
102
RTVSPropertyOp24
 70
     1
102
RTVSPropertyOp25
 70
     1
102
RTVSPropertyOp26
 70
     1
102
RTVSPropertyOp27
 70
     1
102
RTVSPropertyOp28
 70
     1
102
RTVSPropertyOp29
 70
     1
102
RTVSPropertyOp30
 70
     1
102
RTVSPropertyOp31
 70
     1
102
RTVSPropertyOp32
 70
     1
  0
XRECORD
  5
64
102
{ACAD_REACTORS
330
63
102
}
330
63
100
AcDbXrecord
280
     1
102
RTVSPropertyOp0
 70
     1
102
RTVSPropertyOp1
 70
     1
102
RTVSPropertyOp2
 70
     1
102
RTVSPropertyOp3
 70
     1
102
RTVSPropertyOp4
 70
     1
102
RTVSPropertyOp5
 70
     1
102
RTVSPropertyOp6
 70
     1
102
RTVSPropertyOp7
 70
     1
102
RTVSPropertyOp8
 70
     1
102
RTVSPropertyOp9
 70
     1
102
RTVSPropertyOp10
 70
     1
102
RTVSPropertyOp11
 70
     1
102
RTVSPropertyOp12
 70
     1
102
RTVSPropertyOp13
 70
     1
102
RTVSPropertyOp14
 70
     1
102
RTVSPropertyOp15
 70
     1
102
RTVSPropertyOp16
 70
     1
102
RTVSPropertyOp17
 70
     1
102
RTVSPropertyOp18
 70
     1
102
RTVSPropertyOp19
 70
     1
102
RTVSPropertyOp20
 70
     1
102
RTVSPropertyOp21
 70
     1
102
RTVSPropertyOp22
 70
     1
102
RTVSPropertyOp23
 70
     1
102
RTVSPropertyOp24
 70
     1
102
RTVSPropertyOp25
 70
     1
102
RTVSPropertyOp26
 70
     1
102
RTVSPropertyOp27
 70
     1
102
RTVSPropertyOp28
 70
     1
102
RTVSPropertyOp29
 70
     1
102
RTVSPropertyOp30
 70
     1
102
RTVSPropertyOp31
 70
     1
102
RTVSPropertyOp32
 70
     1
  0
XRECORD
  5
6C
102
{ACAD_REACTORS
330
6B
102
}
330
6B
100
AcDbXrecord
280
     1
102
RTVSPropertyOp0
 70
     1
102
RTVSPropertyOp1
 70
     1
102
RTVSPropertyOp2
 70
     1
102
RTVSPropertyOp3
 70
     1
102
RTVSPropertyOp4
 70
     1
102
RTVSPropertyOp5
 70
     1
102
RTVSPropertyOp6
 70
     1
102
RTVSPropertyOp7
 70
     1
102
RTVSPropertyOp8
 70
     1
102
RTVSPropertyOp9
 70
     1
102
RTVSPropertyOp10
 70
     1
102
RTVSPropertyOp11
 70
     1
102
RTVSPropertyOp12
 70
     1
102
RTVSPropertyOp13
 70
     1
102
RTVSPropertyOp14
 70
     1
102
RTVSPropertyOp15
 70
     1
102
RTVSPropertyOp16
 70
     1
102
RTVSPropertyOp17
 70
     1
102
RTVSPropertyOp18
 70
     1
102
RTVSPropertyOp19
 70
     1
102
RTVSPropertyOp20
 70
     1
102
RTVSPropertyOp21
 70
     1
102
RTVSPropertyOp22
 70
     1
102
RTVSPropertyOp23
 70
     1
102
RTVSPropertyOp24
 70
     1
102
RTVSPropertyOp25
 70
     1
102
RTVSPropertyOp26
 70
     1
102
RTVSPropertyOp27
 70
     1
102
RTVSPropertyOp28
 70
     1
102
RTVSPropertyOp29
 70
     1
102
RTVSPropertyOp30
 70
     1
102
RTVSPropertyOp31
 70
     1
102
RTVSPropertyOp32
 70
     1
  0
XRECORD
  5
50
102
{ACAD_REACTORS
330
4F
102
}
330
4F
100
AcDbXrecord
280
     1
102
RTVSPropertyOp0
 70
     1
102
RTVSPropertyOp1
 70
     1
102
RTVSPropertyOp2
 70
     1
102
RTVSPropertyOp3
 70
     1
102
RTVSPropertyOp4
 70
     1
102
RTVSPropertyOp5
 70
     1
102
RTVSPropertyOp6
 70
     1
102
RTVSPropertyOp7
 70
     1
102
RTVSPropertyOp8
 70
     1
102
RTVSPropertyOp9
 70
     1
102
RTVSPropertyOp10
 70
     1
102
RTVSPropertyOp11
 70
     1
102
RTVSPropertyOp12
 70
     1
102
RTVSPropertyOp13
 70
     1
102
RTVSPropertyOp14
 70
     1
102
RTVSPropertyOp15
 70
     1
102
RTVSPropertyOp16
 70
     1
102
RTVSPropertyOp17
 70
     1
102
RTVSPropertyOp18
 70
     1
102
RTVSPropertyOp19
 70
     1
102
RTVSPropertyOp20
 70
     1
102
RTVSPropertyOp21
 70
     1
102
RTVSPropertyOp22
 70
     1
102
RTVSPropertyOp23
 70
     1
102
RTVSPropertyOp24
 70
     1
102
RTVSPropertyOp25
 70
     1
102
RTVSPropertyOp26
 70
     1
102
RTVSPropertyOp27
 70
     1
102
RTVSPropertyOp28
 70
     1
102
RTVSPropertyOp29
 70
     1
102
RTVSPropertyOp30
 70
     1
102
RTVSPropertyOp31
 70
     1
102
RTVSPropertyOp32
 70
     1
  0
XRECORD
  5
52
102
{ACAD_REACTORS
330
51
102
}
330
51
100
AcDbXrecord
280
     1
102
RTVSPropertyOp0
 70
     1
102
RTVSPropertyOp1
 70
     1
102
RTVSPropertyOp2
 70
     1
102
RTVSPropertyOp3
 70
     1
102
RTVSPropertyOp4
 70
     1
102
RTVSPropertyOp5
 70
     1
102
RTVSPropertyOp6
 70
     1
102
RTVSPropertyOp7
 70
     1
102
RTVSPropertyOp8
 70
     1
102
RTVSPropertyOp9
 70
     1
102
RTVSPropertyOp10
 70
     1
102
RTVSPropertyOp11
 70
     1
102
RTVSPropertyOp12
 70
     1
102
RTVSPropertyOp13
 70
     1
102
RTVSPropertyOp14
 70
     1
102
RTVSPropertyOp15
 70
     1
102
RTVSPropertyOp16
 70
     1
102
RTVSPropertyOp17
 70
     1
102
RTVSPropertyOp18
 70
     1
102
RTVSPropertyOp19
 70
     1
102
RTVSPropertyOp20
 70
     1
102
RTVSPropertyOp21
 70
     1
102
RTVSPropertyOp22
 70
     1
102
RTVSPropertyOp23
 70
     1
102
RTVSPropertyOp24
 70
     1
102
RTVSPropertyOp25
 70
     1
102
RTVSPropertyOp26
 70
     1
102
RTVSPropertyOp27
 70
     1
102
RTVSPropertyOp28
 70
     1
102
RTVSPropertyOp29
 70
     1
102
RTVSPropertyOp30
 70
     1
102
RTVSPropertyOp31
 70
     1
102
RTVSPropertyOp32
 70
     1
  0
XRECORD
  5
54
102
{ACAD_REACTORS
330
53
102
}
330
53
100
AcDbXrecord
280
     1
102
RTVSPropertyOp0
 70
     1
102
RTVSPropertyOp1
 70
     1
102
RTVSPropertyOp2
 70
     1
102
RTVSPropertyOp3
 70
     1
102
RTVSPropertyOp4
 70
     1
102
RTVSPropertyOp5
 70
     1
102
RTVSPropertyOp6
 70
     1
102
RTVSPropertyOp7
 70
     1
102
RTVSPropertyOp8
 70
     1
102
RTVSPropertyOp9
 70
     1
102
RTVSPropertyOp10
 70
     1
102
RTVSPropertyOp11
 70
     1
102
RTVSPropertyOp12
 70
     1
102
RTVSPropertyOp13
 70
     1
102
RTVSPropertyOp14
 70
     1
102
RTVSPropertyOp15
 70
     1
102
RTVSPropertyOp16
 70
     1
102
RTVSPropertyOp17
 70
     1
102
RTVSPropertyOp18
 70
     1
102
RTVSPropertyOp19
 70
     1
102
RTVSPropertyOp20
 70
     1
102
RTVSPropertyOp21
 70
     1
102
RTVSPropertyOp22
 70
     1
102
RTVSPropertyOp23
 70
     1
102
RTVSPropertyOp24
 70
     1
102
RTVSPropertyOp25
 70
     1
102
RTVSPropertyOp26
 70
     1
102
RTVSPropertyOp27
 70
     1
102
RTVSPropertyOp28
 70
     1
102
RTVSPropertyOp29
 70
     1
102
RTVSPropertyOp30
 70
     1
102
RTVSPropertyOp31
 70
     1
102
RTVSPropertyOp32
 70
     1
  0
XRECORD
  5
56
102
{ACAD_REACTORS
330
55
102
}
330
55
100
AcDbXrecord
280
     1
102
RTVSPropertyOp0
 70
     1
102
RTVSPropertyOp1
 70
     1
102
RTVSPropertyOp2
 70
     1
102
RTVSPropertyOp3
 70
     1
102
RTVSPropertyOp4
 70
     1
102
RTVSPropertyOp5
 70
     1
102
RTVSPropertyOp6
 70
     1
102
RTVSPropertyOp7
 70
     1
102
RTVSPropertyOp8
 70
     1
102
RTVSPropertyOp9
 70
     1
102
RTVSPropertyOp10
 70
     1
102
RTVSPropertyOp11
 70
     1
102
RTVSPropertyOp12
 70
     1
102
RTVSPropertyOp13
 70
     1
102
RTVSPropertyOp14
 70
     1
102
RTVSPropertyOp15
 70
     1
102
RTVSPropertyOp16
 70
     1
102
RTVSPropertyOp17
 70
     1
102
RTVSPropertyOp18
 70
     1
102
RTVSPropertyOp19
 70
     1
102
RTVSPropertyOp20
 70
     1
102
RTVSPropertyOp21
 70
     1
102
RTVSPropertyOp22
 70
     1
102
RTVSPropertyOp23
 70
     1
102
RTVSPropertyOp24
 70
     1
102
RTVSPropertyOp25
 70
     1
102
RTVSPropertyOp26
 70
     1
102
RTVSPropertyOp27
 70
     1
102
RTVSPropertyOp28
 70
     1
102
RTVSPropertyOp29
 70
     1
102
RTVSPropertyOp30
 70
     1
102
RTVSPropertyOp31
 70
     1
102
RTVSPropertyOp32
 70
     1
  0
XRECORD
  5
6A
102
{ACAD_REACTORS
330
69
102
}
330
69
100
AcDbXrecord
280
     1
102
RTVSPropertyOp0
 70
     1
102
RTVSPropertyOp1
 70
     1
102
RTVSPropertyOp2
 70
     1
102
RTVSPropertyOp3
 70
     1
102
RTVSPropertyOp4
 70
     1
102
RTVSPropertyOp5
 70
     1
102
RTVSPropertyOp6
 70
     1
102
RTVSPropertyOp7
 70
     1
102
RTVSPropertyOp8
 70
     1
102
RTVSPropertyOp9
 70
     1
102
RTVSPropertyOp10
 70
     1
102
RTVSPropertyOp11
 70
     1
102
RTVSPropertyOp12
 70
     1
102
RTVSPropertyOp13
 70
     1
102
RTVSPropertyOp14
 70
     1
102
RTVSPropertyOp15
 70
     1
102
RTVSPropertyOp16
 70
     1
102
RTVSPropertyOp17
 70
     1
102
RTVSPropertyOp18
 70
     1
102
RTVSPropertyOp19
 70
     1
102
RTVSPropertyOp20
 70
     1
102
RTVSPropertyOp21
 70
     1
102
RTVSPropertyOp22
 70
     1
102
RTVSPropertyOp23
 70
     1
102
RTVSPropertyOp24
 70
     1
102
RTVSPropertyOp25
 70
     1
102
RTVSPropertyOp26
 70
     1
102
RTVSPropertyOp27
 70
     1
102
RTVSPropertyOp28
 70
     1
102
RTVSPropertyOp29
 70
     1
102
RTVSPropertyOp30
 70
     1
102
RTVSPropertyOp31
 70
     1
102
RTVSPropertyOp32
 70
     1
  0
XRECORD
  5
60
102
{ACAD_REACTORS
330
5F
102
}
330
5F
100
AcDbXrecord
280
     1
102
RTVSPropertyOp0
 70
     1
102
RTVSPropertyOp1
 70
     1
102
RTVSPropertyOp2
 70
     1
102
RTVSPropertyOp3
 70
     1
102
RTVSPropertyOp4
 70
     1
102
RTVSPropertyOp5
 70
     1
102
RTVSPropertyOp6
 70
     1
102
RTVSPropertyOp7
 70
     1
102
RTVSPropertyOp8
 70
     1
102
RTVSPropertyOp9
 70
     1
102
RTVSPropertyOp10
 70
     1
102
RTVSPropertyOp11
 70
     1
102
RTVSPropertyOp12
 70
     1
102
RTVSPropertyOp13
 70
     1
102
RTVSPropertyOp14
 70
     1
102
RTVSPropertyOp15
 70
     1
102
RTVSPropertyOp16
 70
     1
102
RTVSPropertyOp17
 70
     1
102
RTVSPropertyOp18
 70
     1
102
RTVSPropertyOp19
 70
     1
102
RTVSPropertyOp20
 70
     1
102
RTVSPropertyOp21
 70
     1
102
RTVSPropertyOp22
 70
     1
102
RTVSPropertyOp23
 70
     1
102
RTVSPropertyOp24
 70
     1
102
RTVSPropertyOp25
 70
     1
102
RTVSPropertyOp26
 70
     1
102
RTVSPropertyOp27
 70
     1
102
RTVSPropertyOp28
 70
     1
102
RTVSPropertyOp29
 70
     1
102
RTVSPropertyOp30
 70
     1
102
RTVSPropertyOp31
 70
     1
102
RTVSPropertyOp32
 70
     1
  0
XRECORD
  5
68
102
{ACAD_REACTORS
330
67
102
}
330
67
100
AcDbXrecord
280
     1
102
RTVSPropertyOp0
 70
     1
102
RTVSPropertyOp1
 70
     1
102
RTVSPropertyOp2
 70
     1
102
RTVSPropertyOp3
 70
     1
102
RTVSPropertyOp4
 70
     1
102
RTVSPropertyOp5
 70
     1
102
RTVSPropertyOp6
 70
     1
102
RTVSPropertyOp7
 70
     1
102
RTVSPropertyOp8
 70
     1
102
RTVSPropertyOp9
 70
     1
102
RTVSPropertyOp10
 70
     1
102
RTVSPropertyOp11
 70
     1
102
RTVSPropertyOp12
 70
     1
102
RTVSPropertyOp13
 70
     1
102
RTVSPropertyOp14
 70
     1
102
RTVSPropertyOp15
 70
     1
102
RTVSPropertyOp16
 70
     1
102
RTVSPropertyOp17
 70
     1
102
RTVSPropertyOp18
 70
     1
102
RTVSPropertyOp19
 70
     1
102
RTVSPropertyOp20
 70
     1
102
RTVSPropertyOp21
 70
     1
102
RTVSPropertyOp22
 70
     1
102
RTVSPropertyOp23
 70
     1
102
RTVSPropertyOp24
 70
     1
102
RTVSPropertyOp25
 70
     1
102
RTVSPropertyOp26
 70
     1
102
RTVSPropertyOp27
 70
     1
102
RTVSPropertyOp28
 70
     1
102
RTVSPropertyOp29
 70
     1
102
RTVSPropertyOp30
 70
     1
102
RTVSPropertyOp31
 70
     1
102
RTVSPropertyOp32
 70
     1
  0
ENDSEC
  0
EOF
