  0
SECTION
  2
HEADER
  9
$ACADVER
  1
AC1018
  9
$ACADMAINTVER
 70
     0
  9
$DWGCODEPAGE
  3
ANSI_936
  9
$INSBASE
 10
0.0
 20
0.0
 30
0.0
  9
$EXTMIN
 10
1.000000000000000E+20
 20
1.000000000000000E+20
 30
1.000000000000000E+20
  9
$EXTMAX
 10
-1.000000000000000E+20
 20
-1.000000000000000E+20
 30
-1.000000000000000E+20
  9
$LIMMIN
 10
0.0
 20
0.0
  9
$LIMMAX
 10
12.0
 20
9.0
  9
$ORTHOMODE
 70
     0
  9
$REGENMODE
 70
     1
  9
$FILLMODE
 70
     1
  9
$QTEXTMODE
 70
     0
  9
$MIRRTEXT
 70
     1
  9
$LTSCALE
 40
1.0
  9
$ATTMODE
 70
     1
  9
$TEXTSIZE
 40
0.2
  9
$TRACEWID
 40
0.05
  9
$TEXTSTYLE
  7
Standard
  9
$CLAYER
  8
0
  9
$CELTYPE
  6
ByLayer
  9
$CECOLOR
 62
   256
  9
$CELTSCALE
 40
1.0
  9
$DISPSILH
 70
     0
  9
$DIMSCALE
 40
1.0
  9
$DIMASZ
 40
0.18
  9
$DIMEXO
 40
0.0625
  9
$DIMDLI
 40
0.38
  9
$DIMRND
 40
0.0
  9
$DIMDLE
 40
0.0
  9
$DIMEXE
 40
0.18
  9
$DIMTP
 40
0.0
  9
$DIMTM
 40
0.0
  9
$DIMTXT
 40
0.18
  9
$DIMCEN
 40
0.09
  9
$DIMTSZ
 40
0.0
  9
$DIMTOL
 70
     0
  9
$DIMLIM
 70
     0
  9
$DIMTIH
 70
     1
  9
$DIMTOH
 70
     1
  9
$DIMSE1
 70
     0
  9
$DIMSE2
 70
     0
  9
$DIMTAD
 70
     0
  9
$DIMZIN
 70
     0
  9
$DIMBLK
  1

  9
$DIMASO
 70
     1
  9
$DIMSHO
 70
     1
  9
$DIMPOST
  1

  9
$DIMAPOST
  1

  9
$DIMALT
 70
     0
  9
$DIMALTD
 70
     2
  9
$DIMALTF
 40
25.4
  9
$DIMLFAC
 40
1.0
  9
$DIMTOFL
 70
     0
  9
$DIMTVP
 40
0.0
  9
$DIMTIX
 70
     0
  9
$DIMSOXD
 70
     0
  9
$DIMSAH
 70
     0
  9
$DIMBLK1
  1

  9
$DIMBLK2
  1

  9
$DIMSTYLE
  2
Standard
  9
$DIMCLRD
 70
     0
  9
$DIMCLRE
 70
     0
  9
$DIMCLRT
 70
     0
  9
$DIMTFAC
 40
1.0
  9
$DIMGAP
 40
0.09
  9
$DIMJUST
 70
     0
  9
$DIMSD1
 70
     0
  9
$DIMSD2
 70
     0
  9
$DIMTOLJ
 70
     1
  9
$DIMTZIN
 70
     0
  9
$DIMALTZ
 70
     0
  9
$DIMALTTZ
 70
     0
  9
$DIMUPT
 70
     0
  9
$DIMDEC
 70
     4
  9
$DIMTDEC
 70
     4
  9
$DIMALTU
 70
     2
  9
$DIMALTTD
 70
     2
  9
$DIMTXSTY
  7
Standard
  9
$DIMAUNIT
 70
     0
  9
$DIMADEC
 70
     0
  9
$DIMALTRND
 40
0.0
  9
$DIMAZIN
 70
     0
  9
$DIMDSEP
 70
    46
  9
$DIMATFIT
 70
     3
  9
$DIMFRAC
 70
     0
  9
$DIMLDRBLK
  1

  9
$DIMLUNIT
 70
     2
  9
$DIMLWD
 70
    -2
  9
$DIMLWE
 70
    -2
  9
$DIMTMOVE
 70
     0
  9
$LUNITS
 70
     2
  9
$LUPREC
 70
     4
  9
$SKETCHINC
 40
0.1
  9
$FILLETRAD
 40
0.5
  9
$AUNITS
 70
     0
  9
$AUPREC
 70
     0
  9
$MENU
  1
.
  9
$ELEVATION
 40
0.0
  9
$PELEVATION
 40
0.0
  9
$THICKNESS
 40
0.0
  9
$LIMCHECK
 70
     0
  9
$CHAMFERA
 40
0.5
  9
$CHAMFERB
 40
0.5
  9
$CHAMFERC
 40
1.0
  9
$CHAMFERD
 40
0.0
  9
$SKPOLY
 70
     0
  9
$TDCREATE
 40
2459207.931321227
  9
$TDUCREATE
 40
2459207.597987894
  9
$TDUPDATE
 40
2459207.931321261
  9
$TDUUPDATE
 40
2459207.597987928
  9
$TDINDWG
 40
0.0000000116
  9
$TDUSRTIMER
 40
0.0000000116
  9
$USRTIMER
 70
     1
  9
$ANGBASE
 50
0.0
  9
$ANGDIR
 70
     0
  9
$PDMODE
 70
     0
  9
$PDSIZE
 40
0.0
  9
$PLINEWID
 40
0.0
  9
$SPLFRAME
 70
     0
  9
$SPLINETYPE
 70
     6
  9
$SPLINESEGS
 70
     8
  9
$HANDSEED
  5
77
  9
$SURFTAB1
 70
     6
  9
$SURFTAB2
 70
     6
  9
$SURFTYPE
 70
     6
  9
$SURFU
 70
     6
  9
$SURFV
 70
     6
  9
$UCSBASE
  2

  9
$UCSNAME
  2

  9
$UCSORG
 10
0.0
 20
0.0
 30
0.0
  9
$UCSXDIR
 10
1.0
 20
0.0
 30
0.0
  9
$UCSYDIR
 10
0.0
 20
1.0
 30
0.0
  9
$UCSORTHOREF
  2

  9
$UCSORTHOVIEW
 70
     0
  9
$UCSORGTOP
 10
0.0
 20
0.0
 30
0.0
  9
$UCSORGBOTTOM
 10
0.0
 20
0.0
 30
0.0
  9
$UCSORGLEFT
 10
0.0
 20
0.0
 30
0.0
  9
$UCSORGRIGHT
 10
0.0
 20
0.0
 30
0.0
  9
$UCSORGFRONT
 10
0.0
 20
0.0
 30
0.0
  9
$UCSORGBACK
 10
0.0
 20
0.0
 30
0.0
  9
$PUCSBASE
  2

  9
$PUCSNAME
  2

  9
$PUCSORG
 10
0.0
 20
0.0
 30
0.0
  9
$PUCSXDIR
 10
1.0
 20
0.0
 30
0.0
  9
$PUCSYDIR
 10
0.0
 20
1.0
 30
0.0
  9
$PUCSORTHOREF
  2

  9
$PUCSORTHOVIEW
 70
     0
  9
$PUCSORGTOP
 10
0.0
 20
0.0
 30
0.0
  9
$PUCSORGBOTTOM
 10
0.0
 20
0.0
 30
0.0
  9
$PUCSORGLEFT
 10
0.0
 20
0.0
 30
0.0
  9
$PUCSORGRIGHT
 10
0.0
 20
0.0
 30
0.0
  9
$PUCSORGFRONT
 10
0.0
 20
0.0
 30
0.0
  9
$PUCSORGBACK
 10
0.0
 20
0.0
 30
0.0
  9
$USERI1
 70
     0
  9
$USERI2
 70
     0
  9
$USERI3
 70
     0
  9
$USERI4
 70
     0
  9
$USERI5
 70
     0
  9
$USERR1
 40
0.0
  9
$USERR2
 40
0.0
  9
$USERR3
 40
0.0
  9
$USERR4
 40
0.0
  9
$USERR5
 40
0.0
  9
$WORLDVIEW
 70
     1
  9
$SHADEDGE
 70
     3
  9
$SHADEDIF
 70
    70
  9
$TILEMODE
 70
     1
  9
$MAXACTVP
 70
    64
  9
$PINSBASE
 10
0.0
 20
0.0
 30
0.0
  9
$PLIMCHECK
 70
     0
  9
$PEXTMIN
 10
1.000000000000000E+20
 20
1.000000000000000E+20
 30
1.000000000000000E+20
  9
$PEXTMAX
 10
-1.000000000000000E+20
 20
-1.000000000000000E+20
 30
-1.000000000000000E+20
  9
$PLIMMIN
 10
0.0
 20
0.0
  9
$PLIMMAX
 10
12.0
 20
9.0
  9
$UNITMODE
 70
     0
  9
$VISRETAIN
 70
     1
  9
$PLINEGEN
 70
     0
  9
$PSLTSCALE
 70
     1
  9
$TREEDEPTH
 70
  3020
  9
$CMLSTYLE
  2
Standard
  9
$CMLJUST
 70
     0
  9
$CMLSCALE
 40
1.0
  9
$PROXYGRAPHICS
 70
     1
  9
$MEASUREMENT
 70
     0
  9
$CELWEIGHT
370
    -1
  9
$ENDCAPS
280
     0
  9
$JOINSTYLE
280
     0
  9
$LWDISPLAY
290
     1
  9
$INSUNITS
 70
     4
  9
$HYPERLINKBASE
  1

  9
$STYLESHEET
  1

  9
$XEDIT
290
     1
  9
$CEPSNTYPE
380
     0
  9
$PSTYLEMODE
290
     1
  9
$FINGERPRINTGUID
  2
{4E279E78-7743-455F-8BCB-FC9432AE72A7}
  9
$VERSIONGUID
  2
{FAEB1C32-E019-11D5-929B-00C0DF256EC4}
  9
$EXTNAMES
290
     1
  9
$PSVPSCALE
 40
0.0
  9
$OLESTARTUP
290
     0
  9
$SORTENTS
280
   127
  9
$INDEXCTL
280
     0
  9
$HIDETEXT
280
     1
  9
$XCLIPFRAME
290
     0
  9
$HALOGAP
280
     0
  9
$OBSCOLOR
 70
   257
  9
$OBSLTYPE
280
     0
  9
$INTERSECTIONDISPLAY
280
     0
  9
$INTERSECTIONCOLOR
 70
   257
  9
$DIMASSOC
280
     2
  9
$PROJECTNAME
  1

  0
ENDSEC
  0
SECTION
  2
CLASSES
  0
CLASS
  1
ACDBDICTIONARYWDFLT
  2
AcDbDictionaryWithDefault
  3
ObjectDBX Classes
 90
        0
 91
        4
280
     0
281
     0
  0
CLASS
  1
VISUALSTYLE
  2
AcDbVisualStyle
  3
ObjectDBX Classes
 90
     4095
 91
        4
280
     0
281
     0
  0
CLASS
  1
MATERIAL
  2
AcDbMaterial
  3
ObjectDBX Classes
 90
     1153
 91
        4
280
     0
281
     0
  0
CLASS
  1
SUN
  2
AcDbSun
  3
SCENEOE
 90
     1024
 91
        4
280
     0
281
     0
  0
ENDSEC
  0
SECTION
  2
TABLES
  0
TABLE
  2
VPORT
  5
8
330
0
100
AcDbSymbolTable
 70
     1
  0
VPORT
  5
29
330
8
100
AcDbSymbolTableRecord
100
AcDbViewportTableRecord
  2
*Active
 70
     0
 10
0.0
 20
0.0
 11
1.0
 21
1.0
 12
0.0
 22
0.0
 13
0.0
 23
0.0
 14
0.5
 24
0.5
 15
0.5
 25
0.5
 16
0.0
 26
0.0
 36
1.0
 17
-428.4833255671775
 27
396.6262424748994
 37
0.0
 40
109.4511572670165
 41
3.197773698714816
 42
50.0
 43
0.0
 44
0.0
 50
0.0
 51
0.0
 71
     0
 72
   100
 73
     1
 74
     3
 75
     0
 76
     0
 77
     0
 78
     0
281
     0
 65
     1
110
0.0
120
0.0
130
0.0
111
1.0
121
0.0
131
0.0
112
0.0
122
1.0
132
0.0
 79
     0
146
0.0
  0
ENDTAB
  0
TABLE
  2
LTYPE
  5
5
330
0
100
AcDbSymbolTable
 70
     1
  0
LTYPE
  5
14
330
5
100
AcDbSymbolTableRecord
100
AcDbLinetypeTableRecord
  2
ByBlock
 70
     0
  3

 72
    65
 73
     0
 40
0.0
  0
LTYPE
  5
15
330
5
100
AcDbSymbolTableRecord
100
AcDbLinetypeTableRecord
  2
ByLayer
 70
     0
  3

 72
    65
 73
     0
 40
0.0
  0
LTYPE
  5
16
330
5
100
AcDbSymbolTableRecord
100
AcDbLinetypeTableRecord
  2
Continuous
 70
     0
  3
Solid line
 72
    65
 73
     0
 40
0.0
  0
ENDTAB
  0
TABLE
  2
LAYER
  5
2
330
0
100
AcDbSymbolTable
 70
     2
  0
LAYER
  5
10
330
2
100
AcDbSymbolTableRecord
100
AcDbLayerTableRecord
  2
0
 70
     0
 62
     7
  6
Continuous
370
    -3
390
F
  0
LAYER
  5
40
330
2
100
AcDbSymbolTableRecord
100
AcDbLayerTableRecord
  2
_U+56FE_U+5C42 1
 70
     0
 62
     7
  6
Continuous
370
    -3
390
F
  0
ENDTAB
  0
TABLE
  2
STYLE
  5
3
330
0
100
AcDbSymbolTable
 70
     1
  0
STYLE
  5
11
330
3
100
AcDbSymbolTableRecord
100
AcDbTextStyleTableRecord
  2
Standard
 70
     0
 40
0.0
 41
1.0
 50
0.0
 71
     0
 42
0.2
  3
txt
  4

  0
ENDTAB
  0
TABLE
  2
VIEW
  5
6
330
0
100
AcDbSymbolTable
 70
     0
  0
ENDTAB
  0
TABLE
  2
UCS
  5
7
330
0
100
AcDbSymbolTable
 70
     0
  0
ENDTAB
  0
TABLE
  2
APPID
  5
9
330
0
100
AcDbSymbolTable
 70
     1
  0
APPID
  5
12
330
9
100
AcDbSymbolTableRecord
100
AcDbRegAppTableRecord
  2
ACAD
 70
     0
  0
ENDTAB
  0
TABLE
  2
DIMSTYLE
  5
A
330
0
100
AcDbSymbolTable
 70
     1
100
AcDbDimStyleTable
  0
DIMSTYLE
105
27
330
A
100
AcDbSymbolTableRecord
100
AcDbDimStyleTableRecord
  2
Standard
 70
     0
178
     0
340
11
  0
ENDTAB
  0
TABLE
  2
BLOCK_RECORD
  5
1
330
0
100
AcDbSymbolTable
 70
     4
  0
BLOCK_RECORD
  5
1F
330
1
100
AcDbSymbolTableRecord
100
AcDbBlockTableRecord
  2
*Model_Space
340
22
  0
BLOCK_RECORD
  5
1B
330
1
100
AcDbSymbolTableRecord
100
AcDbBlockTableRecord
  2
*Paper_Space
340
1E
  0
BLOCK_RECORD
  5
23
330
1
100
AcDbSymbolTableRecord
100
AcDbBlockTableRecord
  2
*Paper_Space0
340
26
  0
BLOCK_RECORD
  5
41
330
1
100
AcDbSymbolTableRecord
100
AcDbBlockTableRecord
  2
block 2
340
0
102
{BLKREFS
331
42
102
}
  0
BLOCK_RECORD
  5
45
330
1
100
AcDbSymbolTableRecord
100
AcDbBlockTableRecord
  2
block 3
340
0
102
{BLKREFS
331
46
102
}
  0
BLOCK_RECORD
  5
4A
330
1
100
AcDbSymbolTableRecord
100
AcDbBlockTableRecord
  2
block 4
340
0
102
{BLKREFS
331
4B
102
}
  0
ENDTAB
  0
ENDSEC
  0
SECTION
  2
BLOCKS
  0
BLOCK
  5
20
330
1F
100
AcDbEntity
  8
0
100
AcDbBlockBegin
  2
*Model_Space
 70
     0
 10
0.0
 20
0.0
 30
0.0
  3
*Model_Space
  1

  0
ENDBLK
  5
21
330
1F
100
AcDbEntity
  8
0
100
AcDbBlockEnd
  0
BLOCK
  5
1C
330
1B
100
AcDbEntity
 67
     1
  8
0
100
AcDbBlockBegin
  2
*Paper_Space
 70
     0
 10
0.0
 20
0.0
 30
0.0
  3
*Paper_Space
  1

  0
ENDBLK
  5
1D
330
1B
100
AcDbEntity
 67
     1
  8
0
100
AcDbBlockEnd
  0
BLOCK
  5
24
330
23
100
AcDbEntity
  8
0
100
AcDbBlockBegin
  2
*Paper_Space0
 70
     0
 10
0.0
 20
0.0
 30
0.0
  3
*Paper_Space0
  1

  0
ENDBLK
  5
25
330
23
100
AcDbEntity
  8
0
100
AcDbBlockEnd
  0
BLOCK
  5
43
330
41
100
AcDbEntity
  8
0
100
AcDbBlockBegin
  2
block 2
 70
     0
 10
0.0
 20
0.0
 30
0.0
  3
block 2
  1

  0
INSERT
  5
46
330
41
100
AcDbEntity
  8
_U+56FE_U+5C42 1
100
AcDbBlockReference
  2
block 3
 10
0.0
 20
0.0
 30
0.0
  0
INSERT
  5
4B
330
41
100
AcDbEntity
  8
_U+56FE_U+5C42 1
100
AcDbBlockReference
  2
block 4
 10
0.0
 20
0.0
 30
0.0
  0
ENDBLK
  5
44
330
41
100
AcDbEntity
  8
0
100
AcDbBlockEnd
  0
BLOCK
  5
47
330
45
100
AcDbEntity
  8
0
100
AcDbBlockBegin
  2
block 3
 70
     0
 10
0.0
 20
0.0
 30
0.0
  3
block 3
  1

  0
SPLINE
  5
49
330
45
100
AcDbEntity
  8
_U+56FE_U+5C42 1
 62
     7
370
    35
100
AcDbSpline
210
0.0
220
0.0
230
1.0
 70
    11
 71
     3
 72
   341
 73
   337
 74
     0
 42
0.0000000001
 43
0.0000000001
 12
1.0
 22
0.0
 32
0.0
 13
1.0
 23
0.0
 33
0.0
 40
0.0
 40
0.0
 40
0.0
 40
0.0
 40
1.0
 40
1.0
 40
1.0
 40
2.0
 40
2.0
 40
2.0
 40
3.0
 40
3.0
 40
3.0
 40
4.0
 40
4.0
 40
4.0
 40
5.0
 40
5.0
 40
5.0
 40
6.0
 40
6.0
 40
6.0
 40
7.0
 40
7.0
 40
7.0
 40
8.0
 40
8.0
 40
8.0
 40
9.0
 40
9.0
 40
9.0
 40
10.0
 40
10.0
 40
10.0
 40
11.0
 40
11.0
 40
11.0
 40
12.0
 40
12.0
 40
12.0
 40
13.0
 40
13.0
 40
13.0
 40
14.0
 40
14.0
 40
14.0
 40
15.0
 40
15.0
 40
15.0
 40
16.0
 40
16.0
 40
16.0
 40
17.0
 40
17.0
 40
17.0
 40
18.0
 40
18.0
 40
18.0
 40
19.0
 40
19.0
 40
19.0
 40
20.0
 40
20.0
 40
20.0
 40
21.0
 40
21.0
 40
21.0
 40
22.0
 40
22.0
 40
22.0
 40
23.0
 40
23.0
 40
23.0
 40
24.0
 40
24.0
 40
24.0
 40
25.0
 40
25.0
 40
25.0
 40
26.0
 40
26.0
 40
26.0
 40
27.0
 40
27.0
 40
27.0
 40
28.0
 40
28.0
 40
28.0
 40
29.0
 40
29.0
 40
29.0
 40
30.0
 40
30.0
 40
30.0
 40
31.0
 40
31.0
 40
31.0
 40
32.0
 40
32.0
 40
32.0
 40
33.0
 40
33.0
 40
33.0
 40
34.0
 40
34.0
 40
34.0
 40
35.0
 40
35.0
 40
35.0
 40
36.0
 40
36.0
 40
36.0
 40
37.0
 40
37.0
 40
37.0
 40
38.0
 40
38.0
 40
38.0
 40
39.0
 40
39.0
 40
39.0
 40
40.0
 40
40.0
 40
40.0
 40
41.0
 40
41.0
 40
41.0
 40
42.0
 40
42.0
 40
42.0
 40
43.0
 40
43.0
 40
43.0
 40
44.0
 40
44.0
 40
44.0
 40
45.0
 40
45.0
 40
45.0
 40
46.0
 40
46.0
 40
46.0
 40
47.0
 40
47.0
 40
47.0
 40
48.0
 40
48.0
 40
48.0
 40
49.0
 40
49.0
 40
49.0
 40
50.0
 40
50.0
 40
50.0
 40
51.0
 40
51.0
 40
51.0
 40
52.0
 40
52.0
 40
52.0
 40
53.0
 40
53.0
 40
53.0
 40
54.0
 40
54.0
 40
54.0
 40
55.0
 40
55.0
 40
55.0
 40
56.0
 40
56.0
 40
56.0
 40
57.0
 40
57.0
 40
57.0
 40
58.0
 40
58.0
 40
58.0
 40
59.0
 40
59.0
 40
59.0
 40
60.0
 40
60.0
 40
60.0
 40
61.0
 40
61.0
 40
61.0
 40
62.0
 40
62.0
 40
62.0
 40
63.0
 40
63.0
 40
63.0
 40
64.0
 40
64.0
 40
64.0
 40
65.0
 40
65.0
 40
65.0
 40
66.0
 40
66.0
 40
66.0
 40
67.0
 40
67.0
 40
67.0
 40
68.0
 40
68.0
 40
68.0
 40
69.0
 40
69.0
 40
69.0
 40
70.0
 40
70.0
 40
70.0
 40
71.0
 40
71.0
 40
71.0
 40
72.0
 40
72.0
 40
72.0
 40
73.0
 40
73.0
 40
73.0
 40
74.0
 40
74.0
 40
74.0
 40
75.0
 40
75.0
 40
75.0
 40
76.0
 40
76.0
 40
76.0
 40
77.0
 40
77.0
 40
77.0
 40
78.0
 40
78.0
 40
78.0
 40
79.0
 40
79.0
 40
79.0
 40
80.0
 40
80.0
 40
80.0
 40
81.0
 40
81.0
 40
81.0
 40
82.0
 40
82.0
 40
82.0
 40
83.0
 40
83.0
 40
83.0
 40
84.0
 40
84.0
 40
84.0
 40
85.0
 40
85.0
 40
85.0
 40
86.0
 40
86.0
 40
86.0
 40
87.0
 40
87.0
 40
87.0
 40
88.0
 40
88.0
 40
88.0
 40
89.0
 40
89.0
 40
89.0
 40
90.0
 40
90.0
 40
90.0
 40
91.0
 40
91.0
 40
91.0
 40
92.0
 40
92.0
 40
92.0
 40
93.0
 40
93.0
 40
93.0
 40
94.0
 40
94.0
 40
94.0
 40
95.0
 40
95.0
 40
95.0
 40
96.0
 40
96.0
 40
96.0
 40
97.0
 40
97.0
 40
97.0
 40
98.0
 40
98.0
 40
98.0
 40
99.0
 40
99.0
 40
99.0
 40
100.0
 40
100.0
 40
100.0
 40
101.0
 40
101.0
 40
101.0
 40
102.0
 40
102.0
 40
102.0
 40
103.0
 40
103.0
 40
103.0
 40
104.0
 40
104.0
 40
104.0
 40
105.0
 40
105.0
 40
105.0
 40
106.0
 40
106.0
 40
106.0
 40
107.0
 40
107.0
 40
107.0
 40
108.0
 40
108.0
 40
108.0
 40
109.0
 40
109.0
 40
109.0
 40
110.0
 40
110.0
 40
110.0
 40
111.0
 40
111.0
 40
111.0
 40
112.0
 40
112.0
 40
112.0
 40
112.0
 10
-464.8199557003207
 20
406.4640072978588
 30
0.0
 10
-463.8256441813165
 20
406.4640074603263
 30
0.0
 10
-462.9470628585993
 20
406.4751413685175
 30
0.0
 10
-462.0688401072845
 20
406.4620938514472
 30
0.0
 10
-458.1787816183507
 20
406.4042876583253
 30
0.0
 10
-454.2887948436176
 20
406.341143174667
 30
0.0
 10
-450.3988259974764
 20
406.2769274471377
 30
0.0
 10
-444.5520038841202
 20
406.1804044002575
 30
0.0
 10
-438.7052534851222
 20
406.0794753587289
 30
0.0
 10
-432.85839551443
 20
405.9841490570772
 30
0.0
 10
-429.6046648438128
 20
405.9310983655844
 30
0.0
 10
-426.3508266016852
 20
405.8847485509683
 30
0.0
 10
-423.0970062880762
 20
405.8369465061798
 30
0.0
 10
-419.7706461808464
 20
405.7880821937602
 30
0.0
 10
-416.4442143589478
 20
405.7417682485539
 30
0.0
 10
-413.1178542517546
 20
405.6931728676533
 30
0.0
 10
-409.7415087405394
 20
405.6438558620218
 30
0.0
 10
-406.3651990867158
 20
405.5936737933564
 30
0.0
 10
-402.9888715040202
 20
405.5428373246838
 30
0.0
 10
-399.7840325832636
 20
405.4945780883166
 30
0.0
 10
-396.579211590868
 20
405.4437953779172
 30
0.0
 10
-393.3743547414807
 20
405.3963250073261
 30
0.0
 10
-389.9736261062306
 20
405.345950208403
 30
0.0
 10
-386.5728974713032
 20
405.2974982697957
 30
0.0
 10
-383.1721329789022
 20
405.2494497284706
 30
0.0
 10
-379.7245385455864
 20
405.2007378303858
 30
0.0
 10
-376.2768903262561
 20
405.1538277734599
 30
0.0
 10
-372.8292779642461
 20
405.1055730589463
 30
0.0
 10
-369.2818382243359
 20
405.0559199168904
 30
0.0
 10
-365.7343626269197
 20
405.0064460625209
 30
0.0
 10
-362.1869408155503
 20
404.9553182793226
 30
0.0
 10
-358.8596484125416
 20
404.9073638520131
 30
0.0
 10
-355.5323918666036
 20
404.8565363397025
 30
0.0
 10
-352.2050994635862
 20
404.8084833041771
 30
0.0
 10
-348.7552101478308
 20
404.7586643050819
 30
0.0
 10
-345.3053387607192
 20
404.7079981717119
 30
0.0
 10
-341.8553777306187
 20
404.6625717206723
 30
0.0
 10
-337.916552994953
 20
404.6107089219596
 30
0.0
 10
-333.9776924012607
 20
404.5558654656571
 30
0.0
 10
-330.038724237735
 20
404.5179333193492
 30
0.0
 10
-326.6622352991191
 20
404.4854200511235
 30
0.0
 10
-323.2854774292348
 20
404.4543366021556
 30
0.0
 10
-319.9089884979978
 20
404.4669858993665
 30
0.0
 10
-318.8635620633702
 20
404.4709035058989
 30
0.0
 10
-317.8119322799021
 20
404.50371332233
 30
0.0
 10
-316.786048253198
 20
404.8216263959823
 30
0.0
 10
-315.3269693671326
 20
405.2737811873612
 30
0.0
 10
-314.178380945406
 20
406.1426184144211
 30
0.0
 10
-313.237694560897
 20
407.3102026610194
 30
0.0
 10
-312.7469484353029
 20
407.9192833142741
 30
0.0
 10
-312.2936734388593
 20
408.5588428662265
 30
0.0
 10
-311.8302507585441
 20
409.1895949127739
 30
0.0
 10
-311.0260022830868
 20
410.2842135353918
 30
0.0
 10
-310.4997212697903
 20
410.4621700857975
 30
0.0
 10
-309.1799129115831
 20
410.0673519470612
 30
0.0
 10
-306.9814156132755
 20
409.4096578800431
 30
0.0
 10
-304.7821653071577
 20
408.7545993419776
 30
0.0
 10
-302.5855684571699
 20
408.0905091868148
 30
0.0
 10
-299.8759578274409
 20
407.271317347502
 30
0.0
 10
-297.1678173558741
 20
406.4473788667383
 30
0.0
 10
-294.4609677548646
 20
405.619141963747
 30
0.0
 10
-292.4322917487394
 20
404.9984125054553
 30
0.0
 10
-290.4079903595775
 20
404.3635058735099
 30
0.0
 10
-288.379386068466
 20
403.7424133576619
 30
0.0
 10
-285.650304794512
 20
402.9068480745727
 30
0.0
 10
-282.918641779408
 20
402.0796958660765
 30
0.0
 10
-280.1887716401089
 20
401.2467212900207
 30
0.0
 10
-277.3880470079586
 20
400.3921291140827
 30
0.0
 10
-274.5892945391747
 20
399.5310467239739
 30
0.0
 10
-271.786992176338
 20
398.6817256059563
 30
0.0
 10
-271.1574055442197
 20
398.4909098358947
 30
0.0
 10
-270.4926785436022
 20
398.3972769560397
 30
0.0
 10
-269.8853235748921
 20
398.1554179811609
 30
0.0
 10
-267.7734221938527
 20
397.3144201806525
 30
0.0
 10
-265.5666418268941
 20
396.7910618879701
 30
0.0
 10
-263.3948942525662
 20
396.1505435758858
 30
0.0
 10
-262.9281366959283
 20
396.0128820927898
 30
0.0
 10
-262.4435220953774
 20
395.9275502028648
 30
0.0
 10
-261.988238945181
 20
395.7605886295404
 30
0.0
 10
-261.1011234741349
 20
395.4352443943267
 30
0.0
 10
-260.2294267363144
 20
395.0678975364389
 30
0.0
 10
-259.3501999194312
 20
394.7208012227115
 30
0.0
 10
-259.0740610239699
 20
394.6117898789934
 30
0.0
 10
-258.9233517703495
 20
394.4056987207454
 30
0.0
 10
-258.8650832297794
 20
394.1238271292048
 30
0.0
 10
-258.5122806632675
 20
392.4171967690844
 30
0.0
 10
-257.5195645914501
 20
391.1128253064446
 30
0.0
 10
-256.2656264027307
 20
389.9686877641911
 30
0.0
 10
-255.4693738600404
 20
389.2422007869905
 30
0.0
 10
-254.7007316152391
 20
388.4905687088124
 30
0.0
 10
-254.1002253270432
 20
387.5834986707678
 30
0.0
 10
-253.6955370862473
 20
386.9722353363764
 30
0.0
 10
-253.4897505821791
 20
386.2975310255551
 30
0.0
 10
-253.4834753959744
 20
385.5780361386126
 30
0.0
 10
-253.4732199480692
 20
384.3976509073737
 30
0.0
 10
-254.0181826233226
 20
383.5231482884009
 30
0.0
 10
-255.0491942355262
 20
382.9480829010868
 30
0.0
 10
-256.2419233162008
 20
382.2828268222378
 30
0.0
 10
-257.5561378033957
 20
382.0929161373342
 30
0.0
 10
-258.8794242817033
 20
382.1156137408207
 30
0.0
 10
-260.4168878176507
 20
382.1419687778842
 30
0.0
 10
-261.95431551486
 20
382.283390645018
 30
0.0
 10
-263.4874044499965
 20
382.422867241604
 30
0.0
 10
-267.0918756449303
 20
382.7508017397169
 30
0.0
 10
-270.691147507097
 20
383.1389231113145
 30
0.0
 10
-274.2974832899742
 20
383.4432185291275
 30
0.0
 10
-277.7845927670695
 20
383.7374290346712
 30
0.0
 10
-281.2801645994404
 20
383.8908897492649
 30
0.0
 10
-284.7822266157891
 20
383.8614680695007
 30
0.0
 10
-287.7945464186768
 20
383.8361611219157
 30
0.0
 10
-290.7935271869329
 20
383.6176268843448
 30
0.0
 10
-293.788922187775
 20
383.3139220371564
 30
0.0
 10
-297.5890678351
 20
382.9286322017768
 30
0.0
 10
-301.3467939743479
 20
382.2736488876191
 30
0.0
 10
-305.0988904740528
 20
381.578684422759
 30
0.0
 10
-305.1951679528295
 20
381.5608721764797
 30
0.0
 10
-305.2922701555118
 20
381.5466546479554
 30
0.0
 10
-305.3874360499346
 20
381.5241898866797
 30
0.0
 10
-306.3506769776702
 20
381.296969493871
 30
0.0
 10
-307.0294243026769
 20
381.5629874713362
 30
0.0
 10
-307.610316515169
 20
382.4454682079016
 30
0.0
 10
-308.7721009401589
 20
384.2104296810214
 30
0.0
 10
-310.2047531489355
 20
385.7537870608921
 30
0.0
 10
-311.9249827418359
 20
387.0081281788393
 30
0.0
 10
-314.0545261464341
 20
388.5608980477975
 30
0.0
 10
-316.4462238547994
 20
389.2862104300327
 30
0.0
 10
-319.0714257109894
 20
389.2733416281761
 30
0.0
 10
-324.5527340203401
 20
389.2464655100043
 30
0.0
 10
-330.0340602592547
 20
389.224457052209
 30
0.0
 10
-335.5153147808224
 20
389.1885358708222
 30
0.0
 10
-339.0633999444544
 20
389.1652771973758
 30
0.0
 10
-342.6114133901231
 20
389.1243945454584
 30
0.0
 10
-346.1593730497606
 20
389.085156857978
 30
0.0
 10
-350.2450523044956
 20
389.0399801783746
 30
0.0
 10
-354.3306598435608
 20
388.9911729233656
 30
0.0
 10
-358.4162315243643
 20
388.9378521011254
 30
0.0
 10
-361.8903784470448
 20
388.8925096803511
 30
0.0
 10
-365.3643640088712
 20
388.8352849689173
 30
0.0
 10
-368.8384930026638
 20
388.7891985042876
 30
0.0
 10
-372.8022924944458
 20
388.7366127814136
 30
0.0
 10
-376.7661816314659
 20
388.6925701162638
 30
0.0
 10
-380.7300169809593
 20
388.6410242619057
 30
0.0
 10
-384.2038770433816
 20
388.595852164475
 30
0.0
 10
-387.677683318775
 20
388.5461575354257
 30
0.0
 10
-391.1514895942528
 20
388.4971038598302
 30
0.0
 10
-394.527763374558
 20
388.4494307152679
 30
0.0
 10
-397.9040192259082
 20
388.4006459871101
 30
0.0
 10
-401.2802571483779
 20
388.3512203055392
 30
0.0
 10
-404.6565488571588
 20
388.30179014175
 30
0.0
 10
-408.0327688504389
 20
388.2497737532564
 30
0.0
 10
-411.4090605593404
 20
388.2010741867441
 30
0.0
 10
-414.9076623201154
 20
388.1506130988412
 30
0.0
 10
-418.4063178675643
 20
388.1025141260513
 30
0.0
 10
-421.9049375573906
 20
388.0538503970908
 30
0.0
 10
-425.3544503530424
 20
388.0058679693192
 30
0.0
 10
-428.8039631490036
 20
387.9597815087095
 30
0.0
 10
-432.2534580156562
 20
387.9104320124191
 30
0.0
 10
-435.5564748518501
 20
387.8631757236776
 30
0.0
 10
-438.8594020433478
 20
387.8106259663259
 30
0.0
 10
-442.1624368084622
 20
387.7642437049829
 30
0.0
 10
-448.7678429742784
 20
387.6714926290085
 30
0.0
 10
-455.3733567137628
 20
387.5852900353524
 30
0.0
 10
-461.9787090926835
 20
387.4888904551772
 30
0.0
 10
-467.0408428092625
 20
387.4150096592055
 30
0.0
 10
-472.1028062006655
 20
387.3295648081819
 30
0.0
 10
-477.1648502724145
 20
387.2496375353713
 30
0.0
 10
-477.3103601493983
 20
387.2473381471556
 30
0.0
 10
-477.4559417421586
 20
387.2493416631384
 30
0.0
 10
-477.6295908201624
 20
387.2493416347631
 30
0.0
 10
-478.0675456693001
 20
386.515221283119
 30
0.0
 10
-478.8103434479164
 20
386.3625173664199
 30
0.0
 10
-479.5638447016253
 20
386.215129327545
 30
0.0
 10
-481.4819896931379
 20
385.8399426601933
 30
0.0
 10
-483.407342054106
 20
385.4947821951029
 30
0.0
 10
-485.312255605528
 20
385.0605785093757
 30
0.0
 10
-487.5588376672433
 20
384.5485101303747
 30
0.0
 10
-489.2655664701191
 20
383.1830907731818
 30
0.0
 10
-490.6629522512496
 20
381.4100340433562
 30
0.0
 10
-491.5164869105707
 20
380.3270377362454
 30
0.0
 10
-492.1405602162518
 20
379.1076573319478
 30
0.0
 10
-492.6177251885824
 20
377.8140428896598
 30
0.0
 10
-493.1749241437446
 20
376.3034455251395
 30
0.0
 10
-493.2912636639773
 20
374.7591600784424
 30
0.0
 10
-492.9054363311612
 20
373.1963722257028
 30
0.0
 10
-492.0738726491343
 20
369.8281216969672
 30
0.0
 10
-490.515019609868
 20
366.8418078219686
 30
0.0
 10
-488.0740981832412
 20
364.3601799329714
 30
0.0
 10
-486.6693700487259
 20
362.9320283265623
 30
0.0
 10
-484.9490777478201
 20
361.9388645297665
 30
0.0
 10
-483.1523551328835
 20
361.0803009677659
 30
0.0
 10
-480.1747541517142
 20
359.6574386047781
 30
0.0
 10
-477.0182331283316
 20
358.8065039555527
 30
0.0
 10
-473.7937352201216
 20
358.1839369939838
 30
0.0
 10
-472.6426455570466
 20
357.9616921796365
 30
0.0
 10
-471.4781451872383
 20
357.8091454513026
 30
0.0
 10
-470.3264818040307
 20
357.5895182371087
 30
0.0
 10
-469.7768395604245
 20
357.4846798587358
 30
0.0
 10
-469.232701439725
 20
357.3264585741041
 30
0.0
 10
-468.7042868436386
 20
357.1405731985884
 30
0.0
 10
-467.9351964582708
 20
356.8700282220732
 30
0.0
 10
-467.4636697796224
 20
356.3049314750285
 30
0.0
 10
-467.2456737667495
 20
355.5194094540246
 30
0.0
 10
-466.8367004096159
 20
354.0458441167254
 30
0.0
 10
-467.1306244165162
 20
352.7719244555176
 30
0.0
 10
-468.2636327065356
 20
351.7028766838936
 30
0.0
 10
-469.8937518574916
 20
350.1647405571188
 30
0.0
 10
-471.8424473806224
 20
349.2493332256315
 30
0.0
 10
-474.0002910105144
 20
348.7563993383022
 30
0.0
 10
-477.9602177493022
 20
347.8518116894066
 30
0.0
 10
-481.94384646729
 20
347.8562035865394
 30
0.0
 10
-485.9569680958122
 20
348.3986826146631
 30
0.0
 10
-491.1224612834287
 20
349.0969355512373
 30
0.0
 10
-496.0999356001784
 20
350.4949034937221
 30
0.0
 10
-500.974731929942
 20
352.2888910347974
 30
0.0
 10
-503.9327904998759
 20
353.3774894589554
 30
0.0
 10
-506.8630325992965
 20
354.5414783551745
 30
0.0
 10
-509.8120012881777
 20
355.6550963759207
 30
0.0
 10
-512.5228848938197
 20
356.6788106307498
 30
0.0
 10
-515.3153443405943
 20
357.3893361964604
 30
0.0
 10
-518.2028799709348
 20
357.6671867996089
 30
0.0
 10
-520.4891564435954
 20
357.8871724037478
 30
0.0
 10
-522.7438333867347
 20
357.637531876108
 30
0.0
 10
-524.9671259698175
 20
357.0667602338077
 30
0.0
 10
-527.5606027651777
 20
356.4009839918165
 30
0.0
 10
-530.0082200099962
 20
355.3545621100279
 30
0.0
 10
-532.4257706989162
 20
354.2301232011883
 30
0.0
 10
-537.1029644686348
 20
352.054690605544
 30
0.0
 10
-541.7688900039834
 20
349.8549197098105
 30
0.0
 10
-546.4540172561677
 20
347.6967794091649
 30
0.0
 10
-549.4966588622866
 20
346.2952423314653
 30
0.0
 10
-552.603463069997
 20
345.0452391865472
 30
0.0
 10
-555.7935912608381
 20
344.0154640440799
 30
0.0
 10
-558.4286313913365
 20
343.164878059508
 30
0.0
 10
-561.125494440774
 20
342.5974948768878
 30
0.0
 10
-563.8774167747089
 20
342.2710115703135
 30
0.0
 10
-565.872704793376
 20
342.034297726463
 30
0.0
 10
-567.8717623508354
 20
341.8919160923984
 30
0.0
 10
-569.8789595935156
 20
341.9010863290281
 30
0.0
 10
-574.6903191719895
 20
341.92307517625
 30
0.0
 10
-579.291822684345
 20
342.9116666665423
 30
0.0
 10
-583.663197188992
 20
344.9421705912599
 30
0.0
 10
-585.6412917084032
 20
345.8609927113243
 30
0.0
 10
-587.5534442392252
 20
346.8925509324504
 30
0.0
 10
-589.3173796910467
 20
348.1827316495727
 30
0.0
 10
-592.0115852154061
 20
350.1533268715937
 30
0.0
 10
-594.238580577063
 20
352.569604437864
 30
0.0
 10
-596.0820863824599
 20
355.3417053517791
 30
0.0
 10
-599.1209527175864
 20
359.911281553255
 30
0.0
 10
-601.0448201089374
 20
364.9333710652568
 30
0.0
 10
-601.947395488189
 20
370.3285046103269
 30
0.0
 10
-602.3704733550768
 20
372.8574378822007
 30
0.0
 10
-602.5951481244343
 20
375.4212784968751
 30
0.0
 10
-602.8618266327225
 20
377.9742990934733
 30
0.0
 10
-603.3504199289201
 20
382.6517889634911
 30
0.0
 10
-603.5000441049694
 20
387.3464546481963
 30
0.0
 10
-603.4818852726237
 20
392.0471175330577
 30
0.0
 10
-603.4746076213636
 20
393.9309200328344
 30
0.0
 10
-603.5041220426405
 20
395.817488038998
 30
0.0
 10
-603.4112031504134
 20
397.6975748157044
 30
0.0
 10
-603.3231653490146
 20
399.4788651180786
 30
0.0
 10
-603.1245160156741
 20
401.2564486658368
 30
0.0
 10
-602.9243091199913
 20
403.0299892767684
 30
0.0
 10
-602.6719912163335
 20
405.2651687672264
 30
0.0
 10
-602.4111773180548
 20
407.5009354262097
 30
0.0
 10
-602.0791391477574
 20
409.7252635431374
 30
0.0
 10
-601.2332910758785
 20
415.3916237692556
 30
0.0
 10
-600.1411118136579
 20
421.0012484507376
 30
0.0
 10
-598.1286466372063
 20
426.3948428392163
 30
0.0
 10
-596.4050025738736
 20
431.0143850529192
 30
0.0
 10
-594.0879386591972
 20
435.2867905664659
 30
0.0
 10
-590.9434598072104
 20
439.1048543526005
 30
0.0
 10
-587.278553758703
 20
443.5548232384589
 30
0.0
 10
-582.8807441815418
 20
447.0030851084457
 30
0.0
 10
-577.4536438291631
 20
449.0392706918813
 30
0.0
 10
-573.8382542900302
 20
450.395722615545
 30
0.0
 10
-570.1101733970472
 20
451.2289823057113
 30
0.0
 10
-566.2267082395005
 20
451.337189775656
 30
0.0
 10
-560.5057595626682
 20
451.49659762374
 30
0.0
 10
-555.0510707993624
 20
450.351106585651
 30
0.0
 10
-549.8088556815358
 20
448.1123254312572
 30
0.0
 10
-546.8866053165267
 20
446.8643234495959
 30
0.0
 10
-543.9560270417005
 20
445.6329223874846
 30
0.0
 10
-541.0649951318231
 20
444.3154957306112
 30
0.0
 10
-537.5945681625927
 20
442.7340490170676
 30
0.0
 10
-534.1729253524081
 20
441.0458857889532
 30
0.0
 10
-530.7107904351241
 20
439.4458447010246
 30
0.0
 10
-526.16980081403
 20
437.347202522988
 30
0.0
 10
-521.4784157956823
 20
435.6724053985518
 30
0.0
 10
-516.5648307085228
 20
434.6811761893268
 30
0.0
 10
-512.2233167548857
 20
433.8053476400002
 30
0.0
 10
-507.865066442872
 20
433.823806018313
 30
0.0
 10
-503.5043062212375
 20
434.5633549452995
 30
0.0
 10
-499.0113482357938
 20
435.3253238177073
 30
0.0
 10
-494.6304451141363
 20
436.4952214374432
 30
0.0
 10
-490.3263399231373
 20
438.0011086305335
 30
0.0
 10
-485.4797730080722
 20
439.6967898454357
 30
0.0
 10
-480.5453012997726
 20
441.1110252818605
 30
0.0
 10
-475.5348384649021
 20
442.2476976365699
 30
0.0
 10
-471.3920562317314
 20
443.1875243079439
 30
0.0
 10
-467.2074999051365
 20
443.7291373714077
 30
0.0
 10
-462.9481984352942
 20
443.5891816257554
 30
0.0
 10
-459.1111373720526
 20
443.4631004360902
 30
0.0
 10
-455.3522277287399
 20
442.8609622719006
 30
0.0
 10
-451.7039205562198
 20
441.6703246211637
 30
0.0
 10
-448.8424173891531
 20
440.7364581683893
 30
0.0
 10
-446.2970879508637
 20
439.2714227913208
 30
0.0
 10
-444.3796596571476
 20
436.8747995858881
 30
0.0
 10
-443.8426033157965
 20
436.2035085183074
 30
0.0
 10
-443.4264227163787
 20
435.4782227064334
 30
0.0
 10
-443.1696467702654
 20
434.6373299343224
 30
0.0
 10
-442.5606420685619
 20
432.6427860203325
 30
0.0
 10
-444.1313809865972
 20
430.157065234647
 30
0.0
 10
-446.0413684145215
 20
429.9388292407787
 30
0.0
 10
-447.667668958955
 20
429.7530085049768
 30
0.0
 10
-449.2926606989483
 20
429.5402072153303
 30
0.0
 10
-450.9241605964611
 20
429.4185490555021
 30
0.0
 10
-456.6630335147548
 20
428.9906086064685
 30
0.0
 10
-461.775385395891
 20
426.9991363001601
 30
0.0
 10
-466.1947184189618
 20
423.3090075086971
 30
0.0
 10
-469.0780403501504
 20
420.9014469706315
 30
0.0
 10
-470.8337950830391
 20
417.7929166279234
 30
0.0
 10
-471.5972103703452
 20
414.1273979083638
 30
0.0
 10
-471.8363171910515
 20
412.9793068289007
 30
0.0
 10
-471.7556196219411
 20
411.8384500594049
 30
0.0
 10
-471.2475002440829
 20
410.7551715966951
 30
0.0
 10
-470.9025596008293
 20
410.0197829126709
 30
0.0
 10
-470.3991466095845
 20
409.4575727024059
 30
0.0
 10
-469.6148795179919
 20
409.1594443195029
 30
0.0
 10
-468.4040959844951
 20
408.6991906436368
 30
0.0
 10
-467.2032808414606
 20
408.2126668394982
 30
0.0
 10
-465.9995433106048
 20
407.7340048003917
 30
0.0
 10
-465.7726906001756
 20
407.643796243583
 30
0.0
 10
-465.5459096042134
 20
407.5498585031086
 30
0.0
 10
-465.3297603643421
 20
407.4371538234711
 30
0.0
 10
-464.9879304532872
 20
407.2588926258753
 30
0.0
 10
-464.7186761835489
 20
407.0213185711953
 30
0.0
 10
-464.8199557003207
 20
406.4640072978588
 30
0.0
  0
ENDBLK
  5
48
330
45
100
AcDbEntity
  8
0
100
AcDbBlockEnd
  0
BLOCK
  5
4C
330
4A
100
AcDbEntity
  8
0
100
AcDbBlockBegin
  2
block 4
 70
     0
 10
0.0
 20
0.0
 30
0.0
  3
block 4
  1

  0
SPLINE
  5
4E
330
4A
100
AcDbEntity
  8
_U+56FE_U+5C42 1
 62
     7
370
    35
100
AcDbSpline
210
0.0
220
0.0
230
1.0
 70
    11
 71
     3
 72
   182
 73
   178
 74
     0
 42
0.0000000001
 43
0.0000000001
 12
1.0
 22
0.0
 32
0.0
 13
1.0
 23
0.0
 33
0.0
 40
0.0
 40
0.0
 40
0.0
 40
0.0
 40
1.0
 40
1.0
 40
1.0
 40
2.0
 40
2.0
 40
2.0
 40
3.0
 40
3.0
 40
3.0
 40
4.0
 40
4.0
 40
4.0
 40
5.0
 40
5.0
 40
5.0
 40
6.0
 40
6.0
 40
6.0
 40
7.0
 40
7.0
 40
7.0
 40
8.0
 40
8.0
 40
8.0
 40
9.0
 40
9.0
 40
9.0
 40
10.0
 40
10.0
 40
10.0
 40
11.0
 40
11.0
 40
11.0
 40
12.0
 40
12.0
 40
12.0
 40
13.0
 40
13.0
 40
13.0
 40
14.0
 40
14.0
 40
14.0
 40
15.0
 40
15.0
 40
15.0
 40
16.0
 40
16.0
 40
16.0
 40
17.0
 40
17.0
 40
17.0
 40
18.0
 40
18.0
 40
18.0
 40
19.0
 40
19.0
 40
19.0
 40
20.0
 40
20.0
 40
20.0
 40
21.0
 40
21.0
 40
21.0
 40
22.0
 40
22.0
 40
22.0
 40
23.0
 40
23.0
 40
23.0
 40
24.0
 40
24.0
 40
24.0
 40
25.0
 40
25.0
 40
25.0
 40
26.0
 40
26.0
 40
26.0
 40
27.0
 40
27.0
 40
27.0
 40
28.0
 40
28.0
 40
28.0
 40
29.0
 40
29.0
 40
29.0
 40
30.0
 40
30.0
 40
30.0
 40
31.0
 40
31.0
 40
31.0
 40
32.0
 40
32.0
 40
32.0
 40
33.0
 40
33.0
 40
33.0
 40
34.0
 40
34.0
 40
34.0
 40
35.0
 40
35.0
 40
35.0
 40
36.0
 40
36.0
 40
36.0
 40
37.0
 40
37.0
 40
37.0
 40
38.0
 40
38.0
 40
38.0
 40
39.0
 40
39.0
 40
39.0
 40
40.0
 40
40.0
 40
40.0
 40
41.0
 40
41.0
 40
41.0
 40
42.0
 40
42.0
 40
42.0
 40
43.0
 40
43.0
 40
43.0
 40
44.0
 40
44.0
 40
44.0
 40
45.0
 40
45.0
 40
45.0
 40
46.0
 40
46.0
 40
46.0
 40
47.0
 40
47.0
 40
47.0
 40
48.0
 40
48.0
 40
48.0
 40
49.0
 40
49.0
 40
49.0
 40
50.0
 40
50.0
 40
50.0
 40
51.0
 40
51.0
 40
51.0
 40
52.0
 40
52.0
 40
52.0
 40
53.0
 40
53.0
 40
53.0
 40
54.0
 40
54.0
 40
54.0
 40
55.0
 40
55.0
 40
55.0
 40
56.0
 40
56.0
 40
56.0
 40
57.0
 40
57.0
 40
57.0
 40
58.0
 40
58.0
 40
58.0
 40
59.0
 40
59.0
 40
59.0
 40
59.0
 10
-492.2380165756272
 20
406.9135711460764
 30
0.0
 10
-492.2380165096342
 20
406.5096629065483
 30
0.0
 10
-492.234896852696
 20
406.1951833600145
 30
0.0
 10
-492.2384915192123
 20
405.880775527462
 30
0.0
 10
-492.2946167225021
 20
400.9633045327239
 30
0.0
 10
-492.3668150659009
 20
396.0459500723609
 30
0.0
 10
-492.3988440055787
 20
391.1283266870375
 30
0.0
 10
-492.408059160969
 20
389.7138051951068
 30
0.0
 10
-492.3020550916386
 20
388.2985307137691
 30
0.0
 10
-492.2475693302329
 20
386.848994349247
 30
0.0
 10
-492.0906119303624
 20
386.8218188454915
 30
0.0
 10
-491.9771586857125
 20
386.7994347977537
 30
0.0
 10
-491.8628807186966
 20
386.7828551886466
 30
0.0
 10
-491.2624821370892
 20
386.6957662984232
 30
0.0
 10
-491.0389820561586
 20
386.2993926599767
 30
0.0
 10
-491.3028306740235
 20
385.7507275082135
 30
0.0
 10
-491.3855988012462
 20
385.5786337372634
 30
0.0
 10
-491.5085004756881
 20
385.4131377462117
 30
0.0
 10
-491.6488378824004
 20
385.2833334462906
 30
0.0
 10
-493.8752408634404
 20
383.2240572538053
 30
0.0
 10
-494.9088607683184
 20
380.549811083003
 30
0.0
 10
-495.4504614721717
 20
377.6710605056691
 30
0.0
 10
-496.1585127093033
 20
373.907579009322
 30
0.0
 10
-495.7588798810411
 20
370.2368252796854
 30
0.0
 10
-494.3741150761839
 20
366.6482392526569
 30
0.0
 10
-493.4449652693578
 20
364.240379030686
 30
0.0
 10
-492.1710990857655
 20
362.0572649305412
 30
0.0
 10
-490.4470864181249
 20
360.1615759407627
 30
0.0
 10
-489.5813867575258
 20
359.2096750628245
 30
0.0
 10
-488.5288693668065
 20
358.4269321371576
 30
0.0
 10
-487.5546468925789
 20
357.5747600463865
 30
0.0
 10
-487.0401629057198
 20
357.1247391008183
 30
0.0
 10
-486.4725290962843
 20
356.7285941103788
 30
0.0
 10
-485.9985910109772
 20
356.2404476340068
 30
0.0
 10
-484.8666311886811
 20
355.0745938521381
 30
0.0
 10
-485.3306991579706
 20
353.5462918448879
 30
0.0
 10
-486.9114337066704
 20
353.158268235101
 30
0.0
 10
-487.7315313585977
 20
352.9569638991645
 30
0.0
 10
-488.564448121363
 20
353.0129821972414
 30
0.0
 10
-489.3945679985927
 20
353.0825008577471
 30
0.0
 10
-490.7418700757553
 20
353.1953263717313
 30
0.0
 10
-492.0362375083814
 20
353.5629645030358
 30
0.0
 10
-493.3431729993522
 20
353.8834768667952
 30
0.0
 10
-496.6307801993113
 20
354.6897240415033
 30
0.0
 10
-499.7654371579412
 20
355.9522494107135
 30
0.0
 10
-502.9523743770855
 20
357.0578801266427
 30
0.0
 10
-505.939262396662
 20
358.0941175804921
 30
0.0
 10
-508.9965387149373
 20
358.8692314880121
 30
0.0
 10
-512.087153553286
 20
359.502475052528
 30
0.0
 10
-515.3689787038429
 20
360.1748839784934
 30
0.0
 10
-518.6931604638905
 20
360.2118973759109
 30
0.0
 10
-522.0247019356011
 20
359.9587426338853
 30
0.0
 10
-524.9154736271864
 20
359.7390968304069
 30
0.0
 10
-527.6151603967494
 20
358.7997992934754
 30
0.0
 10
-530.2899440932014
 20
357.7687064708034
 30
0.0
 10
-531.7273650114264
 20
357.2145997463349
 30
0.0
 10
-533.1871700035377
 20
356.7070450631273
 30
0.0
 10
-534.5857661615794
 20
356.0668175101262
 30
0.0
 10
-536.2296816275144
 20
355.314266188409
 30
0.0
 10
-537.8157947263484
 20
354.4359087142951
 30
0.0
 10
-539.4314723732289
 20
353.6210101080607
 30
0.0
 10
-540.7417603833793
 20
352.9601375936732
 30
0.0
 10
-542.0578393873157
 20
352.3107305251694
 30
0.0
 10
-543.3730488457629
 20
351.659647117044
 30
0.0
 10
-543.9651194527274
 20
351.3665564929404
 30
0.0
 10
-544.5711296808314
 20
351.1002066233463
 30
0.0
 10
-545.1538414683214
 20
350.7898416332474
 30
0.0
 10
-547.1892180727565
 20
349.7057604425871
 30
0.0
 10
-549.312907337703
 20
348.828541357375
 30
0.0
 10
-551.4905084279189
 20
348.0815478663937
 30
0.0
 10
-553.6650436990521
 20
347.3356032088028
 30
0.0
 10
-555.8320668117965
 20
346.5603001955919
 30
0.0
 10
-558.0334280156202
 20
345.9016238096266
 30
0.0
 10
-561.9057054505844
 20
344.7429765746161
 30
0.0
 10
-565.8599488229307
 20
344.1619762875989
 30
0.0
 10
-569.9148892700259
 20
344.5103764002604
 30
0.0
 10
-570.9451748755682
 20
344.5989084860303
 30
0.0
 10
-571.9333547990591
 20
344.861977130682
 30
0.0
 10
-572.8984290413101
 20
345.2347519076837
 30
0.0
 10
-574.8290347094139
 20
345.9804986780645
 30
0.0
 10
-576.0312261991238
 20
348.3872741649753
 30
0.0
 10
-575.7199338160481
 20
350.3795547224384
 30
0.0
 10
-575.4254272240373
 20
352.2643881732798
 30
0.0
 10
-574.4198656322944
 20
353.6653063756429
 30
0.0
 10
-573.0612417567227
 20
354.888389190457
 30
0.0
 10
-570.9298119165812
 20
356.807188991565
 30
0.0
 10
-568.5105132408421
 20
358.3478800966622
 30
0.0
 10
-566.230458368057
 20
360.0712294627071
 30
0.0
 10
-563.7235956495141
 20
361.9660047766474
 30
0.0
 10
-561.4144065926358
 20
364.0759163043862
 30
0.0
 10
-559.3082698271177
 20
366.397494828528
 30
0.0
 10
-557.7620394066524
 20
368.1019023317634
 30
0.0
 10
-556.4762826365611
 20
370.0104915615692
 30
0.0
 10
-555.2928498362572
 20
371.9879182776331
 30
0.0
 10
-554.2074156525712
 20
373.8015746505808
 30
0.0
 10
-553.323231898536
 20
375.7009394638678
 30
0.0
 10
-552.6689442663261
 20
377.7096069709107
 30
0.0
 10
-552.3873551846
 20
378.5741142589382
 30
0.0
 10
-552.2315095173445
 20
379.4589796419549
 30
0.0
 10
-552.1512649839713
 20
380.3644272377622
 30
0.0
 10
-552.0439301328006
 20
381.5756051464821
 30
0.0
 10
-551.7557881329927
 20
382.7243730449224
 30
0.0
 10
-550.8651543434526
 20
383.6361585924755
 30
0.0
 10
-550.1051719433281
 20
384.4141775840534
 30
0.0
 10
-549.8164427430343
 20
385.358920590185
 30
0.0
 10
-549.818464388382
 20
386.4409799793972
 30
0.0
 10
-549.8317104251448
 20
393.5386563285577
 30
0.0
 10
-549.8305282862359
 20
400.6363730197959
 30
0.0
 10
-549.820959966303
 20
407.7340628192561
 30
0.0
 10
-549.8195079124514
 20
408.8131325870523
 30
0.0
 10
-550.1124506806917
 20
409.7508070815355
 30
0.0
 10
-550.8737511008253
 20
410.5369789315863
 30
0.0
 10
-551.3111951738534
 20
410.9887120870448
 30
0.0
 10
-551.41965982603
 20
411.5441542520982
 30
0.0
 10
-551.3291913665961
 20
412.1658029059928
 30
0.0
 10
-551.1059157107441
 20
413.7001110110194
 30
0.0
 10
-550.4395843223123
 20
415.0562206856763
 30
0.0
 10
-549.6691091984684
 20
416.3697002503278
 30
0.0
 10
-549.3974705171397
 20
416.8327689849281
 30
0.0
 10
-549.093008742021
 20
417.2799035327467
 30
0.0
 10
-548.7695424703156
 20
417.7086745435117
 30
0.0
 10
-547.2473590605033
 20
419.7264051843522
 30
0.0
 10
-545.1634089575521
 20
420.9018872398583
 30
0.0
 10
-542.7850773760065
 20
421.5879946690865
 30
0.0
 10
-540.772761566541
 20
422.1685105620734
 30
0.0
 10
-538.7094114424845
 20
422.2729280413706
 30
0.0
 10
-536.6151162462464
 20
422.2586570846183
 30
0.0
 10
-533.6585728317528
 20
422.2385011508019
 30
0.0
 10
-530.8596052301446
 20
421.4532126255048
 30
0.0
 10
-528.0514132848007
 20
420.7117689027319
 30
0.0
 10
-526.0201286567925
 20
420.1754436002502
 30
0.0
 10
-524.0351809002102
 20
419.4660922368599
 30
0.0
 10
-522.0191536434501
 20
418.8690197852699
 30
0.0
 10
-518.7102560036542
 20
417.8890383743853
 30
0.0
 10
-515.343089909069
 20
417.1521710608633
 30
0.0
 10
-511.9395194811705
 20
416.5938249738801
 30
0.0
 10
-509.7697351533807
 20
416.2378765420631
 30
0.0
 10
-507.5961409588002
 20
415.8592930418371
 30
0.0
 10
-505.408741644152
 20
415.6701000797901
 30
0.0
 10
-503.4163893943293
 20
415.4977735739285
 30
0.0
 10
-501.4120965796758
 20
415.2908938527816
 30
0.0
 10
-499.40186940201
 20
415.4452832807249
 30
0.0
 10
-496.4977318147671
 20
415.6683176234551
 30
0.0
 10
-493.6105727933855
 20
416.0321420927099
 30
0.0
 10
-490.7728882542705
 20
416.6911502648522
 30
0.0
 10
-488.7023935778472
 20
417.1720001485912
 30
0.0
 10
-486.6576087721108
 20
417.7631567704196
 30
0.0
 10
-484.5991712004605
 20
418.2966679246545
 30
0.0
 10
-484.2459117441944
 20
418.3882212338169
 30
0.0
 10
-483.883849262683
 20
418.4774034649096
 30
0.0
 10
-483.5220019150291
 20
418.4971386149048
 30
0.0
 10
-482.8853603497311
 20
418.5318577772701
 30
0.0
 10
-482.527842757666
 20
418.2959735233623
 30
0.0
 10
-482.4050395630797
 20
417.6758264385891
 30
0.0
 10
-482.3073456281254
 20
417.1824043608953
 30
0.0
 10
-482.30230755853
 20
416.6565894672992
 30
0.0
 10
-482.3432298880296
 20
416.1522218543621
 30
0.0
 10
-482.5130418678402
 20
414.0595357396094
 30
0.0
 10
-482.2803530290087
 20
412.044118196523
 30
0.0
 10
-481.2425011940313
 20
410.1835829255894
 30
0.0
 10
-480.9711492178268
 20
409.6971396490252
 30
0.0
 10
-480.6105837021682
 20
409.2586199826766
 30
0.0
 10
-480.2733166185188
 20
408.8114272712262
 30
0.0
 10
-480.0381628525139
 20
408.4996191489695
 30
0.0
 10
-479.7500833710569
 20
408.2265282088735
 30
0.0
 10
-479.5264129794916
 20
407.907544095536
 30
0.0
 10
-479.2011492029786
 20
407.4436686639299
 30
0.0
 10
-479.3754257223236
 20
407.0426155521588
 30
0.0
 10
-479.9454170864562
 20
406.9599683228582
 30
0.0
 10
-480.3304463246436
 20
406.9041425600128
 30
0.0
 10
-480.7265017653708
 20
406.912622802343
 30
0.0
 10
-481.1176357579785
 20
406.9123717356886
 30
0.0
 10
-484.5196462915185
 20
406.9102017989404
 30
0.0
 10
-487.9216568257964
 20
406.9125633581793
 30
0.0
 10
-491.323667359855
 20
406.9135623310855
 30
0.0
 10
-491.5909673551192
 20
406.9136384846783
 30
0.0
 10
-491.858258385985
 20
406.9135712081168
 30
0.0
 10
-492.2380165756272
 20
406.9135711460764
 30
0.0
  0
ENDBLK
  5
4D
330
4A
100
AcDbEntity
  8
0
100
AcDbBlockEnd
  0
ENDSEC
  0
SECTION
  2
ENTITIES
  0
INSERT
  5
42
330
1F
100
AcDbEntity
  8
_U+56FE_U+5C42 1
100
AcDbBlockReference
  2
block 2
 10
0.0
 20
0.0
 30
0.0
  0
ENDSEC
  0
SECTION
  2
OBJECTS
  0
DICTIONARY
  5
C
330
0
100
AcDbDictionary
281
     1
  3
ACAD_GROUP
350
D
  3
ACAD_LAYOUT
350
1A
  3
ACAD_MATERIAL
350
3B
  3
ACAD_MLEADERSTYLE
350
76
  3
ACAD_MLINESTYLE
350
17
  3
ACAD_PLOTSETTINGS
350
19
  3
ACAD_PLOTSTYLENAME
350
E
  3
ACAD_TABLESTYLE
350
75
  3
ACAD_VISUALSTYLE
350
2A
  0
DICTIONARY
  5
D
102
{ACAD_REACTORS
330
C
102
}
330
C
100
AcDbDictionary
281
     1
  0
DICTIONARY
  5
1A
102
{ACAD_REACTORS
330
C
102
}
330
C
100
AcDbDictionary
281
     1
  3
Layout1
350
1E
  3
Layout2
350
26
  3
Model
350
22
  0
DICTIONARY
  5
3B
102
{ACAD_REACTORS
330
C
102
}
330
C
100
AcDbDictionary
281
     1
  3
ByBlock
350
3D
  3
ByLayer
350
3C
  3
Global
350
3E
  0
DICTIONARY
  5
76
102
{ACAD_REACTORS
330
C
102
}
330
C
100
AcDbDictionary
281
     1
  0
DICTIONARY
  5
17
102
{ACAD_REACTORS
330
C
102
}
330
C
100
AcDbDictionary
281
     1
  3
Standard
350
18
  0
DICTIONARY
  5
19
102
{ACAD_REACTORS
330
C
102
}
330
C
100
AcDbDictionary
281
     1
  0
ACDBDICTIONARYWDFLT
  5
E
102
{ACAD_REACTORS
330
C
102
}
330
C
100
AcDbDictionary
281
     1
  3
Normal
350
F
100
AcDbDictionaryWithDefault
340
F
  0
DICTIONARY
  5
75
102
{ACAD_REACTORS
330
C
102
}
330
C
100
AcDbDictionary
281
     1
  0
DICTIONARY
  5
2A
102
{ACAD_REACTORS
330
C
102
}
330
C
100
AcDbDictionary
281
     1
  3
2dWireframe
350
2F
  3
3D Hidden
350
31
  3
3dWireframe
350
30
  3
Basic
350
32
  3
Brighten
350
36
  3
ColorChange
350
3A
  3
Conceptual
350
34
  3
Dim
350
35
  3
Facepattern
350
39
  3
Flat
350
2B
  3
FlatWithEdges
350
2C
  3
Gouraud
350
2D
  3
GouraudWithEdges
350
2E
  3
Linepattern
350
38
  3
Realistic
350
33
  3
Thicken
350
37
  0
LAYOUT
  5
1E
102
{ACAD_REACTORS
330
1A
102
}
330
1A
100
AcDbPlotSettings
  1

  2
none_device
  4

  6

 40
0.0
 41
0.0
 42
0.0
 43
0.0
 44
0.0
 45
0.0
 46
0.0
 47
0.0
 48
0.0
 49
0.0
140
0.0
141
0.0
142
1.0
143
1.0
 70
   688
 72
     0
 73
     0
 74
     5
  7

 75
    16
 76
     0
 77
     2
 78
   300
147
1.0
148
0.0
149
0.0
100
AcDbLayout
  1
Layout1
 70
     1
 71
     1
 10
0.0
 20
0.0
 11
12.0
 21
9.0
 12
0.0
 22
0.0
 32
0.0
 14
1.000000000000000E+20
 24
1.000000000000000E+20
 34
1.000000000000000E+20
 15
-1.000000000000000E+20
 25
-1.000000000000000E+20
 35
-1.000000000000000E+20
146
0.0
 13
0.0
 23
0.0
 33
0.0
 16
1.0
 26
0.0
 36
0.0
 17
0.0
 27
1.0
 37
0.0
 76
     0
330
1B
  0
LAYOUT
  5
26
102
{ACAD_REACTORS
330
1A
102
}
330
1A
100
AcDbPlotSettings
  1

  2
none_device
  4

  6

 40
0.0
 41
0.0
 42
0.0
 43
0.0
 44
0.0
 45
0.0
 46
0.0
 47
0.0
 48
0.0
 49
0.0
140
0.0
141
0.0
142
1.0
143
1.0
 70
   688
 72
     0
 73
     0
 74
     5
  7

 75
    16
 76
     0
 77
     2
 78
   300
147
1.0
148
0.0
149
0.0
100
AcDbLayout
  1
Layout2
 70
     1
 71
     2
 10
0.0
 20
0.0
 11
0.0
 21
0.0
 12
0.0
 22
0.0
 32
0.0
 14
0.0
 24
0.0
 34
0.0
 15
0.0
 25
0.0
 35
0.0
146
0.0
 13
0.0
 23
0.0
 33
0.0
 16
1.0
 26
0.0
 36
0.0
 17
0.0
 27
1.0
 37
0.0
 76
     0
330
23
  0
LAYOUT
  5
22
102
{ACAD_REACTORS
330
1A
102
}
330
1A
100
AcDbPlotSettings
  1

  2
none_device
  4

  6

 40
0.0
 41
0.0
 42
0.0
 43
0.0
 44
0.0
 45
0.0
 46
0.0
 47
0.0
 48
0.0
 49
0.0
140
0.0
141
0.0
142
1.0
143
1.0
 70
  1712
 72
     0
 73
     0
 74
     0
  7

 75
     0
 76
     0
 77
     2
 78
   300
147
1.0
148
0.0
149
0.0
100
AcDbLayout
  1
Model
 70
     1
 71
     0
 10
0.0
 20
0.0
 11
12.0
 21
9.0
 12
0.0
 22
0.0
 32
0.0
 14
1.000000000000000E+20
 24
1.000000000000000E+20
 34
1.000000000000000E+20
 15
-1.000000000000000E+20
 25
-1.000000000000000E+20
 35
-1.000000000000000E+20
146
0.0
 13
0.0
 23
0.0
 33
0.0
 16
1.0
 26
0.0
 36
0.0
 17
0.0
 27
1.0
 37
0.0
 76
     0
330
1F
331
29
  0
MATERIAL
  5
3D
102
{ACAD_REACTORS
330
3B
102
}
102
{ACAD_XDICTIONARY
360
71
102
}
330
3B
100
AcDbMaterial
  1
ByBlock
  0
MATERIAL
  5
3C
102
{ACAD_REACTORS
330
3B
102
}
102
{ACAD_XDICTIONARY
360
6F
102
}
330
3B
100
AcDbMaterial
  1
ByLayer
  0
MATERIAL
  5
3E
102
{ACAD_REACTORS
330
3B
102
}
102
{ACAD_XDICTIONARY
360
73
102
}
330
3B
100
AcDbMaterial
  1
Global
  0
MLINESTYLE
  5
18
102
{ACAD_REACTORS
330
17
102
}
330
17
100
AcDbMlineStyle
  2
Standard
 70
     0
  3

 62
   256
 51
90.0
 52
90.0
 71
     2
 49
0.5
 62
   256
  6
BYLAYER
 49
-0.5
 62
   256
  6
BYLAYER
  0
ACDBPLACEHOLDER
  5
F
102
{ACAD_REACTORS
330
E
102
}
330
E
  0
VISUALSTYLE
  5
2F
102
{ACAD_REACTORS
330
2A
102
}
102
{ACAD_XDICTIONARY
360
57
102
}
330
2A
100
AcDbVisualStyle
  2
2dWireframe
 70
     4
 71
     0
 72
     2
 73
     0
 90
        0
 40
-0.6
 41
-30.0
 62
     5
 63
     7
421
 16777215
 74
     1
 91
        4
 64
     7
 65
   257
 75
     1
175
     1
 42
1.0
 92
        0
 66
   257
 43
1.0
 76
     1
 77
     6
 78
     2
 67
     7
 79
     5
170
     0
171
     0
290
     0
174
     0
 93
        1
 44
0.0
173
     0
291
     0
 45
0.0
1001
ACAD
1000
AcDbSavedByObjectVersion
1070
     0
  0
VISUALSTYLE
  5
31
102
{ACAD_REACTORS
330
2A
102
}
102
{ACAD_XDICTIONARY
360
5B
102
}
330
2A
100
AcDbVisualStyle
  2
3D Hidden
 70
     6
 71
     1
 72
     2
 73
     2
 90
        0
 40
-0.6
 41
-30.0
 62
     5
 63
     7
421
 16777215
 74
     2
 91
        2
 64
     7
 65
   257
 75
     2
175
     1
 42
40.0
 92
        0
 66
   257
 43
1.0
 76
     1
 77
     6
 78
     2
 67
     7
 79
     3
170
     0
171
     0
290
     0
174
     0
 93
        1
 44
0.0
173
     0
291
     0
 45
0.0
1001
ACAD
1000
AcDbSavedByObjectVersion
1070
     0
  0
VISUALSTYLE
  5
30
102
{ACAD_REACTORS
330
2A
102
}
102
{ACAD_XDICTIONARY
360
59
102
}
330
2A
100
AcDbVisualStyle
  2
3dWireframe
 70
     5
 71
     0
 72
     2
 73
     0
 90
        0
 40
-0.6
 41
-30.0
 62
     5
 63
     7
421
 16777215
 74
     1
 91
        4
 64
     7
 65
   257
 75
     1
175
     1
 42
1.0
 92
        0
 66
   257
 43
1.0
 76
     1
 77
     6
 78
     2
 67
     7
 79
     5
170
     0
171
     0
290
     0
174
     0
 93
        1
 44
0.0
173
     0
291
     0
 45
0.0
1001
ACAD
1000
AcDbSavedByObjectVersion
1070
     0
  0
VISUALSTYLE
  5
32
102
{ACAD_REACTORS
330
2A
102
}
102
{ACAD_XDICTIONARY
360
5D
102
}
330
2A
100
AcDbVisualStyle
  2
Basic
 70
     7
 71
     1
 72
     0
 73
     1
 90
        0
 40
-0.6
 41
-30.0
 62
     5
 63
     7
421
 16777215
 74
     0
 91
        4
 64
     7
 65
   257
 75
     1
175
     1
 42
1.0
 92
        8
 66
     7
 43
1.0
 76
     1
 77
     6
 78
     2
 67
     7
 79
     5
170
     0
171
     0
290
     0
174
     0
 93
        1
 44
0.0
173
     0
291
     1
 45
0.0
1001
ACAD
1000
AcDbSavedByObjectVersion
1070
     0
  0
VISUALSTYLE
  5
36
102
{ACAD_REACTORS
330
2A
102
}
102
{ACAD_XDICTIONARY
360
65
102
}
330
2A
100
AcDbVisualStyle
  2
Brighten
 70
    12
 71
     2
 72
     2
 73
     0
 90
        0
 40
-0.6
 41
-30.0
 62
     5
 63
     7
421
 16777215
 74
     1
 91
        4
 64
     7
 65
   257
 75
     1
175
     1
 42
1.0
 92
        8
 66
     7
 43
1.0
 76
     1
 77
     6
 78
     2
 67
     7
 79
     5
170
     0
171
     0
290
     0
174
     0
 93
        1
 44
50.0
173
     0
291
     1
 45
0.0
1001
ACAD
1000
AcDbSavedByObjectVersion
1070
     0
  0
VISUALSTYLE
  5
3A
102
{ACAD_REACTORS
330
2A
102
}
102
{ACAD_XDICTIONARY
360
6D
102
}
330
2A
100
AcDbVisualStyle
  2
ColorChange
 70
    16
 71
     2
 72
     2
 73
     3
 90
        0
 40
-0.6
 41
-30.0
 62
     5
 63
     8
421
  8421504
 74
     1
 91
        4
 64
     7
 65
   257
 75
     1
175
     1
 42
1.0
 92
        8
 66
     8
424
  8421504
 43
1.0
 76
     1
 77
     6
 78
     2
 67
     7
 79
     5
170
     0
171
     0
290
     0
174
     0
 93
        1
 44
0.0
173
     0
291
     1
 45
0.0
1001
ACAD
1000
AcDbSavedByObjectVersion
1070
     0
  0
VISUALSTYLE
  5
34
102
{ACAD_REACTORS
330
2A
102
}
102
{ACAD_XDICTIONARY
360
61
102
}
330
2A
100
AcDbVisualStyle
  2
Conceptual
 70
     9
 71
     3
 72
     2
 73
     0
 90
        0
 40
-0.6
 41
-30.0
 62
     5
 63
     7
421
 16777215
 74
     2
 91
        2
 64
     7
 65
   257
 75
     1
175
     1
 42
40.0
 92
        8
 66
     7
 43
1.0
 76
     1
 77
     6
 78
     2
 67
     7
 79
     3
170
     0
171
     0
290
     0
174
     0
 93
        1
 44
0.0
173
     0
291
     0
 45
0.0
1001
ACAD
1000
AcDbSavedByObjectVersion
1070
     0
  0
VISUALSTYLE
  5
35
102
{ACAD_REACTORS
330
2A
102
}
102
{ACAD_XDICTIONARY
360
63
102
}
330
2A
100
AcDbVisualStyle
  2
Dim
 70
    11
 71
     2
 72
     2
 73
     0
 90
        0
 40
-0.6
 41
-30.0
 62
     5
 63
     7
421
 16777215
 74
     1
 91
        4
 64
     7
 65
   257
 75
     1
175
     1
 42
1.0
 92
        8
 66
     7
 43
1.0
 76
     1
 77
     6
 78
     2
 67
     7
 79
     5
170
     0
171
     0
290
     0
174
     0
 93
        1
 44
-50.0
173
     0
291
     1
 45
0.0
1001
ACAD
1000
AcDbSavedByObjectVersion
1070
     0
  0
VISUALSTYLE
  5
39
102
{ACAD_REACTORS
330
2A
102
}
102
{ACAD_XDICTIONARY
360
6B
102
}
330
2A
100
AcDbVisualStyle
  2
Facepattern
 70
    15
 71
     2
 72
     2
 73
     0
 90
        0
 40
-0.6
 41
-30.0
 62
     5
 63
     7
421
 16777215
 74
     1
 91
        4
 64
     7
 65
   257
 75
     1
175
     1
 42
1.0
 92
        8
 66
     7
 43
1.0
 76
     1
 77
     6
 78
     2
 67
     7
 79
     5
170
     0
171
     0
290
     0
174
     0
 93
        1
 44
0.0
173
     0
291
     1
 45
0.0
1001
ACAD
1000
AcDbSavedByObjectVersion
1070
     0
  0
VISUALSTYLE
  5
2B
102
{ACAD_REACTORS
330
2A
102
}
102
{ACAD_XDICTIONARY
360
4F
102
}
330
2A
100
AcDbVisualStyle
  2
Flat
 70
     0
 71
     2
 72
     1
 73
     1
 90
        2
 40
-0.6
 41
30.0
 62
     5
 63
     7
421
 16777215
 74
     0
 91
        4
 64
     7
 65
   257
 75
     1
175
     1
 42
1.0
 92
        8
 66
     7
 43
1.0
 76
     1
 77
     6
 78
     2
 67
     7
 79
     5
170
     0
171
     0
290
     0
174
     0
 93
       13
 44
0.0
173
     0
291
     1
 45
0.0
1001
ACAD
1000
AcDbSavedByObjectVersion
1070
     0
  0
VISUALSTYLE
  5
2C
102
{ACAD_REACTORS
330
2A
102
}
102
{ACAD_XDICTIONARY
360
51
102
}
330
2A
100
AcDbVisualStyle
  2
FlatWithEdges
 70
     1
 71
     2
 72
     1
 73
     1
 90
        2
 40
-0.6
 41
30.0
 62
     5
 63
     7
421
 16777215
 74
     1
 91
        4
 64
     7
 65
   257
 75
     1
175
     1
 42
1.0
 92
        0
 66
   257
 43
1.0
 76
     1
 77
     6
 78
     2
 67
     7
 79
     5
170
     0
171
     0
290
     0
174
     0
 93
       13
 44
0.0
173
     0
291
     1
 45
0.0
1001
ACAD
1000
AcDbSavedByObjectVersion
1070
     0
  0
VISUALSTYLE
  5
2D
102
{ACAD_REACTORS
330
2A
102
}
102
{ACAD_XDICTIONARY
360
53
102
}
330
2A
100
AcDbVisualStyle
  2
Gouraud
 70
     2
 71
     2
 72
     2
 73
     1
 90
        2
 40
-0.6
 41
30.0
 62
     5
 63
     7
421
 16777215
 74
     0
 91
        4
 64
     7
 65
   257
 75
     1
175
     1
 42
1.0
 92
        0
 66
     7
 43
1.0
 76
     1
 77
     6
 78
     2
 67
     7
 79
     5
170
     0
171
     0
290
     0
174
     0
 93
       13
 44
0.0
173
     0
291
     1
 45
0.0
1001
ACAD
1000
AcDbSavedByObjectVersion
1070
     0
  0
VISUALSTYLE
  5
2E
102
{ACAD_REACTORS
330
2A
102
}
102
{ACAD_XDICTIONARY
360
55
102
}
330
2A
100
AcDbVisualStyle
  2
GouraudWithEdges
 70
     3
 71
     2
 72
     2
 73
     1
 90
        2
 40
-0.6
 41
30.0
 62
     5
 63
     7
421
 16777215
 74
     1
 91
        4
 64
     7
 65
   257
 75
     1
175
     1
 42
1.0
 92
        0
 66
   257
 43
1.0
 76
     1
 77
     6
 78
     2
 67
     7
 79
     5
170
     0
171
     0
290
     0
174
     0
 93
       13
 44
0.0
173
     0
291
     1
 45
0.0
1001
ACAD
1000
AcDbSavedByObjectVersion
1070
     0
  0
VISUALSTYLE
  5
38
102
{ACAD_REACTORS
330
2A
102
}
102
{ACAD_XDICTIONARY
360
69
102
}
330
2A
100
AcDbVisualStyle
  2
Linepattern
 70
    14
 71
     2
 72
     2
 73
     0
 90
        0
 40
-0.6
 41
-30.0
 62
     5
 63
     7
421
 16777215
 74
     1
 91
        4
 64
     7
 65
   257
 75
     7
175
     7
 42
1.0
 92
        8
 66
     7
 43
1.0
 76
     1
 77
     6
 78
     2
 67
     7
 79
     5
170
     0
171
     0
290
     0
174
     0
 93
        1
 44
0.0
173
     0
291
     1
 45
0.0
1001
ACAD
1000
AcDbSavedByObjectVersion
1070
     0
  0
VISUALSTYLE
  5
33
102
{ACAD_REACTORS
330
2A
102
}
102
{ACAD_XDICTIONARY
360
5F
102
}
330
2A
100
AcDbVisualStyle
  2
Realistic
 70
     8
 71
     2
 72
     2
 73
     0
 90
        0
 40
-0.6
 41
-30.0
 62
     5
 63
     7
421
 16777215
 74
     1
 91
        0
 64
     7
 65
   257
 75
     1
175
     1
 42
1.0
 92
        8
 66
     8
424
  7895160
 43
1.0
 76
     1
 77
     6
 78
     2
 67
     7
 79
     5
170
     0
171
     0
290
     0
174
     0
 93
       13
 44
0.0
173
     0
291
     0
 45
0.0
1001
ACAD
1000
AcDbSavedByObjectVersion
1070
     0
  0
VISUALSTYLE
  5
37
102
{ACAD_REACTORS
330
2A
102
}
102
{ACAD_XDICTIONARY
360
67
102
}
330
2A
100
AcDbVisualStyle
  2
Thicken
 70
    13
 71
     2
 72
     2
 73
     0
 90
        0
 40
-0.6
 41
-30.0
 62
     5
 63
     7
421
 16777215
 74
     1
 91
        4
 64
     7
 65
   257
 75
     1
175
     1
 42
1.0
 92
       12
 66
     7
 43
1.0
 76
     1
 77
     6
 78
     2
 67
     7
 79
     5
170
     0
171
     0
290
     0
174
     0
 93
        1
 44
0.0
173
     0
291
     1
 45
0.0
1001
ACAD
1000
AcDbSavedByObjectVersion
1070
     0
  0
DICTIONARY
  5
71
330
3D
100
AcDbDictionary
280
     1
281
     1
  3
ACAD_XREC_ROUNDTRIP
360
72
  0
DICTIONARY
  5
6F
330
3C
100
AcDbDictionary
280
     1
281
     1
  3
ACAD_XREC_ROUNDTRIP
360
70
  0
DICTIONARY
  5
73
330
3E
100
AcDbDictionary
280
     1
281
     1
  3
ACAD_XREC_ROUNDTRIP
360
74
  0
DICTIONARY
  5
57
330
2F
100
AcDbDictionary
280
     1
281
     1
  3
ACAD_XREC_ROUNDTRIP
360
58
  0
DICTIONARY
  5
5B
330
31
100
AcDbDictionary
280
     1
281
     1
  3
ACAD_XREC_ROUNDTRIP
360
5C
  0
DICTIONARY
  5
59
330
30
100
AcDbDictionary
280
     1
281
     1
  3
ACAD_XREC_ROUNDTRIP
360
5A
  0
DICTIONARY
  5
5D
330
32
100
AcDbDictionary
280
     1
281
     1
  3
ACAD_XREC_ROUNDTRIP
360
5E
  0
DICTIONARY
  5
65
330
36
100
AcDbDictionary
280
     1
281
     1
  3
ACAD_XREC_ROUNDTRIP
360
66
  0
DICTIONARY
  5
6D
330
3A
100
AcDbDictionary
280
     1
281
     1
  3
ACAD_XREC_ROUNDTRIP
360
6E
  0
DICTIONARY
  5
61
330
34
100
AcDbDictionary
280
     1
281
     1
  3
ACAD_XREC_ROUNDTRIP
360
62
  0
DICTIONARY
  5
63
330
35
100
AcDbDictionary
280
     1
281
     1
  3
ACAD_XREC_ROUNDTRIP
360
64
  0
DICTIONARY
  5
6B
330
39
100
AcDbDictionary
280
     1
281
     1
  3
ACAD_XREC_ROUNDTRIP
360
6C
  0
DICTIONARY
  5
4F
330
2B
100
AcDbDictionary
280
     1
281
     1
  3
ACAD_XREC_ROUNDTRIP
360
50
  0
DICTIONARY
  5
51
330
2C
100
AcDbDictionary
280
     1
281
     1
  3
ACAD_XREC_ROUNDTRIP
360
52
  0
DICTIONARY
  5
53
330
2D
100
AcDbDictionary
280
     1
281
     1
  3
ACAD_XREC_ROUNDTRIP
360
54
  0
DICTIONARY
  5
55
330
2E
100
AcDbDictionary
280
     1
281
     1
  3
ACAD_XREC_ROUNDTRIP
360
56
  0
DICTIONARY
  5
69
330
38
100
AcDbDictionary
280
     1
281
     1
  3
ACAD_XREC_ROUNDTRIP
360
6A
  0
DICTIONARY
  5
5F
330
33
100
AcDbDictionary
280
     1
281
     1
  3
ACAD_XREC_ROUNDTRIP
360
60
  0
DICTIONARY
  5
67
330
37
100
AcDbDictionary
280
     1
281
     1
  3
ACAD_XREC_ROUNDTRIP
360
68
  0
XRECORD
  5
72
102
{ACAD_REACTORS
330
71
102
}
330
71
100
AcDbXrecord
280
     1
102
MATERIAL
148
0.0
149
0.0
149
0.0
 93
        0
 94
      127
282
     0
 72
     1
 77
     1
171
     1
175
     1
179
     1
273
     0
  0
XRECORD
  5
70
102
{ACAD_REACTORS
330
6F
102
}
330
6F
100
AcDbXrecord
280
     1
102
MATERIAL
148
0.0
149
0.0
149
0.0
 93
        0
 94
      127
282
     0
 72
     1
 77
     1
171
     1
175
     1
179
     1
273
     0
  0
XRECORD
  5
74
102
{ACAD_REACTORS
330
73
102
}
330
73
100
AcDbXrecord
280
     1
102
MATERIAL
148
0.0
149
0.0
149
0.0
 93
        0
 94
      127
282
     0
 72
     1
 77
     1
171
     1
175
     1
179
     1
273
     0
  0
XRECORD
  5
58
102
{ACAD_REACTORS
330
57
102
}
330
57
100
AcDbXrecord
280
     1
102
RTVSPropertyOp0
 70
     1
102
RTVSPropertyOp1
 70
     1
102
RTVSPropertyOp2
 70
     1
102
RTVSPropertyOp3
 70
     1
102
RTVSPropertyOp4
 70
     1
102
RTVSPropertyOp5
 70
     1
102
RTVSPropertyOp6
 70
     1
102
RTVSPropertyOp7
 70
     1
102
RTVSPropertyOp8
 70
     1
102
RTVSPropertyOp9
 70
     1
102
RTVSPropertyOp10
 70
     1
102
RTVSPropertyOp11
 70
     1
102
RTVSPropertyOp12
 70
     1
102
RTVSPropertyOp13
 70
     1
102
RTVSPropertyOp14
 70
     1
102
RTVSPropertyOp15
 70
     1
102
RTVSPropertyOp16
 70
     1
102
RTVSPropertyOp17
 70
     1
102
RTVSPropertyOp18
 70
     1
102
RTVSPropertyOp19
 70
     1
102
RTVSPropertyOp20
 70
     1
102
RTVSPropertyOp21
 70
     1
102
RTVSPropertyOp22
 70
     1
102
RTVSPropertyOp23
 70
     1
102
RTVSPropertyOp24
 70
     1
102
RTVSPropertyOp25
 70
     1
102
RTVSPropertyOp26
 70
     1
102
RTVSPropertyOp27
 70
     1
102
RTVSPropertyOp28
 70
     1
102
RTVSPropertyOp29
 70
     1
102
RTVSPropertyOp30
 70
     1
102
RTVSPropertyOp31
 70
     1
102
RTVSPropertyOp32
 70
     1
  0
XRECORD
  5
5C
102
{ACAD_REACTORS
330
5B
102
}
330
5B
100
AcDbXrecord
280
     1
102
RTVSPropertyOp0
 70
     1
102
RTVSPropertyOp1
 70
     1
102
RTVSPropertyOp2
 70
     1
102
RTVSPropertyOp3
 70
     1
102
RTVSPropertyOp4
 70
     1
102
RTVSPropertyOp5
 70
     1
102
RTVSPropertyOp6
 70
     1
102
RTVSPropertyOp7
 70
     1
102
RTVSPropertyOp8
 70
     1
102
RTVSPropertyOp9
 70
     1
102
RTVSPropertyOp10
 70
     1
102
RTVSPropertyOp11
 70
     1
102
RTVSPropertyOp12
 70
     1
102
RTVSPropertyOp13
 70
     1
102
RTVSPropertyOp14
 70
     1
102
RTVSPropertyOp15
 70
     1
102
RTVSPropertyOp16
 70
     1
102
RTVSPropertyOp17
 70
     1
102
RTVSPropertyOp18
 70
     1
102
RTVSPropertyOp19
 70
     1
102
RTVSPropertyOp20
 70
     1
102
RTVSPropertyOp21
 70
     1
102
RTVSPropertyOp22
 70
     1
102
RTVSPropertyOp23
 70
     1
102
RTVSPropertyOp24
 70
     1
102
RTVSPropertyOp25
 70
     1
102
RTVSPropertyOp26
 70
     1
102
RTVSPropertyOp27
 70
     1
102
RTVSPropertyOp28
 70
     1
102
RTVSPropertyOp29
 70
     1
102
RTVSPropertyOp30
 70
     1
102
RTVSPropertyOp31
 70
     1
102
RTVSPropertyOp32
 70
     1
  0
XRECORD
  5
5A
102
{ACAD_REACTORS
330
59
102
}
330
59
100
AcDbXrecord
280
     1
102
RTVSPropertyOp0
 70
     1
102
RTVSPropertyOp1
 70
     1
102
RTVSPropertyOp2
 70
     1
102
RTVSPropertyOp3
 70
     1
102
RTVSPropertyOp4
 70
     1
102
RTVSPropertyOp5
 70
     1
102
RTVSPropertyOp6
 70
     1
102
RTVSPropertyOp7
 70
     1
102
RTVSPropertyOp8
 70
     1
102
RTVSPropertyOp9
 70
     1
102
RTVSPropertyOp10
 70
     1
102
RTVSPropertyOp11
 70
     1
102
RTVSPropertyOp12
 70
     1
102
RTVSPropertyOp13
 70
     1
102
RTVSPropertyOp14
 70
     1
102
RTVSPropertyOp15
 70
     1
102
RTVSPropertyOp16
 70
     1
102
RTVSPropertyOp17
 70
     1
102
RTVSPropertyOp18
 70
     1
102
RTVSPropertyOp19
 70
     1
102
RTVSPropertyOp20
 70
     1
102
RTVSPropertyOp21
 70
     1
102
RTVSPropertyOp22
 70
     1
102
RTVSPropertyOp23
 70
     1
102
RTVSPropertyOp24
 70
     1
102
RTVSPropertyOp25
 70
     1
102
RTVSPropertyOp26
 70
     1
102
RTVSPropertyOp27
 70
     1
102
RTVSPropertyOp28
 70
     1
102
RTVSPropertyOp29
 70
     1
102
RTVSPropertyOp30
 70
     1
102
RTVSPropertyOp31
 70
     1
102
RTVSPropertyOp32
 70
     1
  0
XRECORD
  5
5E
102
{ACAD_REACTORS
330
5D
102
}
330
5D
100
AcDbXrecord
280
     1
102
RTVSPropertyOp0
 70
     1
102
RTVSPropertyOp1
 70
     1
102
RTVSPropertyOp2
 70
     1
102
RTVSPropertyOp3
 70
     1
102
RTVSPropertyOp4
 70
     1
102
RTVSPropertyOp5
 70
     1
102
RTVSPropertyOp6
 70
     1
102
RTVSPropertyOp7
 70
     1
102
RTVSPropertyOp8
 70
     1
102
RTVSPropertyOp9
 70
     1
102
RTVSPropertyOp10
 70
     1
102
RTVSPropertyOp11
 70
     1
102
RTVSPropertyOp12
 70
     1
102
RTVSPropertyOp13
 70
     1
102
RTVSPropertyOp14
 70
     1
102
RTVSPropertyOp15
 70
     1
102
RTVSPropertyOp16
 70
     1
102
RTVSPropertyOp17
 70
     1
102
RTVSPropertyOp18
 70
     1
102
RTVSPropertyOp19
 70
     1
102
RTVSPropertyOp20
 70
     1
102
RTVSPropertyOp21
 70
     1
102
RTVSPropertyOp22
 70
     1
102
RTVSPropertyOp23
 70
     1
102
RTVSPropertyOp24
 70
     1
102
RTVSPropertyOp25
 70
     1
102
RTVSPropertyOp26
 70
     1
102
RTVSPropertyOp27
 70
     1
102
RTVSPropertyOp28
 70
     1
102
RTVSPropertyOp29
 70
     1
102
RTVSPropertyOp30
 70
     1
102
RTVSPropertyOp31
 70
     1
102
RTVSPropertyOp32
 70
     1
  0
XRECORD
  5
66
102
{ACAD_REACTORS
330
65
102
}
330
65
100
AcDbXrecord
280
     1
102
RTVSPropertyOp0
 70
     1
102
RTVSPropertyOp1
 70
     1
102
RTVSPropertyOp2
 70
     1
102
RTVSPropertyOp3
 70
     1
102
RTVSPropertyOp4
 70
     1
102
RTVSPropertyOp5
 70
     1
102
RTVSPropertyOp6
 70
     1
102
RTVSPropertyOp7
 70
     1
102
RTVSPropertyOp8
 70
     1
102
RTVSPropertyOp9
 70
     1
102
RTVSPropertyOp10
 70
     1
102
RTVSPropertyOp11
 70
     1
102
RTVSPropertyOp12
 70
     1
102
RTVSPropertyOp13
 70
     1
102
RTVSPropertyOp14
 70
     1
102
RTVSPropertyOp15
 70
     1
102
RTVSPropertyOp16
 70
     1
102
RTVSPropertyOp17
 70
     1
102
RTVSPropertyOp18
 70
     1
102
RTVSPropertyOp19
 70
     1
102
RTVSPropertyOp20
 70
     1
102
RTVSPropertyOp21
 70
     1
102
RTVSPropertyOp22
 70
     1
102
RTVSPropertyOp23
 70
     1
102
RTVSPropertyOp24
 70
     1
102
RTVSPropertyOp25
 70
     1
102
RTVSPropertyOp26
 70
     1
102
RTVSPropertyOp27
 70
     1
102
RTVSPropertyOp28
 70
     1
102
RTVSPropertyOp29
 70
     1
102
RTVSPropertyOp30
 70
     1
102
RTVSPropertyOp31
 70
     1
102
RTVSPropertyOp32
 70
     1
  0
XRECORD
  5
6E
102
{ACAD_REACTORS
330
6D
102
}
330
6D
100
AcDbXrecord
280
     1
102
RTVSPropertyOp0
 70
     1
102
RTVSPropertyOp1
 70
     1
102
RTVSPropertyOp2
 70
     1
102
RTVSPropertyOp3
 70
     1
102
RTVSPropertyOp4
 70
     1
102
RTVSPropertyOp5
 70
     1
102
RTVSPropertyOp6
 70
     1
102
RTVSPropertyOp7
 70
     1
102
RTVSPropertyOp8
 70
     1
102
RTVSPropertyOp9
 70
     1
102
RTVSPropertyOp10
 70
     1
102
RTVSPropertyOp11
 70
     1
102
RTVSPropertyOp12
 70
     1
102
RTVSPropertyOp13
 70
     1
102
RTVSPropertyOp14
 70
     1
102
RTVSPropertyOp15
 70
     1
102
RTVSPropertyOp16
 70
     1
102
RTVSPropertyOp17
 70
     1
102
RTVSPropertyOp18
 70
     1
102
RTVSPropertyOp19
 70
     1
102
RTVSPropertyOp20
 70
     1
102
RTVSPropertyOp21
 70
     1
102
RTVSPropertyOp22
 70
     1
102
RTVSPropertyOp23
 70
     1
102
RTVSPropertyOp24
 70
     1
102
RTVSPropertyOp25
 70
     1
102
RTVSPropertyOp26
 70
     1
102
RTVSPropertyOp27
 70
     1
102
RTVSPropertyOp28
 70
     1
102
RTVSPropertyOp29
 70
     1
102
RTVSPropertyOp30
 70
     1
102
RTVSPropertyOp31
 70
     1
102
RTVSPropertyOp32
 70
     1
  0
XRECORD
  5
62
102
{ACAD_REACTORS
330
61
102
}
330
61
100
AcDbXrecord
280
     1
102
RTVSPropertyOp0
 70
     1
102
RTVSPropertyOp1
 70
     1
102
RTVSPropertyOp2
 70
     1
102
RTVSPropertyOp3
 70
     1
102
RTVSPropertyOp4
 70
     1
102
RTVSPropertyOp5
 70
     1
102
RTVSPropertyOp6
 70
     1
102
RTVSPropertyOp7
 70
     1
102
RTVSPropertyOp8
 70
     1
102
RTVSPropertyOp9
 70
     1
102
RTVSPropertyOp10
 70
     1
102
RTVSPropertyOp11
 70
     1
102
RTVSPropertyOp12
 70
     1
102
RTVSPropertyOp13
 70
     1
102
RTVSPropertyOp14
 70
     1
102
RTVSPropertyOp15
 70
     1
102
RTVSPropertyOp16
 70
     1
102
RTVSPropertyOp17
 70
     1
102
RTVSPropertyOp18
 70
     1
102
RTVSPropertyOp19
 70
     1
102
RTVSPropertyOp20
 70
     1
102
RTVSPropertyOp21
 70
     1
102
RTVSPropertyOp22
 70
     1
102
RTVSPropertyOp23
 70
     1
102
RTVSPropertyOp24
 70
     1
102
RTVSPropertyOp25
 70
     1
102
RTVSPropertyOp26
 70
     1
102
RTVSPropertyOp27
 70
     1
102
RTVSPropertyOp28
 70
     1
102
RTVSPropertyOp29
 70
     1
102
RTVSPropertyOp30
 70
     1
102
RTVSPropertyOp31
 70
     1
102
RTVSPropertyOp32
 70
     1
  0
XRECORD
  5
64
102
{ACAD_REACTORS
330
63
102
}
330
63
100
AcDbXrecord
280
     1
102
RTVSPropertyOp0
 70
     1
102
RTVSPropertyOp1
 70
     1
102
RTVSPropertyOp2
 70
     1
102
RTVSPropertyOp3
 70
     1
102
RTVSPropertyOp4
 70
     1
102
RTVSPropertyOp5
 70
     1
102
RTVSPropertyOp6
 70
     1
102
RTVSPropertyOp7
 70
     1
102
RTVSPropertyOp8
 70
     1
102
RTVSPropertyOp9
 70
     1
102
RTVSPropertyOp10
 70
     1
102
RTVSPropertyOp11
 70
     1
102
RTVSPropertyOp12
 70
     1
102
RTVSPropertyOp13
 70
     1
102
RTVSPropertyOp14
 70
     1
102
RTVSPropertyOp15
 70
     1
102
RTVSPropertyOp16
 70
     1
102
RTVSPropertyOp17
 70
     1
102
RTVSPropertyOp18
 70
     1
102
RTVSPropertyOp19
 70
     1
102
RTVSPropertyOp20
 70
     1
102
RTVSPropertyOp21
 70
     1
102
RTVSPropertyOp22
 70
     1
102
RTVSPropertyOp23
 70
     1
102
RTVSPropertyOp24
 70
     1
102
RTVSPropertyOp25
 70
     1
102
RTVSPropertyOp26
 70
     1
102
RTVSPropertyOp27
 70
     1
102
RTVSPropertyOp28
 70
     1
102
RTVSPropertyOp29
 70
     1
102
RTVSPropertyOp30
 70
     1
102
RTVSPropertyOp31
 70
     1
102
RTVSPropertyOp32
 70
     1
  0
XRECORD
  5
6C
102
{ACAD_REACTORS
330
6B
102
}
330
6B
100
AcDbXrecord
280
     1
102
RTVSPropertyOp0
 70
     1
102
RTVSPropertyOp1
 70
     1
102
RTVSPropertyOp2
 70
     1
102
RTVSPropertyOp3
 70
     1
102
RTVSPropertyOp4
 70
     1
102
RTVSPropertyOp5
 70
     1
102
RTVSPropertyOp6
 70
     1
102
RTVSPropertyOp7
 70
     1
102
RTVSPropertyOp8
 70
     1
102
RTVSPropertyOp9
 70
     1
102
RTVSPropertyOp10
 70
     1
102
RTVSPropertyOp11
 70
     1
102
RTVSPropertyOp12
 70
     1
102
RTVSPropertyOp13
 70
     1
102
RTVSPropertyOp14
 70
     1
102
RTVSPropertyOp15
 70
     1
102
RTVSPropertyOp16
 70
     1
102
RTVSPropertyOp17
 70
     1
102
RTVSPropertyOp18
 70
     1
102
RTVSPropertyOp19
 70
     1
102
RTVSPropertyOp20
 70
     1
102
RTVSPropertyOp21
 70
     1
102
RTVSPropertyOp22
 70
     1
102
RTVSPropertyOp23
 70
     1
102
RTVSPropertyOp24
 70
     1
102
RTVSPropertyOp25
 70
     1
102
RTVSPropertyOp26
 70
     1
102
RTVSPropertyOp27
 70
     1
102
RTVSPropertyOp28
 70
     1
102
RTVSPropertyOp29
 70
     1
102
RTVSPropertyOp30
 70
     1
102
RTVSPropertyOp31
 70
     1
102
RTVSPropertyOp32
 70
     1
  0
XRECORD
  5
50
102
{ACAD_REACTORS
330
4F
102
}
330
4F
100
AcDbXrecord
280
     1
102
RTVSPropertyOp0
 70
     1
102
RTVSPropertyOp1
 70
     1
102
RTVSPropertyOp2
 70
     1
102
RTVSPropertyOp3
 70
     1
102
RTVSPropertyOp4
 70
     1
102
RTVSPropertyOp5
 70
     1
102
RTVSPropertyOp6
 70
     1
102
RTVSPropertyOp7
 70
     1
102
RTVSPropertyOp8
 70
     1
102
RTVSPropertyOp9
 70
     1
102
RTVSPropertyOp10
 70
     1
102
RTVSPropertyOp11
 70
     1
102
RTVSPropertyOp12
 70
     1
102
RTVSPropertyOp13
 70
     1
102
RTVSPropertyOp14
 70
     1
102
RTVSPropertyOp15
 70
     1
102
RTVSPropertyOp16
 70
     1
102
RTVSPropertyOp17
 70
     1
102
RTVSPropertyOp18
 70
     1
102
RTVSPropertyOp19
 70
     1
102
RTVSPropertyOp20
 70
     1
102
RTVSPropertyOp21
 70
     1
102
RTVSPropertyOp22
 70
     1
102
RTVSPropertyOp23
 70
     1
102
RTVSPropertyOp24
 70
     1
102
RTVSPropertyOp25
 70
     1
102
RTVSPropertyOp26
 70
     1
102
RTVSPropertyOp27
 70
     1
102
RTVSPropertyOp28
 70
     1
102
RTVSPropertyOp29
 70
     1
102
RTVSPropertyOp30
 70
     1
102
RTVSPropertyOp31
 70
     1
102
RTVSPropertyOp32
 70
     1
  0
XRECORD
  5
52
102
{ACAD_REACTORS
330
51
102
}
330
51
100
AcDbXrecord
280
     1
102
RTVSPropertyOp0
 70
     1
102
RTVSPropertyOp1
 70
     1
102
RTVSPropertyOp2
 70
     1
102
RTVSPropertyOp3
 70
     1
102
RTVSPropertyOp4
 70
     1
102
RTVSPropertyOp5
 70
     1
102
RTVSPropertyOp6
 70
     1
102
RTVSPropertyOp7
 70
     1
102
RTVSPropertyOp8
 70
     1
102
RTVSPropertyOp9
 70
     1
102
RTVSPropertyOp10
 70
     1
102
RTVSPropertyOp11
 70
     1
102
RTVSPropertyOp12
 70
     1
102
RTVSPropertyOp13
 70
     1
102
RTVSPropertyOp14
 70
     1
102
RTVSPropertyOp15
 70
     1
102
RTVSPropertyOp16
 70
     1
102
RTVSPropertyOp17
 70
     1
102
RTVSPropertyOp18
 70
     1
102
RTVSPropertyOp19
 70
     1
102
RTVSPropertyOp20
 70
     1
102
RTVSPropertyOp21
 70
     1
102
RTVSPropertyOp22
 70
     1
102
RTVSPropertyOp23
 70
     1
102
RTVSPropertyOp24
 70
     1
102
RTVSPropertyOp25
 70
     1
102
RTVSPropertyOp26
 70
     1
102
RTVSPropertyOp27
 70
     1
102
RTVSPropertyOp28
 70
     1
102
RTVSPropertyOp29
 70
     1
102
RTVSPropertyOp30
 70
     1
102
RTVSPropertyOp31
 70
     1
102
RTVSPropertyOp32
 70
     1
  0
XRECORD
  5
54
102
{ACAD_REACTORS
330
53
102
}
330
53
100
AcDbXrecord
280
     1
102
RTVSPropertyOp0
 70
     1
102
RTVSPropertyOp1
 70
     1
102
RTVSPropertyOp2
 70
     1
102
RTVSPropertyOp3
 70
     1
102
RTVSPropertyOp4
 70
     1
102
RTVSPropertyOp5
 70
     1
102
RTVSPropertyOp6
 70
     1
102
RTVSPropertyOp7
 70
     1
102
RTVSPropertyOp8
 70
     1
102
RTVSPropertyOp9
 70
     1
102
RTVSPropertyOp10
 70
     1
102
RTVSPropertyOp11
 70
     1
102
RTVSPropertyOp12
 70
     1
102
RTVSPropertyOp13
 70
     1
102
RTVSPropertyOp14
 70
     1
102
RTVSPropertyOp15
 70
     1
102
RTVSPropertyOp16
 70
     1
102
RTVSPropertyOp17
 70
     1
102
RTVSPropertyOp18
 70
     1
102
RTVSPropertyOp19
 70
     1
102
RTVSPropertyOp20
 70
     1
102
RTVSPropertyOp21
 70
     1
102
RTVSPropertyOp22
 70
     1
102
RTVSPropertyOp23
 70
     1
102
RTVSPropertyOp24
 70
     1
102
RTVSPropertyOp25
 70
     1
102
RTVSPropertyOp26
 70
     1
102
RTVSPropertyOp27
 70
     1
102
RTVSPropertyOp28
 70
     1
102
RTVSPropertyOp29
 70
     1
102
RTVSPropertyOp30
 70
     1
102
RTVSPropertyOp31
 70
     1
102
RTVSPropertyOp32
 70
     1
  0
XRECORD
  5
56
102
{ACAD_REACTORS
330
55
102
}
330
55
100
AcDbXrecord
280
     1
102
RTVSPropertyOp0
 70
     1
102
RTVSPropertyOp1
 70
     1
102
RTVSPropertyOp2
 70
     1
102
RTVSPropertyOp3
 70
     1
102
RTVSPropertyOp4
 70
     1
102
RTVSPropertyOp5
 70
     1
102
RTVSPropertyOp6
 70
     1
102
RTVSPropertyOp7
 70
     1
102
RTVSPropertyOp8
 70
     1
102
RTVSPropertyOp9
 70
     1
102
RTVSPropertyOp10
 70
     1
102
RTVSPropertyOp11
 70
     1
102
RTVSPropertyOp12
 70
     1
102
RTVSPropertyOp13
 70
     1
102
RTVSPropertyOp14
 70
     1
102
RTVSPropertyOp15
 70
     1
102
RTVSPropertyOp16
 70
     1
102
RTVSPropertyOp17
 70
     1
102
RTVSPropertyOp18
 70
     1
102
RTVSPropertyOp19
 70
     1
102
RTVSPropertyOp20
 70
     1
102
RTVSPropertyOp21
 70
     1
102
RTVSPropertyOp22
 70
     1
102
RTVSPropertyOp23
 70
     1
102
RTVSPropertyOp24
 70
     1
102
RTVSPropertyOp25
 70
     1
102
RTVSPropertyOp26
 70
     1
102
RTVSPropertyOp27
 70
     1
102
RTVSPropertyOp28
 70
     1
102
RTVSPropertyOp29
 70
     1
102
RTVSPropertyOp30
 70
     1
102
RTVSPropertyOp31
 70
     1
102
RTVSPropertyOp32
 70
     1
  0
XRECORD
  5
6A
102
{ACAD_REACTORS
330
69
102
}
330
69
100
AcDbXrecord
280
     1
102
RTVSPropertyOp0
 70
     1
102
RTVSPropertyOp1
 70
     1
102
RTVSPropertyOp2
 70
     1
102
RTVSPropertyOp3
 70
     1
102
RTVSPropertyOp4
 70
     1
102
RTVSPropertyOp5
 70
     1
102
RTVSPropertyOp6
 70
     1
102
RTVSPropertyOp7
 70
     1
102
RTVSPropertyOp8
 70
     1
102
RTVSPropertyOp9
 70
     1
102
RTVSPropertyOp10
 70
     1
102
RTVSPropertyOp11
 70
     1
102
RTVSPropertyOp12
 70
     1
102
RTVSPropertyOp13
 70
     1
102
RTVSPropertyOp14
 70
     1
102
RTVSPropertyOp15
 70
     1
102
RTVSPropertyOp16
 70
     1
102
RTVSPropertyOp17
 70
     1
102
RTVSPropertyOp18
 70
     1
102
RTVSPropertyOp19
 70
     1
102
RTVSPropertyOp20
 70
     1
102
RTVSPropertyOp21
 70
     1
102
RTVSPropertyOp22
 70
     1
102
RTVSPropertyOp23
 70
     1
102
RTVSPropertyOp24
 70
     1
102
RTVSPropertyOp25
 70
     1
102
RTVSPropertyOp26
 70
     1
102
RTVSPropertyOp27
 70
     1
102
RTVSPropertyOp28
 70
     1
102
RTVSPropertyOp29
 70
     1
102
RTVSPropertyOp30
 70
     1
102
RTVSPropertyOp31
 70
     1
102
RTVSPropertyOp32
 70
     1
  0
XRECORD
  5
60
102
{ACAD_REACTORS
330
5F
102
}
330
5F
100
AcDbXrecord
280
     1
102
RTVSPropertyOp0
 70
     1
102
RTVSPropertyOp1
 70
     1
102
RTVSPropertyOp2
 70
     1
102
RTVSPropertyOp3
 70
     1
102
RTVSPropertyOp4
 70
     1
102
RTVSPropertyOp5
 70
     1
102
RTVSPropertyOp6
 70
     1
102
RTVSPropertyOp7
 70
     1
102
RTVSPropertyOp8
 70
     1
102
RTVSPropertyOp9
 70
     1
102
RTVSPropertyOp10
 70
     1
102
RTVSPropertyOp11
 70
     1
102
RTVSPropertyOp12
 70
     1
102
RTVSPropertyOp13
 70
     1
102
RTVSPropertyOp14
 70
     1
102
RTVSPropertyOp15
 70
     1
102
RTVSPropertyOp16
 70
     1
102
RTVSPropertyOp17
 70
     1
102
RTVSPropertyOp18
 70
     1
102
RTVSPropertyOp19
 70
     1
102
RTVSPropertyOp20
 70
     1
102
RTVSPropertyOp21
 70
     1
102
RTVSPropertyOp22
 70
     1
102
RTVSPropertyOp23
 70
     1
102
RTVSPropertyOp24
 70
     1
102
RTVSPropertyOp25
 70
     1
102
RTVSPropertyOp26
 70
     1
102
RTVSPropertyOp27
 70
     1
102
RTVSPropertyOp28
 70
     1
102
RTVSPropertyOp29
 70
     1
102
RTVSPropertyOp30
 70
     1
102
RTVSPropertyOp31
 70
     1
102
RTVSPropertyOp32
 70
     1
  0
XRECORD
  5
68
102
{ACAD_REACTORS
330
67
102
}
330
67
100
AcDbXrecord
280
     1
102
RTVSPropertyOp0
 70
     1
102
RTVSPropertyOp1
 70
     1
102
RTVSPropertyOp2
 70
     1
102
RTVSPropertyOp3
 70
     1
102
RTVSPropertyOp4
 70
     1
102
RTVSPropertyOp5
 70
     1
102
RTVSPropertyOp6
 70
     1
102
RTVSPropertyOp7
 70
     1
102
RTVSPropertyOp8
 70
     1
102
RTVSPropertyOp9
 70
     1
102
RTVSPropertyOp10
 70
     1
102
RTVSPropertyOp11
 70
     1
102
RTVSPropertyOp12
 70
     1
102
RTVSPropertyOp13
 70
     1
102
RTVSPropertyOp14
 70
     1
102
RTVSPropertyOp15
 70
     1
102
RTVSPropertyOp16
 70
     1
102
RTVSPropertyOp17
 70
     1
102
RTVSPropertyOp18
 70
     1
102
RTVSPropertyOp19
 70
     1
102
RTVSPropertyOp20
 70
     1
102
RTVSPropertyOp21
 70
     1
102
RTVSPropertyOp22
 70
     1
102
RTVSPropertyOp23
 70
     1
102
RTVSPropertyOp24
 70
     1
102
RTVSPropertyOp25
 70
     1
102
RTVSPropertyOp26
 70
     1
102
RTVSPropertyOp27
 70
     1
102
RTVSPropertyOp28
 70
     1
102
RTVSPropertyOp29
 70
     1
102
RTVSPropertyOp30
 70
     1
102
RTVSPropertyOp31
 70
     1
102
RTVSPropertyOp32
 70
     1
  0
ENDSEC
  0
EOF
